<?xml version="1.0" standalone="no"?>
<!DOCTYPE svg PUBLIC "-//W3C//DTD SVG 20010904//EN"
 "http://www.w3.org/TR/2001/REC-SVG-20010904/DTD/svg10.dtd">
<svg version="1.0" xmlns="http://www.w3.org/2000/svg"
 width="512.000000pt" height="512.000000pt" viewBox="0 0 512.000000 512.000000"
 preserveAspectRatio="xMidYMid meet">

<g transform="translate(0.000000,512.000000) scale(0.100000,-0.100000)"
fill="#000000" stroke="none">
<path d="M25 3975 c-14 -13 -25 -34 -25 -47 0 -13 65 -217 144 -454 l144 -431
-64 -6 c-182 -14 -279 -198 -188 -355 18 -30 50 -59 109 -98 l84 -56 -115
-172 c-123 -185 -132 -209 -89 -251 23 -24 31 -25 133 -25 l109 0 334 250
c184 138 340 258 347 267 20 27 14 72 -13 98 l-24 25 -272 0 -271 0 -27 -29
-26 -28 -71 48 c-92 62 -107 97 -59 144 l24 25 1893 0 c2052 0 1955 2 2065
-53 l46 -24 -44 -7 c-56 -9 -110 -44 -140 -93 -36 -57 -34 -154 3 -210 15 -22
44 -51 65 -64 38 -24 42 -24 378 -29 294 -5 347 -8 390 -24 60 -22 95 -57 95
-96 0 -52 -34 -75 -188 -125 -229 -73 -247 -75 -979 -75 l-642 0 24 25 c33 32
33 78 0 110 l-24 25 -472 0 -472 0 -75 -80 -75 -80 -281 0 c-307 0 -413 11
-553 55 -109 34 -182 67 -282 128 -86 52 -127 61 -157 37 -23 -20 -35 -57 -28
-86 11 -44 206 -158 369 -217 157 -56 251 -70 526 -76 l256 -6 -161 -176
c-471 -513 -466 -507 -466 -539 0 -19 9 -40 25 -55 l24 -25 269 0 269 0 529
397 529 398 805 6 c906 6 847 1 1110 88 156 51 197 74 237 134 56 84 56 190 0
274 -40 59 -78 81 -247 138 -162 56 -241 105 -328 205 -90 104 -156 156 -257
205 -146 71 -181 75 -674 75 l-429 0 -600 360 -600 360 -227 0 -226 0 -24 -25
c-16 -16 -25 -35 -25 -57 0 -29 30 -62 302 -335 l303 -303 -481 0 -481 0 -314
471 c-172 259 -321 475 -330 480 -10 5 -101 9 -204 9 -184 0 -186 0 -210 -25z
m599 -535 l266 -400 -217 2 -216 3 -133 398 -132 397 82 0 83 0 267 -400z
m1737 -117 l463 -278 -275 -3 -274 -2 -280 280 -280 280 92 0 91 0 463 -277z
m2074 -723 l39 -40 -145 0 c-148 0 -169 5 -169 40 0 33 22 40 130 40 l106 0
39 -40z m-3815 -54 c-8 -7 -89 -69 -180 -136 -91 -68 -171 -128 -179 -134 -8
-6 30 55 84 137 l98 147 96 0 c81 0 93 -2 81 -14z m2250 -470 c0 -2 -238 -182
-529 -400 l-529 -397 -133 3 -133 3 364 398 365 397 297 0 c164 0 298 -2 298
-4z"/>
<path d="M1305 2615 c-22 -21 -25 -33 -25 -95 0 -62 3 -74 25 -95 15 -16 36
-25 55 -25 19 0 40 9 55 25 22 21 25 33 25 95 0 62 -3 74 -25 95 -15 16 -36
25 -55 25 -19 0 -40 -9 -55 -25z"/>
<path d="M1625 2615 c-22 -21 -25 -33 -25 -95 0 -62 3 -74 25 -95 15 -16 36
-25 55 -25 19 0 40 9 55 25 22 21 25 33 25 95 0 62 -3 74 -25 95 -15 16 -36
25 -55 25 -19 0 -40 -9 -55 -25z"/>
<path d="M1945 2615 c-22 -21 -25 -33 -25 -95 0 -62 3 -74 25 -95 15 -16 36
-25 55 -25 19 0 40 9 55 25 22 21 25 33 25 95 0 62 -3 74 -25 95 -15 16 -36
25 -55 25 -19 0 -40 -9 -55 -25z"/>
<path d="M2265 2615 c-22 -21 -25 -33 -25 -95 0 -62 3 -74 25 -95 15 -16 36
-25 55 -25 19 0 40 9 55 25 22 21 25 33 25 95 0 62 -3 74 -25 95 -15 16 -36
25 -55 25 -19 0 -40 -9 -55 -25z"/>
<path d="M2585 2615 c-22 -21 -25 -33 -25 -95 0 -62 3 -74 25 -95 15 -16 36
-25 55 -25 19 0 40 9 55 25 22 21 25 33 25 95 0 62 -3 74 -25 95 -15 16 -36
25 -55 25 -19 0 -40 -9 -55 -25z"/>
<path d="M2905 2615 c-22 -21 -25 -33 -25 -95 0 -62 3 -74 25 -95 15 -16 36
-25 55 -25 19 0 40 9 55 25 22 21 25 33 25 95 0 62 -3 74 -25 95 -15 16 -36
25 -55 25 -19 0 -40 -9 -55 -25z"/>
<path d="M3225 2615 c-22 -21 -25 -33 -25 -95 0 -62 3 -74 25 -95 15 -16 36
-25 55 -25 19 0 40 9 55 25 22 21 25 33 25 95 0 62 -3 74 -25 95 -15 16 -36
25 -55 25 -19 0 -40 -9 -55 -25z"/>
<path d="M3545 2615 c-22 -21 -25 -33 -25 -95 0 -62 3 -74 25 -95 15 -16 36
-25 55 -25 19 0 40 9 55 25 22 21 25 33 25 95 0 62 -3 74 -25 95 -15 16 -36
25 -55 25 -19 0 -40 -9 -55 -25z"/>
</g>
</svg>
