<?xml version="1.0" encoding="UTF-8"?>
<!DOCTYPE svg PUBLIC "-//W3C//DTD SVG 1.1//EN" "http://www.w3.org/Graphics/SVG/1.1/DTD/svg11.dtd">
<svg xmlns="http://www.w3.org/2000/svg" version="1.1" width="1200px" height="600px" style="shape-rendering:geometricPrecision; text-rendering:geometricPrecision; image-rendering:optimizeQuality; fill-rule:evenodd; clip-rule:evenodd" xmlns:xlink="http://www.w3.org/1999/xlink">
<g><path style="opacity:0.99" fill="#fb4f00" d="M 538.5,14.5 C 648.025,11.2791 756.359,21.7791 863.5,46C 964.695,70.2282 1062.03,102.562 1155.5,143C 1175.89,154.286 1189.22,171.119 1195.5,193.5C 1196.83,264.5 1196.83,335.5 1195.5,406.5C 1193.27,412.417 1191.11,418.417 1189,424.5C 1181.93,437.569 1172.1,448.069 1159.5,456C 1081.12,489.461 1000.79,517.795 918.5,541C 884.096,550.068 849.429,558.068 814.5,565C 758.223,570.371 701.89,575.038 645.5,579C 643.744,579.202 642.078,579.702 640.5,580.5C 619.667,580.833 598.833,581.167 578,581.5C 539.777,581.445 501.61,580.278 463.5,578C 464.451,577.282 464.617,576.449 464,575.5C 460.591,576.622 457.091,576.789 453.5,576C 391.166,567.611 330.833,554.944 272.5,538C 230.202,526.254 188.202,513.254 146.5,499C 114.616,486.698 82.9498,474.531 51.5,462.5C 25.4117,451.754 9.07834,432.754 2.5,405.5C 2.70363,406.529 2.20363,407.529 1,408.5C 0.500004,337.167 0.333337,265.834 0.5,194.5C 1.5,194.5 2.5,194.5 3.5,194.5C 7.90332,170.782 20.9033,153.782 42.5,143.5C 42.1192,141.058 42.7859,140.391 44.5,141.5C 143.701,99.27 246.034,66.1034 351.5,42C 411.526,29.3842 472.193,20.8842 533.5,16.5C 535.64,16.4439 537.306,15.7773 538.5,14.5 Z"/></g>
</svg>
