<?xml version="1.0" encoding="UTF-8"?>
<!DOCTYPE svg PUBLIC "-//W3C//DTD SVG 1.1//EN" "http://www.w3.org/Graphics/SVG/1.1/DTD/svg11.dtd">
<svg xmlns="http://www.w3.org/2000/svg" version="1.1" width="1500px" height="800px" style="shape-rendering:geometricPrecision; text-rendering:geometricPrecision; image-rendering:optimizeQuality; fill-rule:evenodd; clip-rule:evenodd" xmlns:xlink="http://www.w3.org/1999/xlink">
<g><path style="opacity:0.989" fill="#fb4f00" d="M 689.5,18.5 C 821.341,16.241 952.341,30.741 1082.5,62C 1206.58,94.3041 1326.58,136.637 1442.5,189C 1469.92,204.744 1486.92,227.91 1493.5,258.5C 1494.5,258.5 1495.5,258.5 1496.5,258.5C 1496.5,353.167 1496.5,447.833 1496.5,542.5C 1495.5,542.5 1494.5,542.5 1493.5,542.5C 1485.92,576.592 1466.25,601.092 1434.5,616C 1357.34,648.943 1279.01,678.943 1199.5,706C 1134.77,725.865 1069.27,742.699 1003,756.5C 1001.54,756.006 1000.04,755.673 998.5,755.5C 935.569,761.654 872.569,767.154 809.5,772C 806.02,772.301 802.687,773.135 799.5,774.5C 774.5,774.833 749.5,775.167 724.5,775.5C 698.891,775.486 673.391,774.82 648,773.5C 646.989,773.892 646.489,774.559 646.5,775.5C 644.444,773.981 642.11,773.147 639.5,773C 620.492,772.05 601.492,771.217 582.5,770.5C 581.353,770.818 580.519,771.484 580,772.5C 579.805,770.793 579.805,769.126 580,767.5C 577.159,769.504 573.993,770.004 570.5,769C 477.146,754.823 385.813,733.49 296.5,705C 217.062,678.66 139.062,648.993 62.5,616C 54.7048,611.6 47.0381,606.933 39.5,602C 20.12,585.729 8.12004,565.229 3.5,540.5C 2.83333,541.833 2.16667,543.167 1.5,544.5C 0.333346,449.168 0.166679,353.835 1,258.5C 2.01127,259.337 3.17793,259.67 4.5,259.5C 8.30858,236.234 18.9752,216.734 36.5,201C 39.1662,198.665 42.1662,196.831 45.5,195.5C 46.3857,194.675 46.719,193.675 46.5,192.5C 100.421,168.723 155.088,146.223 210.5,125C 286.167,98.106 362.833,75.106 440.5,56C 522.751,37.2658 606.084,25.5991 690.5,21C 689.748,20.3292 689.414,19.4959 689.5,18.5 Z"/></g>
<g><path style="opacity:0.004" fill="#fb4f00" d="M 1443.5,186.5 C 1444.53,186.897 1444.69,187.563 1444,188.5C 1443.54,187.906 1443.37,187.239 1443.5,186.5 Z"/></g>
</svg>
