<?xml version="1.0" encoding="UTF-8"?>
<svg version="1.1" xmlns="http://www.w3.org/2000/svg" width="1500" height="861">
<path d="M0 0 C1.2757338 -0.00426498 2.55146759 -0.00852997 3.86585999 -0.01292419 C5.29306033 -0.01257462 6.72026066 -0.01211305 8.14746094 -0.0115509 C9.64037663 -0.01454095 11.13329155 -0.01794312 12.62620544 -0.02172852 C16.6948067 -0.03059373 20.76338694 -0.03290783 24.83199692 -0.0335443 C28.22864473 -0.03449233 31.62528763 -0.03816985 35.02193356 -0.0417164 C43.04180588 -0.04987238 51.06166697 -0.05229979 59.08154297 -0.05158997 C67.34578582 -0.05099053 75.6099631 -0.06151286 83.87418938 -0.07733363 C90.97068526 -0.09043335 98.0671598 -0.09577276 105.16366768 -0.09513456 C109.40108667 -0.09488006 113.63844757 -0.09770399 117.87585449 -0.10831261 C121.86818576 -0.11803319 125.86040395 -0.11804574 129.85273933 -0.11079597 C131.31316354 -0.10975467 132.77359492 -0.11208587 134.23400688 -0.11815643 C141.86839806 -0.14781742 148.74809854 0.15293258 156.13183594 2.13371277 C158.97296722 2.46454859 158.97296722 2.46454859 161.53417969 2.51261902 C162.44361328 2.54677917 163.35304688 2.58093933 164.29003906 2.61613464 C165.20720703 2.64256042 166.124375 2.66898621 167.06933594 2.69621277 C168.9327505 2.75599467 170.79604754 2.81960203 172.65917969 2.88761902 C173.4712085 2.91154724 174.2832373 2.93547546 175.11987305 2.96012878 C177.13183594 3.13371277 177.13183594 3.13371277 179.13183594 4.13371277 C180.61416196 4.37312238 182.10414599 4.56599653 183.59619141 4.73454285 C184.99339417 4.89546165 184.99339417 4.89546165 186.41882324 5.05963135 C187.43528931 5.17302353 188.45175537 5.28641571 189.49902344 5.40324402 C191.67399694 5.65286571 193.84896415 5.90254233 196.02392578 6.15226746 C197.16545105 6.28193909 198.30697632 6.41161072 199.48309326 6.54521179 C219.0813725 8.77549074 238.6355599 11.12849678 258.13183594 14.13371277 C259.23221191 14.30233826 260.33258789 14.47096375 261.46630859 14.6446991 C266.09832101 15.35555904 270.72972965 16.06936375 275.35839844 16.80168152 C277.040625 17.05884949 277.040625 17.05884949 278.75683594 17.32121277 C279.90410156 17.50039246 281.05136719 17.67957214 282.23339844 17.86418152 C285.19635763 18.33593341 285.19635763 18.33593341 288.13183594 17.13371277 C288.13183594 18.12371277 288.13183594 19.11371277 288.13183594 20.13371277 C291.76183594 20.46371277 295.39183594 20.79371277 299.13183594 21.13371277 C299.13183594 21.79371277 299.13183594 22.45371277 299.13183594 23.13371277 C299.72722168 23.18906189 300.32260742 23.24441101 300.93603516 23.30143738 C303.62670808 23.55390142 306.31675879 23.81248093 309.00683594 24.07121277 C309.94398438 24.15822449 310.88113281 24.24523621 311.84667969 24.33488464 C312.74257813 24.42189636 313.63847656 24.50890808 314.56152344 24.59855652 C315.38894043 24.67710876 316.21635742 24.75566101 317.06884766 24.83659363 C319.13183594 25.13371277 319.13183594 25.13371277 321.13183594 26.13371277 C322.83886329 26.20367291 324.54851597 26.21811431 326.25683594 26.19621277 C327.62195313 26.18267761 327.62195313 26.18267761 329.01464844 26.16886902 C329.71332031 26.15726746 330.41199219 26.14566589 331.13183594 26.13371277 C330.80183594 27.12371277 330.47183594 28.11371277 330.13183594 29.13371277 C331.24558594 29.09246277 332.35933594 29.05121277 333.50683594 29.00871277 C338.50220195 28.99977651 343.3109336 29.84625932 348.13183594 31.13371277 C348.46183594 31.46371277 348.79183594 31.79371277 349.13183594 32.13371277 C352.09640337 32.67479179 355.07214845 33.0991034 358.05371094 33.53605652 C361.13183594 34.13371277 361.13183594 34.13371277 363.47167969 35.09855652 C367.20686009 36.55204082 371.00073497 37.11081185 374.94433594 37.75871277 C375.73259766 37.89277527 376.52085938 38.02683777 377.33300781 38.16496277 C379.265116 38.49283567 381.19836813 38.81395514 383.13183594 39.13371277 C383.13183594 39.79371277 383.13183594 40.45371277 383.13183594 41.13371277 C383.76089844 41.17109558 384.38996094 41.20847839 385.03808594 41.24699402 C390.00542432 41.62852151 394.02217299 42.35043611 398.64746094 44.30949402 C402.87677917 45.71261689 407.28034785 46.33943273 411.67333984 47.04338074 C416.92592541 47.92780224 416.92592541 47.92780224 419.13183594 50.13371277 C420.78632698 50.52300478 422.45729795 50.84248877 424.13183594 51.13371277 C426.80562964 51.77363742 429.46719249 52.45626104 432.13183594 53.13371277 C432.13183594 53.79371277 432.13183594 54.45371277 432.13183594 55.13371277 C433.12183594 55.07183777 434.11183594 55.00996277 435.13183594 54.94621277 C438.70491287 54.94621277 441.45349508 55.90505955 444.76074219 57.27824402 C447.69653723 58.33745179 450.64467269 58.9734764 453.69433594 59.63371277 C458.54157573 60.70591328 462.65492562 62.02693144 467.13183594 64.13371277 C473.40158436 66.97744315 479.27469426 67.76816661 486.13183594 68.13371277 C486.13183594 69.45371277 486.13183594 70.77371277 486.13183594 72.13371277 C487.14246094 72.11308777 488.15308594 72.09246277 489.19433594 72.07121277 C492.93510851 72.13059011 496.44428492 72.53166362 500.13183594 73.13371277 C500.46183594 74.12371277 500.79183594 75.11371277 501.13183594 76.13371277 C502.01871094 76.25746277 502.90558594 76.38121277 503.81933594 76.50871277 C506.87408773 77.08508103 509.27654491 77.94981161 512.13183594 79.13371277 C513.80246094 79.59777527 513.80246094 79.59777527 515.50683594 80.07121277 C519.13183594 81.13371277 519.13183594 81.13371277 522.75683594 82.69621277 C525.62316839 83.91705807 528.07154632 84.67003252 531.13183594 85.13371277 C531.13183594 85.79371277 531.13183594 86.45371277 531.13183594 87.13371277 C533.11183594 87.13371277 535.09183594 87.13371277 537.13183594 87.13371277 C537.13183594 87.79371277 537.13183594 88.45371277 537.13183594 89.13371277 C537.97746094 89.07183777 538.82308594 89.00996277 539.69433594 88.94621277 C542.97998351 89.12542991 545.10566393 89.81241221 548.05371094 91.20011902 C552.30424302 93.10966257 556.74450529 94.57077581 561.13183594 96.13371277 C561.13183594 96.79371277 561.13183594 97.45371277 561.13183594 98.13371277 C561.87433594 98.25746277 562.61683594 98.38121277 563.38183594 98.50871277 C566.13183594 99.13371277 566.13183594 99.13371277 567.94433594 100.13371277 C571.25334661 101.64640336 574.52015842 101.77254502 578.13183594 102.13371277 C578.13183594 102.79371277 578.13183594 103.45371277 578.13183594 104.13371277 C579.22214111 104.33190613 579.22214111 104.33190613 580.33447266 104.53410339 C582.95683419 105.09620149 585.36522329 105.83039118 587.88964844 106.72746277 C588.76234375 107.03554871 589.63503906 107.34363464 590.53417969 107.66105652 C591.43265625 107.98203308 592.33113281 108.30300964 593.25683594 108.63371277 C595.05107296 109.26922489 596.8453424 109.90464552 598.63964844 110.53996277 C599.82518311 110.962453 599.82518311 110.962453 601.03466797 111.39347839 C602.72765118 111.99104825 604.42861731 112.56597323 606.13183594 113.13371277 C606.13183594 113.79371277 606.13183594 114.45371277 606.13183594 115.13371277 C607.45183594 115.13371277 608.77183594 115.13371277 610.13183594 115.13371277 C610.13183594 116.12371277 610.13183594 117.11371277 610.13183594 118.13371277 C610.72609375 118.14789246 611.32035156 118.16207214 611.93261719 118.17668152 C619.22813647 118.59648589 624.65335929 120.89920326 631.13183594 124.13371277 C632.75251223 124.87243964 634.37724859 125.60235666 636.00683594 126.32121277 C636.73257812 126.64218933 637.45832031 126.96316589 638.20605469 127.29386902 C640.49727277 128.29308177 642.79379611 129.24904905 645.13183594 130.13371277 C646.10121094 130.50496277 647.07058594 130.87621277 648.06933594 131.25871277 C651.2427978 132.16541616 653.84995088 132.28999301 657.13183594 132.13371277 C657.46183594 133.45371277 657.79183594 134.77371277 658.13183594 136.13371277 C660.44183594 136.46371277 662.75183594 136.79371277 665.13183594 137.13371277 C665.13183594 138.12371277 665.13183594 139.11371277 665.13183594 140.13371277 C667.44183594 140.46371277 669.75183594 140.79371277 672.13183594 141.13371277 C672.13183594 141.79371277 672.13183594 142.45371277 672.13183594 143.13371277 C672.79183594 143.23683777 673.45183594 143.33996277 674.13183594 143.44621277 C677.94603022 144.32029896 681.50177402 145.70062746 685.13183594 147.13371277 C685.96585938 147.45726746 686.79988281 147.78082214 687.65917969 148.11418152 C692.27542134 149.92596959 696.71192614 151.87865675 701.13183594 154.13371277 C708.02185052 157.40459063 708.02185052 157.40459063 715.13183594 160.13371277 C715.13183594 160.79371277 715.13183594 161.45371277 715.13183594 162.13371277 C715.87433594 162.25746277 716.61683594 162.38121277 717.38183594 162.50871277 C719.93325078 163.08857978 721.85859324 163.87080016 724.13183594 165.13371277 C724.13183594 165.79371277 724.13183594 166.45371277 724.13183594 167.13371277 C725.08058594 167.09246277 726.02933594 167.05121277 727.00683594 167.00871277 C730.13183594 167.13371277 730.13183594 167.13371277 732.13183594 169.13371277 C733.81945452 169.73682892 735.53198069 170.27221514 737.25683594 170.75871277 C738.16691406 171.01910339 739.07699219 171.27949402 740.01464844 171.54777527 C741.06265625 171.83781433 741.06265625 171.83781433 742.13183594 172.13371277 C742.13183594 172.79371277 742.13183594 173.45371277 742.13183594 174.13371277 C742.85371094 174.40441589 743.57558594 174.67511902 744.31933594 174.95402527 C752.33868227 178.31769553 758.96688701 183.61265199 765.31933594 189.44621277 C766.18461914 190.23777771 766.18461914 190.23777771 767.06738281 191.04533386 C768.46616629 192.3629607 769.80503393 193.74362927 771.13183594 195.13371277 C771.13183594 195.79371277 771.13183594 196.45371277 771.13183594 197.13371277 C771.79183594 197.13371277 772.45183594 197.13371277 773.13183594 197.13371277 C777.13183594 202.54547747 777.13183594 202.54547747 777.13183594 205.13371277 C778.12183594 205.46371277 779.11183594 205.79371277 780.13183594 206.13371277 C783.00119136 209.82288403 784.13183594 211.37803601 784.13183594 216.13371277 C784.79183594 216.13371277 785.45183594 216.13371277 786.13183594 216.13371277 C787.36805211 219.3390796 788.6015365 222.54536508 789.82714844 225.75480652 C790.55125511 227.63011271 791.28580547 229.5018164 792.06152344 231.35636902 C794.42428566 237.09276597 795.26486693 243.01393153 796.13183594 249.13371277 C796.79183594 249.13371277 797.45183594 249.13371277 798.13183594 249.13371277 C798.13183594 347.80371277 798.13183594 446.47371277 798.13183594 548.13371277 C797.47183594 548.13371277 796.81183594 548.13371277 796.13183594 548.13371277 C796.08285156 548.74859558 796.03386719 549.36347839 795.98339844 549.99699402 C795.87125 551.2093573 795.87125 551.2093573 795.75683594 552.44621277 C795.65242188 553.64697449 795.65242188 553.64697449 795.54589844 554.87199402 C795.13183594 557.13371277 795.13183594 557.13371277 793.13183594 560.13371277 C792.66533833 561.7664544 792.20194796 563.40020587 791.76074219 565.03996277 C789.87562305 571.31588736 787.17964697 577.34287181 784.13183594 583.13371277 C783.47183594 583.13371277 782.81183594 583.13371277 782.13183594 583.13371277 C782.02742188 583.69574402 781.92300781 584.25777527 781.81542969 584.83683777 C781.00570358 587.55751748 779.76980255 589.52629084 778.19433594 591.88371277 C777.6696875 592.68293152 777.14503906 593.48215027 776.60449219 594.30558777 C776.11851563 594.90886902 775.63253906 595.51215027 775.13183594 596.13371277 C774.47183594 596.13371277 773.81183594 596.13371277 773.13183594 596.13371277 C772.88433594 596.69058777 772.63683594 597.24746277 772.38183594 597.82121277 C769.79110963 602.61405644 766.35562816 605.9615649 762.06933594 609.25871277 C758.61734214 611.90888135 758.61734214 611.90888135 755.44824219 614.87590027 C754.13183594 616.13371277 754.13183594 616.13371277 752.13183594 616.13371277 C752.13183594 616.79371277 752.13183594 617.45371277 752.13183594 618.13371277 C750.48183594 618.13371277 748.83183594 618.13371277 747.13183594 618.13371277 C747.13183594 618.79371277 747.13183594 619.45371277 747.13183594 620.13371277 C745.81183594 620.13371277 744.49183594 620.13371277 743.13183594 620.13371277 C742.80183594 621.12371277 742.47183594 622.11371277 742.13183594 623.13371277 C740.06933594 624.07121277 740.06933594 624.07121277 737.13183594 625.13371277 C735.89628574 625.74599653 734.66763307 626.3723011 733.44433594 627.00871277 C721.30946752 633.13371277 721.30946752 633.13371277 715.13183594 633.13371277 C714.80183594 634.12371277 714.47183594 635.11371277 714.13183594 636.13371277 C713.14183594 635.80371277 712.15183594 635.47371277 711.13183594 635.13371277 C710.80183594 636.12371277 710.47183594 637.11371277 710.13183594 638.13371277 C709.14183594 638.13371277 708.15183594 638.13371277 707.13183594 638.13371277 C706.80183594 638.79371277 706.47183594 639.45371277 706.13183594 640.13371277 C702.51902584 641.57883681 700.06495751 642.13371277 696.13183594 642.13371277 C696.13183594 642.79371277 696.13183594 643.45371277 696.13183594 644.13371277 C694.81183594 644.13371277 693.49183594 644.13371277 692.13183594 644.13371277 C692.13183594 644.79371277 692.13183594 645.45371277 692.13183594 646.13371277 C690.48183594 646.13371277 688.83183594 646.13371277 687.13183594 646.13371277 C687.13183594 646.79371277 687.13183594 647.45371277 687.13183594 648.13371277 C685.54983963 648.78281431 683.9661787 649.42785971 682.38183594 650.07121277 C681.50011719 650.43086121 680.61839844 650.79050964 679.70996094 651.16105652 C677.13183594 652.13371277 677.13183594 652.13371277 674.86621094 652.63761902 C674.29386719 652.80132996 673.72152344 652.96504089 673.13183594 653.13371277 C672.80183594 653.79371277 672.47183594 654.45371277 672.13183594 655.13371277 C668.51902584 656.57883681 666.06495751 657.13371277 662.13183594 657.13371277 C662.13183594 657.79371277 662.13183594 658.45371277 662.13183594 659.13371277 C660.48183594 659.13371277 658.83183594 659.13371277 657.13183594 659.13371277 C657.13183594 659.79371277 657.13183594 660.45371277 657.13183594 661.13371277 C656.17921875 661.45984558 655.22660156 661.78597839 654.24511719 662.12199402 C652.97808824 662.5631078 651.71116681 663.00453048 650.44433594 663.44621277 C649.20296875 663.87547058 647.96160156 664.30472839 646.68261719 664.74699402 C643.55037639 665.97025638 640.95802259 667.34054606 638.13183594 669.13371277 C634.0720387 671.05677462 631.65710406 672.13371277 627.13183594 672.13371277 C627.13183594 672.79371277 627.13183594 673.45371277 627.13183594 674.13371277 C625.15183594 674.13371277 623.17183594 674.13371277 621.13183594 674.13371277 C621.13183594 674.79371277 621.13183594 675.45371277 621.13183594 676.13371277 C619.57024534 676.61583491 618.00751666 677.0942715 616.44433594 677.57121277 C615.13916016 677.97146667 615.13916016 677.97146667 613.80761719 678.37980652 C611.26157673 679.09715806 608.73149364 679.65125377 606.13183594 680.13371277 C605.80183594 681.12371277 605.47183594 682.11371277 605.13183594 683.13371277 C601.52804613 684.65531291 599.07962908 685.13371277 595.13183594 685.13371277 C595.13183594 685.79371277 595.13183594 686.45371277 595.13183594 687.13371277 C593.15183594 687.13371277 591.17183594 687.13371277 589.13183594 687.13371277 C589.13183594 687.79371277 589.13183594 688.45371277 589.13183594 689.13371277 C587.48183594 689.13371277 585.83183594 689.13371277 584.13183594 689.13371277 C584.13183594 689.79371277 584.13183594 690.45371277 584.13183594 691.13371277 C583.17083984 691.40634949 583.17083984 691.40634949 582.19042969 691.68449402 C575.82248066 693.53509024 569.98648753 695.67725788 564.06933594 698.69621277 C559.38031108 700.99084195 555.39119496 702.44308683 550.13183594 702.13371277 C550.13183594 702.79371277 550.13183594 703.45371277 550.13183594 704.13371277 C548.15183594 704.13371277 546.17183594 704.13371277 544.13183594 704.13371277 C544.13183594 704.79371277 544.13183594 705.45371277 544.13183594 706.13371277 C540.25499507 707.32658688 537.2156167 708.13371277 533.13183594 708.13371277 C533.13183594 708.79371277 533.13183594 709.45371277 533.13183594 710.13371277 C531.15183594 710.13371277 529.17183594 710.13371277 527.13183594 710.13371277 C526.80183594 711.12371277 526.47183594 712.11371277 526.13183594 713.13371277 C524.48183594 713.13371277 522.83183594 713.13371277 521.13183594 713.13371277 C520.80183594 713.79371277 520.47183594 714.45371277 520.13183594 715.13371277 C518.15183594 715.13371277 516.17183594 715.13371277 514.13183594 715.13371277 C514.13183594 715.79371277 514.13183594 716.45371277 514.13183594 717.13371277 C511.82183594 717.13371277 509.51183594 717.13371277 507.13183594 717.13371277 C507.13183594 717.79371277 507.13183594 718.45371277 507.13183594 719.13371277 C502.9544612 720.72509362 499.60022809 721.34649335 495.13183594 721.13371277 C495.13183594 721.79371277 495.13183594 722.45371277 495.13183594 723.13371277 C494.12121094 723.40183777 493.11058594 723.66996277 492.06933594 723.94621277 C489.45231776 724.68866662 487.1558627 725.55198701 484.63183594 726.63371277 C479.49090175 728.83697028 474.77077802 730.47546683 469.13183594 730.13371277 C469.13183594 730.79371277 469.13183594 731.45371277 469.13183594 732.13371277 C467.64683594 732.28840027 467.64683594 732.28840027 466.13183594 732.44621277 C462.55779811 732.95061327 459.45474539 734.0502214 456.10839844 735.36808777 C451.03417372 737.33359774 446.58004959 738.39947929 441.13183594 738.13371277 C441.13183594 738.79371277 441.13183594 739.45371277 441.13183594 740.13371277 C439.97683594 740.40183777 438.82183594 740.66996277 437.63183594 740.94621277 C434.67546506 741.67618089 431.89643843 742.56758477 429.06933594 743.69621277 C425.44946847 745.11452341 421.98413059 745.58338496 418.13183594 746.13371277 C416.7874487 746.60318133 415.45398732 747.10485221 414.13183594 747.63371277 C410.47976962 749.09173541 407.03307537 749.58617039 403.13183594 750.13371277 C401.62386421 750.630994 400.12401312 751.15337336 398.63183594 751.69621277 C394.58714405 753.12538349 391.39777599 753.40600681 387.13183594 753.13371277 C387.13183594 753.79371277 387.13183594 754.45371277 387.13183594 755.13371277 C385.14615885 755.32902527 383.16048177 755.52433777 381.17480469 755.71965027 C378.83195452 756.06036668 378.83195452 756.06036668 376.13183594 758.13371277 C373.79130602 758.67558091 371.43374876 759.14547414 369.06933594 759.57121277 C364.53575316 760.40909368 360.13644671 761.3590435 355.75683594 762.82121277 C351.08055021 764.32766723 347.02505435 764.3704814 342.13183594 764.13371277 C342.13183594 764.79371277 342.13183594 765.45371277 342.13183594 766.13371277 C341.49375 766.19429871 340.85566406 766.25488464 340.19824219 766.31730652 C339.37195313 766.40109558 338.54566406 766.48488464 337.69433594 766.57121277 C336.870625 766.65242371 336.04691406 766.73363464 335.19824219 766.81730652 C333.14521568 766.92302091 333.14521568 766.92302091 332.13183594 768.13371277 C330.61255556 768.20551241 329.09016112 768.21763284 327.56933594 768.19621277 C326.74304688 768.18718933 325.91675781 768.17816589 325.06542969 768.16886902 C324.42734375 768.15726746 323.78925781 768.14566589 323.13183594 768.13371277 C323.13183594 768.79371277 323.13183594 769.45371277 323.13183594 770.13371277 C322.52855469 770.18269714 321.92527344 770.23168152 321.30371094 770.28215027 C320.50449219 770.35691589 319.70527344 770.43168152 318.88183594 770.50871277 C318.09292969 770.57832214 317.30402344 770.64793152 316.49121094 770.71965027 C314.13991711 771.00967159 314.13991711 771.00967159 312.26416016 772.10856628 C309.99829589 773.19791413 308.13703031 773.59576967 305.65527344 773.95011902 C304.81996094 774.07451355 303.98464844 774.19890808 303.12402344 774.32707214 C301.82851562 774.50979675 301.82851562 774.50979675 300.50683594 774.69621277 C298.78505112 774.94454712 297.06367171 775.19571378 295.34277344 775.45011902 C294.58270996 775.5578363 293.82264648 775.66555359 293.03955078 775.77653503 C291.05484995 776.05763338 291.05484995 776.05763338 289.13183594 777.13371277 C286.83374058 777.44241215 284.53463464 777.64254925 282.22558594 777.85246277 C280.07739661 778.02586777 280.07739661 778.02586777 278.13183594 779.13371277 C275.27975815 779.44626924 272.4268674 779.64408759 269.56542969 779.85246277 C267.18640289 779.87206199 267.18640289 779.87206199 266.13183594 781.13371277 C264.15673721 781.34314886 262.17611911 781.50175099 260.19433594 781.63371277 C256.01016178 781.8110636 256.01016178 781.8110636 252.13183594 783.13371277 C249.01914302 783.448038 245.90566016 783.64461151 242.78417969 783.85246277 C240.21178189 783.84423274 240.21178189 783.84423274 239.13183594 785.13371277 C235.98025142 785.37064573 232.83638682 785.52961353 229.67871094 785.65129089 C226.01240368 785.84031257 224.25717657 786.05015235 221.13183594 788.13371277 C218.58621935 788.40899126 216.12098333 788.59723685 213.56933594 788.69621277 C208.70197945 788.73951457 208.70197945 788.73951457 204.13183594 790.13371277 C200.50532792 790.39906701 196.88499648 790.57815393 193.25292969 790.73918152 C189.05820605 790.84413136 189.05820605 790.84413136 185.13183594 792.13371277 C183.6585379 792.26161447 182.18032999 792.33570164 180.70214844 792.37980652 C179.82429687 792.41267761 178.94644531 792.44554871 178.04199219 792.47941589 C176.19315039 792.54035247 174.34418578 792.59767575 172.49511719 792.65129089 C171.17447266 792.70253113 171.17447266 792.70253113 169.82714844 792.75480652 C168.62082764 792.79239075 168.62082764 792.79239075 167.39013672 792.83073425 C165.134875 792.98217461 165.134875 792.98217461 163.45397568 794.13677597 C160.23210375 795.51998415 157.16447142 795.40967471 153.71929932 795.38768005 C152.97015251 795.39080003 152.2210057 795.39392002 151.44915748 795.39713454 C148.93737925 795.40511548 146.42584255 795.39879045 143.9140625 795.39250183 C142.11366637 795.39521174 140.31327134 795.39877268 138.51287842 795.40312195 C133.62014461 795.4122508 128.72749502 795.40869894 123.83475971 795.40236378 C118.71354761 795.39730325 113.59234276 795.40199567 108.47113037 795.40513611 C99.86615708 795.40877691 91.26121809 795.40397503 82.65625 795.39445496 C72.71564612 795.38358402 62.77512436 795.38708563 52.83452249 795.39810777 C44.29764996 795.40719389 35.76080211 795.40845902 27.22392631 795.40323043 C22.12642557 795.40011624 17.02896339 795.39968597 11.93146515 795.40630341 C7.13473434 795.41209499 2.33810893 795.40804678 -2.45861053 795.39651489 C-4.2161644 795.39387741 -5.97372718 795.39461778 -7.73127747 795.39904022 C-10.13686775 795.40453357 -12.54212369 795.3976158 -14.94769287 795.38768005 C-15.63759615 795.3921415 -16.32749942 795.39660294 -17.03830886 795.40119958 C-21.96926901 795.36190076 -26.1488139 794.4263858 -30.86816406 793.13371277 C-33.30728961 792.80404512 -33.30728961 792.80404512 -35.48144531 792.75480652 C-36.64063477 792.70356628 -36.64063477 792.70356628 -37.82324219 792.65129089 C-38.60119141 792.62486511 -39.37914062 792.59843933 -40.18066406 792.57121277 C-48.50445512 792.25494908 -48.50445512 792.25494908 -51.86816406 791.13371277 C-55.29608899 790.87472998 -58.71810721 790.69130122 -62.15136719 790.52824402 C-67.66658069 790.23450446 -67.66658069 790.23450446 -69.86816406 789.13371277 C-73.40504737 788.85448514 -76.94182846 788.68646619 -80.48535156 788.51261902 C-83.67441466 788.15541449 -85.09566942 787.51996009 -87.86816406 786.13371277 C-90.23574824 785.86852147 -92.61363621 785.6879537 -94.99316406 785.57121277 C-101.67371962 785.23093499 -101.67371962 785.23093499 -103.86816406 784.13371277 C-106.98085698 783.81938754 -110.09433984 783.62281402 -113.21582031 783.41496277 C-115.86816406 783.13371277 -115.86816406 783.13371277 -116.86816406 782.13371277 C-118.84326279 781.92427667 -120.82388089 781.76567455 -122.80566406 781.63371277 C-128.64808153 781.24375403 -128.64808153 781.24375403 -130.86816406 780.13371277 C-132.69779817 779.93042009 -134.53224774 779.76899081 -136.36816406 779.63371277 C-141.64594184 779.24482388 -141.64594184 779.24482388 -143.86816406 778.13371277 C-146.45960311 777.82325751 -149.05188138 777.62397364 -151.65332031 777.41496277 C-153.86816406 777.13371277 -153.86816406 777.13371277 -154.86816406 776.13371277 C-156.12628906 776.00996277 -157.38441406 775.88621277 -158.68066406 775.75871277 C-163.55001064 775.27177811 -168.12676596 774.13746163 -172.85253906 772.89543152 C-176.54508145 771.96272975 -180.25891432 771.24448545 -184.00488281 770.56340027 C-185.86816406 770.13371277 -185.86816406 770.13371277 -186.86816406 769.13371277 C-188.36313249 768.92671714 -189.86482326 768.76692018 -191.36816406 768.63371277 C-195.75705295 768.24482388 -195.75705295 768.24482388 -196.86816406 767.13371277 C-198.38285855 766.90178412 -199.90570968 766.72156038 -201.43066406 766.57121277 C-202.25695312 766.48742371 -203.08324219 766.40363464 -203.93457031 766.31730652 C-204.57265625 766.25672058 -205.21074219 766.19613464 -205.86816406 766.13371277 C-205.86816406 765.47371277 -205.86816406 764.81371277 -205.86816406 764.13371277 C-206.50625 764.14531433 -207.14433594 764.15691589 -207.80175781 764.16886902 C-209.04119141 764.18240417 -209.04119141 764.18240417 -210.30566406 764.19621277 C-211.129375 764.20781433 -211.95308594 764.21941589 -212.80175781 764.23136902 C-214.86816406 764.13371277 -214.86816406 764.13371277 -215.86816406 763.13371277 C-217.19598285 762.92767192 -218.53112301 762.76741687 -219.86816406 762.63371277 C-223.75705295 762.24482388 -223.75705295 762.24482388 -224.86816406 761.13371277 C-228.0118052 760.47722447 -231.15967398 759.88867482 -234.32128906 759.32707214 C-237.75228362 758.68292628 -239.92179297 758.09796016 -242.86816406 756.13371277 C-244.91737346 755.68231818 -244.91737346 755.68231818 -247.05566406 755.50871277 C-248.31378906 755.38496277 -249.57191406 755.26121277 -250.86816406 755.13371277 C-250.86816406 754.47371277 -250.86816406 753.81371277 -250.86816406 753.13371277 C-252.56972656 753.16465027 -252.56972656 753.16465027 -254.30566406 753.19621277 C-257.86816406 753.13371277 -257.86816406 753.13371277 -258.86816406 752.13371277 C-260.02316406 751.96871277 -261.17816406 751.80371277 -262.36816406 751.63371277 C-265.86816406 751.13371277 -265.86816406 751.13371277 -266.86816406 750.13371277 C-267.85816406 750.00996277 -268.84816406 749.88621277 -269.86816406 749.75871277 C-273.50335384 749.28136462 -276.73461455 748.24200662 -280.18457031 747.02824402 C-284.74548319 745.50793973 -289.3906113 744.27816641 -294.02441406 743.00090027 C-296.86816406 742.13371277 -296.86816406 742.13371277 -297.86816406 741.13371277 C-300.1963437 740.76610546 -302.53000256 740.43129696 -304.86816406 740.13371277 C-304.86816406 739.47371277 -304.86816406 738.81371277 -304.86816406 738.13371277 C-306.10566406 738.22652527 -306.10566406 738.22652527 -307.36816406 738.32121277 C-310.80796354 738.1369378 -313.21168547 737.29554969 -316.36816406 736.00090027 C-321.70725723 734.14890233 -327.33342319 733.22977803 -332.86816406 732.13371277 C-332.86816406 731.47371277 -332.86816406 730.81371277 -332.86816406 730.13371277 C-333.81691406 730.17496277 -334.76566406 730.21621277 -335.74316406 730.25871277 C-338.86816406 730.13371277 -338.86816406 730.13371277 -340.86816406 728.13371277 C-343.08224427 727.36953315 -343.08224427 727.36953315 -345.68066406 726.75871277 C-352.14249278 725.08755017 -358.49984304 723.12824257 -364.86816406 721.13371277 C-364.86816406 720.47371277 -364.86816406 719.81371277 -364.86816406 719.13371277 C-366.13660156 719.19558777 -366.13660156 719.19558777 -367.43066406 719.25871277 C-371.29029676 719.11836249 -374.2050442 718.30591113 -377.86816406 717.13371277 C-377.86816406 716.47371277 -377.86816406 715.81371277 -377.86816406 715.13371277 C-379.84816406 715.13371277 -381.82816406 715.13371277 -383.86816406 715.13371277 C-383.86816406 714.47371277 -383.86816406 713.81371277 -383.86816406 713.13371277 C-385.84816406 713.13371277 -387.82816406 713.13371277 -389.86816406 713.13371277 C-390.19816406 712.14371277 -390.52816406 711.15371277 -390.86816406 710.13371277 C-391.85816406 710.46371277 -392.84816406 710.79371277 -393.86816406 711.13371277 C-394.85816406 710.80371277 -395.84816406 710.47371277 -396.86816406 710.13371277 C-396.86816406 709.47371277 -396.86816406 708.81371277 -396.86816406 708.13371277 C-397.56941406 708.17496277 -398.27066406 708.21621277 -398.99316406 708.25871277 C-402.25188035 708.11702945 -404.82415876 707.2663659 -407.86816406 706.13371277 C-407.86816406 705.47371277 -407.86816406 704.81371277 -407.86816406 704.13371277 C-409.84816406 704.13371277 -411.82816406 704.13371277 -413.86816406 704.13371277 C-413.86816406 703.47371277 -413.86816406 702.81371277 -413.86816406 702.13371277 C-414.92003906 702.19558777 -414.92003906 702.19558777 -415.99316406 702.25871277 C-419.25188035 702.11702945 -421.82415876 701.2663659 -424.86816406 700.13371277 C-424.86816406 699.47371277 -424.86816406 698.81371277 -424.86816406 698.13371277 C-427.17816406 697.80371277 -429.48816406 697.47371277 -431.86816406 697.13371277 C-431.86816406 696.47371277 -431.86816406 695.81371277 -431.86816406 695.13371277 C-432.77566406 694.98933777 -433.68316406 694.84496277 -434.61816406 694.69621277 C-437.08293362 694.26961804 -439.45663514 693.78297056 -441.86816406 693.13371277 C-441.86816406 692.47371277 -441.86816406 691.81371277 -441.86816406 691.13371277 C-444.17816406 691.13371277 -446.48816406 691.13371277 -448.86816406 691.13371277 C-448.86816406 690.47371277 -448.86816406 689.81371277 -448.86816406 689.13371277 C-450.18816406 689.13371277 -451.50816406 689.13371277 -452.86816406 689.13371277 C-452.86816406 688.47371277 -452.86816406 687.81371277 -452.86816406 687.13371277 C-454.84816406 687.13371277 -456.82816406 687.13371277 -458.86816406 687.13371277 C-458.86816406 686.47371277 -458.86816406 685.81371277 -458.86816406 685.13371277 C-459.92003906 685.22652527 -459.92003906 685.22652527 -460.99316406 685.32121277 C-464.52076618 685.09115176 -466.80800758 683.84170709 -469.86816406 682.13371277 C-469.86816406 681.47371277 -469.86816406 680.81371277 -469.86816406 680.13371277 C-470.95291016 679.93068542 -470.95291016 679.93068542 -472.05957031 679.72355652 C-478.45343172 678.3807567 -484.69261505 676.24640059 -490.86816406 674.13371277 C-490.86816406 673.47371277 -490.86816406 672.81371277 -490.86816406 672.13371277 C-491.5784375 672.19429871 -492.28871094 672.25488464 -493.02050781 672.31730652 C-496.51277482 672.0921535 -498.43125039 670.96916244 -501.43066406 669.19621277 C-504.57499518 667.35148037 -507.26562866 665.80336053 -510.86816406 665.13371277 C-510.86816406 664.47371277 -510.86816406 663.81371277 -510.86816406 663.13371277 C-511.58617187 663.18011902 -512.30417969 663.22652527 -513.04394531 663.27433777 C-516.25809467 663.11429714 -518.17680929 662.29549975 -521.05566406 660.88371277 C-524.64569984 659.17050535 -528.21815313 657.56250246 -531.93066406 656.13371277 C-536.31989673 654.41862185 -540.47274105 652.37755907 -544.64160156 650.18449402 C-546.72244271 649.20248302 -548.62223354 648.60033304 -550.86816406 648.13371277 C-550.86816406 647.47371277 -550.86816406 646.81371277 -550.86816406 646.13371277 C-552.51816406 646.13371277 -554.16816406 646.13371277 -555.86816406 646.13371277 C-555.86816406 645.47371277 -555.86816406 644.81371277 -555.86816406 644.13371277 C-556.63128906 643.98933777 -557.39441406 643.84496277 -558.18066406 643.69621277 C-560.86816406 643.13371277 -560.86816406 643.13371277 -563.86816406 642.13371277 C-563.86816406 641.47371277 -563.86816406 640.81371277 -563.86816406 640.13371277 C-565.19847656 640.19558777 -565.19847656 640.19558777 -566.55566406 640.25871277 C-569.8409342 640.13474031 -571.92265702 639.51983373 -574.86816406 638.13371277 C-574.86816406 637.14371277 -574.86816406 636.15371277 -574.86816406 635.13371277 C-576.18816406 635.13371277 -577.50816406 635.13371277 -578.86816406 635.13371277 C-578.86816406 634.47371277 -578.86816406 633.81371277 -578.86816406 633.13371277 C-580.51816406 633.13371277 -582.16816406 633.13371277 -583.86816406 633.13371277 C-583.86816406 632.47371277 -583.86816406 631.81371277 -583.86816406 631.13371277 C-584.54492188 631.01898621 -585.22167969 630.90425964 -585.91894531 630.78605652 C-589.4125815 630.01329196 -592.68411342 628.89348628 -596.05566406 627.69621277 C-597.28671875 627.26437683 -598.51777344 626.83254089 -599.78613281 626.38761902 C-602.86816406 625.13371277 -602.86816406 625.13371277 -604.86816406 623.13371277 C-605.52816406 622.80371277 -606.18816406 622.47371277 -606.86816406 622.13371277 C-606.86816406 621.47371277 -606.86816406 620.81371277 -606.86816406 620.13371277 C-608.18816406 620.13371277 -609.50816406 620.13371277 -610.86816406 620.13371277 C-610.86816406 619.47371277 -610.86816406 618.81371277 -610.86816406 618.13371277 C-611.59003906 618.05121277 -612.31191406 617.96871277 -613.05566406 617.88371277 C-616.5246832 616.958641 -618.14497799 615.47691939 -620.86816406 613.13371277 C-623.00167982 611.57736079 -625.14418988 610.03473686 -627.29394531 608.50090027 C-628.07318359 607.82414246 -628.07318359 607.82414246 -628.86816406 607.13371277 C-628.86816406 606.47371277 -628.86816406 605.81371277 -628.86816406 605.13371277 C-629.52816406 605.13371277 -630.18816406 605.13371277 -630.86816406 605.13371277 C-630.86816406 604.47371277 -630.86816406 603.81371277 -630.86816406 603.13371277 C-631.52816406 603.13371277 -632.18816406 603.13371277 -632.86816406 603.13371277 C-634.77739451 600.87681381 -636.58572068 598.61227496 -638.36816406 596.25871277 C-639.35665939 594.96881576 -640.3462001 593.67971902 -641.33691406 592.39152527 C-641.77455078 591.81547546 -642.2121875 591.23942566 -642.66308594 590.6459198 C-643.93406853 588.99293315 -643.93406853 588.99293315 -645.86816406 587.13371277 C-645.86816406 586.14371277 -645.86816406 585.15371277 -645.86816406 584.13371277 C-646.52816406 584.13371277 -647.18816406 584.13371277 -647.86816406 584.13371277 C-658.48710878 561.28064404 -658.48710878 561.28064404 -659.36816406 552.75871277 C-659.53316406 551.56246277 -659.69816406 550.36621277 -659.86816406 549.13371277 C-660.52816406 548.80371277 -661.18816406 548.47371277 -661.86816406 548.13371277 C-661.95973622 510.06870549 -662.03021124 472.00371481 -662.07242538 433.93861965 C-662.07742816 429.44383605 -662.08260545 424.94905268 -662.08789062 420.45426941 C-662.08893987 419.55944577 -662.08998911 418.66462213 -662.09107015 417.74268263 C-662.10847141 403.25724318 -662.14000757 388.77186729 -662.17677525 374.28646553 C-662.21419241 359.42111291 -662.23640156 344.55579355 -662.24451804 329.69039577 C-662.25000421 320.51896177 -662.26732656 311.34770741 -662.29982993 302.17632871 C-662.32098739 295.88562848 -662.32736132 289.59502102 -662.32216957 283.3042878 C-662.31960969 279.6757972 -662.32351061 276.04762034 -662.34498596 272.41918564 C-662.36812344 268.48106293 -662.36010037 264.54334676 -662.34918213 260.60516357 C-662.36083349 259.46409466 -662.37248486 258.32302574 -662.3844893 257.14737898 C-662.33873838 251.04125058 -661.66453752 246.46028423 -658.82238364 241.01534694 C-657.37582874 238.16287233 -656.80538704 235.18124738 -656.11816406 232.07121277 C-653.94501282 223.43118405 -650.09288287 215.93713755 -645.86816406 208.13371277 C-645.20816406 208.13371277 -644.54816406 208.13371277 -643.86816406 208.13371277 C-643.46597656 207.01996277 -643.46597656 207.01996277 -643.05566406 205.88371277 C-641.91539656 203.24309328 -640.774361 201.27818433 -638.86816406 199.13371277 C-638.20816406 199.13371277 -637.54816406 199.13371277 -636.86816406 199.13371277 C-636.62066406 198.18496277 -636.37316406 197.23621277 -636.11816406 196.25871277 C-634.86816406 193.13371277 -634.86816406 193.13371277 -632.86816406 191.94621277 C-631.87816406 191.54402527 -631.87816406 191.54402527 -630.86816406 191.13371277 C-630.20816406 190.14371277 -629.54816406 189.15371277 -628.86816406 188.13371277 C-628.20816406 188.13371277 -627.54816406 188.13371277 -626.86816406 188.13371277 C-626.86816406 186.81371277 -626.86816406 185.49371277 -626.86816406 184.13371277 C-624.22816406 183.80371277 -621.58816406 183.47371277 -618.86816406 183.13371277 C-618.53816406 182.14371277 -618.20816406 181.15371277 -617.86816406 180.13371277 C-614.80566406 178.94621277 -614.80566406 178.94621277 -611.86816406 178.13371277 C-611.86816406 177.47371277 -611.86816406 176.81371277 -611.86816406 176.13371277 C-611.22878906 176.00996277 -610.58941406 175.88621277 -609.93066406 175.75871277 C-609.25003906 175.55246277 -608.56941406 175.34621277 -607.86816406 175.13371277 C-607.53816406 174.47371277 -607.20816406 173.81371277 -606.86816406 173.13371277 C-606.20816406 173.13371277 -605.54816406 173.13371277 -604.86816406 173.13371277 C-604.86816406 172.47371277 -604.86816406 171.81371277 -604.86816406 171.13371277 C-603.45277689 170.79498763 -602.03578443 170.46296653 -600.61816406 170.13371277 C-599.82925781 169.94808777 -599.04035156 169.76246277 -598.22753906 169.57121277 C-595.86816406 169.13371277 -595.86816406 169.13371277 -591.86816406 169.13371277 C-591.86816406 168.14371277 -591.86816406 167.15371277 -591.86816406 166.13371277 C-590.45419504 165.62613415 -589.03684678 165.12796352 -587.61816406 164.63371277 C-586.43480469 164.21605652 -586.43480469 164.21605652 -585.22753906 163.78996277 C-582.86816406 163.13371277 -582.86816406 163.13371277 -578.86816406 163.13371277 C-578.86816406 162.14371277 -578.86816406 161.15371277 -578.86816406 160.13371277 C-578.20816406 160.13371277 -577.54816406 160.13371277 -576.86816406 160.13371277 C-576.86816406 159.47371277 -576.86816406 158.81371277 -576.86816406 158.13371277 C-575.67191406 158.05121277 -574.47566406 157.96871277 -573.24316406 157.88371277 C-568.94228943 157.37459863 -566.40599531 155.62627569 -562.86816406 153.13371277 C-561.54816406 153.13371277 -560.22816406 153.13371277 -558.86816406 153.13371277 C-558.86816406 152.47371277 -558.86816406 151.81371277 -558.86816406 151.13371277 C-557.45419504 150.62613415 -556.03684678 150.12796352 -554.61816406 149.63371277 C-553.43480469 149.21605652 -553.43480469 149.21605652 -552.22753906 148.78996277 C-549.86816406 148.13371277 -549.86816406 148.13371277 -545.86816406 148.13371277 C-545.53816406 147.14371277 -545.20816406 146.15371277 -544.86816406 145.13371277 C-543.54816406 145.13371277 -542.22816406 145.13371277 -540.86816406 145.13371277 C-540.86816406 144.47371277 -540.86816406 143.81371277 -540.86816406 143.13371277 C-540.10503906 142.90683777 -539.34191406 142.67996277 -538.55566406 142.44621277 C-534.43563561 140.97976196 -530.53124154 139.20451762 -526.56347656 137.37199402 C-524.32278904 136.34257671 -522.07506692 135.34749683 -519.80566406 134.38371277 C-518.14141302 133.67552083 -516.48588279 132.94257213 -514.86816406 132.13371277 C-512.86856394 132.09372077 -510.86769164 132.09024478 -508.86816406 132.13371277 C-509.19816406 131.14371277 -509.52816406 130.15371277 -509.86816406 129.13371277 C-508.63066406 128.92746277 -507.39316406 128.72121277 -506.11816406 128.50871277 C-500.94503453 127.37531976 -496.67590288 125.1062223 -492.00878906 122.66496277 C-486.43012512 119.94501716 -480.14546802 117.13371277 -473.86816406 117.13371277 C-473.86816406 116.47371277 -473.86816406 115.81371277 -473.86816406 115.13371277 C-472.73378906 114.88621277 -471.59941406 114.63871277 -470.43066406 114.38371277 C-464.71316672 112.95433843 -459.31458431 110.72388593 -454.36816406 107.50871277 C-451.24577782 105.79140034 -448.24954765 105.26789369 -444.75878906 104.66105652 C-443.82292969 104.40002136 -443.82292969 104.40002136 -442.86816406 104.13371277 C-442.53816406 103.47371277 -442.20816406 102.81371277 -441.86816406 102.13371277 C-440.25096654 101.62833854 -438.62911169 101.13408897 -436.98925781 100.70793152 C-433.22801887 99.68969556 -429.55604683 98.38809466 -425.86816406 97.13371277 C-425.86816406 96.14371277 -425.86816406 95.15371277 -425.86816406 94.13371277 C-424.66160156 94.22652527 -424.66160156 94.22652527 -423.43066406 94.32121277 C-419.52757147 94.11578684 -416.55183868 93.14523905 -412.91894531 91.78996277 C-410.86816406 91.13371277 -410.86816406 91.13371277 -407.86816406 91.13371277 C-407.86816406 90.47371277 -407.86816406 89.81371277 -407.86816406 89.13371277 C-406.04285156 88.91715027 -406.04285156 88.91715027 -404.18066406 88.69621277 C-401.04146029 88.30590324 -397.96065066 87.81019421 -394.86816406 87.13371277 C-394.86816406 86.47371277 -394.86816406 85.81371277 -394.86816406 85.13371277 C-387.77741168 82.28162954 -380.76867959 79.71945841 -373.36425781 77.81730652 C-370.39384791 77.00381398 -367.57253789 75.94127609 -364.70410156 74.82902527 C-359.66361739 72.92007594 -355.26558837 71.87042378 -349.86816406 72.13371277 C-349.86816406 71.47371277 -349.86816406 70.81371277 -349.86816406 70.13371277 C-348.54816406 70.13371277 -347.22816406 70.13371277 -345.86816406 70.13371277 C-345.86816406 69.47371277 -345.86816406 68.81371277 -345.86816406 68.13371277 C-344.89878906 68.05121277 -343.92941406 67.96871277 -342.93066406 67.88371277 C-338.9477005 67.32851179 -335.69057288 65.81468628 -332.07128906 64.12199402 C-327.39879819 62.02600077 -322.99343037 60.82309057 -317.86816406 61.13371277 C-317.86816406 60.47371277 -317.86816406 59.81371277 -317.86816406 59.13371277 C-317.27648437 59.01254089 -316.68480469 58.89136902 -316.07519531 58.76652527 C-311.07356047 57.71068923 -311.07356047 57.71068923 -306.24316406 56.07121277 C-303.15732601 54.8531188 -300.15239501 54.54424164 -296.86816406 54.13371277 C-295.19882123 53.81405138 -293.53084236 53.4864021 -291.86816406 53.13371277 C-291.86816406 52.47371277 -291.86816406 51.81371277 -291.86816406 51.13371277 C-285.92816406 50.63871277 -285.92816406 50.63871277 -279.86816406 50.13371277 C-279.86816406 49.47371277 -279.86816406 48.81371277 -279.86816406 48.13371277 C-272.93816406 46.64871277 -272.93816406 46.64871277 -265.86816406 45.13371277 C-266.52816406 44.80371277 -267.18816406 44.47371277 -267.86816406 44.13371277 C-267.86816406 43.47371277 -267.86816406 42.81371277 -267.86816406 42.13371277 C-265.31213227 42.06068329 -263.13981506 42.05809361 -260.66503906 42.74699402 C-256.95158975 43.26044581 -253.85432201 42.37022865 -250.30566406 41.38371277 C-248.87861505 41.00597893 -247.45153138 40.62837596 -246.02441406 40.25090027 C-245.321875 40.06108582 -244.61933594 39.87127136 -243.89550781 39.67570496 C-241.04208589 38.91286817 -238.17440571 38.21140959 -235.30566406 37.50871277 C-232.40355932 36.7926637 -229.54060382 36.03548479 -226.67675781 35.17668152 C-221.08708846 33.64597206 -215.41467377 32.62543429 -209.72363281 31.54582214 C-208.42232422 31.29348816 -208.42232422 31.29348816 -207.09472656 31.03605652 C-205.91257568 30.81163879 -205.91257568 30.81163879 -204.70654297 30.58268738 C-202.86221408 30.30081501 -202.86221408 30.30081501 -201.86816406 29.13371277 C-199.09926926 28.59229232 -196.3379281 28.0955183 -193.55566406 27.63371277 C-192.01768284 27.37460334 -190.47991449 27.11422655 -188.94238281 26.85246277 C-188.25748779 26.73838074 -187.57259277 26.62429871 -186.86694336 26.50675964 C-185.5170812 26.25482494 -184.17497705 25.95780329 -182.84399414 25.62004089 C-180.86816406 25.13371277 -180.86816406 25.13371277 -177.18066406 24.63371277 C-174.02990592 24.49333761 -174.02990592 24.49333761 -172.86816406 23.13371277 C-171.16371219 22.94793341 -169.45390292 22.81041741 -167.74316406 22.69621277 C-163.19872532 22.32285708 -159.2450524 21.43910052 -154.86816406 20.13371277 C-151.86208434 19.60825981 -148.85209444 19.14054615 -145.83300781 18.69621277 C-142.84262954 18.20312343 -142.84262954 18.20312343 -139.97753906 17.13371277 C-136.40294302 15.98409394 -132.89498556 15.52636323 -129.18066406 15.13371277 C-124.43453245 14.59115807 -119.74832358 13.98404999 -115.05566406 13.07121277 C-111.60858919 12.40733168 -108.24338685 11.95859828 -104.74316406 11.69621277 C-100.03526105 11.32225168 -95.44380481 10.56087925 -90.80566406 9.69621277 C-83.81391136 8.39470398 -76.83299082 7.48304648 -69.7565918 6.78044128 C-65.80778349 6.40559993 -65.80778349 6.40559993 -61.92382812 5.63591003 C-59.68294401 5.08846364 -57.54589534 4.85802604 -55.24707031 4.66886902 C-54.32482666 4.59208923 -53.40258301 4.51530945 -52.45239258 4.436203 C-51.45522217 4.35700623 -50.45805176 4.27780945 -49.43066406 4.19621277 C-47.87786743 4.06871643 -47.87786743 4.06871643 -46.29370117 3.93864441 C-40.15481193 3.44413665 -34.01350459 3.00052479 -27.86816406 2.59465027 C-27.20541977 2.55055527 -26.54267548 2.50646027 -25.85984802 2.46102905 C-22.59095013 2.24421325 -19.32183321 2.03354167 -16.05200195 1.83122253 C-14.27684204 1.71605286 -14.27684204 1.71605286 -12.46582031 1.59855652 C-10.88039429 1.49982239 -10.88039429 1.49982239 -9.26293945 1.39909363 C-5.85486081 1.02142195 -3.82513068 0.00574575 0 0 Z " fill="#FC4F00" transform="translate(680.8681640625,33.86628723144531)"/>
<path d="M0 0 C0.66 0 1.32 0 2 0 C2 0.66 2 1.32 2 2 C1.34 2 0.68 2 0 2 C0 1.34 0 0.68 0 0 Z " fill="#FC4F00" transform="translate(1397,192)"/>
</svg>
