<?xml version="1.0" encoding="UTF-8"?>
<svg version="1.1" xmlns="http://www.w3.org/2000/svg" width="1500" height="861">
<path d="M0 0 C0.87665314 -0.00426498 1.75330627 -0.00852997 2.65652466 -0.01292419 C3.61117615 -0.01247101 4.56582764 -0.01201782 5.54940796 -0.0115509 C6.56161407 -0.01490952 7.57382019 -0.01826813 8.61669922 -0.02172852 C11.97627992 -0.03125186 15.33581067 -0.03318374 18.69540405 -0.03425598 C21.04878764 -0.03747265 23.40217103 -0.04083703 25.7555542 -0.04434204 C30.70702577 -0.05034029 35.65847989 -0.05218173 40.60995483 -0.05158997 C46.88045766 -0.05148945 53.15084438 -0.06502196 59.42131996 -0.08236217 C64.29659511 -0.09363171 69.17184376 -0.0955045 74.04713058 -0.09498024 C76.35341153 -0.09614261 78.65969357 -0.10046333 80.96596146 -0.10831261 C96.32682251 -0.15560926 111.4920183 0.53554729 126.79371166 1.88970184 C130.95253534 2.25211304 135.11475848 2.56549577 139.2774353 2.87980652 C156.39836595 4.21509713 173.47771455 5.71803768 190.53085327 7.76750183 C193.5415376 8.12745931 196.55372363 8.4714338 199.5664978 8.81340027 C211.79549839 10.23523618 223.89487694 12.14358981 236.01596069 14.29728699 C243.13225181 15.55770558 250.24252503 16.68350923 257.40634155 17.63371277 C266.88108331 18.90812574 276.18089581 20.82340393 285.5196228 22.85246277 C290.07813228 23.83644304 294.6517762 24.71068071 299.2383728 25.55168152 C307.86282859 27.14187569 316.41378698 29.02140906 324.96884155 30.94621277 C326.54279791 31.29875194 328.11677279 31.65120846 329.69076538 32.00358582 C333.5945891 32.8786959 337.49742081 33.75814523 341.39993286 34.63908386 C343.47805619 35.10760831 345.5566054 35.57418326 347.63534546 36.03996277 C351.18524237 36.83671843 354.73358242 37.63999842 358.28134155 38.44621277 C359.30598511 38.67606873 360.33062866 38.90592468 361.38632202 39.14274597 C365.61649475 40.1130636 369.7580622 41.13491125 373.85946655 42.55949402 C380.97195328 45.0259912 388.33827916 46.68034458 395.63656616 48.50334167 C403.643109 50.50869651 411.55490621 52.67897078 419.42015076 55.18447876 C424.48986984 56.79858494 429.58031419 58.32650143 434.68759155 59.81730652 C435.45836533 60.04327515 436.2291391 60.26924377 437.02326965 60.50205994 C440.16701424 61.42365132 443.31095995 62.34440189 446.45761108 63.25602722 C455.39121583 65.8477157 464.1614459 68.62411906 472.84170532 71.97259521 C479.40882795 74.49085494 486.10320413 76.50646975 492.84384155 78.50871277 C502.38428705 81.40050265 511.67939657 84.55678106 520.88168335 88.38835144 C526.81936528 90.86004791 532.79605715 92.9403404 538.9414978 94.83293152 C542.01853855 95.92881876 544.87279443 97.15561274 547.82821655 98.53215027 C553.3692737 101.0941038 558.99854966 103.12975855 564.78134155 105.07121277 C566.79220828 105.76000442 568.80262305 106.45011687 570.81259155 107.14152527 C571.78970093 107.47700378 572.7668103 107.8124823 573.77352905 108.15812683 C577.79108175 109.54785507 581.79230372 110.97676562 585.78134155 112.44621277 C587.01239624 112.89609558 588.24345093 113.34597839 589.5118103 113.80949402 C592.59384155 115.13371277 592.59384155 115.13371277 594.5664978 116.62590027 C597.40129091 118.7342435 600.54750872 119.77159338 603.84384155 120.94621277 C604.89849609 121.33305237 604.89849609 121.33305237 605.97445679 121.72770691 C608.86702805 122.78847734 611.7648971 123.83437715 614.66268921 124.88078308 C622.40870312 127.68760937 629.93985187 130.6599836 637.37167358 134.24015808 C644.49940254 137.63854091 651.81051955 140.59791068 659.11923218 143.58195496 C664.070189 145.61474426 668.90084881 147.73390223 673.66049194 150.17985535 C677.22290791 151.93744585 680.91751916 153.38376409 684.59384155 154.88371277 C691.40922379 157.70560856 698.03129658 160.75251307 704.58822632 164.12834167 C709.65125917 166.71719817 714.81123071 169.00632066 720.03134155 171.25871277 C726.36613835 174.01826167 732.02687176 177.00722348 737.59384155 181.13371277 C738.83520874 181.94775574 738.83520874 181.94775574 740.10165405 182.77824402 C745.93998093 186.63851089 750.20545337 190.725422 754.59384155 196.13371277 C755.73272827 197.37507996 755.73272827 197.37507996 756.8946228 198.64152527 C767.56931686 210.5613236 774.57612859 224.69608742 778.59384155 240.13371277 C778.93328891 240.92822436 779.27273626 241.72273596 779.6224699 242.54132366 C781.04878343 247.81620808 780.87221773 252.93253888 780.85453796 258.37365723 C780.85836351 259.61791715 780.86218906 260.86217708 780.86613053 262.14414185 C780.87465816 265.59076345 780.87422902 269.03717149 780.86994994 272.48378694 C780.86748248 276.20373618 780.87649718 279.92366039 780.88398743 283.64360046 C780.89673642 290.92901701 780.89852783 298.21439671 780.89618716 305.49982253 C780.89440388 311.4225664 780.89615387 317.34529908 780.90041161 323.26804161 C780.90100679 324.11111534 780.90160198 324.95418908 780.90221521 325.8228105 C780.90342697 327.53555471 780.9046411 329.24829893 780.90585759 330.96104314 C780.91673413 347.02358223 780.91457023 363.08610032 780.90847274 379.1486406 C780.90330484 393.83738692 780.91455546 408.5260669 780.93357096 423.2148001 C780.95295212 438.30183535 780.96120478 453.38883922 780.95744771 468.475887 C780.95553591 476.94420599 780.95802102 485.41246853 780.97216225 493.88077736 C780.98408065 501.09090351 780.98547588 508.30093847 780.97337208 515.51106588 C780.96748628 519.18814067 780.96637553 522.8650487 780.97837448 526.54211235 C780.99124418 530.53247929 780.9807616 534.52244995 780.96806335 538.51281738 C780.97543764 539.66924832 780.98281192 540.82567926 780.99040967 542.01715356 C780.94608003 548.63998631 780.09328581 554.00340359 777.59384155 560.13371277 C777.24063843 561.17656433 776.8874353 562.21941589 776.52352905 563.29386902 C771.52669617 577.04441285 764.24641937 590.93695048 753.59384155 601.13371277 C752.87325562 601.91230652 752.15266968 602.69090027 751.4102478 603.49308777 C740.36040348 615.21319995 727.3669342 621.40391095 712.8555603 627.78996277 C708.62774967 629.65263293 704.51176356 631.64102732 700.40634155 633.75871277 C694.28538807 636.87776323 688.02451078 639.53224872 681.68197632 642.15812683 C676.84351647 644.16718259 672.07828942 646.26524804 667.34384155 648.50871277 C651.6501943 655.94175785 635.61304833 662.58828225 619.51620483 669.09098816 C612.54321351 671.9128659 605.61687216 674.82121836 598.71884155 677.82121277 C591.0222327 681.15982018 583.25438539 684.23799524 575.39926147 687.18302917 C569.40480115 689.43144095 563.46214997 691.78542369 557.53134155 694.19621277 C549.95302214 697.26639601 542.30776862 700.06898753 534.56625366 702.70036316 C530.67327343 704.02828698 526.84145972 705.42302114 523.03915405 706.99308777 C515.14423055 710.19393939 506.99100814 712.70470853 498.89804077 715.35197449 C489.09812656 718.52383549 489.09812656 718.52383549 479.4805603 722.20011902 C473.74837815 724.56595349 467.82598999 726.25907498 461.87844849 727.99531555 C458.51879354 728.97640633 455.16365303 729.97266773 451.8086853 730.96965027 C451.16099182 731.16190689 450.51329834 731.35416351 449.84597778 731.55224609 C445.51736377 732.84277742 441.23656852 734.21834265 436.96884155 735.69621277 C421.39964949 741.015225 405.39897861 745.40688695 389.3789978 749.14933777 C386.24284508 749.96493167 383.22009895 750.90020752 380.14071655 751.89933777 C369.8487985 755.09959949 359.29100885 757.27686841 348.78134155 759.63371277 C344.58676228 760.57912395 340.39287998 761.52758416 336.1993103 762.47746277 C335.18494904 762.70658859 334.17058777 762.93571442 333.12548828 763.17178345 C327.44949027 764.4605446 321.7975845 765.81474936 316.1602478 767.26261902 C307.94370666 769.34712013 299.66813176 770.98759198 291.34384155 772.57121277 C289.75747973 772.87564676 288.17113564 773.18017311 286.58480835 773.48478699 C281.92291593 774.37719347 277.25884361 775.25772308 272.59384155 776.13371277 C271.32298706 776.37267273 270.05213257 776.61163269 268.74276733 776.85783386 C260.70540884 778.35744825 252.6569179 779.77926768 244.59384155 781.13371277 C242.77940552 781.43873718 242.77940552 781.43873718 240.92831421 781.74992371 C206.73317861 787.40719095 172.227459 790.91826615 137.65414429 793.23381042 C136.85208054 793.28858551 136.05001678 793.3433606 135.22364807 793.39979553 C133.73092831 793.50083216 132.23794058 793.59801252 130.74467468 793.69062805 C127.04589967 793.90367006 127.04589967 793.90367006 123.59384155 795.13371277 C121.7231729 795.22947772 119.8490398 795.26001913 117.97592163 795.26069641 C116.78125275 795.26351624 115.58658386 795.26633606 114.35571289 795.26924133 C113.03824066 795.2672171 111.72076843 795.26519287 110.3633728 795.2631073 C108.96732538 795.26446174 107.57127832 795.26624192 106.17523193 795.26841736 C102.37780765 795.27298656 98.58041046 795.27120423 94.78298569 795.26803827 C90.81474483 795.26551204 86.84650633 795.26785295 82.87826538 795.26942444 C76.21346621 795.27124536 69.54867811 795.26884185 62.88388062 795.26408386 C55.17106012 795.25864139 47.45826606 795.2604041 39.74544621 795.26591027 C33.13141433 795.2704436 26.51739043 795.27109087 19.90335751 795.2684716 C15.94956466 795.26691004 11.99578424 795.26671177 8.04199219 795.27000809 C4.32547387 795.27288998 0.60898974 795.27090522 -3.10752487 795.26511383 C-5.12769269 795.26315387 -7.1478634 795.26613745 -9.16802979 795.26924133 C-10.36269867 795.26642151 -11.55736755 795.26360168 -12.78823853 795.26069641 C-13.83095413 795.26031939 -14.87366974 795.25994236 -15.94798279 795.25955391 C-18.40615845 795.13371277 -18.40615845 795.13371277 -20.40615845 794.13371277 C-22.84352742 793.90643156 -25.26423316 793.73152415 -27.7069397 793.59074402 C-29.29422902 793.48938778 -30.88146616 793.38721205 -32.46865845 793.28434753 C-33.32072876 793.22997528 -34.17279907 793.17560303 -35.0506897 793.11958313 C-53.0568535 791.94950379 -70.97758076 790.22555173 -88.90615845 788.19621277 C-90.53879135 788.01440964 -90.53879135 788.01440964 -92.20440674 787.82893372 C-108.0214848 786.05871166 -123.71461427 783.79171603 -139.40615845 781.13371277 C-140.82215332 780.89477798 -140.82215332 780.89477798 -142.26675415 780.65101624 C-148.65161749 779.56934149 -155.03035071 778.45496921 -161.40615845 777.32121277 C-162.36595612 777.15074432 -163.32575378 776.98027588 -164.31463623 776.80464172 C-182.10191189 773.63419866 -199.77967014 770.09904951 -217.40615845 766.13371277 C-219.29213745 765.71073914 -219.29213745 765.71073914 -221.21621704 765.27922058 C-245.46535962 759.80733121 -269.61290125 753.77390741 -293.52090454 746.95597839 C-295.81750725 746.30147189 -298.11475921 745.64941739 -300.4125061 744.99894714 C-304.30313076 743.89743066 -308.19296112 742.79314539 -312.08230591 741.68711853 C-313.65499383 741.24002594 -315.22782584 740.79343984 -316.80081177 740.34739685 C-319.03574557 739.7131492 -321.26986882 739.0761177 -323.5038147 738.43840027 C-324.16577347 738.25102295 -324.82773224 738.06364563 -325.50975037 737.87059021 C-329.76467544 736.65212545 -333.96103265 735.3002256 -338.1547699 733.88606262 C-341.719151 732.6949481 -345.30662402 731.57994623 -348.8944397 730.46183777 C-350.49403726 729.96108336 -352.09356268 729.46009848 -353.69302368 728.95890808 C-354.51438812 728.70161926 -355.33575256 728.44433044 -356.18200684 728.179245 C-369.5361 723.99119985 -382.84395537 719.74016639 -396.01016235 714.98869324 C-398.78546731 713.99836127 -401.56950647 713.0353214 -404.3553772 712.07511902 C-405.38219604 711.7209491 -406.40901489 711.36677917 -407.46694946 711.00187683 C-409.4344088 710.3240588 -411.40230811 709.64751576 -413.37075806 708.97257996 C-418.5550971 707.1797303 -423.65777828 705.25709906 -428.74014282 703.1940155 C-433.98398634 701.10848323 -439.29580225 699.20183115 -444.59365845 697.25871277 C-453.52281938 693.96465065 -462.42071351 690.63804988 -471.22647095 687.02531433 C-473.88753822 685.93680429 -476.55314144 684.85971774 -479.21865845 683.78215027 C-499.59818264 675.52956189 -519.99462633 667.24004283 -540.09365845 658.32121277 C-545.84955644 655.76793929 -551.67021077 653.43449576 -557.53115845 651.13371277 C-564.46062022 648.40362863 -571.07946688 645.41882266 -577.69522095 641.99308777 C-583.12724158 639.21786873 -588.72839143 636.79745204 -594.30459595 634.32926941 C-598.69061937 632.38182932 -603.01031633 630.35688344 -607.28945923 628.18522644 C-609.72031527 626.97764894 -612.17664457 625.83484491 -614.64053345 624.69621277 C-615.54416626 624.27597839 -616.44779907 623.85574402 -617.3788147 623.42277527 C-619.24324237 622.55742909 -621.11048646 621.69812737 -622.9803772 620.84465027 C-623.87885376 620.42441589 -624.77733032 620.00418152 -625.70303345 619.57121277 C-626.91491333 619.01240417 -626.91491333 619.01240417 -628.15127563 618.44230652 C-630.6770615 616.97649748 -632.39205475 615.23452322 -634.40615845 613.13371277 C-635.3394397 612.52011902 -636.27272095 611.90652527 -637.23428345 611.27433777 C-649.23388544 603.17608421 -657.4647408 591.60242626 -664.40615845 579.13371277 C-665.17186157 577.82853699 -665.17186157 577.82853699 -665.95303345 576.49699402 C-673.58377237 562.6250643 -676.71802329 545.6510443 -676.67358398 530.01585388 C-676.68038065 528.24150911 -676.68038065 528.24150911 -676.68731463 526.431319 C-676.69772764 523.17444175 -676.69929433 519.91770464 -676.69692588 516.66081619 C-676.69651554 513.13783972 -676.7075774 509.61489544 -676.71704102 506.0919342 C-676.73360491 499.19976545 -676.73914846 492.30763093 -676.74026577 485.41544393 C-676.74121839 479.80939025 -676.74533934 474.20334779 -676.75166702 468.59729767 C-676.76926647 452.6794095 -676.77850787 436.76154822 -676.77700607 420.84365025 C-676.77692616 419.98675369 -676.77684625 419.12985714 -676.77676392 418.24699402 C-676.77668215 417.3890431 -676.77660039 416.53109217 -676.77651615 415.64714274 C-676.77570351 401.7476914 -676.79483906 387.84834849 -676.82304065 373.94892851 C-676.85181456 359.65387974 -676.86557848 345.35888378 -676.8638531 331.06380534 C-676.86319078 323.04752312 -676.8686137 315.0313546 -676.8902092 307.01509857 C-676.90848039 300.18946882 -676.91271983 293.36400433 -676.89919035 286.53836063 C-676.89269059 283.06108347 -676.89243383 279.5841228 -676.90989685 276.10687637 C-677.01637794 250.15331712 -677.01637794 250.15331712 -672.40615845 238.13371277 C-672.04978499 236.72266581 -671.7136201 235.30621862 -671.40615845 233.88371277 C-667.28507196 218.42963844 -658.59932576 203.01522024 -646.2772522 192.71965027 C-644.23646962 191.04052797 -644.23646962 191.04052797 -641.90615845 188.57121277 C-637.93812887 184.70238393 -633.70939925 180.9014597 -628.40615845 179.13371277 C-627.76045898 178.45054993 -627.76045898 178.45054993 -627.10171509 177.75358582 C-624.76034857 175.51672954 -622.23486615 174.52200371 -619.2772522 173.21574402 C-617.47804321 172.4181366 -617.47804321 172.4181366 -615.64248657 171.60441589 C-615.01930542 171.33250427 -614.39612427 171.06059265 -613.75405884 170.78044128 C-611.84336055 169.94608268 -609.93800362 169.10037204 -608.03311157 168.25285339 C-598.68331619 164.13371277 -598.68331619 164.13371277 -596.40615845 164.13371277 C-596.07615845 163.47371277 -595.74615845 162.81371277 -595.40615845 162.13371277 C-593.69473267 161.17570496 -593.69473267 161.17570496 -591.46084595 160.18058777 C-590.22745483 159.62733826 -590.22745483 159.62733826 -588.96914673 159.06291199 C-588.0821106 158.67377625 -587.19507446 158.2846405 -586.28115845 157.88371277 C-584.92160034 157.27873962 -584.92160034 157.27873962 -583.53457642 156.6615448 C-578.24243005 154.32389242 -572.92027171 152.11205866 -567.53115845 150.00871277 C-561.51420789 147.65509956 -555.83441554 144.87790653 -550.0897522 141.93058777 C-544.70182249 139.23735957 -539.09895836 137.0488877 -533.5116272 134.80949402 C-530.74853119 133.69754843 -528.02337994 132.52647164 -525.3085022 131.30168152 C-518.86755529 128.41630813 -512.32027325 125.78646851 -505.78115845 123.13371277 C-504.74635345 122.71302017 -504.74635345 122.71302017 -503.69064331 122.28382874 C-491.85768047 117.4766134 -479.97142706 112.81653233 -468.03652954 108.26847839 C-462.08510364 105.99006599 -456.1996372 103.63111502 -450.3631897 101.07121277 C-443.60352732 98.14224652 -436.73477294 95.80232911 -429.71865845 93.57121277 C-420.27824252 90.57040509 -420.27824252 90.57040509 -411.17178345 86.70402527 C-403.68050628 83.17659575 -395.75050675 80.96639833 -387.84365845 78.57121277 C-384.77821451 77.63769385 -381.71432511 76.69932518 -378.6522522 75.75480652 C-377.91709381 75.52813797 -377.18193542 75.30146942 -376.42449951 75.06793213 C-371.81338098 73.62684687 -367.36307982 71.96440209 -362.90444946 70.10124207 C-357.44317381 67.98621857 -351.77374465 66.46218839 -346.15615845 64.82121277 C-343.48340774 64.03248976 -340.81184132 63.23980726 -338.14053345 62.44621277 C-337.48000977 62.25029037 -336.81948608 62.05436798 -336.13894653 61.85250854 C-330.20270481 60.08596051 -324.30110928 58.22019773 -318.40615845 56.32121277 C-306.41833153 52.48153034 -294.46715646 49.10805147 -282.17202759 46.40837097 C-273.48815876 44.46113145 -264.9099733 42.1668996 -256.3168335 39.85969543 C-240.47967699 35.61103587 -224.65493003 31.92154789 -208.55801392 28.76750183 C-204.76006868 28.00379418 -200.98445695 27.15797802 -197.20669556 26.3009491 C-179.40053233 22.27632401 -161.39154069 19.23439663 -143.40615845 16.13371277 C-142.34567291 15.95068604 -142.34567291 15.95068604 -141.26376343 15.76396179 C-131.66046993 14.11149098 -122.04108861 12.58926344 -112.40615845 11.13371277 C-111.08514218 10.92864851 -109.76417908 10.72324141 -108.44326782 10.51750183 C-82.51809357 6.51353684 -56.44614485 4.59441993 -30.29751587 2.74504089 C-29.58321883 2.69419971 -28.86892179 2.64335854 -28.13297939 2.59097672 C-24.73945228 2.3494853 -21.3458169 2.11187035 -17.95149231 1.88169861 C-16.75172256 1.79760742 -15.55195282 1.71351624 -14.31582642 1.62687683 C-13.26684174 1.555354 -12.21785706 1.48383118 -11.13708496 1.41014099 C-8.52257777 1.21941296 -8.52257777 1.21941296 -6.51086044 0.62479305 C-4.2686601 0.10163092 -2.30069646 0.00508004 0 0 Z " fill="#FC4F00" transform="translate(696.4061584472656,33.86628723144531)"/>
</svg>
