<?xml version="1.0" encoding="UTF-8"?>
<svg version="1.1" xmlns="http://www.w3.org/2000/svg" width="708" height="404">
<path d="M0 0 C1.41858982 0.15246015 2.83721152 0.30462384 4.25585938 0.45654297 C86.3218876 9.37217002 164.44909124 34.65517589 239.82763672 67.62109375 C243.01399225 69.0060819 246.21016241 70.36560414 249.41015625 71.71875 C273.78462461 82.0688672 273.78462461 82.0688672 282 89 C282 89.66 282 90.32 282 91 C282.66 91 283.32 91 284 91 C292.04451697 100.15899666 297.10536559 111.75278185 297.14044189 123.94935608 C297.14900711 125.73848923 297.14900711 125.73848923 297.15774536 127.56376648 C297.15886322 128.86409317 297.15998108 130.16441986 297.16113281 131.50415039 C297.1657648 132.89426809 297.17078997 134.28438453 297.17617798 135.67449951 C297.18927127 139.44554958 297.19574146 143.21658187 297.20018864 146.98765111 C297.20312562 149.34815345 297.2072317 151.708651 297.21169281 154.06915092 C297.22536251 161.46737522 297.23503054 168.86558848 297.2388947 176.26382452 C297.24336787 184.7795507 297.26088341 193.29511576 297.2898953 201.81079298 C297.31158409 208.40805765 297.32160288 215.00527724 297.32293582 221.60257715 C297.32397913 225.53546411 297.32978464 229.46819951 297.34775543 233.40104866 C297.36436012 237.10703496 297.36633229 240.81275783 297.35761642 244.51876831 C297.35649151 246.5083764 297.37011454 248.49797623 297.3843689 250.48753357 C297.33838295 260.49941352 296.40436987 270.49346092 290.5625 278.9375 C289.98628906 279.79214844 289.41007813 280.64679688 288.81640625 281.52734375 C285.55992198 285.96036427 282.51688125 289.790637 278 293 C277.34 293 276.68 293 276 293 C276 293.66 276 294.32 276 295 C273.50252977 296.27601331 271.00222064 297.54586171 268.5 298.8125 C267.80390625 299.16892578 267.1078125 299.52535156 266.390625 299.89257812 C261.6885657 302.26537657 256.95102352 304.21503278 252 306 C246.63265126 308.1252219 241.32333808 310.37722501 236.08203125 312.796875 C224.57724269 318.09846678 212.91842042 322.9752881 201.1875 327.75 C200.00766037 328.23288483 200.00766037 328.23288483 198.8039856 328.7255249 C189.73521615 332.43222745 180.66595185 335.90492177 171.32543945 338.86816406 C167.78214767 340.07414752 164.43171161 341.50913857 161 343 C158.295636 343.80239371 155.58174258 344.47980477 152.84375 345.15625 C149.87087369 345.97579708 149.87087369 345.97579708 146.65625 347.453125 C142.83436806 349.07007505 139.002528 350.20204234 135 351.25 C129.9111995 352.61312804 124.85264821 354.02211492 119.8359375 355.6328125 C108.33097264 359.31682248 96.79921335 362.31875514 85 364.875 C84.30364441 365.026203 83.60728882 365.17740601 82.88983154 365.33319092 C73.44381328 367.37244043 64.08281822 368.95552508 54.45703125 369.83203125 C53.63154282 369.90859955 52.80605438 369.98516785 51.95555115 370.0640564 C49.24136147 370.31531452 46.52694342 370.56399921 43.8125 370.8125 C41.90786842 370.98793739 40.00324617 371.1634762 38.09863281 371.33911133 C34.10768994 371.70672277 30.11663165 372.07304853 26.12548828 372.43847656 C21.0499128 372.9033051 15.97464369 373.37138647 10.89945984 373.84046936 C6.96324066 374.20389314 3.02685657 374.5655053 -0.90957642 374.92660522 C-2.77842325 375.09826004 -4.64721959 375.27046571 -6.51596069 375.44326782 C-35.80462704 378.14861473 -35.80462704 378.14861473 -50.07421875 378.16796875 C-51.06559341 378.17224884 -52.05696808 378.17652893 -53.0783844 378.18093872 C-56.28146968 378.19087135 -59.48440227 378.19099266 -62.6875 378.1875 C-64.35165955 378.18609512 -64.35165955 378.18609512 -66.04943848 378.18466187 C-99.34844928 378.12427937 -132.26557978 377.60954198 -165 371 C-166.24442871 370.75652832 -167.48885742 370.51305664 -168.77099609 370.26220703 C-227.70414762 358.60765663 -284.99920538 338.94498262 -340 315 C-341.59859863 314.30777344 -341.59859863 314.30777344 -343.22949219 313.6015625 C-349.53922151 310.86690579 -355.83270448 308.09877627 -362.109375 305.2890625 C-363.99420244 304.44853134 -365.88210627 303.61485501 -367.7734375 302.7890625 C-377.78939999 298.41258622 -386.57432442 294.30897166 -394 286 C-394.5775 285.37738281 -395.155 284.75476563 -395.75 284.11328125 C-402.64915099 275.88604369 -406.10289809 264.72112717 -406.14717102 254.09533691 C-406.15432632 252.9124408 -406.16148163 251.72954468 -406.16885376 250.51080322 C-406.17154266 249.22139832 -406.17423157 247.93199341 -406.17700195 246.60351562 C-406.18327217 245.22487214 -406.18991946 243.84623033 -406.19691467 242.46759033 C-406.21789943 237.94715539 -406.2283151 233.42672035 -406.23828125 228.90625 C-406.24233156 227.34482303 -406.24644856 225.78339623 -406.25063133 224.2219696 C-406.2696745 216.88087748 -406.28390468 209.53979532 -406.2922433 202.19868326 C-406.30199838 193.75196911 -406.32827613 185.30551822 -406.36874419 176.85889673 C-406.39901654 170.31342183 -406.41372284 163.76802188 -406.41702431 157.22247839 C-406.41936306 153.32136168 -406.428168 149.42052646 -406.45348549 145.51948547 C-406.47696554 141.84216731 -406.48092071 138.16531196 -406.47072411 134.48793793 C-406.47000176 132.51639302 -406.48895391 130.54487055 -406.50878906 128.57342529 C-406.42210958 113.52576643 -401.73279346 101.01731594 -391.625 89.875 C-385.26686917 83.81918743 -377.95912588 80.470897 -370 77 C-368.74606445 76.45279297 -368.74606445 76.45279297 -367.46679688 75.89453125 C-363.97657168 74.38063638 -360.48375254 72.8746393 -356.97338867 71.40795898 C-351.96656617 69.31236667 -347.05137042 67.08365979 -342.15234375 64.74609375 C-332.66004317 60.25666029 -322.89796869 56.45352637 -313.125 52.625 C-311.69355148 52.06274719 -311.69355148 52.06274719 -310.23318481 51.48913574 C-303.82886947 48.97524605 -297.41762009 46.47971867 -291 44 C-290.3437262 43.74609497 -289.68745239 43.49218994 -289.0112915 43.23059082 C-232.3814497 21.37414842 -172.42229455 6.77396985 -112.10266113 0.22851562 C-110.21082952 0.02291279 -108.31971924 -0.18930152 -106.42871094 -0.40234375 C-71.66326907 -4.15848861 -34.73753443 -3.89959925 0 0 Z " fill="#FC4F00" transform="translate(408,13)"/>
</svg>
