<?xml version="1.0" encoding="UTF-8"?>
<!DOCTYPE svg PUBLIC "-//W3C//DTD SVG 1.1//EN" "http://www.w3.org/Graphics/SVG/1.1/DTD/svg11.dtd">
<svg xmlns="http://www.w3.org/2000/svg" version="1.1" width="900px" height="700px" style="shape-rendering:geometricPrecision; text-rendering:geometricPrecision; image-rendering:optimizeQuality; fill-rule:evenodd; clip-rule:evenodd" xmlns:xlink="http://www.w3.org/1999/xlink">
<g><path style="opacity:0.99" fill="#fb4f00" d="M 398.5,18.5 C 471.679,13.2271 546.012,22.0605 621.5,45C 708.987,74.6066 790.987,115.273 867.5,167C 882.766,181.756 892.099,199.59 895.5,220.5C 896.833,307.167 896.833,393.833 895.5,480.5C 892.148,495.537 886.315,509.537 878,522.5C 873.694,527.895 868.86,532.728 863.5,537C 797.485,580.174 727.818,616.174 654.5,645C 637.914,650.319 621.247,655.652 604.5,661C 563.712,666.076 523.045,671.409 482.5,677C 437.743,678.273 393.077,677.44 348.5,674.5C 348.649,673.448 348.483,672.448 348,671.5C 347.196,672.804 346.029,673.471 344.5,673.5C 285.252,660.251 228.252,640.751 173.5,615C 125.01,590.951 78.3438,564.785 33.5,536.5C 22.6526,527.154 14.4859,515.821 9,502.5C 6.64794,494.411 4.31461,486.411 2,478.5C 1.33333,393.167 1.33333,307.833 2,222.5C 5.54578,200.07 15.3791,181.07 31.5,165.5C 90.8164,127.337 152.816,94.1706 217.5,66C 257.809,49.9238 299.142,37.2571 341.5,28C 361.155,24.5527 380.155,21.3861 398.5,18.5 Z"/></g>
</svg>
