<?xml version="1.0" encoding="UTF-8"?>
<!DOCTYPE svg PUBLIC "-//W3C//DTD SVG 1.1//EN" "http://www.w3.org/Graphics/SVG/1.1/DTD/svg11.dtd">
<svg xmlns="http://www.w3.org/2000/svg" version="1.1" width="900px" height="600px" style="shape-rendering:geometricPrecision; text-rendering:geometricPrecision; image-rendering:optimizeQuality; fill-rule:evenodd; clip-rule:evenodd" xmlns:xlink="http://www.w3.org/1999/xlink">
<g><path style="opacity:0.991" fill="#fb4f00" d="M 403.5,14.5 C 478.767,11.9212 553.1,20.4212 626.5,40C 713.08,65.2937 795.08,100.96 872.5,147C 879.692,154.517 885.692,162.851 890.5,172C 890.167,172.333 889.833,172.667 889.5,173C 891.837,177.496 893.337,182.329 894,187.5C 894.414,187.957 894.914,188.291 895.5,188.5C 896.833,262.833 896.833,337.167 895.5,411.5C 891.227,431.879 880.56,448.046 863.5,460C 816.979,485.29 769.312,508.29 720.5,529C 682.959,543.736 644.626,556.069 605.5,566C 563.686,570.343 522.019,575.176 480.5,580.5C 464.833,580.833 449.167,581.167 433.5,581.5C 405.101,581.293 376.768,580.293 348.5,578.5C 348.649,577.448 348.483,576.448 348,575.5C 345.599,576.602 343.099,576.769 340.5,576C 284.873,565.267 231.206,549.767 179.5,529.5C 129.684,508.738 81.1843,485.404 34,459.5C 22.2942,451.779 13.6275,441.446 8,428.5C 6.17465,422.028 4.17465,415.695 2,409.5C 1.33333,336.5 1.33333,263.5 2,190.5C 5.97296,170.377 16.1396,154.21 32.5,142C 95.2418,106.543 161.575,76.543 231.5,52C 286.259,33.7707 342.426,21.9374 400,16.5C 401.681,16.3917 402.848,15.7251 403.5,14.5 Z"/></g>
</svg>
