<?xml version="1.0" encoding="UTF-8"?>
<svg version="1.1" xmlns="http://www.w3.org/2000/svg" width="900" height="504">
<path d="M0 0 C1.39710457 0.00067978 1.39710457 0.00067978 2.82243347 0.00137329 C4.28586182 -0.00366463 4.28586182 -0.00366463 5.77885437 -0.00880432 C9.0236181 -0.01834948 12.26833038 -0.02025949 15.5131073 -0.02133179 C17.76174949 -0.0245429 20.01039146 -0.02790686 22.2590332 -0.03141785 C26.98280827 -0.03741874 31.70656502 -0.03925687 36.43034363 -0.03866577 C42.48206703 -0.03856432 48.53367264 -0.05219423 54.58536816 -0.06943798 C59.23422789 -0.08056271 63.88305924 -0.0825848 68.53193092 -0.08205605 C70.76263648 -0.0832363 72.99334278 -0.08766064 75.22403526 -0.09538841 C78.34806388 -0.10519367 81.4718382 -0.10230756 84.59587097 -0.09628296 C85.51715286 -0.10190247 86.43843475 -0.10752197 87.38763428 -0.11331177 C92.21310021 -0.08968394 95.97516725 0.39088874 100.53263855 2.14663696 C102.68051266 2.53862857 102.68051266 2.53862857 104.74845886 2.67739868 C105.9145443 2.77814949 105.9145443 2.77814949 107.10418701 2.88093567 C108.3449424 2.97765312 108.3449424 2.97765312 109.61076355 3.07632446 C111.41831623 3.23131986 113.22585138 3.3865198 115.03337097 3.54190063 C116.44300613 3.65917007 116.44300613 3.65917007 117.88111877 3.77880859 C134.43064929 5.16383982 150.78340978 6.92583783 167.15519714 9.76138306 C169.35833591 10.11839199 171.55280017 10.39175678 173.7709198 10.63491821 C177.52716032 11.14589174 180.89598203 12.09247683 184.53263855 13.14663696 C187.85351318 13.82254796 191.19269677 14.38599495 194.53263855 14.95913696 C202.7152592 16.40488866 210.85068372 18.00485514 218.97013855 19.77163696 C219.92211121 19.97764526 220.87408386 20.18365356 221.85490417 20.39590454 C226.80664874 21.48583618 231.65738311 22.7477421 236.53263855 24.14663696 C238.81946422 24.74509424 241.108634 25.33465145 243.39982605 25.91616821 C244.70309704 26.24841685 246.00631789 26.58086217 247.30949402 26.91348267 C248.31469086 27.16975937 248.31469086 27.16975937 249.3401947 27.43121338 C262.57528927 30.81080628 275.80085419 34.19383648 288.75138855 38.56460571 C295.1768745 40.72166494 301.6824004 42.61843343 308.18107605 44.54116821 C313.47233113 46.12994454 318.49163888 47.89162541 323.53263855 50.14663696 C325.86274764 50.82448688 328.19623679 51.49080489 330.53263855 52.14663696 C332.46450942 52.86595059 334.39596568 53.58644347 336.32341003 54.3175354 C339.97831795 55.68918611 343.66209698 56.9778589 347.34513855 58.27163696 C348.09472839 58.53589478 348.84431824 58.80015259 349.61662292 59.07241821 C352.58253339 60.11671555 355.54955717 61.1522765 358.53263855 62.14663696 C358.53263855 62.80663696 358.53263855 63.46663696 358.53263855 64.14663696 C359.52908386 64.24976196 360.52552917 64.35288696 361.5521698 64.45913696 C365.73488606 65.05711905 369.35408935 66.49254528 373.22013855 68.14663696 C378.74953464 70.52544024 378.74953464 70.52544024 384.53263855 72.14663696 C384.53263855 72.80663696 384.53263855 73.46663696 384.53263855 74.14663696 C385.41306824 74.26780884 386.29349792 74.38898071 387.2006073 74.51382446 C390.37455818 75.11661466 392.89533468 75.9824318 395.84513855 77.27163696 C400.14305403 79.12198023 404.44977526 80.93550663 408.78507996 82.69570923 C415.82380919 85.55760148 422.74873056 88.58396984 429.62638855 91.81851196 C432.21629851 93.00207297 434.81210737 94.06580034 437.47013855 95.08413696 C442.9044203 97.20288629 448.06895595 99.83252098 453.25920105 102.47866821 C455.83823295 103.79280499 458.42821469 105.07183958 461.03263855 106.33413696 C464.43855166 108.09791339 467.46941627 109.84922025 470.53263855 112.14663696 C470.53263855 112.80663696 470.53263855 113.46663696 470.53263855 114.14663696 C471.49170105 114.54882446 471.49170105 114.54882446 472.47013855 114.95913696 C474.53263855 116.14663696 474.53263855 116.14663696 475.53263855 119.14663696 C476.52263855 119.47663696 477.51263855 119.80663696 478.53263855 120.14663696 C480.1638433 122.24474452 481.61108904 124.28835785 483.03263855 126.52163696 C483.43555115 127.14707397 483.83846375 127.77251099 484.25358582 128.41690063 C487.17942615 133.14353533 488.91687742 137.65184899 489.9974823 143.13491821 C490.17408386 143.7987854 490.35068542 144.46265259 490.53263855 145.14663696 C491.19263855 145.47663696 491.85263855 145.80663696 492.53263855 146.14663696 C492.53263855 207.85663696 492.53263855 269.56663696 492.53263855 333.14663696 C491.87263855 333.14663696 491.21263855 333.14663696 490.53263855 333.14663696 C490.38568542 333.89687134 490.2387323 334.64710571 490.08732605 335.42007446 C487.73524461 346.15313573 483.20830448 353.55463913 475.97013855 361.64663696 C475.5112323 362.16355103 475.05232605 362.68046509 474.57951355 363.21304321 C471.80431232 366.19499295 469.44014677 367.95954586 465.53263855 369.14663696 C465.53263855 369.80663696 465.53263855 370.46663696 465.53263855 371.14663696 C459.90763855 374.14663696 459.90763855 374.14663696 456.53263855 374.14663696 C456.53263855 374.80663696 456.53263855 375.46663696 456.53263855 376.14663696 C455.90357605 376.38898071 455.27451355 376.63132446 454.62638855 376.88101196 C450.51184213 378.49212954 446.46103735 380.11803758 442.53263855 382.14663696 C438.89350815 384.01694701 435.17243194 385.52621098 431.3646698 387.01773071 C422.72251209 390.46267358 414.21318344 394.2159177 405.83732605 398.26382446 C403.53263855 399.14663696 403.53263855 399.14663696 399.53263855 399.14663696 C399.53263855 399.80663696 399.53263855 400.46663696 399.53263855 401.14663696 C398.77080261 401.38898071 398.00896667 401.63132446 397.2240448 401.88101196 C391.71012352 403.67079914 386.39662156 405.58092351 381.1381073 408.01382446 C376.98052431 409.82146924 372.72364873 411.35760125 368.47380066 412.93301392 C364.7458184 414.3158693 361.03275069 415.72083598 357.34513855 417.20913696 C356.58459167 417.51464478 355.8240448 417.82015259 355.04045105 418.13491821 C353.09589085 418.9194059 351.1536309 419.70959656 349.21232605 420.50210571 C348.05990417 420.96230103 346.9074823 421.42249634 345.72013855 421.89663696 C344.66181824 422.32460571 343.60349792 422.75257446 342.5131073 423.19351196 C339.64125524 424.1119024 337.51938653 424.34538544 334.53263855 424.14663696 C334.53263855 424.80663696 334.53263855 425.46663696 334.53263855 426.14663696 C333.61482605 426.40058228 332.69701355 426.65452759 331.75138855 426.91616821 C329.9106073 427.43243774 329.9106073 427.43243774 328.03263855 427.95913696 C326.82607605 428.29558228 325.61951355 428.63202759 324.37638855 428.97866821 C321.03291083 429.95601227 317.79845112 431.14006114 314.54679871 432.38565063 C296.32195365 439.27132846 277.35967685 445.11473053 258.32170105 449.22476196 C255.54710591 449.8998181 252.9863076 450.64298093 250.3021698 451.57241821 C244.82086752 453.44895268 239.23209544 454.76391716 233.59513855 456.08413696 C232.49194275 456.34356079 231.38874695 456.60298462 230.25212097 456.87026978 C228.03420008 457.39046513 225.81586399 457.90889379 223.59709167 458.42544556 C220.95028508 459.04834762 218.31112683 459.69420239 215.67326355 460.35366821 C205.91418277 462.73955823 196.28965912 463.91225756 186.27482605 464.65444946 C181.83877647 464.9964488 177.44778454 465.52852886 173.0365448 466.10757446 C163.91436191 467.29450015 154.76745492 467.97731324 145.59513855 468.64663696 C135.58617785 469.37863107 125.62250709 470.2035011 115.66152954 471.43470764 C108.67700038 472.28351393 101.67892308 472.7679087 94.65763855 473.20913696 C92.22251199 473.36308175 89.78759935 473.5204611 87.35295105 473.68179321 C86.30381531 473.74761597 85.25467957 473.81343872 84.17375183 473.8812561 C81.42793241 474.05942977 81.42793241 474.05942977 78.53263855 475.14663696 C77.13734624 475.23689562 75.73814371 475.27290979 74.3399353 475.27362061 C73.48623856 475.27644043 72.63254181 475.27926025 71.75297546 475.28216553 C70.81941223 475.2801413 69.885849 475.27811707 68.92399597 475.27603149 C67.44549919 475.27865997 67.44549919 475.27865997 65.93713379 475.28134155 C62.67077384 475.28575139 59.40446783 475.28282442 56.1381073 475.27944946 C53.86990346 475.28012291 51.60169969 475.28109328 49.33349609 475.28234863 C44.57459324 475.28382456 39.81570914 475.28167499 35.05680847 475.27700806 C28.96033574 475.27132057 22.86390713 475.27458422 16.76743603 475.28058052 C12.0808377 475.28419725 7.39424979 475.28304225 2.70765114 475.28045273 C0.46020312 475.27978603 -1.78724585 475.28060289 -4.03469276 475.28293228 C-7.17999901 475.28547592 -10.32523431 475.28159356 -13.47053528 475.27603149 C-14.39802582 475.27805573 -15.32551636 475.28007996 -16.28111267 475.28216553 C-20.80023437 475.26738499 -25.01521179 475.02069453 -29.46736145 474.14663696 C-31.54490194 474.01767357 -33.62496667 473.92533135 -35.7056427 473.86538696 C-36.85484192 473.82800415 -38.00404114 473.79062134 -39.18806458 473.75210571 C-41.60211032 473.68122019 -44.01617322 473.61091688 -46.43025208 473.54116821 C-47.57300598 473.5037854 -48.71575989 473.46640259 -49.8931427 473.42788696 C-50.93897522 473.39759399 -51.98480774 473.36730103 -53.06233215 473.33609009 C-55.46736145 473.14663696 -55.46736145 473.14663696 -56.46736145 472.14663696 C-57.48837952 472.14945679 -58.50939758 472.15227661 -59.56135559 472.15518188 C-63.51087526 472.14654177 -67.07421751 471.67861483 -70.9634552 471.00991821 C-72.01702209 470.83045654 -72.01702209 470.83045654 -73.09187317 470.64736938 C-75.36406497 470.25787936 -77.63449728 469.85913261 -79.90486145 469.45913696 C-81.06962509 469.25663834 -81.06962509 469.25663834 -82.25791931 469.05004883 C-98.69275183 466.1921021 -115.12834078 463.16916839 -131.27986145 458.96304321 C-135.89179407 457.78180067 -140.52333934 456.68567951 -145.15486145 455.58413696 C-146.03488831 455.37401978 -146.91491516 455.16390259 -147.8216095 454.94741821 C-153.35972005 453.63023471 -158.90754676 452.36900757 -164.46736145 451.14663696 C-164.46736145 450.48663696 -164.46736145 449.82663696 -164.46736145 449.14663696 C-165.66361145 449.06413696 -166.85986145 448.98163696 -168.09236145 448.89663696 C-173.93391403 448.22467923 -179.38361714 446.58881639 -184.99909973 444.88882446 C-188.01456064 443.98209834 -191.03574656 443.09567018 -194.0572052 442.20913696 C-196.46484815 441.50111256 -198.87239932 440.79277595 -201.27986145 440.08413696 C-202.43663391 439.7437439 -203.59340637 439.40335083 -204.78523254 439.05264282 C-221.23944651 434.17991025 -221.23944651 434.17991025 -228.34236145 431.14663696 C-231.84613805 429.71475303 -235.30366956 428.59610078 -238.96736145 427.64663696 C-243.47316873 426.47588648 -247.67528794 424.95280553 -251.9712677 423.17007446 C-255.31523877 421.79899399 -258.70777453 420.58496737 -262.10798645 419.36148071 C-266.63077988 417.72591239 -271.14257875 416.0609454 -275.65486145 414.39663696 C-276.51780823 414.07848022 -277.380755 413.76032349 -278.26985168 413.43252563 C-280.33576338 412.67076614 -282.40160079 411.90880593 -284.46736145 411.14663696 C-284.46736145 410.48663696 -284.46736145 409.82663696 -284.46736145 409.14663696 C-285.28849426 409.04351196 -286.10962708 408.94038696 -286.9556427 408.83413696 C-291.07332911 408.02800481 -294.75770031 406.66958288 -298.65486145 405.14663696 C-300.06488174 404.60461647 -301.47503294 404.06293638 -302.8853302 403.52163696 C-304.65843567 402.84101196 -304.65843567 402.84101196 -306.46736145 402.14663696 C-307.45736145 401.81663696 -308.44736145 401.48663696 -309.46736145 401.14663696 C-309.46736145 400.48663696 -309.46736145 399.82663696 -309.46736145 399.14663696 C-310.08224426 399.01386353 -310.69712708 398.88109009 -311.3306427 398.74429321 C-312.13888489 398.56769165 -312.94712708 398.39109009 -313.77986145 398.20913696 C-314.98062317 397.94810181 -314.98062317 397.94810181 -316.2056427 397.68179321 C-318.46736145 397.14663696 -318.46736145 397.14663696 -321.46736145 396.14663696 C-321.46736145 395.48663696 -321.46736145 394.82663696 -321.46736145 394.14663696 C-322.28527161 393.99968384 -322.28527161 393.99968384 -323.1197052 393.84976196 C-329.00696177 392.68237434 -334.05764524 390.69977189 -339.46736145 388.14663696 C-341.12930883 387.46829109 -342.79335048 386.79464121 -344.46736145 386.14663696 C-344.46736145 385.48663696 -344.46736145 384.82663696 -344.46736145 384.14663696 C-347.43736145 383.48663696 -350.40736145 382.82663696 -353.46736145 382.14663696 C-353.46736145 381.48663696 -353.46736145 380.82663696 -353.46736145 380.14663696 C-354.10673645 380.06413696 -354.74611145 379.98163696 -355.40486145 379.89663696 C-362.47814633 378.16440393 -369.0079682 374.43505534 -375.46736145 371.14663696 C-375.46736145 370.48663696 -375.46736145 369.82663696 -375.46736145 369.14663696 C-376.20341614 368.89526978 -376.93947083 368.64390259 -377.6978302 368.38491821 C-388.17936372 363.69853439 -395.33342664 350.86556927 -399.46736145 340.64663696 C-400.34316086 337.58133903 -400.76304145 335.30055701 -400.46736145 332.14663696 C-401.12736145 332.14663696 -401.78736145 332.14663696 -402.46736145 332.14663696 C-402.56088026 308.32876299 -402.63137769 284.51091661 -402.67461014 260.69289589 C-402.69521893 249.63330567 -402.72330743 238.57382965 -402.76911926 227.51431274 C-402.80903846 217.87273626 -402.83480649 208.2312425 -402.84371543 198.58958566 C-402.84892155 193.48628201 -402.86112286 188.383215 -402.89028168 183.27998734 C-402.91753103 178.47176364 -402.92578723 173.66387296 -402.91979218 168.85557938 C-402.92088816 167.09562365 -402.92878514 165.33565622 -402.94418335 163.57576752 C-403.02113042 154.32368494 -402.73228602 146.57253737 -398.46736145 138.14663696 C-398.02846789 136.84140143 -397.60803727 135.52960649 -397.21736145 134.20913696 C-393.98383925 125.55728026 -386.74501352 116.77834555 -379.46736145 111.14663696 C-378.47736145 111.14663696 -377.48736145 111.14663696 -376.46736145 111.14663696 C-376.46736145 110.48663696 -376.46736145 109.82663696 -376.46736145 109.14663696 C-374.48736145 108.65163696 -374.48736145 108.65163696 -372.46736145 108.14663696 C-372.46736145 107.48663696 -372.46736145 106.82663696 -372.46736145 106.14663696 C-371.68425598 105.80052368 -371.68425598 105.80052368 -370.8853302 105.44741821 C-366.62902537 103.56152483 -362.38538287 101.65222529 -358.15486145 99.70913696 C-353.215232 97.45755271 -348.22616248 95.34756423 -343.2056427 93.28335571 C-340.92063241 92.33479937 -338.66200799 91.34628899 -336.40486145 90.33413696 C-333.46736145 89.14663696 -333.46736145 89.14663696 -330.46736145 89.14663696 C-330.46736145 88.48663696 -330.46736145 87.82663696 -330.46736145 87.14663696 C-328.51027465 86.47631977 -326.55165032 85.81049013 -324.59236145 85.14663696 C-323.50181458 84.77538696 -322.4112677 84.40413696 -321.28767395 84.02163696 C-318.46736145 83.14663696 -318.46736145 83.14663696 -316.46736145 83.14663696 C-316.46736145 82.48663696 -316.46736145 81.82663696 -316.46736145 81.14663696 C-315.83829895 80.97648071 -315.20923645 80.80632446 -314.56111145 80.63101196 C-309.45434146 79.18511925 -304.87695852 77.54102508 -300.25642395 74.91616821 C-298.46736145 74.14663696 -298.46736145 74.14663696 -294.46736145 74.14663696 C-294.46736145 73.48663696 -294.46736145 72.82663696 -294.46736145 72.14663696 C-293.03456848 71.69224243 -293.03456848 71.69224243 -291.5728302 71.22866821 C-285.56952283 69.2941305 -279.67161401 67.3650024 -273.96736145 64.64663696 C-268.56575252 62.08587421 -262.99447753 60.23992861 -257.3150177 58.40444946 C-253.5464037 57.18544448 -249.81885146 55.86429895 -246.09236145 54.52163696 C-241.63548482 52.91596087 -237.17125644 51.36211389 -232.6665802 49.89663696 C-231.05332438 49.34646801 -229.45319935 48.75739334 -227.8618927 48.14663696 C-221.4567652 45.68938071 -215.25436671 44.14433986 -208.46736145 43.14663696 C-208.46736145 42.48663696 -208.46736145 41.82663696 -208.46736145 41.14663696 C-207.66298645 40.9390979 -206.85861145 40.73155884 -206.02986145 40.51773071 C-197.96627498 38.40457592 -189.96207299 36.13204172 -181.96736145 33.77163696 C-156.79289765 26.3769098 -131.30278226 20.28899061 -105.6040802 15.00991821 C-103.11688468 14.49779873 -100.64789808 13.95513722 -98.1743927 13.37710571 C-85.4302417 10.41666318 -72.41941759 8.90540131 -59.46736145 7.14663696 C-58.45931458 7.00725708 -57.4512677 6.8678772 -56.41267395 6.72427368 C-47.16519178 5.44641099 -37.91548968 4.27516294 -28.6275177 3.33023071 C-27.9600502 3.26228806 -27.2925827 3.1943454 -26.60488892 3.12434387 C-23.30271824 2.79026659 -20.00004106 2.46488793 -16.69612122 2.14834595 C-15.50945862 2.03176636 -14.32279602 1.91518677 -13.10017395 1.79507446 C-12.03685852 1.69372192 -10.97354309 1.59236938 -9.87800598 1.48794556 C-6.4275764 0.99942008 -3.83483248 0.01941229 0 0 Z " fill="#FC4F00" transform="translate(404.4673614501953,12.853363037109375)"/>
</svg>
