<?xml version="1.0" encoding="UTF-8"?>
<svg version="1.1" xmlns="http://www.w3.org/2000/svg" width="900" height="514">
<path d="M0 0 C33.33 0 66.66 0 101 0 C101 0.66 101 1.32 101 2 C101.91881958 2.04374756 101.91881958 2.04374756 102.85620117 2.08837891 C119.5638929 2.947675 136.05165486 4.7714397 152.625 7 C153.60898773 7.13142395 154.59297546 7.2628479 155.60678101 7.39825439 C158.45992098 7.78130481 161.31215981 8.17035174 164.1640625 8.5625 C165.00803085 8.67709564 165.85199921 8.79169128 166.72154236 8.90975952 C171.80559369 9.62196438 176.82438118 10.51887075 181.85121155 11.5615387 C184.49381954 12.10076411 187.14701777 12.52772601 189.8125 12.9375 C193.88238157 13.6023 197.88230868 14.40026117 201.89453125 15.3515625 C206.8347114 16.50634145 211.7824391 17.61639214 216.7421875 18.68359375 C217.40608994 18.82697678 218.06999237 18.9703598 218.75401306 19.11808777 C221.47242302 19.70503135 224.19094217 20.29138498 226.91064453 20.87231445 C241.16737861 23.92145246 255.15980132 27.67710296 269.125 31.875 C277.56604714 34.39883068 286.01820281 36.86690853 294.5 39.25 C300.54198271 40.95656151 306.47883507 42.76412415 312.34765625 45.0078125 C315.64062144 46.23964337 318.97330528 47.33935855 322.3125 48.4375 C329.58534359 50.83899776 336.79839892 53.39222599 344 56 C344.91007813 56.32742187 345.82015625 56.65484375 346.7578125 56.9921875 C358.9512345 61.39637873 371.06947033 65.92108348 383 71 C386.10307406 72.31509193 389.20756302 73.62681316 392.3125 74.9375 C393.13049072 75.28337158 393.94848145 75.62924316 394.79125977 75.9855957 C399.75375894 78.07695924 404.73708677 80.09520772 409.75 82.0625 C415.14904522 84.20606997 420.4136868 86.5386235 425.6574707 89.03662109 C433.08628209 92.55688744 440.63099085 95.81531688 448.16943359 99.0925293 C452.68412825 101.06331941 457.17063959 103.04406782 461.56640625 105.26953125 C464.86270334 107.03455058 464.86270334 107.03455058 468 108 C468 108.66 468 109.32 468 110 C468.66 110.185625 469.32 110.37125 470 110.5625 C478.56974781 114.66883749 485.80166822 123.20250233 491 131 C491 131.99 491 132.98 491 134 C491.66 134.33 492.32 134.66 493 135 C494.14567632 138.3296218 495.0561653 141.70184403 496 145.09375 C496.66308839 148.12331638 496.66308839 148.12331638 499 149 C499 212.03 499 275.06 499 340 C498.34 340 497.68 340 497 340 C496.84144531 340.76183594 496.68289063 341.52367187 496.51953125 342.30859375 C494.93974453 349.29980461 492.84010787 354.96209454 489 361 C488.401875 362.03125 487.80375 363.0625 487.1875 364.125 C484.22889229 368.01345584 480.76378859 370.91193647 477 374 C476.35417969 374.57878906 475.70835937 375.15757812 475.04296875 375.75390625 C468.65353191 381.21485896 461.42457866 384.09142394 453.74267578 387.26269531 C451.73838132 388.11068765 449.80347545 389.05452795 447.875 390.0625 C443.28845451 392.43104428 438.5133895 394.3574479 433.76171875 396.3671875 C430.04434324 397.95966072 426.39798765 399.69325424 422.75 401.4375 C415.00765701 405.11709997 407.04883265 408.15502866 399.04492188 411.2109375 C392.42543596 413.76516129 385.92499261 416.55564001 379.5 419.5625 C374.75444115 421.75118447 369.94165737 423.37947032 364.96875 424.96875 C362.04228259 425.98531236 359.30111833 427.17993274 356.5 428.5 C351.92821454 430.63998468 347.34614155 432.30275795 342.54296875 433.84375 C338.12827651 435.28448749 333.75403762 436.82992289 329.375 438.375 C315.53665204 443.22903878 301.71865317 447.8769609 287.59033203 451.82275391 C282.64295699 453.21281285 277.78523262 454.72455984 272.9375 456.4375 C261.20139132 460.44400911 249.0448349 463.09625859 237 466 C235.95183105 466.25346191 234.90366211 466.50692383 233.82373047 466.76806641 C223.44908211 469.27217479 223.44908211 469.27217479 218.35482788 470.45051575 C216.88952078 470.79243593 215.42600463 471.14225039 213.96551514 471.50419617 C208.12852663 472.90060919 202.37945547 473.54503185 196.40234375 474 C195.40981094 474.08121094 194.41727814 474.16242188 193.39466858 474.24609375 C190.24272265 474.50330335 187.09020576 474.75229259 183.9375 475 C179.8004163 475.32893654 175.66369975 475.66203463 171.52734375 476 C170.01571152 476.12327415 170.01571152 476.12327415 168.47354126 476.2490387 C162.8930913 476.71688777 157.35223516 477.29231415 151.80078125 478.02734375 C142.31549002 479.28174914 132.79208973 479.90271174 123.25 480.5625 C120.54529475 480.75042057 117.8407168 480.939661 115.13641357 481.13328552 C113.47165431 481.25244797 111.80666052 481.36839213 110.14141846 481.48060608 C106.64343157 481.73064709 103.39002948 482.14154272 100 483 C96.63514591 483.29909814 93.26979567 483.5066196 89.8984375 483.71875 C87.06316719 483.81894229 87.06316719 483.81894229 85 485 C83.65326472 485.0935148 82.30203483 485.12629376 80.95205688 485.12698364 C80.10525864 485.12980347 79.25846039 485.13262329 78.38600159 485.13552856 C77.45505173 485.13350433 76.52410187 485.1314801 75.56494141 485.12939453 C74.09647514 485.13202301 74.09647514 485.13202301 72.5983429 485.13470459 C69.34939827 485.13911989 66.10050772 485.13618578 62.8515625 485.1328125 C60.59955841 485.13348574 58.34755438 485.13445593 56.09555054 485.13571167 C51.3693574 485.1371883 46.64318313 485.13503561 41.91699219 485.13037109 C35.85504462 485.12468036 29.79314138 485.12794888 23.73119545 485.13394356 C19.07813177 485.13755568 14.42507861 485.13640746 9.77201462 485.13381577 C7.536869 485.13314796 5.30172242 485.13396981 3.06657791 485.13629532 C-0.05769126 485.13883176 -3.18188853 485.13496685 -6.30615234 485.12939453 C-7.69650444 485.13243088 -7.69650444 485.13243088 -9.11494446 485.13552856 C-9.96738235 485.13270874 -10.81982025 485.12988892 -11.6980896 485.12698364 C-12.43661352 485.12660662 -13.17513744 485.12622959 -13.93604088 485.12584114 C-16.07133001 484.99565096 -17.93512014 484.54054801 -20 484 C-22.23087871 483.86367731 -24.46490549 483.77574083 -26.69921875 483.71875 C-27.99021484 483.68136719 -29.28121094 483.64398438 -30.61132812 483.60546875 C-32.65890594 483.55166955 -34.70652022 483.49951916 -36.75415039 483.44775391 C-38.73594563 483.39616807 -40.71758784 483.33880363 -42.69921875 483.28125 C-43.88346436 483.25095703 -45.06770996 483.22066406 -46.2878418 483.18945312 C-49 483 -49 483 -50 482 C-51.78562237 481.68879856 -53.58116865 481.43428104 -55.37890625 481.203125 C-56.51577881 481.05166016 -57.65265137 480.90019531 -58.82397461 480.74414062 C-60.05768799 480.58107422 -61.29140137 480.41800781 -62.5625 480.25 C-74.89182036 478.55883438 -86.97513986 476.25830709 -99.12744141 473.60693359 C-104.8056278 472.407208 -110.51686449 471.37215677 -116.22827148 470.34375 C-120.64920475 469.52842303 -124.73721077 468.45071496 -129 467 C-133.0075677 465.92587952 -137.0347671 464.93292888 -141.0625 463.9375 C-142.13822266 463.66873047 -143.21394531 463.39996094 -144.32226562 463.12304688 C-148.86883242 461.99274726 -153.39915825 460.88888784 -158 460 C-158 459.34 -158 458.68 -158 458 C-159.91619141 457.83757812 -159.91619141 457.83757812 -161.87109375 457.671875 C-167.12296821 457.08502753 -172.01021593 455.7610648 -177.0625 454.25 C-177.97354492 453.98340576 -178.88458984 453.71681152 -179.82324219 453.44213867 C-190.30632412 450.35720653 -200.7425748 447.12847468 -211.09375 443.625 C-214.03850622 442.65950616 -217.01342532 441.82607385 -220 441 C-220 440.34 -220 439.68 -220 439 C-221.47146484 438.84144531 -221.47146484 438.84144531 -222.97265625 438.6796875 C-227.34279236 438.05334162 -231.30905493 436.64854859 -235.4375 435.125 C-236.50581055 434.74021484 -236.50581055 434.74021484 -237.59570312 434.34765625 C-241.7232121 432.85560487 -245.83170365 431.31412435 -249.93920898 429.76806641 C-252.13815332 428.94850962 -254.34345971 428.14827016 -256.55078125 427.3515625 C-264.26119022 424.56154861 -271.86878529 421.74293526 -279.2890625 418.23828125 C-282.52639379 416.75955788 -285.81663494 415.43408068 -289.125 414.125 C-300.69562636 409.53920774 -312.20649771 404.9046833 -323.47265625 399.60546875 C-328.66370655 397.24276479 -333.929068 395.06224356 -339.20263672 392.89086914 C-343.62136438 391.05772575 -347.92379817 389.09587023 -352.18432617 386.91992188 C-353.76784827 386.11762105 -355.37450983 385.36132069 -356.984375 384.61328125 C-366.76273861 380.01413565 -376.79353091 374.08804402 -383 365 C-383 364.34 -383 363.68 -383 363 C-383.99 362.67 -384.98 362.34 -386 362 C-387.46484375 359.41015625 -387.46484375 359.41015625 -388.9375 356.0625 C-389.42089844 354.98097656 -389.90429688 353.89945312 -390.40234375 352.78515625 C-390.65350669 352.1774684 -390.90466963 351.56978054 -391.16344357 350.9436779 C-391.97779627 348.98003949 -391.97779627 348.98003949 -393.01338291 347.08502388 C-397.0972125 338.64744888 -396.5554257 329.87350847 -396.50170898 320.73388672 C-396.50549701 318.89319446 -396.51100103 317.05250505 -396.51808167 315.21182251 C-396.53198846 310.23670722 -396.52090099 305.2619396 -396.50437045 300.28684378 C-396.49047292 295.06957349 -396.49698522 289.85232242 -396.50050354 284.63504028 C-396.50320147 275.87756782 -396.48976432 267.12023274 -396.46655273 258.36279297 C-396.43992906 248.24820376 -396.43820277 238.13384394 -396.4499411 228.01923168 C-396.46073082 218.27274136 -396.45452349 208.52633376 -396.44038582 198.77985001 C-396.43463807 194.63888715 -396.43469913 190.49798505 -396.43945122 186.35702133 C-396.44423371 181.47971459 -396.43406663 176.60265817 -396.41249657 171.72539902 C-396.40694647 169.93882084 -396.40644702 168.15221853 -396.41144943 166.36563873 C-396.41743507 163.92080144 -396.40483525 161.47672118 -396.38768005 159.0319519 C-396.3936901 158.33057755 -396.39970014 157.6292032 -396.40589231 156.90657508 C-396.33888962 151.6301571 -395.00748288 147.79918941 -393 143 C-392.42606334 141.33723702 -391.8609133 139.67135481 -391.3125 138 C-391.06113281 137.236875 -390.80976563 136.47375 -390.55078125 135.6875 C-390.36902344 135.130625 -390.18726563 134.57375 -390 134 C-389.34 134 -388.68 134 -388 134 C-387.88785156 133.42894531 -387.77570313 132.85789063 -387.66015625 132.26953125 C-385.39123618 124.46927941 -379.16530459 118.86918942 -373 114 C-372.360625 113.45214844 -371.72125 112.90429688 -371.0625 112.33984375 C-366.09814233 108.266268 -361.22414824 106.45400184 -355 105 C-355 104.34 -355 103.68 -355 103 C-354.40574219 102.76925781 -353.81148438 102.53851563 -353.19921875 102.30078125 C-348.76650064 100.556648 -344.3865548 98.74936703 -340.0625 96.75 C-334.13792415 94.01881255 -328.12284414 91.52143044 -322.1027832 89.01049805 C-317.60069039 87.12360776 -313.15627127 85.16629 -308.75 83.0625 C-301.80359974 79.79465617 -294.65344114 77.06991097 -287.48339844 74.33422852 C-281.69248193 72.11151797 -276.05089694 69.68253766 -270.41992188 67.08227539 C-267.68203945 65.8577967 -264.93021913 64.87589659 -262.0625 64 C-257.94293285 62.68173851 -253.97710134 61.20076824 -250 59.5 C-245.06644444 57.3948441 -240.09302817 55.62291577 -234.984375 53.9921875 C-232.7460952 53.24804736 -230.52880062 52.44028759 -228.32421875 51.6015625 C-223.30094305 49.69954549 -218.18647787 48.10628464 -213.0625 46.5 C-205.28470022 44.05554454 -205.28470022 44.05554454 -197.5390625 41.51171875 C-173.42636978 33.42874454 -148.74320403 26.02962443 -123.75610352 21.19042969 C-120.76666249 20.61039416 -117.91071234 19.96976874 -115.0234375 18.9921875 C-111.26509958 17.75883113 -107.52246554 17.13108428 -103.625 16.5 C-98.78368421 15.70762637 -94.07763031 14.76765422 -89.32324219 13.54003906 C-84.03816065 12.31151864 -78.66417875 11.50592201 -73.3125 10.625 C-72.33316498 10.46359024 -72.33316498 10.46359024 -71.33404541 10.29891968 C-47.60040637 6.39980645 -24.02039314 3.36735317 0 2 C0 1.34 0 0.68 0 0 Z " fill="#FC4F00" transform="translate(398,13)"/>
</svg>
