<?xml version="1.0" encoding="UTF-8"?>
<svg version="1.1" xmlns="http://www.w3.org/2000/svg" width="1466" height="818">
<path d="M0 0 C1.74586899 -0.00284752 1.74586899 -0.00284752 3.52700806 -0.00575256 C7.3663004 -0.00944907 11.20540223 0.00123828 15.04467773 0.01245117 C17.73583514 0.01465655 20.42699067 0.01414632 23.1181488 0.01383972 C28.7644992 0.01477501 34.41079575 0.023429 40.05712891 0.03710938 C46.5222519 0.05271898 52.98731555 0.05811126 59.45245606 0.05737382 C66.40092659 0.05668906 73.34937516 0.06369346 80.29783893 0.07282043 C82.26502638 0.07491953 84.23221527 0.07550105 86.19940376 0.07605934 C107.46069278 0.08868535 128.63289475 0.44909677 149.79077148 2.68041992 C152.42486075 2.94759673 155.05897547 3.21452274 157.69311523 3.48120117 C158.95494629 3.61091309 160.21677734 3.740625 161.5168457 3.87426758 C164.89979879 4.2160486 168.28369246 4.53827433 171.66967773 4.84838867 C172.64018066 4.93741455 173.61068359 5.02644043 174.6105957 5.11816406 C176.38158001 5.27943493 178.15272947 5.43890693 179.92407227 5.59619141 C183.43688986 5.92101924 186.75181351 6.38732305 190.16577148 7.24291992 C192.85285225 7.51608172 195.53765741 7.76080368 198.22827148 7.99291992 C208.23320576 8.92120291 218.16133394 10.30748589 228.10327148 11.74291992 C228.84980988 11.85051636 229.59634827 11.95811279 230.36550903 12.06896973 C243.88149522 14.02199793 257.37909167 16.08086921 270.85327148 18.30541992 C271.92254883 18.47879883 272.99182617 18.65217773 274.09350586 18.83081055 C275.1112207 18.9990332 276.12893555 19.16725586 277.17749023 19.34057617 C278.08974365 19.49018799 279.00199707 19.6397998 279.94189453 19.79394531 C282.16577148 20.24291992 282.16577148 20.24291992 284.16577148 21.24291992 C286.75721053 21.55337518 289.3494888 21.75265905 291.95092773 21.96166992 C294.16577148 22.24291992 294.16577148 22.24291992 295.16577148 23.24291992 C298.89612378 23.90366046 302.63055956 24.48763813 306.37670898 25.04956055 C310.60018403 25.71334775 314.20690923 26.58847003 318.16577148 28.24291992 C320.4689576 28.72706476 322.78343811 29.15863835 325.10327148 29.55541992 C331.9568814 30.77759556 338.75076379 32.20698209 345.54077148 33.74291992 C346.89416626 34.04516479 346.89416626 34.04516479 348.27490234 34.35351562 C353.57962375 35.56437066 358.77000657 36.9741714 363.95507812 38.62573242 C366.07414242 39.21733867 368.04260415 39.52845483 370.22827148 39.74291992 C373.97089129 40.21817323 376.96168313 41.10838874 380.48608398 42.35229492 C388.85712744 45.13450762 397.51481825 47.30109438 406.21264648 48.75073242 C408.16577148 49.24291992 408.16577148 49.24291992 411.16577148 51.24291992 C412.23827148 51.38729492 413.31077148 51.53166992 414.41577148 51.68041992 C417.73403089 52.17815883 420.08472108 53.03199754 423.09545898 54.42260742 C426.65929212 55.83469225 430.38933562 56.60192779 434.11108398 57.49291992 C440.09893197 58.96308209 445.95593298 60.82057742 451.79077148 62.80541992 C454.60587695 63.76196104 457.39534952 64.5691775 460.29077148 65.24291992 C463.44199565 65.99203215 466.24260352 67.11875266 469.19702148 68.46166992 C471.58515474 69.40934185 473.99095211 70.03762952 476.47827148 70.68041992 C480.01322895 71.60715201 483.35632816 72.64850564 486.72827148 74.05541992 C491.41210381 76.0020445 496.16737721 77.64427802 500.97827148 79.24291992 C501.75895996 79.50234375 502.53964844 79.76176758 503.34399414 80.02905273 C507.90931455 81.53276643 512.49242151 82.94637464 517.10327148 84.30541992 C531.61761575 88.69476418 531.61761575 88.69476418 535.16577148 92.24291992 C536.11452148 92.32541992 537.06327148 92.40791992 538.04077148 92.49291992 C541.37084077 92.92844206 543.95832112 93.97395696 546.97827148 95.43041992 C552.86514692 98.25875114 558.92654718 100.2414459 565.14746094 102.18701172 C570.96235823 104.03950667 570.96235823 104.03950667 573.16577148 106.24291992 C575.18585172 106.96611339 575.18585172 106.96611339 577.54077148 107.55541992 C583.63472817 109.29277081 589.3596602 111.72391005 595.16577148 114.24291992 C599.06413547 115.92324923 602.96581101 117.5639386 606.91577148 119.11791992 C610.53502439 120.55248007 614.0732986 122.10130628 617.60327148 123.74291992 C621.24487088 125.42287013 624.88399734 126.90880899 628.66577148 128.24291992 C636.1003846 130.87623239 643.15933658 134.1970506 650.16577148 137.80541992 C654.53336997 140.02753143 658.97790547 141.70014633 663.62280273 143.25073242 C666.16577148 144.24291992 666.16577148 144.24291992 668.59545898 145.70776367 C671.47312623 147.42649198 674.3315351 148.53101322 677.47827148 149.68041992 C681.90270079 151.33771459 686.07706806 153.13124945 690.24780273 155.33666992 C693.18859304 156.72620831 696.26290595 157.62287337 699.38061523 158.53198242 C701.16577148 159.24291992 701.16577148 159.24291992 702.16577148 161.24291992 C704.19040404 161.89505284 704.19040404 161.89505284 706.16577148 162.24291992 C706.16577148 162.90291992 706.16577148 163.56291992 706.16577148 164.24291992 C706.81674805 164.15526367 707.46772461 164.06760742 708.13842773 163.97729492 C712.5479299 164.36419318 715.77372835 166.37020183 719.60327148 168.49291992 C720.71025391 169.0865332 720.71025391 169.0865332 721.83959961 169.69213867 C726.10388065 172.00432661 730.17080138 174.4829696 734.16577148 177.24291992 C734.79741211 177.66573242 735.42905273 178.08854492 736.07983398 178.52416992 C740.59530194 181.74066765 744.54759526 185.41389623 748.47827148 189.30541992 C749.25195068 190.06532227 749.25195068 190.06532227 750.04125977 190.84057617 C752.94913893 193.77231388 755.10357002 196.68324294 757.16577148 200.24291992 C757.82577148 200.57291992 758.48577148 200.90291992 759.16577148 201.24291992 C760.18291274 202.94909236 761.19432128 204.65967403 762.14624023 206.40307617 C763.00371258 207.95046879 763.95042602 209.4479251 764.91577148 210.93041992 C766.16577148 213.24291992 766.16577148 213.24291992 766.16577148 217.24291992 C766.82577148 217.24291992 767.48577148 217.24291992 768.16577148 217.24291992 C771.51689561 225.88933179 774.03040633 233.99054117 775.16577148 243.24291992 C775.82577148 243.24291992 776.48577148 243.24291992 777.16577148 243.24291992 C777.16577148 339.60291992 777.16577148 435.96291992 777.16577148 535.24291992 C776.50577148 535.24291992 775.84577148 535.24291992 775.16577148 535.24291992 C775.05620117 536.18393555 774.94663086 537.12495117 774.83374023 538.09448242 C774.67518555 539.3397168 774.51663086 540.58495117 774.35327148 541.86791992 C774.20245117 543.09768555 774.05163086 544.32745117 773.89624023 545.59448242 C773.1571025 549.28621846 771.95890058 551.95551657 770.16577148 555.24291992 C769.46605175 557.23159706 768.78912752 559.22900043 768.16577148 561.24291992 C767.50577148 561.24291992 766.84577148 561.24291992 766.16577148 561.24291992 C766.06651367 561.95963867 765.96725586 562.67635742 765.86499023 563.41479492 C765.06869475 566.63556549 763.80708814 568.73152789 761.97827148 571.49291992 C761.02694336 572.93151367 761.02694336 572.93151367 760.05639648 574.39916992 C759.43249023 575.33760742 758.80858398 576.27604492 758.16577148 577.24291992 C757.66561523 578.05760742 757.16545898 578.87229492 756.65014648 579.71166992 C753.18785316 585.26655812 749.2664974 589.18023648 744.16577148 593.24291992 C743.28663086 593.9725293 742.40749023 594.70213867 741.50170898 595.45385742 C734.45327148 601.24291992 734.45327148 601.24291992 732.16577148 601.24291992 C732.16577148 601.90291992 732.16577148 602.56291992 732.16577148 603.24291992 C731.24795898 603.70182617 730.33014648 604.16073242 729.38452148 604.63354492 C728.79380859 604.92898193 728.2030957 605.22441895 727.59448242 605.52880859 C726.30112251 606.17532483 725.00749949 606.82131499 723.71362305 607.46679688 C721.07159276 608.78548277 718.43169385 610.10599632 715.80639648 611.45776367 C712.3396614 613.24126995 708.86717537 614.77612623 705.22827148 616.18041992 C701.10732391 617.78475829 697.38953967 619.74742826 693.56640625 621.95532227 C691.2591216 623.19285092 688.98087471 624.17784647 686.54077148 625.12182617 C681.20867005 627.21714164 675.93317242 629.42796413 670.66577148 631.68041992 C669.79307617 632.04973633 668.92038086 632.41905273 668.02124023 632.79956055 C663.56501634 634.70418365 659.19409653 636.70011583 654.87280273 638.89526367 C651.4246648 640.64576814 648.02938055 642.14438737 644.35327148 643.36791992 C640.60993208 644.61754282 637.53689479 646.2017889 634.16577148 648.24291992 C632.16577148 649.01635742 632.16577148 649.01635742 630.16577148 649.61791992 C626.14034855 650.9008962 622.18218613 652.31560236 618.22827148 653.80541992 C617.12612305 654.21920898 616.02397461 654.63299805 614.88842773 655.05932617 C612.08332665 656.08098254 612.08332665 656.08098254 610.16577148 658.24291992 C607.57156212 659.35431261 604.99503693 660.38460919 602.35327148 661.36791992 C601.64106445 661.64506836 600.92885742 661.9222168 600.19506836 662.20776367 C596.39432571 663.63523963 593.29419443 664.61601905 589.16577148 664.24291992 C588.83577148 665.23291992 588.50577148 666.22291992 588.16577148 667.24291992 C586.16186523 668.05151367 586.16186523 668.05151367 583.60327148 668.68041992 C580.27557507 669.50585476 577.40115021 670.58070025 574.37280273 672.15698242 C570.1782775 674.31725929 565.90939437 675.7733652 561.41577148 677.18041992 C555.05372931 679.23125525 548.87164427 681.47718625 542.74389648 684.16479492 C539.92536543 685.34345336 537.06349875 686.27701083 534.16577148 687.24291992 C532.22110245 688.03810848 530.28356204 688.85093763 528.35327148 689.68041992 C521.70658127 692.47514417 515.0123155 694.70280647 508.10327148 696.74291992 C504.45275817 697.82517656 500.91080614 699.05405025 497.36108398 700.42651367 C494.6507074 701.43446511 491.91214722 702.33778606 489.16577148 703.24291992 C485.80674364 704.35139911 482.46862097 705.47682762 479.16577148 706.74291992 C467.15668397 711.3107937 454.77451241 714.84713325 442.40405273 718.28979492 C439.88892447 719.03007393 437.56858345 719.84258206 435.16577148 720.86791992 C431.32410034 722.36106945 428.26103907 722.49887415 424.16577148 722.24291992 C424.16577148 722.90291992 424.16577148 723.56291992 424.16577148 724.24291992 C415.21121957 726.95609553 406.2940208 729.5371872 397.15405273 731.56323242 C390.82487126 733.00281095 384.60234317 734.78604716 378.41577148 736.74291992 C374.42742742 737.96002022 370.45219545 738.79272569 366.35327148 739.55541992 C360.1518431 740.73723677 354.20766327 742.36053229 348.16577148 744.18041992 C337.64287268 747.33124528 327.02021353 749.2136509 316.17089844 750.85742188 C314.10417651 751.16109065 314.10417651 751.16109065 312.16577148 752.24291992 C308.1143503 752.50152127 306.62239479 752.54733546 303.16577148 750.24291992 C299.85490889 750.5256613 299.85490889 750.5256613 297.16577148 752.24291992 C295.10847979 752.56215484 293.04963627 752.75453344 290.97827148 752.96166992 C289.14901818 753.06290036 289.14901818 753.06290036 288.16577148 754.24291992 C285.8476006 754.56389743 283.52797791 754.75512948 281.19702148 754.96166992 C279.17396555 755.0335783 279.17396555 755.0335783 278.16577148 756.24291992 C276.44037486 756.42809878 274.70979521 756.5659197 272.97827148 756.68041992 C268.70440755 757.02650402 265.22565108 757.86083325 261.16577148 759.24291992 C258.55838082 759.57137815 255.9582611 759.80226539 253.33764648 759.99682617 C251.12129889 760.12196143 251.12129889 760.12196143 249.16577148 761.24291992 C246.08571236 761.55792597 243.00477237 761.7537564 239.91577148 761.96166992 C237.20711156 762.07479484 237.20711156 762.07479484 235.16577148 763.24291992 C232.08571236 763.55792597 229.00477237 763.7537564 225.91577148 763.96166992 C223.20711156 764.07479484 223.20711156 764.07479484 221.16577148 765.24291992 C218.44322342 765.51912045 215.72077458 765.68891563 212.98999023 765.86401367 C210.18118788 766.11335727 210.18118788 766.11335727 207.81811523 767.24291992 C204.2676621 768.58152965 200.78977965 768.66542964 197.04077148 768.80541992 C191.52514631 768.99969113 191.52514631 768.99969113 186.16577148 770.24291992 C184.54899527 770.37911384 182.92789658 770.46714747 181.30639648 770.52416992 C179.8794043 770.58024414 179.8794043 770.58024414 178.42358398 770.63745117 C177.43100586 770.67225586 176.43842773 770.70706055 175.41577148 770.74291992 C169.2642009 770.96203919 163.24203238 771.22455217 157.16577148 772.24291992 C157.16577148 772.90291992 157.16577148 773.56291992 157.16577148 774.24291992 C93.80577148 774.24291992 30.44577148 774.24291992 -34.83422852 774.24291992 C-34.83422852 773.58291992 -34.83422852 772.92291992 -34.83422852 772.24291992 C-44.39482713 771.11371536 -53.94753278 770.91624809 -63.56079102 770.69067383 C-65.70414037 770.63907818 -67.84728633 770.58187562 -69.99047852 770.52416992 C-71.89023438 770.47873047 -71.89023438 770.47873047 -73.82836914 770.43237305 C-76.83422852 770.24291992 -76.83422852 770.24291992 -78.83422852 769.24291992 C-82.07794901 768.96412812 -85.32160951 768.79604774 -88.57250977 768.62182617 C-91.83422852 768.24291992 -91.83422852 768.24291992 -94.20263672 767.25 C-97.00275992 766.17842488 -99.21612781 765.90658241 -102.20141602 765.75073242 C-103.24088379 765.68756836 -104.28035156 765.6244043 -105.35131836 765.55932617 C-106.45942871 765.49616211 -107.56753906 765.43299805 -108.70922852 765.36791992 C-120.47206517 764.58868359 -131.86846832 762.91324926 -143.4362793 760.69360352 C-147.55108033 759.92024547 -151.68602812 759.28358772 -155.82250977 758.63745117 C-157.83422852 758.24291992 -157.83422852 758.24291992 -159.83422852 757.24291992 C-161.09235352 757.11916992 -162.35047852 756.99541992 -163.64672852 756.86791992 C-167.34612788 756.4865423 -170.8593774 755.82699484 -174.47485352 754.95776367 C-179.96639112 753.66518134 -185.46894278 752.44633611 -190.98657227 751.27026367 C-191.78247269 751.10002686 -192.57837311 750.92979004 -193.39839172 750.75439453 C-196.69431866 750.04967026 -199.99047255 749.34607196 -203.28759766 748.64697266 C-205.72958957 748.12864218 -208.17063385 747.60602962 -210.61157227 747.08276367 C-211.71794289 746.84987892 -211.71794289 746.84987892 -212.84666443 746.61228943 C-216.94873224 745.72925448 -220.8704281 744.61251379 -224.83422852 743.24291992 C-226.26463759 743.0073517 -227.70305139 742.81217298 -229.14672852 742.68041992 C-232.83422852 742.24291992 -232.83422852 742.24291992 -233.83422852 741.24291992 C-234.82422852 741.11916992 -235.81422852 740.99541992 -236.83422852 740.86791992 C-242.111149 740.17868949 -246.96313307 738.27058139 -251.95141602 736.48510742 C-257.34788149 734.60721651 -262.77716555 733.30274982 -268.35375977 732.06713867 C-273.1409014 730.93348336 -277.83687025 729.53251996 -282.54516602 728.11010742 C-285.96532694 727.20835478 -289.32673451 726.67802677 -292.83422852 726.24291992 C-292.83422852 725.58291992 -292.83422852 724.92291992 -292.83422852 724.24291992 C-293.82422852 724.11916992 -294.81422852 723.99541992 -295.83422852 723.86791992 C-301.32357154 723.07427997 -306.59746146 721.69259773 -311.84594727 719.92651367 C-312.63259766 719.66225586 -313.41924805 719.39799805 -314.22973633 719.12573242 C-317.02515859 718.17820272 -319.81838158 717.22435057 -322.61157227 716.27026367 C-324.66492933 715.57356552 -326.71831518 714.8769522 -328.77172852 714.18041992 C-329.79202148 713.82915039 -330.81231445 713.47788086 -331.86352539 713.1159668 C-337.41430408 711.24209192 -342.82920689 709.69680886 -348.61303711 708.73730469 C-351.80997699 708.02574135 -354.61231297 706.69497891 -357.53344727 705.24291992 C-360.55782729 703.92841859 -363.660185 703.13915851 -366.83422852 702.24291992 C-370.05774204 701.18173036 -373.25846123 700.05812608 -376.45922852 698.93041992 C-377.34151123 698.62136719 -378.22379395 698.31231445 -379.1328125 697.99389648 C-384.09174133 696.24629626 -389.00667376 694.42428609 -393.89672852 692.49291992 C-397.72095566 690.98862623 -401.4760975 689.75130752 -405.45922852 688.74291992 C-410.34992891 687.4899894 -414.71310263 685.59963745 -419.26782227 683.44213867 C-423.74810337 681.3486131 -428.29532812 679.67090915 -433.06469727 678.34448242 C-437.08826517 677.1686833 -440.97791201 675.78569599 -444.89672852 674.30541992 C-445.57799805 674.0534082 -446.25926758 673.80139648 -446.96118164 673.54174805 C-450.05533596 672.3795825 -452.99635312 671.16155326 -455.95532227 669.67651367 C-458.86935447 668.22542844 -461.73968668 667.2406359 -464.83422852 666.24291992 C-466.73738454 665.46902245 -468.63322302 664.67691136 -470.52172852 663.86791992 C-476.2267975 661.46165178 -481.99531991 659.30033063 -487.83422852 657.24291992 C-487.83422852 656.58291992 -487.83422852 655.92291992 -487.83422852 655.24291992 C-488.80360352 655.16041992 -489.77297852 655.07791992 -490.77172852 654.99291992 C-498.20569351 653.9181298 -504.87195375 649.73663353 -511.49829102 646.40307617 C-516.10614493 644.1145601 -520.62718128 642.27879912 -525.58422852 640.93041992 C-530.56980887 639.49839152 -534.76271403 637.21100092 -539.25219727 634.64916992 C-542.00917082 633.14764121 -544.72356411 632.10302549 -547.68188477 631.08666992 C-550.46519565 629.99557164 -553.05702089 628.62139216 -555.70922852 627.24291992 C-560.9560944 624.55940836 -566.12791715 622.68212235 -571.83422852 621.24291992 C-571.83422852 620.58291992 -571.83422852 619.92291992 -571.83422852 619.24291992 C-576.78422852 617.75791992 -576.78422852 617.75791992 -581.83422852 616.24291992 C-581.83422852 615.58291992 -581.83422852 614.92291992 -581.83422852 614.24291992 C-582.50969727 614.14366211 -583.18516602 614.0444043 -583.88110352 613.94213867 C-587.50505977 613.08408554 -590.73474361 611.64159528 -594.08422852 610.05541992 C-594.750271 609.7415332 -595.41631348 609.42764648 -596.10253906 609.10424805 C-601.35335694 606.57742355 -606.11065232 603.6563071 -610.83422852 600.24291992 C-611.74688477 599.62932617 -612.65954102 599.01573242 -613.59985352 598.38354492 C-614.98430664 597.44768555 -614.98430664 597.44768555 -616.39672852 596.49291992 C-617.24364258 595.92057617 -618.09055664 595.34823242 -618.96313477 594.75854492 C-619.5805957 594.25838867 -620.19805664 593.75823242 -620.83422852 593.24291992 C-620.83422852 592.58291992 -620.83422852 591.92291992 -620.83422852 591.24291992 C-621.47360352 590.97479492 -622.11297852 590.70666992 -622.77172852 590.43041992 C-624.83422852 589.24291992 -624.83422852 589.24291992 -625.83422852 586.24291992 C-626.49422852 586.24291992 -627.15422852 586.24291992 -627.83422852 586.24291992 C-627.83422852 585.25291992 -627.83422852 584.26291992 -627.83422852 583.24291992 C-628.49422852 583.24291992 -629.15422852 583.24291992 -629.83422852 583.24291992 C-630.85289081 581.5875937 -631.85233664 579.92031854 -632.83422852 578.24291992 C-633.49422852 577.91291992 -634.15422852 577.58291992 -634.83422852 577.24291992 C-635.83422852 574.90958659 -636.83422852 572.57625326 -637.83422852 570.24291992 C-638.49422852 569.91291992 -639.15422852 569.58291992 -639.83422852 569.24291992 C-641.71608854 566.21103433 -641.83422852 564.99774637 -641.83422852 561.24291992 C-642.82422852 560.91291992 -643.81422852 560.58291992 -644.83422852 560.24291992 C-645.49422852 556.94291992 -646.15422852 553.64291992 -646.83422852 550.24291992 C-647.49422852 550.24291992 -648.15422852 550.24291992 -648.83422852 550.24291992 C-648.83422852 546.94291992 -648.83422852 543.64291992 -648.83422852 540.24291992 C-649.49422852 540.24291992 -650.15422852 540.24291992 -650.83422852 540.24291992 C-650.83422852 524.73291992 -650.83422852 509.22291992 -650.83422852 493.24291992 C-651.49422852 493.24291992 -652.15422852 493.24291992 -652.83422852 493.24291992 C-652.83422852 491.26291992 -652.83422852 489.28291992 -652.83422852 487.24291992 C-652.17422852 487.24291992 -651.51422852 487.24291992 -650.83422852 487.24291992 C-650.83422852 486.25291992 -650.83422852 485.26291992 -650.83422852 484.24291992 C-651.49422852 484.24291992 -652.15422852 484.24291992 -652.83422852 484.24291992 C-652.83422852 481.27291992 -652.83422852 478.30291992 -652.83422852 475.24291992 C-652.17422852 475.24291992 -651.51422852 475.24291992 -650.83422852 475.24291992 C-650.83422852 473.92291992 -650.83422852 472.60291992 -650.83422852 471.24291992 C-651.49422852 471.24291992 -652.15422852 471.24291992 -652.83422852 471.24291992 C-652.83422852 429.99291992 -652.83422852 388.74291992 -652.83422852 346.24291992 C-652.17422852 346.24291992 -651.51422852 346.24291992 -650.83422852 346.24291992 C-650.83422852 334.36291992 -650.83422852 322.48291992 -650.83422852 310.24291992 C-651.49422852 310.24291992 -652.15422852 310.24291992 -652.83422852 310.24291992 C-652.83422852 308.59291992 -652.83422852 306.94291992 -652.83422852 305.24291992 C-652.17422852 305.24291992 -651.51422852 305.24291992 -650.83422852 305.24291992 C-650.83422852 302.93291992 -650.83422852 300.62291992 -650.83422852 298.24291992 C-651.49422852 298.24291992 -652.15422852 298.24291992 -652.83422852 298.24291992 C-652.83422852 296.26291992 -652.83422852 294.28291992 -652.83422852 292.24291992 C-652.17422852 292.24291992 -651.51422852 292.24291992 -650.83422852 292.24291992 C-650.83422852 285.97291992 -650.83422852 279.70291992 -650.83422852 273.24291992 C-651.49422852 273.24291992 -652.15422852 273.24291992 -652.83422852 273.24291992 C-652.83422852 271.26291992 -652.83422852 269.28291992 -652.83422852 267.24291992 C-652.17422852 267.24291992 -651.51422852 267.24291992 -650.83422852 267.24291992 C-650.83422852 265.26291992 -650.83422852 263.28291992 -650.83422852 261.24291992 C-651.49422852 261.24291992 -652.15422852 261.24291992 -652.83422852 261.24291992 C-652.83422852 259.26291992 -652.83422852 257.28291992 -652.83422852 255.24291992 C-652.17422852 255.24291992 -651.51422852 255.24291992 -650.83422852 255.24291992 C-650.88063477 253.96416992 -650.92704102 252.68541992 -650.97485352 251.36791992 C-651.01239879 249.65961013 -651.04879597 247.95127484 -651.08422852 246.24291992 C-651.11774414 245.40374023 -651.15125977 244.56456055 -651.18579102 243.69995117 C-651.26983257 238.27927061 -650.47044365 234.66554013 -647.79614258 229.94458008 C-645.60851177 226.07458344 -644.83422852 221.6529149 -644.83422852 217.24291992 C-643.84422852 217.24291992 -642.85422852 217.24291992 -641.83422852 217.24291992 C-641.17422852 214.27291992 -640.51422852 211.30291992 -639.83422852 208.24291992 C-638.84422852 208.24291992 -637.85422852 208.24291992 -636.83422852 208.24291992 C-636.17422852 205.93291992 -635.51422852 203.62291992 -634.83422852 201.24291992 C-634.17422852 201.24291992 -633.51422852 201.24291992 -632.83422852 201.24291992 C-631.62794844 198.91077844 -630.66875472 196.74649854 -629.83422852 194.24291992 C-629.17422852 194.24291992 -628.51422852 194.24291992 -627.83422852 194.24291992 C-627.83422852 193.58291992 -627.83422852 192.92291992 -627.83422852 192.24291992 C-627.17422852 192.24291992 -626.51422852 192.24291992 -625.83422852 192.24291992 C-625.56610352 191.60354492 -625.29797852 190.96416992 -625.02172852 190.30541992 C-623.83422852 188.24291992 -623.83422852 188.24291992 -620.83422852 187.24291992 C-620.83422852 186.58291992 -620.83422852 185.92291992 -620.83422852 185.24291992 C-615.47708566 180.24291992 -615.47708566 180.24291992 -611.83422852 180.24291992 C-611.83422852 179.58291992 -611.83422852 178.92291992 -611.83422852 178.24291992 C-605.31638841 173.0818547 -597.8491593 169.78555334 -590.20922852 166.66088867 C-586.36252928 165.04474073 -582.69389087 163.19202853 -579.01782227 161.22338867 C-576.63724889 160.1544729 -574.40273362 159.66272831 -571.83422852 159.24291992 C-571.83422852 158.58291992 -571.83422852 157.92291992 -571.83422852 157.24291992 C-570.65280273 156.80592773 -570.65280273 156.80592773 -569.44750977 156.36010742 C-560.30749671 152.92043387 -551.32026838 149.18798502 -542.70532227 144.56323242 C-539.83422852 143.24291992 -539.83422852 143.24291992 -535.83422852 143.24291992 C-535.83422852 142.58291992 -535.83422852 141.92291992 -535.83422852 141.24291992 C-535.03500977 140.93999023 -534.23579102 140.63706055 -533.41235352 140.32495117 C-526.83885524 137.81745477 -520.30900032 135.23476665 -513.82641602 132.50073242 C-511.75332767 131.62927753 -509.67477304 130.77075613 -507.59204102 129.92260742 C-506.01036133 129.27678711 -506.01036133 129.27678711 -504.39672852 128.61791992 C-503.44926758 128.2337793 -502.50180664 127.84963867 -501.52563477 127.45385742 C-498.80670904 126.29590389 -498.80670904 126.29590389 -496.31079102 124.71557617 C-493.79400427 123.21900109 -491.41126101 122.25687645 -488.64672852 121.30541992 C-485.06886703 120.04601268 -481.53217095 118.74203663 -478.02172852 117.30541992 C-474.01959392 115.6791557 -469.97585338 114.22733709 -465.89672852 112.80541992 C-461.65042667 111.30618741 -457.53558072 109.71793404 -453.45922852 107.80541992 C-442.97783744 102.89563467 -431.91956478 99.26294823 -421.02172852 95.39916992 C-417.33664107 94.06242251 -413.70227634 92.62449751 -410.07250977 91.14526367 C-407.29312527 90.02477882 -404.48590762 88.98950371 -401.67407227 87.95385742 C-399.99202953 87.30389611 -398.34746566 86.55900901 -396.70922852 85.80541992 C-392.12352044 83.7998255 -387.27768907 82.62117643 -382.46704102 81.27807617 C-375.72809952 79.35784015 -369.10897732 77.31957442 -362.76000977 74.34057617 C-357.13100065 71.80526154 -351.28716547 70.26668157 -345.33422852 68.68041992 C-338.08969627 66.72396241 -330.92974794 64.68598297 -323.83422852 62.24291992 C-322.46000063 61.79004937 -321.08501363 61.33947499 -319.70922852 60.89135742 C-319.06598633 60.67995117 -318.42274414 60.46854492 -317.76000977 60.25073242 C-316.4456322 59.81882742 -315.13049156 59.38923944 -313.81469727 58.96166992 C-310.56612754 58.06754583 -310.56612754 58.06754583 -307.83422852 56.24291992 C-306.42546025 55.89654921 -305.00668998 55.59038323 -303.58422852 55.30541992 C-300.97051833 54.75299537 -298.69234623 54.18549138 -296.20922852 53.18041992 C-293.13426563 51.96661878 -290.10226372 51.70159153 -286.83422852 51.24291992 C-284.82200804 50.61410102 -282.82146119 49.9467315 -280.83422852 49.24291992 C-275.25798157 47.53590555 -269.61685431 46.26905192 -263.92016602 45.02416992 C-261.08040699 44.30524359 -258.52326346 43.39140997 -255.83422852 42.24291992 C-252.37697506 40.93684639 -249.17878792 40.09836957 -245.52172852 39.68041992 C-242.03779186 39.652774 -242.03779186 39.652774 -240.83422852 38.24291992 C-238.75599301 37.75885886 -236.67592244 37.28182423 -234.58911133 36.83618164 C-231.64964429 36.20316986 -228.72279478 35.52620675 -225.79516602 34.84057617 C-215.2532125 32.38187412 -204.72621528 29.94374177 -194.09594727 27.89526367 C-189.59195709 26.99446564 -185.13181237 25.92473778 -180.66235352 24.86791992 C-178.29948517 24.34573907 -175.98171808 23.92978848 -173.58422852 23.61791992 C-170.92777757 23.5381634 -170.92777757 23.5381634 -169.83422852 22.24291992 C-167.41736791 21.95617375 -164.99996356 21.79495262 -162.57250977 21.62182617 C-159.77575377 21.32004258 -159.77575377 21.32004258 -156.98657227 20.29370117 C-153.39211794 19.09554973 -149.81446317 18.45185654 -146.08422852 17.86791992 C-145.31546387 17.74416992 -144.54669922 17.62041992 -143.75463867 17.49291992 C-141.11535282 17.07071697 -138.47479457 16.65703594 -135.83422852 16.24291992 C-134.84712891 16.08533203 -133.8600293 15.92774414 -132.84301758 15.76538086 C-119.72093605 13.67060308 -106.59572068 11.75194316 -93.39819336 10.1940918 C-92.46185059 10.08258789 -91.52550781 9.97108398 -90.56079102 9.85620117 C-89.74175293 9.76121338 -88.92271484 9.66622559 -88.07885742 9.56835938 C-85.94319592 9.25871865 -83.92506879 8.76709865 -81.83422852 8.24291992 C-78.27406637 7.940642 -74.71333226 7.73574811 -71.14672852 7.52416992 C-68.50969891 7.30027118 -66.3690126 6.87904506 -63.83422852 6.24291992 C-60.91743189 5.89720399 -58.00732566 5.58576374 -55.08422852 5.30541992 C-54.21894531 5.21969727 -53.35366211 5.13397461 -52.4621582 5.0456543 C-47.4646084 4.55990451 -42.46531329 4.12707637 -37.45922852 3.73901367 C-36.39800781 3.65578857 -35.33678711 3.57256348 -34.2434082 3.48681641 C-32.18203675 3.32767343 -30.12018835 3.17455986 -28.05786133 3.02832031 C-27.10234375 2.95476318 -26.14682617 2.88120605 -25.16235352 2.80541992 C-24.32607422 2.74483398 -23.48979492 2.68424805 -22.62817383 2.62182617 C-19.69386824 2.29511596 -19.69386824 2.29511596 -16.39924622 1.23442078 C-10.95553249 -0.1381428 -5.58494532 -0.02891941 0 0 Z " fill="#FC4F00" transform="translate(670.834228515625,15.757080078125)"/>
</svg>
