<?xml version="1.0" encoding="UTF-8"?>
<!DOCTYPE svg PUBLIC "-//W3C//DTD SVG 1.1//EN" "http://www.w3.org/Graphics/SVG/1.1/DTD/svg11.dtd">
<svg xmlns="http://www.w3.org/2000/svg" version="1.1" width="1000px" height="600px" style="shape-rendering:geometricPrecision; text-rendering:geometricPrecision; image-rendering:optimizeQuality; fill-rule:evenodd; clip-rule:evenodd" xmlns:xlink="http://www.w3.org/1999/xlink">
<g><path style="opacity:0.99" fill="#fb4f00" d="M 448.5,14.5 C 464.351,14.9173 480.518,14.9173 497,14.5C 564.556,15.5846 630.889,23.9179 696,39.5C 789.616,64.3964 878.783,99.0631 963.5,143.5C 972.857,149.357 980.357,157.024 986,166.5C 990.185,174.53 993.518,182.863 996,191.5C 996.833,264.169 996.667,336.836 995.5,409.5C 990.274,430.221 978.941,446.721 961.5,459C 885.71,497.251 807.377,528.584 726.5,553C 708.603,557.713 690.603,562.047 672.5,566C 626.056,570.363 579.723,575.196 533.5,580.5C 516.167,580.833 498.833,581.167 481.5,581.5C 449.775,581.281 418.109,580.281 386.5,578.5C 386.649,577.448 386.483,576.448 386,575.5C 383.599,576.602 381.099,576.769 378.5,576C 319.611,566.398 263.277,551.731 209.5,532C 163.264,516.597 118.431,498.097 75,476.5C 74.586,476.957 74.086,477.291 73.5,477.5C 61.5658,470.604 49.2325,464.437 36.5,459C 19.0064,447.821 8.17304,431.987 4,411.5C 3.63225,410.09 2.79892,409.09 1.5,408.5C 0.166667,337.167 0.166667,265.833 1.5,194.5C 5.12483,176.074 13.7915,160.574 27.5,148C 30.9361,146.056 33.7695,143.556 36,140.5C 36.414,140.957 36.914,141.291 37.5,141.5C 119.121,99.229 204.455,66.0623 293.5,42C 343.086,29.3674 393.42,20.8674 444.5,16.5C 446.333,16.4146 447.666,15.7479 448.5,14.5 Z"/></g>
</svg>
