<?xml version="1.0" encoding="UTF-8"?>
<svg version="1.1" xmlns="http://www.w3.org/2000/svg" width="900" height="404">
<path d="M0 0 C2.25429404 0.19864996 4.50932477 0.38689714 6.7645874 0.57421875 C93.13685515 7.82548522 178.98196071 25.84636308 272.08343506 56.18359375 C273.45312275 56.63410529 274.82291821 57.0842893 276.19281006 57.53417969 C292.72767236 62.96716901 309.22585205 68.51069097 325.66720581 74.2208252 C327.2519526 74.77029749 328.83759938 75.31718235 330.42422485 75.86120605 C353.90529632 83.92508833 353.90529632 83.92508833 363.08343506 91.74609375 C363.94968506 92.46925781 364.81593506 93.19242187 365.70843506 93.9375 C368.11218338 96.21078172 370.15273858 98.49760166 372.08343506 101.18359375 C372.08343506 101.84359375 372.08343506 102.50359375 372.08343506 103.18359375 C372.74343506 103.18359375 373.40343506 103.18359375 374.08343506 103.18359375 C374.34898193 103.96605469 374.61452881 104.74851562 374.88812256 105.5546875 C375.24132568 106.56660156 375.59452881 107.57851562 375.95843506 108.62109375 C376.30648193 109.63042969 376.65452881 110.63976562 377.01312256 111.6796875 C377.82398599 114.32331126 377.82398599 114.32331126 380.08343506 115.18359375 C380.15350563 134.52440278 380.20641366 153.86518607 380.23887157 173.2060957 C380.25434269 182.18634979 380.27543689 191.16652503 380.30975342 200.14672852 C380.33964828 207.97356653 380.35900828 215.80034744 380.36570054 223.62724096 C380.36961266 227.7718162 380.37881172 231.91622806 380.40062523 236.06075096 C380.42099179 239.96197491 380.42726855 243.86296821 380.4227581 247.76424026 C380.42358323 249.19571626 380.42954801 250.62719998 380.44105148 252.05862999 C380.45599636 254.01426482 380.45059662 255.97002348 380.44419861 257.92570496 C380.44696399 259.01987323 380.44972937 260.1140415 380.45257854 261.24136639 C380.03349601 264.5816288 378.97461111 266.43357337 377.08343506 269.18359375 C376.50917903 270.42823678 375.94591316 271.67803398 375.39593506 272.93359375 C368.44645187 286.91153153 354.84663814 295.00203025 340.61273193 299.87695312 C339.75743896 300.16376953 338.902146 300.45058594 338.02093506 300.74609375 C331.11389626 303.0585888 331.11389626 303.0585888 324.36468506 305.78515625 C321.14556459 307.15711474 318.02684194 308.10723588 314.64593506 308.99609375 C309.74105095 310.35249204 305.06567547 311.90922479 300.32562256 313.77734375 C288.29928596 318.39303662 275.94021022 322.04684711 263.64593506 325.87109375 C259.99390639 327.01146199 256.34227854 328.15310271 252.69084167 329.29536438 C250.43627818 330.00018559 248.18130793 330.70370748 245.92585754 331.40568542 C240.57606065 333.07365277 235.24239677 334.77374622 229.9370575 336.5785675 C227.35038218 337.42286374 224.73223597 338.06554021 222.08343506 338.68359375 C218.5519495 339.53755499 215.12965212 340.46263896 211.70843506 341.68359375 C206.56531373 343.48653296 201.26419697 344.47459619 195.92718506 345.53515625 C193.19737268 345.89225269 193.19737268 345.89225269 192.08343506 347.18359375 C191.09343506 347.30734375 190.10343506 347.43109375 189.08343506 347.55859375 C186.24681305 347.92460949 183.76941301 348.58187449 181.08343506 349.55859375 C175.76964094 351.42658281 170.32946929 352.37528894 164.80609131 353.42578125 C160.64531911 354.27278 156.61100871 355.38812418 152.53265381 356.55859375 C149.07104069 357.44194 145.63012159 357.78951747 142.08343506 358.18359375 C141.75343506 358.51359375 141.42343506 358.84359375 141.08343506 359.18359375 C138.04787343 359.82110365 135.01735021 360.40702408 131.96624756 360.9609375 C131.03932098 361.13234756 130.11239441 361.30375763 129.15737915 361.48036194 C126.175062 362.03095102 123.19177377 362.57606996 120.20843506 363.12109375 C118.23441114 363.48467012 116.26045196 363.8485982 114.28656006 364.21289062 C104.90011119 365.94305759 104.90011119 365.94305759 100.67414856 366.70478821 C98.93969567 367.02534301 97.20816049 367.36208564 95.47990417 367.71452332 C88.01647095 369.19542786 80.63108196 369.71790614 73.04046631 370.1171875 C70.18426347 370.27954678 67.32842649 370.44794378 64.47259521 370.61669922 C63.72142646 370.66060948 62.9702577 370.70451975 62.19632626 370.74976063 C52.94806416 371.29739127 43.70959989 371.97818386 34.47015381 372.65625 C32.68224442 372.78678256 30.8943314 372.91726533 29.10641479 373.04769897 C22.73694352 373.51303354 16.36769514 373.98138855 9.99847412 374.45013428 C4.5228362 374.85302362 -0.95291469 375.25430992 -6.42882347 375.65350151 C-8.9293545 375.83639966 -11.42971258 376.0215347 -13.93006897 376.20680237 C-29.69263823 377.3643398 -45.42980627 378.33499572 -61.24078369 378.3515625 C-62.52667389 378.35588791 -63.81256409 378.36021332 -65.13742065 378.3646698 C-69.29298545 378.37642295 -73.44848918 378.37534915 -77.60406494 378.37109375 C-78.67834055 378.37025158 -78.67834055 378.37025158 -79.7743187 378.3693924 C-123.96280169 378.32619642 -167.7183503 377.6378722 -211.43328857 370.58392334 C-213.85098387 370.19416609 -216.2697881 369.81218041 -218.68902588 369.43212891 C-284.69808457 359.00207154 -349.45366383 341.95903743 -412.91656494 321.18359375 C-413.56155945 320.97303345 -414.20655396 320.76247314 -414.87109375 320.54553223 C-432.04172186 314.9396934 -449.16670503 309.19971528 -466.18496704 303.14535522 C-467.73370058 302.59544361 -469.28366016 302.04897053 -470.83493042 301.5062561 C-482.47158932 297.42598497 -492.89050362 292.81721762 -501.91656494 284.18359375 C-501.91656494 283.52359375 -501.91656494 282.86359375 -501.91656494 282.18359375 C-502.90656494 281.85359375 -503.89656494 281.52359375 -504.91656494 281.18359375 C-513.1986162 271.15795275 -515.66363169 261.52305628 -515.59527588 248.6628418 C-515.60534925 247.23566138 -515.61750476 245.8084944 -515.63156128 244.38134766 C-515.66266907 240.53596173 -515.66232616 236.69120568 -515.6540556 232.84572577 C-515.64986935 229.62049033 -515.66090719 226.39537518 -515.67169976 223.17016059 C-515.69676772 215.55255001 -515.69576904 207.93524984 -515.67828369 200.31762695 C-515.66077819 192.49370864 -515.68713379 184.67081079 -515.73525023 176.84704369 C-515.77519259 170.09839412 -515.78762907 163.35006458 -515.77853608 156.6013034 C-515.77338514 152.58440522 -515.77815104 148.56819112 -515.80950165 144.55139732 C-515.83781838 140.76937053 -515.83138157 136.98887175 -515.79978561 133.20688629 C-515.79097724 131.18192378 -515.81622764 129.15689938 -515.8430481 127.13209534 C-515.68555251 115.5387068 -511.75785966 105.88255944 -503.91656494 97.18359375 C-503.25656494 97.18359375 -502.59656494 97.18359375 -501.91656494 97.18359375 C-501.65617432 96.58289063 -501.39578369 95.9821875 -501.12750244 95.36328125 C-494.98763178 84.31151406 -476.37149877 79.61973877 -465.35406494 75.68359375 C-464.66136505 75.4336969 -463.96866516 75.18380005 -463.25497437 74.92633057 C-444.45277443 68.15109203 -425.42567772 62.04105304 -406.38647461 55.97131348 C-404.07320353 55.23354995 -401.76065107 54.49358083 -399.44830322 53.75292969 C-363.96472191 42.40214285 -328.19105385 32.68300801 -291.91656494 24.18359375 C-291.15346008 24.00463562 -290.39035522 23.82567749 -289.60412598 23.64129639 C-267.61350244 18.50071921 -245.46180917 14.33961278 -223.19995117 10.5703125 C-221.73087628 10.32150711 -220.26198789 10.07159666 -218.79333496 9.8203125 C-192.31985278 5.29213153 -165.65932652 2.55619524 -138.91656494 0.18359375 C-138.12818237 0.1124939 -137.3397998 0.04139404 -136.52752686 -0.03186035 C-91.76544319 -4.02771824 -44.75600405 -3.98015414 0 0 Z " fill="#FC4F00" transform="translate(516.9165649414063,12.81640625)"/>
</svg>
