<?xml version="1.0" standalone="no"?>
<!DOCTYPE svg PUBLIC "-//W3C//DTD SVG 20010904//EN"
 "http://www.w3.org/TR/2001/REC-SVG-20010904/DTD/svg10.dtd">
<svg version="1.0" xmlns="http://www.w3.org/2000/svg"
 width="512.000000pt" height="512.000000pt" viewBox="0 0 512.000000 512.000000"
 preserveAspectRatio="xMidYMid meet">

<g transform="translate(0.000000,512.000000) scale(0.100000,-0.100000)"
fill="#000000" stroke="none">
<path d="M201 4009 c-56 -11 -120 -49 -149 -88 -54 -73 -52 -32 -52 -1150 0
-683 4 -1049 10 -1073 16 -56 69 -119 124 -147 45 -23 64 -26 200 -31 l150 -5
11 -45 c42 -162 187 -305 355 -350 60 -16 188 -14 247 3 171 51 320 204 348
359 l7 36 113 4 c129 3 155 16 155 73 0 62 -15 69 -146 75 l-118 5 -11 46
c-32 125 -136 253 -254 312 -142 71 -291 73 -433 4 -131 -63 -218 -163 -259
-299 l-21 -68 -117 0 c-65 0 -132 5 -150 11 -64 23 -61 -35 -61 1093 l0 1026
29 32 29 33 2250 0 2250 0 25 -23 c21 -20 47 -86 47 -121 0 -8 -158 -11 -507
-11 -486 0 -509 -1 -540 -20 -70 -42 -68 -29 -71 -488 -3 -449 1 -503 46 -567
77 -112 334 -215 682 -275 98 -17 252 -34 518 -56 l62 -6 0 -261 c0 -235 -2
-266 -18 -296 -31 -57 -70 -71 -198 -71 l-112 0 -21 68 c-41 136 -128 236
-259 299 -142 69 -291 67 -433 -4 -118 -59 -222 -187 -254 -312 l-11 -46 -852
-5 c-784 -5 -853 -6 -868 -22 -27 -27 -22 -77 10 -105 l27 -23 843 0 844 0 7
-37 c13 -72 66 -166 129 -229 98 -98 211 -146 346 -146 142 0 242 43 346 146
71 72 107 132 129 216 l11 45 135 6 c191 8 260 42 321 159 l23 45 3 523 3 524
-106 536 c-84 424 -112 547 -132 584 -25 47 -70 84 -128 110 -24 11 -451 13
-2270 14 -1232 1 -2260 -2 -2284 -7z m4690 -849 c78 -393 79 -396 79 -553 l0
-158 -62 6 c-35 3 -119 10 -188 15 -347 30 -625 94 -802 187 -109 57 -103 25
-106 496 l-3 407 502 -2 501 -3 79 -395z m-3834 -1234 c67 -18 110 -45 163
-102 64 -70 85 -123 85 -224 0 -72 -4 -94 -28 -145 -76 -163 -262 -237 -434
-174 -79 29 -162 113 -193 195 -31 82 -25 196 14 272 76 149 233 220 393 178z
m3237 -19 c67 -31 127 -90 162 -159 39 -76 45 -190 14 -272 -31 -82 -114 -166
-193 -195 -172 -63 -358 11 -434 174 -37 79 -40 203 -6 277 25 54 90 128 140
159 87 54 220 60 317 16z"/>
<path d="M392 3690 c-61 -38 -62 -44 -62 -520 0 -467 1 -476 55 -518 l28 -22
668 0 669 0 38 34 37 34 0 465 c0 457 0 466 -21 494 -40 54 -20 53 -724 53
-639 0 -656 -1 -688 -20z m608 -520 l0 -390 -260 0 -260 0 0 390 0 390 260 0
260 0 0 -390z m680 0 l0 -390 -260 0 -260 0 0 390 0 390 260 0 260 0 0 -390z"/>
<path d="M2043 3694 c-63 -31 -63 -35 -63 -524 0 -484 0 -488 59 -523 27 -16
85 -17 688 -17 708 0 687 -1 727 53 21 28 21 37 21 485 0 432 -1 459 -19 485
-40 59 -16 57 -728 57 -572 0 -657 -2 -685 -16z m609 -223 c4 -104 19 -131 75
-131 58 0 73 26 73 130 l0 90 265 0 265 0 0 -390 0 -390 -265 0 -265 0 0 154
c0 135 -2 157 -18 177 -25 30 -75 30 -105 0 -20 -20 -22 -33 -25 -176 l-3
-155 -260 0 -259 0 0 390 0 390 259 0 259 0 4 -89z"/>
<path d="M3687 2312 c-24 -27 -22 -85 4 -108 18 -16 37 -19 114 -19 110 0 135
14 135 75 0 60 -20 70 -137 70 -84 0 -103 -3 -116 -18z"/>
</g>
</svg>
