<?xml version="1.0" standalone="no"?>
<!DOCTYPE svg PUBLIC "-//W3C//DTD SVG 20010904//EN"
 "http://www.w3.org/TR/2001/REC-SVG-20010904/DTD/svg10.dtd">
<svg version="1.0" xmlns="http://www.w3.org/2000/svg"
 width="512.000000pt" height="512.000000pt" viewBox="0 0 512.000000 512.000000"
 preserveAspectRatio="xMidYMid meet">

<g transform="translate(0.000000,512.000000) scale(0.100000,-0.100000)"
fill="#000000" stroke="none">
<path d="M867 3859 c-43 -25 -40 -47 33 -330 39 -148 68 -273 66 -278 -3 -5
-26 -12 -51 -15 -92 -14 -238 -54 -253 -70 -15 -15 -18 -69 -22 -512 l-5 -496
-55 -20 c-215 -79 -417 -161 -428 -175 -9 -13 -12 -98 -12 -344 l0 -328 27
-21 c26 -20 34 -21 376 -18 332 3 349 4 363 22 22 31 18 82 -8 100 -19 14 -67
16 -320 16 l-298 0 0 244 0 243 218 81 c1330 495 2776 873 4153 1086 91 14
171 26 179 26 32 0 -17 -312 -76 -482 -76 -217 -142 -316 -374 -553 -248 -254
-382 -427 -455 -587 l-26 -58 -603 0 c-668 0 -646 2 -646 -63 1 -80 -22 -77
688 -77 615 0 630 0 655 20 14 11 29 35 32 53 15 65 96 205 184 317 72 92 169
199 317 350 209 215 287 336 364 569 61 182 90 355 90 528 0 82 -3 96 -21 114
-19 19 -29 21 -83 15 -103 -11 -508 -75 -756 -121 l-235 -43 -352 204 c-194
112 -368 211 -387 220 -32 16 -50 16 -258 0 -123 -10 -285 -23 -360 -30 l-138
-12 -9 31 c-106 341 -121 382 -146 393 -18 8 -109 12 -286 12 l-260 0 -24 -25
c-14 -13 -25 -32 -25 -42 1 -10 27 -110 59 -223 39 -139 55 -207 47 -211 -6
-4 -40 -10 -76 -13 l-65 -7 -73 243 c-51 172 -79 248 -93 261 -19 15 -48 17
-288 17 -167 0 -273 -5 -284 -11z m540 -329 l60 -200 -31 -5 c-17 -3 -92 -14
-166 -25 -74 -11 -141 -22 -147 -25 -8 -2 -16 11 -22 33 -6 20 -32 124 -60
230 l-49 192 177 0 177 0 61 -200z m795 45 c26 -82 46 -150 45 -151 -1 -2 -80
-11 -175 -21 l-172 -19 -20 66 c-10 36 -31 108 -46 160 -15 52 -29 101 -32
108 -3 10 33 12 174 10 l178 -3 48 -150z m954 -261 c35 -20 64 -39 64 -42 0
-4 -116 -27 -258 -51 -861 -145 -1630 -316 -2134 -475 l-48 -15 0 168 0 168
127 26 c447 93 970 158 1988 246 183 15 190 15 261 -25z m391 -226 c99 -57
122 -74 107 -80 -11 -4 -107 -26 -214 -48 -597 -127 -1338 -323 -1991 -529
-218 -69 -596 -194 -651 -216 -17 -7 -18 6 -18 182 l0 190 168 51 c508 156
1194 304 2212 477 140 23 257 43 259 44 1 1 59 -31 128 -71z"/>
<path d="M3543 2469 c-44 -16 -56 -76 -22 -110 46 -46 133 5 112 67 -11 33
-57 56 -90 43z"/>
<path d="M3110 2353 c-50 -64 29 -143 93 -93 18 15 27 31 27 51 0 65 -80 93
-120 42z"/>
<path d="M2716 2269 c-65 -52 1 -148 75 -108 61 32 30 127 -42 129 -4 0 -18
-9 -33 -21z"/>
<path d="M1291 1364 c-27 -35 -26 -59 4 -89 23 -24 30 -25 145 -25 115 0 122
1 145 25 31 30 32 65 2 93 -21 20 -34 22 -149 22 -125 0 -127 0 -147 -26z"/>
<path d="M1982 1374 c-15 -10 -22 -25 -22 -47 0 -65 28 -77 175 -77 110 0 117
1 140 25 31 30 32 65 2 93 -21 20 -34 22 -148 22 -97 0 -130 -3 -147 -16z"/>
</g>
</svg>
