<?xml version="1.0" standalone="no"?>
<!DOCTYPE svg PUBLIC "-//W3C//DTD SVG 1.1//EN" "http://www.w3.org/Graphics/SVG/1.1/DTD/svg11.dtd" >
<svg xmlns="http://www.w3.org/2000/svg" xmlns:xlink="http://www.w3.org/1999/xlink" version="1.1">
<metadata>
Created by FontForge 20161003 at Sun Oct 29 08:19:12 2017
 By www-data
</metadata>
<defs>
<font id="booking-iconset" horiz-adv-x="1024" >
  <font-face 
    font-family="booking-iconset"
    font-weight="400"
    font-stretch="normal"
    units-per-em="1024"
    panose-1="0 0 0 0 0 0 0 0 0 0"
    ascent="960"
    descent="-64"
    bbox="-23 -132 3840 976"
    underline-thickness="0"
    underline-position="0"
    unicode-range="U+0001-FFFD"
  />
<missing-glyph 
 />
    <glyph glyph-name="zero" unicode="timesten" horiz-adv-x="1304" 
d="M1058 556q-5 12 -12 22t-15 17t-18.5 11t-23.5 4q-12 0 -22.5 -3.5t-19.5 -11.5q-8 -7 -14.5 -17t-11.5 -22q-5 -13 -8.5 -27t-5.5 -31q-2 -16 -3 -33.5t-1 -35.5q0 -19 1 -36t3 -34q2 -16 5.5 -30.5t8.5 -26.5q5 -13 11.5 -22.5t14.5 -16.5q9 -8 19.5 -11.5t22.5 -3.5
q13 0 23.5 3.5t18.5 11.5q8 7 15 16.5t12 22.5q4 12 7.5 26.5t5.5 30.5q2 17 3 34t1 36q0 18 -1 35.5t-3 33.5q-2 17 -5.5 31t-7.5 27zM1239 887q-15 33 -49.5 54.5t-70.5 17.5h-942q-36 4 -70.5 -17.5t-49.5 -54.5q-13 -28 -23.5 -73.5t-17.5 -103t-10.5 -123.5t-3.5 -136
v-1v-2v-2v-2q0 -69 3.5 -135t10.5 -123.5t17.5 -103t23.5 -73.5q15 -33 49.5 -54.5t70.5 -17.5l344 -1l598 1q36 -4 70.5 17.5t49.5 54.5q13 28 23.5 73.5t17.5 103t10.5 123.5t3.5 135v2v2v2v1q0 70 -3.5 136t-10.5 123.5t-17.5 103t-23.5 73.5zM393 194l-88 128l-86 -128
h-90l131 183l-120 164h93l72 -107l76 107h89l-118 -160l133 -187h-92v0zM712 194h-84v332h-115v60q12 0 23.5 1t23.5 3q11 2 21.5 5.5t19.5 8.5q9 4 17 10t15 14q6 7 10.5 16t6.5 20h62v-470v0zM1146 346q-4 -22 -10 -41.5t-15 -37.5q-8 -18 -20.5 -33t-28.5 -27
q-16 -11 -36.5 -17t-46.5 -6q-25 0 -45.5 6t-36.5 17q-16 12 -28.5 27t-21.5 33t-15 37.5t-9 41.5q-3 21 -4.5 42t-1.5 41t1.5 41t4.5 42q3 22 9 41.5t15 37.5t21.5 33t28.5 26q16 12 36.5 18t45.5 6q26 0 46.5 -6t36.5 -18q16 -11 28.5 -26t20.5 -33q9 -18 15 -37.5
t10 -41.5q3 -21 4.5 -42t1.5 -41t-1.5 -41t-4.5 -42v0z" />
    <glyph glyph-name="one" unicode="occupancy" 
d="M689 727q0 -49 -18 -91t-50 -74t-74.5 -50t-90.5 -18t-90.5 18t-74 49.5t-50 74t-18.5 91.5q0 48 18.5 90.5t50 74t74 50t90.5 18.5t90.5 -18.5t74.5 -50t50 -74t18 -90.5zM844 345q-24 11 -64.5 20.5t-91.5 15.5t-109.5 9t-119.5 3h-1.5h-1.5h-1.5h-1.5q-61 0 -119.5 -3
t-109.5 -9.5t-91.5 -15.5t-64.5 -20q-29 -13 -48 -43.5t-16 -62.5l16 -303h872l16 303q3 32 -16 62.5t-48 43.5v0z" />
    <glyph glyph-name="three" unicode="timesthree" horiz-adv-x="1304" 
d="M1239 887q-15 33 -49.5 54.5t-70.5 17.5h-942q-36 4 -70.5 -17.5t-49.5 -54.5q-13 -28 -23 -73.5t-17.5 -103t-11 -123.5t-3.5 -135v-2v-2v-2v-2q0 -69 3.5 -135t11 -123.5t17.5 -103t23 -73.5q15 -33 49.5 -54.5t70.5 -17.5l344 -1l598 1q36 -4 70.5 17.5t49.5 54.5
q13 28 23 73.5t17.5 103t11 123.5t3.5 135v2v2v2v1q0 70 -3.5 136t-11 123.5t-17.5 103t-23 73.5v0zM546 195l-89 129l-86 -129h-92l133 184l-122 167h94l73 -108l77 108h90l-120 -163l135 -188h-93v0zM985 270q-7 -14 -16 -25t-21 -21q-12 -9 -25 -16t-29 -13
q-15 -5 -31 -7.5t-33 -2.5q-21 0 -39 3t-34 9q-15 6 -28 14.5t-23 19.5q-11 11 -19 24t-13 28t-8 32t-4 36h78q-1 -22 4.5 -40t16.5 -32q12 -15 29 -22t40 -7q19 0 35.5 5.5t29.5 16.5t19.5 26.5t6.5 36.5q0 13 -3 24.5t-8 19.5q-6 8 -13 14t-16 11q-8 4 -18 6.5t-21 3.5
t-22.5 1.5t-23.5 -0.5v58q10 0 19.5 0.5t18.5 2.5q10 2 18.5 4.5t15.5 7.5q8 4 14 10t11 13q4 8 6.5 17t2.5 20q0 15 -5.5 27t-15.5 22q-10 9 -23.5 13.5t-29.5 4.5q-10 0 -19 -2t-17 -6q-7 -4 -13.5 -9.5t-10.5 -12.5q-5 -7 -9 -15t-6 -16q-3 -9 -4 -18t0 -18h-78
q1 17 4 33t9 31t14 27.5t18 23.5t22 19.5t26 14.5q15 6 31 9t34 3q14 0 27.5 -2t27.5 -6q13 -4 25 -10t23 -13q11 -8 19.5 -18t14.5 -22q7 -12 10 -26t3 -29q0 -18 -4 -34t-12 -29q-8 -14 -21 -23.5t-30 -15.5v-1q20 -5 36 -15t28 -26q11 -16 16.5 -35.5t5.5 -42.5
q0 -17 -3.5 -32.5t-9.5 -28.5z" />
    <glyph glyph-name="four" unicode="timesfour" horiz-adv-x="1304" 
d="M698 368h143v209h-1zM1236 887q-15 33 -49 54.5t-70 17.5h-938q-36 4 -70 -17.5t-49 -54.5q-13 -28 -23.5 -73.5t-17.5 -103t-10.5 -123.5t-3.5 -136v-1v-2v-2v-2q0 -69 3.5 -135t10.5 -123.5t17.5 -103t23.5 -73.5q15 -33 49 -54.5t70 -17.5l342 -1l596 1q36 -4 70 17.5
t49 54.5q13 28 23.5 73.5t17.5 103t10.5 123.5t3.5 135v2v2v2v1q0 70 -3.5 136t-10.5 123.5t-17.5 103t-23.5 73.5v0zM546 195l-88 129l-86 -129h-91l132 184l-121 167h93l73 -108l77 108h89l-119 -163l134 -188h-93v0zM975 307h-61v-112h-73v112h-203v77l203 286h73v-302
h61v-61z" />
    <glyph glyph-name="five" unicode="timesfive" horiz-adv-x="1304" 
d="M1239 887q-15 33 -49.5 54.5t-70.5 17.5h-942q-36 4 -70.5 -17.5t-49.5 -54.5q-13 -28 -23.5 -73.5t-17.5 -103t-10.5 -123.5t-3.5 -136v-1v-2v-2v-2q0 -69 3.5 -135t10.5 -123.5t17.5 -103t23.5 -73.5q15 -33 49.5 -54.5t70.5 -17.5l344 -1l598 1q36 -4 70.5 17.5
t49.5 54.5q13 28 23.5 73.5t17.5 103t10.5 123.5t3.5 135v2v2v2v1q0 69 -3.5 135.5t-10.5 124t-17.5 103t-23.5 73.5v0zM546 195l-89 129l-87 -129h-91l133 184l-122 166h94l73 -107l77 107h90l-120 -162l135 -188h-93v0zM974 297q-4 -15 -11.5 -29t-17.5 -26
q-10 -13 -22.5 -23t-28.5 -18t-34.5 -12t-40.5 -4q-17 0 -33 2.5t-31 6.5q-15 5 -28 12t-24 16t-20 20.5t-16 24.5q-6 13 -10 29t-5 34h78q2 -20 8.5 -34.5t18.5 -25.5q11 -10 26.5 -15t34.5 -5q12 0 22.5 2t18.5 6q9 4 15.5 9.5t12.5 12.5q5 7 8.5 15.5t6.5 17.5q2 10 3 20
t1 21q0 10 -1.5 19.5t-3.5 18.5q-3 9 -7 17t-10 14q-5 7 -12 12.5t-16 9.5t-19 6t-21 2q-13 0 -24.5 -2t-21.5 -7q-11 -5 -18.5 -13.5t-12.5 -20.5h-78l51 260h246v-70h-188l-24 -120l1 -2q8 9 18 15.5t22 11.5t24 7t24 2q17 0 33 -3t30 -9t25.5 -14t21.5 -19
q9 -11 16.5 -23.5t12.5 -26.5q5 -15 7 -31t2 -33q1 -14 -1.5 -28.5t-7.5 -29.5v0z" />
    <glyph glyph-name="six" unicode="timessix" horiz-adv-x="1304" 
d="M896 416q-6 7 -12.5 12.5t-13.5 9.5q-8 4 -17.5 6t-19.5 2q-11 0 -20 -2t-17 -6t-15 -9.5t-12 -11.5q-5 -7 -9.5 -14.5t-6.5 -16.5q-3 -9 -4.5 -18t-1.5 -19t1.5 -19.5t4.5 -18.5q2 -8 6.5 -16t9.5 -15t12 -12.5t15 -9.5t17 -6t20 -2q10 0 19.5 2t17.5 6q7 4 13.5 9.5
t12.5 12.5q5 7 9 15t6 17q3 9 4 18t1 19q0 9 -1 18.5t-4 17.5q-2 9 -6 17t-9 14zM1239 887q-15 33 -49.5 54.5t-70.5 17.5h-942q-36 4 -70.5 -17.5t-49.5 -54.5q-13 -28 -23.5 -73.5t-17.5 -103t-10.5 -123.5t-3.5 -136v-1v-2v-2v-2q0 -69 3.5 -135t10.5 -123.5t17.5 -103
t23.5 -73.5q15 -33 49.5 -54.5t70.5 -17.5l344 -1l598 1q36 -4 70.5 17.5t49.5 54.5q13 28 23.5 73.5t17.5 103t10.5 123.5t3.5 135v2v2v2v1q0 69 -3.5 135.5t-10.5 124t-17.5 103t-23.5 73.5v0zM546 195l-89 129l-87 -129h-91l133 184l-122 166h94l73 -107l77 107h90
l-120 -162l135 -188h-93v0zM983 283q-6 -15 -14 -27.5t-19 -23.5q-10 -11 -22.5 -20t-27.5 -15q-14 -6 -30.5 -9t-33.5 -3q-27 0 -48.5 5t-37.5 14q-17 10 -30.5 23.5t-23.5 29.5q-9 17 -16 37t-10 42q-4 23 -6 47t-2 50q0 22 2.5 43.5t6.5 43.5q5 21 12.5 41t18.5 38
q10 17 24 31.5t31 26.5q17 11 38 16.5t47 5.5q14 0 27.5 -2.5t25.5 -6.5q13 -5 24 -11.5t21 -15.5q10 -8 17.5 -18.5t14.5 -22.5q6 -11 9 -24.5t4 -27.5h-77q-2 14 -7 26t-14 21t-21 13.5t-28 4.5q-10 0 -19.5 -2t-16.5 -6q-8 -4 -14.5 -9t-11.5 -12q-5 -6 -9.5 -13.5
t-7.5 -15.5q-3 -9 -6 -17.5t-5 -17.5t-3.5 -18.5t-1.5 -18.5q-1 -9 -2 -17t-1 -16l1 -2q8 15 18.5 25.5t24.5 17.5t29 10.5t31 3.5q17 0 33 -3t30 -9q14 -7 25.5 -15t21.5 -19t17.5 -23.5t12.5 -27.5q5 -14 7.5 -30t2.5 -33t-3 -33t-8 -31v0z" />
    <glyph glyph-name="seven" unicode="timesseven" horiz-adv-x="1304" 
d="M1239 887q-15 33 -49.5 54.5t-70.5 17.5h-942q-36 4 -70.5 -17.5t-49.5 -54.5q-13 -28 -23.5 -73.5t-17.5 -103t-10.5 -123.5t-3.5 -136v-1v-2v-2v-2q0 -69 3.5 -135t10.5 -123.5t17.5 -103t23.5 -73.5q15 -33 49.5 -54.5t70.5 -17.5l343 -1l599 1q36 -4 70.5 17.5
t49.5 54.5q13 28 23.5 73.5t17.5 103t10.5 123.5t3.5 135v2v2v2v1q0 69 -3.5 135.5t-10.5 124t-17.5 103t-23.5 73.5v0zM569 195l-89 129l-86 -129h-91l132 184l-121 166h93l74 -107l77 107h89l-119 -162l134 -188h-93v0zM993 605q-18 -21 -35 -42.5t-33 -44.5
q-15 -23 -28.5 -46.5t-24.5 -49.5q-11 -25 -20.5 -51.5t-16.5 -55.5q-7 -28 -12 -58t-7 -62h-85q2 28 7 56t12 55q8 27 18 54t22 53q12 25 26 50t30 49q16 23 33 45.5t36 42.5h-247v70h326v-65h-1v0v0v0z" />
    <glyph glyph-name="eight" unicode="timeseight" horiz-adv-x="1304" 
d="M837 476q16 0 29.5 4.5t24.5 13.5q10 9 15.5 22t5.5 30t-5.5 30.5t-16.5 22.5q-11 10 -24 14.5t-29 4.5t-29 -4.5t-24 -14.5q-11 -9 -16.5 -22.5t-5.5 -30.5t5.5 -30t15.5 -22q11 -9 24.5 -13.5t29.5 -4.5zM837 418q-19 0 -35.5 -5.5t-29.5 -16.5q-12 -11 -18.5 -26.5
t-6.5 -35.5q0 -21 6 -37t19 -28q13 -11 29.5 -17t35.5 -6t35.5 6t29.5 17q13 12 19 28t6 37q0 20 -6 35.5t-19 26.5t-29.5 16.5t-35.5 5.5v0zM1239 887q-15 33 -49.5 54.5t-70.5 17.5h-942q-36 4 -70.5 -17.5t-49.5 -54.5q-13 -28 -23.5 -73.5t-17.5 -103t-10.5 -123.5
t-3.5 -135v-2v-2v-2v-2q0 -69 3.5 -135t10.5 -123.5t17.5 -103t23.5 -73.5q15 -33 49.5 -54.5t70.5 -17.5l344 -1l598 1q36 -4 70.5 17.5t49.5 54.5q13 28 23.5 73.5t17.5 103t10.5 123.5t3.5 135v2v2v2v1q0 70 -3.5 136t-10.5 123.5t-17.5 103t-23.5 73.5v0zM558 195
l-89 129l-87 -129h-91l133 184l-122 167h94l73 -108l77 108h90l-120 -163l135 -188h-93zM992 272q-6 -14 -14.5 -25.5t-20.5 -21.5q-11 -10 -24.5 -17.5t-28.5 -12.5q-16 -5 -32.5 -7.5t-34.5 -2.5t-34.5 2.5t-32.5 7.5q-15 5 -28.5 12.5t-24.5 17.5q-12 10 -20.5 21.5
t-14.5 25.5q-7 14 -10 29.5t-3 32.5q0 23 6 42t18 34q11 15 27 25t36 15v2q-16 6 -28.5 15.5t-21.5 22.5q-8 12 -12.5 27t-4.5 33q0 30 9.5 54t28.5 41t46.5 25.5t63.5 8.5t63.5 -8.5t46.5 -25.5t28.5 -41t9.5 -54q0 -18 -4 -33t-13 -27q-9 -13 -21.5 -22.5t-28.5 -15.5v-2
q20 -5 36 -15t27 -25q12 -15 18 -34t6 -42q0 -17 -3 -32.5t-10 -29.5z" />
    <glyph glyph-name="nine" unicode="timesnine" horiz-adv-x="1304" 
d="M892 585q-5 7 -12 12t-15 10q-8 4 -17.5 6t-20.5 2t-20 -2t-17 -6t-14 -9.5t-12 -11.5q-5 -7 -8.5 -15t-6.5 -17q-2 -8 -3.5 -17.5t-1.5 -18.5q0 -10 1.5 -19.5t3.5 -18.5q3 -9 6.5 -17t8.5 -14q6 -7 12 -12.5t14 -10.5q8 -4 17 -6t20 -2t20.5 2t17.5 6t15 9.5t12 12.5
t9 15t7 17t4 18.5t1 19.5q0 9 -1 18.5t-4 17.5q-3 9 -7 17t-9 14v0zM1239 887q-15 33 -49.5 54.5t-70.5 17.5h-942q-36 4 -70.5 -17.5t-49.5 -54.5q-13 -28 -23.5 -73.5t-17.5 -103t-10.5 -123.5t-3.5 -136v-1v-2v-2v-2q0 -69 3.5 -135t10.5 -123.5t17.5 -103t23.5 -73.5
q15 -33 49.5 -54.5t70.5 -17.5l344 -1l598 1q36 -4 70.5 17.5t49.5 54.5q13 28 23.5 73.5t17.5 103t10.5 123.5t3.5 135v2v2v2v1q0 69 -3.5 135.5t-10.5 124t-17.5 103t-23.5 73.5zM544 195l-89 129l-87 -129h-91l133 184l-122 166h94l73 -107l77 107h90l-120 -162l135 -188
h-93v0zM989 345q-4 -22 -12 -42t-18 -37q-11 -18 -24.5 -32.5t-31.5 -25.5q-17 -12 -38 -17.5t-46 -5.5q-14 0 -27.5 2.5t-26.5 7.5q-12 4 -23.5 11t-20.5 15q-10 9 -18 19t-14 22t-9.5 25t-4.5 28h78q1 -15 6.5 -26.5t14.5 -20.5t21 -13.5t27 -4.5q16 0 28.5 4t21.5 12
q10 9 17 19t12 23q5 12 8.5 25t5.5 28q2 14 3.5 27t2.5 24l-1 2q-8 -14 -19 -24.5t-24 -18.5q-14 -7 -29 -10.5t-31 -3.5q-17 0 -32.5 3t-29.5 8q-14 6 -25.5 14t-21.5 19q-10 10 -17.5 22.5t-13.5 27.5q-5 15 -8 31.5t-3 34.5q0 17 3 33t8 31q6 15 14 28t18 24
q11 11 24 19.5t28 14.5t32.5 9t36.5 3q26 0 46.5 -5t36.5 -14q17 -10 29.5 -23t22.5 -30q9 -17 15.5 -37t10.5 -42q4 -23 5.5 -47t1.5 -50q0 -22 -2 -43.5t-7 -42.5v0z" />
    <glyph glyph-name="uniA000" unicode="acuser" horiz-adv-x="986" 
d="M491 960q-71 0 -133 -27t-108.5 -73.5t-73.5 -108.5t-27 -133t27 -133t73.5 -108.5t108.5 -73.5t133 -27t133.5 27t108.5 73.5t73 108.5t27 133t-27 133t-73 108.5t-108.5 73.5t-133.5 27v0zM508 347q-77 0 -141 46t-103 122h488q-40 -76 -104 -122t-140 -46v0zM698 232
q-47 -25 -99 -38.5t-108 -13.5t-108 13.5t-98 38.5q-50 -14 -94 -36.5t-80.5 -58t-64.5 -85t-46 -116.5h982q-18 67 -46 116.5t-64.5 85t-80.5 58.5t-93 36v0z" />
    <glyph glyph-name="uniA001" unicode="acpaste" horiz-adv-x="795" 
d="M604 199h-446v26h446v-26v0zM420 277h-262v27h262v-27zM499 356h-341v26h341v-26zM630 435h-472v26h472v-26zM420 514h-262v26h262v-26zM709 802h-184l15 -45q55 -12 72.5 -42.5t17.5 -69.5h-472q0 37 18.5 66.5t69.5 42.5l17 48h-184v-787h630v787zM394 921
q-17 0 -28.5 -11.5t-11.5 -28.5q0 -16 11.5 -27.5t28.5 -11.5q16 0 27.5 11.5t11.5 27.5q0 17 -11.5 28.5t-27.5 11.5zM0 -64v945h315q0 33 23 56t56 23q32 0 55.5 -23t23.5 -56h315v-945h-788z" />
    <glyph glyph-name="uniA002" unicode="accopy" horiz-adv-x="859" 
d="M597 875h-512v-683h43v-85h-128v853h683v-128h-86v43zM664 178h-323v28h323v-28zM531 263h-190v29h190v-29zM588 348h-247v29h247v-29zM683 434h-342v28h342v-28v0zM531 519h-190v29h190v-29zM768 704h-512v-683h512v683zM171 -64v853h682v-853h-682v0z" />
    <glyph glyph-name="uniA003" unicode="acselect" horiz-adv-x="1040" 
d="M807 -64h-54v57h54v-57zM699 -64h-53v57h53v-57zM592 -64h-53v57h53v-57zM378 -64h-53v57h53v-57zM271 -64h-54v57h54v-57zM469 149h-256v256h256v-256zM0 960h57v-57h-57v57zM0 850h57v-54h-57v54zM0 743h57v-54h-57v54zM0 635h57v-53h-57v53zM0 528h57v-53h-57v53z
M0 421h57v-53h-57v53zM0 314h57v-53h-57v53zM0 207h57v-54h-57v54zM0 100h57v-54h-57v54zM0 -7h57v-57h-57v57zM110 960h54v-57h-54v57zM110 -7h54v-57h-54v57zM469 491h-256v256h256v-256zM217 960h54v-57h-54v57zM325 960h53v-57h-53v57zM432 960h53v-57h-53v57zM432 -7
h53v-57h-53v57zM539 960h53v-57h-53v57zM646 960h53v-57h-53v57zM753 960h54v-57h-54v57zM555 747h256v-256h-256v256zM555 405h256v-256h-256v256zM860 960h54v-57h-54v57zM860 -7h54v-57h-54v57zM967 960h57v-57h-57v57v0zM967 850h57v-54h-57v54v0zM967 743h57v-54h-57
v54v0zM967 635h57v-53h-57v53v0zM967 528h57v-53h-57v53v0zM967 421h57v-53h-57v53v0zM967 314h57v-53h-57v53v0zM967 207h57v-54h-57v54v0zM967 100h57v-54h-57v54v0zM967 -64v57h57v-57h-57z" />
    <glyph glyph-name="uniA004" unicode="accut" horiz-adv-x="1040" 
d="M952 248q8 -6 13 -15.5t5 -19.5q0 -7 -2.5 -13.5t-6.5 -12.5q-5 -7 -12 -11t-16 -6q-9 -1 -17 1t-15 7q-9 6 -13.5 15.5t-4.5 19.5q0 7 2 13.5t6 12.5q11 14 28.5 17t32.5 -8zM643 441q0 14 10 24t24 10t23.5 -10t9.5 -24t-9.5 -24t-23.5 -10t-24 10t-10 24zM933 711
q8 -1 15.5 -5.5t12.5 -11.5q4 -5 6.5 -11.5t2.5 -13.5q0 -11 -5 -20t-13 -15q-7 -6 -15.5 -8t-16.5 0q-9 1 -16.5 5.5t-12.5 11.5q-4 6 -6 12.5t-2 13.5q0 10 4.5 19t13.5 16q7 5 15 7t17 0zM867 750q-11 -9 -20.5 -20.5t-13.5 -20.5q-2 -4 -5.5 -10t-7.5 -13
q-3 -6 -7.5 -13.5t-9.5 -16.5q-26 -48 -48 -77t-23 -29l-12.5 -14t-28.5 -28q-45 19 -101 43t-106 45t-87 36t-44 17q-21 5 -38.5 -4t-17.5 -10l-13 -9l305 -185l-305 -185l13 -9q0 -1 17.5 -10.5t38.5 -3.5q7 2 44 16.5t87 36t106 45t101 43.5q16 -15 28.5 -28.5
l12.5 -13.5q1 0 23 -29t48 -77q5 -9 9.5 -16.5t7.5 -14.5q4 -7 7.5 -12.5t5.5 -10.5q4 -9 13.5 -20.5t20.5 -19.5q33 -25 74.5 -18.5t65.5 40.5q10 13 15 28t5 31q0 24 -11 45t-30 36q-8 6 -17 10t-18 6q-7 3 -13 4l-12 2q-8 2 -19 4.5t-31 10.5q-38 15 -65 36.5t-28 21.5
q-9 8 -18 21t-17 31q8 18 17 31t18 21q1 0 28 21.5t65 36.5q20 8 31 10.5t19 3.5q6 1 11.5 2.5t12.5 3.5q9 2 18.5 6.5t17.5 10.5q19 14 30 35.5t11 45.5q0 16 -5 31t-15 28q-24 33 -65.5 39.5t-74.5 -17.5v0zM683 21h-598v854h598v-171h85v256h-768v-1024h768v256h-85v-171
z" />
    <glyph glyph-name="uniA005" unicode="acoverflow" horiz-adv-x="256" 
d="M0 192h256v-256h-256v256zM0 585h256v-256h-256v256zM0 960h256v-256h-256v256z" />
    <glyph glyph-name="uniA006" unicode="accall" horiz-adv-x="1040" 
d="M1017 125q8 11 7 25t-11 25l-2 2t-3 2v0l-220 157v0q-11 8 -25 7t-24 -11l-2 -2t-1 -2v0l-1.5 -1.5t-0.5 -1.5q-11 -16 -14.5 -22t-12.5 -20q-12 -20 -26.5 -49.5t-29.5 -64.5q-46 7 -112.5 47.5t-141.5 116.5q-76 75 -116.5 141.5t-47.5 112.5q35 15 64.5 29t49.5 27
q14 9 20.5 12t22.5 14q0 1 1 1.5l1 0.5v0v0q1 1 2.5 2t2.5 2q10 10 10.5 24t-7.5 25v0l-157 220v0q-1 1 -2 2.5t-2 2.5q-11 10 -25 11t-25 -8q-39 -27 -75 -55.5t-63 -59t-41 -63t-9 -67.5q5 -38 29 -95.5t62.5 -123.5t89.5 -134t109 -127q59 -58 127.5 -109t134 -89.5
t123 -62.5t95.5 -29q35 -5 67.5 9t63 40.5t59 63t56.5 75.5v0z" />
    <glyph glyph-name="uniA007" unicode="acclip" horiz-adv-x="944" 
d="M248 -64v0q-49 0 -94.5 19t-80.5 54t-54 80.5t-19 94.5q0 50 19 95.5t54 80.5l552 553q26 25 58 37t67 9q32 -2 63 -17t56 -41q53 -53 56.5 -124.5t-44.5 -119.5l-464 -464q-29 -29 -70 -26.5t-74 36.5q-32 32 -34.5 74t24.5 70l380 379l50 -50l-379 -379q-6 -6 -4 -19
t13 -25q4 -3 17.5 -12t25.5 3l464 464q27 27 24 69t-35 74q-17 16 -36 26t-39 11q-19 2 -36.5 -5t-31.5 -21l-553 -553q-25 -25 -38.5 -57t-13.5 -68q0 -35 13.5 -67.5t38.5 -57.5t57.5 -38.5t67.5 -13.5v0q36 0 68 13.5t58 38.5l478 479l50 -51l-478 -478
q-35 -35 -80.5 -54t-95.5 -19v0z" />
    <glyph glyph-name="uniA008" unicode="acsend" horiz-adv-x="1040" 
d="M0 -64l99 466l622 43v6l-622 43l-99 466l1037 -512z" />
    <glyph glyph-name="uniA009" unicode="actrash" horiz-adv-x="736" 
d="M672 541q-1 3 -3 6l-4 6q-12 -12 -40.5 -19.5t-69 -11t-91 -5t-107.5 -1.5q-56 0 -106.5 1.5t-91 5t-69 11t-40.5 19.5q-3 -3 -4.5 -6t-2.5 -6v0v-3v0v-1v-0.5v-0.5l25 -501v0q1 -30 54 -64.5t235 -34.5t235.5 34.5t54.5 64.5v0l25 501v0.5v0.5v1v0v2v0v1zM507 803v118
q0 16 -11.5 27.5t-27.5 11.5h-234q-16 0 -27.5 -11.5t-11.5 -27.5v-120q-87 -9 -141 -28t-54 -42v-59q0 -9 9 -17.5t25 -15.5q21 -10 54.5 -18.5t75 -14.5t91 -9.5t102.5 -3.5q54 0 103.5 3.5t91 9.5t75 14.5t54.5 18.5q16 7 25 15.5t9 17.5v59q0 24 -58 43t-150 29v0z
M270 808l-10 -1v49q0 16 2 27.5t4 11.5h16.5h29.5h78h29.5h15.5q3 0 5 -11.5t2 -27.5v-48q-20 1 -41.5 1.5t-43.5 0.5t-44 -0.5t-43 -1.5v0z" />
    <glyph glyph-name="uniA010" unicode="acshare" horiz-adv-x="992" 
d="M815 255q-36 0 -67.5 -15t-53.5 -40l-380 205q3 10 4.5 21t1.5 22t-1.5 22t-4.5 21l380 205q22 -25 53.5 -40t67.5 -15q66 0 113 46.5t47 112.5t-47 113t-113 47t-113 -47t-47 -113q0 -11 2 -22t5 -21l-381 -205q-22 26 -53.5 40.5t-67.5 14.5q-66 0 -113 -46.5
t-47 -112.5t47 -112.5t113 -46.5q36 0 67.5 14.5t53.5 40.5l380 -205q-2 -10 -4 -21t-2 -22q0 -66 47 -113t113 -47t113 47t47 113t-47 112.5t-113 46.5v0z" />
    <glyph glyph-name="uniA011" unicode="accamera" horiz-adv-x="1325" 
d="M900 388q0 -50 -19 -94t-52 -77t-77 -52t-94 -19q-51 0 -95 19t-77 52t-52 77t-19 94t19 94t52 77t77 52t95 19q50 0 94 -19t77 -52t52 -77t19 -94zM1315 850h-447v50v55v5h-416v-5v-55v-50h-27.5h-55.5q-29 -1 -55 -8l-26 -7l-288 -93l0.5 -23.5t-0.5 -45.5v-118v-231
v-226v-102v-42.5v-17.5h205.5h452h452h205.5q2 0 1 17.5t-1 42.5v794v42.5v17.5zM658 34q-74 0 -138.5 28t-112.5 76t-75.5 112.5t-27.5 137.5t27.5 137.5t75.5 112.5t112.5 76t138.5 28q73 0 137.5 -28t112.5 -76t75.5 -112.5t27.5 -137.5t-27.5 -137.5t-75.5 -112.5
t-112.5 -76t-137.5 -28zM265 881l-210 -72v97v13v5h210v-5v-13v-25z" />
    <glyph glyph-name="uniA012" unicode="acmic" horiz-adv-x="579" 
d="M287 250q-66 0 -112 47t-46 91v439q0 44 46 88.5t112 44.5t111.5 -44.5t45.5 -88.5v-439q0 -44 -45.5 -91t-111.5 -47zM557 486v-85q0 -81 -49 -142.5t-144 -86.5v-39h-37v-77q100 -5 146 -14t46 -29v-35q0 -22 -63.5 -32t-162.5 -10t-167.5 10.5t-68.5 32.5v37
q0 19 45.5 27t145.5 13v77l-38 1v40q-40 0 -75.5 19.5t-61.5 52t-41 73t-15 82.5v85h-17v42h56v-127q0 -48 17.5 -83.5t48 -59t71.5 -35t88 -11.5t90 11.5t76 35t52.5 59t19.5 83.5v127h57v-42h-19v0z" />
    <glyph glyph-name="uniA013" unicode="acedit" horiz-adv-x="1029" 
d="M494 676l-320 -323l22.5 -12.5t76.5 -10.5q11 -24 30.5 -52t81.5 -57q-2 -51 13.5 -78.5l15.5 -27.5l321 323q-3 33 -26.5 72.5t-62.5 78.5q-54 53 -95.5 69t-56.5 18v0zM958 908q-71 58 -119.5 52t-72.5 -30q-9 -8 -32 -26.5t-43 -34.5q23 -2 65 -17t91 -64
q50 -48 64.5 -88t14.5 -63q17 21 38 48t25 31q27 28 33 81t-64 111zM226 291q-48 0 -63.5 7l-15.5 7l-147 -369l368 153l-14.5 32.5t-13.5 56.5q-20 6 -59.5 35.5t-54.5 77.5v0zM650 833l-37 -36l45.5 -16t107.5 -77q39 -39 60 -77.5t25 -66.5l34 35l-5 42.5t-72 109.5
q-66 66 -112 76zM581 752l-35 -34l43 -15.5t103 -73.5q37 -37 57 -74t24 -64l33 33l-4.5 41t-69.5 105q-63 63 -107 72.5l-44 9.5v0z" />
    <glyph glyph-name="uniA014" unicode="actick" horiz-adv-x="1416" 
d="M1405 877l-82 83l-851 -859l-389 387l-83 -83l472 -469l83 82l-1 1z" />
    <glyph glyph-name="uniA015" unicode="aclocate" horiz-adv-x="1023" 
d="M512 651q-43 0 -79.5 -16t-64.5 -43.5t-43.5 -64.5t-15.5 -79t16 -79t43.5 -64.5t64.5 -43.5t79 -16t79 16t64.5 43.5t43.5 64.5t16 79t-16 79t-43.5 64.5t-64.5 43.5t-79 16v0zM1024 478h-122q-5 72 -35 135.5t-78.5 112t-112 78.5t-136.5 35v121h-58v-121
q-72 -6 -135.5 -36t-112 -78.5t-78.5 -112t-35 -136.5h-121v-58h121q6 -72 36 -135.5t78.5 -112t112 -78t136.5 -35.5v-121h58v122q72 5 135.5 35t112 78.5t78 112t35.5 136.5h121v58v0zM513 114q-70 0 -130.5 26t-106 71.5t-72 106t-26.5 129.5t26 130t71.5 106.5t106 72
t129.5 26.5t130 -26t106.5 -71.5t72 -106t26.5 -129.5t-26 -130t-71.5 -106.5t-106 -72t-129.5 -26.5z" />
    <glyph glyph-name="uniA016" unicode="acstar" horiz-adv-x="1087" 
d="M538 960l152 -357l387 -34l-293 -255l87 -378l-333 200l-332 -200l87 378l-293 255l387 34z" />
    <glyph glyph-name="uniA017" unicode="acrefresh" horiz-adv-x="927" 
d="M601 770q-59 26 -123 30t-125 -16q-58 -18 -105.5 -53.5t-80 -83t-48.5 -104.5t-12 -118l-106 -7q-5 80 16 154t63 135.5t103.5 108t137.5 70.5q44 14 90 18.5t91.5 0t89.5 -18t85 -35.5l101 109l27 -302l-319 -10l115 122v0zM597 10q-34 -10 -68.5 -15.5t-69.5 -5.5
q-56 0 -111.5 14.5t-105.5 41.5l-102 -109l-27 302l319 11l-115 -123q59 -26 122.5 -29.5t125.5 15.5q58 18 105.5 53.5t80 83t48.5 104.5t12 118l106 7q5 -80 -16 -153.5t-63 -135.5t-103.5 -108.5t-137.5 -70.5v0z" />
    <glyph glyph-name="uniA018" unicode="acmail" horiz-adv-x="1389" 
d="M0 658v-722h1380v722l-690 -343zM0 960v-192l690 -343l690 343v192h-1380z" />
    <glyph glyph-name="uniB000" unicode="olrating" horiz-adv-x="1088" 
d="M536 875l90 -276q7 -24 29 -40t47 -16h290l-235 -171q-20 -15 -28.5 -40.5t-0.5 -49.5l90 -276l-235 171q-10 7 -22 10.5t-25 3.5t-25 -3.5t-22 -10.5l-235 -171l90 276q7 24 -1 50t-28 40l-235 171h290q25 0 47 16t29 40l90 276v0zM536 959q-3 0 -6 -3.5t-5 -10.5
l-109 -337q-5 -13 -18 -23t-28 -10h-353q-15 0 -17 -6t10 -15l286 -208q12 -8 17 -24t0 -30l-109 -336q-3 -9 -1.5 -14t6.5 -5q2 0 5.5 1.5t7.5 4.5l286 208q6 4 13 6t15 2t15 -2t13 -6l286 -208q4 -3 7.5 -4.5t5.5 -1.5q5 0 6.5 5t-1.5 14l-109 336q-5 14 0 30t17 24
l286 208q12 9 10 15t-17 6h-353q-15 0 -28 10t-18 23l-109 337q-2 7 -5 10.5t-6 3.5v0v0z" />
    <glyph glyph-name="uniB001" unicode="halfrating" horiz-adv-x="1077" 
d="M537 876l90 -277q8 -24 29.5 -40t46.5 -16h291l-235 -171q-20 -15 -28.5 -40.5t-0.5 -49.5l90 -277l-236 171q-9 7 -21.5 11t-25.5 4t-25 -4t-22 -11l-235 -171l89 277q8 24 -0.5 49.5t-28.5 40.5l-235 171h291q25 0 46.5 16t29.5 40l90 277v0zM537 960q-3 0 -6 -3.5
t-5 -10.5l-109 -337q-5 -14 -18.5 -24t-27.5 -10h-354q-15 0 -17 -6t10 -14l286 -209q12 -8 17 -24t1 -30l-109 -337q-3 -9 -2 -14t6 -5q2 0 5.5 1.5t7.5 4.5l287 208q6 5 13 7t15 2t15.5 -2t12.5 -7l287 -208q4 -3 7.5 -4.5t5.5 -1.5q5 0 6 5t-1 14l-110 337q-4 14 1 30
t17 24l286 209q12 8 10 14t-17 6h-354q-14 0 -27.5 10t-18.5 24l-109 337q-2 7 -5 10.5t-6 3.5v0v0zM537 960q-3 0 -6 -3.5t-5 -10.5l-109 -337q-5 -14 -18.5 -24t-27.5 -10h-354q-15 0 -17 -6t10 -14l286 -209q12 -8 17 -24t1 -30l-109 -337q-5 -14 0 -18t17 5l287 208
q5 5 12.5 7t15.5 2v801v0z" />
    <glyph glyph-name="uniB002" unicode="rating" horiz-adv-x="1088" 
d="M525 944q5 14 11 14t11 -14l109 -337q5 -13 18.5 -23t27.5 -10h353q15 0 17 -6t-10 -15l-286 -208q-12 -8 -17 -24t0 -30l109 -336q4 -14 -1 -18t-17 5l-286 208q-11 8 -28 8t-28 -8l-286 -208q-12 -9 -17 -5t-1 18l109 336q5 14 0 30t-17 24l-286 208q-12 9 -10 15t17 6
h353q15 0 28.5 10t17.5 23l109 337v0z" />
    <glyph glyph-name="uniB003" unicode="email" horiz-adv-x="1146" 
d="M987 700h-828q-55 0 -94.5 -39t-39.5 -95v-491q0 -55 39.5 -94.5t94.5 -39.5h828q55 0 94.5 39.5t39.5 94.5v491q0 56 -39.5 95t-94.5 39v0zM1041 566v-491q0 -2 -0.5 -4.5t-0.5 -5.5l-272 256l269 264q2 -4 3 -9t1 -10v0zM109 57q-2 4 -3 8.5t-1 9.5v491q0 5 1 9l2 8
l272 -270l-271 -256v0zM162 620h819l-412 -404l-407 404v0zM165 21l261 246l98 -97q9 -9 21 -14t24 -5t24 5t21 14l109 106l269 -254q-1 0 -2.5 -0.5t-2.5 -0.5h-822v0z" />
    <glyph glyph-name="uniB004" unicode="wifi" horiz-adv-x="1100" 
d="M657 46q0 -46 -32.5 -78t-77.5 -32q-46 0 -78 32t-32 78q0 45 32 77.5t78 32.5q45 0 77.5 -32.5t32.5 -77.5zM547 321q52 0 98.5 -17t84.5 -47l67 98q-52 39 -116 61.5t-134 22.5t-133.5 -22t-115.5 -61l68 -97q38 29 84 45.5t97 16.5v0zM547 585q47 0 91.5 -7.5t87 -22
t81 -35t74.5 -46.5l65 94q-42 31 -88.5 55.5t-97 41t-104 25.5t-109.5 9t-109.5 -8.5t-103.5 -25.5t-96.5 -41t-88.5 -55l66 -94q35 26 73.5 46.5t80.5 34.5t86.5 21.5t91.5 7.5v0zM547 847q67 0 132 -10.5t126 -31t117.5 -50t107.5 -66.5l65 93q-58 42 -122 75t-133.5 56
t-143 35t-149.5 12q-77 0 -150 -12t-142 -35t-133 -55.5t-122 -74.5l65 -93q51 37 107 66.5t117 49.5t125.5 30.5t132.5 10.5v0z" />
    <glyph glyph-name="uniB005" unicode="internet" horiz-adv-x="1032" 
d="M437 411q0 -24 11 -38.5t32 -14.5q24 0 45.5 26.5t27.5 63.5l12 82q-5 1 -12 2t-15 1q-42 0 -71.5 -36t-29.5 -86v0zM512 960q-106 0 -199.5 -40t-163 -109.5t-109.5 -163t-40 -199.5t40 -199.5t109.5 -163t163 -109.5t199.5 -40t199.5 40t163 109.5t109.5 163t40 199.5
t-40 199.5t-109.5 163t-163 109.5t-199.5 40zM639 294q-30 0 -50 16t-23 50h-2q-21 -33 -49 -49.5t-63 -16.5q-41 0 -68.5 29.5t-27.5 82.5q0 40 14.5 76t40.5 63.5t63.5 44t83.5 16.5q28 0 57 -6t45 -15l-26 -159q-6 -38 -1 -56t23 -19q28 -1 55.5 34.5t27.5 110.5
q0 84 -52.5 141t-152.5 57q-50 0 -94.5 -18.5t-78.5 -53t-53.5 -84t-19.5 -111.5q0 -54 16 -95.5t45 -70.5t69.5 -44t87.5 -15q33 0 66.5 7t59.5 20l15 -49q-38 -17 -74.5 -24t-83.5 -7q-53 0 -101.5 18.5t-85.5 53.5t-58.5 85.5t-21.5 113.5q0 65 23 124.5t65 104.5
t101 71.5t131 26.5q57 0 105 -18.5t82.5 -51.5t54 -78.5t19.5 -99.5q0 -95 -47 -150t-117 -55v0z" />
    <glyph glyph-name="uniB006" unicode="squircle" horiz-adv-x="1032" 
d="M512 -64q84 0 150.5 1.5t118.5 9t91.5 24t70.5 46.5q30 31 46.5 70.5t24 91.5t9 118.5t1.5 150.5t-1.5 150.5t-9 118.5t-24 91.5t-46.5 70.5q-31 30 -70.5 46.5t-91.5 24t-118.5 9t-150.5 1.5t-150.5 -1.5t-118.5 -9t-91.5 -24t-70.5 -46.5q-30 -31 -46.5 -70.5
t-24 -91.5t-9 -118.5t-1.5 -150.5t1.5 -150.5t9 -118.5t24 -91.5t46.5 -70.5q31 -30 70.5 -46.5t91.5 -24t118.5 -9t150.5 -1.5z" />
    <glyph glyph-name="uniB007" unicode="circle" horiz-adv-x="1032" 
d="M1024 448q0 -106 -40 -199.5t-109.5 -163t-163 -109.5t-199.5 -40t-199.5 40t-163 109.5t-109.5 163t-40 199.5t40 199.5t109.5 163t163 109.5t199.5 40t199.5 -40t163 -109.5t109.5 -163t40 -199.5z" />
    <glyph glyph-name="uniB008" unicode="close" horiz-adv-x="1032" 
d="M1021 503q0 2 -0.5 4t-0.5 4q-2 12 -4 23.5t-4 23.5q0 1 -0.5 2t-0.5 2q-9 40 -24 77t-35.5 71t-46 64.5t-54.5 56.5q-1 1 -2 1.5t-2 1.5q-13 12 -26.5 22.5t-28.5 19.5q0 1 -1 1t-1 1q-14 8 -27.5 16t-27.5 14q-3 2 -6 3.5l-5 2.5q-16 7 -31.5 13t-31.5 11q-1 0 -2 0.5
t-3 0.5q-14 4 -29 7.5t-30 5.5q-5 1 -9 2t-8 1q-17 2 -34 3.5t-34 1.5q-106 0 -199.5 -40t-163 -109.5t-109.5 -163t-40 -199.5q0 -17 1.5 -33.5t3.5 -33.5q0 -4 1 -8.5t1 -8.5l6 -28t7 -28q0 -2 0.5 -4t1.5 -4q5 -16 10.5 -31t12.5 -30q1 -3 2.5 -5.5t2.5 -4.5
q6 -14 13.5 -27t15.5 -26q0 -1 1 -2.5t2 -2.5q19 -29 41.5 -55.5t48.5 -49.5v0l1 -1q34 -30 72.5 -54t81.5 -40.5t89.5 -25.5t95.5 -9q77 0 148 22t131 61t107.5 94t77.5 120v1h1q5 12 10 24.5t9 25.5h1v0q4 12 7.5 24.5t6.5 24.5v2t1 3q2 11 4 22.5t4 23.5q0 2 0.5 4t0.5 5
q1 13 2 27t1 28t-1 28t-2 27v0zM779 181q-13 -12 -28.5 -18.5t-33.5 -6.5q-17 0 -33 6.5t-28 18.5l-144 144l-144 -144q-25 -24 -61.5 -24t-61.5 24q-25 26 -25 62t25 61l144 144l-144 144q-25 26 -25 62t25 61t61.5 24.5t61.5 -24.5l144 -144l144 144q25 25 61.5 25
t61.5 -25t25 -61t-25 -62l-144 -144l144 -144q25 -25 25 -61t-25 -62v0z" />
    <glyph glyph-name="uniB009" unicode="cuca" horiz-adv-x="808" 
d="M400 960q-82 0 -154 -32.5t-126 -89t-85 -132.5t-31 -161v-8t1 -8v0v-1q1 -37 8.5 -73.5t21.5 -70.5q-1 -9 -1.5 -18.5t-0.5 -18.5q0 -69 25.5 -117t61.5 -48t61.5 48t25.5 117q0 68 -25.5 116.5t-61.5 48.5q-18 0 -34 -13t-28 -35q-2 18 -3.5 33t-1.5 19q0 35 8 69.5
t24 65.5q30 59 86 105.5t119 67.5q26 8 54.5 12.5t55.5 4.5t55.5 -4.5t54.5 -12.5q63 -21 119 -67.5t86 -105.5q16 -31 24 -65.5t8 -69.5q0 -4 -1.5 -19.5t-3.5 -34.5q-12 23 -28 36.5t-35 13.5q-36 0 -61.5 -48.5t-25.5 -116.5q0 -69 25.5 -117t61.5 -48q2 0 3 0.5t3 0.5
q-24 -45 -68.5 -83t-118.5 -53q-8 26 -30 42.5t-51 16.5q-35 0 -60 -25t-25 -60t25 -60t60 -25q32 0 55.5 20.5t28.5 50.5q66 13 111.5 43t75 68t45.5 79t24 75q4 15 6.5 31.5t2.5 34.5v4.5v3.5v1v0v0v0q1 3 1 5v2h-1q0 7 -0.5 14t-1.5 14q15 34 22.5 71t8.5 75v1v0
q0 4 0.5 8t0.5 7q0 86 -31 162t-85 132.5t-126 89t-154 32.5v0z" />
    <glyph glyph-name="uniB010" unicode="heart" horiz-adv-x="1200" 
d="M876 960q-38 0 -77 -9t-75.5 -28t-70 -47.5t-61.5 -66.5v-1q-28 39 -61.5 67t-70.5 47t-75.5 28t-76.5 9q-59 0 -114.5 -21.5t-98 -64.5t-68 -105.5t-25.5 -144.5q0 -132 88 -253t196 -215.5t201.5 -153.5t104.5 -65v1q12 6 105.5 65t201.5 153.5t195.5 215.5t87.5 252
q0 82 -25.5 145t-68 105.5t-98 64.5t-114.5 22v0v0z" />
    <glyph glyph-name="uniB011" unicode="reviews" horiz-adv-x="952" 
d="M480 960q96 0 181 -33t148 -89.5t100 -133t37 -162.5q0 -13 -1 -25t-3 -24h1q-14 -130 -81 -233.5t-142 -175.5t-134.5 -110l-59.5 -38q40 59 51.5 113t12.5 87q-27 -6 -54.5 -9t-55.5 -3q-96 0 -181 32.5t-148 89.5t-100 133t-37 163q0 86 37 162.5t100 133t148 89.5
t181 33v0z" />
    <glyph glyph-name="uniB012" unicode="search" horiz-adv-x="1048" 
d="M1021 76l-326 326q26 42 40.5 90.5t14.5 101.5q0 76 -29 142.5t-79 116t-117.5 78.5t-143.5 29q-77 0 -144.5 -29t-117.5 -78.5t-79 -116t-29 -142.5t29 -142.5t79 -116.5t117.5 -78.5t144.5 -28.5q55 0 105 15t93 43l326 -326q24 -24 58 -24t58 24t24 58t-24 58v0z
M381 367q-48 0 -89.5 18t-72.5 49t-49 72t-18 88t18 88t49 72t72.5 49t89.5 18q47 0 88.5 -18t73 -49t49.5 -72t18 -88t-18 -88t-49.5 -72t-73 -49t-88.5 -18z" />
    <glyph glyph-name="uniB014" unicode="signin" horiz-adv-x="1048" 
d="M517 960q-107 0 -201 -40t-164.5 -109.5t-111 -163t-40.5 -199.5t40.5 -199.5t111 -163t164.5 -109.5t201 -40t201.5 40t164.5 109.5t110.5 163t40.5 199.5q1 106 -40 199.5t-111 163t-164.5 109.5t-201.5 40v0v0zM851 369h-1l-49 49l-47 -48l-47 47l-47 -47l-46 47
l-61 -61h-77q-25 -45 -70 -72.5t-100 -27.5q-40 0 -75.5 15t-62 41.5t-42 62t-15.5 76.5q0 40 15.5 75.5t42 62t62 42t75.5 15.5q54 0 99 -27.5t70 -71.5h391l66 -66q8 -8 7.5 -15t-7.5 -14l-81 -83v0zM267 485q0 -22 -15.5 -37t-37.5 -15q-21 0 -36.5 15t-15.5 37t15.5 37
t36.5 15q22 0 37.5 -15t15.5 -37v0z" />
    <glyph glyph-name="uniB015" unicode="mybooking" horiz-adv-x="1032" 
d="M512 960q-106 0 -199.5 -40t-163 -109.5t-109.5 -163t-40 -199.5t40 -199.5t109.5 -163t163 -109.5t199.5 -40t199.5 40t163 109.5t109.5 163t40 199.5t-40 199.5t-109.5 163t-163 109.5t-199.5 40zM512 35q-53 0 -103 13t-94 37t-81 57.5t-65 74.5q8 17 25.5 35t50.5 32
q71 31 136 45t62 67l-13 17.5t-21 64.5l-2.5 1t-6.5 13q-5 13 -14 41t13 29l-7 26.5t-2 59t31 61t91 32.5v0q65 -4 91 -32.5t31 -61t-2 -59l-7 -26.5q22 -1 13 -29t-14 -41q-4 -12 -6.5 -13l-2.5 -1q-8 -47 -21 -64.5l-13 -17.5q-3 -53 62 -67t136 -45q33 -14 50.5 -32
t25.5 -35q-28 -41 -65 -74.5t-81 -57.5t-94 -37t-103 -13z" />
    <glyph glyph-name="uniB016" unicode="concierge" horiz-adv-x="952" 
d="M621 767v-1v0v0v1zM344 823q40 -14 82 -17.5t84 -1.5q28 1 60 4.5t56 17.5v0v0q4 2 8 5.5t4 8.5v40v40t-49 30t-107.5 10t-107.5 -10t-49 -30v-40v-40q0 -7 7 -11t12 -6l-4.5 2t4.5 -2zM848 274q9 -4 11 -5t-12 5q-66 29 -44.5 19.5t43.5 -18.5q-49 21 -98 33.5t-88.5 27
t-63 35t-22.5 56.5l18.5 23.5t28.5 87.5q16 7 30.5 60t-15.5 55q12 35 14 75t-12 76q-1 -6 -5 -10.5t-11 -8.5h-1v0q-24 -13 -73 -18t-98.5 -2t-87 13t-37.5 27v6q-17 -36 -15 -78.5t14 -79.5q-30 -2 -15.5 -55t30.5 -60q10 -64 28.5 -87.5l18.5 -23.5q2 -58 -55.5 -79.5
t-100.5 -33.5q-60 -18 -125.5 -43.5t-95.5 -87.5q44 -64 104.5 -114t132.5 -82l-55 171q-9 28 7 50t45 22h471q30 0 46.5 -22t8.5 -50l-46 -168q69 33 127 82t101 111q-11 22 -35 46.5t-68 44.5v0zM621 767v-1v0v0v1zM749 163q5 19 -5.5 32t-29.5 13h-471q-19 0 -28.5 -13
t-3.5 -31l61 -190q6 -2 12.5 -4t12.5 -4q-4 37 34 27t16 -41q66 -16 133 -16t134 16q-15 29 16.5 38t35.5 -23l16 6t15 6l52 184v0zM297 105q-28 0 -28 29t28 29t28 -29t-28 -29zM661 105q-28 0 -28 29t28 29t28 -29t-28 -29z" />
    <glyph glyph-name="uniB017" unicode="booking" horiz-adv-x="3858" 
d="M2441 866q0 39 27.5 66.5t65.5 27.5q39 0 66.5 -27.5t27.5 -66.5t-27.5 -66.5t-66.5 -27.5q-38 0 -65.5 27.5t-27.5 66.5zM892 730q-64 0 -118 -21.5t-93 -60.5t-61 -92.5t-22 -117.5q0 -63 22 -116.5t61 -92.5t93 -61t118 -22t118 22t93.5 61t61.5 92.5t22 116.5
q0 64 -22 117.5t-61.5 92.5t-93.5 60.5t-118 21.5v0zM892 283q-61 0 -99 43.5t-38 111.5q0 69 38 112.5t99 43.5t99 -43.5t38 -112.5t-38 -112t-99 -43zM2260 424q-5 9 -10.5 17t-12.5 14l-5 6l6 5q6 6 11.5 13.5t11.5 15.5l151 224h-183l-113 -175q-5 -7 -14.5 -10.5
t-24.5 -3.5h-39v330q0 50 -28 75t-62 25h-59v-805h149v234h29q14 0 23 -2.5t14 -9.5l89 -168q19 -35 40 -44.5t56 -9.5h124l-92 153l-61 116v0zM3028 732q-62 0 -102.5 -22.5t-62.5 -45.5l-9 -10l-4 14q-6 24 -27.5 37.5t-54.5 13.5h-70v-564h150v260q0 19 2.5 36t7.5 32
q13 45 43.5 71.5t76.5 26.5q38 0 59 -21.5t21 -73.5v-245q0 -44 25.5 -65t68.5 -21h55v355q0 107 -40.5 164.5t-138.5 57.5v0zM2606 155v478q0 43 -21 64.5t-64 21.5h-63l1 -436h-1l1 -132h147v4zM1536 730q-64 0 -118 -21.5t-93.5 -60.5t-61.5 -92.5t-22 -117.5
q0 -63 22 -116.5t61.5 -92.5t93.5 -61t118 -22t118 22t93.5 61t61.5 92.5t22 116.5q0 64 -22 117.5t-61.5 92.5t-93.5 60.5t-118 21.5v0zM1536 283q-61 0 -99 43.5t-38 111.5q0 69 38 112.5t99 43.5q60 0 98.5 -43.5t38.5 -112.5t-38 -112t-99 -43zM3744 720
q-22 0 -39.5 -8.5t-25.5 -25.5l-5 -9l-7 7q-20 17 -56 33t-92 16q-57 0 -103 -20.5t-79 -57.5t-51.5 -88.5t-18.5 -114.5t19 -115.5t52.5 -90t80.5 -58.5t103 -21q38 0 68.5 9t54.5 27l13 10v-16q0 -57 -35.5 -87t-101.5 -30q-32 0 -60.5 6.5t-47.5 13.5q-26 8 -42 0.5
t-26 -32.5l-13 -32l-18 -46l11 -6q43 -23 95 -35.5t102 -12.5q51 0 102 14t91.5 45.5t65.5 82.5t25 125l1 517h-63v0zM3550 308q-66 0 -92.5 47t-26.5 101q0 24 17 79.5t94 55.5q38 0 78.5 -23t40.5 -117q0 -89 -36.5 -116t-74.5 -27zM448 555l-24 14l21 17q18 16 41 51.5
t23 95.5q0 46 -17.5 82.5t-49 62t-76 39t-100.5 13.5h-176q-33 -1 -61.5 -29t-28.5 -61v-689h270q61 0 111 17t85 48t54 74t19 95q0 56 -24 101t-67 69v0zM150 711v0v42q0 26 11.5 39.5t36.5 15.5h67q43 0 67.5 -24.5t24.5 -67.5q0 -33 -20 -59.5t-70 -26.5h-117v81v0z
M280 300h-130v146q0 25 10 38.5t31 16.5h89q48 0 76.5 -28.5t28.5 -76.5q0 -50 -28 -73t-77 -23z" />
    <glyph glyph-name="uniB018" unicode="dotcom" horiz-adv-x="2438" 
d="M32 253q0 39 27.5 66t65.5 27q39 0 66.5 -27t27.5 -66t-27.5 -66.5t-66.5 -27.5q-38 0 -65.5 27.5t-27.5 66.5v0zM1153 731q-64 0 -119.5 -22t-96.5 -61t-64.5 -92.5t-23.5 -116.5q0 -64 23.5 -117.5t64.5 -92.5t96.5 -60.5t119.5 -21.5t118 21.5t93.5 60.5t61.5 92.5
t22 117.5q0 63 -22 116.5t-61.5 92.5t-93.5 61t-118 22zM1153 283q-61 0 -99 43.5t-38 112.5q0 68 38 111.5t99 43.5q60 0 98.5 -43.5t38.5 -111.5q0 -70 -38 -113t-99 -43zM2160 740q-50 0 -94 -22t-75 -62l-12 -14l-9 16q-22 41 -60.5 61.5t-91.5 20.5q-56 0 -93.5 -24
t-54.5 -42l-15 -17l-6 22q-7 23 -27 35.5t-52 12.5h-61l-1 -561h148v248q0 16 2 32t6 33q11 45 41.5 84t80.5 34q32 -3 47 -27.5t15 -70.5v-333h140v248q0 20 2 36t6 31q10 43 45 79.5t84 36.5q36 0 54 -22.5t18 -75.5v-251q0 -43 24 -62.5t66 -19.5h60v358q0 108 -47 162
t-140 54zM743 361q0 -1 -44 -36t-110 -35q-59 0 -109 38t-50 120q0 70 42 114.5t109 44.5q22 0 42.5 -7.5t24.5 -20.5l1 -3q8 -30 28.5 -35.5t25.5 -5.5l84 -1v74q0 73 -72 102.5t-134 29.5q-66 0 -122.5 -22t-97 -61t-63.5 -93t-23 -118q0 -63 22.5 -117t63 -93t96 -61
t121.5 -22q114 0 174.5 50t61.5 51l4 5l-66 111z" />
    <glyph glyph-name="uniB019" unicode="pill" horiz-adv-x="992" 
d="M913 370l-227 227q-27 -55 -64.5 -108t-85.5 -101q-48 -47 -101 -85t-108 -65l227 -227q37 -37 84 -55.5t95.5 -18.5t95.5 18.5t84 55.5t56 84t19 95.5t-19 95.5t-56 84v0zM862 77q-27 -28 -62.5 -41.5t-71.5 -13.5q-37 0 -72 13.5t-62 41.5q-10 10 -10 23t10 22
q9 10 22 10t23 -10q37 -36 89 -36t89 36q10 10 23 10t22 -10q10 -9 10 -22t-10 -23v0v0zM242 872q38 0 73 -14.5t61 -41.5l195 -194q-24 -41 -53.5 -79t-63.5 -72q-35 -35 -73 -64.5t-79 -52.5l-194 194q-27 27 -41.5 61.5t-14.5 72.5t14.5 73t41.5 61q27 27 61.5 41.5
t72.5 14.5v0zM242 936q-49 0 -95.5 -18.5t-83.5 -55.5q-38 -37 -56.5 -84t-18.5 -96t18.5 -95.5t55.5 -84.5l228 -227q55 27 108 65t101 85q48 48 85.5 101t64.5 108l-227 228q-37 37 -84 55.5t-96 18.5v0z" />
    <glyph glyph-name="uniB01A" unicode="viewed" horiz-adv-x="1384" 
d="M688 960q-178 0 -308 -80t-214.5 -176t-125 -176l-40.5 -80l42.5 -80t128.5 -176t215 -176t302 -80q182 0 312 80t213.5 176t123 176l39.5 80l-39.5 80t-123 176t-213.5 176t-312 80v0zM686 112q-69 0 -129.5 26t-105.5 71.5t-71 106t-26 129.5t26 129.5t71 105.5
t105.5 71.5t129.5 26.5t130 -26.5t106 -71.5t71 -105.5t26 -129.5t-26 -129.5t-71 -106t-106 -71.5t-130 -26v0zM686 636q-8 0 -16.5 -1t-16.5 -2q33 -8 54.5 -35t21.5 -62q0 -42 -29.5 -71.5t-71.5 -29.5q-41 0 -70.5 29.5t-29.5 71.5q0 5 0.5 9.5t1.5 9.5q-17 -24 -26 -52
t-9 -58q0 -80 56 -136t135 -56q80 0 136 56t56 136q0 79 -56 135t-136 56v0z" />
    <glyph glyph-name="uniB020" unicode="settings" horiz-adv-x="1032" 
d="M1004 344l-61 49q4 27 4.5 54t-2.5 54q8 8 31.5 30.5t32.5 31.5q11 11 12.5 37t-16.5 68q-19 42 -44.5 49l-25.5 7l-77 -8q-16 21 -34.5 40t-39.5 36q0 9 0.5 43t0.5 47q0 16 -17.5 35.5t-59.5 35.5q-43 16 -66 3l-23 -13l-49 -60q-26 3 -53 3.5t-53 -2.5l3 1l-27 28
t-38 39t-37 12t-68 -18t-48.5 -44.5l-6.5 -25.5l8 -78q-21 -15 -40 -34t-36 -40q-10 0 -43.5 1t-47.5 1q-15 0 -34.5 -17t-36.5 -59q-17 -43 -4 -66l13 -23l61 -51v1q-3 -25 -3.5 -51t1.5 -51l-27.5 -27t-38.5 -38q-11 -12 -12 -38t18 -67q18 -42 44 -48.5l26 -6.5l74 8
q18 -23 38.5 -44t44.5 -40v-40v-52q1 -16 18.5 -35t60.5 -34q43 -16 66 -2.5l23 13.5l48 62q24 -2 47.5 -2.5t47.5 2.5q3 -4 28 -30.5t36 -36.5q11 -11 37 -12.5t68 17.5q41 18 48 43.5l7 25.5l-7 78q22 17 41.5 36.5t37.5 41.5l-2 -5l39 -0.5t54 0.5q16 0 35 17.5t35 60.5
t2.5 65.5l-13.5 22.5v0zM763 271q-38 -52 -90.5 -83.5t-111 -40.5t-118 4.5t-111.5 50.5q-52 38 -83 90.5t-40 111t4 118t51 111.5q37 52 90 83t111.5 40.5t118 -4t111.5 -51.5q51 -37 82.5 -89.5t40.5 -111t-4.5 -118.5t-50.5 -111zM472 686q-48 -9 -87.5 -34.5
t-65.5 -62.5t-37.5 -82.5t-2.5 -93.5q8 -49 33.5 -88.5t62.5 -65.5t82.5 -37.5t94.5 -2.5q48 8 87.5 33.5t65.5 62.5t37.5 82.5t3.5 94.5q-9 48 -34.5 87.5t-62.5 66t-82.5 37.5t-94.5 3v0z" />
    <glyph glyph-name="uniB021" unicode="deals" horiz-adv-x="1032" 
d="M539 959v-0.5v-0.5q-53 4 -105.5 -3t-102.5 -25.5t-96.5 -47.5t-87.5 -69q-58 -59 -93.5 -129.5t-47.5 -146.5t-1 -152.5t45 -147.5q-1 17 -1 33t1 31q3 40 9.5 80.5t18.5 78.5q19 65 54.5 119.5t93.5 91.5q53 33 110.5 57.5t107.5 61.5q25 19 57 42.5t48 51.5l0.5 1
l1.5 3q2 -22 1.5 -39.5t-0.5 -25.5q0 -23 -0.5 -43.5t-12.5 -34.5q-11 -15 -12 -27.5t7 -45.5q9 -32 27 -59t43 -67q25 -41 -10 -55t-52 -20q-18 -6 -14 -21.5t7 -18.5t12 -7t-2 -23q-12 -18 -28 -32l-16 -14q22 -23 14 -44.5t-29 -17.5q-22 4 -26 -5l-4 -9q1 -30 -2 -45
l-3 -15q-13 -44 -74 -34.5t-78 16.5t-62 26t-91 -24q-17 -16 -27 -31t-16 -28q35 -47 80 -85.5t97 -66t111 -42t122 -14.5h2h2q1 36 3 67.5t4 52.5q4 34 16 95t24.5 120.5t22 103l9.5 43.5q3 15 11.5 24.5t24.5 6.5q14 -2 18.5 -13t2.5 -30l-27 -197v-2.5v-4.5q-3 -17 5 -20
l8 -3q4 2 8.5 2.5t9.5 -0.5q13 -2 21.5 -12.5t8.5 -22.5q1 -2 3.5 -4.5t9.5 -1.5q5 2 10 2.5t11 -0.5q13 -2 21.5 -12.5t8.5 -23.5l3 -4.5t15 -1.5q3 1 7 1h8q14 -3 23 -15.5t6 -26.5q-2 -7 -3.5 -13t-2.5 -12q-1 -2 -1 -3t-1 -3q50 35 90.5 80.5t69 99t44 114.5t15.5 126
q0 102 -38 193t-103.5 160t-154 111t-189.5 47v0zM459 661q12 0 21 8.5t9 21.5t-9 21.5t-21 8.5l-12 -2t-31 -16l4.5 -11.5t15.5 -20.5q4 -5 10 -7.5t13 -2.5v0z" />
    <glyph glyph-name="uniB022" unicode="smartdeals" horiz-adv-x="1048" 
d="M533 564q-68 0 -115.5 -48t-47.5 -115q0 -9 6.5 -16t15.5 -7t15.5 7t6.5 16q0 49 35 83.5t84 34.5q9 0 15.5 6.5t6.5 16.5q0 9 -6.5 15.5t-15.5 6.5v0zM516 960q-107 0 -201 -41t-164 -111t-110.5 -164.5t-40.5 -202.5q0 -90 29.5 -172.5t81.5 -149t123 -114t155 -69.5
v168q0 10 6.5 17t15.5 8v0h221q7 -2 12 -9.5t5 -15.5v-167q83 22 153.5 70t122 114.5t80.5 148t29 171.5q0 108 -40.5 202.5t-111 164.5t-165 111t-201.5 41v0v0zM491 877q0 12 8 20t20 8q11 0 19 -8t8 -20v-144q0 -12 -8 -20t-19 -8q-12 0 -20 8t-8 20v144v0zM209 419h-145
q-11 0 -19 8.5t-8 19.5t8 19.5t19 8.5h145q11 0 19.5 -8.5t8.5 -19.5t-8 -19.5t-20 -8.5zM168 727q-8 8 -8.5 19.5t7.5 19.5t19.5 8t19.5 -8l104 -101q8 -8 8 -19.5t-8 -19.5q-4 -4 -9 -6t-11 -2q-5 0 -10 2t-9 6zM694 262q-16 -18 -31.5 -37t-25.5 -40h-236q-10 21 -26 40
t-32 37q-27 32 -41.5 71t-14.5 81q0 48 18 90.5t49.5 74t73.5 50t90 19.5v0h1v0v0v0v0q48 -1 90 -19.5t73.5 -50t50 -74t18.5 -90.5q-1 -42 -15.5 -81t-41.5 -71v0zM745 619q-5 0 -10 2t-9 6q-8 8 -8 19.5t8 19.5l101 103q8 9 19.5 9t19.5 -8t8 -19.5t-8 -19.5l-101 -104
q-4 -4 -9 -6t-11 -2v0v0zM970 417h-144q-12 0 -20 8t-8 20q0 11 8 19t20 8h144q12 0 20 -8t8 -19q0 -12 -8 -20t-20 -8v0z" />
    <glyph glyph-name="uniB023" unicode="marker" horiz-adv-x="639" 
d="M635 645q0 65 -24.5 122.5t-67.5 100t-100.5 67.5t-122.5 25t-122.5 -25t-100.5 -67.5t-67.5 -100t-24.5 -122.5q0 -43 11 -83t31 -75v0l273 -551l273 551v0q20 35 31 75t11 83zM320 487q-65 0 -111.5 46.5t-46.5 111.5t46.5 111t111.5 46t111.5 -46t46.5 -111
t-46.5 -111.5t-111.5 -46.5z" />
    <glyph glyph-name="uniB025" unicode="beachball" horiz-adv-x="1033" 
d="M512 960q-106 0 -199.5 -40t-162.5 -109.5t-109.5 -163t-40.5 -199.5t40.5 -199.5t109.5 -163t162.5 -109.5t199.5 -40t199.5 40t163 109.5t109.5 163t40 199.5t-40 199.5t-109.5 163t-163 109.5t-199.5 40v0zM506 882h1v0v0v0q43 0 83.5 -8t77.5 -22v-0.5v-0.5h1v0
q1 -8 1.5 -16t0.5 -16v0h-1v0h-2h-3q-26 0 -49.5 -10.5t-40.5 -27.5v0v0h-1v0q-16 14 -59.5 33.5t-128.5 19.5q-19 0 -41.5 -1t-46.5 -4v0v0h-0.5h-0.5h1l1 1l-1 -1h-1v0v0v0v0q46 26 99.5 39.5t109.5 13.5v0zM455 30v0v0h-1l-74 16.5t-157 97.5q-38 37 -73 91t-60 129
l26 40t81 93t140 105.5t203 78.5v0v0v0v0v-0.5v-0.5h1v0q2 -22 12 -41.5t25 -34.5q15 -14 35 -23.5t42 -10.5v-0.5v-0.5h0.5h0.5q-4 -24 -16 -78t-35.5 -127t-60 -159.5t-89.5 -174.5v0zM668 626h-1v0v0v0q-16 0 -29.5 6t-23.5 16t-16 23.5t-6 28.5q0 31 22 52.5t52 21.5v0
h1v0v0q15 0 28.5 -6t23.5 -16q11 -10 16.5 -23.5t5.5 -28.5q0 -31 -21.5 -52.5t-51.5 -21.5zM918 271v0.5v1.5v-1v-1q-5 66 -23.5 120.5t-41.5 96.5t-47.5 72t-40.5 46l-4 4t-4 3v0v1h-1q16 17 25 38.5t9 46.5q0 4 -0.5 8.5t-1.5 9.5h0.5h0.5v0q18 1 36 -0.5t35 -4.5
q0 -1 0.5 -1h0.5v0v0q43 -56 67.5 -125t24.5 -145q0 -45 -9 -88t-25 -82v0.5v0.5v-0.5t-1 -0.5v0z" />
    <glyph glyph-name="uniB026" unicode="windsurfing" horiz-adv-x="1093" 
d="M844 49v0v0v0zM868 50l0.5 0.5l0.5 0.5q-6 -1 -12 -1.5t-13 -0.5l24 1v0zM811 0q-59 0 -130.5 18t-154.5 64q-114 64 -204.5 73.5t-153 -5.5t-96 -38t-34.5 -24q-6 -6 -15.5 -6t-16.5 7q-6 7 -6 16.5t7 15.5q3 3 41 30t107.5 44t168.5 7t225 -80q114 -64 204.5 -72.5
t153.5 7.5t96.5 40l33.5 24q7 7 16.5 7t16.5 -7q6 -7 6 -16.5t-7 -16.5q-1 0 -18 -14t-50 -30t-81 -30t-109 -14v0zM812 -104q-69 0 -140.5 20.5t-145.5 62.5q-58 33 -116 52t-113 24q-38 4 -75 0.5t-72 -13.5q-9 -3 -17 1.5t-11 13.5t1.5 17.5t14.5 11.5q38 11 79.5 14.5
t83.5 -0.5q60 -5 122.5 -25.5t125.5 -56.5q79 -44 156 -63t149 -11q31 3 60.5 11t56.5 21q9 4 17.5 0.5t12.5 -11.5q4 -9 1 -17.5t-12 -13.5q-31 -14 -64 -23t-68 -13q-11 -1 -22.5 -1.5t-23.5 -0.5v0zM843 91v0q7 0 13 0.5t12 1.5q109 68 126.5 127l17.5 59
q-82 -1 -149.5 -11t-123 -25.5t-99.5 -35t-77 -39.5q2 -1 3.5 -2t3.5 -2q82 -46 150.5 -61t122.5 -12v0v0zM461 920l-55 -34.5t-115 -107.5t-101.5 -187.5t-13.5 -274.5q0 -3 23 3t27 7q59 14 118 -0.5t113 -37.5q42 -18 84.5 -26t89.5 -6l-170 664v0zM433 827l27 -106
q4 -16 -7.5 -23l-11.5 -7l-182 -45q47 94 110.5 137.5zM237 594l208 51q21 5 29.5 -5l8.5 -10l13 -52q4 -15 -6.5 -21.5l-10.5 -6.5l-261 -65q1 30 6 57.5t13 51.5v0zM430 365q-40 17 -83 27.5t-86 0.5q-2 -1 -19 -5t-18 -2q-2 13 -3.5 26t-2.5 26l271 68l13 -0.5t17 -15.5
v0v0l38 -148q-34 -2 -65 4t-62 19v0v0z" />
    <glyph glyph-name="uniB027" unicode="bathtub" horiz-adv-x="902" 
d="M444 493q0 -34 -23.5 -57.5t-57.5 -23.5t-57.5 23.5t-23.5 57.5t23.5 57.5t57.5 23.5t57.5 -23.5t23.5 -57.5v0zM444 493q0 -34 -24 -57.5t-57 -23.5q-34 0 -57.5 23.5t-23.5 57.5t23.5 57.5t57.5 23.5q33 0 57 -23.5t24 -57.5v0zM726 496q0 -30 -21 -50.5t-50 -20.5
q-30 0 -50.5 20.5t-20.5 50.5q0 29 20.5 50t50.5 21q29 0 50 -21t21 -50zM606 683q0 -30 -20.5 -50.5t-50.5 -20.5q-29 0 -50 20.5t-21 50.5q0 29 21 50t50 21q30 0 50.5 -21t20.5 -50zM587 913q0 -19 -14 -33t-33 -14t-33 14t-14 33q0 20 14 33.5t33 13.5t33 -13.5
t14 -33.5zM446 824q0 -20 -14 -34t-33 -14q-20 0 -34 14t-14 34t14 34t34 14q19 0 33 -14t14 -34zM896 386q0 31 -38.5 58t-103.5 47v0q0 -10 -2 -19.5t-5 -18.5q48 -15 76 -35t28 -43q0 -24 -31.5 -45.5t-86.5 -37t-128.5 -25t-156.5 -9.5q-84 0 -157.5 9.5t-128 25
t-86.5 37t-32 45.5q0 33 58.5 60.5t152.5 42.5q0 3 -0.5 6t-0.5 7q0 7 1 13l2 12q-114 -17 -185.5 -52t-71.5 -78q0 -2 0.5 -4t0.5 -4h-1l2 -6v-1l1 -1l88 -326v0q5 -23 34.5 -42.5t77.5 -34t111 -23t134 -8.5t133.5 8.5t110.5 22.5t77.5 33.5t35.5 42.5v0l88 326
q0 1 0.5 2.5t0.5 3.5l2 4h-1q0 2 0.5 3.5t0.5 3.5zM556 487q0 1 -0.5 2t-0.5 2q0 9 2 17.5t5 16.5q-24 2 -49 3.5t-51 1.5q3 -9 5 -18.5t2 -20.5q23 0 44.5 -1t42.5 -3v0z" />
    <glyph glyph-name="uniB028" unicode="bikefee" horiz-adv-x="998" 
d="M331 244q21 -23 33.5 -51t14.5 -58v-6l-42 7v3q-3 20 -11 38t-20 34l-3 2l25 35l3 -4v0zM685 268l5 5l11 -46l-2 -1q-22 -21 -33.5 -48t-11.5 -56q0 -60 42 -102t101 -42q60 0 102 42t42 101q0 60 -42 102t-102 42q-4 0 -9.5 -0.5t-11.5 -0.5l-4 -1l-9 41h5q8 2 15 2.5
t14 0.5q77 0 131.5 -54.5t54.5 -131.5q0 -76 -54.5 -130.5t-131.5 -54.5q-76 0 -130.5 54.5t-54.5 130.5q0 44 19 82.5t54 64.5v0zM217 95l239 -38q1 0 1.5 -0.5t1.5 -0.5h2v0q9 0 17.5 4t14.5 11v1l208 232l15 -66v0l3 -15l49 -85q-2 -4 -3 -8t-1 -9q0 -14 10.5 -25
t25.5 -11t25.5 11t10.5 25q0 13 -8.5 23t-20.5 13l-48 83l-46 204h50q5 0 12 -1.5t12 -4.5t9 -8t4 -18q0 -9 -3 -13.5t-9 -8.5q-6 -5 -14 -7t-11 -3q-3 0 -5 -0.5t-3 -0.5h-9l2 -44l10 1q4 0 15 2t25 8q8 3 26.5 18t18.5 48q1 21 -8.5 38t-26.5 26q-14 8 -29.5 9.5
l-15.5 1.5v0v0h-3.5h-2.5l-84 -1q-9 -1 -14 -7t-5 -15q0 -7 4 -12.5t11 -8.5l8 -35h-286l-15 50q15 1 27 1h13l0.5 -0.5t1.5 -0.5q6 0 11.5 4t5.5 12t-7 12t-12 5q-1 0 -40.5 5t-64.5 7q-14 0 -20.5 -4.5t-9.5 -8.5q-4 -8 -3 -17t5 -16q6 -9 16.5 -9t28.5 4l4 1l19 -63
l-72 -104v0l-21 -32l-67 -97q-15 0 -25 -10.5t-10 -25.5q0 -3 0.5 -5.5t1.5 -5.5l-3 -4l5 -1q5 -9 13.5 -14.5t18.5 -5.5q7 0 13.5 3t11.5 7v0zM316 261v0l51 74l67 -222q-1 -2 -2.5 -4.5t-2.5 -4.5l-200 32l87 125v0zM685 365l2 -9l-208 -232q-1 0 -2 0.5t-2 1.5l-73 239
h283zM195 307q16 0 32 -3t31 -8l6 -2l-23 -33l-2 -3l-3 1q-10 3 -20.5 4.5t-20.5 1.5q-60 0 -102 -42t-42 -101q0 -60 42 -102t102 -42q40 0 75 21.5t53 58.5l2 2l42 -6l-2 -6q-22 -51 -68.5 -81.5t-101.5 -30.5q-77 0 -131.5 54.5t-54.5 131.5q0 76 54.5 130.5t131.5 54.5
v0zM693 787q0 1 -0.5 2t-0.5 2q0 4 -1 8.5t-2 8.5v0.5v1.5q-7 30 -22.5 55.5t-37.5 45.5l-1 1h-1q-5 5 -10 9t-11 7v0.5t-1 0.5l-10 6l-10 6q-1 0 -2 0.5l-3 1.5q-5 2 -11 4.5t-12 4.5h-0.5h-1.5q-5 2 -11 3t-11 2q-2 0 -3.5 0.5t-3.5 0.5q-6 1 -12.5 1.5t-12.5 0.5
q-41 0 -76 -15t-61 -41.5t-41.5 -61.5t-15.5 -75q0 -7 0.5 -13t1.5 -13q0 -1 0.5 -2.5t0.5 -3.5q1 -6 2 -11t3 -10v-2v-1q2 -6 4.5 -12t4.5 -12q1 0 1 -1t1 -2q2 -5 5 -10l6 -10q0 -1 0.5 -1.5l0.5 -0.5q7 -11 15.5 -21t18.5 -19v0v0q26 -23 59 -36t69 -13q59 0 106 31.5
t70 81.5v0q2 4 4 9t4 9v0v1q1 4 2.5 8.5t2.5 9.5v1v1q1 4 2 8.5t1 8.5q0 1 0.5 2t0.5 2q0 5 0.5 10t0.5 11q0 5 -0.5 10t-0.5 10v0zM518 650v-39h-38v36q-19 1 -36.5 6t-27.5 11l11 44q12 -6 28.5 -11.5t34.5 -5.5q17 0 27 6.5t10 17.5t-9.5 18.5t-31.5 14.5
q-30 11 -49 26.5t-19 43.5q0 25 17 43.5t47 24.5v36h38v-33q19 -1 32 -4.5t23 -8.5l-11 -43q-7 3 -20.5 8t-34.5 5q-19 0 -26 -7t-7 -15q0 -9 11 -16t35 -16q34 -12 49 -29t15 -43q0 -25 -17.5 -44.5t-50.5 -25.5z" />
    <glyph glyph-name="uniB030" unicode="safe" 
d="M912 960h-815q-40 0 -68.5 -28.5t-28.5 -68.5v-786q0 -40 28.5 -68.5t68.5 -28.5h11v-14q0 -13 5.5 -21.5t12.5 -8.5h249q7 0 12.5 8.5t5.5 21.5v0v14h226v-14q0 -13 5.5 -21.5t12.5 -8.5h249q7 0 12.5 8.5t5.5 21.5v14h8q41 0 69.5 28.5t28.5 68.5v786q0 40 -28.5 68.5
t-69.5 28.5zM843 46h-677q-40 0 -68.5 28.5t-28.5 68.5v653q0 40 28.5 68.5t68.5 28.5h677q40 0 68.5 -28.5t28.5 -68.5v-653v0q0 -40 -28.5 -68.5t-68.5 -28.5zM843 861h-677q-26 0 -45 -19t-19 -46v-653q0 -26 19 -45t45 -19h677q27 0 46 19t19 45v653q0 27 -19 46t-46 19
v0zM299 266q0 -18 -12.5 -30.5t-30.5 -12.5q-17 0 -29.5 12.5t-12.5 30.5q0 13 7.5 23.5t18.5 15.5v341q-12 5 -19 15.5t-7 24.5q0 17 12.5 29.5t29.5 12.5q18 0 30.5 -12.5t12.5 -29.5q0 -14 -7.5 -24.5t-18.5 -15.5v-341q11 -5 18.5 -15.5t7.5 -23.5v0v0zM596 344
q0 -4 -3.5 -7t-7.5 -3h-29q-4 0 -7 3t-3 7v11q0 4 3 7t7 3h29q4 0 7.5 -3t3.5 -7v-11zM596 410q0 -4 -3.5 -7t-7.5 -3h-29q-4 0 -7 3t-3 7v11q0 4 3 7t7 3h29q4 0 7.5 -3t3.5 -7v-11zM596 477q0 -5 -3.5 -8t-7.5 -3h-29q-4 0 -7 3t-3 8v10q0 4 3 7t7 3h29q4 0 7.5 -3t3.5 -7
v-10zM679 344q0 -4 -3 -7t-7 -3h-29q-4 0 -7 3t-3 7v11q0 4 3 7t7 3h29q4 0 7 -3t3 -7v-11zM679 410q0 -4 -3 -7t-7 -3h-29q-4 0 -7 3t-3 7v11q0 4 3 7t7 3h29q4 0 7 -3t3 -7v-11zM679 477q0 -5 -3 -8t-7 -3h-29q-4 0 -7 3t-3 8v10q0 4 3 7t7 3h29q4 0 7 -3t3 -7v-10z
M763 344q0 -4 -3 -7t-7 -3h-29q-4 0 -7 3t-3 7v11q0 4 3 7t7 3h29q4 0 7 -3t3 -7v-11zM763 410q0 -4 -3 -7t-7 -3h-29q-4 0 -7 3t-3 7v11q0 4 3 7t7 3h29q4 0 7 -3t3 -7v-11zM763 477q0 -5 -3 -8t-7 -3h-29q-4 0 -7 3t-3 8v10q0 4 3 7t7 3h29q4 0 7 -3t3 -7v-10zM764 545
q0 -4 -3 -7t-7 -3h-199q-4 0 -7 3t-3 7v46q0 4 3 7t7 3h199q4 0 7 -3t3 -7v-46z" />
    <glyph glyph-name="uniB031" unicode="sortfilters" horiz-adv-x="960" 
d="M246 215v-45h-159q-33 0 -56 -23t-23 -56t23 -56.5t56 -23.5h159v-44q0 -13 9 -22t22 -9h23q13 0 22 9t9 22v248q0 13 -9 22t-22 9h-23q-13 0 -22 -9t-9 -22v0zM873 11q33 0 56 23.5t23 56.5t-23 56t-56 23h-451v-158h451v-1zM590 572v-45h-503q-33 0 -56 -23t-23 -56
t23 -56t56 -23h503v-45q0 -13 9.5 -22t21.5 -9h24q12 0 21 9t9 22v248q0 13 -9 22t-21 9h-24q-12 0 -21.5 -9t-9.5 -22v0zM873 369q33 0 56 23t23 56t-23 56t-56 23h-107v-158h107zM320 929v-44h-233q-33 0 -56 -23.5t-23 -56.5t23 -56t56 -23h233v-45q0 -13 9 -22t22 -9h23
q13 0 22 9t9 22v248q0 13 -9 22t-22 9h-23q-13 0 -22 -9t-9 -22v0zM873 726q33 0 56 23t23 56t-23 56.5t-56 23.5h-378v-159h378z" />
    <glyph glyph-name="uniB032" unicode="nearme" horiz-adv-x="1040" 
d="M353 453q0 65 47 112t112 47t112 -47t47 -112q0 -66 -47 -113t-112 -47t-112 47t-47 113v0zM754 213q48 48 72 109t24.5 124.5t-22 124.5t-67.5 112q-50 55 -116.5 81.5t-136 25.5t-135.5 -29.5t-115 -83.5q-45 -50 -66 -111.5t-18.5 -125t27.5 -123.5t73 -107
q50 -50 112.5 -74t128 -23.5t128 26t111.5 74.5q45 45 22.5 22.5l-22.5 -22.5v0zM372 240q-39 25 -65 62.5t-38.5 80.5t-9 89t23.5 88q24 52 67 86.5t94 48.5t105.5 7t102.5 -39q40 -26 66.5 -65t38 -83.5t7 -91.5t-26.5 -90q-26 -49 -69 -81.5t-93 -45.5t-103 -5t-100 39
q-2 1 13.5 -9.5t-13.5 9.5v0zM1024 466q-3 79 -30 152.5t-73 135.5t-109.5 108.5t-138.5 71.5q-89 30 -181 25.5t-175 -38.5t-151.5 -95.5t-111.5 -145.5q-35 -70 -47 -146.5t-2.5 -151.5t41 -145.5t83.5 -129.5q58 -67 135.5 -108.5t162.5 -55.5t171.5 0t164.5 58
q61 22 113.5 81.5t82.5 115.5q35 61 51 129.5t14 138.5q-1 5 -0.5 0t0.5 0v0zM249 124q-58 52 -95.5 118t-50.5 137.5t0 145.5t55 142q42 67 103.5 112.5t133.5 67t149 16.5t148 -39q74 -36 127 -96.5t80.5 -134t27.5 -154t-33 -156.5q-33 -77 -92 -133t-132 -86.5
t-154 -32.5t-159 29q-29 12 -56.5 28t-51.5 36l61 -50t-61 50v0z" />
    <glyph glyph-name="uniB033" unicode="signout" horiz-adv-x="960" 
d="M10 411q0 50 9 93.5t24.5 80.5t34.5 67.5t39 53.5v0q40 48 73 72t36 26v0q26 15 55 7.5t44 -33.5v0q15 -26 7.5 -55.5t-32.5 -44.5v0v0v0v0v0l-0.5 -0.5l-0.5 -0.5v0l-1 -0.5l-3 -1.5v0q-2 -2 -6 -5t-10 -7v0q-10 -8 -23.5 -21t-27.5 -30v0q-28 -34 -51 -83.5t-23 -117.5
v0q0 -68 25.5 -127.5t70.5 -104.5v0q44 -45 103 -71t127 -26v0q67 0 126.5 26t103.5 71v0q44 45 69.5 104.5t25.5 127.5v0q0 66 -21 114.5t-49 82.5v0q-25 32 -48.5 50t-26.5 20v0v0v0v0v0v0v0v0v0v0v0q-26 15 -33.5 44.5t7.5 55.5v0q16 26 45 33.5t54 -7.5v0q4 -2 37 -26
t73 -72v0q20 -23 39 -53.5t34 -67.5t24.5 -80.5t9.5 -93.5v0q0 -98 -37 -184.5t-100.5 -151t-149.5 -102t-183 -37.5v0q-98 0 -183.5 37.5t-149 102t-100.5 151t-37 184.5v0v0zM408 448v439q0 30 21 51.5t51 21.5v0q30 0 51 -21.5t21 -51.5v0v-439q0 -30 -21 -51.5
t-51 -21.5v0q-30 0 -51 21.5t-21 51.5v0z" />
    <glyph glyph-name="uniB034" unicode="addbed" horiz-adv-x="1226" 
d="M1167 185q0 15 -11.5 26t-26.5 11h-1089q-16 0 -27 -11t-11 -26v-23v-0.5v-0.5v-187q0 -16 11 -27t26 -11h41q15 0 26 11t11 27v83h934v-83q0 -16 11 -27t27 -11h40q16 0 27 11t11 27v187v1v0v23zM178 741q-24 0 -41 -17.5t-17 -41.5v-277q22 10 47 19t53 17
q-5 5 -8 11.5t-6 13.5l-4 19t-4 56q0 32 4 53l4 21q4 17 13 26t27 14q27 7 56 7.5t56 0.5q28 1 55 1t55 1q11 0 23 -0.5t23 0.5h16.5h16.5q59 0 118 -0.5t118 -1.5q-8 18 -12.5 37.5t-6.5 40.5h-586v0zM965 514q-1 -21 -4 -34.5l-3 -13.5q-1 -7 -4 -13t-7 -11q29 -8 55 -17
t49 -19v106l-18 -2t-18 -1q-13 0 -25.5 1.5t-24.5 3.5zM585 444q-111 0 -209 -13.5t-172 -37t-119 -55t-51 -67.5h1102q-6 36 -51 67.5t-119 55t-172 37t-209 13.5zM1015 960q-42 0 -78 -15.5t-63 -43t-43 -63.5t-16 -78q0 -41 16 -77.5t43 -63.5t63 -42.5t78 -15.5
q41 0 77.5 15.5t63.5 42.5t42.5 63.5t15.5 77.5q0 42 -15.5 78t-42.5 63.5t-63.5 43t-77.5 15.5zM1128 735h-86v-90h-54v90h-86v52h86v89h54v-89h86v-52z" />
    <glyph glyph-name="uniB035" unicode="shuttlefee" horiz-adv-x="1088" 
d="M717 710v-0.5v-0.5q-1 -5 -1 -9.5v-9.5v0v-9t1 -8v-2.5v-2.5q1 -3 2 -7t2 -7v-1.5v-0.5q0 -1 0.5 -1t0.5 -1q1 -3 2.5 -6.5t2.5 -7.5l0.5 -1l0.5 -1q2 -4 4 -7t4 -7v-0.5v-0.5q5 -7 11 -14t12 -13h0.5h0.5q17 -15 39 -24t47 -9q40 0 71.5 21t47.5 55v0q1 3 2.5 6t2.5 7v0
v0l2 6l2 6v1v1q1 2 1.5 5t0.5 6v1.5v1.5q1 3 1 6.5v7.5v6.5t-1 7.5v0.5v1.5v0q0 3 -0.5 6t-1.5 6v0.5v0.5q-5 20 -15.5 37.5t-25.5 30.5q0 1 -0.5 1h-0.5q-3 3 -6.5 6t-7.5 5h-0.5h-0.5q-3 3 -6.5 4.5t-7.5 3.5q0 1 -1 1t-2 1q-3 1 -7 2.5t-9 3.5v0h-1q-3 1 -7 2t-8 1
q-1 1 -2 1h-2q-5 1 -9 1h-9q-48 0 -84.5 -31t-44.5 -78v0v-1v0zM769 771q5 5 12 5t12 -5l50 -50l0.5 0.5t1.5 0.5l78 18v0h1h2h2h0.5h0.5h0.5t1.5 -1q1 0 2.5 -0.5t2.5 -1.5l0.5 -0.5l0.5 -0.5v0v0v0v0l6 -6q2 -2 2 -5.5t-3 -6.5l-3 -3q-2 -3 -6.5 -5.5t-7.5 -4.5l-45 -18
h-1.5h-1.5l25 -25l33 5h1v0l0.5 -0.5t1.5 -0.5v0h1h0.5h0.5q1 -1 2 -1.5t2 -0.5l3 -4q2 -1 2 -3.5t-1 -3.5v0l-2 -1q-1 -2 -3.5 -3.5t-4.5 -1.5l-19 -6q2 -4 0.5 -8.5t-4.5 -7.5q-1 -2 -3 -3t-4 -1q0 -1 -1 -1h-1v0v0v0v0h-3.5h-3.5q1 0 2 -0.5t2 -0.5v0v0.5v0.5v-0.5v-0.5
q-1 0 -2 0.5t-2 0.5l-6 -19q-1 -2 -2 -4.5t-3 -3.5l-1 -1l-1.5 -1.5t-1.5 -0.5v0h-1v0v0q-1 0 -2 0.5t-1 1.5l-4 4q-1 1 -2 3.5t-1 4.5l5 33l-25 25v-1.5t-1 -1.5l-17 -44q-2 -4 -5 -8t-5 -7l-3 -3q-2 -1 -3.5 -2t-3.5 -1v0v0q-1 0 -3 0.5t-3 1.5l-5 6q-3 3 -4 7t0 8l18 78
v0.5t1 1.5l-50 49q-5 5 -5 12.5t5 12.5v0zM904 620v0v0v0v0zM266 106v0q-35 0 -59.5 -24.5t-25.5 -59.5v-0.5v-0.5q0 -35 25 -60t60 -25v0v0q35 0 60 25t25 60v0v0q0 35 -25 60t-60 25v0zM307 21v0q0 -17 -12 -29t-29 -12v0v0q-16 0 -28 12t-12 28v1q0 17 11.5 28.5
t28.5 11.5t29 -11.5t12 -28.5v0v0v0zM820 106v0q-35 0 -60 -25t-25 -60v0v0q0 -35 25 -60t60 -25v0v0q35 0 60 25t25 60v0v0v0q0 35 -25 60t-60 25zM860 21v0q0 -17 -12 -29t-28 -12v0v0q-17 0 -28.5 12t-12.5 28v1q0 17 12 28.5t29 11.5t28.5 -11.5t11.5 -28.5v0v0z
M990 486v0h-123l-207 -1h-30l-238 -1h-12h-12h-30h-31q-19 0 -38.5 0.5t-38.5 0.5h-38h-38q-20 -1 -41.5 -1.5t-38.5 -12.5q-13 -9 -20 -22.5t-13 -26.5q-10 -27 -18.5 -53.5t-14.5 -54.5q-4 -18 -6 -37t-2 -38v-10v-7v-109v-84q0 -17 10.5 -26t23.5 -9h128q-2 7 -2.5 13.5
t-0.5 13.5v0.5v0.5q0 44 31.5 75t75.5 31t75.5 -31.5t31.5 -75.5q0 -7 -1 -13.5t-2 -13.5h239h106q-2 6 -3 13t-1 14q0 44 31.5 75.5t76.5 31.5q44 0 75.5 -31.5t31.5 -75.5q0 -8 -1 -15t-3 -13l153 48l3 368q0 30 -29.5 54t-58.5 23v0zM159 279v0h-88q-10 0 -17 7t-7 17
q2 33 9 57.5t13 46.5q3 9 12 16.5t19 7.5h59q10 0 17 -7t7 -17v-104q0 -10 -7 -17t-17 -7v0zM461 305q0 -10 -7 -17t-16 -7h-189q-10 0 -17 7t-7 17v98q0 10 7 17t17 7h189q9 0 16 -7t7 -17v-98v0zM740 305q0 -10 -7 -17t-16 -7h-189q-10 0 -17 7t-7 17v98q0 10 7 17t17 7
h189q9 0 16 -7t7 -17v-98zM1019 305q0 -10 -7 -17t-17 -7h-188q-10 0 -17 7t-7 17v98q0 10 7 17t17 7h188q10 0 17 -7t7 -17v-98zM579 640v0v0zM364 727q1 -5 2 -10.5t3 -11.5v-1t1 -2q1 -6 3.5 -12t5.5 -12q0 -1 0.5 -2t0.5 -2l6 -10l6 -10q0 -1 0.5 -1.5l0.5 -0.5
q7 -12 16 -22t19 -19v0v-1q27 -23 61 -36.5t72 -13.5q41 0 76.5 15.5t62.5 41.5q0 1 -0.5 1.5t-0.5 1.5l-2 3l-4 10t-3 10l-1 2q-1 5 -2 9t-1 9q-1 1 -1 2.5v2.5q-1 6 -1.5 11.5t-0.5 10.5q0 40 18.5 74.5t49.5 56.5q-9 26 -23.5 48.5t-34.5 40.5l-0.5 0.5l-0.5 0.5
q-5 4 -10.5 8.5t-10.5 7.5q-1 0 -1 0.5v0.5q-6 3 -11 6t-11 6q-1 0 -2 0.5t-2 1.5q-6 3 -12 5t-13 4l-0.5 0.5t-1.5 0.5q-5 1 -11 2.5t-12 2.5q-2 0 -3.5 0.5t-3.5 0.5q-6 1 -12.5 1.5t-13.5 0.5q-41 0 -77.5 -15.5t-64 -43t-43 -64t-15.5 -77.5q0 -7 0.5 -13.5t1.5 -12.5
q0 -2 0.5 -3.5t0.5 -3.5v0zM546 741q-31 11 -51 27t-20 45q0 26 17.5 45t49.5 25v38h39v-35q19 0 33 -4t24 -9l-11 -44q-8 3 -22 8t-35 5q-19 0 -26.5 -7t-7.5 -15q0 -10 11 -17.5t37 -16.5q35 -12 50 -29.5t15 -44.5q0 -26 -18 -46.5t-52 -25.5v-41h-39v37q-20 1 -38 6
t-29 11l12 47q12 -7 29 -12.5t36 -5.5q18 0 28.5 6.5t10.5 18.5q0 11 -10 19t-33 15v0zM815 594v0v0q-1 0 -2.5 0.5t-3.5 1.5q1 -1 2.5 -1.5t3.5 -0.5z" />
    <glyph glyph-name="uniB036" unicode="comparison" 
d="M511 960q-106 0 -199 -40t-162.5 -109.5t-110 -163t-40.5 -199.5t40.5 -199.5t110 -163t162.5 -109.5t199 -40t199.5 40t163 109.5t109.5 163t40 199.5t-40 199.5t-109.5 163t-163 109.5t-199.5 40v0zM749 691q1 0 1 -0.5v-0.5q4 -2 6.5 -5t3.5 -6l108 -298
q3 -8 -1 -16.5t-12 -11.5q-9 -3 -17.5 0.5t-11.5 12.5l-74 205v0.5v0.5q-2 5 -4.5 7.5t-9.5 2.5t-10 -4t-3 -5l-83 -210q-3 -7 -8.5 -10.5t-12.5 -3.5q-2 0 -4 0.5t-4 0.5q-8 4 -11.5 12.5t-0.5 16.5l110 279h-62l-58 102q49 -7 85.5 -24t72.5 -45v0zM156 379l118 300
q2 4 4.5 7t5.5 5h0.5h0.5q34 27 70.5 44t84.5 24l-57 -101h-60l100 -277q3 -8 -0.5 -16.5t-12.5 -11.5t-17 0.5t-11 12.5l-74 205h-1v1q-2 5 -4.5 7.5t-8.5 2.5t-9.5 -3t-4.5 -5l-83 -211q-2 -7 -8 -10.5t-12 -3.5q-2 0 -4 0.5t-4 0.5q-9 4 -12.5 12.5t-0.5 16.5v0zM290 171
q-57 0 -97.5 40.5t-40.5 97.5v6v6h275q0 -3 0.5 -6t0.5 -6q0 -57 -40.5 -97.5t-97.5 -40.5zM437 658q-3 0 -6 1.5t-4 4.5q-2 2 -2 5.5t2 5.5l3 7l76 131q3 6 10 6t10 -6l79 -138q1 -2 1 -5.5t-1 -5.5q-2 -3 -4.5 -4.5t-5.5 -1.5h-158v0zM733 171q-57 0 -97.5 40.5
t-40.5 97.5v6t1 6h274q1 -3 1 -6v-6q0 -57 -40.5 -97.5t-97.5 -40.5v0z" />
    <glyph glyph-name="uniB037" unicode="smoking" horiz-adv-x="1040" 
d="M512 960q-106 0 -199.5 -40t-163 -109.5t-109.5 -163t-40 -199.5t40 -199.5t109.5 -163t163 -109.5t199.5 -40t199.5 40t162.5 109.5t109.5 163t40.5 199.5t-40.5 199.5t-109.5 163t-162.5 109.5t-199.5 40v0v0zM762 344h-15h-3l-593 -1q-8 0 -14 6t-6 15v54q0 8 6 14
t14 6l611 1q9 0 14.5 -6t5.5 -14v-55q0 -8 -5.5 -14t-14.5 -6v0v0zM797 486q2 21 -20.5 56t-118.5 65q-124 38 -148.5 101.5t-24.5 79.5q0 7 5 12.5t13 5.5q7 0 12 -5t5 -13q0 -13 21 -64t127 -83q118 -37 142 -84.5t22 -70.5q0 -1 -0.5 -1t-0.5 -1q0 -6 -4.5 -11t-10.5 -5
l-0.5 -0.5t-1.5 -0.5h-1q-7 1 -12 6.5t-4 12.5v0zM821 344h-4q-5 0 -9 4t-4 9v66q0 5 3.5 9t9.5 4h4q6 0 9.5 -4t3.5 -9v-66q0 -5 -3.5 -9t-9.5 -4v0v0zM853 492v1q3 25 -17 76t-122 81q-119 36 -142.5 85.5t-23.5 61.5q0 4 1.5 7t3.5 5q3 3 6 4.5t7 1.5q7 0 12 -5t5 -13
q1 -12 22.5 -48t118.5 -65q131 -40 148 -111t16 -83q0 -6 -4.5 -11t-10.5 -5q-1 -1 -1.5 -1h-0.5h-1q-7 1 -12 6t-5 13v0v0zM877 344h-4q-6 0 -10 4t-4 9v66q0 5 4 9t10 4h4q5 0 9 -4t4 -9v-66q0 -5 -4 -9t-9 -4v0v0z" />
    <glyph glyph-name="uniB038" unicode="airconditioning" horiz-adv-x="928" 
d="M422 758q1 -1 3 -2l4 -2v-183q0 -15 10.5 -25.5t25.5 -10.5t25.5 10.5t10.5 25.5v184q1 1 2.5 1.5t2.5 1.5l88 88q10 10 10 25t-10 26q-11 10 -26 10t-25 -10l-42 -42v69q0 15 -10.5 25.5t-25.5 10.5t-25.5 -10.5t-10.5 -25.5v-71l-44 44q-10 10 -25 10t-25 -10
q-11 -11 -11 -26t11 -25l87 -88v0zM506 138q-1 1 -3 2l-4 2v182q0 15 -10.5 25.5t-25.5 10.5t-25.5 -10.5t-10.5 -25.5v-183q-1 -1 -2.5 -1.5t-2.5 -1.5l-88 -88q-10 -10 -10 -25t10 -26q6 -5 12.5 -7.5t13.5 -2.5t13.5 2.5t11.5 7.5l42 42v-69q0 -15 10.5 -25.5t25.5 -10.5
t25.5 10.5t10.5 25.5v71l43 -44q6 -5 12.5 -7.5t13.5 -2.5t13.5 2.5t11.5 7.5q11 11 11 26t-11 25l-87 88v0zM899 582l-56 18l62 31q13 7 17.5 21t-1.5 28q-7 13 -21.5 17.5t-27.5 -2.5l-63 -32l19 59q5 14 -2 27t-21 18t-27.5 -2t-17.5 -21l-39 -118v-4t-1 -4l-163 -83
q-13 -7 -18 -21t2 -28q5 -9 14 -14t18 -5q4 0 8.5 1t8.5 3l164 83q1 0 2.5 -1t3.5 -2l117 -38q3 -1 5.5 -1.5t5.5 -0.5q12 0 21.5 7t12.5 18q5 14 -1.5 27.5t-21.5 18.5v0zM369 360q13 7 17.5 21t-2.5 27q-6 14 -20.5 18.5t-27.5 -2.5l-162 -82q-2 0 -3 1t-3 2l-117 38
q-14 4 -27.5 -2.5t-17.5 -20.5q-5 -14 1.5 -27.5t21.5 -18.5l56 -18l-62 -31q-13 -7 -17.5 -21t1.5 -28q5 -9 14 -14t18 -5q5 0 9 1t8 3l63 32l-19 -59q-5 -14 2 -27t21 -18q3 -1 5.5 -1.5t5.5 -0.5q12 0 21.5 7t12.5 18l39 118v4t1 4l161 82v0zM916 329q-4 15 -17 22.5
t-27 3.5l-120 -30q-2 0 -4 -1t-3 -2l-157 93q-13 8 -27.5 4t-21.5 -17q-8 -12 -4.5 -26.5t16.5 -22.5l158 -94q0 -1 -0.5 -3t0.5 -3l30 -120q3 -12 13 -19.5t22 -7.5h4.5t4.5 1q14 4 22 16.5t4 27.5l-14 57l59 -35q4 -3 9 -4.5t9 -1.5q9 0 17.5 4.5t13.5 13.5q8 13 4.5 27.5
t-16.5 21.5l-61 37l59 15q15 3 22.5 16t4.5 27v0zM12 567q3 -13 13 -20.5t22 -7.5q2 0 4.5 0.5t4.5 1.5l120 30q2 0 4 1t3 2l157 -93q4 -3 9 -4t9 -1q10 0 18 4.5t13 13.5q8 12 4.5 26.5t-16.5 22.5l-158 94v3v3l-30 120q-4 14 -16.5 22t-27.5 4q-14 -4 -22 -16.5t-4 -27.5
l14 -57l-59 35q-13 8 -27.5 4.5t-21.5 -16.5q-8 -13 -4.5 -27.5t16.5 -21.5l61 -37l-60 -15q-14 -3 -21.5 -16t-4.5 -27v0z" />
    <glyph glyph-name="uniB039" unicode="currency" 
d="M474 748v2v2q-1 6 -2 11t-2 11v0.5t-1 1.5q-8 36 -27 68t-47 56q0 1 -0.5 1t-0.5 1q-6 5 -12.5 10t-13.5 9l-0.5 0.5l-0.5 0.5q-6 4 -12.5 7.5t-12.5 6.5l-3 1.5l-3 1.5q-7 3 -14 5.5t-14 5.5h-1.5h-1.5q-6 2 -13 3.5t-14 2.5q-2 1 -4 1t-4 1q-8 1 -16 1.5t-16 0.5
q-49 0 -92 -18.5t-75.5 -51t-51 -75.5t-18.5 -92q0 -8 0.5 -15.5t1.5 -15.5q1 -2 1 -4t1 -4q1 -7 2.5 -13.5t2.5 -12.5q1 -1 1 -2v-2q3 -7 5.5 -14t5.5 -14q1 -1 1.5 -2.5t0.5 -2.5q3 -6 6.5 -12t7.5 -12q0 -1 0.5 -1.5l0.5 -0.5q9 -14 19.5 -26t22.5 -23v0v0q32 -28 72 -44
t85 -16q72 0 129.5 38t85.5 99l1 1v0v0q2 5 4.5 11t4.5 12v0v0q2 5 3.5 11t2.5 12l0.5 0.5t0.5 1.5q1 5 2 10.5t1 10.5q1 1 1 2v2q1 7 1.5 13t0.5 13q0 6 -0.5 12.5t-1.5 12.5v0v0zM260 580v-48h-46v44q-24 2 -45.5 7.5t-34.5 13.5l14 54q15 -8 35 -14t43 -6q20 0 32.5 7.5
t12.5 21.5q0 13 -12 22.5t-38 17.5q-37 13 -60.5 32.5t-23.5 53.5q0 31 20.5 53.5t58.5 29.5v45h46v-41q23 -1 39.5 -5.5t28.5 -10.5l-14 -53q-9 4 -25.5 10.5t-41.5 6.5q-23 0 -32 -8.5t-9 -18.5q0 -11 13.5 -20t43.5 -20q42 -15 60 -35.5t18 -52.5q0 -31 -21.5 -55
t-61.5 -31v0zM1021 750v2v2q-1 6 -2 11l-2 10v1.5v0.5q-9 37 -28 68.5t-46 55.5l-0.5 0.5l-0.5 0.5q-6 6 -12.5 10.5t-13.5 9.5h-0.5h-0.5q-6 4 -12 7.5t-13 6.5q-1 1 -2.5 1.5t-2.5 1.5l-14 6t-15 5h-0.5h-1.5q-7 2 -13.5 3.5t-13.5 3.5q-2 0 -4 0.5t-4 0.5q-8 1 -15.5 1.5
t-15.5 0.5q-49 0 -92 -18.5t-74.5 -50.5t-50 -74.5t-18.5 -91.5q0 -8 0.5 -15.5t1.5 -15.5q0 -2 0.5 -4t0.5 -4q1 -6 2.5 -12.5t3.5 -12.5v-2t1 -2q2 -7 4.5 -14t5.5 -14q1 -1 1.5 -2.5t0.5 -2.5q3 -6 6.5 -12t7.5 -12q0 -1 0.5 -1.5l0.5 -0.5q9 -14 19.5 -26t21.5 -22
l0.5 -0.5l0.5 -0.5q31 -27 71 -43t85 -16q71 0 128 38t85 98v0v0q3 6 5 12t4 11v0.5v0.5q2 5 3.5 10.5t3.5 11.5v1.5v0.5q1 5 2 10.5t2 11.5v2v2q1 6 1.5 12.5t0.5 12.5t-0.5 12.5t-1.5 12.5v0v0zM811 561q-36 0 -67.5 14.5t-51.5 41.5q-10 12 -17 28t-10 35h-32v35h27v4v4
v7.5v7.5h-27v34h33q4 20 13 36.5t20 30.5q21 23 49.5 36.5t63.5 13.5q22 0 41 -4.5t32 -10.5l-14 -56q-9 5 -23.5 8.5t-30.5 3.5q-17 0 -32.5 -6.5t-27.5 -19.5q-5 -6 -9 -14t-6 -18h121v-34h-129v-8v-8v-4v-3h129v-35h-122q2 -11 6 -19.5t10 -14.5q11 -13 27.5 -19t35.5 -6
q16 0 32 4.5t23 8.5l12 -54q-12 -7 -32.5 -13t-43.5 -6v0v0zM471 196v2v2q-1 6 -2 11l-2 10v1.5v0.5q-9 37 -28 68.5t-46 55.5l-0.5 0.5l-0.5 0.5q-6 5 -12.5 10t-12.5 9q-1 0 -1 0.5t-1 0.5q-6 4 -12 7.5t-13 6.5q-1 1 -2 1.5t-3 0.5q-7 4 -14 6.5t-14 4.5q-1 1 -1.5 1
h-1.5q-6 2 -13 3.5t-14 2.5q-2 0 -4 0.5t-4 0.5q-7 1 -15 2t-16 1q-48 0 -91 -18.5t-74.5 -50.5t-50 -74.5t-18.5 -91.5q0 -8 0.5 -15.5t1.5 -14.5q0 -2 0.5 -4t0.5 -4q1 -7 2.5 -13.5t3.5 -12.5q0 -1 0.5 -2l0.5 -1q2 -8 4.5 -15t6.5 -14q0 -1 0.5 -2t1.5 -2l6 -12t7 -12
q0 -1 0.5 -1.5t0.5 -1.5q9 -13 19.5 -25t21.5 -23h1v0q31 -28 71 -43.5t84 -15.5q71 0 128 38t85 98v0v0q3 6 5 11.5t4 11.5v0v0q2 6 3.5 11.5t3.5 11.5v0.5v1.5l2 10t2 11v2v2q1 6 1.5 12.5t0.5 12.5q0 7 -0.5 13t-1.5 12v0v0zM337 28h-215v38q18 8 35 26.5t17 43.5v9t-1 9
h-46v49h38q-2 9 -3 19t-1 20q0 44 29.5 71t76.5 27q19 0 33.5 -3.5t21.5 -8.5l-11 -54q-7 4 -17 6.5t-23 2.5q-25 0 -34.5 -13.5t-9.5 -31.5q0 -9 1.5 -17.5t3.5 -17.5h65v-49h-59q0 -8 -1 -16.5t-3 -16.5q-3 -9 -9 -17.5t-14 -16.5v-1h126v-58v0zM1021 197v1v2q-1 6 -2 11
t-2 11v0.5v1.5q-9 36 -28 67.5t-46 55.5l-0.5 0.5t-0.5 1.5q-6 5 -12.5 9.5t-13.5 9.5h-0.5t-0.5 1q-6 3 -12 6.5t-13 7.5q-1 0 -2.5 1t-2.5 1l-14 6t-15 5h-0.5t-1.5 1q-7 2 -13.5 3.5t-13.5 2.5q-2 0 -4 0.5t-4 0.5q-8 1 -15.5 1.5t-15.5 0.5q-49 0 -92 -18.5t-74.5 -50
t-50 -74.5t-18.5 -92q0 -8 0.5 -15.5t1.5 -15.5q0 -1 0.5 -3t0.5 -4q1 -7 2.5 -13.5t3.5 -12.5v-2t1 -2q2 -7 4.5 -14t5.5 -14q1 -1 1.5 -2t0.5 -2q3 -7 6.5 -13t7.5 -12l0.5 -0.5t0.5 -1.5q9 -13 19 -25.5t22 -22.5h0.5t0.5 -1q31 -27 71 -43t85 -16q71 0 128 38t85 99v0v0
q3 5 5 11l4 12v0v0q2 5 3.5 11t3.5 11v1.5v1.5l2 10t2 11v2v2q1 6 1.5 12.5t0.5 12.5q0 7 -0.5 13t-1.5 13v0v0zM892 178v-32h-73v-30h73v-33h-73v-74h-66v74h-72v33h72v30h-72v32h55l-75 131h75l33 -74q6 -13 10.5 -25.5t8.5 -24.5h1q5 12 9.5 24.5t10.5 26.5l33 73h74
l-79 -131h55v0z" />
    <glyph glyph-name="uniB040" unicode="shuttle" horiz-adv-x="1088" 
d="M265 105q-34 0 -59 -24.5t-25 -59.5v0v-1q0 -35 24.5 -59.5t59.5 -24.5v0v0q35 0 59.5 24.5t25.5 59.5v0v0q-1 35 -25.5 60t-59.5 25v0zM305 20q0 -16 -11.5 -28t-28.5 -12v0v0q-16 0 -27.5 11.5t-12.5 27.5v1q0 17 12 28.5t28 11.5q17 0 28.5 -11.5t11.5 -28.5v0v0z
M815 105q-35 0 -59.5 -25t-24.5 -60v0v0q0 -35 24.5 -59.5t59.5 -24.5v0v0q35 0 59.5 24.5t24.5 59.5v0v0v0q0 35 -24.5 60t-59.5 25v0zM855 20q0 -16 -11.5 -28t-28.5 -12v0v0q-17 0 -28.5 11.5t-11.5 27.5v1q0 17 11.5 28.5t28.5 11.5t28.5 -11.5t11.5 -28.5v0v0zM984 482
h-122l-205 -1h-31l-235 -1h-12.5h-12.5h-30h-30q-19 0 -38.5 0.5t-38.5 0.5h-37.5h-37.5q-20 0 -41 -1t-39 -13q-12 -9 -19.5 -22t-12.5 -27q-11 -26 -19 -52.5t-14 -53.5q-4 -19 -6 -37.5t-2 -37.5v-10v-7v-108v-84q0 -17 10.5 -25.5t22.5 -8.5h128q-2 6 -2.5 12.5
t-0.5 13.5v1v0q0 44 31 75t75 31t75 -31.5t31 -75.5q0 -7 -1 -13.5t-2 -12.5h237l106 -1q-2 7 -3 13.5t-1 13.5q0 44 31.5 75.5t75.5 31.5t75 -31.5t31 -75.5q0 -7 -1 -14t-3 -14l153 49l2 365q0 29 -29 53t-58 23v0zM159 276h-87q-10 0 -17.5 7t-6.5 17q2 33 8.5 57.5
t13.5 45.5q3 10 11.5 17t18.5 7h59q10 0 17 -7t7 -16v-104q0 -10 -7 -17t-17 -7v0zM249 279q-10 0 -17 6.5t-7 16.5v98q0 9 7 16t17 7h187q9 0 16 -7t7 -16v-98q0 -10 -7 -16.5t-16 -6.5h-187zM736 302q0 -10 -7 -16.5t-17 -6.5h-186q-10 0 -17 6.5t-7 16.5v98q0 9 7 16
t17 7h186q10 0 17 -7t7 -16v-98zM1013 302q0 -10 -7 -16.5t-17 -6.5h-187q-9 0 -16 6.5t-7 16.5v98q0 9 7 16t16 7h187q10 0 17 -7t7 -16v-49v-49zM759 785v1.5v1.5q-1 5 -1.5 9.5t-1.5 8.5l-0.5 0.5t-0.5 1.5q-7 30 -22.5 56.5t-38.5 46.5l-0.5 0.5l-0.5 0.5q-5 4 -10.5 8
t-10.5 8h-1v1q-5 3 -10.5 6t-10.5 5q-1 1 -2.5 1.5t-2.5 0.5q-5 3 -11 5.5t-12 3.5q-1 1 -1.5 1h-0.5q-6 2 -11.5 3t-11.5 2q-2 0 -3.5 0.5t-3.5 0.5q-6 1 -12.5 1.5t-13.5 0.5q-40 0 -76 -15.5t-62.5 -42t-42 -62t-15.5 -76.5q0 -7 0.5 -13t1.5 -13q0 -1 0.5 -3t0.5 -3
q1 -6 2 -11t3 -11v-1t1 -2q1 -6 3.5 -12t4.5 -11q1 -1 1.5 -2t0.5 -2q3 -5 5.5 -10t5.5 -10q1 -1 1 -1.5v-0.5q8 -11 16.5 -21.5t18.5 -18.5v-0.5v-0.5q26 -23 59.5 -36t70.5 -13q59 0 107 31.5t71 82.5v0v0q2 4 4 9l4 10v0v0q1 5 2.5 9.5t2.5 9.5l0.5 0.5t0.5 1.5
q1 4 1.5 8.5t1.5 8.5v2v2q1 5 1 10v11v10.5t-1 10.5v0zM716 709l-2 -2q-2 -2 -5.5 -4t-5.5 -3l-29 -9q2 -7 0 -13.5t-7 -11.5t-11.5 -6.5t-12.5 -0.5l-9 -28q-1 -3 -3 -6.5t-4 -5.5l-2 -2q-2 -2 -5 -2t-6 2l-5 6q-2 2 -3.5 5.5t-0.5 6.5l6 50l-37 37v-2t-1 -2l-26 -67
q-3 -5 -7 -11.5t-8 -10.5l-5 -4q-4 -4 -9 -4.5t-9 3.5l-9 9q-3 3 -5 9.5t-1 11.5l28 117q0 1 0.5 1.5t0.5 1.5l-75 75q-8 8 -8 18.5t8 18.5q8 7 18.5 7t18.5 -7l74 -75q1 0 1.5 0.5t1.5 0.5l117 28q5 1 11.5 -1t10.5 -5l8 -9q4 -4 3.5 -9.5t-4.5 -9.5l-4 -4
q-4 -4 -10.5 -8.5t-11.5 -6.5l-67 -26q-1 -1 -2 -1t-2 -1l37 -37l50 7q3 1 6.5 -0.5t6.5 -3.5l5 -5q2 -3 2 -6t-2 -5v0z" />
    <glyph glyph-name="uniB041" unicode="breakfast" horiz-adv-x="1030" 
d="M614 304l347 156q11 5 22 0.5t16 -15.5l7 -21.5t10 -60t-3.5 -90.5t-33.5 -113q-3 -5 -19 -21.5t-42 -10.5l-286 63q-11 2 -21 12.5t-12 22.5l-6 38q-2 12 4.5 24t16.5 16v0v0zM560 51q27 17 39.5 34.5l12.5 17.5q6 11 18.5 16t23.5 1l187 -54q32 -9 23 -23l-9 -14
q-40 -31 -99 -66t-131 -25q-88 13 -90.5 54.5t25.5 58.5v0v0zM1014 601l-9.5 21t-29.5 54t-51.5 73.5t-75.5 79.5q-45 38 -89.5 63t-80 40t-58 21l-22.5 6q-11 3 -22 -3.5t-14 -17.5l-134 -445q-4 -12 0 -25.5t13 -21.5l13.5 -11.5t30.5 -26.5t30.5 -26.5l13.5 -11.5
q9 -7 23 -9t25 3l421 198q11 5 15.5 16.5t0.5 22.5v0v0zM599 707l-4 2t-4 3q-6 5 -8 12.5t1 15.5l42 115q3 10 12.5 14.5t19.5 0.5q10 -3 14.5 -12.5t1.5 -19.5l-42 -116q-4 -10 -13.5 -14.5t-19.5 -0.5v0v0zM475 891q3 12 -3 22t-17 13l-22.5 4t-60.5 1.5t-89 -16.5
t-107 -50q-5 -4 -18.5 -22t-4.5 -43l104 -273q4 -12 15.5 -20t23.5 -8l39 -1q12 0 23 8t14 19zM270 744q-7 -2 -13.5 -0.5t-10.5 5.5q-3 2 -5 5t-3 7l-18 56q-3 10 2 19.5t15 12.5t19.5 -2t12.5 -15l18 -56q3 -10 -2 -19.5t-15 -12.5v0zM173 494q10 7 13 20t-2 24l-81 176
q-14 31 -26.5 20l-12.5 -11q-24 -44 -50.5 -107.5t-5.5 -132.5q25 -86 67 -82t54 33q13 29 28.5 44.5l15.5 15.5v0v0zM98 584q-7 -4 -15 -3.5t-14 5.5q-2 2 -3 3.5t-3 3.5l-7 14q-5 9 -2.5 19t12.5 15q9 6 19 3t15 -12l8 -14q5 -9 2.5 -19t-12.5 -15v0z" />
    <glyph glyph-name="uniB042" unicode="pool" horiz-adv-x="1653" 
d="M1634 281q-4 4 -62.5 45t-164.5 67t-257.5 11t-343.5 -122q-175 -98 -313 -111t-234 11t-147.5 61t-52.5 38q-10 10 -24.5 9.5t-24.5 -10.5q-10 -11 -10 -25.5t11 -24.5q1 -1 27.5 -22t77 -46t123.5 -45.5t166 -20.5v0q46 0 96 6t104.5 21t113.5 39t121 59
q176 98 314 112t234 -8.5t147 -58t52 -36.5q10 -10 24.5 -9.5t24.5 10.5q10 11 9.5 25.5t-11.5 24.5v0zM1435 226q-59 17 -122 23t-128 0q-46 -5 -93 -15t-94 -25.5t-95 -37t-97 -48.5q-61 -34 -120.5 -58t-118 -38.5t-115.5 -19t-112 1.5q-47 5 -92.5 17.5t-86.5 31.5
q-13 6 -27 1t-20 -18t-1 -26.5t18 -19.5q47 -22 98 -36t104 -19q17 -2 35 -3t35 -1v0q53 0 107 8t108.5 23.5t110 39.5t111.5 55q46 25 90.5 45t88.5 35t87 24t85 13q59 5 115.5 0t109.5 -20q13 -4 26 3t17 21q4 13 -3 26t-21 17v0zM1174 590q66 -39 139 -20t112 85v0
q38 65 19 138t-84 112q-65 38 -138.5 19t-112.5 -84q-38 -65 -19 -138.5t84 -111.5zM776 360v0q47 26 91.5 46t86.5 35t81.5 24.5t76.5 15.5q0 5 -1.5 10.5t-2.5 11.5q-17 50 -43 96t-59 88q-46 58 -88.5 118t-86.5 119q-5 8 -11.5 13.5t-14.5 10.5q-11 8 -25.5 11t-29.5 -1
l-307 -88q-28 -7 -43.5 -31.5t-8.5 -52.5v0l1 -6q7 -28 32 -43t53 -8l225 40l73 -108q-72 -48 -143.5 -96.5t-143.5 -96.5t-145 -93.5t-148 -88.5q44 -21 97 -36.5t122 -12.5t157.5 30.5t204.5 92.5v0z" />
    <glyph glyph-name="uniB043" unicode="ratebooking" horiz-adv-x="832" 
d="M343 301q-2 -73 -25.5 -116.5t-51.5 -67t-50.5 -30.5l-22.5 -7v-1h-35q-6 0 -11 -4.5t-5 -10.5v-113q0 -6 5 -10.5t11 -4.5h514q6 0 10.5 4.5t4.5 10.5v113q0 6 -4.5 10.5t-10.5 4.5h-38q-14 3 -78 43.5t-70 171.5v6q-41 -24 -78 -20t-65 21v0zM562 34q7 0 11.5 -4.5
t4.5 -10.5v-10q0 -7 -4.5 -11.5t-11.5 -4.5h-293q-7 0 -11.5 4.5t-4.5 11.5v10q0 6 4.5 10.5t11.5 4.5h293zM822 897h-124q1 29 0.5 46l-0.5 17h-566l-0.5 -17t0.5 -46h-122q-2 -71 4 -132.5l6 -61.5q16 -84 47.5 -139.5t67.5 -89.5t72 -50t62 -22q16 -20 34 -37.5t39 -31.5
q30 -15 67 -18.5t80 19.5q21 13 39 30.5t34 36.5q25 6 61.5 22.5t72.5 50.5t67.5 89.5t48.5 139.5l6 61.5t4 132.5zM86 821h50q3 -34 8 -71.5t13 -77.5t19.5 -80t27.5 -79q-44 27 -68 78.5t-35 102.5t-13 89l-2 38v0zM409 384q-3 -4 -7 -5.5t-9 -1.5q-3 0 -6.5 1.5t-6.5 3.5
q-70 62 -105 147t-49 163.5t-14 135t1 61.5q0 9 6.5 14.5t14.5 4.5q9 0 14.5 -6.5t5.5 -14.5q0 -2 -0.5 -54.5t12.5 -127t45 -155t96 -137.5q6 -6 6.5 -14.5t-4.5 -14.5zM626 513q16 38 27.5 78.5t20 80t13 77.5t7.5 72h52l-2 -38.5t-13.5 -89.5t-35.5 -102.5t-69 -77.5v0z
" />
    <glyph glyph-name="uniB044" unicode="camera" horiz-adv-x="1306" 
d="M1198 852h-256l-25 66q-9 21 -26 31.5t-34 10.5h-401q-17 0 -34.5 -10.5t-26.5 -31.5l-24 -66h-257q-43 0 -73.5 -30.5t-30.5 -73.5v-707q0 -44 30.5 -74.5t73.5 -30.5h1084q43 0 73.5 30.5t30.5 74.5v707q1 43 -30 73.5t-74 30.5zM660 82q-64 0 -120.5 24t-98.5 66
t-66 98.5t-24 120.5t24 120t66 98t98.5 66.5t120.5 24.5q63 0 119.5 -24.5t98.5 -66.5t66 -98t24 -120t-24 -120.5t-66 -98.5t-98.5 -66t-119.5 -24v0zM1135 604q-30 0 -51 21.5t-21 50.5q0 30 21 51t51 21q29 0 50.5 -21t21.5 -51q0 -29 -21.5 -50.5t-50.5 -21.5zM660 630
q-50 0 -93.5 -19t-76 -51.5t-51 -76t-18.5 -92.5q0 -50 18.5 -93.5t51 -76t76 -51t93.5 -18.5q49 0 92.5 18.5t76 51t51.5 76t19 93.5q0 49 -19 92.5t-51.5 76t-76 51.5t-92.5 19zM675 500q-48 0 -82.5 -34.5t-34.5 -82.5q0 -13 -9 -22t-22 -9q-12 0 -21 9t-9 22
q0 74 52 126t126 52q13 0 22 -9t9 -21q0 -13 -9 -22t-22 -9v0z" />
    <glyph glyph-name="uniB045" unicode="lan" horiz-adv-x="1064" 
d="M869 441q0 72 -27 135t-74 110t-110.5 74.5t-134.5 27.5q-72 0 -135 -27.5t-110 -74.5t-74.5 -110t-27.5 -135q0 -45 12 -88.5t34 -82.5t54 -71.5t71 -55.5q5 -3 10.5 -4.5t11.5 -1.5q12 0 22 5.5t16 15.5q4 8 5.5 16.5t-0.5 16.5q-2 9 -7.5 16t-12.5 11q-60 35 -94 95
t-34 128q0 54 20 101t55.5 82t82.5 55.5t101 20.5q53 0 100.5 -20.5t82.5 -55.5t55.5 -82t20.5 -101q0 -68 -34.5 -128t-93.5 -95q-16 -9 -20.5 -27t4.5 -33q6 -10 16 -16t22 -6q6 0 11.5 1.5t10.5 4.5q40 23 71.5 55.5t53.5 71.5t34 82.5t12 89.5v0v0zM523 960
q-108 0 -203.5 -41t-166.5 -112t-112 -166.5t-41 -203.5q0 -69 18 -135t51.5 -124.5t81.5 -107.5t107 -84q6 -3 12.5 -4.5t12.5 -1.5q13 0 24.5 6.5t17.5 17.5q11 17 5.5 37t-22.5 30q-49 28 -87.5 68t-66 87.5t-42 101t-14.5 109.5q0 88 33.5 165.5t91 135t135 91
t165.5 33.5t165 -33.5t135 -91t91 -135t33 -165.5q0 -56 -14.5 -109.5t-41.5 -101t-66 -87.5t-88 -68q-8 -5 -14 -13t-9 -17q-2 -10 -1 -19.5t6 -17.5q7 -12 18.5 -18.5t24.5 -6.5q6 0 12.5 2t11.5 5q60 35 108 84t81.5 107.5t51.5 124.5t18 135q0 108 -41 203.5t-112 166.5
t-166 112t-203 41v0zM685 444q0 67 -47.5 114t-114.5 47t-114.5 -47t-47.5 -114q0 -56 33.5 -99t84.5 -57v-312q0 -17 13.5 -28.5t32.5 -11.5q20 0 33.5 11.5t13.5 28.5v313q49 16 81 58t32 97v0z" />
    <glyph glyph-name="uniB046" unicode="bowling" horiz-adv-x="746" 
d="M636 627q0 13 1 26.5t2 26.5h-122q1 -13 2 -26.5t1 -26.5h116zM652 536q-5 9 -8.5 20t-5.5 24h-120q-2 -13 -5.5 -24t-8.5 -20q-16 -27 -28.5 -54t-21.5 -53q15 -11 28.5 -24.5t26.5 -29.5q36 -45 51.5 -100.5t8.5 -114.5q-6 -48 -26 -90.5t-52 -75.5q9 -15 15.5 -25
t9.5 -14q7 -9 28.5 -11.5t33.5 -2.5t34 2.5t28 11.5q8 10 36 60t45 128.5t7.5 179.5t-76.5 213zM578 960q-72 0 -90.5 -72.5t24.5 -159.5h133q36 87 20.5 159.5t-87.5 72.5zM569 900q-21 -13 -27 -37t7 -45q4 -5 2.5 -11.5t-7.5 -9.5q-5 -4 -11.5 -2.5t-9.5 7.5
q-20 32 -11 68.5t41 55.5q5 4 11.5 2.5t9.5 -7.5q3 -5 1.5 -11.5t-6.5 -9.5v0zM289 446q-43 5 -83.5 -4.5t-76 -30t-63 -52t-44.5 -70.5q-24 -57 -18 -116.5t35 -109t78 -84t111 -41.5q43 -5 83.5 4t75.5 30t62.5 52t45.5 70q23 58 17 117.5t-34.5 109t-77.5 83.5t-111 42
q-4 0 50.5 -6.5t-50.5 6.5v0zM170 309q-31 -14 -46 -45.5t-8 -64.5q3 -14 9 -30t-14 -26q-22 -10 -32 10t-14 35q-7 36 2.5 71.5t33.5 62.5q10 11 25.5 23.5t30.5 13.5q21 1 26 -20t-13 -30q-37 -17 -14 -6t14 6v0zM329 302q-7 -28 -36.5 -19.5t-20.5 38.5q11 25 39 17.5
t18 -36.5q0 -1 0.5 0t-0.5 0zM409 201q-9 -27 -38.5 -18.5t-19.5 37.5q10 26 39 18t19 -37v0v0zM438 305q-8 -27 -38 -18.5t-20 37.5q9 27 38.5 18.5t19.5 -37.5v1t0 -1v0z" />
    <glyph glyph-name="uniB047" unicode="suitcase" horiz-adv-x="1242" 
d="M1071 790h-293v104q0 30 -25 48t-57 18h-25.5h-56.5h-57t-25 0q-33 0 -58 -18t-25 -48v-104h-293q-65 0 -110.5 -46.5t-45.5 -112.5v-536q0 -78 49.5 -118.5t106.5 -40.5h915q57 0 106.5 40.5t49.5 118.5v536q0 66 -45.5 112.5t-110.5 46.5zM188 132q0 -14 -9.5 -23.5
t-22.5 -9.5q-14 0 -23.5 9.5t-9.5 23.5v452q0 14 9.5 23.5t23.5 9.5q13 0 22.5 -9.5t9.5 -23.5v-452v0zM716 790h-207v107h207v-107zM1103 132q0 -14 -9.5 -23.5t-23.5 -9.5q-13 0 -22.5 9.5t-9.5 23.5v452q0 14 9.5 23.5t22.5 9.5q14 0 23.5 -9.5t9.5 -23.5v-452z" />
    <glyph glyph-name="uniB048" unicode="olsuitcase" horiz-adv-x="1242" 
d="M1071 790h-293v104q0 30 -25 48t-57 18h-25.5h-56.5h-57t-25 0q-33 0 -58 -18t-25 -48v-104h-293q-65 0 -110.5 -46.5t-45.5 -112.5v-536q0 -78 49.5 -118.5t106.5 -40.5h915q57 0 106.5 40.5t49.5 118.5v536q0 66 -45.5 112.5t-110.5 46.5v0zM509 897h207v-107h-207v107
zM1146 95q0 -38 -23.5 -58t-51.5 -20h-915q-28 0 -51.5 20t-23.5 58v536q0 35 24 56t51 21h915q27 0 51 -21t24 -56v-536zM235 614q-13 0 -22.5 -9.5t-9.5 -22.5v-453q0 -13 9.5 -22.5t22.5 -9.5q14 0 23.5 9.5t9.5 22.5v453q0 13 -9.5 22.5t-23.5 9.5v0v0zM987 614
q-13 0 -23 -9.5t-10 -22.5v-453q0 -13 10 -22.5t23 -9.5t22.5 9.5t9.5 22.5v453q0 13 -9.5 22.5t-22.5 9.5v0z" />
    <glyph glyph-name="uniB049" unicode="bed" horiz-adv-x="1482" 
d="M1483 224v28q0 20 -14.5 34t-34.5 14h-1386q-19 0 -33.5 -14t-14.5 -34v-28v-1.5v-0.5v-238q0 -20 14 -34t34 -14h51q20 0 34 14t14 34v106h1188v-106q0 -20 14 -34t34 -14h52q20 0 34 14t14 34v239v0v1zM261 611l-5.5 24t-5.5 71q0 41 5.5 67.5l5.5 26.5q4 22 15.5 33.5
t34.5 17.5q34 8 71 9t72 1q35 1 69.5 1.5t69.5 0.5q15 1 30 0.5t29 -0.5h21.5t20.5 1h5.5h5.5h42.5t42.5 -1h21h21h29.5h29.5q35 0 70 -0.5t69 -1.5q35 -1 72 -1.5t71 -8.5q24 -6 35 -18t16 -33l5 -26.5t5 -67.5q0 -47 -5 -71l-5 -24q-3 -10 -7.5 -18t-10.5 -15
q35 -9 67.5 -20.5t60.5 -24.5v352q0 31 -22 53t-53 22h-746v-0.5v-0.5l-288 1q-31 0 -53 -22t-22 -52v-353q29 13 61 24.5t67 20.5q-6 7 -10 15.5t-7 17.5v0zM742 583q-141 0 -265.5 -17.5t-219 -47t-151.5 -70t-64 -86.5h1401q-7 46 -64 86.5t-151.5 70t-219 47
t-266.5 17.5z" />
    <glyph glyph-name="uniB050" unicode="cycling" horiz-adv-x="1032" 
d="M422 568l65 -213q1 -1 2 -1.5t2 -0.5l185 207l-2 8h-39.5h-87h-86.5h-39v0zM512 920q-106 0 -199.5 -40t-163 -109.5t-109.5 -163t-40 -199.5t40 -199.5t109.5 -163t163 -109.5t199.5 -40t199.5 40t163 109.5t109.5 163t40 199.5t-40 199.5t-109.5 163t-163 109.5
t-199.5 40zM389 285v0q-20 -45 -61.5 -72.5t-91.5 -27.5q-68 0 -116.5 48.5t-48.5 117.5q0 68 48.5 116.5t116.5 48.5q15 0 29 -2.5t28 -7.5l5 -2l-20 -29l-2 -2l-3 1q-9 2 -18 3.5t-19 1.5q-53 0 -90.5 -37.5t-37.5 -90.5t37.5 -91t90.5 -38q37 0 67.5 19.5t47.5 52.5l1 2
l38 -6l-1 -5v0zM503 306h-1q-4 -7 -12 -10.5t-16 -3.5v0l-2 1h-0.5h-1.5l-214 35q-4 -5 -10 -7t-12 -2q-9 0 -16.5 4.5t-11.5 12.5l-5 1l3 4q-1 2 -1.5 4.5t-0.5 5.5q0 13 9 22t22 10l60 87l19 27v0l64 93l-17 57l-4 -1q-16 -4 -25 -4t-14 9q-4 5 -5 13.5t2 15.5q3 4 9 8
t18 3q23 -1 58 -5.5t36 -4.5q5 -1 11 -4.5t6 -10.5t-5 -10.5t-10 -3.5h-1.5h-0.5h-11.5h-24.5l13 -46h256l-7 32q-6 2 -10 7.5t-4 11.5q0 7 5 12.5t12 7.5h76h1.5h3.5v0l14 -1.5t26 -7.5q15 -8 23.5 -23.5t8.5 -34.5q0 -29 -17 -42.5t-24 -16.5q-12 -5 -22 -7t-13 -2l-9 -1
l-2 39l8 1h2.5t4.5 1q2 0 9.5 2t13.5 7q4 3 7 7.5t3 11.5q0 12 -3.5 16.5t-8.5 7.5q-4 2 -10.5 3.5t-10.5 1.5l-45 -1l42 -181l42 -75q11 -2 18.5 -11t7.5 -20q0 -13 -9.5 -22.5t-22.5 -9.5t-22.5 9.5t-9.5 22.5q0 4 1 7.5t2 6.5l-43 77l-3 13v0l-14 58l-185 -207v0z
M775 185v0v0v0q-69 0 -117.5 48.5t-48.5 117.5q0 38 17 72.5t48 58.5l5 4l9 -41l-2 -1q-19 -19 -29.5 -43t-10.5 -50q0 -53 38 -91t91 -38t90.5 38t37.5 91t-37.5 90.5t-90.5 37.5q-5 0 -9.5 -0.5t-9.5 -0.5l-4 -1l-8 36l4 1q7 1 13.5 1.5t13.5 0.5q68 0 116.5 -48.5
t48.5 -116.5q0 -69 -48.5 -117.5t-116.5 -48.5v0zM390 541l-46 -65h1l-78 -112l179 -29l2 4l2 4zM401 357l-38 7v3q-2 17 -9 33.5t-19 29.5l-1 3l21 31l4 -4q18 -20 29 -45t13 -53v-5z" />
    <glyph glyph-name="uniB051" unicode="canoe" horiz-adv-x="998" 
d="M398 406q-44 54 -62.5 102t16.5 85q28 29 70.5 19.5t93.5 -40.5l45 65q-93 83 -187 141.5t-171.5 93t-130 46t-63.5 1.5q-9 -9 7.5 -65.5t59.5 -139t111.5 -181.5t163.5 -194l47 67v0zM626 578l106 150q4 -2 7.5 -2.5t5.5 -0.5q4 3 9.5 7.5t8.5 9.5q4 5 13 8t12 5
t12.5 13.5t18.5 24.5l41 57q10 13 18.5 30t5.5 21q-2 4 -12.5 14t-24.5 20l-2 1q-13 10 -26 16.5t-18 7.5q-4 1 -17.5 -12.5t-22.5 -27.5l-41 -56q-10 -14 -17.5 -26t-8.5 -16t-1 -13.5t-3 -14.5q-4 -4 -7 -11t-3 -11q-1 -2 1.5 -5.5t5.5 -7.5l-416 -591q-5 2 -8.5 2.5
t-5.5 0.5q-4 -3 -9.5 -7.5t-8.5 -9.5t-12 -8t-13 -5q-3 -2 -12 -13.5t-19 -24.5l-41 -57q-9 -14 -17.5 -30.5t-6.5 -20.5t13 -14t24 -20l2 -1q14 -10 26.5 -16.5t17.5 -7.5q4 -1 17.5 12.5t23.5 27.5l40 56q10 14 17.5 26t8.5 16t1 13.5t4 14.5q3 4 6 11t4 11q0 2 -2 5.5
t-6 7.5l96 136q93 -80 190.5 -139t179.5 -96t137.5 -51t64.5 -6q9 10 -10.5 69t-65.5 145t-117 187.5t-164 195.5zM663 303q-16 -21 -83 -4t-118 46l120 171q42 -55 72.5 -118.5t8.5 -94.5z" />
    <glyph glyph-name="uniB052" unicode="history" 
d="M873 86q-56 -57 -126.5 -92.5t-146.5 -49t-154 -4.5t-151 42q-38 18 -73 42t-65.5 53t-56 62.5t-44.5 70.5q-12 23 -28.5 68t-20.5 88.5t13 73.5t72 21q44 -6 54.5 -39.5t20.5 -68.5q12 -45 35.5 -85t56.5 -73q55 -55 129.5 -82t152.5 -20q88 8 158 54.5t112 115t51 152
t-23 165.5q-34 84 -101 137.5t-147.5 72.5t-165 0.5t-151.5 -78.5q20 -21 40.5 -41t40.5 -40q-43 -9 -85.5 -17.5t-85.5 -17.5t-86 -17.5t-85 -17.5q8 43 16.5 86l17 86t17 85.5t16.5 85.5q11 -10 21 -20t20 -21q6 -5 20 -22.5t21 -17.5q51 44 108 75t122 47q44 10 88 12.5
t88 -2t86.5 -17t82.5 -32.5q119 -52 188 -153.5t86.5 -220.5t-16.5 -238.5t-122 -207.5q-75 -75 -67 -67l38 38l52.5 52.5t-23.5 -23.5v0zM665 442h-120v174q0 16 -11.5 27.5t-28.5 11.5q-16 0 -27.5 -11.5t-11.5 -27.5v-253h199q17 0 28.5 12t11.5 28t-11.5 27.5
t-28.5 11.5v0z" />
    <glyph glyph-name="uniB054" unicode="directions" horiz-adv-x="1065" 
d="M587 495v-559l470 1024l-1057 -465h587z" />
    <glyph glyph-name="uniB055" unicode="preferred" horiz-adv-x="1001" 
d="M204 -49h41l6 14q28 10 49.5 15t87.5 -6q39 -16 82 -24.5t83 -11.5t72.5 -2t50.5 4q27 0 63 9.5t67.5 20.5t53.5 20l22 9q89 16 67.5 78.5t-36.5 64.5q-5 1 39 28t-4 115l33 49.5t-45 105.5l34 60t-90 102q-63 19 -98 17t-79 1q-56 3 -105 -4l-49 -7l33 36l37 57t42 128
q-4 39 -12.5 84.5t-73.5 45.5q-61 1 -61 -48t-7 -79q-12 -31 -53.5 -81t-86 -102.5t-79.5 -100t-33 -73.5l-4 12h-251v-537h189h7.5h7.5v0z" />
    <glyph glyph-name="uniB056" unicode="tickfull" horiz-adv-x="1312" 
d="M859 698l-394 -389l-269 267l-189 -187l458 -453l584 577q-69 17 -120.5 67t-69.5 118v0zM928 773q0 77 55.5 132t133.5 55q79 0 134.5 -55t55.5 -132q0 -78 -55.5 -132.5t-134.5 -54.5q-78 0 -133.5 54.5t-55.5 132.5v0v0z" />
    <glyph glyph-name="uniB057" unicode="tickdot" horiz-adv-x="1312" 
d="M928 773q0 77 55.5 132t133.5 55q79 0 134.5 -55t55.5 -132q0 -78 -55.5 -132.5t-134.5 -54.5q-78 0 -133.5 54.5t-55.5 132.5v0v0z" />
    <glyph glyph-name="uniB058" unicode="tick" horiz-adv-x="1056" 
d="M859 698l-394 -389l-269 267l-189 -187l458 -453l584 577q-69 17 -120.5 67t-69.5 118v0z" />
    <glyph glyph-name="uniB059" unicode="gourmet" horiz-adv-x="847" 
d="M485 850q1 2 2 4.5t1 5.5q0 8 -6 14t-14 6h-11q7 6 11 14.5t4 18.5q0 19 -13 32.5t-32 13.5t-32.5 -13.5t-13.5 -32.5q0 -10 4 -18.5t11 -14.5h-13q-9 0 -14.5 -6t-5.5 -14q0 -2 0.5 -4.5t1.5 -4.5q-59 -9 -111.5 -36t-94 -68t-69.5 -94t-39 -113h738q-11 59 -38 111
t-67 93t-90.5 68.5t-108.5 37.5v0zM816 487h-789q-11 0 -19 -8t-8 -19v-17q0 -11 8 -19t19 -8h789q11 0 19 8t8 19v17q0 11 -8 19t-19 8v0zM678 402q-18 -3 -34 -11t-31 -17q-42 -28 -105.5 -72.5t-109.5 -64.5q-26 -11 -79 0t-65 57q-7 26 -8 65.5t-42 42.5l-16 -1t-9 -21
t11 -36.5t4 -30.5q-1 -15 -6 -37.5t-6 -40.5q-1 -17 8 -53t-16 -60l-9 -10t-24 -18q-5 3 -11 3.5t-13 -1.5l-35 -12q-10 -4 -15.5 -13t-2.5 -18l35 -103q4 -9 13.5 -12.5t20.5 0.5l35 12q11 4 16 13t2 18v2q6 2 10.5 4t6.5 2q34 15 66 36t62.5 45.5t59.5 50t58 49.5
q15 13 30.5 26.5t30.5 27.5q34 31 68.5 61t71.5 56q9 5 17 10.5t16 11.5q6 5 13.5 11t6.5 15t-9.5 11.5t-15.5 1.5v0zM132 -33q-8 0 -13.5 5.5t-5.5 13.5q-1 8 4.5 13.5t13.5 5.5q8 1 14 -4.5t6 -13.5t-5.5 -14t-13.5 -6v0z" />
    <glyph glyph-name="uniB05A" unicode="vip" horiz-adv-x="1557" 
d="M1191 -22q0 -17 -7.5 -29.5t-18.5 -12.5h-760q-11 0 -19 12.5t-8 29.5v26q0 17 8 29.5t19 12.5h760q11 0 18.5 -12.5t7.5 -29.5v-26v0zM1173 649q28 -23 44.5 -57t16.5 -74q0 -71 -50 -121.5t-121 -50.5q-72 0 -122 50.5t-50 121.5q0 45 21.5 83t57.5 61l-190 297v1v0v0
v-1l-190 -297q36 -23 57.5 -61t21.5 -83q0 -71 -50.5 -121.5t-121.5 -50.5t-121 50.5t-50 121.5q0 39 16.5 73.5t44.5 57.5l-387 240l372 -761h816l372 761z" />
    <glyph glyph-name="uniB05B" unicode="skiing" horiz-adv-x="1093" 
d="M979 759q39 0 67 28t28 67t-28 67t-67 28t-67 -28t-28 -67t28 -67t67 -28v0zM1073 68q-10 8 -22 6t-19 -12q-51 -70 -101 -66.5t-59 7.5l-370 225q9 0 17.5 3.5t15.5 9.5q4 5 8.5 9t8.5 8l20 20l20 20q13 13 26 25.5t25 25.5q12 12 24 23.5t25 23.5q17 18 35 35.5
t34 36.5q14 19 11 42.5t-22 38.5l-259 201q-19 15 -42.5 12t-38.5 -22l-17 -22q-15 -19 -12 -42.5t22 -37.5l195 -152q12 -10 10 -19t-5 -12l-141 -140q-12 -12 -13 -29.5t9 -31.5l-410 250q-11 6 -22.5 3t-18.5 -13q-6 -11 -3 -22.5t13 -18.5l828 -502q12 -6 30 -10.5
t40 -4.5q38 0 82 19t82 72q8 10 6 22t-12 19zM319 833l28 -17l43 47l96 -70l158 -108l22 -2t51 37l1 -65v-18q0 -9 3.5 -17.5t11.5 -14.5l193 -136q13 -10 29.5 -6.5t26.5 17.5q10 15 8 31.5t-15 25.5l-149 105l-6 6t-3 5l-4.5 10t-3.5 47q1 24 1.5 81.5l0.5 57.5l-4 24.5
t-51 30.5q-57 8 -128.5 -24.5t-121.5 -66.5l-98 72l46 51l-23 24l-49 -55l-76 49l61 -66l-48 -55v0z" />
    <glyph glyph-name="uniB05C" unicode="wine" horiz-adv-x="1046" 
d="M1020 870l-5 24l-456 66l-11 -21q-19 -37 -31.5 -76.5t-18.5 -82.5q-10 -68 -2 -131.5t30.5 -116t58 -91t80.5 -55.5l-5 -31v0v0l-15 -98l-2 -17l-45 24l3 17l15 91q-30 11 -63.5 20.5t-64.5 17.5q-40 10 -77 -3.5t-71 -32.5q-36 -21 -71.5 -43.5t-70.5 -44.5l-30 -20
t-30 -21q-7 4 -16.5 5.5t-18.5 -0.5l-64 -14q-19 -4 -30.5 -18.5t-7.5 -30.5l40 -186q4 -16 20 -24.5t35 -4.5l64 14q15 3 25.5 13t12.5 23q2 -1 4.5 -1h4.5h69q96 4 140.5 36t74.5 46q25 11 55 21t82 18v-1q8 1 17.5 2.5t20.5 3.5h4t5 1q44 4 63 13.5t25 18.5
q-1 -1 13.5 -4t16.5 -3q11 -2 26 2t19 17q3 11 -2.5 19.5t-13.5 15.5q-3 3 -5.5 5t-5.5 4q-13 11 -26 22.5t-27 23.5q-6 6 -13 12l-14 12l10 66q51 2 97.5 28t84 70t64 104t36.5 130q6 42 5.5 84t-8.5 82v0zM102 23q-14 1 -23 12t-8 25q2 13 12.5 22t24.5 8q13 -1 22 -12
t8 -24q-1 -14 -12 -23t-24 -8v0zM956 714q-9 -61 -32.5 -113.5t-56 -90t-71.5 -56.5t-79 -13q-36 6 -66 29.5t-50 60.5q24 -26 54 -41t63 -15q37 0 70 19.5t59 53.5t42 80t20 99l-348 -1q1 11 1.5 22t2.5 22q5 31 13 60t20 56l359 -52q4 -30 3.5 -60t-4.5 -60zM816 10
l-126 19l12 85q-15 -1 -38 -3t-41 -6l-10 -65l-116 17q-18 2 -40.5 -18.5t-24.5 -38.5v-0.5v-0.5l430 -63v0.5v0.5q3 18 -12.5 44.5t-33.5 28.5v0z" />
    <glyph glyph-name="uniB05D" unicode="bar" horiz-adv-x="918" 
d="M480 -10h-92v266l312 429h-494l-52 82q19 16 24 38.5t-7 41.5q-12 18 -34 23t-45 -4l-55 87q-3 5 -9 6.5t-11 -1.5q-6 -4 -7 -10t2 -11l55 -87q-18 -17 -23 -39t6 -41q12 -18 34 -23t45 4l41 -66h-170l315 -433v-262h-103q-17 0 -35 -18t-18 -35v-0.5v-0.5h375v0.5v0.5
q0 17 -18 35t-36 18v0zM582 625l-69 -96h-210l-60 96h339v0zM208 625l60 -96l-81 1l-69 95h90zM726 741l66 66q-15 11 -31.5 18t-34.5 10v-94zM726 544q17 3 32.5 9.5t29.5 16.5l-62 62v-88v0zM820 602q11 14 18 30t10 34h-92l64 -64v0zM823 774l-64 -63h89q-3 17 -9 33
t-16 30zM681 836q-19 -3 -35.5 -10t-31.5 -18l67 -67v95zM689 628l-44 -72q13 -6 21.5 -8t20.5 -4zM557 715h86l-61 61q-9 -14 -15.5 -29t-9.5 -32v0zM700 907q-43 0 -81.5 -15.5t-67.5 -43t-47 -64.5t-20 -80h29q6 73 59.5 123t127.5 50q78 0 132.5 -54.5t54.5 -132.5
t-54.5 -132.5t-132.5 -54.5q-25 0 -47.5 6t-42.5 17l-17 -25q24 -13 51 -20.5t56 -7.5q45 0 84.5 17t69 46.5t46.5 69t17 84.5t-17 84.5t-46.5 69t-69 46.5t-84.5 17v0z" />
    <glyph glyph-name="uniB05E" unicode="designer" horiz-adv-x="1525" 
d="M1520 573q0 44 -17 83t-46 68.5t-68 46.5t-84 17q-44 0 -83.5 -17t-68.5 -46.5t-46 -68.5t-17 -83q0 -4 0.5 -7t0.5 -7v0v-251h-662v251v0v7v7q0 44 -16.5 83.5t-46 68.5t-68.5 46t-83 17q-45 0 -84 -17t-68 -46t-46 -68.5t-17 -83.5q0 -42 15 -79t41.5 -66t62 -47
t75.5 -22v-296q0 -52 37.5 -89.5t90.5 -37.5h876q53 0 90 37.5t37 89.5v245v0v51q41 4 76.5 22t62 47t41.5 66t15 79v0zM507 545v0v-162h500v162v0q0 84 35 140.5t77 91t77 49l35 14.5q-63 34 -125 57.5t-121.5 37t-116.5 19.5t-111 6v0q-53 0 -110 -5.5t-117 -19.5
t-121.5 -37.5t-125.5 -57.5l35 -14.5t77 -49t77 -91t35 -140.5v0v0z" />
    <glyph glyph-name="uniB05F" unicode="beach" horiz-adv-x="840" 
d="M240 409q-10 -27 -18 -54t-15 -54q29 -15 72.5 -23.5t101.5 5.5q1 25 3.5 48.5t4.5 45.5q-5 0 -10 -0.5t-10 -0.5q-40 0 -72.5 10t-56.5 23v0zM197 254q-7 -28 -12.5 -54t-9.5 -49q28 -20 79 -35.5t124 4.5q-2 30 -2.5 58.5t0.5 55.5q-16 -4 -31.5 -5.5t-30.5 -1.5
q-36 0 -65.5 8t-51.5 19v0v0zM256 458q25 -14 61 -24t83 -5q4 25 8.5 47.5t9.5 41.5q-38 1 -67 12t-49 25q-13 -23 -24.5 -47.5t-21.5 -49.5v0v0zM167 95q-7 -44 -10 -71l-3 -27l30 -33t100 -27q71 5 87 24.5l16 19.5q-3 22 -5.5 43t-4.5 41q-19 -5 -37 -7t-35 -2
q-45 0 -79.5 12t-58.5 27v0v0zM811 725q-39 94 -116 93.5l-77 -0.5q32 30 63 30.5l31 0.5q-31 66 -87 63.5l-56 -2.5q18 26 37 36l19 10q-81 13 -125.5 -30l-44.5 -43q-79 75 -140 76t-102.5 -27.5t-63 -64.5l-21.5 -36q56 64 106.5 55l50.5 -9q-44 4 -63 -11l-19 -15
q53 21 86 -9.5l33 -30.5q-116 14 -180 -26.5t-94.5 -95t-36 -102.5l-5.5 -48q12 42 39 73.5l27 31.5q-25 -40 -32 -82t-6 -77t6 -57.5l5 -22.5q6 51 29.5 93.5t49 72.5t46 46.5l20.5 16.5q-12 -32 -10 -53.5l2 -21.5q18 45 53.5 68t70.5 33t61 10.5t25 -0.5
q-17 -17 -32 -36.5t-29 -41.5q18 -13 45 -23t65 -9q9 34 16 52l7 18q36 -16 53.5 -52t25 -73t7.5 -65v-28q26 26 29 53.5l3 27.5q19 -34 18 -78t-9.5 -84t-18.5 -67l-10 -27q51 27 75.5 63.5t33.5 70t8.5 56.5l-0.5 23q27 -42 18.5 -81l-8.5 -39q58 85 53 153.5t-34.5 116.5
t-63.5 73.5l-34 25.5q66 12 94.5 -32.5l28.5 -44.5q9 42 -3 64l-12 22q59 -33 50 -97.5l-9 -64.5l45.5 42.5t6.5 136.5v0z" />
    <glyph glyph-name="uniB060" unicode="fitness" horiz-adv-x="1046" 
d="M719 329l-82 -83l-321 321l82 83l321 -321v0zM536 85l345 345q17 17 41 17t41 -17t17 -41t-17 -41l-345 -346q-17 -17 -41 -17t-41 17t-17 41.5t17 41.5zM698 35l238 238q17 17 41.5 17t41.5 -17t17 -41t-17 -41l-239 -238q-17 -17 -41 -17t-41 17t-17 41t17 41v0z
M894 22l53 52q6 7 16 7t17 -7q6 -6 6 -16t-7 -16l-52 -53q-7 -7 -16.5 -7t-16.5 7t-7 16.5t7 16.5v0zM500 811l-346 -345q-17 -17 -41 -17t-41 17t-17 41t17 41l346 346q17 17 41 17t41 -17t17 -41.5t-17 -41.5zM337 861l-238 -238q-17 -17 -41 -17t-41 17t-17 41t17 41
l238 238q17 17 41 17t42 -17q16 -17 16 -41t-17 -41v0zM141 874l-52 -52q-7 -7 -16.5 -7t-16.5 7q-7 6 -7 16t7 16l53 53q6 7 16 7t16 -7q7 -7 7 -16.5t-7 -16.5z" />
    <glyph glyph-name="uniB061" unicode="tenniscourt" horiz-adv-x="1014" 
d="M275 87q2 0 4 -0.5t4 -0.5q-6 42 -36.5 72.5t-73.5 36.5q2 -7 2.5 -13.5t0.5 -13.5q0 -52 -37.5 -89.5t-89.5 -37.5q-6 0 -11.5 0.5t-10.5 1.5q8 -44 42.5 -74.5t80.5 -32.5q-1 6 -1.5 12t-0.5 12q0 53 37 90t90 37zM183 -40q0 -5 1 -10.5t2 -9.5q39 9 66 39.5t32 71.5
q-2 0 -4.5 0.5t-4.5 0.5q-38 0 -65 -27t-27 -65zM25 80l12 -2t12 -1q38 0 65 26.5t27 64.5q0 7 -1.5 13.5t-3.5 13.5q-44 -7 -75 -39t-36 -76v0zM549 537l-44 44l35 36q4 4 4 9.5t-4 9.5t-9.5 4t-9.5 -4l-36 -35l-80 80l56 57q4 4 4 9.5t-4 9.5t-10 4t-10 -4l-56 -56l-80 80
l32 32q4 4 4 10t-4 10t-9.5 4t-9.5 -4l-33 -32l-60 60q-4 4 -10 4t-10 -4t-4 -9.5t4 -9.5l61 -61l-79 -78l-60 60q-4 4 -9.5 4t-10.5 -4q-4 -4 -4 -9.5t4 -9.5l61 -61l-42 -42q-4 -4 -4 -10t4 -10t9.5 -4t9.5 4l42 43l81 -81l-59 -58q-4 -4 -4 -9.5t4 -9.5q4 -5 10 -5t10 5
l58 58l81 -81l-39 -39q-4 -4 -4 -9.5t4 -9.5t9.5 -4t9.5 4l39 39l44 -44q4 -4 10 -4t10 4t4 9.5t-4 9.5l-44 44l78 79l44 -44q4 -4 10 -4t10 4t4 9.5t-4 9.5v0zM207 683l78 79l81 -81l-79 -78l-80 80v0zM387 503l-80 80l78 79l81 -81l-79 -78v0zM686 325l-37 -37
q-13 -14 -13 -32.5t13 -31.5l43 -43q12 3 27 11t30 23q5 5 12 5t12 -5t5 -12t-5 -12q-14 -14 -28 -22.5t-27 -14.5l45 -44q12 3 27 11t30 23q5 5 12 5t12 -5t5 -12t-5 -12q-14 -14 -28 -22.5t-27 -14.5l45 -44q12 3 27 11t30 23q5 5 12 5t12 -5t5 -12t-5 -12
q-14 -14 -28 -22.5t-27 -14.5l41 -40q13 -13 31.5 -13t31.5 13l37 37q13 14 13 32.5t-13 31.5l-252 252q-13 13 -31.5 13t-31.5 -13zM636 314l-116 30q17 7 33 18t30 25q15 14 26 31t19 36l30 -118l9 9q7 7 17 12t20 8l-65 254q-12 55 -42 110t-78 103q-53 53 -114.5 84.5
t-122 40t-115 -6t-94.5 -53.5q-39 -40 -54 -94.5t-6 -115t40.5 -122t84.5 -114.5q54 -55 118 -86.5t127 -38.5l225 -58q3 11 8 21t14 18l6 7v0zM177 490q-45 45 -72.5 96t-36 101t2 94.5t41.5 76.5q31 31 76 41.5t95 2t101 -36t96 -72.5q44 -44 71.5 -95.5t36.5 -101.5
t-1.5 -94.5t-42.5 -75.5q-31 -32 -75.5 -42.5t-94.5 -1.5t-101.5 36t-95.5 72v0z" />
    <glyph glyph-name="uniB062" unicode="wildlife" horiz-adv-x="1013" 
d="M5 509l4.5 49t62.5 54q57 5 60 -56.5l3 -61.5l-10 -42.5t-53 -47.5q-44 -5 -55.5 50l-11.5 55v0v0zM189 667l18.5 54.5t84.5 44.5q67 -11 53 -81l-14 -70l-22.5 -45.5t-73.5 -38.5q-50 6 -48 71l2 65v0v0zM507 806l42.5 -14t42.5 -85t-43.5 -89l-43.5 -18l-43 11.5
t-42 95.5q2 68 44.5 83.5l42.5 15.5v0zM718 720l39 -13.5t41 -96.5q1 -67 -34.5 -78l-35.5 -11l-38.5 16.5t-38.5 92.5l6.5 41.5t60.5 48.5v0v0zM862 499l-2.5 42.5t39.5 53.5l41.5 -3t58.5 -81l-1 -40t-48 -55q1 0 -37.5 10t-50.5 73v0zM88 768l-23 -29.5t-22 -66.5
q2 -37 25 -33.5t22 33.5l-4.5 36.5t2.5 59.5v0zM556 960l-33.5 -22.5t-40.5 -61.5t20.5 -43t33.5 27l3.5 38.5t16.5 61.5v0zM749 893l21 -34t12 -73q-10 -38 -37 -30.5t-19 38.5l13 36.5t10 62.5v0zM938 749l18 -29t10 -62q-9 -33 -32 -26.5t-16 32.5l11 31.5t9 53.5v0z
M274 785l-12.5 8.5t-2.5 51.5q9 36 43.5 49.5l34.5 13.5l-17.5 -19.5t-17.5 -45.5q1 -26 -3 -42.5t-25 -15.5v0zM80 112q-15 24 -24 51t-9 55q0 51 32.5 89.5t69.5 67.5q41 32 82.5 67t87 63t95 43.5t106.5 9.5q34 -4 66 -17.5t60 -31.5q35 -21 69.5 -41.5t69.5 -40.5
q39 -21 74.5 -46t59.5 -64q24 -38 34 -82.5t2 -88.5q-4 -23 -13 -49.5t-23 -46.5q-31 -42 -69 -69.5t-81 -38t-89.5 -4t-92.5 32.5l-53.5 33.5t-109.5 31.5q-28 -2 -71 -14t-90.5 -13t-95.5 19t-87 84v0v0z" />
    <glyph glyph-name="uniB063" unicode="countryside" horiz-adv-x="1278" 
d="M546 209q0 -54 -20 -101t-55.5 -82.5t-83 -56t-100.5 -20.5q-54 0 -101.5 20.5t-82.5 56t-55.5 82.5t-20.5 101t20.5 101t55.5 82.5t82.5 56t101.5 20.5q53 0 100.5 -20.5t83 -56t55.5 -82.5t20 -101zM1268 142q0 -42 -16.5 -80t-44.5 -66t-65.5 -44t-80.5 -16
q-42 0 -80 16t-66 44t-44 66t-16 80q0 43 16 80.5t44 65.5t66 44.5t80 16.5q43 0 80.5 -16.5t65.5 -44.5t44.5 -65.5t16.5 -80.5zM1163 538l-370 87l-1 33t-3 77t-4 89t-3 69q-4 49 -30 58l-26 9h-53h-121h-132h-87q-45 0 -55.5 -33.5l-10.5 -33.5l-47 -273
q-103 -13 -160 -66l-57 -53l71 -43q44 37 98.5 58.5t116.5 21.5q68 0 127.5 -26t104.5 -70.5t70.5 -104.5t25.5 -128q0 -18 -2 -36t-6 -36h2h174q-1 3 -1 6.5v7.5q0 57 21.5 106.5t58.5 86.5t86.5 58.5t106.5 21.5q40 0 76.5 -11t67.5 -30v39v47q0 44 -19 56.5l-19 12.5v0v0
zM602 470l-17.5 22t-51.5 48.5t-83 49t-112 22.5l20 242h315l19 -384h-90v0z" />
    <glyph glyph-name="uniB064" unicode="sauna" horiz-adv-x="1061" 
d="M303 827q0 -42 -29 -71t-71 -29q-41 0 -70.5 29t-29.5 71q0 41 29.5 70.5t70.5 29.5q42 0 71 -29.5t29 -70.5zM421 99q0 -17 -12 -29t-29 -12h-339q-17 0 -29 12t-12 29v0q0 17 12 28.5t29 11.5h339q17 0 29 -11.5t12 -28.5v0zM628 10l-92 282q-4 11 -12 19t-18 13
q-6 3 -13 4.5t-14 1.5l-173 1q-20 1 -24.5 16l-4.5 15v0l13 268q0 22 -16 35t-39 19l-18 2.5t-38 2.5t-39.5 -2.5l-19.5 -2.5q-22 -4 -38 -18t-16 -36l7 -356l-0.5 -0.5t-0.5 -1.5v-30q0 -4 0.5 -7.5t1.5 -7.5q3 -19 18 -32.5t35 -13.5h90h3.5h2.5h183q5 -1 17 -5.5
t20 -18.5l79 -185q8 -21 28 -30.5t42 -2.5l4 2q21 7 30.5 27.5t1.5 41.5v0zM970 229q-4 0 -8.5 1.5t-7.5 4.5q-7 7 -7 16.5t6 16.5q2 2 17.5 24t25 62t3.5 98t-48 131q-47 85 -53.5 152.5t5 115t30 73.5t20.5 29q7 7 16.5 7t16.5 -6q7 -7 7.5 -16.5t-6.5 -16.5
q-1 -2 -16 -24t-24 -62t-2.5 -97.5t47.5 -131.5q48 -85 54 -153t-6.5 -115.5t-31.5 -73.5t-21 -28q-3 -4 -7.5 -5.5t-9.5 -1.5v0zM828 229q-4 0 -8.5 1.5t-7.5 4.5q-7 7 -7.5 16.5t6.5 16.5v0q2 2 17 24t25 62t3.5 98t-47.5 131q-47 85 -53.5 152.5t5 115t30 73.5t20.5 29
q7 7 16.5 7t16.5 -6q7 -7 7.5 -16.5t-6.5 -16.5q-1 -2 -16 -24t-24 -62t-2.5 -97.5t47.5 -131.5q48 -85 54 -153t-6.5 -115.5t-31.5 -73.5t-21 -28q-3 -4 -7.5 -5.5t-9.5 -1.5v0zM677 229q-5 0 -9 1.5t-7 4.5q-7 7 -7.5 16.5t6.5 16.5v0q1 2 16.5 24t25 62t3.5 98t-47 131
q-47 85 -53.5 152.5t5 115t30 73.5t20.5 29q6 7 16 7t17 -6q7 -7 7.5 -16.5t-6.5 -16.5q-1 -2 -16 -24t-24 -62t-2.5 -97.5t47.5 -131.5q48 -85 54 -153t-6.5 -115.5t-31.5 -73.5t-21 -28q-4 -4 -8.5 -5.5t-8.5 -1.5v0z" />
    <glyph glyph-name="uniB065" unicode="golf" horiz-adv-x="1027" 
d="M203 117q-11 -5 -24 -8t-27 -3t-27.5 3t-25.5 9q-5 -1 -8 -4.5t-1 -8.5l23 -47l6 -13v-0.5v-0.5l8 -16v-79h47v79l8 19l0.5 1t1.5 1l27 56q1 4 -1.5 7t-6.5 5v0zM151 416q-60 0 -102.5 -42.5t-42.5 -102.5q0 -44 24 -79.5t62 -52.5v0v0q14 -6 29 -9.5t30 -3.5
q16 0 30.5 3t27.5 9v0v0q38 17 62.5 52.5t24.5 80.5q0 60 -42.5 102.5t-102.5 42.5v0zM155 341q-30 0 -51 -21t-21 -50q0 -8 -5.5 -13.5t-13.5 -5.5t-13.5 5.5t-5.5 13.5q0 45 32 77t78 32q7 0 12.5 -5.5t5.5 -13.5t-5.5 -13.5t-12.5 -5.5zM912 797q-27 4 -48 19t-44 28
q-33 21 -69 30.5t-75 11.5q-3 0 -30.5 -0.5t-27.5 -4.5v-53v-116t0.5 -116l0.5 -53q14 27 42 48.5t57 30.5q38 11 77.5 7t75.5 15q34 16 61 42.5t47 57.5q8 12 15 24l14 24q1 2 4.5 10t5.5 9q-25 -13 -52 -15.5t-54 1.5zM576 85v843q0 13 -9 22.5t-22 9.5t-22.5 -9.5
t-9.5 -22.5v-843v0v0v-107q0 -7 -5.5 -12.5t-12.5 -5.5q-8 0 -13 5.5t-5 12.5v103q-50 -8 -82 -27t-32 -43q0 -31 52.5 -53t126.5 -22t126 22t52 53q0 27 -41 48t-103 26v0z" />
    <glyph glyph-name="uniB067" unicode="wintersports" horiz-adv-x="1380" 
d="M1368 81q-6 15 -13 30t-12 30q-10 28 -1.5 57t6.5 57t-18 53.5t-39 40.5q-64 41 -117.5 28.5t-166.5 71.5q-57 42 -98.5 88t-70 93t-44.5 94.5t-22 92.5l-4 28t-4 70v0l-5.5 22t-44.5 22q-4 0 -7.5 0.5t-6.5 0.5l-413 -2q-29 -2 -36.5 -17.5t-7.5 -22.5q-1 -26 -3 -63
t-5 -75t-8 -72.5t-11 -55.5q-14 -43 -24 -86.5t-16 -88t-8 -89t-2 -90.5q1 -34 1 -70.5t8 -69.5t34 -35t53 1v-63v0l-46 -43h-110l-90 -82h193.5h426h426h194.5q31 0 63.5 13.5t48.5 40.5q12 23 10 45.5t-10 45.5v0zM913 57l-42 -39h-126h-125.5h-119h-106.5l-45 41v68h25
h25q18 0 23 8t8 24q3 15 9 30.5t16 26.5q24 28 60 25t66 -11q43 -13 82.5 -35t79.5 -40q40 -19 83 -27.5t87 -9.5v-61v0v0zM1308 38q-4 -13 -17.5 -16.5t-24.5 -3.5h-67h-150l-24.5 21l-24.5 21v58q0 -2 72.5 2.5t82.5 5.5q36 4 69 12.5t59 -27.5q10 -14 20.5 -34.5
t4.5 -38.5v0v0z" />
    <glyph glyph-name="uniB068" unicode="garden" horiz-adv-x="1027" 
d="M464 633q12 3 23.5 4.5t23.5 1.5t24 -1.5t24 -4.5l59 145q7 14 11 29t4 30q0 51 -36 87t-87 36t-86.5 -36t-35.5 -87q0 -15 3.5 -29.5t10.5 -28.5l62 -146v0zM564 253q-13 -4 -26 -6t-27 -2q-13 0 -25.5 2t-24.5 5l-55 -134q-7 -14 -11 -29t-4 -30q0 -51 36 -87t87 -36
t86.5 36t35.5 87q0 15 -3.5 29.5t-10.5 28.5l-58 136v0zM901 569q-15 0 -29.5 -4t-28.5 -11l-142 -60q4 -13 5.5 -26t1.5 -26q0 -12 -1.5 -23.5t-4.5 -23.5l140 -57q14 -7 29 -11t30 -4q51 0 87 36t36 87t-36 87t-87 36v0zM181 334l140 60q-3 11 -5 23.5t-2 24.5q0 13 2 26
t5 25l-139 57q-14 7 -29 11t-31 4q-50 0 -86 -36t-36 -87t36 -86.5t86 -35.5q16 0 30.5 3.5t28.5 10.5v0zM828 282l-148 59q-12 -20 -29 -37t-37 -30l61 -144q4 -15 12 -28.5t19 -23.5q17 -18 39.5 -27t47.5 -9q24 0 46.5 9t39.5 27q36 35 36 86t-36 87q-10 11 -23.5 18.5
t-27.5 12.5v0zM204 595l136 -55q13 23 32 41.5t42 31.5l-57 133q-5 16 -12.5 29t-18.5 24q-18 17 -40 26.5t-47 9.5q-24 0 -46.5 -9.5t-40.5 -26.5q-17 -17 -26 -39.5t-9 -47.5q0 -24 9 -46.5t26 -40.5q11 -10 24 -18t28 -12v0zM340 345l-140 -60q-15 -5 -28.5 -12.5
t-24.5 -18.5q-35 -36 -35 -87t35 -86q18 -18 40.5 -27t46.5 -9q25 0 47 9t40 27q10 10 18 23.5t12 27.5l58 142q-21 13 -38.5 31t-30.5 40v0zM679 545l137 58q16 5 29 12.5t24 18.5q17 17 26.5 39.5t9.5 47.5q0 24 -9.5 46.5t-26.5 39.5q-18 18 -40 27t-47 9t-47 -9t-40 -27
q-10 -10 -18 -23.5t-12 -27.5l-58 -142q22 -12 40.5 -29.5t31.5 -39.5zM782 852v0q19 0 37.5 -5.5t34.5 -16.5q-16 11 -34.5 16.5t-37.5 5.5zM511 585q-60 0 -102.5 -42.5t-42.5 -102.5t42.5 -102.5t102.5 -42.5t102.5 42.5t42.5 102.5t-42.5 102.5t-102.5 42.5v0zM512 361
q-33 0 -56 23t-23 56t23 56t56 23t56 -23t23 -56t-23 -56t-56 -23z" />
    <glyph glyph-name="uniB069" unicode="resort" horiz-adv-x="1017" 
d="M716 704h-34l-116 -101v0q-2 -1 -5.5 -1t-2.5 5l51 97h-25l-41 -77q-4 -5 -6 -1.5t-2 6.5v0v72h-51v-76v0q-1 -3 -4 -5.5t-5 2.5l-1 1v0v0v0l-41 78h-25l49 -94v0v0v0v0q3 -4 0 -6.5t-7 -0.5l-119 101h-34l149 -126q-7 -24 4 -46.5t34 -31.5v-491v0h-1v-4q0 -24 26 -24
t26 24v496q22 10 32.5 31.5t3.5 45.5l145 126v0zM1027 738q2 6 -2 10t-7 5l-474 202q-12 5 -28 5t-27 -5q-60 -25 -119.5 -50t-119 -49.5t-118.5 -50t-118 -51.5q-11 -5 -10.5 -15t12.5 -13q125 0 249.5 0.5t249.5 0.5h249.5h249.5l5.5 1.5t7.5 9.5q2 6 0 -1t0 1zM508 -44
q-15 0 -26.5 11t-13.5 26h-103q-20 0 -38 -18.5t-18 -38.5h394q0 20 -18 38.5t-38 18.5h-96q-2 -15 -14 -26t-29 -11zM286 116q22 2 21.5 25t-23.5 23h-151l-61 288q-5 23 -28 18t-18 -28q16 -77 30.5 -154.5t34.5 -153.5q4 -13 14.5 -15.5t22.5 -2.5v0h78.5h79.5v0zM75 102
l-4 9l-68 -135q-11 -20 10.5 -31t31.5 10l65 133q-10 0 -19.5 2t-15.5 12v0zM231 -37q2 -23 26 -20.5t22 25.5l-11 117h-48l11 -122v0zM734 117q-22 1 -21.5 24t23.5 23h151l61 289q5 22 28 17t18 -27q-16 -77 -30.5 -155t-34.5 -154q-4 -12 -14.5 -14.5t-22.5 -2.5v0h-78.5
h-79.5zM940 102l3 9l69 -135q11 -20 -10.5 -31t-31.5 9l-65 133q10 0 19.5 2.5t15.5 12.5zM784 -37q-3 -23 -26.5 -20.5t-21.5 24.5l11 118h47z" />
    </font>
</defs>
</svg>
