<?xml version="1.0" standalone="no"?>
<!DOCTYPE svg PUBLIC "-//W3C//DTD SVG 1.1//EN" "http://www.w3.org/Graphics/SVG/1.1/DTD/svg11.dtd" >
<svg xmlns="http://www.w3.org/2000/svg" xmlns:xlink="http://www.w3.org/1999/xlink" version="1.1">
<metadata>
Created by FontForge 20201107 at Mon Nov 13 16:29:10 2023
 By 
Copyright (c) 2023 by www.fontiran.com (Saeed Haqiqat). All rights reserved.
</metadata>
<defs>
<font id="KookFaNum-Bold" horiz-adv-x="0" >
  <font-face 
    font-family="KookFaNum"
    font-weight="700"
    font-stretch="normal"
    units-per-em="1000"
    panose-1="0 0 0 0 0 0 0 0 0 0"
    ascent="800"
    descent="-200"
    x-height="471"
    cap-height="618"
    bbox="-196 -465 1266 1142.54"
    underline-thickness="50"
    underline-position="-100"
    unicode-range="U+0020-FEFF"
  />
<missing-glyph horiz-adv-x="500" 
d="M410 -400h-317v1000h317v-1000zM167 -82v-113h166v113h-166zM300 -162h-100v47h100v-47zM233 91v-56h34v23h33v-47h-100v80h-33v-113h166v113h-100zM300 213v-66h-133v-34h166v100h-33zM167 273v-33h66v-37h-66v-33h100v70h66v33h-166zM233 334h-33v36h33v-36zM167 404
v-104h166v34h-66v70h-100zM168 533v-33h65v-37h-66v-33h166v33h-66v37h66v33h-165zM167 -218v-33h70l-70 -47v-33h166v33h-102l70 47h32v33h-166z" />
    <glyph glyph-name="hehyehabove-arab" unicode="&#x647;&#x654;" horiz-adv-x="462" 
d="M268 268h-51q-30 0 -62 -8v-92q0 -26 18.5 -44.5t44.5 -18.5h26q33 0 63 7v103q0 27 -23 42zM146 346l-29 17l57 90l167 -106q71 -48 71 -132v-47q0 -69 -49 -118.5t-119 -49.5h-26q-69 0 -118.5 49.5t-49.5 118.5v36q0 70 49 119q17 17 47 23zM304 687h-89
q-6 -18 -6 -36v-6l55 -20q13 -5 21 -12.5t13 -16t7 -17.5t2 -16q0 -23 -10.5 -39t-25.5 -26t-33.5 -14.5t-34.5 -4.5h-58l-4 47h62q39 0 66 17q0 14 -8 24.5t-19 14.5l-80 30v39q0 17 7 32t18 27t26 18.5t33 6.5h50z" />
    <glyph glyph-name="hehyehabove-arab.fina" unicode="&#xfeea;&#x654;" horiz-adv-x="487" arabic-form="final" 
d="M306 297h-89q-30 0 -62 -7v-80q0 -26 18.5 -44.5t44.5 -18.5h25q33 0 63 7v143zM487 105l23 -13v-79l-23 -13h-13q-69 0 -119 50q-10 10 -17 20q-41 -28 -95 -28h-25q-69 0 -118.5 49.5t-49.5 118.5v24q0 69 49.5 118.5t118.5 49.5h88v36l105 17v-287q0 -26 18.5 -44.5
t44.5 -18.5h13zM334 667h-89q-6 -18 -6 -36v-6l55 -20q13 -5 21 -12.5t13 -16t7 -17.5t2 -16q0 -23 -10.5 -39t-25.5 -26t-33.5 -14.5t-34.5 -4.5h-58l-4 47h62q39 0 66 17q0 14 -8 24.5t-19 14.5l-80 30v39q0 17 7 32t18 27t26 18.5t33 6.5h50z" />
    <glyph glyph-name="hehdoachashmee-arab.medi" unicode="&#xfeec;&#xfe8c;&#xfe8c;" horiz-adv-x="763" arabic-form="medial" 
d="M582 194q0 51 -50 62l-111 25q18 -35 18 -77v-36q0 -34 -12 -63h92q31 0 63 7v82zM246 105h25q33 0 63 7v92q0 26 -18.5 44.5t-44.5 18.5h-26q-31 0 -62 -8v-91q0 -26 18.5 -44.5t44.5 -18.5zM763 105l23 -13v-79l-23 -13h-13q-67 0 -116 47q-48 -47 -115 -47h-519
l-23 13v79l23 13h90q-12 29 -12 63v36q0 69 50 119q18 18 40 30q-20 10 -40 21l54 90q59 -35 126 -49l248 -57q58 -14 94.5 -59t36.5 -105v-26q0 -26 18.5 -44.5t44.5 -18.5h13z" />
    <glyph glyph-name="allah-arab.isol" unicode="&#x627;&#xfedf;&#xfee0;&#xfeea;" horiz-adv-x="1234" arabic-form="isolated" 
d="M306 297h-89q-30 0 -62 -7v-80q0 -26 18.5 -44.5t44.5 -18.5h25q33 0 63 7v143zM710 573q15 0 28 4v90l48 8v-73q0 -16 -6 -29.5t-16.5 -24t-24.5 -16.5t-29 -6h-10q-16 0 -29 6t-23 15q-10 -9 -23 -15q-14 -6 -29 -6h-14q-15 0 -29 6t-24.5 16.5t-16.5 24t-6 29.5v52
l48 8v-60q0 -12 8 -20.5t20 -8.5h14q15 0 28 4v68l48 5v-48q0 -12 8 -20.5t20 -8.5h10zM624 674v141l48 8v-141zM794 105q40 0 80 12v446l105 18v-394q0 -77 -53.5 -132t-131.5 -55h-36q-70 0 -120 51q-53 -51 -128 -51h-36q-69 0 -119 50q-10 10 -17 20q-41 -28 -95 -28
h-25q-69 0 -118.5 49.5t-49.5 118.5v24q0 69 49.5 118.5t118.5 49.5h88v26l105 17v-277q0 -26 18.5 -44.5t44.5 -18.5h36q40 0 80 12v366l105 18v-333q0 -26 18.5 -44.5t44.5 -18.5h36zM1184 621v-612l-105 -9v603z" />
    <glyph glyph-name="rialsign-arab.isol" unicode="&#x631;&#xfef3;&#xfe8e;&#x644;&#x621;" horiz-adv-x="1282" arabic-form="isolated" 
d="M586 63q0 -105 -74.5 -178.5t-177.5 -73.5h-32q-105 0 -178.5 73.5t-73.5 178.5v154l105 18v-172q0 -61 43 -104t104 -43h32q86 0 147 38v416q0 55 27 113t88.5 98t166.5 40h7v-453q0 -26 18.5 -44.5t44.5 -18.5h30q40 0 80 12v196l105 18v-144q0 -77 -53.5 -132
t-131.5 -55h-30q-69 0 -118.5 49.5t-49.5 118.5v334q-41 -13 -79 -37v-402zM673 -179l-5 -2l-3 94q3 2 8 2h221l16 -94h-237zM968 -190l-18 105h1q96 0 176 51v330l105 18v-253q0 -55 -26.5 -113t-88 -98t-149.5 -40z" />
    <glyph glyph-name="lamalefmaddaabove-arab.isol" unicode="&#xfedf;&#xfe82;" horiz-adv-x="473" arabic-form="isolated" 
d="M62 149v454l105 18v-454zM141 0h-93l-18 105h111q96 0 177 51v447l105 18v-370q0 -55 -27 -113t-88.5 -98t-166.5 -40zM110 657q-34 0 -52 -7v-17l-74 -12v9q0 126 126 126h65q13 0 25.5 2t25.5 5l8 -95q-34 -11 -69 -11h-55z" />
    <glyph glyph-name="lamalefmaddaabove-arab.fina" unicode="&#xfee0;&#xfe82;" horiz-adv-x="498" arabic-form="final" 
d="M62 149v454l105 18v-454zM498 105l23 -13v-79l-23 -13h-12q-70 0 -120 50q-10 10 -18 22q-18 -17 -40 -32q-62 -40 -167 -40h-93l-18 105h111q96 0 177 51v447l105 18v-453q0 -26 18 -44.5t45 -18.5h12zM110 657q-34 0 -52 -7v-17l-74 -12v9q0 126 126 126h65
q13 0 25.5 2t25.5 5l8 -95q-34 -11 -69 -11h-55z" />
    <glyph glyph-name="lamalefhamzaabove-arab.isol" unicode="&#xfedf;&#xfe84;" horiz-adv-x="473" arabic-form="isolated" 
d="M62 149v454l105 18v-454zM141 0h-93l-18 105h111q96 0 177 51v447l105 18v-370q0 -55 -27 -113t-88.5 -98t-166.5 -40zM42 626l-12 46l59 28q-16 14 -25 33t-10 37t4 32.5t16.5 26.5t27.5 19l32 15l27 -39l-65 -30q0 -9 2 -19t8 -22q9 -19 23.5 -23t26.5 1l49 23l13 -46z
" />
    <glyph glyph-name="lamalefhamzaabove-arab.fina" unicode="&#xfee0;&#xfe84;" horiz-adv-x="498" arabic-form="final" 
d="M62 149v454l105 18v-454zM498 105l23 -13v-79l-23 -13h-12q-70 0 -120 50q-10 10 -18 22q-18 -17 -40 -32q-62 -40 -167 -40h-93l-18 105h111q96 0 177 51v447l105 18v-453q0 -26 18 -44.5t45 -18.5h12zM42 626l-12 46l59 28q-16 14 -25 33t-10 37t4 32.5t16.5 26.5
t27.5 19l32 15l27 -39l-65 -30q0 -9 2 -19t8 -22q9 -19 23.5 -23t26.5 1l49 23l13 -46z" />
    <glyph glyph-name="lamalefhamzabelow-arab.isol" unicode="&#xfedf;&#xfe88;" horiz-adv-x="473" arabic-form="isolated" 
d="M62 149v454l105 18v-454zM141 0h-93l-18 105h111q96 0 177 51v447l105 18v-370q0 -55 -27 -113t-88.5 -98t-166.5 -40zM51 -277l-12 46l59 28q-16 14 -25 33t-10 37t4 32.5t16.5 26.5t27.5 19l32 15l27 -39l-65 -30q0 -9 2 -19t8 -22q9 -19 23.5 -23t26.5 1l49 23l13 -46
z" />
    <glyph glyph-name="lamalefhamzabelow-arab.fina" unicode="&#xfee0;&#xfe88;" horiz-adv-x="498" arabic-form="final" 
d="M62 149v454l105 18v-454zM498 105l23 -13v-79l-23 -13h-12q-70 0 -120 50q-10 10 -18 22q-18 -17 -40 -32q-62 -40 -167 -40h-93l-18 105h111q96 0 177 51v447l105 18v-453q0 -26 18 -44.5t45 -18.5h12zM51 -277l-12 46l59 28q-16 14 -25 33t-10 37t4 32.5t16.5 26.5
t27.5 19l32 15l27 -39l-65 -30q0 -9 2 -19t8 -22q9 -19 23.5 -23t26.5 1l49 23l13 -46z" />
    <glyph glyph-name="lamalef-arab.isol" unicode="&#xfedf;&#xfe8e;" horiz-adv-x="473" arabic-form="isolated" 
d="M62 149v454l105 18v-454zM141 0h-93l-18 105h111q96 0 177 51v447l105 18v-370q0 -55 -27 -113t-88.5 -98t-166.5 -40z" />
    <glyph glyph-name="lamalef-arab.fina" unicode="&#xfee0;&#xfe8e;" horiz-adv-x="498" arabic-form="final" 
d="M62 149v454l105 18v-454zM498 105l23 -13v-79l-23 -13h-12q-70 0 -120 50q-10 10 -18 22q-18 -17 -40 -32q-62 -40 -167 -40h-93l-18 105h111q96 0 177 51v447l105 18v-453q0 -26 18 -44.5t45 -18.5h12z" />
    <glyph glyph-name="lam_alefwasla-arab.medi.fina" unicode="&#xfee0;&#xfb51;" horiz-adv-x="498" 
d="M62 149v454l105 18v-454zM498 105l23 -13v-79l-23 -13h-12q-70 0 -120 50q-10 10 -18 22q-18 -17 -40 -32q-62 -40 -167 -40h-93l-18 105h111q96 0 177 51v447l105 18v-453q0 -26 18 -44.5t45 -18.5h12zM130 697h82q14 0 26 3t22 8v44q0 11 -8 19.5t-21 8.5h-33zM104 741
l35 42q17 21 41 32.5t51 11.5q16 0 29.5 -5.5t24 -16t17 -24t6.5 -29.5v-7q0 -20 -8 -37.5t-20.5 -30t-30 -20t-37.5 -7.5h-79q-16 0 -30 6t-24 17v0q-12 -10 -25 -16q-16 -7 -34 -7v47q21 0 37 5v73l47 8v-42z" />
    <glyph glyph-name="lam_alefwasla-arab.init.fina" unicode="&#xfedf;&#xfb51;" horiz-adv-x="473" 
d="M130 697h82q14 0 26 3t22 8v44q0 11 -8 19.5t-21 8.5h-33zM104 741l35 42q17 21 41 32.5t51 11.5q16 0 29.5 -5.5t24 -16t17 -24t6.5 -29.5v-7q0 -20 -8 -37.5t-20.5 -30t-30 -20t-37.5 -7.5h-79q-16 0 -30 6t-24 17v0q-12 -10 -25 -16q-16 -7 -34 -7v47q21 0 37 5v73
l47 8v-42zM62 149v454l105 18v-454zM141 0h-93l-18 105h111q96 0 177 51v447l105 18v-370q0 -55 -27 -113t-88.5 -98t-166.5 -40z" />
    <glyph glyph-name="hamza-arab" unicode="&#x621;" horiz-adv-x="383" arabic-form="isolated" 
d="M56 0l-21 78l98 46q-27 22 -42 55q-15 32 -16.5 61.5t7 54t28 44t45.5 31.5l54 25l45 -65l-109 -51q-1 -13 3.5 -30.5t13.5 -36.5q15 -31 39 -38t44 2l81 38l22 -77z" />
    <glyph glyph-name="alefmaddaabove-arab" unicode="&#x622;" horiz-adv-x="205" arabic-form="isolated" 
d="M50 557l105 17v-565l-105 -9v557zM96 621q-34 0 -52 -7v-17l-74 -12v9q0 126 126 126h65q13 0 25.5 2t25.5 5l8 -95q-34 -11 -69 -11h-55z" />
    <glyph glyph-name="alefhamzaabove-arab" unicode="&#x623;" horiz-adv-x="205" arabic-form="isolated" 
d="M12 561l-12 46l59 28q-16 14 -25 33t-10 37t4 32.5t16.5 26.5t27.5 19l32 15l27 -39l-65 -30q0 -9 2 -19t8 -22q9 -19 23.5 -23t26.5 1l49 23l13 -46zM50 557l105 17v-565l-105 -9v557z" />
    <glyph glyph-name="wawhamzaabove-arab" unicode="&#x624;" horiz-adv-x="462" arabic-form="isolated" 
d="M307 112v92q0 26 -18 44.5t-45 18.5h-26q-30 0 -62 -8v-91q0 -26 18.5 -44.5t44.5 -18.5h25q33 0 63 7zM412 61q0 -55 -26.5 -113t-88 -98t-166.5 -40h-65l-18 105h83q96 0 176 51v45q-29 -11 -63 -11h-25q-69 0 -118.5 49.5t-49.5 118.5v36q0 69 49.5 118.5t118.5 49.5
h25q71 0 119.5 -49.5t48.5 -118.5v-143zM144 410l-12 46l59 28q-16 14 -25 33t-10 37t4 32.5t16.5 26.5t27.5 19l32 15l27 -39l-65 -30q0 -9 2 -19t8 -22q9 -19 23.5 -23t26.5 1l49 23l13 -46z" />
    <glyph glyph-name="alefhamzabelow-arab" unicode="&#x625;" horiz-adv-x="205" arabic-form="isolated" 
d="M18 -261l-12 46l59 28q-16 14 -25 33t-10 37t4 32.5t16.5 26.5t27.5 19l32 15l27 -39l-65 -30q0 -9 2 -19t8 -22q9 -19 23.5 -23t26.5 1l49 23l13 -46zM155 621v-612l-105 -9v603z" />
    <glyph glyph-name="yehhamzaabove-arab" unicode="&#x626;" horiz-adv-x="605" arabic-form="isolated" 
d="M76 257l-12 46l59 28q-16 14 -25 33t-10 37t4 32.5t16.5 26.5t27.5 19l32 15l27 -39l-65 -30q0 -9 2 -19t8 -22q9 -19 23.5 -23t26.5 1l49 23l13 -46zM558 274h-198q-12 -39 -12 -82v-12l121 -46q55 -22 75.5 -62t20.5 -75q0 -67 -38.5 -107.5t-92 -59.5t-100.5 -19h-32
q-105 0 -178.5 73.5t-73.5 178.5v154l105 18v-172q0 -61 43 -104t104 -43h32q86 0 147 38q0 64 -62 88l-176 64v86q0 78 54.5 132.5t132.5 54.5h111z" />
    <glyph glyph-name="alef-arab" unicode="&#x627;" horiz-adv-x="205" arabic-form="isolated" 
d="M155 621v-612l-105 -9v603z" />
    <glyph glyph-name="beh-arab" unicode="&#x628;" horiz-adv-x="780" arabic-form="isolated" 
d="M545 105q40 0 80 12v179l105 18v-127q0 -77 -53.5 -132t-131.5 -55h-327q-69 0 -118.5 49.5t-49.5 118.5v128l105 18v-146q0 -26 18.5 -44.5t44.5 -18.5h327zM391 -80l67 -67l-67 -67l-67 67z" />
    <glyph glyph-name="tehmarbuta-arab" unicode="&#x629;" horiz-adv-x="462" arabic-form="isolated" 
d="M268 268h-51q-30 0 -62 -8v-92q0 -26 18.5 -44.5t44.5 -18.5h26q33 0 63 7v103q0 27 -23 42zM146 346l-29 17l57 90l167 -106q71 -48 71 -132v-47q0 -69 -49 -118.5t-119 -49.5h-26q-69 0 -118.5 49.5t-49.5 118.5v36q0 70 49 119q17 17 47 23zM331 487h-213v94h213
q5 0 8 -2l-3 -94z" />
    <glyph glyph-name="teh-arab" unicode="&#x62a;" horiz-adv-x="780" arabic-form="isolated" 
d="M545 105q40 0 80 12v179l105 18v-127q0 -77 -53.5 -132t-131.5 -55h-327q-69 0 -118.5 49.5t-49.5 118.5v128l105 18v-146q0 -26 18.5 -44.5t44.5 -18.5h327zM495 289h-213v94h213q5 0 8 -2l-3 -94z" />
    <glyph glyph-name="theh-arab" unicode="&#x62b;" horiz-adv-x="780" arabic-form="isolated" 
d="M545 105q40 0 80 12v179l105 18v-127q0 -77 -53.5 -132t-131.5 -55h-327q-69 0 -118.5 49.5t-49.5 118.5v128l105 18v-146q0 -26 18.5 -44.5t44.5 -18.5h327zM495 289h-213v94h213q5 0 8 -2l-3 -94zM391 522l67 -67l-67 -68l-67 68z" />
    <glyph glyph-name="jeem-arab" unicode="&#x62c;" horiz-adv-x="592" arabic-form="isolated" 
d="M384 243l-94 30q-42 13 -85 13q-42 0 -70 -10v-103l-95 -18v68q0 66 24 102t61.5 51t79.5 15q59 0 116 -18l251 -79l-31 -100l-30 10l-366 -258v-74q0 -52 37 -88.5t88 -36.5h240l-13 -105h-227q-95 0 -162.5 67.5t-67.5 162.5q0 127 108 207zM311 -38l67 -67l-67 -67
l-67 67z" />
    <glyph glyph-name="hah-arab" unicode="&#x62d;" horiz-adv-x="592" arabic-form="isolated" 
d="M384 243l-94 30q-42 13 -85 13q-42 0 -70 -10v-103l-95 -18v68q0 66 24 102t61.5 51t79.5 15q59 0 116 -18l251 -79l-31 -100l-30 10l-366 -258v-74q0 -52 37 -88.5t88 -36.5h240l-13 -105h-227q-95 0 -162.5 67.5t-67.5 162.5q0 127 108 207z" />
    <glyph glyph-name="khah-arab" unicode="&#x62e;" horiz-adv-x="592" arabic-form="isolated" 
d="M384 243l-94 30q-42 13 -85 13q-42 0 -70 -10v-103l-95 -18v68q0 66 24 102t61.5 51t79.5 15q59 0 116 -18l251 -79l-31 -100l-30 10l-366 -258v-74q0 -52 37 -88.5t88 -36.5h240l-13 -105h-227q-95 0 -162.5 67.5t-67.5 162.5q0 127 108 207zM208 591l67 -67l-67 -68
l-67 68z" />
    <glyph glyph-name="dal-arab" unicode="&#x62f;" horiz-adv-x="429" arabic-form="isolated" 
d="M189 404l142 -147q48 -49 48 -109q0 -56 -51.5 -102t-122.5 -46h-158l-17 105h175q39 0 79 13q0 41 -29 72l-141 141z" />
    <glyph glyph-name="thal-arab" unicode="&#x630;" horiz-adv-x="429" arabic-form="isolated" 
d="M189 404l142 -147q48 -49 48 -109q0 -56 -51.5 -102t-122.5 -46h-158l-17 105h175q39 0 79 13q0 41 -29 72l-141 141zM189 591l67 -67l-67 -68l-67 68z" />
    <glyph glyph-name="reh-arab" unicode="&#x631;" horiz-adv-x="312" arabic-form="isolated" 
d="M-2 -190l-18 105h1q96 0 176 51v330l105 18v-253q0 -55 -26.5 -113t-88 -98t-149.5 -40z" />
    <glyph glyph-name="zain-arab" unicode="&#x632;" horiz-adv-x="312" arabic-form="isolated" 
d="M-2 -190l-18 105h1q96 0 176 51v330l105 18v-253q0 -55 -26.5 -113t-88 -98t-149.5 -40zM209 510l67 -67l-67 -68l-67 68z" />
    <glyph glyph-name="seen-arab" unicode="&#x633;" horiz-adv-x="1150" arabic-form="isolated" 
d="M582 14q-14 -74 -70 -129q-75 -74 -178 -74h-32q-105 0 -178.5 73.5t-73.5 178.5v154l105 18v-172q0 -61 43 -104t104 -43h32q86 0 147 38v330l105 17v-133q0 -26 18 -44.5t45 -18.5h30q33 0 63 7v153l105 11v-108q0 -26 18.5 -44.5t44.5 -18.5h22q33 0 63 7v201l105 18
v-163q0 -69 -49 -118.5t-119 -49.5h-22q-67 0 -115 46q-48 -46 -116 -46h-30q-37 0 -67 14z" />
    <glyph glyph-name="sheen-arab" unicode="&#x634;" horiz-adv-x="1150" arabic-form="isolated" 
d="M913 401h-249v95h249q3 0 7 -2l-2 -95zM792 635l68 -67l-68 -67l-67 67zM582 14q-14 -74 -70 -129q-75 -74 -178 -74h-32q-105 0 -178.5 73.5t-73.5 178.5v154l105 18v-172q0 -61 43 -104t104 -43h32q86 0 147 38v330l105 17v-133q0 -26 18 -44.5t45 -18.5h30q33 0 63 7
v153l105 11v-108q0 -26 18.5 -44.5t44.5 -18.5h22q33 0 63 7v201l105 18v-163q0 -69 -49 -118.5t-119 -49.5h-22q-67 0 -115 46q-48 -46 -116 -46h-30q-37 0 -67 14z" />
    <glyph glyph-name="sad-arab" unicode="&#x635;" horiz-adv-x="1077" arabic-form="isolated" 
d="M643 105h185q57 0 104 24v97q0 26 -18.5 44.5t-44.5 18.5h-77zM649 0q-37 0 -67 14q-14 -74 -70 -129q-75 -74 -178 -74h-32q-105 0 -178.5 73.5t-73.5 178.5v154l105 18v-172q0 -61 43 -104t104 -43h32q86 0 147 38v324l105 18v-94l77 94q85 98 206 98q69 0 118.5 -49.5
t49.5 -118.5v-18q0 -86 -61 -147t-148 -61h-179z" />
    <glyph glyph-name="dad-arab" unicode="&#x636;" horiz-adv-x="1077" arabic-form="isolated" 
d="M643 105h185q57 0 104 24v97q0 26 -18.5 44.5t-44.5 18.5h-77zM649 0q-37 0 -67 14q-14 -74 -70 -129q-75 -74 -178 -74h-32q-105 0 -178.5 73.5t-73.5 178.5v154l105 18v-172q0 -61 43 -104t104 -43h32q86 0 147 38v324l105 18v-94l77 94q85 98 206 98q69 0 118.5 -49.5
t49.5 -118.5v-18q0 -86 -61 -147t-148 -61h-179zM869 591l67 -67l-67 -68l-67 68z" />
    <glyph glyph-name="tah-arab" unicode="&#x637;" horiz-adv-x="635" arabic-form="isolated" 
d="M201 105h185q57 0 104 24v97q0 26 -18.5 44.5t-44.5 18.5h-77zM47 0l-17 105h58v498l105 18v-359l28 34q85 98 206 98q70 0 119 -49.5t49 -118.5v-18q0 -86 -61 -147t-148 -61h-339z" />
    <glyph glyph-name="zah-arab" unicode="&#x638;" horiz-adv-x="635" arabic-form="isolated" 
d="M201 105h185q57 0 104 24v97q0 26 -18.5 44.5t-44.5 18.5h-77zM47 0l-17 105h58v498l105 18v-359l28 34q85 98 206 98q70 0 119 -49.5t49 -118.5v-18q0 -86 -61 -147t-148 -61h-339zM427 591l67 -67l-67 -68l-67 68z" />
    <glyph glyph-name="ain-arab" unicode="&#x639;" horiz-adv-x="457" arabic-form="isolated" 
d="M124 37q-37 21 -56 52q-28 43 -28 106q0 95 53.5 145.5t131.5 50.5h111l18 -105h-192q-17 -33 -17 -91q0 -46 25.5 -68t54.5 -22h171l-17 -105h-65q-91 0 -169 -48v-80q0 -52 37 -88.5t88 -36.5h167l-14 -105h-153q-95 0 -161.5 66t-68.5 164q0 62 29 110q18 30 55 55z
" />
    <glyph glyph-name="ghain-arab" unicode="&#x63a;" horiz-adv-x="457" arabic-form="isolated" 
d="M124 37q-37 21 -56 52q-28 43 -28 106q0 95 53.5 145.5t131.5 50.5h111l18 -105h-192q-17 -33 -17 -91q0 -46 25.5 -68t54.5 -22h171l-17 -105h-65q-91 0 -169 -48v-80q0 -52 37 -88.5t88 -36.5h167l-14 -105h-153q-95 0 -161.5 66t-68.5 164q0 62 29 110q18 30 55 55z
M226 591l67 -67l-67 -68l-67 68z" />
    <glyph glyph-name="feh-arab" unicode="&#x641;" horiz-adv-x="840" arabic-form="isolated" 
d="M685 308q0 26 -18 44.5t-45 18.5h-17q-30 0 -61 -8v-70q0 -26 18 -44.5t45 -18.5h15q33 0 63 7v71zM685 136q-29 -11 -63 -11h-15q-70 0 -119 49.5t-49 118.5v15q0 69 49 118.5t119 49.5h15q71 0 119.5 -49.5t48.5 -118.5v-121q0 -77 -53.5 -132t-131.5 -55h-387
q-69 0 -118.5 49.5t-49.5 118.5v128l105 18v-146q0 -26 18.5 -44.5t44.5 -18.5h387q40 0 80 12v19zM616 667l67 -67l-67 -68l-67 68z" />
    <glyph glyph-name="qaf-arab" unicode="&#x642;" horiz-adv-x="636" arabic-form="isolated" 
d="M481 112v92q0 26 -18.5 44.5t-44.5 18.5h-27q-30 0 -62 -8v-91q0 -26 18.5 -44.5t44.5 -18.5h26q32 0 63 7zM586 63q0 -105 -74.5 -178.5t-177.5 -73.5h-32q-105 0 -178.5 73.5t-73.5 178.5v154l105 18v-172q0 -61 43 -104t104 -43h32q86 0 147 38v58q-29 -12 -63 -12
h-26q-69 0 -118.5 49.5t-49.5 118.5v36q0 69 49.5 118.5t118.5 49.5h26q70 0 119 -49.5t49 -118.5v-141zM508 456h-213v94h213q5 0 8 -2l-3 -94z" />
    <glyph glyph-name="kaf-arab" unicode="&#x643;" horiz-adv-x="780" arabic-form="isolated" 
d="M472 463h-89q-5 -18 -5 -36v-6l54 -20q13 -5 21.5 -12.5t13 -16t6.5 -17t2 -16.5q0 -23 -10.5 -38.5t-25.5 -25.5t-33.5 -15t-34.5 -5h-57l-5 47h62q39 0 66 17q0 14 -7.5 24.5t-20.5 15.5l-79 30v38q0 17 7 32.5t18 27t26.5 18t32.5 6.5h51zM545 105q40 0 80 12v486
l105 18v-434q0 -77 -53.5 -132t-131.5 -55h-327q-69 0 -118.5 49.5t-49.5 118.5v128l105 18v-146q0 -26 18.5 -44.5t44.5 -18.5h327z" />
    <glyph glyph-name="lam-arab" unicode="&#x644;" horiz-adv-x="636" arabic-form="isolated" 
d="M302 -189q-105 0 -178.5 73.5t-73.5 178.5v154l105 18v-172q0 -61 43 -104t104 -43h32q86 0 147 38v649l105 18v-558q0 -105 -74.5 -178.5t-177.5 -73.5h-32z" />
    <glyph glyph-name="meem-arab" unicode="&#x645;" horiz-adv-x="597" arabic-form="isolated" 
d="M290 264v-96q0 -26 18.5 -44.5t44.5 -18.5h26q32 0 63 7v92q0 26 -18.5 44.5t-44.5 18.5h-48q-21 0 -41 -3zM379 372q69 0 118.5 -49.5t49.5 -118.5v-36q0 -69 -49.5 -118.5t-118.5 -49.5h-26q-69 0 -118.5 49.5t-49.5 118.5v64q-15 -7 -30 -17v-427l-105 -18v351
q0 54 27 112.5t88 98.5t166 40h48z" />
    <glyph glyph-name="noon-arab" unicode="&#x646;" horiz-adv-x="636" arabic-form="isolated" 
d="M302 -189q-105 0 -178.5 73.5t-73.5 178.5v154l105 18v-172q0 -61 43 -104t104 -43h32q86 0 147 38v342l105 18v-251q0 -105 -74.5 -178.5t-177.5 -73.5h-32zM323 293l67 -67l-67 -68l-67 68z" />
    <glyph glyph-name="heh-arab" unicode="&#x647;" horiz-adv-x="462" arabic-form="isolated" 
d="M268 268h-51q-30 0 -62 -8v-92q0 -26 18.5 -44.5t44.5 -18.5h26q33 0 63 7v103q0 27 -23 42zM146 346l-29 17l57 90l167 -106q71 -48 71 -132v-47q0 -69 -49 -118.5t-119 -49.5h-26q-69 0 -118.5 49.5t-49.5 118.5v36q0 70 49 119q17 17 47 23z" />
    <glyph glyph-name="waw-arab" unicode="&#x648;" horiz-adv-x="462" arabic-form="isolated" 
d="M307 112v92q0 26 -18 44.5t-45 18.5h-26q-30 0 -62 -8v-91q0 -26 18.5 -44.5t44.5 -18.5h25q33 0 63 7zM412 61q0 -55 -26.5 -113t-88 -98t-166.5 -40h-65l-18 105h83q96 0 176 51v45q-29 -11 -63 -11h-25q-69 0 -118.5 49.5t-49.5 118.5v36q0 69 49.5 118.5t118.5 49.5
h25q71 0 119.5 -49.5t48.5 -118.5v-143z" />
    <glyph glyph-name="alefmaksura-arab" unicode="&#x649;" horiz-adv-x="605" arabic-form="isolated" 
d="M558 274h-198q-12 -39 -12 -82v-12l121 -46q55 -22 75.5 -62t20.5 -75q0 -67 -38.5 -107.5t-92 -59.5t-100.5 -19h-32q-105 0 -178.5 73.5t-73.5 178.5v154l105 18v-172q0 -61 43 -104t104 -43h32q86 0 147 38q0 64 -62 88l-176 64v86q0 78 54.5 132.5t132.5 54.5h111z
" />
    <glyph glyph-name="yeh-arab" unicode="&#x64a;" horiz-adv-x="605" arabic-form="isolated" 
d="M406 -323h-213v94h213q5 0 8 -2l-3 -94zM558 274h-198q-12 -39 -12 -82v-12l121 -46q55 -22 75.5 -62t20.5 -75q0 -67 -38.5 -107.5t-92 -59.5t-100.5 -19h-32q-105 0 -178.5 73.5t-73.5 178.5v154l105 18v-172q0 -61 43 -104t104 -43h32q86 0 147 38q0 64 -62 88
l-176 64v86q0 78 54.5 132.5t132.5 54.5h111z" />
    <glyph glyph-name="dotlessbeh-arab.init" unicode="&#x66e;" horiz-adv-x="269" 
d="M0 0l-23 13v79l23 13h34q40 0 80 12v196l105 18v-144q0 -77 -53.5 -132t-131.5 -55h-34z" />
    <glyph glyph-name="dotlessbeh-arab.medi" unicode="&#x66e;" horiz-adv-x="306" 
d="M306 105l23 -13v-79l-23 -13h-13q-70 0 -120 51q-53 -51 -128 -51h-45l-23 13v79l23 13h45q40 0 80 12v179l105 18v-146q0 -26 18.5 -44.5t44.5 -18.5h13z" />
    <glyph glyph-name="dotlessbeh-arab.fina" unicode="&#x66e;" horiz-adv-x="806" 
d="M806 105l23 -13v-79l-23 -13h-13q-70 0 -120 51q-53 -51 -128 -51h-327q-69 0 -118.5 49.5t-49.5 118.5v128l105 18v-146q0 -26 18.5 -44.5t44.5 -18.5h327q40 0 80 12v179l105 18v-146q0 -26 18.5 -44.5t44.5 -18.5h13z" />
    <glyph glyph-name="dotlessqaf-arab.fina" unicode="&#x66f;" horiz-adv-x="660" 
d="M481 105v99q0 26 -18.5 44.5t-44.5 18.5h-27q-30 0 -62 -8v-91q0 -26 18.5 -44.5t44.5 -18.5h89zM660 105l23 -13v-79l-23 -13h-81q-16 -65 -67 -115q-75 -74 -178 -74h-32q-105 0 -178.5 73.5t-73.5 178.5v154l105 18v-172q0 -61 43 -104t104 -43h32q86 0 147 38v46h-89
q-69 0 -118.5 49.5t-49.5 118.5v36q0 69 49.5 118.5t118.5 49.5h26q70 0 119 -49.5t49 -118.5v-99h74z" />
    <glyph glyph-name="rehsmallv-arab.fina" unicode="&#x692;" horiz-adv-x="355" 
d="M355 105l23 -13v-79l-23 -13h-13q-37 0 -68 14q-6 -33 -21 -66q-27 -58 -88.5 -98t-166.5 -40l-18 105h18q95 0 176 51v330l105 18v-146q0 -26 18.5 -44.5t44.5 -18.5h13zM255 362h-62q-5 19 -10 36q-18 56 -50 106l39 26q16 -24 29 -50t22 -53q19 56 51 104l39 -26
q-32 -50 -49 -106q-5 -18 -9 -37z" />
    <glyph glyph-name="rehsmallvbelow-arab.fina" unicode="&#x695;" horiz-adv-x="355" 
d="M355 105l23 -13v-79l-23 -13h-13q-37 0 -68 14q-6 -33 -21 -66q-27 -58 -88.5 -98t-166.5 -40l-18 105h18q95 0 176 51v330l105 18v-146q0 -26 18.5 -44.5t44.5 -18.5h13zM95 -400h-62q-5 19 -10 37q-18 55 -50 105l39 26q16 -24 29 -49q13 -27 22 -54q19 56 51 104
l39 -26q-32 -50 -49 -105q-5 -19 -9 -38z" />
    <glyph glyph-name="dotlessfeh-arab.init" unicode="&#x6a1;" horiz-adv-x="435" 
d="M280 308q0 26 -18 44.5t-45 18.5h-17q-30 0 -61 -8v-70q0 -26 18 -44.5t45 -18.5h15q33 0 63 7v71zM280 136q-29 -11 -63 -11h-15q-70 0 -119 49.5t-49 118.5v15q0 69 49 118.5t119 49.5h15q71 0 119.5 -49.5t48.5 -118.5v-121q0 -77 -53.5 -132t-131.5 -55h-200l-23 13
v79l23 13h200q40 0 80 12v19z" />
    <glyph glyph-name="dotlessfeh-arab.medi" unicode="&#x6a1;" horiz-adv-x="465" 
d="M308 203q0 28 -20 48t-50 20q-42 0 -82 -15v-69q0 -24 15.5 -42t38.5 -21l22 -3q38 5 76 12v70zM465 105l23 -13v-79l-23 -13h-6q-114 0 -226 25q-113 -25 -227 -25h-6l-23 13v79l23 13h6q32 0 65 1q-20 37 -20 81v19q0 41 19.5 79.5t61 64.5t106.5 26q75 0 125 -50
t50 -123v-16q0 -44 -20 -81q33 -1 66 -1h6z" />
    <glyph glyph-name="dotlessfeh-arab.fina" unicode="&#x6a1;" horiz-adv-x="870" 
d="M713 203q0 28 -20 48t-50 20q-42 0 -82 -15v-69q0 -24 15.5 -42t38.5 -21l22 -3q38 5 76 12v70zM870 105l23 -13v-79l-23 -13h-6q-114 0 -226 25q-113 -25 -227 -25h-193q-69 0 -118.5 49.5t-49.5 118.5v128l105 18v-146q0 -26 18.5 -44.5t44.5 -18.5h193q32 0 65 1
q-20 37 -20 81v19q0 41 19.5 79.5t61 64.5t106.5 26q75 0 125 -50t50 -123v-16q0 -44 -20 -81q33 -1 66 -1h6z" />
    <glyph glyph-name="qafthreedotsabove-arab.fina" unicode="&#x6a8;" horiz-adv-x="660" 
d="M481 105v99q0 26 -18.5 44.5t-44.5 18.5h-27q-30 0 -62 -8v-91q0 -26 18.5 -44.5t44.5 -18.5h89zM660 105l23 -13v-79l-23 -13h-81q-16 -65 -67 -115q-75 -74 -178 -74h-32q-105 0 -178.5 73.5t-73.5 178.5v154l105 18v-172q0 -61 43 -104t104 -43h32q86 0 147 38v46h-89
q-69 0 -118.5 49.5t-49.5 118.5v36q0 69 49.5 118.5t118.5 49.5h26q70 0 119 -49.5t49 -118.5v-99h74zM508 456h-213v94h213q5 0 8 -2l-3 -94zM404 689l67 -67l-67 -68l-67 68z" />
    <glyph glyph-name="lamsmallv-arab.init" unicode="&#x6b5;" horiz-adv-x="258" 
d="M0 0l-23 13v79l23 13h23q40 0 80 12v486l105 18v-434q0 -77 -53.5 -132t-131.5 -55h-23zM179 669h-62q-5 19 -10 36q-18 56 -50 106l39 26q16 -24 29 -50t22 -53q19 56 51 104l39 -26q-32 -50 -49 -106q-5 -18 -9 -37z" />
    <glyph glyph-name="lamsmallv-arab.medi" unicode="&#x6b5;" horiz-adv-x="284" 
d="M284 105l23 -13v-79l-23 -13h-13q-70 0 -120 51q-53 -51 -128 -51h-23l-23 13v79l23 13h23q40 0 80 12v486l105 18v-453q0 -26 18.5 -44.5t44.5 -18.5h13zM190 669h-62q-5 19 -10 36q-18 56 -50 106l39 26q16 -24 29 -50t22 -53q19 56 51 104l39 -26q-32 -50 -49 -106
q-5 -18 -9 -37z" />
    <glyph glyph-name="lamsmallv-arab.fina" unicode="&#x6b5;" horiz-adv-x="661" 
d="M661 105l23 -13v-79l-23 -13h-12q-37 0 -67 14q-14 -74 -70 -129q-75 -74 -178 -74h-32q-105 0 -178.5 73.5t-73.5 178.5v154l105 18v-172q0 -61 43 -104t104 -43h32q86 0 147 38v649l105 18v-453q0 -26 18 -44.5t45 -18.5h12zM559 669h-62q-5 19 -10 36q-18 56 -50 106
l39 26q16 -24 29 -50t22 -53q19 56 51 104l39 -26q-32 -50 -49 -106q-5 -18 -9 -37z" />
    <glyph glyph-name="hehgoalhamzaabove-arab.fina" unicode="&#x6c2;" horiz-adv-x="488" 
d="M89 379l-12 46l59 28q-16 14 -25 33t-10 37t4 32.5t16.5 26.5t27.5 19l32 15l27 -39l-65 -30q0 -9 2 -19t8 -22q9 -19 23.5 -23t26.5 1l49 23l13 -46zM488 105l23 -13v-79l-23 -13h-13q-69 0 -118.5 49.5t-49.5 118.5v87h-102q-50 -81 -50 -177v-22l-105 16v6
q0 105 40 167t98 88.5t113 26.5h111v-192q0 -26 18.5 -44.5t44.5 -18.5h13z" />
    <glyph glyph-name="tehmarbutagoal-arab.fina" unicode="&#x6c3;" horiz-adv-x="488" 
d="M401 434h-213v94h213q5 0 8 -2l-3 -94zM488 105l23 -13v-79l-23 -13h-13q-69 0 -118.5 49.5t-49.5 118.5v87h-102q-50 -81 -50 -177v-22l-105 16v6q0 105 40 167t98 88.5t113 26.5h111v-192q0 -26 18.5 -44.5t44.5 -18.5h13z" />
    <glyph glyph-name="yehsmallv-arab.init" unicode="&#x6ce;" horiz-adv-x="287" 
d="M0 0l-23 13v79l23 13h52q40 0 80 12v196l105 18v-144q0 -77 -53.5 -132t-131.5 -55h-52zM203 384h-62q-5 19 -10 36q-18 56 -50 106l39 26q16 -24 29 -50t22 -53q19 56 51 104l39 -26q-32 -50 -49 -106q-5 -18 -9 -37zM181 -194h-213v94h213q5 0 8 -2l-3 -94z" />
    <glyph glyph-name="yehsmallv-arab.medi" unicode="&#x6ce;" horiz-adv-x="325" 
d="M0 0l-23 13v79l23 13h64q40 0 80 12v179l105 18v-146q0 -26 18.5 -44.5t44.5 -18.5h13l23 -13v-79l-23 -13h-13q-70 0 -120 51q-53 -51 -128 -51h-64zM223 384h-62q-5 19 -10 36q-18 56 -50 106l39 26q16 -24 29 -50t22 -53q19 56 51 104l39 -26q-32 -50 -49 -106
q-5 -18 -9 -37zM190 -194h-213v94h213q5 0 8 -2l-3 -94z" />
    <glyph glyph-name="yehsmallv-arab.fina" unicode="&#x6ce;" horiz-adv-x="602" 
d="M602 105l23 -13v-79l-23 -13h-16q-1 -102 -74 -174q-75 -74 -178 -74h-32q-105 0 -178.5 73.5t-73.5 178.5v165l105 18v-183q0 -61 43 -104t104 -43h32q86 0 147 38v105h-174l-10 105h305zM211 223h-62q-5 19 -10 36q-18 56 -50 106l39 26q16 -24 29 -50t22 -53
q19 56 51 104l39 -26q-32 -50 -49 -106q-5 -18 -9 -37z" />
    <glyph glyph-name="ae-arab.fina" unicode="&#x6d5;" horiz-adv-x="487" 
d="M306 297h-89q-30 0 -62 -7v-80q0 -26 18.5 -44.5t44.5 -18.5h25q33 0 63 7v143zM487 105l23 -13v-79l-23 -13h-13q-69 0 -119 50q-10 10 -17 20q-41 -28 -95 -28h-25q-69 0 -118.5 49.5t-49.5 118.5v24q0 69 49.5 118.5t118.5 49.5h88v36l105 17v-287q0 -26 18.5 -44.5
t44.5 -18.5h13z" />
    <glyph glyph-name="alefwasla-arab.fina" unicode="&#x671;" horiz-adv-x="231" arabic-form="final" 
d="M231 105l23 -13v-79l-23 -13h-13q-69 0 -118.5 49.5t-49.5 118.5v389l105 17v-406q0 -26 18.5 -44.5t44.5 -18.5h13zM107 648h82q14 0 26 3t22 8v44q0 11 -8 19.5t-21 8.5h-33zM81 692l35 42q17 21 41 32.5t51 11.5q16 0 29.5 -5.5t24 -16t17 -24t6.5 -29.5v-7
q0 -20 -8 -37.5t-20.5 -30t-30 -20t-37.5 -7.5h-79q-16 0 -30 6t-24 17v0q-12 -10 -25 -16q-16 -7 -34 -7v47q21 0 37 5v73l47 8v-42z" />
    <glyph glyph-name="peh-arab.fina" unicode="&#x67e;" horiz-adv-x="806" arabic-form="final" 
d="M806 105l23 -13v-79l-23 -13h-13q-70 0 -120 51q-53 -51 -128 -51h-327q-69 0 -118.5 49.5t-49.5 118.5v128l105 18v-146q0 -26 18.5 -44.5t44.5 -18.5h327q40 0 80 12v179l105 18v-146q0 -26 18.5 -44.5t44.5 -18.5h13zM494 -194h-213v94h213q5 0 8 -2l-3 -94zM391 -199
l67 -67l-67 -67l-67 67z" />
    <glyph glyph-name="peh-arab.init" unicode="&#x67e;" horiz-adv-x="287" arabic-form="initial" 
d="M0 0l-23 13v79l23 13h52q40 0 80 12v196l105 18v-144q0 -77 -53.5 -132t-131.5 -55h-52zM181 -194h-213v94h213q5 0 8 -2l-3 -94zM78 -199l67 -67l-67 -67l-67 67z" />
    <glyph glyph-name="peh-arab.medi" unicode="&#x67e;" horiz-adv-x="325" arabic-form="medial" 
d="M190 -194h-213v94h213q5 0 8 -2l-3 -94zM87 -199l67 -67l-67 -67l-67 67zM0 0l-23 13v79l23 13h64q40 0 80 12v179l105 18v-146q0 -26 18.5 -44.5t44.5 -18.5h13l23 -13v-79l-23 -13h-13q-70 0 -120 51q-53 -51 -128 -51h-64z" />
    <glyph glyph-name="tteh-arab.fina" unicode="&#x679;" horiz-adv-x="806" arabic-form="final" 
d="M806 105l23 -13v-79l-23 -13h-13q-70 0 -120 51q-53 -51 -128 -51h-327q-69 0 -118.5 49.5t-49.5 118.5v128l105 18v-146q0 -26 18.5 -44.5t44.5 -18.5h327q40 0 80 12v179l105 18v-146q0 -26 18.5 -44.5t44.5 -18.5h13zM352 331h83q14 0 26 3t22 8v44q0 11 -8 19.5
t-21 8.5h-34zM294 284l-8 47h16v193l47 8v-131l13 16q17 21 41 32.5t51 11.5q16 0 29.5 -5.5t24 -16t16.5 -24t6 -29.5v-7q0 -20 -7.5 -37.5t-20 -30t-30 -20t-37.5 -7.5h-141z" />
    <glyph glyph-name="tteh-arab.init" unicode="&#x679;" horiz-adv-x="287" arabic-form="initial" 
d="M0 0l-23 13v79l23 13h52q40 0 80 12v196l105 18v-144q0 -77 -53.5 -132t-131.5 -55h-52zM104 448h83q14 0 26 3t22 8v44q0 11 -8 19.5t-21 8.5h-34zM46 401l-8 47h16v193l47 8v-131l13 16q17 21 41 32.5t51 11.5q16 0 29.5 -5.5t24 -16t16.5 -24t6 -29.5v-7
q0 -20 -7.5 -37.5t-20 -30t-30 -20t-37.5 -7.5h-141z" />
    <glyph glyph-name="tteh-arab.medi" unicode="&#x679;" horiz-adv-x="325" arabic-form="medial" 
d="M0 0l-23 13v79l23 13h64q40 0 80 12v179l105 18v-146q0 -26 18.5 -44.5t44.5 -18.5h13l23 -13v-79l-23 -13h-13q-70 0 -120 51q-53 -51 -128 -51h-64zM125 448h83q14 0 26 3t22 8v44q0 11 -8 19.5t-21 8.5h-34zM67 401l-8 47h16v193l47 8v-131l13 16q17 21 41 32.5
t51 11.5q16 0 29.5 -5.5t24 -16t16.5 -24t6 -29.5v-7q0 -20 -7.5 -37.5t-20 -30t-30 -20t-37.5 -7.5h-141z" />
    <glyph glyph-name="veh-arab.fina" unicode="&#x6a4;" horiz-adv-x="870" arabic-form="final" 
d="M713 203q0 28 -20 48t-50 20q-42 0 -82 -15v-69q0 -24 15.5 -42t38.5 -21l22 -3q38 5 76 12v70zM870 105l23 -13v-79l-23 -13h-6q-114 0 -226 25q-113 -25 -227 -25h-193q-69 0 -118.5 49.5t-49.5 118.5v128l105 18v-146q0 -26 18.5 -44.5t44.5 -18.5h193q32 0 65 1
q-20 37 -20 81v19q0 41 19.5 79.5t61 64.5t106.5 26q75 0 125 -50t50 -123v-16q0 -44 -20 -81q33 -1 66 -1h6zM747 456h-213v94h213q5 0 8 -2l-3 -94zM643 689l67 -67l-67 -68l-67 68z" />
    <glyph glyph-name="veh-arab.init" unicode="&#x6a4;" horiz-adv-x="435" arabic-form="initial" 
d="M280 308q0 26 -18 44.5t-45 18.5h-17q-30 0 -61 -8v-70q0 -26 18 -44.5t45 -18.5h15q33 0 63 7v71zM280 136q-29 -11 -63 -11h-15q-70 0 -119 49.5t-49 118.5v15q0 69 49 118.5t119 49.5h15q71 0 119.5 -49.5t48.5 -118.5v-121q0 -77 -53.5 -132t-131.5 -55h-200l-23 13
v79l23 13h200q40 0 80 12v19zM313 540h-213v94h213q5 0 8 -2l-3 -94zM209 773l67 -67l-67 -68l-67 68z" />
    <glyph glyph-name="veh-arab.medi" unicode="&#x6a4;" horiz-adv-x="465" arabic-form="medial" 
d="M308 203q0 28 -20 48t-50 20q-42 0 -82 -15v-69q0 -24 15.5 -42t38.5 -21l22 -3q38 5 76 12v70zM465 105l23 -13v-79l-23 -13h-6q-114 0 -226 25q-113 -25 -227 -25h-6l-23 13v79l23 13h6q32 0 65 1q-20 37 -20 81v19q0 41 19.5 79.5t61 64.5t106.5 26q75 0 125 -50
t50 -123v-16q0 -44 -20 -81q33 -1 66 -1h6zM342 456h-213v94h213q5 0 8 -2l-3 -94zM238 689l67 -67l-67 -68l-67 68z" />
    <glyph glyph-name="tcheh-arab.fina" unicode="&#x686;" horiz-adv-x="613" arabic-form="final" 
d="M384 243l-94 30q-42 13 -85 13q-42 0 -70 -10v-103l-95 -18v68q0 66 24 102t61.5 51t79.5 15q59 0 116 -18l251 -79l-31 -100l-30 10l-46 -33v-3q0 -26 18.5 -44.5t44.5 -18.5h85l23 -13v-79l-23 -13h-85q-69 0 -118 50q-26 25 -38 56l-227 -160v-74q0 -52 37 -88.5
t88 -36.5h240l-13 -105h-227q-95 0 -162.5 67.5t-67.5 162.5q0 127 108 207zM440 -104h-213v94h213q5 0 8 -2l-3 -94zM337 -109l67 -67l-67 -67l-67 67z" />
    <glyph glyph-name="tcheh-arab.init" unicode="&#x686;" horiz-adv-x="603" arabic-form="initial" 
d="M395 243l-95 30q-42 13 -85 13q-42 0 -70 -10v-103l-94 -18v68q0 66 24 102t61 51t79 15q59 0 117 -18l251 -79l-32 -100l-43 13l-125 -124q-88 -83 -200 -83h-183l-23 13v79l23 13h183q51 0 87 14zM382 -194h-213v94h213q5 0 8 -2l-3 -94zM279 -199l67 -67l-67 -67
l-67 67z" />
    <glyph glyph-name="tcheh-arab.medi" unicode="&#x686;" horiz-adv-x="624" arabic-form="medial" 
d="M624 105l23 -13v-79l-23 -13h-85q-70 0 -120 50q-18 18 -29 40l-7 -7q-88 -83 -200 -83h-183l-23 13v79l23 13h183q51 0 87 14l125 124l-95 30q-42 13 -85 13q-42 0 -70 -10v-103l-94 -18v68q0 66 24 102t61 51t79 15q59 0 117 -18l251 -79l-32 -100l-43 13l-32 -32v-7
q0 -26 18.5 -44.5t44.5 -18.5h85zM382 -194h-213v94h213q5 0 8 -2l-3 -94zM279 -199l67 -67l-67 -67l-67 67z" />
    <glyph glyph-name="ddal-arab.fina" unicode="&#x688;" horiz-adv-x="496" arabic-form="final" 
d="M341 81q-21 -22 -49 -41q-62 -40 -167 -40h-77l-18 105h95q94 0 173 48l-117 198l90 53l159 -267q19 -32 54 -32h12l23 -13v-79l-23 -13h-12q-90 0 -135 69zM163 495h83q14 0 26 3t22 8v44q0 11 -8 19.5t-21 8.5h-34zM105 448l-8 47h16v193l47 8v-131l13 16
q17 21 41 32.5t51 11.5q16 0 29.5 -5.5t24 -16t16.5 -24t6 -29.5v-7q0 -20 -7.5 -37.5t-20 -30t-30 -20t-37.5 -7.5h-141z" />
    <glyph glyph-name="jeh-arab.fina" unicode="&#x698;" horiz-adv-x="355" arabic-form="final" 
d="M355 105l23 -13v-79l-23 -13h-13q-37 0 -68 14q-6 -33 -21 -66q-27 -58 -88.5 -98t-166.5 -40l-18 105h18q95 0 176 51v330l105 18v-146q0 -26 18.5 -44.5t44.5 -18.5h13zM326 396h-213v94h213q5 0 8 -2l-3 -94zM222 629l67 -67l-67 -68l-67 68z" />
    <glyph glyph-name="rreh-arab.fina" unicode="&#x691;" horiz-adv-x="355" arabic-form="final" 
d="M355 105l23 -13v-79l-23 -13h-13q-37 0 -68 14q-6 -33 -21 -66q-27 -58 -88.5 -98t-166.5 -40l-18 105h18q95 0 176 51v330l105 18v-146q0 -26 18.5 -44.5t44.5 -18.5h13zM149 409h83q14 0 26 3t22 8v44q0 11 -8 19.5t-21 8.5h-34zM91 362l-8 47h16v193l47 8v-131l13 16
q17 21 41 32.5t51 11.5q16 0 29.5 -5.5t24 -16t16.5 -24t6 -29.5v-7q0 -20 -7.5 -37.5t-20 -30t-30 -20t-37.5 -7.5h-141z" />
    <glyph glyph-name="keheh-arab.fina" unicode="&#x6a9;" horiz-adv-x="813" arabic-form="final" 
d="M813 105l23 -13v-79l-23 -13h-12q-68 0 -114 48q-14 -13 -32 -24q-40 -24 -92 -24h-345q-69 0 -118.5 49.5t-49.5 118.5v128l105 18v-146q0 -26 18.5 -44.5t44.5 -18.5h345q40 0 80 12q0 42 -27 75l-153 178l7 119l195 91q41 19 85 28l21 -103q-34 -7 -59 -19l-151 -70
l134 -155q34 -42 42 -92q4 -27 21 -45.5t43 -18.5h12z" />
    <glyph glyph-name="keheh-arab.init" unicode="&#x6a9;" horiz-adv-x="355" arabic-form="initial" 
d="M0 0l-23 13v79l23 13h130q40 0 80 12q0 42 -27 75l-153 178l7 119l182 84q41 20 86 29l20 -103q-32 -7 -62 -21l-135 -62l134 -155q43 -52 43 -115q0 -32 -22 -65.5t-61.5 -57t-91.5 -23.5h-130z" />
    <glyph glyph-name="keheh-arab.medi" unicode="&#x6a9;" horiz-adv-x="380" arabic-form="medial" 
d="M380 105l23 -13v-79l-23 -13h-12q-68 0 -114 48q-14 -13 -32 -24q-40 -24 -92 -24h-130l-23 13v79l23 13h130q40 0 80 12q0 42 -27 75l-153 178l7 119l195 91q41 19 85 28l21 -103q-34 -7 -59 -19l-151 -70l134 -155q34 -42 42 -92q4 -27 21 -45.5t43 -18.5h12z" />
    <glyph glyph-name="gaf-arab.fina" unicode="&#x6af;" horiz-adv-x="813" arabic-form="final" 
d="M813 105l23 -13v-79l-23 -13h-12q-68 0 -114 48q-14 -13 -32 -24q-40 -24 -92 -24h-345q-69 0 -118.5 49.5t-49.5 118.5v128l105 18v-146q0 -26 18.5 -44.5t44.5 -18.5h345q40 0 80 12q0 42 -27 75l-153 178l7 119l195 91q41 19 85 28l21 -103q-34 -7 -59 -19l-151 -70
l134 -155q34 -42 42 -92q4 -27 21 -45.5t43 -18.5h12zM596 666q28 13 58 19l13 -69q-24 -5 -41 -13l-156 -73l5 80z" />
    <glyph glyph-name="gaf-arab.init" unicode="&#x6af;" horiz-adv-x="355" arabic-form="initial" 
d="M0 0l-23 13v79l23 13h130q40 0 80 12q0 42 -27 75l-153 178l7 119l182 84q41 20 86 29l20 -103q-32 -7 -62 -21l-135 -62l134 -155q43 -52 43 -115q0 -32 -22 -65.5t-61.5 -57t-91.5 -23.5h-130zM163 666q28 13 58 19l13 -69q-24 -5 -41 -13l-156 -73l5 80z" />
    <glyph glyph-name="gaf-arab.medi" unicode="&#x6af;" horiz-adv-x="380" arabic-form="medial" 
d="M380 105l23 -13v-79l-23 -13h-12q-68 0 -114 48q-14 -13 -32 -24q-40 -24 -92 -24h-130l-23 13v79l23 13h130q40 0 80 12q0 42 -27 75l-153 178l7 119l195 91q41 19 85 28l21 -103q-34 -7 -59 -19l-151 -70l134 -155q34 -42 42 -92q4 -27 21 -45.5t43 -18.5h12zM163 666
q28 13 58 19l13 -69q-24 -5 -41 -13l-156 -73l5 80z" />
    <glyph glyph-name="noonghunna-arab.fina" unicode="&#x6ba;" horiz-adv-x="661" arabic-form="final" 
d="M661 105l23 -13v-79l-23 -13h-12q-37 0 -67 14q-14 -74 -70 -129q-75 -74 -178 -74h-32q-105 0 -178.5 73.5t-73.5 178.5v154l105 18v-172q0 -61 43 -104t104 -43h32q86 0 147 38v342l105 18v-146q0 -26 18 -44.5t45 -18.5h12z" />
    <glyph glyph-name="hehgoal-arab.fina" unicode="&#x6c1;" horiz-adv-x="488" arabic-form="final" 
d="M488 105l23 -13v-79l-23 -13h-13q-69 0 -118.5 49.5t-49.5 118.5v87h-102q-50 -81 -50 -177v-22l-105 16v6q0 105 40 167t98 88.5t113 26.5h111v-192q0 -26 18.5 -44.5t44.5 -18.5h13z" />
    <glyph glyph-name="hehgoal-arab.init" unicode="&#x6c1;" horiz-adv-x="287" arabic-form="initial" 
d="M0 0l-23 13v79l23 13h52q40 0 80 12v196l105 18v-144q0 -77 -53.5 -132t-131.5 -55h-52zM112 -80q-31 -54 -32 -102h53v-73q-28 -11 -63 -11q-77 0 -77 77q0 32 14 65t38 59z" />
    <glyph glyph-name="hehgoal-arab.medi" unicode="&#x6c1;" horiz-adv-x="501" arabic-form="medial" 
d="M501 105l23 -13v-79l-23 -13h-81q-33 0 -75 -12v-24q0 -20 16.5 -34t36.5 -14h18l-18 -105h-50q-104 0 -177 74q-58 57 -71 134q-37 -19 -83 -19h-17l-23 13v79l23 13h17q40 0 80 12v94l105 18v-167q0 -61 43 -104l5 -5v11q0 58 53.5 99.5t116.5 41.5h81z" />
    <glyph glyph-name="hehdoachashmee-arab.fina" unicode="&#x6be;" horiz-adv-x="537" arabic-form="final" 
d="M383 19q-36 -19 -79 -19h-88v-47q0 -26 19 -45t45 -19h24q32 0 64 7v57q0 36 15 66zM304 105q33 0 63 7v92q0 26 -18.5 44.5t-44.5 18.5h-90q2 -11 2 -22v-140h88zM111 105v140q0 32 -22 58l80 69h135q69 0 118.5 -49.5t49.5 -118.5v-36q0 -43 -19 -78q30 15 67 15h17
l23 -13v-79l-23 -13h-17q-19 0 -33 -14t-14 -33q0 -71 -49 -120t-120 -49h-24q-70 0 -119.5 49t-49.5 120v47h-61l-20 105h81z" />
    <glyph glyph-name="hehdoachashmee-arab.init" unicode="&#x6be;" horiz-adv-x="737" arabic-form="initial" 
d="M427 105h92q31 0 63 7v82q0 51 -50 62l-111 25q18 -35 18 -77v-36q0 -34 -12 -63zM246 105h25q33 0 63 7v92q0 26 -18.5 44.5t-44.5 18.5h-26q-31 0 -62 -8v-91q0 -26 18.5 -44.5t44.5 -18.5zM0 0l-23 13v79l23 13h90q-12 29 -12 63v36q0 69 50 119q18 18 40 30
q-20 10 -40 21l54 90q59 -35 126 -49l248 -57q58 -14 94.5 -59t36.5 -105v-26q0 -69 -49.5 -118.5t-118.5 -49.5h-519z" />
    <glyph glyph-name="yehbarree-arab.fina" unicode="&#x6d2;" horiz-adv-x="435" arabic-form="final" 
d="M435 105l23 -13v-79l-23 -13h-225q-33 0 -75 -12v-24q0 -20 16.5 -34t36.5 -14h178l-18 -105h-160q-64 0 -106 44.5t-42 108.5q0 58 53.5 99.5t116.5 41.5h225z" />
    <glyph glyph-name="yehbarreehamzaabove-arab.fina" unicode="&#x6d3;" horiz-adv-x="435" arabic-form="final" 
d="M66 108l-12 46l59 28q-16 14 -25 33t-10 37t4 32.5t16.5 26.5t27.5 19l32 15l27 -39l-65 -30q0 -9 2 -19t8 -22q9 -19 23.5 -23t26.5 1l49 23l13 -46zM435 105l23 -13v-79l-23 -13h-225q-33 0 -75 -12v-24q0 -20 16.5 -34t36.5 -14h178l-18 -105h-160q-64 0 -106 44.5
t-42 108.5q0 58 53.5 99.5t116.5 41.5h225z" />
    <glyph glyph-name="u-arab.fina" unicode="&#x6c7;" horiz-adv-x="487" arabic-form="final" 
d="M307 105v99q0 26 -18 44.5t-45 18.5h-26q-30 0 -62 -8v-91q0 -26 18.5 -44.5t44.5 -18.5h88zM487 105l23 -13v-79l-23 -13h-83q-6 -26 -18 -52q-27 -58 -88.5 -98t-166.5 -40h-65l-18 105h83q96 0 176 51v34h-88q-69 0 -118.5 49.5t-49.5 118.5v36q0 69 49.5 118.5
t118.5 49.5h25q71 0 119.5 -49.5t48.5 -118.5v-99h75zM270 500q11 5 14.5 16t-1.5 22l-5 11q-6 13 -15 24l-33 -15q-11 -5 -14.5 -17t0.5 -21l5 -11q6 -13 15 -25zM195 465q-11 10 -17 24l-5 11q-7 15 -7.5 29.5t5 28t15 24.5t24.5 18l11 5q15 7 29.5 7.5t28 -4.5t25 -15
t17.5 -24l5 -11q7 -15 7.5 -29.5t-4.5 -28t-15.5 -25.5t-23.5 -18l-164 -76l-27 39z" />
    <glyph glyph-name="oe-arab.fina" unicode="&#x6c6;" horiz-adv-x="487" arabic-form="final" 
d="M307 105v99q0 26 -18 44.5t-45 18.5h-26q-30 0 -62 -8v-91q0 -26 18.5 -44.5t44.5 -18.5h88zM487 105l23 -13v-79l-23 -13h-83q-6 -26 -18 -52q-27 -58 -88.5 -98t-166.5 -40h-65l-18 105h83q96 0 176 51v34h-88q-69 0 -118.5 49.5t-49.5 118.5v36q0 69 49.5 118.5
t118.5 49.5h25q71 0 119.5 -49.5t48.5 -118.5v-99h75zM263 424h-62q-5 19 -10 36q-18 56 -50 106l39 26q16 -24 29 -50t22 -53q19 56 51 104l39 -26q-32 -50 -49 -106q-5 -18 -9 -37z" />
    <glyph glyph-name="farsiyeh-arab.fina" unicode="&#x6cc;" horiz-adv-x="602" arabic-form="final" 
d="M602 105l23 -13v-79l-23 -13h-16q-1 -102 -74 -174q-75 -74 -178 -74h-32q-105 0 -178.5 73.5t-73.5 178.5v165l105 18v-183q0 -61 43 -104t104 -43h32q86 0 147 38v105h-174l-10 105h305z" />
    <glyph glyph-name="farsiyeh-arab.init" unicode="&#x6cc;" horiz-adv-x="287" arabic-form="initial" 
d="M181 -194h-213v94h213q5 0 8 -2l-3 -94zM0 0l-23 13v79l23 13h52q40 0 80 12v196l105 18v-144q0 -77 -53.5 -132t-131.5 -55h-52z" />
    <glyph glyph-name="farsiyeh-arab.medi" unicode="&#x6cc;" horiz-adv-x="325" arabic-form="medial" 
d="M0 0l-23 13v79l23 13h64q40 0 80 12v179l105 18v-146q0 -26 18.5 -44.5t44.5 -18.5h13l23 -13v-79l-23 -13h-13q-70 0 -120 51q-53 -51 -128 -51h-64zM190 -194h-213v94h213q5 0 8 -2l-3 -94z" />
    <glyph glyph-name="shaddaalef-arab.isol" unicode="&#xfc63;" arabic-form="isolated" 
d="M-24 859v141l48 8v-141zM62 747q15 0 28 4v90l48 8v-73q0 -16 -6 -29.5t-16.5 -24t-24.5 -16.5t-29 -6h-10q-16 0 -29 6t-23 15q-10 -9 -23 -15q-14 -6 -29 -6h-14q-15 0 -29 6t-24.5 16.5t-16.5 24t-6 29.5v52l48 8v-60q0 -12 8 -20.5t20 -8.5h14q15 0 28 4v68l48 5v-48
q0 -12 8 -20.5t20 -8.5h10z" />
    <glyph glyph-name="fathatan-arab.isol" unicode="&#xfe70;" arabic-form="isolated" 
d="M-81 700l-13 46l175 82l13 -46zM-81 795l-13 46l175 82l13 -46z" />
    <glyph glyph-name="dammatan-arab.isol" unicode="&#xfe72;" arabic-form="isolated" 
d="M78 819q11 5 15 16.5t-1 22.5l-5 11q-5 11 -14 24l-34 -16q-11 -5 -15 -16.5t1 -22.5l5 -10q7 -14 16 -24zM4 785q-11 10 -17 24l-4 10q-6 14 -7 29t4 29t15 24.5t24 17.5l10 5q15 7 30 7.5t28.5 -5t24.5 -15t18 -24.5l5 -10q7 -14 7.5 -29t-4.5 -28.5t-15 -25t-25 -18.5
l-164 -76l-42 20l12 26q7 16 10 35l-56 26l12 46l36 -16q15 -7 26 -19t17 -28q5 -14 5 -29z" />
    <glyph glyph-name="kasratan-arab.isol" unicode="&#xfe74;" arabic-form="isolated" 
d="M-82 -128l-12 46l175 82l13 -46zM-82 -223l-12 46l175 82l13 -46z" />
    <glyph glyph-name="fatha-arab.isol" unicode="&#xfe76;" arabic-form="isolated" 
d="M-81 700l-13 46l175 82l13 -46z" />
    <glyph glyph-name="damma-arab.isol" unicode="&#xfe78;" arabic-form="isolated" 
d="M54 819q11 5 14.5 16t-1.5 22l-5 11q-6 13 -15 24l-33 -15q-11 -5 -14.5 -17t0.5 -21l5 -11q6 -13 15 -25zM-21 784q-11 10 -17 24l-5 11q-7 15 -7.5 29.5t5 28t15 24.5t24.5 18l11 5q15 7 29.5 7.5t28 -4.5t25 -15t17.5 -24l5 -11q7 -15 7.5 -29.5t-4.5 -28t-15.5 -25.5
t-23.5 -18l-164 -76l-27 39z" />
    <glyph glyph-name="kasra-arab.isol" unicode="&#xfe7a;" arabic-form="isolated" 
d="M-82 -128l-12 46l175 82l13 -46z" />
    <glyph glyph-name="shadda-arab.isol" unicode="&#xfe7c;" arabic-form="isolated" 
d="M64 747q15 0 28 4v90l48 8v-73q0 -16 -6 -29.5t-16.5 -24t-24.5 -16.5t-29 -6h-10q-16 0 -29 6t-23 15q-10 -9 -23 -15q-14 -6 -29 -6h-14q-15 0 -29 6t-24.5 16.5t-16.5 24t-6 29.5v52l48 8v-60q0 -12 8 -20.5t20 -8.5h14q15 0 28 4v68l48 5v-48q0 -12 8 -20.5t20 -8.5
h10z" />
    <glyph glyph-name="sukun-arab.isol" unicode="&#xfe7e;" arabic-form="isolated" 
d="M34 788q0 11 -8 19.5t-20 8.5h-12q-14 0 -28 -3v-37q0 -12 8 -20.5t20 -8.5h12q15 0 28 4v37zM6 863q16 0 29.5 -6t24 -16t16.5 -24t6 -29v-12q0 -16 -6 -29.5t-16.5 -24t-24 -16.5t-29.5 -6h-12q-16 0 -29.5 6t-24 16.5t-16.5 24t-6 29.5v12q0 15 6 29t16.5 24t24 16
t29.5 6h12z" />
    <glyph glyph-name="alefmaddaabove-arab.fina" unicode="&#x622;" horiz-adv-x="231" arabic-form="final" 
d="M231 105l23 -13v-79l-23 -13h-13q-69 0 -118.5 49.5t-49.5 118.5v389l105 17v-406q0 -26 18.5 -44.5t44.5 -18.5h13zM96 621q-34 0 -52 -7v-17l-74 -12v9q0 126 126 126h65q13 0 25.5 2t25.5 5l8 -95q-34 -11 -69 -11h-55z" />
    <glyph glyph-name="alefhamzaabove-arab.fina" unicode="&#x623;" horiz-adv-x="231" arabic-form="final" 
d="M20 561l-12 46l59 28q-16 14 -25 33t-10 37t4 32.5t16.5 26.5t27.5 19l32 15l27 -39l-65 -30q0 -9 2 -19t8 -22q9 -19 23.5 -23t26.5 1l49 23l13 -46zM231 105l23 -13v-79l-23 -13h-13q-69 0 -118.5 49.5t-49.5 118.5v389l105 17v-406q0 -26 18.5 -44.5t44.5 -18.5h13z
" />
    <glyph glyph-name="wawhamzaabove-arab.fina" unicode="&#x624;" horiz-adv-x="487" arabic-form="final" 
d="M307 105v99q0 26 -18 44.5t-45 18.5h-26q-30 0 -62 -8v-91q0 -26 18.5 -44.5t44.5 -18.5h88zM487 105l23 -13v-79l-23 -13h-83q-6 -26 -18 -52q-27 -58 -88.5 -98t-166.5 -40h-65l-18 105h83q96 0 176 51v34h-88q-69 0 -118.5 49.5t-49.5 118.5v36q0 69 49.5 118.5
t118.5 49.5h25q71 0 119.5 -49.5t48.5 -118.5v-99h75zM144 410l-12 46l59 28q-16 14 -25 33t-10 37t4 32.5t16.5 26.5t27.5 19l32 15l27 -39l-65 -30q0 -9 2 -19t8 -22q9 -19 23.5 -23t26.5 1l49 23l13 -46z" />
    <glyph glyph-name="alefhamzabelow-arab.fina" unicode="&#x625;" horiz-adv-x="231" arabic-form="final" 
d="M231 105l23 -13v-79l-23 -13h-13q-69 0 -118.5 49.5t-49.5 118.5v435l105 18v-453q0 -26 18.5 -44.5t44.5 -18.5h13zM37 -261l-12 46l59 28q-16 14 -25 33t-10 37t4 32.5t16.5 26.5t27.5 19l32 15l27 -39l-65 -30q0 -9 2 -19t8 -22q9 -19 23.5 -23t26.5 1l49 23l13 -46z
" />
    <glyph glyph-name="yehhamzaabove-arab.fina" unicode="&#x626;" horiz-adv-x="602" arabic-form="final" 
d="M68 206l-12 46l59 28q-16 14 -25 33t-10 37t4 32.5t16.5 26.5t27.5 19l32 15l27 -39l-65 -30q0 -9 2 -19t8 -22q9 -19 23.5 -23t26.5 1l49 23l13 -46zM602 105l23 -13v-79l-23 -13h-16q-1 -102 -74 -174q-75 -74 -178 -74h-32q-105 0 -178.5 73.5t-73.5 178.5v165l105 18
v-183q0 -61 43 -104t104 -43h32q86 0 147 38v105h-174l-10 105h305z" />
    <glyph glyph-name="yehhamzaabove-arab.init" unicode="&#x626;" horiz-adv-x="269" arabic-form="initial" 
d="M0 0l-23 13v79l23 13h34q40 0 80 12v196l105 18v-144q0 -77 -53.5 -132t-131.5 -55h-34zM43 329l-12 46l59 28q-16 14 -25 33t-10 37t4 32.5t16.5 26.5t27.5 19l32 15l27 -39l-65 -30q0 -9 2 -19t8 -22q9 -19 23.5 -23t26.5 1l49 23l13 -46z" />
    <glyph glyph-name="yehhamzaabove-arab.medi" unicode="&#x626;" horiz-adv-x="306" arabic-form="medial" 
d="M306 105l23 -13v-79l-23 -13h-13q-70 0 -120 51q-53 -51 -128 -51h-45l-23 13v79l23 13h45q40 0 80 12v179l105 18v-146q0 -26 18.5 -44.5t44.5 -18.5h13zM84 329l-12 46l59 28q-16 14 -25 33t-10 37t4 32.5t16.5 26.5t27.5 19l32 15l27 -39l-65 -30q0 -9 2 -19t8 -22
q9 -19 23.5 -23t26.5 1l49 23l13 -46z" />
    <glyph glyph-name="alef-arab.fina" unicode="&#x627;" horiz-adv-x="231" arabic-form="final" 
d="M231 105l23 -13v-79l-23 -13h-13q-69 0 -118.5 49.5t-49.5 118.5v435l105 18v-453q0 -26 18.5 -44.5t44.5 -18.5h13z" />
    <glyph glyph-name="beh-arab.fina" unicode="&#x628;" horiz-adv-x="806" arabic-form="final" 
d="M806 105l23 -13v-79l-23 -13h-13q-70 0 -120 51q-53 -51 -128 -51h-327q-69 0 -118.5 49.5t-49.5 118.5v128l105 18v-146q0 -26 18.5 -44.5t44.5 -18.5h327q40 0 80 12v179l105 18v-146q0 -26 18.5 -44.5t44.5 -18.5h13zM391 -80l67 -67l-67 -67l-67 67z" />
    <glyph glyph-name="beh-arab.init" unicode="&#x628;" horiz-adv-x="269" arabic-form="initial" 
d="M0 0l-23 13v79l23 13h34q40 0 80 12v196l105 18v-144q0 -77 -53.5 -132t-131.5 -55h-34zM41 -80l67 -67l-67 -67l-67 67z" />
    <glyph glyph-name="beh-arab.medi" unicode="&#x628;" horiz-adv-x="306" arabic-form="medial" 
d="M306 105l23 -13v-79l-23 -13h-13q-70 0 -120 51q-53 -51 -128 -51h-45l-23 13v79l23 13h45q40 0 80 12v179l105 18v-146q0 -26 18.5 -44.5t44.5 -18.5h13zM52 -80l67 -67l-67 -67l-67 67z" />
    <glyph glyph-name="tehmarbuta-arab.fina" unicode="&#x629;" horiz-adv-x="487" arabic-form="final" 
d="M306 297h-89q-30 0 -62 -7v-80q0 -26 18.5 -44.5t44.5 -18.5h25q33 0 63 7v143zM487 105l23 -13v-79l-23 -13h-13q-69 0 -119 50q-10 10 -17 20q-41 -28 -95 -28h-25q-69 0 -118.5 49.5t-49.5 118.5v24q0 69 49.5 118.5t118.5 49.5h88v36l105 17v-287q0 -26 18.5 -44.5
t44.5 -18.5h13zM366 487h-213v94h213q5 0 8 -2l-3 -94z" />
    <glyph glyph-name="teh-arab.fina" unicode="&#x62a;" horiz-adv-x="806" arabic-form="final" 
d="M806 105l23 -13v-79l-23 -13h-13q-70 0 -120 51q-53 -51 -128 -51h-327q-69 0 -118.5 49.5t-49.5 118.5v128l105 18v-146q0 -26 18.5 -44.5t44.5 -18.5h327q40 0 80 12v179l105 18v-146q0 -26 18.5 -44.5t44.5 -18.5h13zM495 289h-213v94h213q5 0 8 -2l-3 -94z" />
    <glyph glyph-name="teh-arab.init" unicode="&#x62a;" horiz-adv-x="287" arabic-form="initial" 
d="M251 396h-213v94h213q5 0 8 -2l-3 -94zM0 0l-23 13v79l23 13h52q40 0 80 12v196l105 18v-144q0 -77 -53.5 -132t-131.5 -55h-52z" />
    <glyph glyph-name="teh-arab.medi" unicode="&#x62a;" horiz-adv-x="306" arabic-form="medial" 
d="M306 105l23 -13v-79l-23 -13h-13q-70 0 -120 51q-53 -51 -128 -51h-45l-23 13v79l23 13h45q40 0 80 12v179l105 18v-146q0 -26 18.5 -44.5t44.5 -18.5h13zM259 396h-213v94h213q5 0 8 -2l-3 -94z" />
    <glyph glyph-name="theh-arab.fina" unicode="&#x62b;" horiz-adv-x="806" arabic-form="final" 
d="M806 105l23 -13v-79l-23 -13h-13q-70 0 -120 51q-53 -51 -128 -51h-327q-69 0 -118.5 49.5t-49.5 118.5v128l105 18v-146q0 -26 18.5 -44.5t44.5 -18.5h327q40 0 80 12v179l105 18v-146q0 -26 18.5 -44.5t44.5 -18.5h13zM495 289h-213v94h213q5 0 8 -2l-3 -94zM391 522
l67 -67l-67 -68l-67 68z" />
    <glyph glyph-name="theh-arab.init" unicode="&#x62b;" horiz-adv-x="287" arabic-form="initial" 
d="M0 0l-23 13v79l23 13h52q40 0 80 12v196l105 18v-144q0 -77 -53.5 -132t-131.5 -55h-52zM251 396h-213v94h213q5 0 8 -2l-3 -94zM147 629l67 -67l-67 -68l-67 68z" />
    <glyph glyph-name="theh-arab.medi" unicode="&#x62b;" horiz-adv-x="306" arabic-form="medial" 
d="M306 105l23 -13v-79l-23 -13h-13q-70 0 -120 51q-53 -51 -128 -51h-45l-23 13v79l23 13h45q40 0 80 12v179l105 18v-146q0 -26 18.5 -44.5t44.5 -18.5h13zM259 396h-213v94h213q5 0 8 -2l-3 -94zM155 629l67 -67l-67 -68l-67 68z" />
    <glyph glyph-name="jeem-arab.fina" unicode="&#x62c;" horiz-adv-x="613" arabic-form="final" 
d="M384 243l-94 30q-42 13 -85 13q-42 0 -70 -10v-103l-95 -18v68q0 66 24 102t61.5 51t79.5 15q59 0 116 -18l251 -79l-31 -100l-30 10l-46 -33v-3q0 -26 18.5 -44.5t44.5 -18.5h85l23 -13v-79l-23 -13h-85q-69 0 -118 50q-26 25 -38 56l-227 -160v-74q0 -52 37 -88.5
t88 -36.5h240l-13 -105h-227q-95 0 -162.5 67.5t-67.5 162.5q0 127 108 207zM311 -38l67 -67l-67 -67l-67 67z" />
    <glyph glyph-name="jeem-arab.init" unicode="&#x62c;" horiz-adv-x="603" arabic-form="initial" 
d="M395 243l-95 30q-42 13 -85 13q-42 0 -70 -10v-103l-94 -18v68q0 66 24 102t61 51t79 15q59 0 117 -18l251 -79l-32 -100l-43 13l-125 -124q-88 -83 -200 -83h-183l-23 13v79l23 13h183q51 0 87 14zM263 -80l67 -67l-67 -67l-67 67z" />
    <glyph glyph-name="jeem-arab.medi" unicode="&#x62c;" horiz-adv-x="624" arabic-form="medial" 
d="M624 105l23 -13v-79l-23 -13h-85q-70 0 -120 50q-18 18 -29 40l-7 -7q-88 -83 -200 -83h-183l-23 13v79l23 13h183q51 0 87 14l125 124l-95 30q-42 13 -85 13q-42 0 -70 -10v-103l-94 -18v68q0 66 24 102t61 51t79 15q59 0 117 -18l251 -79l-32 -100l-43 13l-32 -32v-7
q0 -26 18.5 -44.5t44.5 -18.5h85zM263 -80l67 -67l-67 -67l-67 67z" />
    <glyph glyph-name="hah-arab.fina" unicode="&#x62d;" horiz-adv-x="613" arabic-form="final" 
d="M384 243l-94 30q-42 13 -85 13q-42 0 -70 -10v-103l-95 -18v68q0 66 24 102t61.5 51t79.5 15q59 0 116 -18l251 -79l-31 -100l-30 10l-46 -33v-3q0 -26 18.5 -44.5t44.5 -18.5h85l23 -13v-79l-23 -13h-85q-69 0 -118 50q-26 25 -38 56l-227 -160v-74q0 -52 37 -88.5
t88 -36.5h240l-13 -105h-227q-95 0 -162.5 67.5t-67.5 162.5q0 127 108 207z" />
    <glyph glyph-name="hah-arab.init" unicode="&#x62d;" horiz-adv-x="603" arabic-form="initial" 
d="M395 243l-95 30q-42 13 -85 13q-42 0 -70 -10v-103l-94 -18v68q0 66 24 102t61 51t79 15q59 0 117 -18l251 -79l-32 -100l-43 13l-125 -124q-88 -83 -200 -83h-183l-23 13v79l23 13h183q51 0 87 14z" />
    <glyph glyph-name="hah-arab.medi" unicode="&#x62d;" horiz-adv-x="624" arabic-form="medial" 
d="M624 105l23 -13v-79l-23 -13h-85q-70 0 -120 50q-18 18 -29 40l-7 -7q-88 -83 -200 -83h-183l-23 13v79l23 13h183q51 0 87 14l125 124l-95 30q-42 13 -85 13q-42 0 -70 -10v-103l-94 -18v68q0 66 24 102t61 51t79 15q59 0 117 -18l251 -79l-32 -100l-43 13l-32 -32v-7
q0 -26 18.5 -44.5t44.5 -18.5h85z" />
    <glyph glyph-name="khah-arab.fina" unicode="&#x62e;" horiz-adv-x="613" arabic-form="final" 
d="M384 243l-94 30q-42 13 -85 13q-42 0 -70 -10v-103l-95 -18v68q0 66 24 102t61.5 51t79.5 15q59 0 116 -18l251 -79l-31 -100l-30 10l-46 -33v-3q0 -26 18.5 -44.5t44.5 -18.5h85l23 -13v-79l-23 -13h-85q-69 0 -118 50q-26 25 -38 56l-227 -160v-74q0 -52 37 -88.5
t88 -36.5h240l-13 -105h-227q-95 0 -162.5 67.5t-67.5 162.5q0 127 108 207zM208 591l67 -67l-67 -68l-67 68z" />
    <glyph glyph-name="khah-arab.init" unicode="&#x62e;" horiz-adv-x="603" arabic-form="initial" 
d="M395 243l-95 30q-42 13 -85 13q-42 0 -70 -10v-103l-94 -18v68q0 66 24 102t61 51t79 15q59 0 117 -18l251 -79l-32 -100l-43 13l-125 -124q-88 -83 -200 -83h-183l-23 13v79l23 13h183q51 0 87 14zM210 591l67 -67l-67 -68l-67 68z" />
    <glyph glyph-name="khah-arab.medi" unicode="&#x62e;" horiz-adv-x="624" arabic-form="medial" 
d="M624 105l23 -13v-79l-23 -13h-85q-70 0 -120 50q-18 18 -29 40l-7 -7q-88 -83 -200 -83h-183l-23 13v79l23 13h183q51 0 87 14l125 124l-95 30q-42 13 -85 13q-42 0 -70 -10v-103l-94 -18v68q0 66 24 102t61 51t79 15q59 0 117 -18l251 -79l-32 -100l-43 13l-32 -32v-7
q0 -26 18.5 -44.5t44.5 -18.5h85zM210 591l67 -67l-67 -68l-67 68z" />
    <glyph glyph-name="dal-arab.fina" unicode="&#x62f;" horiz-adv-x="496" arabic-form="final" 
d="M341 81q-21 -22 -49 -41q-62 -40 -167 -40h-77l-18 105h95q94 0 173 48l-117 198l90 53l159 -267q19 -32 54 -32h12l23 -13v-79l-23 -13h-12q-90 0 -135 69z" />
    <glyph glyph-name="thal-arab.fina" unicode="&#x630;" horiz-adv-x="496" arabic-form="final" 
d="M341 81q-21 -22 -49 -41q-62 -40 -167 -40h-77l-18 105h95q94 0 173 48l-117 198l90 53l159 -267q19 -32 54 -32h12l23 -13v-79l-23 -13h-12q-90 0 -135 69zM236 591l67 -67l-67 -68l-67 68z" />
    <glyph glyph-name="reh-arab.fina" unicode="&#x631;" horiz-adv-x="355" arabic-form="final" 
d="M355 105l23 -13v-79l-23 -13h-13q-37 0 -68 14q-6 -33 -21 -66q-27 -58 -88.5 -98t-166.5 -40l-18 105h18q95 0 176 51v330l105 18v-146q0 -26 18.5 -44.5t44.5 -18.5h13z" />
    <glyph glyph-name="zain-arab.fina" unicode="&#x632;" horiz-adv-x="355" arabic-form="final" 
d="M355 105l23 -13v-79l-23 -13h-13q-37 0 -68 14q-6 -33 -21 -66q-27 -58 -88.5 -98t-166.5 -40l-18 105h18q95 0 176 51v330l105 18v-146q0 -26 18.5 -44.5t44.5 -18.5h13zM227 510l67 -67l-67 -68l-67 68z" />
    <glyph glyph-name="seen-arab.fina" unicode="&#x633;" horiz-adv-x="1176" arabic-form="final" 
d="M582 14q-14 -74 -70 -129q-75 -74 -178 -74h-32q-105 0 -178.5 73.5t-73.5 178.5v154l105 18v-172q0 -61 43 -104t104 -43h32q86 0 147 38v330l105 17v-133q0 -26 18 -44.5t45 -18.5h30q33 0 63 7v153l105 11v-108q0 -26 18.5 -44.5t44.5 -18.5h22q33 0 63 7v201l105 18
v-163q0 -26 18.5 -44.5t44.5 -18.5h13l23 -13v-79l-23 -13h-13q-67 0 -115 46q-48 -46 -116 -46h-22q-67 0 -115 46q-48 -46 -116 -46h-30q-37 0 -67 14z" />
    <glyph glyph-name="seen-arab.init" unicode="&#x633;" horiz-adv-x="766" arabic-form="initial" 
d="M0 0l-23 13v79l23 13h17q40 0 80 12v179l105 18v-146q0 -26 18 -44.5t45 -18.5h30q33 0 63 7v153l105 11v-108q0 -26 18.5 -44.5t44.5 -18.5h22q33 0 63 7v201l105 18v-163q0 -69 -48.5 -118.5t-119.5 -49.5h-22q-67 0 -115 46q-48 -46 -116 -46h-30q-71 0 -120 51
q-53 -51 -128 -51h-17z" />
    <glyph glyph-name="seen-arab.medi" unicode="&#x633;" horiz-adv-x="792" arabic-form="medial" 
d="M0 0l-23 13v79l23 13h17q40 0 80 12v179l105 18v-146q0 -26 18 -44.5t45 -18.5h30q33 0 63 7v153l105 11v-108q0 -26 18.5 -44.5t44.5 -18.5h22q33 0 63 7v201l105 18v-163q0 -26 18.5 -44.5t44.5 -18.5h13l23 -13v-79l-23 -13h-13q-67 0 -115 46q-48 -46 -116 -46h-22
q-67 0 -115 46q-48 -46 -116 -46h-30q-71 0 -120 51q-53 -51 -128 -51h-17z" />
    <glyph glyph-name="sheen-arab.fina" unicode="&#x634;" horiz-adv-x="1176" arabic-form="final" 
d="M913 401h-249v95h249q3 0 7 -2l-2 -95zM792 635l68 -67l-68 -67l-67 67zM582 14q-14 -74 -70 -129q-75 -74 -178 -74h-32q-105 0 -178.5 73.5t-73.5 178.5v154l105 18v-172q0 -61 43 -104t104 -43h32q86 0 147 38v330l105 17v-133q0 -26 18 -44.5t45 -18.5h30q33 0 63 7
v153l105 11v-108q0 -26 18.5 -44.5t44.5 -18.5h22q33 0 63 7v201l105 18v-163q0 -26 18.5 -44.5t44.5 -18.5h13l23 -13v-79l-23 -13h-13q-67 0 -115 46q-48 -46 -116 -46h-22q-67 0 -115 46q-48 -46 -116 -46h-30q-37 0 -67 14z" />
    <glyph glyph-name="sheen-arab.init" unicode="&#x634;" horiz-adv-x="766" arabic-form="initial" 
d="M530 401h-248v95h248q4 0 8 -2l-2 -95zM410 635l67 -67l-67 -67l-68 67zM0 0l-23 13v79l23 13h17q40 0 80 12v179l105 18v-146q0 -26 18 -44.5t45 -18.5h30q33 0 63 7v153l105 11v-108q0 -26 18.5 -44.5t44.5 -18.5h22q33 0 63 7v201l105 18v-163q0 -69 -48.5 -118.5
t-119.5 -49.5h-22q-67 0 -115 46q-48 -46 -116 -46h-30q-71 0 -120 51q-53 -51 -128 -51h-17z" />
    <glyph glyph-name="sheen-arab.medi" unicode="&#x634;" horiz-adv-x="792" arabic-form="medial" 
d="M530 401h-248v95h248q4 0 8 -2l-2 -95zM410 635l67 -67l-67 -67l-68 67zM0 0l-23 13v79l23 13h17q40 0 80 12v179l105 18v-146q0 -26 18 -44.5t45 -18.5h30q33 0 63 7v153l105 11v-108q0 -26 18.5 -44.5t44.5 -18.5h22q33 0 63 7v201l105 18v-163q0 -26 18.5 -44.5
t44.5 -18.5h13l23 -13v-79l-23 -13h-13q-67 0 -115 46q-48 -46 -116 -46h-22q-67 0 -115 46q-48 -46 -116 -46h-30q-71 0 -120 51q-53 -51 -128 -51h-17z" />
    <glyph glyph-name="sad-arab.fina" unicode="&#x635;" horiz-adv-x="1113" arabic-form="final" 
d="M932 226q0 26 -18.5 44.5t-44.5 18.5h-77l-149 -184h185q57 0 104 24v97zM1113 105l23 -13v-79l-23 -13h-13q-69 0 -119 50l-8 8q-60 -58 -145 -58h-179q-37 0 -67 14q-14 -74 -70 -129q-75 -74 -178 -74h-32q-105 0 -178.5 73.5t-73.5 178.5v154l105 18v-172
q0 -61 43 -104t104 -43h32q86 0 147 38v324l105 18v-94l77 94q85 98 206 98q69 0 118.5 -49.5t49.5 -118.5v-58q0 -26 18.5 -44.5t44.5 -18.5h13z" />
    <glyph glyph-name="sad-arab.init" unicode="&#x635;" horiz-adv-x="693" arabic-form="initial" 
d="M259 105h185q57 0 104 24v97q0 26 -18.5 44.5t-44.5 18.5h-77zM202 202l77 94q85 98 206 98q70 0 119 -49.5t49 -118.5v-18q0 -86 -61 -147t-148 -61h-179q-71 0 -120 51q-53 -51 -128 -51h-17l-23 13v79l23 13h17q40 0 80 12v161l105 18v-94z" />
    <glyph glyph-name="sad-arab.medi" unicode="&#x635;" horiz-adv-x="729" arabic-form="medial" 
d="M548 226q0 26 -18.5 44.5t-44.5 18.5h-77l-149 -184h185q57 0 104 24v97zM729 105l23 -13v-79l-23 -13h-13q-69 0 -119 50l-8 8q-60 -58 -145 -58h-179q-71 0 -120 51q-53 -51 -128 -51h-17l-23 13v79l23 13h17q40 0 80 12v161l105 18v-94l77 94q85 98 206 98
q70 0 119 -49.5t49 -118.5v-58q0 -26 18.5 -44.5t44.5 -18.5h13z" />
    <glyph glyph-name="dad-arab.fina" unicode="&#x636;" horiz-adv-x="1113" arabic-form="final" 
d="M932 226q0 26 -18.5 44.5t-44.5 18.5h-77l-149 -184h185q57 0 104 24v97zM1113 105l23 -13v-79l-23 -13h-13q-69 0 -119 50l-8 8q-60 -58 -145 -58h-179q-37 0 -67 14q-14 -74 -70 -129q-75 -74 -178 -74h-32q-105 0 -178.5 73.5t-73.5 178.5v154l105 18v-172
q0 -61 43 -104t104 -43h32q86 0 147 38v324l105 18v-94l77 94q85 98 206 98q69 0 118.5 -49.5t49.5 -118.5v-58q0 -26 18.5 -44.5t44.5 -18.5h13zM869 591l67 -67l-67 -68l-67 68z" />
    <glyph glyph-name="dad-arab.init" unicode="&#x636;" horiz-adv-x="693" arabic-form="initial" 
d="M259 105h185q57 0 104 24v97q0 26 -18.5 44.5t-44.5 18.5h-77zM202 202l77 94q85 98 206 98q70 0 119 -49.5t49 -118.5v-18q0 -86 -61 -147t-148 -61h-179q-71 0 -120 51q-53 -51 -128 -51h-17l-23 13v79l23 13h17q40 0 80 12v161l105 18v-94zM486 591l67 -67l-67 -68
l-67 68z" />
    <glyph glyph-name="dad-arab.medi" unicode="&#x636;" horiz-adv-x="729" arabic-form="medial" 
d="M548 226q0 26 -18.5 44.5t-44.5 18.5h-77l-149 -184h185q57 0 104 24v97zM729 105l23 -13v-79l-23 -13h-13q-69 0 -119 50l-8 8q-60 -58 -145 -58h-179q-71 0 -120 51q-53 -51 -128 -51h-17l-23 13v79l23 13h17q40 0 80 12v161l105 18v-94l77 94q85 98 206 98
q70 0 119 -49.5t49 -118.5v-58q0 -26 18.5 -44.5t44.5 -18.5h13zM486 591l67 -67l-67 -68l-67 68z" />
    <glyph glyph-name="tah-arab.fina" unicode="&#x637;" horiz-adv-x="671" arabic-form="final" 
d="M490 226q0 26 -18.5 44.5t-44.5 18.5h-77l-149 -184h185q57 0 104 24v97zM671 105l23 -13v-79l-23 -13h-13q-69 0 -119 50l-8 8q-60 -58 -145 -58h-339l-17 105h58v498l105 18v-359l28 34q85 98 206 98q70 0 119 -49.5t49 -118.5v-58q0 -26 18.5 -44.5t44.5 -18.5h13z
" />
    <glyph glyph-name="tah-arab.init" unicode="&#x637;" horiz-adv-x="645" arabic-form="initial" 
d="M211 105h185q57 0 104 24v97q0 26 -18.5 44.5t-44.5 18.5h-77zM203 262l28 34q85 98 206 98q70 0 119 -49.5t49 -118.5v-18q0 -86 -61 -147t-148 -61h-396l-23 13v79l23 13h98v498l105 18v-359z" />
    <glyph glyph-name="tah-arab.medi" unicode="&#x637;" horiz-adv-x="681" arabic-form="medial" 
d="M500 226q0 26 -18.5 44.5t-44.5 18.5h-77l-149 -184h185q57 0 104 24v97zM681 105l23 -13v-79l-23 -13h-13q-69 0 -119 50l-8 8q-60 -58 -145 -58h-396l-23 13v79l23 13h98v498l105 18v-359l28 34q85 98 206 98q70 0 119 -49.5t49 -118.5v-58q0 -26 18.5 -44.5
t44.5 -18.5h13z" />
    <glyph glyph-name="zah-arab.fina" unicode="&#x638;" horiz-adv-x="671" arabic-form="final" 
d="M490 226q0 26 -18.5 44.5t-44.5 18.5h-77l-149 -184h185q57 0 104 24v97zM671 105l23 -13v-79l-23 -13h-13q-69 0 -119 50l-8 8q-60 -58 -145 -58h-339l-17 105h58v498l105 18v-359l28 34q85 98 206 98q70 0 119 -49.5t49 -118.5v-58q0 -26 18.5 -44.5t44.5 -18.5h13z
M427 591l67 -67l-67 -68l-67 68z" />
    <glyph glyph-name="zah-arab.init" unicode="&#x638;" horiz-adv-x="645" arabic-form="initial" 
d="M211 105h185q57 0 104 24v97q0 26 -18.5 44.5t-44.5 18.5h-77zM203 262l28 34q85 98 206 98q70 0 119 -49.5t49 -118.5v-18q0 -86 -61 -147t-148 -61h-396l-23 13v79l23 13h98v498l105 18v-359zM437 591l67 -67l-67 -68l-67 68z" />
    <glyph glyph-name="zah-arab.medi" unicode="&#x638;" horiz-adv-x="681" arabic-form="medial" 
d="M500 226q0 26 -18.5 44.5t-44.5 18.5h-77l-149 -184h185q57 0 104 24v97zM681 105l23 -13v-79l-23 -13h-13q-69 0 -119 50l-8 8q-60 -58 -145 -58h-396l-23 13v79l23 13h98v498l105 18v-359l28 34q85 98 206 98q70 0 119 -49.5t49 -118.5v-58q0 -26 18.5 -44.5
t44.5 -18.5h13zM437 591l67 -67l-67 -68l-67 68z" />
    <glyph glyph-name="ain-arab.fina" unicode="&#x639;" horiz-adv-x="514" arabic-form="final" 
d="M222 120l58 39q59 42 59 111v16h-185v-94zM514 105l23 -13v-79l-23 -13h-118q-64 0 -118 31l-131 -87v-72q0 -52 37 -88.5t88 -36.5h172l-14 -105h-158q-95 0 -162.5 67t-67.5 163q0 115 93 188l-37 39q-49 52 -49 125v62h-46l18 105h318q43 0 74 -31t31 -74v-16
q0 -97 -76 -165h146z" />
    <glyph glyph-name="ain-arab.init" unicode="&#x639;" horiz-adv-x="487" arabic-form="initial" 
d="M0 0l-23 13v79l23 13h99q-18 38 -18 90q0 95 53.5 145.5t131.5 50.5h111l18 -105h-192q-17 -33 -17 -91q0 -46 25.5 -68t54.5 -22h171l-17 -105h-420z" />
    <glyph glyph-name="ain-arab.medi" unicode="&#x639;" horiz-adv-x="536" arabic-form="medial" 
d="M256 108q38 7 67 37q38 39 38 93v48h-185v-94zM536 105l23 -13v-79l-23 -13h-118q-51 0 -95 29q-44 -29 -95 -29h-228l-23 13v79l23 13h125q-54 50 -54 119v62h-46l18 105h318q44 0 74.5 -31t30.5 -74v-48q0 -73 -51 -133h121z" />
    <glyph glyph-name="ghain-arab.fina" unicode="&#x63a;" horiz-adv-x="514" arabic-form="final" 
d="M222 120l58 39q59 42 59 111v16h-185v-94zM514 105l23 -13v-79l-23 -13h-118q-64 0 -118 31l-131 -87v-72q0 -52 37 -88.5t88 -36.5h172l-14 -105h-158q-95 0 -162.5 67t-67.5 163q0 115 93 188l-37 39q-49 52 -49 125v62h-46l18 105h318q43 0 74 -31t31 -74v-16
q0 -97 -76 -165h146zM241 591l67 -67l-67 -68l-67 68z" />
    <glyph glyph-name="ghain-arab.init" unicode="&#x63a;" horiz-adv-x="487" arabic-form="initial" 
d="M0 0l-23 13v79l23 13h99q-18 38 -18 90q0 95 53.5 145.5t131.5 50.5h111l18 -105h-192q-17 -33 -17 -91q0 -46 25.5 -68t54.5 -22h171l-17 -105h-420zM268 591l67 -67l-67 -68l-67 68z" />
    <glyph glyph-name="ghain-arab.medi" unicode="&#x63a;" horiz-adv-x="536" arabic-form="medial" 
d="M256 108q38 7 67 37q38 39 38 93v48h-185v-94zM536 105l23 -13v-79l-23 -13h-118q-51 0 -95 29q-44 -29 -95 -29h-228l-23 13v79l23 13h125q-54 50 -54 119v62h-46l18 105h318q44 0 74.5 -31t30.5 -74v-48q0 -73 -51 -133h121zM263 591l67 -67l-67 -68l-67 68z" />
    <glyph glyph-name="feh-arab.fina" unicode="&#x641;" horiz-adv-x="870" arabic-form="final" 
d="M713 203q0 28 -20 48t-50 20q-42 0 -82 -15v-69q0 -24 15.5 -42t38.5 -21l22 -3q38 5 76 12v70zM870 105l23 -13v-79l-23 -13h-6q-114 0 -226 25q-113 -25 -227 -25h-193q-69 0 -118.5 49.5t-49.5 118.5v128l105 18v-146q0 -26 18.5 -44.5t44.5 -18.5h193q32 0 65 1
q-20 37 -20 81v19q0 41 19.5 79.5t61 64.5t106.5 26q75 0 125 -50t50 -123v-16q0 -44 -20 -81q33 -1 66 -1h6zM643 591l67 -67l-67 -68l-67 68z" />
    <glyph glyph-name="feh-arab.init" unicode="&#x641;" horiz-adv-x="435" arabic-form="initial" 
d="M280 308q0 26 -18 44.5t-45 18.5h-17q-30 0 -61 -8v-70q0 -26 18 -44.5t45 -18.5h15q33 0 63 7v71zM280 136q-29 -11 -63 -11h-15q-70 0 -119 49.5t-49 118.5v15q0 69 49 118.5t119 49.5h15q71 0 119.5 -49.5t48.5 -118.5v-121q0 -77 -53.5 -132t-131.5 -55h-200l-23 13
v79l23 13h200q40 0 80 12v19zM209 667l67 -67l-67 -68l-67 68z" />
    <glyph glyph-name="feh-arab.medi" unicode="&#x641;" horiz-adv-x="465" arabic-form="medial" 
d="M308 203q0 28 -20 48t-50 20q-42 0 -82 -15v-69q0 -24 15.5 -42t38.5 -21l22 -3q38 5 76 12v70zM465 105l23 -13v-79l-23 -13h-6q-114 0 -226 25q-113 -25 -227 -25h-6l-23 13v79l23 13h6q32 0 65 1q-20 37 -20 81v19q0 41 19.5 79.5t61 64.5t106.5 26q75 0 125 -50
t50 -123v-16q0 -44 -20 -81q33 -1 66 -1h6zM238 591l67 -67l-67 -68l-67 68z" />
    <glyph glyph-name="qaf-arab.fina" unicode="&#x642;" horiz-adv-x="660" arabic-form="final" 
d="M481 105v99q0 26 -18.5 44.5t-44.5 18.5h-27q-30 0 -62 -8v-91q0 -26 18.5 -44.5t44.5 -18.5h89zM660 105l23 -13v-79l-23 -13h-81q-16 -65 -67 -115q-75 -74 -178 -74h-32q-105 0 -178.5 73.5t-73.5 178.5v154l105 18v-172q0 -61 43 -104t104 -43h32q86 0 147 38v46h-89
q-69 0 -118.5 49.5t-49.5 118.5v36q0 69 49.5 118.5t118.5 49.5h26q70 0 119 -49.5t49 -118.5v-99h74zM508 456h-213v94h213q5 0 8 -2l-3 -94z" />
    <glyph glyph-name="qaf-arab.init" unicode="&#x642;" horiz-adv-x="435" arabic-form="initial" 
d="M280 308q0 26 -18 44.5t-45 18.5h-17q-30 0 -61 -8v-70q0 -26 18 -44.5t45 -18.5h15q33 0 63 7v71zM280 136q-29 -11 -63 -11h-15q-70 0 -119 49.5t-49 118.5v15q0 69 49 118.5t119 49.5h15q71 0 119.5 -49.5t48.5 -118.5v-121q0 -77 -53.5 -132t-131.5 -55h-200l-23 13
v79l23 13h200q40 0 80 12v19zM313 540h-213v94h213q5 0 8 -2l-3 -94z" />
    <glyph glyph-name="qaf-arab.medi" unicode="&#x642;" horiz-adv-x="465" arabic-form="medial" 
d="M308 203q0 28 -20 48t-50 20q-42 0 -82 -15v-69q0 -24 15.5 -42t38.5 -21l22 -3q38 5 76 12v70zM465 105l23 -13v-79l-23 -13h-6q-114 0 -226 25q-113 -25 -227 -25h-6l-23 13v79l23 13h6q32 0 65 1q-20 37 -20 81v19q0 41 19.5 79.5t61 64.5t106.5 26q75 0 125 -50
t50 -123v-16q0 -44 -20 -81q33 -1 66 -1h6zM342 456h-213v94h213q5 0 8 -2l-3 -94z" />
    <glyph glyph-name="kaf-arab.fina" unicode="&#x643;" horiz-adv-x="806" arabic-form="final" 
d="M218 0q-69 0 -118.5 49.5t-49.5 118.5v128l105 18v-146q0 -26 18.5 -44.5t44.5 -18.5h327q40 0 80 12v486l105 18v-453q0 -26 18.5 -44.5t44.5 -18.5h13l23 -13v-79l-23 -13h-13q-70 0 -120 51q-53 -51 -128 -51h-327zM472 463h-89q-5 -18 -5 -36v-6l54 -20
q13 -5 21.5 -12.5t13 -16t6.5 -17t2 -16.5q0 -23 -10.5 -38.5t-25.5 -25.5t-33.5 -15t-34.5 -5h-57l-5 47h62q39 0 66 17q0 14 -7.5 24.5t-20.5 15.5l-79 30v38q0 17 7 32.5t18 27t26.5 18t32.5 6.5h51z" />
    <glyph glyph-name="kaf-arab.init" unicode="&#x643;" horiz-adv-x="355" arabic-form="initial" 
d="M0 0l-23 13v79l23 13h130q40 0 80 12q0 42 -27 75l-153 178l7 119l182 84q41 20 86 29l20 -103q-32 -7 -62 -21l-135 -62l134 -155q43 -52 43 -115q0 -32 -22 -65.5t-61.5 -57t-91.5 -23.5h-130z" />
    <glyph glyph-name="kaf-arab.medi" unicode="&#x643;" horiz-adv-x="380" arabic-form="medial" 
d="M380 105l23 -13v-79l-23 -13h-12q-68 0 -114 48q-14 -13 -32 -24q-40 -24 -92 -24h-130l-23 13v79l23 13h130q40 0 80 12q0 42 -27 75l-153 178l7 119l195 91q41 19 85 28l21 -103q-34 -7 -59 -19l-151 -70l134 -155q34 -42 42 -92q4 -27 21 -45.5t43 -18.5h12z" />
    <glyph glyph-name="lam-arab.fina" unicode="&#x644;" horiz-adv-x="661" arabic-form="final" 
d="M661 105l23 -13v-79l-23 -13h-12q-37 0 -67 14q-14 -74 -70 -129q-75 -74 -178 -74h-32q-105 0 -178.5 73.5t-73.5 178.5v154l105 18v-172q0 -61 43 -104t104 -43h32q86 0 147 38v649l105 18v-453q0 -26 18 -44.5t45 -18.5h12z" />
    <glyph glyph-name="lam-arab.init" unicode="&#x644;" horiz-adv-x="258" arabic-form="initial" 
d="M0 0l-23 13v79l23 13h23q40 0 80 12v486l105 18v-434q0 -77 -53.5 -132t-131.5 -55h-23z" />
    <glyph glyph-name="lam-arab.medi" unicode="&#x644;" horiz-adv-x="284" arabic-form="medial" 
d="M284 105l23 -13v-79l-23 -13h-13q-70 0 -120 51q-53 -51 -128 -51h-23l-23 13v79l23 13h23q40 0 80 12v486l105 18v-453q0 -26 18.5 -44.5t44.5 -18.5h13z" />
    <glyph glyph-name="meem-arab.fina" unicode="&#x645;" horiz-adv-x="622" arabic-form="final" 
d="M442 204q0 26 -18.5 44.5t-44.5 18.5h-48q-21 0 -41 -3v-96q0 -26 18.5 -44.5t44.5 -18.5h26q32 0 63 7v92zM622 105l23 -13v-79l-23 -13h-12q-68 0 -116 46q-48 -46 -115 -46h-26q-69 0 -118.5 49.5t-49.5 118.5v64q-15 -7 -30 -17v-427l-105 -18v351q0 54 27 112.5
t88 98.5t166 40h48q69 0 118.5 -49.5t49.5 -118.5v-36q0 -26 18 -44.5t45 -18.5h12z" />
    <glyph glyph-name="meem-arab.init" unicode="&#x645;" horiz-adv-x="508" arabic-form="initial" 
d="M202 168q0 -26 18 -44.5t45 -18.5h25q32 0 63 7v92q0 26 -18.5 44.5t-44.5 18.5h-90q2 -11 2 -22v-77zM97 245q0 32 -22 58l79 69h136q69 0 118.5 -49.5t49.5 -118.5v-36q0 -69 -49.5 -118.5t-118.5 -49.5h-25q-71 0 -120 51q-53 -51 -128 -51h-17l-23 13v79l23 13h17
q40 0 80 12v128z" />
    <glyph glyph-name="meem-arab.medi" unicode="&#x645;" horiz-adv-x="534" arabic-form="medial" 
d="M353 204q0 26 -18.5 44.5t-44.5 18.5h-90q2 -11 2 -22v-77q0 -26 18 -44.5t45 -18.5h25q32 0 63 7v92zM534 105l23 -13v-79l-23 -13h-13q-67 0 -116 47q-48 -47 -115 -47h-25q-71 0 -120 51q-53 -51 -128 -51h-17l-23 13v79l23 13h17q40 0 80 12v128q0 32 -22 58l79 69
h136q69 0 118.5 -49.5t49.5 -118.5v-36q0 -26 18.5 -44.5t44.5 -18.5h13z" />
    <glyph glyph-name="noon-arab.fina" unicode="&#x646;" horiz-adv-x="661" arabic-form="final" 
d="M661 105l23 -13v-79l-23 -13h-12q-37 0 -67 14q-14 -74 -70 -129q-75 -74 -178 -74h-32q-105 0 -178.5 73.5t-73.5 178.5v154l105 18v-172q0 -61 43 -104t104 -43h32q86 0 147 38v342l105 18v-146q0 -26 18 -44.5t45 -18.5h12zM323 293l67 -67l-67 -68l-67 68z" />
    <glyph glyph-name="noon-arab.init" unicode="&#x646;" horiz-adv-x="269" arabic-form="initial" 
d="M0 0l-23 13v79l23 13h34q40 0 80 12v196l105 18v-144q0 -77 -53.5 -132t-131.5 -55h-34zM165 510l67 -67l-67 -68l-67 68z" />
    <glyph glyph-name="noon-arab.medi" unicode="&#x646;" horiz-adv-x="306" arabic-form="medial" 
d="M306 105l23 -13v-79l-23 -13h-13q-70 0 -120 51q-53 -51 -128 -51h-45l-23 13v79l23 13h45q40 0 80 12v179l105 18v-146q0 -26 18.5 -44.5t44.5 -18.5h13zM177 510l67 -67l-67 -68l-67 68z" />
    <glyph glyph-name="heh-arab.fina" unicode="&#x647;" horiz-adv-x="487" arabic-form="final" 
d="M306 297h-89q-30 0 -62 -7v-80q0 -26 18.5 -44.5t44.5 -18.5h25q33 0 63 7v143zM487 105l23 -13v-79l-23 -13h-13q-69 0 -119 50q-10 10 -17 20q-41 -28 -95 -28h-25q-69 0 -118.5 49.5t-49.5 118.5v24q0 69 49.5 118.5t118.5 49.5h88v36l105 17v-287q0 -26 18.5 -44.5
t44.5 -18.5h13z" />
    <glyph glyph-name="heh-arab.init" unicode="&#x647;" horiz-adv-x="737" arabic-form="initial" 
d="M427 105h92q31 0 63 7v82q0 51 -50 62l-111 25q18 -35 18 -77v-36q0 -34 -12 -63zM246 105h25q33 0 63 7v92q0 26 -18.5 44.5t-44.5 18.5h-26q-31 0 -62 -8v-91q0 -26 18.5 -44.5t44.5 -18.5zM0 0l-23 13v79l23 13h90q-12 29 -12 63v36q0 69 50 119q18 18 40 30
q-20 10 -40 21l54 90q59 -35 126 -49l248 -57q58 -14 94.5 -59t36.5 -105v-26q0 -69 -49.5 -118.5t-118.5 -49.5h-519z" />
    <glyph glyph-name="heh-arab.medi" unicode="&#x647;" horiz-adv-x="507" arabic-form="medial" 
d="M353 19q-36 -19 -79 -19h-88v-47q0 -26 19 -45t45 -19h24q32 0 64 7v57q0 36 15 66zM274 105q33 0 63 7v92q0 26 -18.5 44.5t-44.5 18.5h-90q2 -11 2 -22v-140h88zM81 105v140q0 32 -22 58l80 69h135q69 0 118.5 -49.5t49.5 -118.5v-36q0 -43 -19 -78q30 15 67 15h17
l23 -13v-79l-23 -13h-17q-19 0 -33 -14t-14 -33q0 -71 -49 -120t-120 -49h-24q-70 0 -119.5 49t-49.5 120v47h-81l-23 13v79l23 13h81z" />
    <glyph glyph-name="waw-arab.fina" unicode="&#x648;" horiz-adv-x="487" arabic-form="final" 
d="M307 105v99q0 26 -18 44.5t-45 18.5h-26q-30 0 -62 -8v-91q0 -26 18.5 -44.5t44.5 -18.5h88zM487 105l23 -13v-79l-23 -13h-83q-6 -26 -18 -52q-27 -58 -88.5 -98t-166.5 -40h-65l-18 105h83q96 0 176 51v34h-88q-69 0 -118.5 49.5t-49.5 118.5v36q0 69 49.5 118.5
t118.5 49.5h25q71 0 119.5 -49.5t48.5 -118.5v-99h75z" />
    <glyph glyph-name="alefmaksura-arab.fina" unicode="&#x649;" horiz-adv-x="602" arabic-form="final" 
d="M602 105l23 -13v-79l-23 -13h-16q-1 -102 -74 -174q-75 -74 -178 -74h-32q-105 0 -178.5 73.5t-73.5 178.5v165l105 18v-183q0 -61 43 -104t104 -43h32q86 0 147 38v105h-174l-10 105h305z" />
    <glyph glyph-name="yeh-arab.fina" unicode="&#x64a;" horiz-adv-x="602" arabic-form="final" 
d="M406 -384h-213v94h213q5 0 8 -2l-3 -94zM602 105l23 -13v-79l-23 -13h-16q-1 -102 -74 -174q-75 -74 -178 -74h-32q-105 0 -178.5 73.5t-73.5 178.5v165l105 18v-183q0 -61 43 -104t104 -43h32q86 0 147 38v105h-174l-10 105h305z" />
    <glyph glyph-name="yeh-arab.init" unicode="&#x64a;" horiz-adv-x="287" arabic-form="initial" 
d="M181 -194h-213v94h213q5 0 8 -2l-3 -94zM0 0l-23 13v79l23 13h52q40 0 80 12v196l105 18v-144q0 -77 -53.5 -132t-131.5 -55h-52z" />
    <glyph glyph-name="yeh-arab.medi" unicode="&#x64a;" horiz-adv-x="325" arabic-form="medial" 
d="M190 -194h-213v94h213q5 0 8 -2l-3 -94zM0 0l-23 13v79l23 13h64q40 0 80 12v179l105 18v-146q0 -26 18.5 -44.5t44.5 -18.5h13l23 -13v-79l-23 -13h-13q-70 0 -120 51q-53 -51 -128 -51h-64z" />
    <glyph glyph-name=".notdef" horiz-adv-x="500" 
d="M410 -400h-317v1000h317v-1000zM167 -82v-113h166v113h-166zM300 -162h-100v47h100v-47zM233 91v-56h34v23h33v-47h-100v80h-33v-113h166v113h-100zM300 213v-66h-133v-34h166v100h-33zM167 273v-33h66v-37h-66v-33h100v70h66v33h-166zM233 334h-33v36h33v-36zM167 404
v-104h166v34h-66v70h-100zM168 533v-33h65v-37h-66v-33h166v33h-66v37h66v33h-165zM167 -218v-33h70l-70 -47v-33h166v33h-102l70 47h32v33h-166z" />
    <glyph glyph-name=".null" 
 />
    <glyph glyph-name="nonmarkingreturn" horiz-adv-x="274" 
 />
    <glyph glyph-name="zerowidthnobreakspace" unicode="&#xfeff;" 
 />
    <glyph glyph-name="zerowidthnobreakspace" 
 />
    <glyph glyph-name="space" unicode=" " horiz-adv-x="164" 
 />
    <glyph glyph-name="space" unicode="&#xa0;" horiz-adv-x="164" 
 />
    <glyph glyph-name="exclam" unicode="!" horiz-adv-x="212" 
d="M68 144q-2 20 -3 40t-1 41l-7 288q0 35 -7 65l102 25q10 -41 10 -90l-5 -288q0 -35 3 -72zM110 0q-21 0 -37 15t-16 38q0 22 16 37t37 15q22 0 37 -15t15 -37q0 -23 -15 -38t-37 -15z" />
    <glyph glyph-name="quotedbl" unicode="&#x22;" horiz-adv-x="346" 
d="M185 544q-1 42 4 73h86q5 -31 3 -73l-9 -124h-75zM69 544q-3 42 3 73h86q5 -31 3 -73l-9 -124h-74z" />
    <glyph glyph-name="numbersign" unicode="#" horiz-adv-x="702" 
d="M396 257l16 109h-118l-14 -109h116zM140 0l22 161h-106v96h119l15 109h-110v94h123l23 167l103 -4l-22 -163h118l22 167l103 -4l-22 -163h108v-94h-120l-14 -109h111v-96h-125l-22 -165l-104 4l22 161h-117l-22 -165z" />
    <glyph glyph-name="dollar" unicode="$" horiz-adv-x="542" 
d="M225 -6q-100 7 -179 50l37 93q84 -45 191 -45q59 0 101 9q10 26 10 62q0 38 -24.5 57.5t-86.5 35.5q-68 15 -112 35.5t-70 57.5t-26 95q0 69 38.5 117.5t120.5 61.5v94h102v-90q47 -4 79.5 -14.5t67.5 -28.5v-30q0 -23 -5 -53.5t-13 -50.5h-84l-12 76q-40 5 -78 5
q-56 0 -81 -19t-25 -62q0 -37 26.5 -55.5t99.5 -35.5q101 -21 147 -61t46 -121q0 -71 -40 -120t-128 -60v-107h-102v104z" />
    <glyph glyph-name="percent" unicode="%" horiz-adv-x="763" 
d="M244 386q9 28 9 70q0 48 -12 65t-46 17q-28 0 -43 -7q-7 -31 -7 -70q0 -48 10.5 -65t46.5 -17q25 0 42 7zM610 68q8 28 8 69q0 50 -11 66.5t-45 16.5q-26 0 -44 -8q-6 -31 -6 -69q0 -47 10.5 -64.5t44.5 -17.5q30 0 43 7zM66 451q0 77 34 117.5t103 40.5q60 0 93 -36.5
t33 -109.5q0 -75 -33 -115t-103 -40q-61 0 -94 35.5t-33 107.5zM433 133q0 76 33.5 116.5t101.5 40.5q61 0 94.5 -36t33.5 -107q0 -77 -34 -117t-103 -40q-61 0 -93.5 35.5t-32.5 107.5zM159 18l367 600l81 -30l-371 -606z" />
    <glyph glyph-name="ampersand" unicode="&#x26;" horiz-adv-x="698" 
d="M396 91q9 15 12 37l-151 143q-44 -13 -64 -37.5t-20 -67.5q0 -45 32 -65t95 -20q54 0 96 10zM64 160q0 69 33 110t99 67v7q-26 27 -39.5 52t-13.5 58q0 75 50 114t139 39q65 0 109.5 -19.5t69.5 -48.5v-38q0 -18 -3.5 -41t-10.5 -38h-85l-9 77q-29 11 -72 11t-61 -14.5
t-18 -45.5q0 -28 9 -44t33 -38l151 -141q10 35 19 100l102 -23q-8 -44 -15.5 -77t-17.5 -64l119 -117l-77 -55l-69 76h-8q-10 -35 -24 -55q-61 -28 -178 -28q-111 0 -171.5 45t-60.5 131z" />
    <glyph glyph-name="quotesingle" unicode="'" horiz-adv-x="245" 
d="M77 544q-3 42 3 73h86q5 -31 3 -73l-9 -124h-74z" />
    <glyph glyph-name="parenleft" unicode="(" horiz-adv-x="291" 
d="M76 59q-26 94 -26 191q0 96 26 189.5t88 203.5l87 -44q-47 -73 -74 -169t-27 -180q0 -85 27 -181t74 -169l-87 -44q-62 109 -88 203z" />
    <glyph glyph-name="parenright" unicode=")" horiz-adv-x="291" 
d="M127 -144l-87 44q47 73 74 169t27 181q0 84 -27 180t-74 169l87 44q62 -110 88 -203.5t26 -189.5q0 -97 -26 -191t-88 -203z" />
    <glyph glyph-name="asterisk" unicode="*" horiz-adv-x="456" 
d="M89 356l83 98l-3 6l-113 28l27 81l106 -47l5 5l-9 121h85l-8 -121l3 -5l108 47l26 -81l-112 -28l-2 -6l81 -98l-69 -49l-65 106h-8l-66 -106z" />
    <glyph glyph-name="plus" unicode="+" horiz-adv-x="558" 
d="M228 259h-182v92h182v163h101v-163h183v-92h-183v-177h-101v177z" />
    <glyph glyph-name="comma" unicode="," horiz-adv-x="240" 
d="M71 -92q31 54 32 102h-53v73q28 11 63 11q77 0 77 -77q0 -32 -14 -65t-38 -59z" />
    <glyph glyph-name="hyphenminus" unicode="-" horiz-adv-x="447" 
d="M71 316h305v-97h-305v97z" />
    <glyph glyph-name="period" unicode="." horiz-adv-x="218" 
d="M50 116h118v-116h-118v116z" />
    <glyph glyph-name="slash" unicode="/" horiz-adv-x="444" 
d="M390 617l-243 -640l-93 24l244 639z" />
    <glyph glyph-name="zero" unicode="0" horiz-adv-x="462" 
d="M307 245q0 26 -18 44.5t-45 18.5h-27q-30 0 -62 -7v-80q0 -27 18.5 -45t44.5 -18h26q34 0 63 7v80zM244 413q35 0 65.5 -13.5t53.5 -36t36 -53.5t13 -65v-24q0 -35 -13 -65.5t-36 -53.5t-53.5 -36t-65.5 -13h-26q-35 0 -65.5 13t-53.5 36t-36 53.5t-13 65.5v24
q0 34 13 65t36 53.5t53.5 36t65.5 13.5h26z" />
    <glyph glyph-name="one" unicode="1" horiz-adv-x="274" 
d="M154 594q36 -147 53 -295.5t17 -298.5h-105q0 144 -16.5 286.5t-50.5 283.5l-2 8l103 24z" />
    <glyph glyph-name="two" unicode="2" horiz-adv-x="480" 
d="M325 609l105 18v-145q0 -38 -14 -71.5t-39.5 -59t-59 -40.5t-72.5 -15q-23 0 -40 4q9 -75 13.5 -149.5t4.5 -150.5h-105q0 144 -16.5 286.5t-51.5 291.5l102 24l37 -157q4 -20 19.5 -32t36.5 -12q37 0 80 12v196z" />
    <glyph glyph-name="three" unicode="3" horiz-adv-x="734" 
d="M579 609l105 18v-145q0 -38 -14 -71.5t-39.5 -59t-59 -40.5t-72.5 -15h-6q-70 0 -121 51q-24 -25 -56.5 -38t-69.5 -13h-1q-22 0 -39 4q9 -75 13.5 -149.5t4.5 -150.5h-106q0 144 -16 286.5t-52 291.5l102 24l38 -157q5 -20 20 -32t36 -12q38 0 79 12v138l105 11v-97
q0 -27 18 -45.5t45 -18.5h6q37 0 80 12v196z" />
    <glyph glyph-name="four" unicode="4" horiz-adv-x="593" 
d="M543 353l-17 -105h-209q-29 0 -56 7t-51 19q7 -58 10 -115.5t3 -116.5v-42l-105 1v42q2 243 -66 474l-2 7l101 29l2 -7l25 -87q13 -42 45 -69q-2 12 -2 26v8q0 39 15 72.5t40.5 59t59.5 39.5t72 14h85l17 -105h-172q-12 -43 -12 -80v-8q0 -26 17.5 -44.5t42.5 -18.5h157z
" />
    <glyph glyph-name="five" unicode="5" horiz-adv-x="680" 
d="M525 193q0 38 -11 73.5t-30.5 66t-48 55t-63.5 39.5l-73 33q-67 -50 -105.5 -126t-38.5 -162v-4q0 -26 18.5 -44.5t44.5 -18.5h6q32 0 63 6v143l105 12v-98q0 -26 18.5 -44.5t44.5 -18.5h7q31 0 63 6v82zM630 193v-25q0 -35 -13.5 -66t-36 -53.5t-53.5 -35.5t-65 -13h-7
q-33 0 -62.5 12t-52.5 33q-23 -21 -52.5 -33t-63.5 -12h-6q-35 0 -65.5 13t-53.5 35.5t-36 53.5t-13 66v15q0 94 38 178t104 146l-62 27l46 95l251 -117q46 -22 84 -55t64 -74.5t40.5 -89.5t14.5 -100z" />
    <glyph glyph-name="six" unicode="6" horiz-adv-x="463" 
d="M443 404l-34 -34q-152 -164 -225 -370l-100 35v1q43 117 110 225q-49 10 -86 47l-4 4q-27 27 -41 61.5t-13 70.5t14.5 70t40.5 60l61 60l86 -62l-122 -122q11 -17 22.5 -33t26.5 -31l4 -4q18 -19 44 -19t46 20l108 107z" />
    <glyph glyph-name="seven" unicode="7" horiz-adv-x="530" 
d="M320 0h-105q0 131 -37.5 255t-112.5 233l-45 67l87 59l45 -67q114 -169 116 -334q2 165 112 335l43 65l87 -58l-42 -65q-72 -110 -110 -234t-38 -256z" />
    <glyph glyph-name="eight" unicode="8" horiz-adv-x="530" 
d="M320 614q0 -132 38 -256t110 -234l42 -65l-87 -58l-43 65q-110 170 -112 335q-2 -165 -116 -334l-45 -67l-87 59l45 67q75 109 112.5 233t37.5 255h105z" />
    <glyph glyph-name="nine" unicode="9" horiz-adv-x="501" 
d="M234 366q34 0 63 8v80q0 26 -18 44.5t-45 18.5h-27q-30 0 -62 -7v-81q0 -26 18.5 -44.5t44.5 -18.5h26zM402 426q0 -102 12 -202t37 -199l-102 -25q-17 69 -28.5 138t-16.5 138q-33 -15 -70 -15h-26q-35 0 -65.5 13.5t-53.5 36.5t-36 53.5t-13 64.5v25q0 34 13 65
t36 53.5t53.5 36t65.5 13.5h26q35 0 65.5 -13.5t53.5 -36t36 -53.5t13 -65v-28z" />
    <glyph glyph-name="colon" unicode=":" horiz-adv-x="218" 
d="M50 116h118v-116h-118v116zM50 387h118v-116h-118v116z" />
    <glyph glyph-name="semicolon" unicode=";" horiz-adv-x="240" 
d="M54 387h118v-116h-118v116zM71 -41q31 54 32 102h-53v73q28 11 63 11q77 0 77 -77q0 -32 -14 -65t-38 -59z" />
    <glyph glyph-name="less" unicode="&#x3c;" horiz-adv-x="583" 
d="M51 204v102l430 176l31 -100l-345 -124v-7l345 -124l-31 -100z" />
    <glyph glyph-name="equal" unicode="=" horiz-adv-x="578" 
d="M66 398h446v-97h-446v97zM66 194h446v-97h-446v97z" />
    <glyph glyph-name="greater" unicode="&#x3e;" horiz-adv-x="583" 
d="M71 127l347 124v7l-347 124l32 100l429 -176v-102l-429 -177z" />
    <glyph glyph-name="question" unicode="?" horiz-adv-x="582" 
d="M198 112h123v-112h-123v112zM199 256q0 25 6 39.5t23 26.5l175 128v54q0 43 -27.5 60t-87.5 17q-68 0 -119 -14v-72h-98q-15 52 -15 107v34q37 23 101 39.5t133 16.5q118 0 175 -48t57 -135q0 -52 -15 -86.5t-56 -64.5l-116 -81q-9 -7 -12.5 -16.5t-3.5 -28.5v-59h-120
v83z" />
    <glyph glyph-name="at" unicode="@" horiz-adv-x="791" 
d="M427 206l22 127q-9 13 -19 18.5t-23 5.5q-35 0 -55 -32.5t-20 -83.5q0 -54 42 -54q17 0 30 4.5t23 14.5zM61 268q0 96 40 173.5t119.5 123t191.5 45.5q101 0 173.5 -37t110 -101.5t37.5 -145.5q0 -92 -41.5 -154t-128.5 -62q-32 0 -55.5 11.5t-43.5 36.5h-5
q-22 -24 -46.5 -35t-61.5 -11q-52 0 -83 35.5t-31 94.5q0 78 38 134.5t114 56.5q30 0 48 -11t34 -31h3l15 30l68 -11l-39 -212q23 -12 55 -12q31 0 50 4q22 52 22 131q0 98 -58.5 154t-176.5 56q-83 0 -142.5 -34t-89.5 -93.5t-30 -135.5q0 -128 68 -188.5t199 -60.5
q74 0 127 14t100 40l30 -68q-42 -29 -112.5 -46.5t-147.5 -17.5q-174 0 -262.5 84.5t-88.5 242.5z" />
    <glyph glyph-name="A" unicode="A" horiz-adv-x="624" 
d="M31 8q41 154 93 318t102 292h172q50 -128 102 -292t93 -318l-116 -8l-18 71q-20 78 -31 117h-233q-30 -109 -48 -188zM401 285q-48 160 -73 231h-31q-34 -95 -74 -231h178z" />
    <glyph glyph-name="B" unicode="B" horiz-adv-x="562" 
d="M71 599q87 27 180 27q120 0 180 -43t60 -133q0 -46 -20 -78t-63 -55v-6q59 -17 86 -51t27 -86q0 -59 -24 -97t-80.5 -57.5t-153.5 -19.5h-192v599zM346 354q36 38 36 88t-30.5 69.5t-100.5 19.5q-36 0 -71 -8v-169h166zM261 95q59 0 91.5 8t46 26t13.5 48q0 41 -26.5 62
t-83.5 21h-122v-165h81z" />
    <glyph glyph-name="C" unicode="C" horiz-adv-x="590" 
d="M120.5 66.5q-70.5 75.5 -70.5 223.5q0 154 69 246t204 92q61 0 115 -12.5t86 -31.5v-50q0 -24 -3.5 -50t-9.5 -44h-84l-10 77q-37 9 -100 9q-56 0 -115 -13q-42 -90 -42 -217q0 -108 40.5 -155.5t135.5 -47.5q51 0 95.5 12t74.5 33l46 -85q-38 -30 -94 -46t-127 -16
q-140 0 -210.5 75.5z" />
    <glyph glyph-name="D" unicode="D" horiz-adv-x="603" 
d="M71 606q86 22 192 22q160 0 228.5 -79t68.5 -231q0 -105 -28.5 -174t-101.5 -106.5t-203 -37.5h-156v606zM236 101q112 0 185 21q14 34 21.5 83t7.5 102q0 79 -17 127t-57.5 70.5t-110.5 22.5q-40 0 -85 -6v-420h56z" />
    <glyph glyph-name="E" unicode="E" horiz-adv-x="555" 
d="M131.5 16q-60.5 25 -60.5 88v514h421v-101h-312v-162h274v-96h-274v-158q60 -10 126 -10q99 0 175 19l19 -97q-75 -22 -197 -22q-111 0 -171.5 25z" />
    <glyph glyph-name="F" unicode="F" horiz-adv-x="517" 
d="M71 618h426v-101h-316v-165h265v-98h-265v-254h-110v618z" />
    <glyph glyph-name="G" unicode="G" horiz-adv-x="615" 
d="M121.5 66.5q-71.5 75.5 -71.5 223.5q0 157 73 247.5t218 90.5q65 0 120.5 -12.5t88.5 -31.5v-50q0 -53 -13 -92h-84l-10 75q-38 9 -114 9q-67 0 -123 -12q-22 -47 -34 -103t-12 -115q0 -108 44 -156t141 -48q61 0 107 10v145h-140v94h195l54 -44v-163q0 -42 -29 -74.5
t-81 -50.5t-119 -18q-139 0 -210.5 75.5z" />
    <glyph glyph-name="H" unicode="H" horiz-adv-x="615" 
d="M70 618h110v-268h255v268h110v-618h-110v248h-255v-248h-110v618z" />
    <glyph glyph-name="I" unicode="I" horiz-adv-x="258" 
d="M74 618h110v-618h-110v618z" />
    <glyph glyph-name="J" unicode="J" horiz-adv-x="446" 
d="M97 -1q-41 8 -71 22l25 94q62 -23 123 -23q54 0 87 15q6 24 6 60v451h110v-462q0 -81 -49.5 -123t-148.5 -42q-41 0 -82 8z" />
    <glyph glyph-name="K" unicode="K" horiz-adv-x="613" 
d="M455 5.5q-21 12.5 -34 39.5l-69 154q-16 37 -37.5 52.5t-65.5 15.5h-68v-267h-110v618h110v-251h62q46 0 69.5 16t37.5 48l81 193l106 -37l-77 -174q-18 -39 -38 -59t-60 -33v-6q36 -11 53 -27.5t36 -51.5l85 -163l48 -9v-62q-34 -9 -74 -9q-34 0 -55 12.5z" />
    <glyph glyph-name="L" unicode="L" horiz-adv-x="474" 
d="M71 618h110v-516h273v-102h-383v618z" />
    <glyph glyph-name="M" unicode="M" horiz-adv-x="712" 
d="M88 618h139l125 -338h7l126 338h138l24 -618h-111l-11 311l1 156l-8 2l-120 -300h-85l-120 300l-8 -2l2 -156l-12 -311h-111z" />
    <glyph glyph-name="N" unicode="N" horiz-adv-x="642" 
d="M71 618h135l257 -478l8 2l-11 159v317h111v-618h-135l-258 478l-8 -2l11 -160v-316h-110v618z" />
    <glyph glyph-name="O" unicode="O" horiz-adv-x="638" 
d="M113.5 69.5q-65.5 77.5 -65.5 228.5q0 167 68 248.5t213 81.5q261 0 261 -307q0 -166 -68.5 -247.5t-213.5 -81.5q-129 0 -194.5 77.5zM440 111q40 91 40 193q0 78 -15 126t-51.5 72t-101.5 24q-74 0 -118 -18q-37 -84 -37 -193q0 -78 15.5 -126.5t52 -72t100.5 -23.5
q71 0 115 18z" />
    <glyph glyph-name="P" unicode="P" horiz-adv-x="545" 
d="M71 598q91 28 191 28q254 0 254 -212q0 -114 -65 -170.5t-201 -56.5h-69v-187h-110v598zM236 286q50 0 83.5 3t61.5 10q26 43 26 110q0 63 -35.5 90t-106.5 27q-51 0 -84 -8v-232h55z" />
    <glyph glyph-name="Q" unicode="Q" horiz-adv-x="640" 
d="M299.5 -132.5q-56.5 7.5 -76.5 16.5v54l22 69q-197 33 -197 293q0 165 68 246.5t213 81.5q132 0 196.5 -75t64.5 -226q0 -155 -59.5 -234t-185.5 -88q-9 -1 -20 -1v-54q32 -5 71 -5q91 0 150 13l15 -82q-55 -16 -164 -16q-41 0 -97.5 7.5zM440 122q40 89 40 187
q0 78 -15 125t-51.5 69.5t-101.5 22.5q-74 0 -118 -18q-37 -84 -37 -190q0 -77 15.5 -123t52 -68.5t100.5 -22.5q71 0 115 18z" />
    <glyph glyph-name="R" unicode="R" horiz-adv-x="599" 
d="M445 5q-20 12 -32 39l-56 119q-13 28 -23 42t-29 23t-51 9h-73v-237h-110v600q93 28 188 28q119 0 180 -45t61 -140q0 -121 -111 -174v-9q25 -10 42 -25t31 -40l65 -122l46 -9v-62q-28 -9 -73 -9q-35 0 -55 12zM337 331q27 16 40.5 40.5t13.5 62.5q0 53 -31.5 74.5
t-101.5 21.5q-46 0 -77 -7v-192h156z" />
    <glyph glyph-name="S" unicode="S" horiz-adv-x="543" 
d="M46 44l37 93q84 -45 190 -45q59 0 101 9q10 26 10 62q0 38 -24 57.5t-87 34.5q-67 16 -111 36.5t-70 57t-26 95.5q0 81 54 132.5t166 51.5q63 0 106.5 -11.5t80.5 -32.5v-36q0 -23 -5 -54t-12 -50h-85l-11 81q-40 6 -79 6q-55 0 -80 -19t-25 -62q0 -37 26.5 -56t98.5 -35
q101 -22 147 -61.5t46 -120.5q0 -84 -54 -134.5t-174 -50.5q-124 0 -220 52z" />
    <glyph glyph-name="T" unicode="T" horiz-adv-x="570" 
d="M230 516h-198v102h506v-102h-198v-516h-110v516z" />
    <glyph glyph-name="U" unicode="U" horiz-adv-x="626" 
d="M127 42.5q-58 51.5 -58 149.5v426h110v-404q0 -69 29.5 -95.5t101.5 -26.5q85 0 137 20v506h110v-487q0 -74 -68.5 -107t-185.5 -33q-118 0 -176 51.5z" />
    <glyph glyph-name="V" unicode="V" horiz-adv-x="611" 
d="M123.5 293.5q-55.5 169.5 -93.5 325.5l114 7q30 -132 74.5 -279.5t81.5 -241.5h10q38 94 82 240.5t75 280.5l114 -7q-39 -158 -94 -326.5t-110 -292.5h-142q-56 124 -111.5 293.5z" />
    <glyph glyph-name="W" unicode="W" horiz-adv-x="850" 
d="M32 609l116 11q25 -147 49 -260.5t53 -234.5h8q35 99 124 373q-4 17 -5 23q-10 41 -18 83l110 10q29 -138 56 -239.5t70 -249.5h11q58 247 99 495l112 -12q-61 -293 -157 -608h-125q-68 197 -106 330h-13l-8 -25q-70 -214 -104 -305h-115q-92 304 -157 609z" />
    <glyph glyph-name="X" unicode="X" horiz-adv-x="634" 
d="M38 15q69 134 188 289q-50 68 -100.5 147t-85.5 148l117 22q57 -121 150 -264h17q49 67 86.5 128.5t73.5 135.5l111 -21q-69 -136 -189 -290q50 -69 99 -147.5t83 -147.5l-114 -23q-32 69 -67 130t-83 136h-17q-55 -83 -90 -140t-67 -126z" />
    <glyph glyph-name="Y" unicode="Y" horiz-adv-x="630" 
d="M260 201h-22q-67 93 -116.5 186t-97.5 211l109 25q78 -201 168 -335h28q92 140 168 335l109 -25q-48 -118 -97.5 -211t-116.5 -186h-22v-201h-110v201z" />
    <glyph glyph-name="Z" unicode="Z" horiz-adv-x="578" 
d="M46 107l348 400v12h-229v-68h-92q-17 54 -17 118v49h464v-113l-344 -394v-14h248v70h92q17 -54 17 -118v-49h-487v107z" />
    <glyph glyph-name="bracketleft" unicode="[" horiz-adv-x="309" 
d="M71 708h170v-98h-63v-597h63v-98h-170v793z" />
    <glyph glyph-name="backslash" unicode="\" horiz-adv-x="444" 
d="M54 617l92 23l244 -639l-93 -24z" />
    <glyph glyph-name="bracketright" unicode="]" horiz-adv-x="309" 
d="M68 13h63v597h-63v98h170v-793h-170v98z" />
    <glyph glyph-name="asciicircum" unicode="^" horiz-adv-x="598" 
d="M64 299l183 318h105l182 -318l-94 -38l-138 260h-6l-136 -260z" />
    <glyph glyph-name="underscore" unicode="_" horiz-adv-x="583" 
d="M56 0h471v-80h-471v80z" />
    <glyph glyph-name="grave" unicode="`" horiz-adv-x="324" 
d="M13 891l131 15l85 -149l-88 -14z" />
    <glyph glyph-name="a" unicode="a" horiz-adv-x="492" 
d="M71 25q-35 33 -35 93q0 78 59.5 115t163.5 37q28 0 61 -3v55q0 43 -18 58.5t-64 15.5q-27 0 -59 -4l-10 -65h-85q-13 37 -13 76v25q36 21 86 35.5t102 14.5q81 0 125 -38t44 -109v-331h-93l-6 66h-8q-54 -74 -145 -74q-70 0 -105 33zM270.5 93q30.5 15 51.5 44v59
q-38 7 -83 7q-51 0 -79 -8q-7 -17 -9.5 -31t-2.5 -32q0 -29 14 -41.5t41 -12.5q37 0 67.5 15z" />
    <glyph glyph-name="b" unicode="b" horiz-adv-x="548" 
d="M70 19v652h108v-191l-5 -75h6q68 75 147 75q92 0 134 -65t42 -168q0 -124 -64 -189.5t-185 -65.5q-95 0 -183 27zM360 123.5q30 35.5 30 120.5q0 72 -23.5 105.5t-74.5 33.5q-66 0 -114 -53v-233q36 -9 85 -9q67 0 97 35.5z" />
    <glyph glyph-name="c" unicode="c" horiz-adv-x="468" 
d="M95 52.5q-52 61.5 -52 172.5q0 116 57 184.5t162 68.5q49 0 90.5 -11.5t69.5 -29.5v-36q0 -50 -13 -91h-83l-8 63q-24 7 -63 7q-56 0 -86 -11q-9 -25 -14.5 -64.5t-5.5 -77.5q0 -70 27.5 -103.5t96.5 -33.5q74 0 124 43l49 -77q-37 -32 -78.5 -48.5t-97.5 -16.5
q-123 0 -175 61.5z" />
    <glyph glyph-name="d" unicode="d" horiz-adv-x="548" 
d="M89.5 54q-43.5 62 -43.5 181q0 103 43 173t135 70q46 0 81 -16.5t64 -47.5h6l-5 76v181h108v-671h-99l-4 64h-8q-25 -34 -57.5 -53t-81.5 -19q-95 0 -138.5 62zM325 106q28 18 45 47v180q-25 25 -52 37t-62 12q-51 0 -74.5 -36.5t-23.5 -113.5q0 -78 21.5 -111t78.5 -33
q39 0 67 18z" />
    <glyph glyph-name="e" unicode="e" horiz-adv-x="503" 
d="M101 54.5q-55 61.5 -55 176.5q0 118 58 183.5t165 65.5q93 0 141 -52t48 -142q0 -18 -1 -27l-65 -64l-242 3q2 -115 125 -115q47 0 81.5 11t69.5 33l30 -82q-39 -25 -82 -38.5t-104 -13.5q-114 0 -169 61.5zM354 274q5 16 5 37q0 36 -24.5 57t-69.5 21q-63 0 -88.5 -28.5
t-27.5 -90.5z" />
    <glyph glyph-name="f" unicode="f" horiz-adv-x="367" 
d="M94 382h-68l14 89h54v77q0 37 28 68.5t65 50.5q38 7 80 7q53 0 101 -23l-29 -92q-21 9 -37 13t-36 4q-35 0 -59 -9q-7 -19 -7 -52v-44h116l-14 -89h-102v-382h-106v382z" />
    <glyph glyph-name="g" unicode="g" horiz-adv-x="532" 
d="M153.5 -185.5q-47.5 11.5 -77.5 29.5l23 86q31 -15 70 -24t76 -9q40 0 66 5t52 16v90l3 62h-8q-61 -66 -140 -66q-91 0 -131.5 61t-40.5 157q0 123 41.5 190.5t141.5 67.5q49 0 80.5 -20.5t52.5 -57.5h7l6 69h91v-519q0 -75 -57.5 -112t-155.5 -37q-52 0 -99.5 11.5z
M359 157v168q-46 58 -111 58q-52 0 -72 -35.5t-20 -113.5q0 -69 21.5 -101.5t69.5 -32.5q64 0 112 57z" />
    <glyph glyph-name="h" unicode="h" horiz-adv-x="548" 
d="M70 671h107v-195l-3 -76h6q66 80 162 80q70 0 105 -32.5t35 -103.5v-344h-108v372q-27 9 -63 9q-45 0 -76.5 -13t-57.5 -39v-329h-107v671z" />
    <glyph glyph-name="i" unicode="i" horiz-adv-x="249" 
d="M69 661h111v-114h-111v114zM71 471h106v-471h-106v471z" />
    <glyph glyph-name="j" unicode="j" horiz-adv-x="299" 
d="M123 661h111v-114h-111v114zM18 -192.5q-31 5.5 -56 15.5l27 92q25 -8 41.5 -11t37.5 -3q28 0 50 7q7 19 7 57v506h106v-514q0 -73 -39 -114t-117 -41q-26 0 -57 5.5z" />
    <glyph glyph-name="k" unicode="k" horiz-adv-x="523" 
d="M379.5 4q-17.5 11 -28.5 36l-39 89q-17 39 -38.5 56t-63.5 17h-38v-202h-106v671h106v-382h33q41 0 61 15.5t35 48.5l53 127l102 -37l-49 -113q-13 -32 -35 -51t-63 -31v-6q39 -10 58.5 -27t38.5 -53l46 -100l40 -9v-51q-32 -9 -64 -9q-31 0 -48.5 11z" />
    <glyph glyph-name="l" unicode="l" horiz-adv-x="298" 
d="M124.5 14.5q-24.5 16.5 -42.5 37.5t-18 38v581h106v-544q0 -25 5 -38h13l56 29l40 -53q-17 -28 -51 -49.5t-66 -22.5q-18 5 -42.5 21.5z" />
    <glyph glyph-name="m" unicode="m" horiz-adv-x="830" 
d="M70 471h92l8 -69h8q62 76 153 76q53 0 84.5 -18t44.5 -61h8q29 36 69.5 57.5t89.5 21.5q70 0 103 -30t33 -104v-344h-107v372q-30 8 -63 8q-75 0 -123 -46v-334h-107v374q-25 8 -60 8q-75 0 -126 -45v-337h-107v471z" />
    <glyph glyph-name="n" unicode="n" horiz-adv-x="548" 
d="M74 471h96l6 -73h8q65 82 162 82q69 0 102.5 -33t33.5 -103v-344h-107v372q-26 9 -61 9q-87 0 -133 -51v-330h-107v471z" />
    <glyph glyph-name="o" unicode="o" horiz-adv-x="532" 
d="M94.5 53.5q-48.5 61.5 -48.5 175.5q0 117 58.5 184.5t174.5 67.5q207 0 207 -245q0 -244 -233 -244q-110 0 -158.5 61.5zM360 97q20 45 20 126q0 61 -9.5 96t-36 51.5t-76.5 16.5t-86 -14q-20 -46 -20 -133q0 -60 10 -93t36 -48.5t76 -15.5t86 14z" />
    <glyph glyph-name="p" unicode="p" horiz-adv-x="547" 
d="M70 471h98l4 -64h8q60 73 147 73q92 0 132.5 -63t40.5 -182q0 -105 -42.5 -174t-135.5 -69q-85 0 -142 60h-6l3 -69v-170h-107v658zM368.5 123q22.5 38 22.5 115q0 78 -22.5 112.5t-82.5 34.5q-38 0 -65 -17.5t-43 -44.5v-191q26 -25 53.5 -36t60.5 -11q54 0 76.5 38z
" />
    <glyph glyph-name="q" unicode="q" horiz-adv-x="550" 
d="M367 -8l5 73h-6q-30 -35 -63.5 -54t-80.5 -19q-93 0 -134.5 64.5t-41.5 167.5q0 125 64 191t185 66q89 0 180 -28v-647h-108v186zM315.5 102.5q27.5 13.5 51.5 40.5v232q-36 9 -82 9q-68 0 -97.5 -35.5t-29.5 -121.5q0 -72 23.5 -105t73.5 -33q33 0 60.5 13.5z" />
    <glyph glyph-name="r" unicode="r" horiz-adv-x="393" 
d="M70 470h94l6 -94h10q23 46 63.5 72.5t85.5 26.5q8 0 20 -8t18 -16l-11 -91h-45q-46 0 -81.5 -17.5t-52.5 -54.5v-288h-107v470z" />
    <glyph glyph-name="s" unicode="s" horiz-adv-x="450" 
d="M40 31l31 84q33 -16 71 -25t75 -9q47 0 78 6q8 16 8 40q0 19 -6.5 29.5t-24.5 18t-56 15.5q-59 13 -95.5 29t-57 44t-20.5 74q0 62 47 102.5t141 40.5q91 0 155 -33v-32q0 -18 -3.5 -42.5t-9.5 -38.5h-82l-8 58q-32 4 -58 4q-42 0 -59.5 -12t-17.5 -40q0 -27 21.5 -42
t77.5 -26q58 -12 91 -26.5t51 -42t18 -73.5q0 -64 -47 -103t-145 -39q-103 0 -175 39z" />
    <glyph glyph-name="t" unicode="t" horiz-adv-x="403" 
d="M182 2q-33 20 -56 46.5t-23 57.5v276h-87l13 89h74v125h105v-125h157l-13 -89h-144v-241q0 -21 8 -43q24 -8 47 -8q20 0 45 6t46 16l22 -92q-22 -12 -50.5 -20.5t-58.5 -8.5q-46 0 -85 11z" />
    <glyph glyph-name="u" unicode="u" horiz-adv-x="538" 
d="M97.5 25q-33.5 33 -33.5 107v339h108v-374q28 -8 60 -8q82 0 128 52v330h108v-471h-95l-6 72h-8q-33 -39 -70 -59.5t-88 -20.5q-70 0 -103.5 33z" />
    <glyph glyph-name="v" unicode="v" horiz-adv-x="481" 
d="M92.5 226.5q-37.5 113.5 -70.5 240.5l103 7q57 -228 112 -375h6q61 164 114 375l101 -7q-62 -237 -160 -467h-118q-50 113 -87.5 226.5z" />
    <glyph glyph-name="w" unicode="w" horiz-adv-x="731" 
d="M33 469l105 7q27 -131 46.5 -215.5t42.5 -160.5h6q56 138 94 264q-9 33 -23 99l98 7q25 -120 46 -203t49 -169h6q48 135 105 378l103 -9q-38 -141 -73 -251.5t-76 -215.5h-120q-43 110 -75 221h-5q-24 -67 -62 -166l-21 -55h-110q-79 212 -136 469z" />
    <glyph glyph-name="x" unicode="x" horiz-adv-x="507" 
d="M24 7q53 109 139 224q-33 47 -70.5 111t-65.5 120l117 14q23 -54 46 -97.5t55 -95.5h14q40 59 63.5 99t47.5 94l112 -13q-57 -116 -141 -225q36 -51 72 -113.5t60 -117.5l-115 -15q-22 52 -44.5 95t-55.5 99h-13q-37 -55 -60.5 -97t-48.5 -97z" />
    <glyph glyph-name="y" unicode="y" horiz-adv-x="528" 
d="M52 -176v31q0 44 10 82h78v-42q14 -3 32 -3q11 0 37 4q24 60 46 125h-62q-57 133 -94.5 236t-65.5 213l110 7q52 -207 112 -359h32q47 152 95 359l110 -7q-41 -168 -89 -320t-95 -262q-16 -37 -62.5 -61t-88.5 -24q-60 0 -105 21z" />
    <glyph glyph-name="z" unicode="z" horiz-adv-x="467" 
d="M42 97l261 278v9h-152l-8 -58h-79q-13 39 -13 91v54h364v-107l-252 -270v-10h165l8 56h78q13 -41 13 -88v-52h-385v97z" />
    <glyph glyph-name="braceleft" unicode="{" horiz-adv-x="434" 
d="M170 86l4 81q3 51 -22 80t-96 29v82q71 0 96 28t22 80l-4 71q-6 112 47 159.5t171 47.5v-95q-81 0 -110 -12q-5 -25 -5 -57q0 -11 1 -46l4 -82q4 -54 -19.5 -86.5t-72.5 -46.5v-5q49 -15 72.5 -46.5t19.5 -87.5l-4 -92q-1 -34 -1 -45q0 -33 5 -57q29 -12 110 -12v-96
q-118 0 -171 48t-47 160z" />
    <glyph glyph-name="bar" unicode="|" horiz-adv-x="256" 
d="M78 694h100v-769h-100v769z" />
    <glyph glyph-name="braceright" unicode="}" horiz-adv-x="434" 
d="M46 -26q80 0 110 12q6 24 6 57q0 11 -2 45l-4 92q-3 56 19.5 88t71.5 46v5q-49 13 -71.5 46t-19.5 87l4 82q2 35 2 46q0 32 -6 57q-30 12 -110 12v95q118 0 171 -47.5t47 -159.5l-4 -71q-3 -52 22 -80t96 -28v-82q-71 0 -96 -29t-22 -80l4 -81q6 -112 -47 -160t-171 -48
v96z" />
    <glyph glyph-name="asciitilde" unicode="~" horiz-adv-x="463" 
d="M47 221q0 70 28.5 104t77.5 34q25 0 44 -7.5t42 -20.5q18 -10 29 -14.5t23 -4.5q20 0 31 13.5t13 40.5l82 -10q-2 -73 -29 -106t-77 -33q-26 0 -48 7t-47 22q-11 6 -22 11t-21 5q-20 0 -30 -12.5t-13 -40.5z" />
    <glyph glyph-name="exclamdown" unicode="&#xa1;" horiz-adv-x="260" 
d="M72 190l8 260h99l9 -260v-192h-116v192zM72 617h116v-105h-116v105z" />
    <glyph glyph-name="cent" unicode="&#xa2;" horiz-adv-x="469" 
d="M216 -5q-92 13 -131 72.5t-39 158.5q0 103 44 166.5t128 76.5v150h92v-149q66 -10 114 -39v-32q0 -46 -14 -85h-83l-10 54q-28 6 -61 6q-56 0 -86 -11q-8 -24 -13 -60.5t-5 -74.5q0 -71 26.5 -105.5t95.5 -34.5q71 0 125 43l48 -75q-59 -54 -134 -63v-137h-97v139z" />
    <glyph glyph-name="sterling" unicode="&#xa3;" horiz-adv-x="570" 
d="M46 4v77l66 13v143h-64v87h64v107q0 90 55.5 139t164.5 49q52 0 89.5 -7.5t78.5 -22.5l-24 -89q-38 10 -69 14t-73 4q-32 0 -55 -2t-50 -7q-9 -36 -9 -102v-83h205v-87h-205v-141q64 -6 114 -6q88 0 195 10v-96q-110 -11 -232 -11q-132 0 -251 11z" />
    <glyph glyph-name="currency" unicode="&#xa4;" horiz-adv-x="591" 
d="M408 291q0 51 -30 82t-81 31t-81 -31t-30 -82q0 -52 30 -81.5t81 -29.5q50 0 80.5 29.5t30.5 81.5zM60 117l68 69q-16 26 -23.5 51t-7.5 54t7.5 54t23.5 53l-69 70l63 60l68 -67q51 30 107 30q55 0 106 -30l69 67l63 -60l-68 -70q15 -28 23 -53t8 -54t-8 -54t-23 -51
l68 -69l-63 -61l-69 67q-46 -30 -106 -30t-107 30l-68 -67z" />
    <glyph glyph-name="yen" unicode="&#xa5;" horiz-adv-x="645" 
d="M268 76h-114v71h114v42h-114v73h55q-55 85 -95 161.5t-82 175.5l108 24q75 -181 169 -332h27q97 159 168 332l109 -24q-42 -98 -82.5 -174t-95.5 -163h56v-73h-113v-42h113v-71h-113v-76h-110v76z" />
    <glyph glyph-name="brokenbar" unicode="&#xa6;" horiz-adv-x="256" 
d="M78 664h100v-325h-100v325zM78 247h100v-322h-100v322z" />
    <glyph glyph-name="section" unicode="&#xa7;" horiz-adv-x="573" 
d="M405 229q0 23 -9 36.5t-32 23.5t-68 19l-30 6q-41 8 -67 16q-31 -23 -31 -70q0 -31 21 -49t81 -32q64 -16 106 -22q13 17 21 33.5t8 38.5zM92 -96l29 82q37 -12 68.5 -17t72.5 -5q45 0 83 9q7 24 7 46q0 21 -8 32t-28 18t-65 18q-96 23 -144.5 57.5t-48.5 102.5
q0 41 19.5 70.5t58.5 51.5v7q-22 20 -34 42.5t-12 52.5q0 68 52.5 111.5t149.5 43.5q55 0 95 -11.5t73 -28.5v-25q0 -20 -4 -47t-9 -43h-89l-12 65q-34 4 -60 4q-47 0 -67 -14t-20 -46q0 -22 10 -36t34 -24t71 -20q66 -14 109 -31.5t67.5 -47t24.5 -75.5q0 -87 -85 -128v-6
q31 -31 31 -85q0 -68 -51 -111t-153 -43q-45 0 -82.5 7t-82.5 24z" />
    <glyph glyph-name="dieresis" unicode="&#xa8;" horiz-adv-x="370" 
d="M212 512q0 27 15 41t41 14q27 0 41.5 -14t14.5 -41q0 -24 -14.5 -38t-41.5 -14q-26 0 -41 14t-15 38zM46 512q0 27 15 41t41 14q27 0 42 -14t15 -41q0 -24 -15 -38t-42 -14q-26 0 -41 14t-15 38z" />
    <glyph glyph-name="copyright" unicode="&#xa9;" horiz-adv-x="736" 
d="M202 299q0 90 44 140.5t122 50.5q37 0 69.5 -8.5t50.5 -20.5v-21q0 -13 -2.5 -32t-8.5 -30h-59l-5 34q-36 6 -53 6q-30 0 -55 -6q-12 -23 -18.5 -50.5t-6.5 -63.5q0 -57 21 -81t71 -24q30 0 57 7.5t46 20.5l27 -60q-23 -19 -56.5 -29t-73.5 -10q-84 0 -127 46t-43 131z
M627 308q0 121 -69 191t-190 70q-80 0 -138 -32.5t-89.5 -90.5t-31.5 -138q0 -79 31.5 -137.5t89.5 -90.5t138 -32q121 0 190 70t69 190zM56 308q0 90 39 160.5t110 110.5t163 40t163.5 -40t110 -110.5t38.5 -160.5q0 -89 -38.5 -159.5t-110 -110.5t-163.5 -40t-163 40
t-110 110.5t-39 159.5z" />
    <glyph glyph-name="ordfeminine" unicode="&#xaa;" horiz-adv-x="369" 
d="M243 369v32q-23 3 -52 3q-35 0 -56 -5q-7 -18 -7 -30q0 -33 37 -33q23 0 42 7.5t36 25.5zM39 359q0 55 40.5 82.5t115.5 27.5q23 0 44 -3v35q0 26 -11 36.5t-37 10.5q-24 0 -49 -6l-7 -40h-61q-11 31 -11 59v22q28 17 65 26.5t74 9.5q60 0 92.5 -29t32.5 -80v-240h-75
l-3 42h-6q-36 -46 -96 -46q-51 0 -79.5 25t-28.5 68z" />
    <glyph glyph-name="guillemetleft" unicode="&#xab;" horiz-adv-x="517" 
d="M236 277l144 195l87 -41l-112 -152v-6l112 -152l-87 -41zM47 277l147 200l86 -40l-114 -158v-6l114 -156l-86 -41z" />
    <glyph glyph-name="logicalnot" unicode="&#xac;" horiz-adv-x="478" 
d="M328 253h-282v97h386v-207h-104v110z" />
    <glyph glyph-name="softhyphen" unicode="&#xad;" horiz-adv-x="373" 
d="M62 299h250v-99h-250v99z" />
    <glyph glyph-name="registered" unicode="&#xae;" horiz-adv-x="736" 
d="M338 334q48 0 65 11t17 42q0 25 -15.5 37t-50.5 12q-24 0 -42 -5v-97h26zM425 168l-29 66q-7 17 -17 25.5t-27 10.5h-39v-133h-77v349q59 16 113 16q75 0 111.5 -27.5t36.5 -85.5q0 -36 -15.5 -62t-44.5 -39v-6q9 -4 15.5 -11t14.5 -20l33 -65l26 -6v-40q-2 -1 -14 -4
t-27 -3q-22 0 -36.5 8.5t-23.5 26.5zM627 308q0 121 -69 191t-190 70q-80 0 -138 -32.5t-89.5 -90.5t-31.5 -138q0 -79 31.5 -137.5t89.5 -90.5t138 -32q121 0 190 70t69 190zM56 308q0 90 39 160.5t110 110.5t163 40t163.5 -40t110 -110.5t38.5 -160.5q0 -89 -38.5 -159.5
t-110 -110.5t-163.5 -40t-163 40t-110 110.5t-39 159.5z" />
    <glyph glyph-name="macron" unicode="&#xaf;" horiz-adv-x="406" 
d="M37 587h331v-97h-331v97z" />
    <glyph glyph-name="degree" unicode="&#xb0;" horiz-adv-x="414" 
d="M295 373q12 31 12 70q0 54 -19 72.5t-70 18.5q-38 0 -74 -10q-10 -30 -10 -70q0 -53 19 -72t69 -19q37 0 73 10zM41 444q0 83 51 128t141 45q167 0 167 -164q0 -82 -50.5 -127t-141.5 -45q-167 0 -167 163z" />
    <glyph glyph-name="plusminus" unicode="&#xb1;" horiz-adv-x="608" 
d="M81 80h456v-80h-456v80zM251 301h-180v92h180v164h104v-164h182v-92h-182v-171h-104v171z" />
    <glyph glyph-name="acute" unicode="&#xb4;" horiz-adv-x="323" 
d="M43 753l83 153l125 -13l-129 -154z" />
    <glyph glyph-name="mu" unicode="&#xb5;" horiz-adv-x="539" 
d="M70 471h107v-375q24 -9 61 -9q42 0 72 13.5t57 43.5v327h106v-471h-95l-6 66h-8q-31 -40 -57 -57t-68 -17q-36 0 -61 20h-7v-225h-101v684z" />
    <glyph glyph-name="paragraph" unicode="&#xb6;" horiz-adv-x="673" 
d="M272 248h-19q-90 0 -141 46t-51 136q0 92 51 140.5t146 48.5h263v-739h-96v650h-58v-650h-95v368z" />
    <glyph glyph-name="periodcentered" unicode="&#xb7;" horiz-adv-x="368" 
d="M113 297q0 30 20.5 50t51.5 20q29 0 50 -20t21 -50t-20.5 -49.5t-50.5 -19.5q-31 0 -51.5 19.5t-20.5 49.5z" />
    <glyph glyph-name="cedilla" unicode="&#xb8;" horiz-adv-x="322" 
d="M73 -210l22 63q29 -11 66 -11q28 0 41 3q4 8 4 22q0 26 -43 26q-24 0 -41 -8l-46 47l73 84l70 -14l-40 -54q15 7 40 7q40 0 60.5 -22.5t20.5 -62.5q0 -99 -125 -99q-61 0 -102 19z" />
    <glyph glyph-name="ordmasculine" unicode="&#xba;" horiz-adv-x="388" 
d="M249 343q11 29 11 86q0 59 -13 81t-55 22q-31 0 -52 -6q-11 -36 -11 -86q0 -58 13.5 -80.5t54.5 -22.5q31 0 52 6zM38 431q0 88 41 135t126 47q74 0 109.5 -46t35.5 -129q0 -87 -41 -133.5t-124 -46.5q-74 0 -110.5 45.5t-36.5 127.5z" />
    <glyph glyph-name="guillemetright" unicode="&#xbb;" horiz-adv-x="517" 
d="M50 121l112 152v6l-112 152l87 41l144 -195l-144 -197zM237 117l116 156v6l-116 158l87 40l146 -200l-146 -201z" />
    <glyph glyph-name="questiondown" unicode="&#xbf;" horiz-adv-x="540" 
d="M56 56q0 48 14 79.5t50 57.5l106 74q9 6 12.5 14.5t3.5 26.5v54h108v-75q0 -23 -6 -36t-20 -24l-159 -117v-50q0 -39 24.5 -54t78.5 -15q68 0 108 13v64h90q10 -39 14 -96v-31q-35 -21 -93.5 -36t-120.5 -15q-107 0 -158.5 43t-51.5 123zM239 520h113v-102h-113v102z" />
    <glyph glyph-name="Agrave" unicode="&#xc0;" horiz-adv-x="624" 
d="M401 286q-48 160 -72 231h-31q-35 -96 -75 -231h178zM31 8q41 154 93.5 318t102.5 293h172q50 -129 101.5 -293t92.5 -318l-115 -8l-18 71q-20 78 -31 117h-234q-30 -109 -48 -188zM149 827l131 14l84 -149l-86 -14z" />
    <glyph glyph-name="Aacute" unicode="&#xc1;" horiz-adv-x="624" 
d="M401 286q-48 160 -72 231h-31q-35 -96 -75 -231h178zM31 8q41 154 93.5 318t102.5 293h172q50 -129 101.5 -293t92.5 -318l-115 -8l-18 71q-20 78 -31 117h-234q-30 -109 -48 -188zM268 693l82 151l125 -11l-128 -154z" />
    <glyph glyph-name="Acircumflex" unicode="&#xc2;" horiz-adv-x="624" 
d="M401 286q-48 160 -72 231h-31q-35 -96 -75 -231h178zM31 8q41 154 93.5 318t102.5 293h172q50 -129 101.5 -293t92.5 -318l-115 -8l-18 71q-20 78 -31 117h-234q-30 -109 -48 -188zM168 691l97 137h95l97 -137l-65 -13l-77 70h-6l-79 -70z" />
    <glyph glyph-name="Atilde" unicode="&#xc3;" horiz-adv-x="624" 
d="M401 286q-48 160 -72 231h-31q-35 -96 -75 -231h178zM31 8q41 154 93.5 318t102.5 293h172q50 -129 101.5 -293t92.5 -318l-115 -8l-18 71q-20 78 -31 117h-234q-30 -109 -48 -188zM150 697q2 56 23.5 84t67.5 28q17 0 31.5 -6t36.5 -19q10 -6 21.5 -11t20.5 -5
q19 0 26.5 12t11.5 34l69 -20q-3 -56 -24 -84t-65 -28q-18 0 -32.5 5.5t-33.5 16.5q-15 9 -25.5 14t-22.5 5q-17 0 -25.5 -12.5t-10.5 -34.5z" />
    <glyph glyph-name="Adieresis" unicode="&#xc4;" horiz-adv-x="624" 
d="M401 286q-48 160 -72 231h-31q-35 -96 -75 -231h178zM172 734q0 27 15 41t41 14q27 0 42 -14t15 -41q0 -24 -15 -38t-42 -14q-26 0 -41 14t-15 38zM338 734q0 27 15 41t41 14q27 0 42 -14t15 -41q0 -24 -15 -38t-42 -14q-26 0 -41 14t-15 38zM31 8q41 154 93.5 318
t102.5 293h172q50 -129 101.5 -293t92.5 -318l-115 -8l-18 71q-20 78 -31 117h-234q-30 -109 -48 -188z" />
    <glyph glyph-name="Aring" unicode="&#xc5;" horiz-adv-x="624" 
d="M401 286q-48 160 -72 231h-31q-35 -96 -75 -231h178zM358 748q3 18 3 29q0 20 -11.5 32.5t-34.5 12.5q-32 0 -47 -5q-6 -15 -6 -36q0 -18 13 -28t34 -10q32 0 49 5zM31 8q41 154 93.5 318t102.5 293h172q50 -129 101.5 -293t92.5 -318l-115 -8l-18 71q-20 78 -31 117
h-234q-30 -109 -48 -188zM187 779q0 44 35 74.5t99 30.5q54 0 85 -28t31 -75q0 -44 -36.5 -72t-99.5 -28q-54 0 -84 26t-30 72z" />
    <glyph glyph-name="AE" unicode="&#xc6;" horiz-adv-x="943" 
d="M457 288v225h-69q-45 -76 -124 -225h193zM457 103v85h-244l-95 -190l-104 28q139 288 313 593h552v-101h-312v-162h275v-97h-275v-159q59 -10 127 -10q96 0 174 18l20 -97q-76 -21 -198 -21q-110 0 -171.5 25t-61.5 88z" />
    <glyph glyph-name="Ccedilla" unicode="&#xc7;" horiz-adv-x="590" 
d="M212 -210l22 63q29 -11 66 -11q28 0 41 3q5 8 5 22q0 26 -44 26q-24 0 -41 -8l-45 47l54 64q-220 28 -220 294q0 154 69 246.5t204 92.5q61 0 115 -13t86 -32v-50q0 -23 -3 -49t-10 -45h-83l-10 78q-38 9 -100 9q-57 0 -116 -14q-42 -90 -42 -216q0 -109 40.5 -156.5
t136.5 -47.5q51 0 95.5 12t74.5 33l45 -85q-54 -43 -150 -57q-18 -3 -53 -5l-31 -43q15 7 40 7q40 0 60.5 -22.5t20.5 -62.5q0 -99 -125 -99q-61 0 -102 19z" />
    <glyph glyph-name="Egrave" unicode="&#xc8;" horiz-adv-x="556" 
d="M71 104v515h421v-101h-312v-162h274v-97h-274v-158q60 -10 127 -10q98 0 174 19l20 -97q-76 -22 -198 -22q-111 0 -171.5 25t-60.5 88zM144 828l131 14l84 -149l-87 -14z" />
    <glyph glyph-name="Eacute" unicode="&#xc9;" horiz-adv-x="556" 
d="M71 104v515h421v-101h-312v-162h274v-97h-274v-158q60 -10 127 -10q98 0 174 19l20 -97q-76 -22 -198 -22q-111 0 -171.5 25t-60.5 88zM227 693l82 151l125 -12l-129 -153z" />
    <glyph glyph-name="Ecircumflex" unicode="&#xca;" horiz-adv-x="556" 
d="M71 104v515h421v-101h-312v-162h274v-97h-274v-158q60 -10 127 -10q98 0 174 19l20 -97q-76 -22 -198 -22q-111 0 -171.5 25t-60.5 88zM135 690l98 137h95l96 -137l-64 -12l-77 69h-5l-80 -69z" />
    <glyph glyph-name="Edieresis" unicode="&#xcb;" horiz-adv-x="556" 
d="M147 734q0 27 15 41t41 14q27 0 42 -14t15 -41q0 -24 -15 -38t-42 -14q-26 0 -41 14t-15 38zM312 734q0 27 15 41t42 14q28 0 42 -14t14 -41q0 -24 -14 -38t-42 -14q-27 0 -42 14t-15 38zM71 104v515h421v-101h-312v-162h274v-97h-274v-158q60 -10 127 -10q98 0 174 19
l20 -97q-76 -22 -198 -22q-111 0 -171.5 25t-60.5 88z" />
    <glyph glyph-name="Igrave" unicode="&#xcc;" horiz-adv-x="259" 
d="M75 619h110v-619h-110v619zM-31 828l131 14l85 -149l-88 -14z" />
    <glyph glyph-name="Iacute" unicode="&#xcd;" horiz-adv-x="259" 
d="M74 619h110v-619h-110v619zM82 693l83 151l126 -11l-130 -154z" />
    <glyph glyph-name="Icircumflex" unicode="&#xce;" horiz-adv-x="258" 
d="M74 619h110v-619h-110v619zM-16 691l98 137h93l98 -137l-65 -13l-76 70h-6l-80 -70z" />
    <glyph glyph-name="Idieresis" unicode="&#xcf;" horiz-adv-x="258" 
d="M-10 734q0 27 15 41t42 14q26 0 41 -14t15 -41q0 -24 -15 -38t-41 -14t-41.5 14t-15.5 38zM156 734q0 27 15 41t41 14q27 0 41.5 -14t14.5 -41q0 -24 -14.5 -38t-41.5 -14q-26 0 -41 14t-15 38zM74 619h110v-619h-110v619z" />
    <glyph glyph-name="Eth" unicode="&#xd0;" horiz-adv-x="664" 
d="M296 101q113 0 186 21q13 35 21 83.5t8 102.5q0 79 -17.5 126.5t-58 70.5t-110.5 23q-40 0 -85 -7v-154h92v-89h-92v-177h56zM131 278h-78v89h78v240q89 22 192 22q160 0 229.5 -79.5t69.5 -230.5q0 -106 -29 -174.5t-102.5 -106.5t-203.5 -38h-156v278z" />
    <glyph glyph-name="Ntilde" unicode="&#xd1;" horiz-adv-x="643" 
d="M71 619h136l256 -479l8 2l-11 159v318h112v-619h-135l-259 479l-8 -2l11 -160v-317h-110v619zM167 693q2 57 23.5 85t67.5 28q16 0 30.5 -6t36.5 -18q12 -8 23 -13t21 -5q19 0 26 12.5t10 35.5l69 -21q-2 -57 -23 -84.5t-66 -27.5q-16 0 -31 6t-34 17q-16 9 -26.5 13.5
t-21.5 4.5q-18 0 -26 -13t-9 -35z" />
    <glyph glyph-name="Ograve" unicode="&#xd2;" horiz-adv-x="638" 
d="M440 111q40 91 40 193q0 78 -15 126.5t-51.5 72.5t-101.5 24q-74 0 -117 -18q-38 -85 -38 -193q0 -78 15.5 -127t52 -72.5t101.5 -23.5q71 0 114 18zM48 298q0 168 68.5 249.5t212.5 81.5q261 0 261 -308q0 -165 -68 -247t-214 -82q-129 0 -194.5 77.5t-65.5 228.5z
M168 828l131 14l85 -149l-88 -14z" />
    <glyph glyph-name="Oacute" unicode="&#xd3;" horiz-adv-x="638" 
d="M440 111q40 91 40 193q0 78 -15 126.5t-51.5 72.5t-101.5 24q-74 0 -117 -18q-38 -85 -38 -193q0 -78 15.5 -127t52 -72.5t101.5 -23.5q71 0 114 18zM48 298q0 168 68.5 249.5t212.5 81.5q261 0 261 -308q0 -165 -68 -247t-214 -82q-129 0 -194.5 77.5t-65.5 228.5z
M269 692l83 152l126 -12l-130 -154z" />
    <glyph glyph-name="Ocircumflex" unicode="&#xd4;" horiz-adv-x="638" 
d="M440 111q40 91 40 193q0 78 -15 126.5t-51.5 72.5t-101.5 24q-74 0 -117 -18q-38 -85 -38 -193q0 -78 15.5 -127t52 -72.5t101.5 -23.5q71 0 114 18zM48 298q0 168 68.5 249.5t212.5 81.5q261 0 261 -308q0 -165 -68 -247t-214 -82q-129 0 -194.5 77.5t-65.5 228.5z
M177 690l99 137h93l98 -137l-65 -12l-76 69h-7l-79 -69z" />
    <glyph glyph-name="Otilde" unicode="&#xd5;" horiz-adv-x="638" 
d="M440 111q40 91 40 193q0 78 -15 126.5t-51.5 72.5t-101.5 24q-74 0 -117 -18q-38 -85 -38 -193q0 -78 15.5 -127t52 -72.5t101.5 -23.5q71 0 114 18zM48 298q0 168 68.5 249.5t212.5 81.5q261 0 261 -308q0 -165 -68 -247t-214 -82q-129 0 -194.5 77.5t-65.5 228.5z
M168 692q2 56 24 84t67 28q17 0 31.5 -6t35.5 -18q11 -7 22.5 -12t20.5 -5q19 0 27 12t11 34l69 -20q-2 -56 -23.5 -84.5t-65.5 -28.5q-18 0 -32.5 6t-33.5 17q-15 9 -25.5 13.5t-21.5 4.5q-19 0 -27 -12t-10 -34z" />
    <glyph glyph-name="Odieresis" unicode="&#xd6;" horiz-adv-x="638" 
d="M440 111q40 91 40 193q0 78 -15 126.5t-51.5 72.5t-101.5 24q-74 0 -117 -18q-38 -85 -38 -193q0 -78 15.5 -127t52 -72.5t101.5 -23.5q71 0 114 18zM184 734q0 27 15 41t40 14q27 0 42 -14t15 -41q0 -24 -15 -38t-42 -14q-25 0 -40 14t-15 38zM348 734q0 27 15 41t43 14
q26 0 40.5 -14t14.5 -41q0 -24 -14.5 -38t-40.5 -14q-28 0 -43 14t-15 38zM48 298q0 168 68.5 249.5t212.5 81.5q261 0 261 -308q0 -165 -68 -247t-214 -82q-129 0 -194.5 77.5t-65.5 228.5z" />
    <glyph glyph-name="multiply" unicode="&#xd7;" horiz-adv-x="484" 
d="M46 181l137 127l-137 128l62 57l135 -131l132 131l62 -57l-135 -128l135 -127l-62 -58l-132 131l-135 -131z" />
    <glyph glyph-name="Oslash" unicode="&#xd8;" horiz-adv-x="638" 
d="M440 110q40 93 40 194q0 118 -38 169l-171 -374q26 -7 55 -7q71 0 114 18zM359 521q-21 6 -47 6q-74 0 -117 -18q-38 -85 -38 -193q0 -114 33 -164zM95 -57l45 99q-92 75 -92 256q0 168 68.5 249.5t212.5 81.5q42 0 76 -9l32 70l94 -23l-39 -86q98 -72 98 -260
q0 -167 -68 -248.5t-214 -81.5q-48 0 -81 11l-37 -83z" />
    <glyph glyph-name="Ugrave" unicode="&#xd9;" horiz-adv-x="627" 
d="M69 192v427h110v-405q0 -68 29.5 -95t101.5 -27q86 0 138 20v507h110v-488q0 -74 -69 -107t-186 -33q-118 0 -176 51.5t-58 149.5zM160 828l131 14l85 -149l-88 -14z" />
    <glyph glyph-name="Uacute" unicode="&#xda;" horiz-adv-x="627" 
d="M69 192v427h110v-405q0 -68 29.5 -95t101.5 -27q86 0 138 20v507h110v-488q0 -74 -69 -107t-186 -33q-118 0 -176 51.5t-58 149.5zM251 692l84 152l124 -12l-129 -154z" />
    <glyph glyph-name="Ucircumflex" unicode="&#xdb;" horiz-adv-x="627" 
d="M69 192v427h110v-405q0 -68 29.5 -95t101.5 -27q86 0 138 20v507h110v-488q0 -74 -69 -107t-186 -33q-118 0 -176 51.5t-58 149.5zM168 690l98 137h94l98 -137l-65 -12l-76 69h-7l-79 -69z" />
    <glyph glyph-name="Udieresis" unicode="&#xdc;" horiz-adv-x="627" 
d="M175 734q0 27 15.5 41t40.5 14q27 0 42 -14t15 -41q0 -24 -15 -38t-42 -14q-25 0 -40.5 14t-15.5 38zM340 734q0 27 15 41t43 14q27 0 41 -14t14 -41q0 -24 -14 -38t-41 -14q-28 0 -43 14t-15 38zM69 192v427h110v-405q0 -68 29.5 -95t101.5 -27q86 0 138 20v507h110
v-488q0 -74 -69 -107t-186 -33q-118 0 -176 51.5t-58 149.5z" />
    <glyph glyph-name="Yacute" unicode="&#xdd;" horiz-adv-x="630" 
d="M261 201h-23q-67 93 -116.5 186t-97.5 212l109 24q78 -201 169 -335h28q92 141 167 335l109 -24q-48 -119 -97 -212t-116 -186h-22v-201h-110v201zM262 692l82 152l126 -12l-129 -154z" />
    <glyph glyph-name="Thorn" unicode="&#xde;" horiz-adv-x="506" 
d="M259 232q54 0 77.5 21t23.5 68q0 48 -24 67.5t-77 19.5h-78v-176h78zM71 619h110v-115h79q100 0 155 -46.5t55 -136.5q0 -92 -55 -138t-155 -46h-79v-137h-110v619z" />
    <glyph glyph-name="germandbls" unicode="&#xdf;" horiz-adv-x="568" 
d="M215 5l14 94q36 -11 77 -11q28 0 44.5 1.5t31.5 6.5q15 31 15 87q0 58 -36 87t-122 29v99q65 0 92.5 22.5t27.5 68.5q0 40 -24 57.5t-71 17.5q-49 0 -88 -8v-556h-108v481q0 90 54 136.5t148 46.5q92 0 144.5 -43.5t52.5 -119.5q0 -54 -26.5 -88.5t-82.5 -53.5v-7
q76 -19 111.5 -61.5t35.5 -113.5q0 -91 -50 -138.5t-145 -47.5q-50 0 -95 14z" />
    <glyph glyph-name="agrave" unicode="&#xe0;" horiz-adv-x="492" 
d="M323 137v60q-39 6 -84 6q-51 0 -79 -7q-7 -18 -9.5 -32t-2.5 -32q0 -29 14 -41.5t41 -12.5q37 0 68 15t52 44zM36 118q0 79 59.5 115.5t163.5 36.5q28 0 61 -2v54q0 44 -18 59.5t-64 15.5q-26 0 -59 -5l-10 -64h-85q-13 36 -13 75v26q36 21 86 35.5t102 14.5
q81 0 125 -38.5t44 -109.5v-331h-93l-6 66h-7q-55 -74 -146 -74q-70 0 -105 33t-35 93zM113 683l131 14l84 -149l-86 -14z" />
    <glyph glyph-name="aacute" unicode="&#xe1;" horiz-adv-x="492" 
d="M323 137v60q-39 6 -84 6q-51 0 -79 -7q-7 -18 -9.5 -32t-2.5 -32q0 -29 14 -41.5t41 -12.5q37 0 68 15t52 44zM36 118q0 79 59.5 115.5t163.5 36.5q28 0 61 -2v54q0 44 -18 59.5t-64 15.5q-26 0 -59 -5l-10 -64h-85q-13 36 -13 75v26q36 21 86 35.5t102 14.5
q81 0 125 -38.5t44 -109.5v-331h-93l-6 66h-7q-55 -74 -146 -74q-70 0 -105 33t-35 93zM203 548l82 153l125 -13l-128 -154z" />
    <glyph glyph-name="acircumflex" unicode="&#xe2;" horiz-adv-x="492" 
d="M323 137v60q-39 6 -84 6q-51 0 -79 -7q-7 -18 -9.5 -32t-2.5 -32q0 -29 14 -41.5t41 -12.5q37 0 68 15t52 44zM36 118q0 79 59.5 115.5t163.5 36.5q28 0 61 -2v54q0 44 -18 59.5t-64 15.5q-26 0 -59 -5l-10 -64h-85q-13 36 -13 75v26q36 21 86 35.5t102 14.5
q81 0 125 -38.5t44 -109.5v-331h-93l-6 66h-7q-55 -74 -146 -74q-70 0 -105 33t-35 93zM105 546l98 137h94l98 -137l-65 -14l-77 70h-6l-79 -70z" />
    <glyph glyph-name="atilde" unicode="&#xe3;" horiz-adv-x="492" 
d="M323 137v60q-39 6 -84 6q-51 0 -79 -7q-7 -18 -9.5 -32t-2.5 -32q0 -29 14 -41.5t41 -12.5q37 0 68 15t52 44zM36 118q0 79 59.5 115.5t163.5 36.5q28 0 61 -2v54q0 44 -18 59.5t-64 15.5q-26 0 -59 -5l-10 -64h-85q-13 36 -13 75v26q36 21 86 35.5t102 14.5
q81 0 125 -38.5t44 -109.5v-331h-93l-6 66h-7q-55 -74 -146 -74q-70 0 -105 33t-35 93zM99 552q3 57 24 84.5t67 27.5q16 0 30.5 -6t36.5 -17q11 -8 23 -13t20 -5q19 0 26.5 12.5t10.5 34.5l69 -20q-1 -57 -22 -84.5t-67 -27.5q-17 0 -31 6t-33 17q-17 9 -27.5 13.5
t-21.5 4.5q-18 0 -26 -13t-10 -35z" />
    <glyph glyph-name="adieresis" unicode="&#xe4;" horiz-adv-x="492" 
d="M323 137v60q-39 6 -84 6q-51 0 -79 -7q-7 -18 -9.5 -32t-2.5 -32q0 -29 14 -41.5t41 -12.5q37 0 68 15t52 44zM117 590q0 26 15 40t41 14q27 0 42 -14t15 -40t-15 -39t-42 -13q-26 0 -41 13t-15 39zM283 590q0 26 15 40t41 14q27 0 41.5 -14t14.5 -40t-14.5 -39
t-41.5 -13q-26 0 -41 13t-15 39zM36 118q0 79 59.5 115.5t163.5 36.5q28 0 61 -2v54q0 44 -18 59.5t-64 15.5q-26 0 -59 -5l-10 -64h-85q-13 36 -13 75v26q36 21 86 35.5t102 14.5q81 0 125 -38.5t44 -109.5v-331h-93l-6 66h-7q-55 -74 -146 -74q-70 0 -105 33t-35 93z" />
    <glyph glyph-name="aring" unicode="&#xe5;" horiz-adv-x="492" 
d="M323 137v60q-39 6 -84 6q-51 0 -79 -7q-7 -18 -9.5 -32t-2.5 -32q0 -29 14 -41.5t41 -12.5q37 0 68 15t52 44zM307 602q5 19 5 30q0 20 -12.5 32.5t-34.5 12.5q-32 0 -48 -5q-4 -15 -4 -36q0 -17 12 -27.5t33 -10.5q34 0 49 4zM36 118q0 79 59.5 115.5t163.5 36.5
q28 0 61 -2v54q0 44 -18 59.5t-64 15.5q-26 0 -59 -5l-10 -64h-85q-13 36 -13 75v26q36 21 86 35.5t102 14.5q81 0 125 -38.5t44 -109.5v-331h-93l-6 66h-7q-55 -74 -146 -74q-70 0 -105 33t-35 93zM136 632q0 46 35 76.5t101 30.5q53 0 83.5 -28t30.5 -75q0 -44 -36 -72
t-98 -28q-56 0 -86 26t-30 70z" />
    <glyph glyph-name="ae" unicode="&#xe6;" horiz-adv-x="785" 
d="M330 126v71q-37 6 -91 6q-51 0 -79 -7q-7 -18 -9.5 -32t-2.5 -32q0 -29 15 -41.5t45 -12.5q71 0 122 48zM637 274q5 16 5 37q0 37 -24.5 57.5t-70.5 20.5q-61 0 -85 -28t-26 -91zM36 118q0 79 59.5 115.5t163.5 36.5q36 0 69 -2v54q0 42 -21.5 58.5t-68.5 16.5
q-26 0 -59 -5l-10 -64h-85q-13 36 -13 75v26q36 21 85.5 35.5t101.5 14.5q49 0 85.5 -15.5t58.5 -44.5q54 61 152 61q93 0 139.5 -51t46.5 -141q0 -19 -1 -29l-64 -63l-239 2q2 -57 30.5 -84.5t90.5 -27.5q48 0 83 10.5t68 32.5l31 -83q-40 -25 -82.5 -38.5t-104.5 -13.5
q-118 0 -169 75q-39 -38 -83 -57.5t-112 -19.5q-71 0 -111.5 34t-40.5 92z" />
    <glyph glyph-name="ccedilla" unicode="&#xe7;" horiz-adv-x="468" 
d="M152 -210l21 63q30 -11 67 -11q29 0 41 3q4 8 4 22q0 26 -44 26q-25 0 -41 -8l-45 47l55 64q-90 14 -128.5 73t-38.5 157q0 115 57 184t162 69q49 0 90.5 -11.5t69.5 -29.5v-37q0 -50 -12 -91h-84l-7 63q-25 7 -64 7q-55 0 -86 -11q-9 -25 -14.5 -64t-5.5 -77
q0 -71 27.5 -104.5t96.5 -33.5q74 0 124 43l49 -77q-33 -29 -70 -45t-86 -19l-33 -44q17 7 40 7q40 0 60 -22.5t20 -62.5q0 -99 -123 -99q-61 0 -102 19z" />
    <glyph glyph-name="egrave" unicode="&#xe8;" horiz-adv-x="503" 
d="M354 274q5 16 5 37q0 37 -24.5 57.5t-69.5 20.5q-62 0 -87.5 -28.5t-28.5 -90.5zM46 231q0 118 58 183.5t165 65.5q94 0 141.5 -51.5t47.5 -141.5q0 -19 -1 -28l-64 -63l-243 2q2 -115 125 -115q48 0 82.5 11.5t68.5 32.5l30 -81q-39 -26 -81.5 -39.5t-104.5 -13.5
q-114 0 -169 61.5t-55 176.5zM109 683l131 14l84 -149l-87 -15z" />
    <glyph glyph-name="eacute" unicode="&#xe9;" horiz-adv-x="503" 
d="M354 274q5 16 5 37q0 37 -24.5 57.5t-69.5 20.5q-62 0 -87.5 -28.5t-28.5 -90.5zM46 231q0 118 58 183.5t165 65.5q94 0 141.5 -51.5t47.5 -141.5q0 -19 -1 -28l-64 -63l-243 2q2 -115 125 -115q48 0 82.5 11.5t68.5 32.5l30 -81q-39 -26 -81.5 -39.5t-104.5 -13.5
q-114 0 -169 61.5t-55 176.5zM205 548l83 152l126 -12l-130 -155z" />
    <glyph glyph-name="ecircumflex" unicode="&#xea;" horiz-adv-x="503" 
d="M354 274q5 16 5 37q0 37 -24.5 57.5t-69.5 20.5q-62 0 -87.5 -28.5t-28.5 -90.5zM46 231q0 118 58 183.5t165 65.5q94 0 141.5 -51.5t47.5 -141.5q0 -19 -1 -28l-64 -63l-243 2q2 -115 125 -115q48 0 82.5 11.5t68.5 32.5l30 -81q-39 -26 -81.5 -39.5t-104.5 -13.5
q-114 0 -169 61.5t-55 176.5zM119 546l98 137h95l96 -137l-64 -14l-77 70h-5l-79 -70z" />
    <glyph glyph-name="edieresis" unicode="&#xeb;" horiz-adv-x="503" 
d="M354 274q5 16 5 37q0 37 -24.5 57.5t-69.5 20.5q-62 0 -87.5 -28.5t-28.5 -90.5zM124 590q0 26 15 40t41 14q27 0 42 -14t15 -40t-15 -39t-42 -13q-26 0 -41 13t-15 39zM289 590q0 26 15 40t42 14q28 0 42.5 -14t14.5 -40t-14.5 -39t-42.5 -13q-27 0 -42 13t-15 39z
M46 231q0 118 58 183.5t165 65.5q94 0 141.5 -51.5t47.5 -141.5q0 -19 -1 -28l-64 -63l-243 2q2 -115 125 -115q48 0 82.5 11.5t68.5 32.5l30 -81q-39 -26 -81.5 -39.5t-104.5 -13.5q-114 0 -169 61.5t-55 176.5z" />
    <glyph glyph-name="igrave" unicode="&#xec;" horiz-adv-x="245" 
d="M69 470h107v-470h-107v470zM-52 683l131 14l86 -149l-88 -15z" />
    <glyph glyph-name="iacute" unicode="&#xed;" horiz-adv-x="244" 
d="M69 470h106v-470h-106v470zM70 548l83 153l125 -13l-129 -154z" />
    <glyph glyph-name="icircumflex" unicode="&#xee;" horiz-adv-x="244" 
d="M69 470h106v-470h-106v470zM-22 546l98 137h94l97 -137l-65 -14l-76 70h-6l-80 -70z" />
    <glyph glyph-name="idieresis" unicode="&#xef;" horiz-adv-x="244" 
d="M-17 588q0 25 15 39.5t41 14.5t41 -14.5t15 -39.5t-15 -38.5t-41 -13.5t-41 13.5t-15 38.5zM149 588q0 25 15 39.5t41 14.5q27 0 41.5 -14.5t14.5 -39.5t-14.5 -38.5t-41.5 -13.5q-26 0 -41 13.5t-15 38.5zM69 470h106v-470h-106v470z" />
    <glyph glyph-name="eth" unicode="&#xf0;" horiz-adv-x="582" 
d="M378 90q15 47 15 109q0 25 -3 47q-27 15 -52 23t-55 8q-106 0 -106 -94q0 -54 26 -80t82 -26q47 0 93 13zM71 183q0 88 54.5 137t139.5 49q73 0 117 -43h7q-4 73 -44 130l-118 -44l-27 62l92 35q-31 22 -87 48l59 63q76 -37 120 -78l105 40l32 -64l-84 -29
q33 -48 48.5 -107.5t15.5 -133.5q0 -119 -55 -191.5t-176 -72.5q-91 0 -145 52t-54 147z" />
    <glyph glyph-name="ntilde" unicode="&#xf1;" horiz-adv-x="545" 
d="M74 471h96l6 -72h8q66 81 162 81q69 0 103 -33t34 -103v-344h-108v372q-25 9 -61 9q-87 0 -133 -51v-330h-107v471zM122 551q2 56 23.5 83.5t67.5 27.5q17 0 31 -5.5t37 -17.5q10 -7 21.5 -12t20.5 -5q19 0 26.5 12t11.5 35l69 -21q-3 -56 -24 -84t-65 -28q-18 0 -32.5 6
t-33.5 17q-15 9 -26 13.5t-22 4.5q-17 0 -25.5 -13t-10.5 -34z" />
    <glyph glyph-name="ograve" unicode="&#xf2;" horiz-adv-x="532" 
d="M360 97q20 45 20 126q0 61 -9 96t-36 52t-77 17t-86 -15q-20 -45 -20 -133q0 -60 10 -93t36 -48.5t76 -15.5t86 14zM46 229q0 118 58.5 185t174.5 67q207 0 207 -244q0 -245 -233 -245q-110 0 -158.5 62t-48.5 175zM117 683l131 14l85 -149l-88 -14z" />
    <glyph glyph-name="oacute" unicode="&#xf3;" horiz-adv-x="532" 
d="M360 97q20 45 20 126q0 61 -9 96t-36 52t-77 17t-86 -15q-20 -45 -20 -133q0 -60 10 -93t36 -48.5t76 -15.5t86 14zM46 229q0 118 58.5 185t174.5 67q207 0 207 -244q0 -245 -233 -245q-110 0 -158.5 62t-48.5 175zM217 548l83 152l125 -12l-129 -155z" />
    <glyph glyph-name="ocircumflex" unicode="&#xf4;" horiz-adv-x="532" 
d="M360 97q20 45 20 126q0 61 -9 96t-36 52t-77 17t-86 -15q-20 -45 -20 -133q0 -60 10 -93t36 -48.5t76 -15.5t86 14zM46 229q0 118 58.5 185t174.5 67q207 0 207 -244q0 -245 -233 -245q-110 0 -158.5 62t-48.5 175zM122 546l97 137h95l96 -137l-64 -14l-77 70h-6l-79 -70
z" />
    <glyph glyph-name="otilde" unicode="&#xf5;" horiz-adv-x="532" 
d="M360 97q20 45 20 126q0 61 -9 96t-36 52t-77 17t-86 -15q-20 -45 -20 -133q0 -60 10 -93t36 -48.5t76 -15.5t86 14zM46 229q0 118 58.5 185t174.5 67q207 0 207 -244q0 -245 -233 -245q-110 0 -158.5 62t-48.5 175zM112 552q2 57 23.5 84.5t67.5 27.5q16 0 30.5 -6
t36.5 -17q12 -8 23 -13t21 -5q19 0 26 12.5t10 34.5l69 -20q-2 -57 -23 -84.5t-66 -27.5q-16 0 -31 6t-34 17q-16 9 -26.5 13.5t-21.5 4.5q-18 0 -26 -13t-9 -35z" />
    <glyph glyph-name="odieresis" unicode="&#xf6;" horiz-adv-x="532" 
d="M360 97q20 45 20 126q0 61 -9 96t-36 52t-77 17t-86 -15q-20 -45 -20 -133q0 -60 10 -93t36 -48.5t76 -15.5t86 14zM130 590q0 26 15 40t41 14q27 0 42 -14t15 -40t-15 -39t-42 -13q-26 0 -41 13t-15 39zM295 590q0 26 15 40t43 14q26 0 40.5 -14t14.5 -40t-14.5 -39
t-40.5 -13q-28 0 -43 13t-15 39zM46 229q0 118 58.5 185t174.5 67q207 0 207 -244q0 -245 -233 -245q-110 0 -158.5 62t-48.5 175z" />
    <glyph glyph-name="divide" unicode="&#xf7;" horiz-adv-x="532" 
d="M46 351h440v-90h-440v90zM206 148q0 26 18 43t42 17q27 0 43.5 -17t16.5 -43t-17 -43.5t-43 -17.5q-24 0 -42 17.5t-18 43.5zM206 466q0 25 18 42.5t42 17.5q27 0 43.5 -17.5t16.5 -42.5q0 -26 -17 -44t-43 -18q-24 0 -42 18t-18 44z" />
    <glyph glyph-name="oslash" unicode="&#xf8;" horiz-adv-x="532" 
d="M380 223q0 88 -21 123l-117 -260q20 -3 32 -3q50 0 86 14q20 45 20 126zM170 127l118 259q-18 2 -30 2q-50 0 -86 -15q-20 -45 -20 -133q0 -41 4 -67.5t14 -45.5zM486 237q0 -245 -233 -245q-31 0 -53 4l-50 -110l-79 24l53 116q-78 56 -78 203q0 118 58.5 185t174.5 67
q30 0 51 -3l37 82l79 -23l-41 -90q81 -58 81 -210z" />
    <glyph glyph-name="ugrave" unicode="&#xf9;" horiz-adv-x="538" 
d="M64 132v339h108v-374q29 -8 60 -8q82 0 129 52v330h107v-471h-95l-6 72h-7q-34 -39 -71 -59.5t-88 -20.5q-70 0 -103.5 33t-33.5 107zM112 683l131 14l84 -149l-86 -15z" />
    <glyph glyph-name="uacute" unicode="&#xfa;" horiz-adv-x="538" 
d="M64 132v339h108v-374q29 -8 60 -8q82 0 129 52v330h107v-471h-95l-6 72h-7q-34 -39 -71 -59.5t-88 -20.5q-70 0 -103.5 33t-33.5 107zM205 548l83 152l125 -12l-129 -155z" />
    <glyph glyph-name="ucircumflex" unicode="&#xfb;" horiz-adv-x="538" 
d="M64 132v339h108v-374q29 -8 60 -8q82 0 129 52v330h107v-471h-95l-6 72h-7q-34 -39 -71 -59.5t-88 -20.5q-70 0 -103.5 33t-33.5 107zM120 546l98 137h94l98 -137l-65 -13l-77 69h-6l-79 -69z" />
    <glyph glyph-name="udieresis" unicode="&#xfc;" horiz-adv-x="538" 
d="M130 590q0 26 15 40t41 14q27 0 42 -14t15 -40t-15 -39t-42 -13q-26 0 -41 13t-15 39zM295 590q0 26 15 40t42 14q28 0 42 -14t14 -40t-14 -39t-42 -13q-27 0 -42 13t-15 39zM64 132v339h108v-374q29 -8 60 -8q82 0 129 52v330h107v-471h-95l-6 72h-7q-34 -39 -71 -59.5
t-88 -20.5q-70 0 -103.5 33t-33.5 107z" />
    <glyph glyph-name="yacute" unicode="&#xfd;" horiz-adv-x="529" 
d="M52 -177v32q0 44 10 82h78v-42q14 -3 32 -3q11 0 38 4q23 60 45 125h-62q-57 133 -94.5 236t-65.5 213l110 8q52 -208 112 -360h32q47 152 95 360l111 -8q-41 -168 -89.5 -320t-94.5 -262q-17 -37 -63 -61t-89 -24q-60 0 -105 20zM212 548l83 152l126 -12l-130 -155z" />
    <glyph glyph-name="thorn" unicode="&#xfe;" horiz-adv-x="513" 
d="M368 266q0 54 -22.5 82t-71.5 28q-47 0 -93 -18v-184q42 -18 91 -18q51 0 73.5 27t22.5 83zM71 677h110v-237h7q29 18 57.5 27t63.5 9q84 0 126 -58.5t42 -151.5q0 -95 -42 -152.5t-126 -57.5q-35 0 -63 8.5t-58 26.5h-7v-271h-110v857z" />
    <glyph glyph-name="ydieresis" unicode="&#xff;" horiz-adv-x="529" 
d="M131 590q0 26 15 40t41 14q27 0 42 -14t15 -40t-15 -39t-42 -13q-26 0 -41 13t-15 39zM296 590q0 26 15 40t42 14q28 0 42.5 -14t14.5 -40t-14.5 -39t-42.5 -13q-27 0 -42 13t-15 39zM52 -177v32q0 44 10 82h78v-42q14 -3 32 -3q11 0 38 4q23 60 45 125h-62
q-57 133 -94.5 236t-65.5 213l110 8q52 -208 112 -360h32q47 152 95 360l111 -8q-41 -168 -89.5 -320t-94.5 -262q-17 -37 -63 -61t-89 -24q-60 0 -105 20z" />
    <glyph glyph-name="arabiccomma" unicode="&#x60c;" horiz-adv-x="240" 
d="M169 186q-31 -54 -32 -102h53v-73q-28 -11 -63 -11q-77 0 -77 77q0 32 14 65t38 59z" />
    <glyph glyph-name="dateseparator-arab" unicode="&#x60d;" horiz-adv-x="252" 
d="M257 105v-105h-72l-80 -207l-105 25l69 172q21 53 68 84t105 31h15z" />
    <glyph glyph-name="smallhightahcomb-arab" unicode="&#x615;" 
d="M-56 747h83q14 0 26 3t22 8v44q0 11 -8 19.5t-21 8.5h-34zM-114 700l-8 47h16v193l47 8v-131l13 16q17 21 41 32.5t51 11.5q16 0 29.5 -5.5t24 -16t16.5 -24t6 -29.5v-7q0 -20 -7.5 -37.5t-20 -30t-30 -20t-37.5 -7.5h-141z" />
    <glyph glyph-name="arabicsemicolon" unicode="&#x61b;" horiz-adv-x="240" 
d="M61 116h118v-116h-118v116zM169 457q-31 -54 -32 -102h53v-73q-28 -11 -63 -11q-77 0 -77 77q0 32 14 65t38 59z" />
    <glyph glyph-name="arabicquestionmark" unicode="&#x61f;" horiz-adv-x="469" 
d="M155 404l80 -29q46 -18 70 -60.5t15 -91.5l-15 -78h-76v79q0 19 -10.5 33.5t-28.5 20.5l-140 53v86q0 39 14.5 72.5t40 58.5t59 40t72.5 15h78q44 0 74.5 -30.5t30.5 -74.5v-69l-105 -16v85h-147q-12 -41 -12 -81v-13zM261 105q22 0 37.5 -15t15.5 -37q0 -23 -15.5 -38
t-37.5 -15q-21 0 -36.5 15t-15.5 38q0 22 15.5 37t36.5 15z" />
    <glyph glyph-name="arabictatweelmod" unicode="&#x640;" horiz-adv-x="168" 
d="M168 105l23 -13v-79l-23 -13h-168l-23 13v79l23 13h168z" />
    <glyph glyph-name="arabicfathatancomb" unicode="&#x64b;" 
d="M-81 700l-13 46l175 82l13 -46zM-81 795l-13 46l175 82l13 -46z" />
    <glyph glyph-name="arabicdammatancomb" unicode="&#x64c;" 
d="M78 819q11 5 15 16.5t-1 22.5l-5 11q-5 11 -14 24l-34 -16q-11 -5 -15 -16.5t1 -22.5l5 -10q7 -14 16 -24zM4 785q-11 10 -17 24l-4 10q-6 14 -7 29t4 29t15 24.5t24 17.5l10 5q15 7 30 7.5t28.5 -5t24.5 -15t18 -24.5l5 -10q7 -14 7.5 -29t-4.5 -28.5t-15 -25t-25 -18.5
l-164 -76l-42 20l12 26q7 16 10 35l-56 26l12 46l36 -16q15 -7 26 -19t17 -28q5 -14 5 -29z" />
    <glyph glyph-name="arabickasratancomb" unicode="&#x64d;" 
d="M-82 -128l-12 46l175 82l13 -46zM-82 -223l-12 46l175 82l13 -46z" />
    <glyph glyph-name="arabicfathacomb" unicode="&#x64e;" 
d="M-81 700l-13 46l175 82l13 -46z" />
    <glyph glyph-name="arabicdammacomb" unicode="&#x64f;" 
d="M54 819q11 5 14.5 16t-1.5 22l-5 11q-6 13 -15 24l-33 -15q-11 -5 -14.5 -17t0.5 -21l5 -11q6 -13 15 -25zM-21 784q-11 10 -17 24l-5 11q-7 15 -7.5 29.5t5 28t15 24.5t24.5 18l11 5q15 7 29.5 7.5t28 -4.5t25 -15t17.5 -24l5 -11q7 -15 7.5 -29.5t-4.5 -28t-15.5 -25.5
t-23.5 -18l-164 -76l-27 39z" />
    <glyph glyph-name="arabickasracomb" unicode="&#x650;" 
d="M-82 -128l-12 46l175 82l13 -46z" />
    <glyph glyph-name="arabicshaddacomb" unicode="&#x651;" 
d="M64 747q15 0 28 4v90l48 8v-73q0 -16 -6 -29.5t-16.5 -24t-24.5 -16.5t-29 -6h-10q-16 0 -29 6t-23 15q-10 -9 -23 -15q-14 -6 -29 -6h-14q-15 0 -29 6t-24.5 16.5t-16.5 24t-6 29.5v52l48 8v-60q0 -12 8 -20.5t20 -8.5h14q15 0 28 4v68l48 5v-48q0 -12 8 -20.5t20 -8.5
h10z" />
    <glyph glyph-name="arabicsukuncomb" unicode="&#x652;" 
d="M34 788q0 11 -8 19.5t-20 8.5h-12q-14 0 -28 -3v-37q0 -12 8 -20.5t20 -8.5h12q15 0 28 4v37zM6 863q16 0 29.5 -6t24 -16t16.5 -24t6 -29v-12q0 -16 -6 -29.5t-16.5 -24t-24 -16.5t-29.5 -6h-12q-16 0 -29.5 6t-24 16.5t-16.5 24t-6 29.5v12q0 15 6 29t16.5 24t24 16
t29.5 6h12z" />
    <glyph glyph-name="arabicmaddahcomb" unicode="&#x653;" 
d="M56 776q12 0 24.5 2t25.5 5l8 -44q-33 -11 -69 -11h-73q-39 0 -68 -28l-18 37q15 17 37 28t59 11h74z" />
    <glyph glyph-name="arabichamzacomb" unicode="&#x654;" 
d="M-82 700l-12 46l59 28q-16 14 -25 33t-10 37t4 32.5t16.5 26.5t27.5 19l32 15l27 -39l-65 -30q0 -9 2 -19t8 -22q9 -19 23.5 -23t26.5 1l49 23l13 -46z" />
    <glyph glyph-name="arabichamzabelowcomb" unicode="&#x655;" 
d="M-82 -237l-12 46l59 28q-16 14 -25 33t-10 37t4 32.5t16.5 26.5t27.5 19l32 15l27 -39l-65 -30q0 -9 2 -19t8 -22q9 -19 23.5 -23t26.5 1l49 23l13 -46z" />
    <glyph glyph-name="alefcomb-arab" unicode="&#x656;" 
d="M-24 -149v141l47 8v-141z" />
    <glyph glyph-name="marknoonghunnacomb-arab" unicode="&#x658;" 
d="M-73 891v-78q0 -13 5 -25t14 -21t21 -14.5t26 -5.5h14q39 0 67 17v133l47 9v-93q0 -23 -9 -44t-24.5 -36t-35.5 -24t-45 -9h-14q-23 0 -44 9t-36.5 24t-24.5 36t-9 44v70z" />
    <glyph glyph-name="vowelsignsmallvcomb-arab" unicode="&#x65a;" 
d="M32 700h-62q-5 19 -10 36q-18 56 -50 106l39 26q16 -24 29 -50t22 -53q19 56 51 104l39 -26q-32 -50 -49 -106q-5 -18 -9 -37z" />
    <glyph glyph-name="vowelsigninvertedsmallvcomb-arab" unicode="&#x65b;" 
d="M32 869q4 -19 9 -36q18 -57 50 -107l-39 -26q-32 48 -51 104q-9 -27 -22.5 -53t-29.5 -51l-39 27q33 49 51 107q5 16 9 35h62z" />
    <glyph glyph-name="arabicindiczero-arab" unicode="&#x660;" horiz-adv-x="462" 
d="M307 245q0 26 -18 44.5t-45 18.5h-27q-30 0 -62 -7v-80q0 -27 18.5 -45t44.5 -18h26q34 0 63 7v80zM244 413q35 0 65.5 -13.5t53.5 -36t36 -53.5t13 -65v-24q0 -35 -13 -65.5t-36 -53.5t-53.5 -36t-65.5 -13h-26q-35 0 -65.5 13t-53.5 36t-36 53.5t-13 65.5v24
q0 34 13 65t36 53.5t53.5 36t65.5 13.5h26z" />
    <glyph glyph-name="arabicindicone-arab" unicode="&#x661;" horiz-adv-x="274" 
d="M154 594q36 -147 53 -295.5t17 -298.5h-105q0 144 -16.5 286.5t-50.5 283.5l-2 8l103 24z" />
    <glyph glyph-name="arabicindictwo-arab" unicode="&#x662;" horiz-adv-x="480" 
d="M325 609l105 18v-145q0 -38 -14 -71.5t-39.5 -59t-59 -40.5t-72.5 -15q-23 0 -40 4q9 -75 13.5 -149.5t4.5 -150.5h-105q0 144 -16.5 286.5t-51.5 291.5l102 24l37 -157q4 -20 19.5 -32t36.5 -12q37 0 80 12v196z" />
    <glyph glyph-name="arabicindicthree-arab" unicode="&#x663;" horiz-adv-x="734" 
d="M579 609l105 18v-145q0 -38 -14 -71.5t-39.5 -59t-59 -40.5t-72.5 -15h-6q-70 0 -121 51q-24 -25 -56.5 -38t-69.5 -13h-1q-22 0 -39 4q9 -75 13.5 -149.5t4.5 -150.5h-106q0 144 -16 286.5t-52 291.5l102 24l38 -157q5 -20 20 -32t36 -12q38 0 79 12v138l105 11v-97
q0 -27 18 -45.5t45 -18.5h6q37 0 80 12v196z" />
    <glyph glyph-name="arabicindicfour-arab" unicode="&#x664;" horiz-adv-x="593" 
d="M543 353l-17 -105h-209q-29 0 -56 7t-51 19q7 -58 10 -115.5t3 -116.5v-42l-105 1v42q2 243 -66 474l-2 7l101 29l2 -7l25 -87q13 -42 45 -69q-2 12 -2 26v8q0 39 15 72.5t40.5 59t59.5 39.5t72 14h85l17 -105h-172q-12 -43 -12 -80v-8q0 -26 17.5 -44.5t42.5 -18.5h157z
" />
    <glyph glyph-name="arabicindicfive-arab" unicode="&#x665;" horiz-adv-x="680" 
d="M525 193q0 38 -11 73.5t-30.5 66t-48 55t-63.5 39.5l-73 33q-67 -50 -105.5 -126t-38.5 -162v-4q0 -26 18.5 -44.5t44.5 -18.5h6q32 0 63 6v143l105 12v-98q0 -26 18.5 -44.5t44.5 -18.5h7q31 0 63 6v82zM630 193v-25q0 -35 -13.5 -66t-36 -53.5t-53.5 -35.5t-65 -13h-7
q-33 0 -62.5 12t-52.5 33q-23 -21 -52.5 -33t-63.5 -12h-6q-35 0 -65.5 13t-53.5 35.5t-36 53.5t-13 66v15q0 94 38 178t104 146l-62 27l46 95l251 -117q46 -22 84 -55t64 -74.5t40.5 -89.5t14.5 -100z" />
    <glyph glyph-name="arabicindicsix-arab" unicode="&#x666;" horiz-adv-x="463" 
d="M443 404l-34 -34q-152 -164 -225 -370l-100 35v1q43 117 110 225q-49 10 -86 47l-4 4q-27 27 -41 61.5t-13 70.5t14.5 70t40.5 60l61 60l86 -62l-122 -122q11 -17 22.5 -33t26.5 -31l4 -4q18 -19 44 -19t46 20l108 107z" />
    <glyph glyph-name="arabicindicseven-arab" unicode="&#x667;" horiz-adv-x="530" 
d="M320 0h-105q0 131 -37.5 255t-112.5 233l-45 67l87 59l45 -67q114 -169 116 -334q2 165 112 335l43 65l87 -58l-42 -65q-72 -110 -110 -234t-38 -256z" />
    <glyph glyph-name="arabicindiceight-arab" unicode="&#x668;" horiz-adv-x="530" 
d="M320 614q0 -132 38 -256t110 -234l42 -65l-87 -58l-43 65q-110 170 -112 335q-2 -165 -116 -334l-45 -67l-87 59l45 67q75 109 112.5 233t37.5 255h105z" />
    <glyph glyph-name="arabicindicnine-arab" unicode="&#x669;" horiz-adv-x="501" 
d="M234 366q34 0 63 8v80q0 26 -18 44.5t-45 18.5h-27q-30 0 -62 -7v-81q0 -26 18.5 -44.5t44.5 -18.5h26zM402 426q0 -102 12 -202t37 -199l-102 -25q-17 69 -28.5 138t-16.5 138q-33 -15 -70 -15h-26q-35 0 -65.5 13.5t-53.5 36.5t-36 53.5t-13 64.5v25q0 34 13 65
t36 53.5t53.5 36t65.5 13.5h26q35 0 65.5 -13.5t53.5 -36t36 -53.5t13 -65v-28z" />
    <glyph glyph-name="percentsign-arab" unicode="&#x66a;" horiz-adv-x="730" 
d="M228 386q9 28 9 70q0 48 -12 65t-46 17q-28 0 -43 -7q-7 -31 -7 -70q0 -48 10.5 -65t46.5 -17q25 0 42 7zM594 68q8 28 8 69q0 50 -11 66.5t-45 16.5q-26 0 -44 -8q-6 -31 -6 -69q0 -47 10.5 -64.5t44.5 -17.5q30 0 43 7zM50 451q0 77 34 117.5t103 40.5q60 0 93 -36.5
t33 -109.5q0 -75 -33 -115t-103 -40q-61 0 -94 35.5t-33 107.5zM417 133q0 76 33.5 116.5t101.5 40.5q61 0 94.5 -36t33.5 -107q0 -77 -34 -117t-103 -40q-61 0 -93.5 35.5t-32.5 107.5zM143 18l367 600l81 -30l-371 -606z" />
    <glyph glyph-name="decimalseparator-arab" unicode="&#x66b;" horiz-adv-x="306" 
d="M306 161l-257 -427l-99 39l256 427z" />
    <glyph glyph-name="thousandsseparator-arab" unicode="&#x66c;" horiz-adv-x="202" 
d="M57 112h105q-6 -127 -51 -251h-81q27 142 27 251z" />
    <glyph glyph-name="fivepointedstar-arab" unicode="&#x66d;" horiz-adv-x="388" 
d="M88 357l62 85l-100 37l18 51l100 -36v106h52v-106l101 36l17 -54l-99 -35l59 -84l-42 -32l-60 89l-66 -89z" />
    <glyph glyph-name="dotlessbeh-arab" unicode="&#x66e;" horiz-adv-x="780" 
d="M545 105q40 0 80 12v179l105 18v-127q0 -77 -53.5 -132t-131.5 -55h-327q-69 0 -118.5 49.5t-49.5 118.5v128l105 18v-146q0 -26 18.5 -44.5t44.5 -18.5h327z" />
    <glyph glyph-name="dotlessqaf-arab" unicode="&#x66f;" horiz-adv-x="636" 
d="M481 112v92q0 26 -18.5 44.5t-44.5 18.5h-27q-30 0 -62 -8v-91q0 -26 18.5 -44.5t44.5 -18.5h26q32 0 63 7zM586 63q0 -105 -74.5 -178.5t-177.5 -73.5h-32q-105 0 -178.5 73.5t-73.5 178.5v154l105 18v-172q0 -61 43 -104t104 -43h32q86 0 147 38v58q-29 -12 -63 -12
h-26q-69 0 -118.5 49.5t-49.5 118.5v36q0 69 49.5 118.5t118.5 49.5h26q70 0 119 -49.5t49 -118.5v-141z" />
    <glyph glyph-name="arabicalefcomb" unicode="&#x670;" 
d="M-24 700v141l48 8v-141z" />
    <glyph glyph-name="alefwasla-arab" unicode="&#x671;" horiz-adv-x="205" 
d="M50 557l105 17v-565l-105 -9v557zM73 648h82q14 0 26 3t22 8v44q0 11 -8 19.5t-21 8.5h-33zM47 692l35 42q17 21 41 32.5t51 11.5q16 0 29.5 -5.5t24 -16t17 -24t6.5 -29.5v-7q0 -20 -8 -37.5t-20.5 -30t-30 -20t-37.5 -7.5h-79q-16 0 -30 6t-24 17v0q-12 -10 -25 -16
q-16 -7 -34 -7v47q21 0 37 5v73l47 8v-42z" />
    <glyph glyph-name="tteh-arab" unicode="&#x679;" horiz-adv-x="780" 
d="M545 105q40 0 80 12v179l105 18v-127q0 -77 -53.5 -132t-131.5 -55h-327q-69 0 -118.5 49.5t-49.5 118.5v128l105 18v-146q0 -26 18.5 -44.5t44.5 -18.5h327zM352 331h83q14 0 26 3t22 8v44q0 11 -8 19.5t-21 8.5h-34zM294 284l-8 47h16v193l47 8v-131l13 16
q17 21 41 32.5t51 11.5q16 0 29.5 -5.5t24 -16t16.5 -24t6 -29.5v-7q0 -20 -7.5 -37.5t-20 -30t-30 -20t-37.5 -7.5h-141z" />
    <glyph glyph-name="peh-arab" unicode="&#x67e;" horiz-adv-x="780" 
d="M545 105q40 0 80 12v179l105 18v-127q0 -77 -53.5 -132t-131.5 -55h-327q-69 0 -118.5 49.5t-49.5 118.5v128l105 18v-146q0 -26 18.5 -44.5t44.5 -18.5h327zM494 -194h-213v94h213q5 0 8 -2l-3 -94zM391 -199l67 -67l-67 -67l-67 67z" />
    <glyph glyph-name="tcheh-arab" unicode="&#x686;" horiz-adv-x="592" 
d="M384 243l-94 30q-42 13 -85 13q-42 0 -70 -10v-103l-95 -18v68q0 66 24 102t61.5 51t79.5 15q59 0 116 -18l251 -79l-31 -100l-30 10l-366 -258v-74q0 -52 37 -88.5t88 -36.5h240l-13 -105h-227q-95 0 -162.5 67.5t-67.5 162.5q0 127 108 207zM440 -104h-213v94h213
q5 0 8 -2l-3 -94zM337 -109l67 -67l-67 -67l-67 67z" />
    <glyph glyph-name="ddal-arab" unicode="&#x688;" horiz-adv-x="429" 
d="M189 404l142 -147q48 -49 48 -109q0 -56 -51.5 -102t-122.5 -46h-158l-17 105h175q39 0 79 13q0 41 -29 72l-141 141zM137 495h83q14 0 26 3t22 8v44q0 11 -8 19.5t-21 8.5h-34zM79 448l-8 47h16v193l47 8v-131l13 16q17 21 41 32.5t51 11.5q16 0 29.5 -5.5t24 -16
t16.5 -24t6 -29.5v-7q0 -20 -7.5 -37.5t-20 -30t-30 -20t-37.5 -7.5h-141z" />
    <glyph glyph-name="rreh-arab" unicode="&#x691;" horiz-adv-x="312" 
d="M-2 -190l-18 105h1q96 0 176 51v330l105 18v-253q0 -55 -26.5 -113t-88 -98t-149.5 -40zM120 409h83q14 0 26 3t22 8v44q0 11 -8 19.5t-21 8.5h-34zM62 362l-8 47h16v193l47 8v-131l13 16q17 21 41 32.5t51 11.5q16 0 29.5 -5.5t24 -16t16.5 -24t6 -29.5v-7
q0 -20 -7.5 -37.5t-20 -30t-30 -20t-37.5 -7.5h-141z" />
    <glyph glyph-name="rehsmallv-arab" unicode="&#x692;" horiz-adv-x="312" 
d="M-2 -190l-18 105h1q96 0 176 51v330l105 18v-253q0 -55 -26.5 -113t-88 -98t-149.5 -40zM238 362h-62q-5 19 -10 36q-18 56 -50 106l39 26q16 -24 29 -50t22 -53q19 56 51 104l39 -26q-32 -50 -49 -106q-5 -18 -9 -37z" />
    <glyph glyph-name="rehsmallvbelow-arab" unicode="&#x695;" horiz-adv-x="312" 
d="M-2 -190l-18 105h1q96 0 176 51v330l105 18v-253q0 -55 -26.5 -113t-88 -98t-149.5 -40zM95 -400h-62q-5 19 -10 37q-18 55 -50 105l39 26q16 -24 29 -49q13 -27 22 -54q19 56 51 104l39 -26q-32 -50 -49 -105q-5 -19 -9 -38z" />
    <glyph glyph-name="jeh-arab" unicode="&#x698;" horiz-adv-x="335" 
d="M-2 -190l-18 105h1q96 0 176 51v330l105 18v-253q0 -55 -26.5 -113t-88 -98t-149.5 -40zM315 396h-213v94h213q5 0 8 -2l-3 -94zM211 629l67 -67l-67 -68l-67 68z" />
    <glyph glyph-name="dotlessfeh-arab" unicode="&#x6a1;" horiz-adv-x="840" 
d="M685 308q0 26 -18 44.5t-45 18.5h-17q-30 0 -61 -8v-70q0 -26 18 -44.5t45 -18.5h15q33 0 63 7v71zM685 136q-29 -11 -63 -11h-15q-70 0 -119 49.5t-49 118.5v15q0 69 49 118.5t119 49.5h15q71 0 119.5 -49.5t48.5 -118.5v-121q0 -77 -53.5 -132t-131.5 -55h-387
q-69 0 -118.5 49.5t-49.5 118.5v128l105 18v-146q0 -26 18.5 -44.5t44.5 -18.5h387q40 0 80 12v19z" />
    <glyph glyph-name="veh-arab" unicode="&#x6a4;" horiz-adv-x="840" 
d="M685 308q0 26 -18 44.5t-45 18.5h-17q-30 0 -61 -8v-70q0 -26 18 -44.5t45 -18.5h15q33 0 63 7v71zM685 136q-29 -11 -63 -11h-15q-70 0 -119 49.5t-49 118.5v15q0 69 49 118.5t119 49.5h15q71 0 119.5 -49.5t48.5 -118.5v-121q0 -77 -53.5 -132t-131.5 -55h-387
q-69 0 -118.5 49.5t-49.5 118.5v128l105 18v-146q0 -26 18.5 -44.5t44.5 -18.5h387q40 0 80 12v19zM720 540h-213v94h213q5 0 8 -2l-3 -94zM616 773l67 -67l-67 -68l-67 68z" />
    <glyph glyph-name="qafthreedotsabove-arab" unicode="&#x6a8;" horiz-adv-x="636" 
d="M481 112v92q0 26 -18.5 44.5t-44.5 18.5h-27q-30 0 -62 -8v-91q0 -26 18.5 -44.5t44.5 -18.5h26q32 0 63 7zM586 63q0 -105 -74.5 -178.5t-177.5 -73.5h-32q-105 0 -178.5 73.5t-73.5 178.5v154l105 18v-172q0 -61 43 -104t104 -43h32q86 0 147 38v58q-29 -12 -63 -12
h-26q-69 0 -118.5 49.5t-49.5 118.5v36q0 69 49.5 118.5t118.5 49.5h26q70 0 119 -49.5t49 -118.5v-141zM508 456h-213v94h213q5 0 8 -2l-3 -94zM404 689l67 -67l-67 -68l-67 68z" />
    <glyph glyph-name="keheh-arab" unicode="&#x6a9;" horiz-adv-x="788" 
d="M563 105q40 0 80 12q0 42 -27 75l-153 178l7 119l182 84q41 20 86 29l20 -103q-32 -7 -62 -21l-135 -62l134 -155q43 -52 43 -115q0 -32 -22 -65.5t-61.5 -57t-91.5 -23.5h-345q-69 0 -118.5 49.5t-49.5 118.5v128l105 18v-146q0 -26 18.5 -44.5t44.5 -18.5h345z" />
    <glyph glyph-name="swashkaf-arab" unicode="&#x6aa;" horiz-adv-x="969" 
d="M745 105q39 0 80 12v33q0 32 -24.5 54t-56.5 22h-470l-33 105l250 181q37 28 79 45l39 -98q-30 -12 -56 -31l-134 -97h325q75 0 125 -53t50 -128q0 -33 -22 -68t-61 -58.5t-91 -23.5h-527q-69 0 -118.5 49.5t-49.5 118.5v128l105 18v-146q0 -26 18.5 -44.5t44.5 -18.5
h527z" />
    <glyph glyph-name="gaf-arab" unicode="&#x6af;" horiz-adv-x="788" 
d="M563 105q40 0 80 12q0 42 -27 75l-153 178l7 119l182 84q41 20 86 29l20 -103q-32 -7 -62 -21l-135 -62l134 -155q43 -52 43 -115q0 -32 -22 -65.5t-61.5 -57t-91.5 -23.5h-345q-69 0 -118.5 49.5t-49.5 118.5v128l105 18v-146q0 -26 18.5 -44.5t44.5 -18.5h345zM596 666
q28 13 58 19l13 -69q-24 -5 -41 -13l-156 -73l5 80z" />
    <glyph glyph-name="lamsmallv-arab" unicode="&#x6b5;" horiz-adv-x="636" 
d="M302 -189q-105 0 -178.5 73.5t-73.5 178.5v154l105 18v-172q0 -61 43 -104t104 -43h32q86 0 147 38v649l105 18v-558q0 -105 -74.5 -178.5t-177.5 -73.5h-32zM559 669h-62q-5 19 -10 36q-18 56 -50 106l39 26q16 -24 29 -50t22 -53q19 56 51 104l39 -26q-32 -50 -49 -106
q-5 -18 -9 -37z" />
    <glyph glyph-name="noonghunna-arab" unicode="&#x6ba;" horiz-adv-x="636" 
d="M302 -189q-105 0 -178.5 73.5t-73.5 178.5v154l105 18v-172q0 -61 43 -104t104 -43h32q86 0 147 38v342l105 18v-251q0 -105 -74.5 -178.5t-177.5 -73.5h-32z" />
    <glyph glyph-name="hehdoachashmee-arab" unicode="&#x6be;" horiz-adv-x="767" 
d="M276 105h25q33 0 63 7v92q0 26 -18.5 44.5t-44.5 18.5h-26q-31 0 -62 -8v-91q0 -26 18.5 -44.5t44.5 -18.5zM457 105h92q31 0 63 7v82q0 51 -50 62l-111 25q18 -35 18 -77v-36q0 -34 -12 -63zM198 353q-20 10 -40 21l54 90q59 -35 126 -49l248 -57q58 -14 94.5 -59
t36.5 -105v-26q0 -69 -49.5 -118.5t-118.5 -49.5h-499l-20 105h90q-12 29 -12 63v36q0 69 50 119q18 18 40 30z" />
    <glyph glyph-name="hehgoal-arab" unicode="&#x6c1;" horiz-adv-x="462" 
d="M268 268h-51q-30 0 -62 -8v-92q0 -26 18.5 -44.5t44.5 -18.5h26q33 0 63 7v103q0 27 -23 42zM146 346l-29 17l57 90l167 -106q71 -48 71 -132v-47q0 -69 -49 -118.5t-119 -49.5h-26q-69 0 -118.5 49.5t-49.5 118.5v36q0 70 49 119q17 17 47 23z" />
    <glyph glyph-name="hehgoalhamzaabove-arab" unicode="&#x6c2;" horiz-adv-x="462" 
d="M268 268h-51q-30 0 -62 -8v-92q0 -26 18.5 -44.5t44.5 -18.5h26q33 0 63 7v103q0 27 -23 42zM146 346l-29 17l57 90l167 -106q71 -48 71 -132v-47q0 -69 -49 -118.5t-119 -49.5h-26q-69 0 -118.5 49.5t-49.5 118.5v36q0 70 49 119q17 17 47 23zM124 473l-12 46l59 28
q-16 14 -25 33t-10 37t4 32.5t16.5 26.5t27.5 19l32 15l27 -39l-65 -30q0 -9 2 -19t8 -22q9 -19 23.5 -23t26.5 1l49 23l13 -46z" />
    <glyph glyph-name="tehmarbutagoal-arab" unicode="&#x6c3;" horiz-adv-x="462" 
d="M268 268h-51q-30 0 -62 -8v-92q0 -26 18.5 -44.5t44.5 -18.5h26q33 0 63 7v103q0 27 -23 42zM146 346l-29 17l57 90l167 -106q71 -48 71 -132v-47q0 -69 -49 -118.5t-119 -49.5h-26q-69 0 -118.5 49.5t-49.5 118.5v36q0 70 49 119q17 17 47 23zM331 487h-213v94h213
q5 0 8 -2l-3 -94z" />
    <glyph glyph-name="oe-arab" unicode="&#x6c6;" horiz-adv-x="462" 
d="M307 112v92q0 26 -18 44.5t-45 18.5h-26q-30 0 -62 -8v-91q0 -26 18.5 -44.5t44.5 -18.5h25q33 0 63 7zM412 61q0 -55 -26.5 -113t-88 -98t-166.5 -40h-65l-18 105h83q96 0 176 51v45q-29 -11 -63 -11h-25q-69 0 -118.5 49.5t-49.5 118.5v36q0 69 49.5 118.5t118.5 49.5
h25q71 0 119.5 -49.5t48.5 -118.5v-143zM263 424h-62q-5 19 -10 36q-18 56 -50 106l39 26q16 -24 29 -50t22 -53q19 56 51 104l39 -26q-32 -50 -49 -106q-5 -18 -9 -37z" />
    <glyph glyph-name="u-arab" unicode="&#x6c7;" horiz-adv-x="462" 
d="M307 112v92q0 26 -18 44.5t-45 18.5h-26q-30 0 -62 -8v-91q0 -26 18.5 -44.5t44.5 -18.5h25q33 0 63 7zM412 61q0 -55 -26.5 -113t-88 -98t-166.5 -40h-65l-18 105h83q96 0 176 51v45q-29 -11 -63 -11h-25q-69 0 -118.5 49.5t-49.5 118.5v36q0 69 49.5 118.5t118.5 49.5
h25q71 0 119.5 -49.5t48.5 -118.5v-143zM270 500q11 5 14.5 16t-1.5 22l-5 11q-6 13 -15 24l-33 -15q-11 -5 -14.5 -17t0.5 -21l5 -11q6 -13 15 -25zM195 465q-11 10 -17 24l-5 11q-7 15 -7.5 29.5t5 28t15 24.5t24.5 18l11 5q15 7 29.5 7.5t28 -4.5t25 -15t17.5 -24l5 -11
q7 -15 7.5 -29.5t-4.5 -28t-15.5 -25.5t-23.5 -18l-164 -76l-27 39z" />
    <glyph glyph-name="farsiyeh-arab" unicode="&#x6cc;" horiz-adv-x="605" 
d="M558 274h-198q-12 -39 -12 -82v-12l121 -46q55 -22 75.5 -62t20.5 -75q0 -67 -38.5 -107.5t-92 -59.5t-100.5 -19h-32q-105 0 -178.5 73.5t-73.5 178.5v154l105 18v-172q0 -61 43 -104t104 -43h32q86 0 147 38q0 64 -62 88l-176 64v86q0 78 54.5 132.5t132.5 54.5h111z
" />
    <glyph glyph-name="yehsmallv-arab" unicode="&#x6ce;" horiz-adv-x="605" 
d="M558 274h-198q-12 -39 -12 -82v-12l121 -46q55 -22 75.5 -62t20.5 -75q0 -67 -38.5 -107.5t-92 -59.5t-100.5 -19h-32q-105 0 -178.5 73.5t-73.5 178.5v154l105 18v-172q0 -61 43 -104t104 -43h32q86 0 147 38q0 64 -62 88l-176 64v86q0 78 54.5 132.5t132.5 54.5h111z
M211 308h-62q-5 19 -10 36q-18 56 -50 106l39 26q16 -24 29 -50t22 -53q19 56 51 104l39 -26q-32 -50 -49 -106q-5 -18 -9 -37z" />
    <glyph glyph-name="yehbarree-arab" unicode="&#x6d2;" horiz-adv-x="551" 
d="M266 294q21 0 29.5 -3.5t11.5 -6.5l-14 -102q-7 3 -18 5t-27 2h-38q-33 0 -75 -12v-24q0 -20 16.5 -34t36.5 -14h323l-17 -105h-306q-64 0 -106 44.5t-42 108.5q0 58 53.5 99.5t116.5 41.5h56z" />
    <glyph glyph-name="yehbarreehamzaabove-arab" unicode="&#x6d3;" horiz-adv-x="551" 
d="M86 298l-12 46l59 28q-16 14 -25 33t-10 37t4 32.5t16.5 26.5t27.5 19l32 15l27 -39l-65 -30q0 -9 2 -19t8 -22q9 -19 23.5 -23t26.5 1l49 23l13 -46zM266 294q21 0 29.5 -3.5t11.5 -6.5l-14 -102q-7 3 -18 5t-27 2h-38q-33 0 -75 -12v-24q0 -20 16.5 -34t36.5 -14h323
l-17 -105h-306q-64 0 -106 44.5t-42 108.5q0 58 53.5 99.5t116.5 41.5h56z" />
    <glyph glyph-name="fullstop-arab" unicode="&#x6d4;" horiz-adv-x="268" 
d="M218 105v-105h-148l-20 105h168z" />
    <glyph glyph-name="ae-arab" unicode="&#x6d5;" horiz-adv-x="462" 
d="M268 268h-51q-30 0 -62 -8v-92q0 -26 18.5 -44.5t44.5 -18.5h26q33 0 63 7v103q0 27 -23 42zM146 346l-29 17l57 90l167 -106q71 -48 71 -132v-47q0 -69 -49 -118.5t-119 -49.5h-26q-69 0 -118.5 49.5t-49.5 118.5v36q0 70 49 119q17 17 47 23z" />
    <glyph glyph-name="extendedarabicindiczero-arab" unicode="&#x6f0;" horiz-adv-x="462" 
d="M307 245q0 26 -18 44.5t-45 18.5h-27q-30 0 -62 -7v-80q0 -27 18.5 -45t44.5 -18h26q34 0 63 7v80zM244 413q35 0 65.5 -13.5t53.5 -36t36 -53.5t13 -65v-24q0 -35 -13 -65.5t-36 -53.5t-53.5 -36t-65.5 -13h-26q-35 0 -65.5 13t-53.5 36t-36 53.5t-13 65.5v24
q0 34 13 65t36 53.5t53.5 36t65.5 13.5h26z" />
    <glyph glyph-name="extendedarabicindicone-arab" unicode="&#x6f1;" horiz-adv-x="274" 
d="M154 594q36 -147 53 -295.5t17 -298.5h-105q0 144 -16.5 286.5t-50.5 283.5l-2 8l103 24z" />
    <glyph glyph-name="extendedarabicindictwo-arab" unicode="&#x6f2;" horiz-adv-x="480" 
d="M325 609l105 18v-145q0 -38 -14 -71.5t-39.5 -59t-59 -40.5t-72.5 -15q-23 0 -40 4q9 -75 13.5 -149.5t4.5 -150.5h-105q0 144 -16.5 286.5t-51.5 291.5l102 24l37 -157q4 -20 19.5 -32t36.5 -12q37 0 80 12v196z" />
    <glyph glyph-name="extendedarabicindicthree-arab" unicode="&#x6f3;" horiz-adv-x="734" 
d="M579 609l105 18v-145q0 -38 -14 -71.5t-39.5 -59t-59 -40.5t-72.5 -15h-6q-70 0 -121 51q-24 -25 -56.5 -38t-69.5 -13h-1q-22 0 -39 4q9 -75 13.5 -149.5t4.5 -150.5h-106q0 144 -16 286.5t-52 291.5l102 24l38 -157q5 -20 20 -32t36 -12q38 0 79 12v138l105 11v-97
q0 -27 18 -45.5t45 -18.5h6q37 0 80 12v196z" />
    <glyph glyph-name="extendedarabicindicfour-arab" unicode="&#x6f4;" horiz-adv-x="593" 
d="M543 353l-17 -105h-209q-29 0 -56 7t-51 19q7 -58 10 -115.5t3 -116.5v-42l-105 1v42q2 243 -66 474l-2 7l101 29l2 -7l25 -87q13 -42 45 -69q-2 12 -2 26v8q0 39 15 72.5t40.5 59t59.5 39.5t72 14h85l17 -105h-172q-12 -43 -12 -80v-8q0 -26 17.5 -44.5t42.5 -18.5h157z
" />
    <glyph glyph-name="extendedarabicindicfive-arab" unicode="&#x6f5;" horiz-adv-x="680" 
d="M525 193q0 38 -11 73.5t-30.5 66t-48 55t-63.5 39.5l-73 33q-67 -50 -105.5 -126t-38.5 -162v-4q0 -26 18.5 -44.5t44.5 -18.5h6q32 0 63 6v143l105 12v-98q0 -26 18.5 -44.5t44.5 -18.5h7q31 0 63 6v82zM630 193v-25q0 -35 -13.5 -66t-36 -53.5t-53.5 -35.5t-65 -13h-7
q-33 0 -62.5 12t-52.5 33q-23 -21 -52.5 -33t-63.5 -12h-6q-35 0 -65.5 13t-53.5 35.5t-36 53.5t-13 66v15q0 94 38 178t104 146l-62 27l46 95l251 -117q46 -22 84 -55t64 -74.5t40.5 -89.5t14.5 -100z" />
    <glyph glyph-name="extendedarabicindicsix-arab" unicode="&#x6f6;" horiz-adv-x="463" 
d="M443 404l-34 -34q-152 -164 -225 -370l-100 35v1q43 117 110 225q-49 10 -86 47l-4 4q-27 27 -41 61.5t-13 70.5t14.5 70t40.5 60l61 60l86 -62l-122 -122q11 -17 22.5 -33t26.5 -31l4 -4q18 -19 44 -19t46 20l108 107z" />
    <glyph glyph-name="extendedarabicindicseven-arab" unicode="&#x6f7;" horiz-adv-x="530" 
d="M320 0h-105q0 131 -37.5 255t-112.5 233l-45 67l87 59l45 -67q114 -169 116 -334q2 165 112 335l43 65l87 -58l-42 -65q-72 -110 -110 -234t-38 -256z" />
    <glyph glyph-name="extendedarabicindiceight-arab" unicode="&#x6f8;" horiz-adv-x="530" 
d="M320 614q0 -132 38 -256t110 -234l42 -65l-87 -58l-43 65q-110 170 -112 335q-2 -165 -116 -334l-45 -67l-87 59l45 67q75 109 112.5 233t37.5 255h105z" />
    <glyph glyph-name="extendedarabicindicnine-arab" unicode="&#x6f9;" horiz-adv-x="501" 
d="M234 366q34 0 63 8v80q0 26 -18 44.5t-45 18.5h-27q-30 0 -62 -7v-81q0 -26 18.5 -44.5t44.5 -18.5h26zM402 426q0 -102 12 -202t37 -199l-102 -25q-17 69 -28.5 138t-16.5 138q-33 -15 -70 -15h-26q-35 0 -65.5 13.5t-53.5 36.5t-36 53.5t-13 64.5v25q0 34 13 65
t36 53.5t53.5 36t65.5 13.5h26q35 0 65.5 -13.5t53.5 -36t36 -53.5t13 -65v-28z" />
    <glyph glyph-name="behsmallv-arab" unicode="&#x756;" horiz-adv-x="780" 
d="M545 105q40 0 80 12v179l105 18v-127q0 -77 -53.5 -132t-131.5 -55h-327q-69 0 -118.5 49.5t-49.5 118.5v128l105 18v-146q0 -26 18.5 -44.5t44.5 -18.5h327zM417 284h-62q-5 19 -10 36q-18 56 -50 106l39 26q16 -24 29 -50t22 -53q19 56 51 104l39 -26q-32 -50 -49 -106
q-5 -18 -9 -37z" />
    <glyph glyph-name="noonsmallv-arab" unicode="&#x769;" horiz-adv-x="636" 
d="M302 -189q-105 0 -178.5 73.5t-73.5 178.5v154l105 18v-172q0 -61 43 -104t104 -43h32q86 0 147 38v342l105 18v-251q0 -105 -74.5 -178.5t-177.5 -73.5h-32zM323 293l67 -67l-67 -68l-67 68zM355 342h-62q-5 19 -10 36q-18 56 -50 106l39 26q16 -24 29 -50t22 -53
q19 56 51 104l39 -26q-32 -50 -49 -106q-5 -18 -9 -37z" />
    <glyph glyph-name="behsmallvbelow-arab" unicode="&#x8a0;" horiz-adv-x="780" 
d="M545 105q40 0 80 12v179l105 18v-127q0 -77 -53.5 -132t-131.5 -55h-327q-69 0 -118.5 49.5t-49.5 118.5v128l105 18v-146q0 -26 18.5 -44.5t44.5 -18.5h327zM417 -253h-62q-5 19 -10 37q-18 55 -50 105l39 26q16 -24 29 -49q13 -27 22 -54q19 56 51 104l39 -26
q-32 -50 -49 -105q-5 -19 -9 -38z" />
    <glyph glyph-name="thinspace" unicode="&#x2009;" 
 />
    <glyph glyph-name="thinspace" unicode="&#x200a;" 
 />
    <glyph glyph-name="zerowidthspace" unicode="&#x200b;" 
 />
    <glyph glyph-name="zwnj" unicode="&#x200c;" 
d="M17 758v-675h-33v675h33z" />
    <glyph glyph-name="zwj" unicode="&#x200d;" 
d="M16 83h-33v539l-61 -62l-22 22l78 77l-78 76l22 23l78 -78l77 78l22 -23l-78 -76l78 -77l-22 -22l-61 62v-539z" />
    <glyph glyph-name="lefttorightmark" unicode="&#x200e;" 
d="M196 660l-99 -97l-22 22l62 59h-121v-561h-32v593h153l-62 59l22 23z" />
    <glyph glyph-name="righttoleftmark" unicode="&#x200f;" 
d="M16 83h-32v561h-121l62 -59l-22 -22l-99 97l99 98l22 -23l-62 -59h153v-593z" />
    <glyph glyph-name="quoteleft" unicode="&#x2018;" horiz-adv-x="240" 
d="M169 710q-31 -54 -32 -102h53v-73q-28 -11 -63 -11q-77 0 -77 77q0 32 14 65t38 59z" />
    <glyph glyph-name="quoteright" unicode="&#x2019;" horiz-adv-x="240" 
d="M71 555q31 54 32 102h-53v73q28 11 63 11q77 0 77 -77q0 -32 -14 -65t-38 -59z" />
    <glyph glyph-name="quotedblleft" unicode="&#x201c;" horiz-adv-x="421" 
d="M169 710q-31 -54 -32 -102h53v-73q-28 -11 -63 -11q-77 0 -77 77q0 32 14 65t38 59zM350 710q-31 -54 -32 -102h53v-73q-28 -11 -63 -11q-77 0 -77 77q0 32 14 65t38 59z" />
    <glyph glyph-name="quotedblright" unicode="&#x201d;" horiz-adv-x="421" 
d="M71 555q31 54 32 102h-53v73q28 11 63 11q77 0 77 -77q0 -32 -14 -65t-38 -59zM252 555q31 54 32 102h-53v73q28 11 63 11q77 0 77 -77q0 -32 -14 -65t-38 -59z" />
    <glyph glyph-name="bullet" unicode="&#x2022;" horiz-adv-x="369" 
d="M67 273q0 50 34 83t83 33q50 0 84.5 -33.5t34.5 -83.5q0 -51 -34.5 -84.5t-84.5 -33.5t-83.5 34t-33.5 85z" />
    <glyph glyph-name="ellipsis" unicode="&#x2026;" horiz-adv-x="590" 
d="M50 116h118v-116h-118v116zM236 116h118v-116h-118v116zM422 116h118v-116h-118v116z" />
    <glyph glyph-name="lineseparator" unicode="&#x2028;" 
 />
    <glyph glyph-name="paragraphseparator" unicode="&#x2029;" 
 />
    <glyph glyph-name="guilsinglleft" unicode="&#x2039;" horiz-adv-x="328" 
d="M47 261l138 187l82 -31l-109 -156l109 -155l-82 -30z" />
    <glyph glyph-name="guilsinglright" unicode="&#x203a;" horiz-adv-x="318" 
d="M51 106l109 155l-109 156l82 31l138 -187l-138 -185z" />
    <glyph glyph-name="fraction" unicode="&#x2044;" horiz-adv-x="190" 
d="M-134 18l380 609l78 -25l-381 -609z" />
    <glyph glyph-name="wordjoiner" unicode="&#x2060;" 
 />
    <glyph glyph-name="minus" unicode="&#x2212;" horiz-adv-x="558" 
d="M46 339h466v-93h-466v93z" />
    <glyph glyph-name="dottedcircle" unicode="&#x25cc;" horiz-adv-x="553" 
d="M445 417q0 -22 -22 -22q-23 0 -23 22q0 23 23 23q22 0 22 -23zM378 462q0 -22 -22 -22q-24 0 -24 22q0 23 24 23q22 0 22 -23zM490 350q0 -23 -23 -23q-22 0 -22 23q0 22 23 22q22 0 22 -22zM506 271q0 -23 -21 -23q-24 0 -24 23t24 23q21 0 21 -23zM299 479
q0 -24 -23 -24t-23 24q0 22 23 22t23 -22zM220 462q0 -22 -23 -22q-22 0 -22 22q0 23 22 23q23 0 23 -23zM490 192q0 -22 -23 -22q-22 0 -22 22q0 23 22 23q23 0 23 -23zM153 417q0 -22 -23 -22t-23 21q0 24 23 24t23 -23zM445 124q0 -23 -22 -23q-23 0 -23 23t23 23
q22 0 22 -23zM378 79q0 -22 -22 -22q-24 0 -24 22q0 24 24 24q22 0 22 -24zM108 350q0 -23 -22 -23q-24 0 -24 23q0 22 23 22t23 -22zM91 269q0 -21 -21 -21q-24 0 -24 23t24 23q21 0 21 -21v-4zM299 64q0 -23 -23 -23t-23 23q0 22 23 22t23 -22zM108 192q0 -22 -23 -22
t-23 22q0 23 23 23t23 -23zM220 81q0 -24 -23 -24q-22 0 -22 22q0 24 22 24q23 0 23 -22zM153 124q0 -23 -23 -23t-23 23t23 23t23 -23z" />
    <glyph glyph-name="symboldotaccentmod-arab" unicode="&#xfbb2;" 
d="M157 243l67 -67l-67 -68l-67 68z" />
    <glyph glyph-name="symboldotbelowmod-arab" unicode="&#xfbb3;" 
d="M157 -33l67 -67l-67 -67l-67 67z" />
    <glyph glyph-name="symboltwodotsabovemod-arab" unicode="&#xfbb4;" 
d="M328 382h-213v94h213q5 0 8 -2l-3 -94z" />
    <glyph glyph-name="symboltwodotsbelowmod-arab" unicode="&#xfbb5;" 
d="M103 -165h-213v94h213q5 0 8 -2l-3 -94z" />
    <glyph glyph-name="symbolthreedotsabovemod-arab" unicode="&#xfbb6;" 
d="M104 365h-213v94h213q5 0 8 -2l-3 -94zM0 598l67 -67l-67 -68l-67 68z" />
    <glyph glyph-name="symbolthreedotspointingdownwardsbelowmod-arab" unicode="&#xfbb9;" 
d="M103 -165h-213v94h213q5 0 8 -2l-3 -94zM0 -170l67 -67l-67 -67l-67 67z" />
    <glyph glyph-name="ornateparenleft" unicode="&#xfd3e;" horiz-adv-x="291" 
d="M76 59q-26 94 -26 191q0 96 26 189.5t88 203.5l87 -44q-47 -73 -74 -169t-27 -180q0 -85 27 -181t74 -169l-87 -44q-62 109 -88 203z" />
    <glyph glyph-name="ornateparenright" unicode="&#xfd3f;" horiz-adv-x="291" 
d="M127 -144l-87 44q47 73 74 169t27 181q0 84 -27 180t-74 169l87 44q62 -110 88 -203.5t26 -189.5q0 -97 -26 -191t-88 -203z" />
    <glyph glyph-name="alef-arab.short" horiz-adv-x="205" 
d="M50 557l105 17v-565l-105 -9v557z" />
    <glyph glyph-name="alef-arab.short.fina" horiz-adv-x="231" 
d="M231 105l23 -13v-79l-23 -13h-13q-69 0 -118.5 49.5t-49.5 118.5v389l105 17v-406q0 -26 18.5 -44.5t44.5 -18.5h13z" />
    <glyph glyph-name="dotlessbeh-arab.alt.001" horiz-adv-x="325" 
d="M0 0l-23 13v79l23 13h64q40 0 80 12v179l105 18v-146q0 -26 18.5 -44.5t44.5 -18.5h13l23 -13v-79l-23 -13h-13q-70 0 -120 51q-53 -51 -128 -51h-64z" />
    <glyph glyph-name="dotlessbeh-arab.init.alt" horiz-adv-x="287" 
d="M0 0l-23 13v79l23 13h52q40 0 80 12v196l105 18v-144q0 -77 -53.5 -132t-131.5 -55h-52z" />
    <glyph glyph-name="dotcenterar" 
d="M0 -36l67 -67l-67 -67l-67 67z" />
    <glyph glyph-name="arabichamzacomb_arabicdammacomb" 
d="M-82 700l-12 46l59 28q-16 14 -25 33t-10 37t4 32.5t16.5 26.5t27.5 19l32 15l27 -39l-65 -30q0 -9 2 -19t8 -22q9 -19 23.5 -23t26.5 1l49 23l13 -46zM55 1025q11 5 14.5 16t-1.5 22l-5 11q-6 13 -15 24l-33 -15q-11 -5 -14.5 -17t0.5 -21l5 -11q6 -13 15 -25zM-20 990
q-11 10 -17 24l-5 11q-7 15 -7.5 29.5t5 28t15 24.5t24.5 18l11 5q15 7 29.5 7.5t28 -4.5t25 -15t17.5 -24l5 -11q7 -15 7.5 -29.5t-4.5 -28t-15.5 -25.5t-23.5 -18l-164 -76l-27 39z" />
    <glyph glyph-name="arabichamzacomb_arabicdammatancomb" 
d="M-82 700l-12 46l59 28q-16 14 -25 33t-10 37t4 32.5t16.5 26.5t27.5 19l32 15l27 -39l-65 -30q0 -9 2 -19t8 -22q9 -19 23.5 -23t26.5 1l49 23l13 -46zM67 1030q11 5 15 16.5t-1 22.5l-5 11q-5 11 -14 24l-34 -16q-11 -5 -15 -16.5t1 -22.5l5 -10q7 -14 16 -24zM-7 996
q-11 10 -17 24l-4 10q-6 14 -7 29t4 29t15 24.5t24 17.5l10 5q15 7 30 7.5t28.5 -5t24.5 -15t18 -24.5l5 -10q7 -14 7.5 -29t-4.5 -28.5t-15 -25t-25 -18.5l-164 -76l-42 20l12 26q7 16 10 35l-56 26l12 46l36 -16q15 -7 26 -19t17 -28q5 -14 5 -29z" />
    <glyph glyph-name="arabichamzacomb_arabicfathacomb" 
d="M-81 913l-13 46l175 82l13 -46zM-82 700l-12 46l59 28q-16 14 -25 33t-10 37t4 32.5t16.5 26.5t27.5 19l32 15l27 -39l-65 -30q0 -9 2 -19t8 -22q9 -19 23.5 -23t26.5 1l49 23l13 -46z" />
    <glyph glyph-name="arabichamzacomb_arabicfathatancomb" 
d="M-82 700l-12 46l59 28q-16 14 -25 33t-10 37t4 32.5t16.5 26.5t27.5 19l32 15l27 -39l-65 -30q0 -9 2 -19t8 -22q9 -19 23.5 -23t26.5 1l49 23l13 -46zM-81 913l-13 46l175 82l13 -46zM-81 1008l-13 46l175 82l13 -46z" />
    <glyph glyph-name="arabichamzacomb_arabicsukuncomb" 
d="M-82 700l-12 46l59 28q-16 14 -25 33t-10 37t4 32.5t16.5 26.5t27.5 19l32 15l27 -39l-65 -30q0 -9 2 -19t8 -22q9 -19 23.5 -23t26.5 1l49 23l13 -46zM35 1033q0 11 -8 19.5t-20 8.5h-12q-14 0 -28 -3v-37q0 -12 8 -20.5t20 -8.5h12q15 0 28 4v37zM7 1108q16 0 29.5 -6
t24 -16t16.5 -24t6 -29v-12q0 -16 -6 -29.5t-16.5 -24t-24 -16.5t-29.5 -6h-12q-16 0 -29.5 6t-24 16.5t-16.5 24t-6 29.5v12q0 15 6 29t16.5 24t24 16t29.5 6h12z" />
    <glyph glyph-name="arabichamzabelowcomb_arabickasracomb" 
d="M-82 -237l-12 46l59 28q-16 14 -25 33t-10 37t4 32.5t16.5 26.5t27.5 19l32 15l27 -39l-65 -30q0 -9 2 -19t8 -22q9 -19 23.5 -23t26.5 1l49 23l13 -46zM-82 -322l-12 46l175 82l13 -46z" />
    <glyph glyph-name="arabichamzabelowcomb_arabickasratancomb" 
d="M-82 -237l-12 46l59 28q-16 14 -25 33t-10 37t4 32.5t16.5 26.5t27.5 19l32 15l27 -39l-65 -30q0 -9 2 -19t8 -22q9 -19 23.5 -23t26.5 1l49 23l13 -46zM-77 -319l-12 46l175 82l13 -46zM-77 -414l-12 46l175 82l13 -46z" />
    <glyph glyph-name="arabicshaddacomb_arabicfathacomb" 
d="M62 747q15 0 28 4v90l48 8v-73q0 -16 -6 -29.5t-16.5 -24t-24.5 -16.5t-29 -6h-10q-16 0 -29 6t-23 15q-10 -9 -23 -15q-14 -6 -29 -6h-14q-15 0 -29 6t-24.5 16.5t-16.5 24t-6 29.5v52l48 8v-60q0 -12 8 -20.5t20 -8.5h14q15 0 28 4v68l48 5v-48q0 -12 8 -20.5t20 -8.5
h10zM-82 849l-13 46l175 82l13 -46z" />
    <glyph glyph-name="arabicshaddacomb_arabicfathatancomb.1" 
d="M62 747q15 0 28 4v90l48 8v-73q0 -16 -6 -29.5t-16.5 -24t-24.5 -16.5t-29 -6h-10q-16 0 -29 6t-23 15q-10 -9 -23 -15q-14 -6 -29 -6h-14q-15 0 -29 6t-24.5 16.5t-16.5 24t-6 29.5v52l48 8v-60q0 -12 8 -20.5t20 -8.5h14q15 0 28 4v68l48 5v-48q0 -12 8 -20.5t20 -8.5
h10zM-82 849l-13 46l175 82l13 -46zM-82 944l-13 46l175 82l13 -46z" />
    <glyph glyph-name="arabicshaddacomb_arabickasracomb" 
d="M-81 700l-13 46l175 82l13 -46zM62 896q15 0 28 4v90l48 8v-73q0 -16 -6 -29.5t-16.5 -24t-24.5 -16.5t-29 -6h-10q-16 0 -29 6t-23 15q-10 -9 -23 -15q-14 -6 -29 -6h-14q-15 0 -29 6t-24.5 16.5t-16.5 24t-6 29.5v52l48 8v-60q0 -12 8 -20.5t20 -8.5h14q15 0 28 4v68
l48 5v-48q0 -12 8 -20.5t20 -8.5h10z" />
    <glyph glyph-name="periodar" horiz-adv-x="218" 
d="M50 116h118v-116h-118v116z" />
    <glyph glyph-name="_342" horiz-adv-x="623" 
d="M623 105l23 -13v-79l-23 -13h-12q-70 0 -119 49.5t-49 118.5v51h-84q-40 0 -80 -11v-147q0 -55 -26.5 -113t-88 -98t-166.5 -40l-18 105h18q95 0 176 51v172q0 76 53.5 131t131.5 55h189v-156q0 -26 18 -44.5t45 -18.5h12z" />
    <glyph glyph-name="_343" horiz-adv-x="920" 
d="M586 63q0 -105 -74.5 -178.5t-177.5 -73.5h-32q-105 0 -178.5 73.5t-73.5 178.5v154l105 18v-172q0 -61 43 -104t104 -43h32q86 0 147 38v184q0 76 53.5 131t131.5 55h179v-156q0 -26 18.5 -44.5t44.5 -18.5h12l23 -13v-79l-23 -13h-12q-69 0 -118.5 49.5t-49.5 118.5v51
h-74q-40 0 -80 -11v-145z" />
    <glyph glyph-name="_348" horiz-adv-x="639" 
d="M364 267l-31 -79v-20q0 -26 18 -44.5t45 -18.5h25q32 0 63 7v92q0 26 -18.5 44.5t-44.5 18.5h-57zM274 52q-25 -45 -56 -79q-50 -53 -100 -82t-85 -40l-33 -10l-78 90l33 7q31 7 78.5 28.5t95 67.5t80.5 124l39 98q22 55 68 85.5t105 30.5q69 0 118.5 -49.5t49.5 -118.5
v-36q0 -69 -49.5 -118.5t-118.5 -49.5h-25q-70 0 -119 49z" />
    <glyph glyph-name="_349" horiz-adv-x="664" 
d="M364 267l-31 -79v-20q0 -26 18 -44.5t45 -18.5h25q32 0 63 7v92q0 26 -18.5 44.5t-44.5 18.5h-57zM274 52q-25 -45 -56 -79q-50 -53 -100 -82t-85 -40l-33 -10l-78 90l33 7q31 7 78.5 28.5t95 67.5t80.5 124l39 98q22 55 68 85.5t105 30.5q69 0 118.5 -49.5t49.5 -118.5
v-36q0 -26 18.5 -44.5t44.5 -18.5h12l23 -13v-79l-23 -13h-12q-68 0 -116 46q-48 -46 -115 -46h-25q-70 0 -120 50z" />
    <glyph glyph-name="_350" horiz-adv-x="561" 
d="M380 204q0 26 -18.5 44.5t-44.5 18.5h-58l-30 -80v-19q0 -26 18.5 -44.5t44.5 -18.5h25q33 0 63 7v92zM561 105l23 -13v-79l-23 -13h-13q-67 0 -115 46q-48 -46 -116 -46h-25q-69 0 -119 50q-5 5 -10 11q-53 -61 -145 -61h-18l-23 13v79l23 13h18q37 0 70 14l55 137
q22 55 68 85.5t105 30.5h1q70 0 119 -49.5t49 -118.5v-36q0 -26 18.5 -44.5t44.5 -18.5h13z" />
    <glyph glyph-name="_351" horiz-adv-x="535" 
d="M259 267l-30 -80v-19q0 -26 18.5 -44.5t44.5 -18.5h25q33 0 63 7v92q0 26 -18.5 44.5t-44.5 18.5h-58zM0 0l-23 13v79l23 13h18q37 0 70 14l55 137q22 55 68 85.5t105 30.5h1q70 0 119 -49.5t49 -118.5v-36q0 -69 -49 -118.5t-119 -49.5h-25q-69 0 -119 50q-5 5 -10 11
q-53 -61 -145 -61h-18z" />
    <glyph glyph-name="_353" horiz-adv-x="740" 
d="M740 105l23 -13v-79l-23 -13h-17q-50 0 -91.5 27.5t-62.5 72.5l-31 68q-22 47 -72 47h-106q-12 -39 -12 -82v-12l121 -45q55 -22 75.5 -62.5t20.5 -75.5q0 -67 -38.5 -107.5t-92 -59.5t-100.5 -19h-32q-105 0 -178.5 73.5t-73.5 178.5v155l105 17v-172q0 -61 43 -104
t104 -43h32q86 0 147 38q0 64 -62 88l-176 64v86q0 78 54.5 132.5t132.5 54.5h36q54 0 100 -29.5t69 -79.5l30 -68q18 -38 58 -38h17z" />
    <glyph glyph-name="_362" horiz-adv-x="740" 
d="M740 105l23 -13v-79l-23 -13h-17q-50 0 -91.5 27.5t-62.5 72.5l-31 68q-22 47 -72 47h-106q-12 -39 -12 -82v-12l121 -45q55 -22 75.5 -62.5t20.5 -75.5q0 -67 -38.5 -107.5t-92 -59.5t-100.5 -19h-32q-105 0 -178.5 73.5t-73.5 178.5v155l105 17v-172q0 -61 43 -104
t104 -43h32q86 0 147 38q0 64 -62 88l-176 64v86q0 78 54.5 132.5t132.5 54.5h36q54 0 100 -29.5t69 -79.5l30 -68q18 -38 58 -38h17zM355 355l-12 46l59 28q-16 14 -25 33t-10 37t4 32.5t16.5 26.5t27.5 19l32 15l27 -39l-65 -30q0 -9 2 -19t8 -22q9 -19 23.5 -23t26.5 1
l49 23l13 -46z" />
    <glyph glyph-name="_363" horiz-adv-x="740" 
d="M614 -135l67 -67l-67 -67l-67 67zM740 105l23 -13v-79l-23 -13h-17q-50 0 -91.5 27.5t-62.5 72.5l-31 68q-22 47 -72 47h-106q-12 -39 -12 -82v-12l121 -45q55 -22 75.5 -62.5t20.5 -75.5q0 -67 -38.5 -107.5t-92 -59.5t-100.5 -19h-32q-105 0 -178.5 73.5t-73.5 178.5
v155l105 17v-172q0 -61 43 -104t104 -43h32q86 0 147 38q0 64 -62 88l-176 64v86q0 78 54.5 132.5t132.5 54.5h36q54 0 100 -29.5t69 -79.5l30 -68q18 -38 58 -38h17z" />
    <glyph glyph-name="_364" horiz-adv-x="740" 
d="M709 -306h-213v94h213q5 0 8 -2l-3 -94zM606 -311l67 -67l-67 -67l-67 67zM740 105l23 -13v-79l-23 -13h-17q-50 0 -91.5 27.5t-62.5 72.5l-31 68q-22 47 -72 47h-106q-12 -39 -12 -82v-12l121 -45q55 -22 75.5 -62.5t20.5 -75.5q0 -67 -38.5 -107.5t-92 -59.5
t-100.5 -19h-32q-105 0 -178.5 73.5t-73.5 178.5v155l105 17v-172q0 -61 43 -104t104 -43h32q86 0 147 38q0 64 -62 88l-176 64v86q0 78 54.5 132.5t132.5 54.5h36q54 0 100 -29.5t69 -79.5l30 -68q18 -38 58 -38h17z" />
    <glyph glyph-name="_365" horiz-adv-x="740" 
d="M551 396h-213v94h213q5 0 8 -2l-3 -94zM740 105l23 -13v-79l-23 -13h-17q-50 0 -91.5 27.5t-62.5 72.5l-31 68q-22 47 -72 47h-106q-12 -39 -12 -82v-12l121 -45q55 -22 75.5 -62.5t20.5 -75.5q0 -67 -38.5 -107.5t-92 -59.5t-100.5 -19h-32q-105 0 -178.5 73.5
t-73.5 178.5v155l105 17v-172q0 -61 43 -104t104 -43h32q86 0 147 38q0 64 -62 88l-176 64v86q0 78 54.5 132.5t132.5 54.5h36q54 0 100 -29.5t69 -79.5l30 -68q18 -38 58 -38h17z" />
    <glyph glyph-name="_366" horiz-adv-x="740" 
d="M551 396h-213v94h213q5 0 8 -2l-3 -94zM447 629l67 -67l-67 -68l-67 68zM740 105l23 -13v-79l-23 -13h-17q-50 0 -91.5 27.5t-62.5 72.5l-31 68q-22 47 -72 47h-106q-12 -39 -12 -82v-12l121 -45q55 -22 75.5 -62.5t20.5 -75.5q0 -67 -38.5 -107.5t-92 -59.5t-100.5 -19
h-32q-105 0 -178.5 73.5t-73.5 178.5v155l105 17v-172q0 -61 43 -104t104 -43h32q86 0 147 38q0 64 -62 88l-176 64v86q0 78 54.5 132.5t132.5 54.5h36q54 0 100 -29.5t69 -79.5l30 -68q18 -38 58 -38h17z" />
    <glyph glyph-name="_367" horiz-adv-x="740" 
d="M740 105l23 -13v-79l-23 -13h-17q-50 0 -91.5 27.5t-62.5 72.5l-31 68q-22 47 -72 47h-106q-12 -39 -12 -82v-12l121 -45q55 -22 75.5 -62.5t20.5 -75.5q0 -67 -38.5 -107.5t-92 -59.5t-100.5 -19h-32q-105 0 -178.5 73.5t-73.5 178.5v155l105 17v-172q0 -61 43 -104
t104 -43h32q86 0 147 38q0 64 -62 88l-176 64v86q0 78 54.5 132.5t132.5 54.5h36q54 0 100 -29.5t69 -79.5l30 -68q18 -38 58 -38h17zM444 511l67 -67l-67 -68l-67 68z" />
    <glyph glyph-name="_368" horiz-adv-x="740" 
d="M740 105l23 -13v-79l-23 -13h-17q-50 0 -91.5 27.5t-62.5 72.5l-31 68q-22 47 -72 47h-106q-12 -39 -12 -82v-12l121 -45q55 -22 75.5 -62.5t20.5 -75.5q0 -67 -38.5 -107.5t-92 -59.5t-100.5 -19h-32q-105 0 -178.5 73.5t-73.5 178.5v155l105 17v-172q0 -61 43 -104
t104 -43h32q86 0 147 38q0 64 -62 88l-176 64v86q0 78 54.5 132.5t132.5 54.5h36q54 0 100 -29.5t69 -79.5l30 -68q18 -38 58 -38h17zM709 -306h-213v94h213q5 0 8 -2l-3 -94z" />
    <glyph glyph-name="_369" horiz-adv-x="1217" 
d="M999 105q33 0 63 7v201l105 18v-163q0 -69 -48.5 -118.5t-119.5 -49.5h-22q-67 0 -115 46q-48 -46 -116 -46h-23q-50 0 -91.5 27.5t-62.5 72.5l-31 68q-22 47 -72 47h-106q-12 -39 -12 -82v-12l121 -45q55 -22 75.5 -62.5t20.5 -75.5q0 -67 -38.5 -107.5t-92 -59.5
t-100.5 -19h-32q-105 0 -178.5 73.5t-73.5 178.5v155l105 17v-172q0 -61 43 -104t104 -43h32q86 0 147 38q0 64 -62 88l-176 64v86q0 78 54.5 132.5t132.5 54.5h36q54 0 100 -29.5t69 -79.5l30 -68q18 -38 58 -38h23q33 0 63 7v153l105 11v-108q0 -26 18.5 -44.5t44.5 -18.5
h22z" />
    <glyph glyph-name="_370" horiz-adv-x="1243" 
d="M1243 105l23 -13v-79l-23 -13h-13q-67 0 -115 46q-48 -46 -116 -46h-22q-67 0 -115 46q-48 -46 -116 -46h-23q-50 0 -91.5 27.5t-62.5 72.5l-31 68q-22 47 -72 47h-106q-12 -39 -12 -82v-12l121 -45q55 -22 75.5 -62.5t20.5 -75.5q0 -67 -38.5 -107.5t-92 -59.5
t-100.5 -19h-32q-105 0 -178.5 73.5t-73.5 178.5v155l105 17v-172q0 -61 43 -104t104 -43h32q86 0 147 38q0 64 -62 88l-176 64v86q0 78 54.5 132.5t132.5 54.5h36q54 0 100 -29.5t69 -79.5l30 -68q18 -38 58 -38h23q33 0 63 7v153l105 11v-108q0 -26 18.5 -44.5t44.5 -18.5
h22q33 0 63 7v201l105 18v-163q0 -26 18.5 -44.5t44.5 -18.5h13z" />
    <glyph glyph-name="_371" horiz-adv-x="1217" 
d="M979 401h-249v95h249q3 0 8 -2l-2 -95zM859 635l67 -67l-67 -67l-68 67zM999 105q33 0 63 7v201l105 18v-163q0 -69 -48.5 -118.5t-119.5 -49.5h-22q-67 0 -115 46q-48 -46 -116 -46h-23q-50 0 -91.5 27.5t-62.5 72.5l-31 68q-22 47 -72 47h-106q-12 -39 -12 -82v-12
l121 -45q55 -22 75.5 -62.5t20.5 -75.5q0 -67 -38.5 -107.5t-92 -59.5t-100.5 -19h-32q-105 0 -178.5 73.5t-73.5 178.5v155l105 17v-172q0 -61 43 -104t104 -43h32q86 0 147 38q0 64 -62 88l-176 64v86q0 78 54.5 132.5t132.5 54.5h36q54 0 100 -29.5t69 -79.5l30 -68
q18 -38 58 -38h23q33 0 63 7v153l105 11v-108q0 -26 18.5 -44.5t44.5 -18.5h22z" />
    <glyph glyph-name="_372" horiz-adv-x="1243" 
d="M979 401h-249v95h249q3 0 8 -2l-2 -95zM859 635l67 -67l-67 -67l-68 67zM1243 105l23 -13v-79l-23 -13h-13q-67 0 -115 46q-48 -46 -116 -46h-22q-67 0 -115 46q-48 -46 -116 -46h-23q-50 0 -91.5 27.5t-62.5 72.5l-31 68q-22 47 -72 47h-106q-12 -39 -12 -82v-12
l121 -45q55 -22 75.5 -62.5t20.5 -75.5q0 -67 -38.5 -107.5t-92 -59.5t-100.5 -19h-32q-105 0 -178.5 73.5t-73.5 178.5v155l105 17v-172q0 -61 43 -104t104 -43h32q86 0 147 38q0 64 -62 88l-176 64v86q0 78 54.5 132.5t132.5 54.5h36q54 0 100 -29.5t69 -79.5l30 -68
q18 -38 58 -38h23q33 0 63 7v153l105 11v-108q0 -26 18.5 -44.5t44.5 -18.5h22q33 0 63 7v201l105 18v-163q0 -26 18.5 -44.5t44.5 -18.5h13z" />
    <glyph glyph-name="_373" horiz-adv-x="513" 
d="M513 105l23 -13v-79l-23 -13h-6q-51 0 -93 27t-62 72l-11 25q-11 26 -19 36.5t-29 10.5h-37q-64 0 -121 -64v-52q0 -57 43.5 -98t100.5 -41h356l-17 -106h-339q-101 0 -170 71.5t-69 173.5q0 89 65.5 155t150.5 66h37q54 0 88 -29.5t57 -79.5l12 -25q17 -37 57 -37h6z
" />
    <glyph glyph-name="_374" horiz-adv-x="920" 
d="M323 293l67 -67l-67 -68l-67 68zM586 63q0 -105 -74.5 -178.5t-177.5 -73.5h-32q-105 0 -178.5 73.5t-73.5 178.5v154l105 18v-172q0 -61 43 -104t104 -43h32q86 0 147 38v184q0 76 53.5 131t131.5 55h179v-156q0 -26 18.5 -44.5t44.5 -18.5h12l23 -13v-79l-23 -13h-12
q-69 0 -118.5 49.5t-49.5 118.5v51h-74q-40 0 -80 -11v-145zM669 -80l67 -67l-67 -67l-67 67z" />
    <glyph glyph-name="_375" horiz-adv-x="920" 
d="M323 293l67 -67l-67 -68l-67 68zM586 63q0 -105 -74.5 -178.5t-177.5 -73.5h-32q-105 0 -178.5 73.5t-73.5 178.5v154l105 18v-172q0 -61 43 -104t104 -43h32q86 0 147 38v184q0 76 53.5 131t131.5 55h179v-156q0 -26 18.5 -44.5t44.5 -18.5h12l23 -13v-79l-23 -13h-12
q-69 0 -118.5 49.5t-49.5 118.5v51h-74q-40 0 -80 -11v-145zM791 -194h-213v94h213q5 0 8 -2l-3 -94zM688 -199l67 -67l-67 -67l-67 67z" />
    <glyph glyph-name="_376" horiz-adv-x="920" 
d="M323 293l67 -67l-67 -68l-67 68zM586 63q0 -105 -74.5 -178.5t-177.5 -73.5h-32q-105 0 -178.5 73.5t-73.5 178.5v154l105 18v-172q0 -61 43 -104t104 -43h32q86 0 147 38v184q0 76 53.5 131t131.5 55h179v-156q0 -26 18.5 -44.5t44.5 -18.5h12l23 -13v-79l-23 -13h-12
q-69 0 -118.5 49.5t-49.5 118.5v51h-74q-40 0 -80 -11v-145zM834 396h-213v94h213q5 0 8 -2l-3 -94z" />
    <glyph glyph-name="_377" horiz-adv-x="920" 
d="M323 293l67 -67l-67 -68l-67 68zM586 63q0 -105 -74.5 -178.5t-177.5 -73.5h-32q-105 0 -178.5 73.5t-73.5 178.5v154l105 18v-172q0 -61 43 -104t104 -43h32q86 0 147 38v184q0 76 53.5 131t131.5 55h179v-156q0 -26 18.5 -44.5t44.5 -18.5h12l23 -13v-79l-23 -13h-12
q-69 0 -118.5 49.5t-49.5 118.5v51h-74q-40 0 -80 -11v-145zM834 396h-213v94h213q5 0 8 -2l-3 -94zM730 629l67 -67l-67 -68l-67 68z" />
    <glyph glyph-name="_378" horiz-adv-x="920" 
d="M323 293l67 -67l-67 -68l-67 68zM586 63q0 -105 -74.5 -178.5t-177.5 -73.5h-32q-105 0 -178.5 73.5t-73.5 178.5v154l105 18v-172q0 -61 43 -104t104 -43h32q86 0 147 38v184q0 76 53.5 131t131.5 55h179v-156q0 -26 18.5 -44.5t44.5 -18.5h12l23 -13v-79l-23 -13h-12
q-69 0 -118.5 49.5t-49.5 118.5v51h-74q-40 0 -80 -11v-145zM763 510l67 -67l-67 -68l-67 68z" />
    <glyph glyph-name="_379" horiz-adv-x="920" 
d="M323 293l67 -67l-67 -68l-67 68zM586 63q0 -105 -74.5 -178.5t-177.5 -73.5h-32q-105 0 -178.5 73.5t-73.5 178.5v154l105 18v-172q0 -61 43 -104t104 -43h32q86 0 147 38v184q0 76 53.5 131t131.5 55h179v-156q0 -26 18.5 -44.5t44.5 -18.5h12l23 -13v-79l-23 -13h-12
q-69 0 -118.5 49.5t-49.5 118.5v51h-74q-40 0 -80 -11v-145zM791 -194h-213v94h213q5 0 8 -2l-3 -94z" />
    <glyph glyph-name="_380" horiz-adv-x="920" 
d="M323 293l67 -67l-67 -68l-67 68zM586 63q0 -105 -74.5 -178.5t-177.5 -73.5h-32q-105 0 -178.5 73.5t-73.5 178.5v154l105 18v-172q0 -61 43 -104t104 -43h32q86 0 147 38v184q0 76 53.5 131t131.5 55h179v-156q0 -26 18.5 -44.5t44.5 -18.5h12l23 -13v-79l-23 -13h-12
q-69 0 -118.5 49.5t-49.5 118.5v51h-74q-40 0 -80 -11v-145zM669 359l-12 46l59 28q-16 14 -25 33t-10 37t4 32.5t16.5 26.5t27.5 19l32 15l27 -39l-65 -30q0 -9 2 -19t8 -22q9 -19 23.5 -23t26.5 1l49 23l13 -46z" />
    <glyph glyph-name="_381" horiz-adv-x="1152" 
d="M903 105q57 0 104 24v97q0 26 -18.5 44.5t-44.5 18.5h-77l-149 -184h185zM647 184l91 112q85 98 206 98q70 0 119 -49.5t49 -118.5v-18q0 -86 -61 -147t-148 -61h-180q-50 0 -91.5 27.5t-62.5 72.5l-31 68q-22 47 -72 47h-106q-12 -39 -12 -82v-12l121 -45
q55 -22 75.5 -62.5t20.5 -75.5q0 -67 -38.5 -107.5t-92 -59.5t-100.5 -19h-32q-105 0 -178.5 73.5t-73.5 178.5v155l105 17v-172q0 -61 43 -104t104 -43h32q86 0 147 38q0 64 -62 88l-176 64v86q0 78 54.5 132.5t132.5 54.5h36q54 0 100 -29.5t69 -79.5z" />
    <glyph glyph-name="_382" horiz-adv-x="1187" 
d="M1007 226q0 26 -18.5 44.5t-44.5 18.5h-77l-149 -184h185q57 0 104 24v97zM1187 105l23 -13v-79l-23 -13h-12q-70 0 -119 50l-8 8q-60 -58 -145 -58h-180q-50 0 -91.5 27.5t-62.5 72.5l-31 68q-22 47 -72 47h-106q-12 -39 -12 -82v-12l121 -45q55 -22 75.5 -62.5
t20.5 -75.5q0 -67 -38.5 -107.5t-92 -59.5t-100.5 -19h-32q-105 0 -178.5 73.5t-73.5 178.5v155l105 17v-172q0 -61 43 -104t104 -43h32q86 0 147 38q0 64 -62 88l-176 64v86q0 78 54.5 132.5t132.5 54.5h36q54 0 100 -29.5t69 -79.5l12 -27l91 112q85 98 206 98
q70 0 119 -49.5t49 -118.5v-58q0 -26 18 -44.5t45 -18.5h12z" />
    <glyph glyph-name="_383" horiz-adv-x="1152" 
d="M903 105q57 0 104 24v97q0 26 -18.5 44.5t-44.5 18.5h-77l-149 -184h185zM647 184l91 112q85 98 206 98q70 0 119 -49.5t49 -118.5v-18q0 -86 -61 -147t-148 -61h-180q-50 0 -91.5 27.5t-62.5 72.5l-31 68q-22 47 -72 47h-106q-12 -39 -12 -82v-12l121 -45
q55 -22 75.5 -62.5t20.5 -75.5q0 -67 -38.5 -107.5t-92 -59.5t-100.5 -19h-32q-105 0 -178.5 73.5t-73.5 178.5v155l105 17v-172q0 -61 43 -104t104 -43h32q86 0 147 38q0 64 -62 88l-176 64v86q0 78 54.5 132.5t132.5 54.5h36q54 0 100 -29.5t69 -79.5zM944 591l67 -67
l-67 -68l-67 68z" />
    <glyph glyph-name="_384" horiz-adv-x="1187" 
d="M944 591l67 -67l-67 -68l-67 68zM1007 226q0 26 -18.5 44.5t-44.5 18.5h-77l-149 -184h185q57 0 104 24v97zM1187 105l23 -13v-79l-23 -13h-12q-70 0 -119 50l-8 8q-60 -58 -145 -58h-180q-50 0 -91.5 27.5t-62.5 72.5l-31 68q-22 47 -72 47h-106q-12 -39 -12 -82v-12
l121 -45q55 -22 75.5 -62.5t20.5 -75.5q0 -67 -38.5 -107.5t-92 -59.5t-100.5 -19h-32q-105 0 -178.5 73.5t-73.5 178.5v155l105 17v-172q0 -61 43 -104t104 -43h32q86 0 147 38q0 64 -62 88l-176 64v86q0 78 54.5 132.5t132.5 54.5h36q54 0 100 -29.5t69 -79.5l12 -27
l91 112q85 98 206 98q70 0 119 -49.5t49 -118.5v-58q0 -26 18 -44.5t45 -18.5h12z" />
    <glyph glyph-name="_388" horiz-adv-x="551" 
d="M551 105l23 -13v-79l-23 -13h-29q-50 0 -91.5 27t-62.5 73l-11 24q-22 47 -65 47h-36q-64 0 -121 -64v-52q0 -57 43.5 -98t99.5 -41h199l-17 -105h-182q-100 0 -169 71.5t-69 172.5q0 89 65.5 155t150.5 66h36q111 0 161 -109l11 -24q17 -38 58 -38h29z" />
    <glyph glyph-name="_389" horiz-adv-x="551" 
d="M551 105l23 -13v-79l-23 -13h-29q-50 0 -91.5 27t-62.5 73l-11 24q-22 47 -65 47h-36q-64 0 -121 -64v-52q0 -57 43.5 -98t99.5 -41h199l-17 -105h-182q-100 0 -169 71.5t-69 172.5q0 89 65.5 155t150.5 66h36q111 0 161 -109l11 -24q17 -38 58 -38h29zM184 310l-12 46
l59 28q-16 14 -25 33t-10 37t4 32.5t16.5 26.5t27.5 19l32 15l27 -39l-65 -30q0 -9 2 -19t8 -22q9 -19 23.5 -23t26.5 1l49 23l13 -46z" />
    <glyph glyph-name="_390" horiz-adv-x="551" 
d="M274 -222l67 -67l-67 -67l-67 67zM551 105l23 -13v-79l-23 -13h-29q-50 0 -91.5 27t-62.5 73l-11 24q-22 47 -65 47h-36q-64 0 -121 -64v-52q0 -57 43.5 -98t99.5 -41h199l-17 -105h-182q-100 0 -169 71.5t-69 172.5q0 89 65.5 155t150.5 66h36q111 0 161 -109l11 -24
q17 -38 58 -38h29z" />
    <glyph glyph-name="_391" horiz-adv-x="551" 
d="M381 -326h-213v94h213q5 0 8 -2l-3 -94zM278 -331l67 -67l-67 -67l-67 67zM551 105l23 -13v-79l-23 -13h-29q-50 0 -91.5 27t-62.5 73l-11 24q-22 47 -65 47h-36q-64 0 -121 -64v-52q0 -57 43.5 -98t99.5 -41h199l-17 -105h-182q-100 0 -169 71.5t-69 172.5
q0 89 65.5 155t150.5 66h36q111 0 161 -109l11 -24q17 -38 58 -38h29z" />
    <glyph glyph-name="_392" horiz-adv-x="551" 
d="M382 396h-213v94h213q5 0 8 -2l-3 -94zM551 105l23 -13v-79l-23 -13h-29q-50 0 -91.5 27t-62.5 73l-11 24q-22 47 -65 47h-36q-64 0 -121 -64v-52q0 -57 43.5 -98t99.5 -41h199l-17 -105h-182q-100 0 -169 71.5t-69 172.5q0 89 65.5 155t150.5 66h36q111 0 161 -109
l11 -24q17 -38 58 -38h29z" />
    <glyph glyph-name="_393" horiz-adv-x="551" 
d="M382 396h-213v94h213q5 0 8 -2l-3 -94zM278 629l67 -67l-67 -68l-67 68zM551 105l23 -13v-79l-23 -13h-29q-50 0 -91.5 27t-62.5 73l-11 24q-22 47 -65 47h-36q-64 0 -121 -64v-52q0 -57 43.5 -98t99.5 -41h199l-17 -105h-182q-100 0 -169 71.5t-69 172.5q0 89 65.5 155
t150.5 66h36q111 0 161 -109l11 -24q17 -38 58 -38h29z" />
    <glyph glyph-name="_394" horiz-adv-x="551" 
d="M274 511l67 -67l-67 -68l-67 68zM551 105l23 -13v-79l-23 -13h-29q-50 0 -91.5 27t-62.5 73l-11 24q-22 47 -65 47h-36q-64 0 -121 -64v-52q0 -57 43.5 -98t99.5 -41h199l-17 -105h-182q-100 0 -169 71.5t-69 172.5q0 89 65.5 155t150.5 66h36q111 0 161 -109l11 -24
q17 -38 58 -38h29z" />
    <glyph glyph-name="_395" horiz-adv-x="551" 
d="M381 -326h-213v94h213q5 0 8 -2l-3 -94zM551 105l23 -13v-79l-23 -13h-29q-50 0 -91.5 27t-62.5 73l-11 24q-22 47 -65 47h-36q-64 0 -121 -64v-52q0 -57 43.5 -98t99.5 -41h199l-17 -105h-182q-100 0 -169 71.5t-69 172.5q0 89 65.5 155t150.5 66h36q111 0 161 -109
l11 -24q17 -38 58 -38h29z" />
    <glyph glyph-name="swashkaf-arab.fina" horiz-adv-x="995" 
d="M995 105l23 -13v-79l-23 -13h-13q-68 0 -112 49q-15 -14 -33 -25q-40 -24 -92 -24h-527q-69 0 -118.5 49.5t-49.5 118.5v128l105 18v-146q0 -26 18.5 -44.5t44.5 -18.5h527q39 0 80 12v33q0 32 -24.5 54t-56.5 22h-470l-33 105l250 181q37 28 79 45l39 -98
q-30 -12 -56 -32l-134 -96h325q75 0 125 -53q44 -47 50 -109q2 -27 19.5 -45.5t43.5 -18.5h13z" />
    <glyph glyph-name="swashkaf-arab.medi" horiz-adv-x="765" 
d="M765 105l23 -13v-79l-23 -13h-13q-68 0 -112 49q-15 -14 -33 -25q-40 -24 -92 -24h-515l-23 13v79l23 13h515q39 0 80 12v33q0 32 -24.5 54t-56.5 22h-470l-33 105l250 181q37 28 79 45l39 -98q-30 -12 -56 -32l-134 -96h325q75 0 125 -53q44 -47 50 -109
q2 -27 19.5 -45.5t43.5 -18.5h13z" />
    <glyph glyph-name="swashkaf-arab.init" horiz-adv-x="739" 
d="M0 105h515q39 0 80 12v33q0 32 -24.5 54t-56.5 22h-470l-33 105l250 181q37 28 79 45l39 -98q-30 -12 -56 -31l-134 -97h325q75 0 125 -53t50 -128q0 -33 -22 -68t-61 -58.5t-91 -23.5h-515l-23 13v79z" />
    <glyph glyph-name="swashgaf-arab" horiz-adv-x="969" 
d="M420 600q26 20 53 31l27 -68q-10 -4 -19.5 -9t-18.5 -12l-193 -139l-22 72zM745 105q39 0 80 12v33q0 32 -24.5 54t-56.5 22h-470l-33 105l250 181q37 28 79 45l39 -98q-30 -12 -56 -31l-134 -97h325q75 0 125 -53t50 -128q0 -33 -22 -68t-61 -58.5t-91 -23.5h-527
q-69 0 -118.5 49.5t-49.5 118.5v128l105 18v-146q0 -26 18.5 -44.5t44.5 -18.5h527z" />
    <glyph glyph-name="swashgaf-arab.fina" horiz-adv-x="995" 
d="M420 600q26 20 53 31l27 -68q-10 -4 -19.5 -9t-18.5 -12l-193 -139l-22 72zM995 105l23 -13v-79l-23 -13h-13q-68 0 -112 49q-15 -14 -33 -25q-40 -24 -92 -24h-527q-69 0 -118.5 49.5t-49.5 118.5v128l105 18v-146q0 -26 18.5 -44.5t44.5 -18.5h527q39 0 80 12v33
q0 32 -24.5 54t-56.5 22h-470l-33 105l250 181q37 28 79 45l39 -98q-30 -12 -56 -32l-134 -96h325q75 0 125 -53q44 -47 50 -109q2 -27 19.5 -45.5t43.5 -18.5h13z" />
    <glyph glyph-name="swashgaf-arab.medi" horiz-adv-x="765" 
d="M191 600q26 20 54 31l27 -68q-10 -4 -19.5 -9t-19.5 -12l-192 -139l-22 72zM765 105l23 -13v-79l-23 -13h-13q-68 0 -112 49q-15 -14 -33 -25q-40 -24 -92 -24h-515l-23 13v79l23 13h515q39 0 80 12v33q0 32 -24.5 54t-56.5 22h-470l-33 105l250 181q37 28 79 45l39 -98
q-30 -12 -56 -32l-134 -96h325q75 0 125 -53q44 -47 50 -109q2 -27 19.5 -45.5t43.5 -18.5h13z" />
    <glyph glyph-name="swashgaf-arab.init" horiz-adv-x="739" 
d="M190 600q26 20 54 31l27 -68q-10 -4 -19.5 -9t-19.5 -12l-192 -139l-22 72zM0 105h515q39 0 80 12v33q0 32 -24.5 54t-56.5 22h-470l-33 105l250 181q37 28 79 45l39 -98q-30 -12 -56 -31l-134 -97h325q75 0 125 -53t50 -128q0 -33 -22 -68t-61 -58.5t-91 -23.5h-515
l-23 13v79z" />
    <glyph glyph-name="_410" horiz-adv-x="1098" 
d="M279 61q0 -55 -26.5 -113t-88 -98t-166.5 -40l-18 105h18q95 0 176 51v172q0 76 53.5 131t131.5 55h149v-156q0 -26 18.5 -44.5t44.5 -18.5h31q32 0 63 7v153l105 11v-108q0 -26 18 -44.5t45 -18.5h22q32 0 63 7v201l105 18v-163q0 -26 18 -44.5t45 -18.5h12l23 -13v-79
l-23 -13h-12q-68 0 -115 46q-48 -46 -116 -46h-22q-68 0 -115 46q-48 -46 -116 -46h-31q-69 0 -118.5 49.5t-49.5 118.5v51h-44q-40 0 -80 -11v-147z" />
    <glyph glyph-name="_411" horiz-adv-x="1073" 
d="M279 61q0 -55 -26.5 -113t-88 -98t-166.5 -40l-18 105h18q95 0 176 51v172q0 76 53.5 131t131.5 55h149v-156q0 -26 18.5 -44.5t44.5 -18.5h31q32 0 63 7v153l105 11v-108q0 -26 18 -44.5t45 -18.5h22q32 0 63 7v201l105 18v-163q0 -69 -49 -118.5t-119 -49.5h-22
q-68 0 -115 46q-48 -46 -116 -46h-31q-69 0 -118.5 49.5t-49.5 118.5v51h-44q-40 0 -80 -11v-147z" />
    <glyph glyph-name="_412" horiz-adv-x="1098" 
d="M714 635l67 -67l-67 -67l-67 67zM279 61q0 -55 -26.5 -113t-88 -98t-166.5 -40l-18 105h18q95 0 176 51v172q0 76 53.5 131t131.5 55h149v-156q0 -26 18.5 -44.5t44.5 -18.5h31q32 0 63 7v153l105 11v-108q0 -26 18 -44.5t45 -18.5h22q32 0 63 7v201l105 18v-163
q0 -26 18 -44.5t45 -18.5h12l23 -13v-79l-23 -13h-12q-68 0 -115 46q-48 -46 -116 -46h-22q-68 0 -115 46q-48 -46 -116 -46h-31q-69 0 -118.5 49.5t-49.5 118.5v51h-44q-40 0 -80 -11v-147zM835 401h-249v95h249q3 0 7 -2l-2 -95z" />
    <glyph glyph-name="_413" horiz-adv-x="1073" 
d="M714 635l67 -67l-67 -67l-67 67zM279 61q0 -55 -26.5 -113t-88 -98t-166.5 -40l-18 105h18q95 0 176 51v172q0 76 53.5 131t131.5 55h149v-156q0 -26 18.5 -44.5t44.5 -18.5h31q32 0 63 7v153l105 11v-108q0 -26 18 -44.5t45 -18.5h22q32 0 63 7v201l105 18v-163
q0 -69 -49 -118.5t-119 -49.5h-22q-68 0 -115 46q-48 -46 -116 -46h-31q-69 0 -118.5 49.5t-49.5 118.5v51h-44q-40 0 -80 -11v-147zM835 401h-249v95h249q3 0 7 -2l-2 -95z" />
    <glyph glyph-name="_414" horiz-adv-x="1098" 
d="M279 61q0 -55 -26.5 -113t-88 -98t-166.5 -40l-18 105h18q95 0 176 51v172q0 76 53.5 131t131.5 55h149v-156q0 -26 18.5 -44.5t44.5 -18.5h31q32 0 63 7v153l105 11v-108q0 -26 18 -44.5t45 -18.5h22q32 0 63 7v201l105 18v-163q0 -26 18 -44.5t45 -18.5h12l23 -13v-79
l-23 -13h-12q-68 0 -115 46q-48 -46 -116 -46h-22q-68 0 -115 46q-48 -46 -116 -46h-31q-69 0 -118.5 49.5t-49.5 118.5v51h-44q-40 0 -80 -11v-147zM226 510l67 -67l-67 -68l-67 68z" />
    <glyph glyph-name="_415" horiz-adv-x="1073" 
d="M279 61q0 -55 -26.5 -113t-88 -98t-166.5 -40l-18 105h18q95 0 176 51v172q0 76 53.5 131t131.5 55h149v-156q0 -26 18.5 -44.5t44.5 -18.5h31q32 0 63 7v153l105 11v-108q0 -26 18 -44.5t45 -18.5h22q32 0 63 7v201l105 18v-163q0 -69 -49 -118.5t-119 -49.5h-22
q-68 0 -115 46q-48 -46 -116 -46h-31q-69 0 -118.5 49.5t-49.5 118.5v51h-44q-40 0 -80 -11v-147zM226 510l67 -67l-67 -68l-67 68z" />
    <glyph glyph-name="_416" horiz-adv-x="1098" 
d="M714 635l67 -67l-67 -67l-67 67zM279 61q0 -55 -26.5 -113t-88 -98t-166.5 -40l-18 105h18q95 0 176 51v172q0 76 53.5 131t131.5 55h149v-156q0 -26 18.5 -44.5t44.5 -18.5h31q32 0 63 7v153l105 11v-108q0 -26 18 -44.5t45 -18.5h22q32 0 63 7v201l105 18v-163
q0 -26 18 -44.5t45 -18.5h12l23 -13v-79l-23 -13h-12q-68 0 -115 46q-48 -46 -116 -46h-22q-68 0 -115 46q-48 -46 -116 -46h-31q-69 0 -118.5 49.5t-49.5 118.5v51h-44q-40 0 -80 -11v-147zM835 401h-249v95h249q3 0 7 -2l-2 -95zM226 510l67 -67l-67 -68l-67 68z" />
    <glyph glyph-name="_417" horiz-adv-x="1073" 
d="M714 635l67 -67l-67 -67l-67 67zM279 61q0 -55 -26.5 -113t-88 -98t-166.5 -40l-18 105h18q95 0 176 51v172q0 76 53.5 131t131.5 55h149v-156q0 -26 18.5 -44.5t44.5 -18.5h31q32 0 63 7v153l105 11v-108q0 -26 18 -44.5t45 -18.5h22q32 0 63 7v201l105 18v-163
q0 -69 -49 -118.5t-119 -49.5h-22q-68 0 -115 46q-48 -46 -116 -46h-31q-69 0 -118.5 49.5t-49.5 118.5v51h-44q-40 0 -80 -11v-147zM835 401h-249v95h249q3 0 7 -2l-2 -95zM226 510l67 -67l-67 -68l-67 68z" />
    <glyph glyph-name="_418" horiz-adv-x="1098" 
d="M279 61q0 -55 -26.5 -113t-88 -98t-166.5 -40l-18 105h18q95 0 176 51v172q0 76 53.5 131t131.5 55h149v-156q0 -26 18.5 -44.5t44.5 -18.5h31q32 0 63 7v153l105 11v-108q0 -26 18 -44.5t45 -18.5h22q32 0 63 7v201l105 18v-163q0 -26 18 -44.5t45 -18.5h12l23 -13v-79
l-23 -13h-12q-68 0 -115 46q-48 -46 -116 -46h-22q-68 0 -115 46q-48 -46 -116 -46h-31q-69 0 -118.5 49.5t-49.5 118.5v51h-44q-40 0 -80 -11v-147zM327 396h-213v94h213q5 0 8 -2l-3 -94zM223 629l67 -67l-67 -68l-67 68z" />
    <glyph glyph-name="_419" horiz-adv-x="1073" 
d="M279 61q0 -55 -26.5 -113t-88 -98t-166.5 -40l-18 105h18q95 0 176 51v172q0 76 53.5 131t131.5 55h149v-156q0 -26 18.5 -44.5t44.5 -18.5h31q32 0 63 7v153l105 11v-108q0 -26 18 -44.5t45 -18.5h22q32 0 63 7v201l105 18v-163q0 -69 -49 -118.5t-119 -49.5h-22
q-68 0 -115 46q-48 -46 -116 -46h-31q-69 0 -118.5 49.5t-49.5 118.5v51h-44q-40 0 -80 -11v-147zM327 396h-213v94h213q5 0 8 -2l-3 -94zM223 629l67 -67l-67 -68l-67 68z" />
    <glyph glyph-name="_420" horiz-adv-x="1098" 
d="M714 635l67 -67l-67 -67l-67 67zM279 61q0 -55 -26.5 -113t-88 -98t-166.5 -40l-18 105h18q95 0 176 51v172q0 76 53.5 131t131.5 55h149v-156q0 -26 18.5 -44.5t44.5 -18.5h31q32 0 63 7v153l105 11v-108q0 -26 18 -44.5t45 -18.5h22q32 0 63 7v201l105 18v-163
q0 -26 18 -44.5t45 -18.5h12l23 -13v-79l-23 -13h-12q-68 0 -115 46q-48 -46 -116 -46h-22q-68 0 -115 46q-48 -46 -116 -46h-31q-69 0 -118.5 49.5t-49.5 118.5v51h-44q-40 0 -80 -11v-147zM835 401h-249v95h249q3 0 7 -2l-2 -95zM327 396h-213v94h213q5 0 8 -2l-3 -94z
M223 629l67 -67l-67 -68l-67 68z" />
    <glyph glyph-name="_421" horiz-adv-x="1073" 
d="M327 396h-213v94h213q5 0 8 -2l-3 -94zM223 629l67 -67l-67 -68l-67 68zM714 635l67 -67l-67 -67l-67 67zM279 61q0 -55 -26.5 -113t-88 -98t-166.5 -40l-18 105h18q95 0 176 51v172q0 76 53.5 131t131.5 55h149v-156q0 -26 18.5 -44.5t44.5 -18.5h31q32 0 63 7v153
l105 11v-108q0 -26 18 -44.5t45 -18.5h22q32 0 63 7v201l105 18v-163q0 -69 -49 -118.5t-119 -49.5h-22q-68 0 -115 46q-48 -46 -116 -46h-31q-69 0 -118.5 49.5t-49.5 118.5v51h-44q-40 0 -80 -11v-147zM835 401h-249v95h249q3 0 7 -2l-2 -95z" />
    <glyph glyph-name="_422" horiz-adv-x="1035" 
d="M855 226q0 26 -18.5 44.5t-44.5 18.5h-77l-149 -184h185q57 0 104 24v97zM1035 105l23 -13v-79l-23 -13h-12q-70 0 -119 50l-8 8q-60 -58 -145 -58h-180q-69 0 -118.5 49.5t-49.5 118.5v51h-44q-40 0 -80 -11v-147q0 -55 -26.5 -113t-88 -98t-166.5 -40l-18 105h18
q95 0 176 51v172q0 76 53.5 131t131.5 55h149v-124l78 96q85 98 206 98q70 0 119 -49.5t49 -118.5v-58q0 -26 18 -44.5t45 -18.5h12z" />
    <glyph glyph-name="_423" horiz-adv-x="1000" 
d="M566 105h185q57 0 104 24v97q0 26 -18.5 44.5t-44.5 18.5h-77zM279 61q0 -55 -26.5 -113t-88 -98t-166.5 -40l-18 105h18q95 0 176 51v172q0 76 53.5 131t131.5 55h149v-124l78 96q85 98 206 98q70 0 119 -49.5t49 -118.5v-18q0 -86 -61 -147t-148 -61h-180
q-69 0 -118.5 49.5t-49.5 118.5v51h-44q-40 0 -80 -11v-147z" />
    <glyph glyph-name="_424" horiz-adv-x="1035" 
d="M855 226q0 26 -18.5 44.5t-44.5 18.5h-77l-149 -184h185q57 0 104 24v97zM1035 105l23 -13v-79l-23 -13h-12q-70 0 -119 50l-8 8q-60 -58 -145 -58h-180q-69 0 -118.5 49.5t-49.5 118.5v51h-44q-40 0 -80 -11v-147q0 -55 -26.5 -113t-88 -98t-166.5 -40l-18 105h18
q95 0 176 51v172q0 76 53.5 131t131.5 55h149v-124l78 96q85 98 206 98q70 0 119 -49.5t49 -118.5v-58q0 -26 18 -44.5t45 -18.5h12zM792 591l67 -67l-67 -68l-67 68z" />
    <glyph glyph-name="_425" horiz-adv-x="1000" 
d="M566 105h185q57 0 104 24v97q0 26 -18.5 44.5t-44.5 18.5h-77zM279 61q0 -55 -26.5 -113t-88 -98t-166.5 -40l-18 105h18q95 0 176 51v172q0 76 53.5 131t131.5 55h149v-124l78 96q85 98 206 98q70 0 119 -49.5t49 -118.5v-18q0 -86 -61 -147t-148 -61h-180
q-69 0 -118.5 49.5t-49.5 118.5v51h-44q-40 0 -80 -11v-147zM792 591l67 -67l-67 -68l-67 68z" />
    <glyph glyph-name="_426" horiz-adv-x="1035" 
d="M855 226q0 26 -18.5 44.5t-44.5 18.5h-77l-149 -184h185q57 0 104 24v97zM1035 105l23 -13v-79l-23 -13h-12q-70 0 -119 50l-8 8q-60 -58 -145 -58h-180q-69 0 -118.5 49.5t-49.5 118.5v51h-44q-40 0 -80 -11v-147q0 -55 -26.5 -113t-88 -98t-166.5 -40l-18 105h18
q95 0 176 51v172q0 76 53.5 131t131.5 55h149v-124l78 96q85 98 206 98q70 0 119 -49.5t49 -118.5v-58q0 -26 18 -44.5t45 -18.5h12zM226 510l67 -67l-67 -68l-67 68z" />
    <glyph glyph-name="_427" horiz-adv-x="1000" 
d="M566 105h185q57 0 104 24v97q0 26 -18.5 44.5t-44.5 18.5h-77zM279 61q0 -55 -26.5 -113t-88 -98t-166.5 -40l-18 105h18q95 0 176 51v172q0 76 53.5 131t131.5 55h149v-124l78 96q85 98 206 98q70 0 119 -49.5t49 -118.5v-18q0 -86 -61 -147t-148 -61h-180
q-69 0 -118.5 49.5t-49.5 118.5v51h-44q-40 0 -80 -11v-147zM226 510l67 -67l-67 -68l-67 68z" />
    <glyph glyph-name="_428" horiz-adv-x="1035" 
d="M855 226q0 26 -18.5 44.5t-44.5 18.5h-77l-149 -184h185q57 0 104 24v97zM1035 105l23 -13v-79l-23 -13h-12q-70 0 -119 50l-8 8q-60 -58 -145 -58h-180q-69 0 -118.5 49.5t-49.5 118.5v51h-44q-40 0 -80 -11v-147q0 -55 -26.5 -113t-88 -98t-166.5 -40l-18 105h18
q95 0 176 51v172q0 76 53.5 131t131.5 55h149v-124l78 96q85 98 206 98q70 0 119 -49.5t49 -118.5v-58q0 -26 18 -44.5t45 -18.5h12zM792 591l67 -67l-67 -68l-67 68zM226 510l67 -67l-67 -68l-67 68z" />
    <glyph glyph-name="_429" horiz-adv-x="1000" 
d="M566 105h185q57 0 104 24v97q0 26 -18.5 44.5t-44.5 18.5h-77zM279 61q0 -55 -26.5 -113t-88 -98t-166.5 -40l-18 105h18q95 0 176 51v172q0 76 53.5 131t131.5 55h149v-124l78 96q85 98 206 98q70 0 119 -49.5t49 -118.5v-18q0 -86 -61 -147t-148 -61h-180
q-69 0 -118.5 49.5t-49.5 118.5v51h-44q-40 0 -80 -11v-147zM792 591l67 -67l-67 -68l-67 68zM226 510l67 -67l-67 -68l-67 68z" />
    <glyph glyph-name="_430" horiz-adv-x="1035" 
d="M855 226q0 26 -18.5 44.5t-44.5 18.5h-77l-149 -184h185q57 0 104 24v97zM1035 105l23 -13v-79l-23 -13h-12q-70 0 -119 50l-8 8q-60 -58 -145 -58h-180q-69 0 -118.5 49.5t-49.5 118.5v51h-44q-40 0 -80 -11v-147q0 -55 -26.5 -113t-88 -98t-166.5 -40l-18 105h18
q95 0 176 51v172q0 76 53.5 131t131.5 55h149v-124l78 96q85 98 206 98q70 0 119 -49.5t49 -118.5v-58q0 -26 18 -44.5t45 -18.5h12zM327 396h-213v94h213q5 0 8 -2l-3 -94zM223 629l67 -67l-67 -68l-67 68z" />
    <glyph glyph-name="_431" horiz-adv-x="1000" 
d="M566 105h185q57 0 104 24v97q0 26 -18.5 44.5t-44.5 18.5h-77zM279 61q0 -55 -26.5 -113t-88 -98t-166.5 -40l-18 105h18q95 0 176 51v172q0 76 53.5 131t131.5 55h149v-124l78 96q85 98 206 98q70 0 119 -49.5t49 -118.5v-18q0 -86 -61 -147t-148 -61h-180
q-69 0 -118.5 49.5t-49.5 118.5v51h-44q-40 0 -80 -11v-147zM327 396h-213v94h213q5 0 8 -2l-3 -94zM223 629l67 -67l-67 -68l-67 68z" />
    <glyph glyph-name="_432" horiz-adv-x="1035" 
d="M855 226q0 26 -18.5 44.5t-44.5 18.5h-77l-149 -184h185q57 0 104 24v97zM1035 105l23 -13v-79l-23 -13h-12q-70 0 -119 50l-8 8q-60 -58 -145 -58h-180q-69 0 -118.5 49.5t-49.5 118.5v51h-44q-40 0 -80 -11v-147q0 -55 -26.5 -113t-88 -98t-166.5 -40l-18 105h18
q95 0 176 51v172q0 76 53.5 131t131.5 55h149v-124l78 96q85 98 206 98q70 0 119 -49.5t49 -118.5v-58q0 -26 18 -44.5t45 -18.5h12zM792 591l67 -67l-67 -68l-67 68zM327 396h-213v94h213q5 0 8 -2l-3 -94zM223 629l67 -67l-67 -68l-67 68z" />
    <glyph glyph-name="_433" horiz-adv-x="1000" 
d="M327 396h-213v94h213q5 0 8 -2l-3 -94zM223 629l67 -67l-67 -68l-67 68zM566 105h185q57 0 104 24v97q0 26 -18.5 44.5t-44.5 18.5h-77zM279 61q0 -55 -26.5 -113t-88 -98t-166.5 -40l-18 105h18q95 0 176 51v172q0 76 53.5 131t131.5 55h149v-124l78 96q85 98 206 98
q70 0 119 -49.5t49 -118.5v-18q0 -86 -61 -147t-148 -61h-180q-69 0 -118.5 49.5t-49.5 118.5v51h-44q-40 0 -80 -11v-147zM792 591l67 -67l-67 -68l-67 68z" />
    <glyph glyph-name="_446" horiz-adv-x="513" 
d="M513 105l23 -13v-79l-23 -13h-6q-51 0 -93 27t-62 72l-11 25q-11 26 -19 36.5t-29 10.5h-37q-64 0 -121 -64v-52q0 -57 43.5 -98t100.5 -41h356l-17 -106h-339q-101 0 -170 71.5t-69 173.5q0 89 65.5 155t150.5 66h37q54 0 88 -29.5t57 -79.5l12 -25q17 -37 57 -37h6z
M184 310l-12 46l59 28q-16 14 -25 33t-10 37t4 32.5t16.5 26.5t27.5 19l32 15l27 -39l-65 -30q0 -9 2 -19t8 -22q9 -19 23.5 -23t26.5 1l49 23l13 -46z" />
    <glyph glyph-name="_447" horiz-adv-x="513" 
d="M513 105l23 -13v-79l-23 -13h-6q-51 0 -93 27t-62 72l-11 25q-11 26 -19 36.5t-29 10.5h-37q-64 0 -121 -64v-52q0 -57 43.5 -98t100.5 -41h356l-17 -106h-339q-101 0 -170 71.5t-69 173.5q0 89 65.5 155t150.5 66h37q54 0 88 -29.5t57 -79.5l12 -25q17 -37 57 -37h6z
M274 -222l67 -67l-67 -67l-67 67z" />
    <glyph glyph-name="_448" horiz-adv-x="513" 
d="M513 105l23 -13v-79l-23 -13h-6q-51 0 -93 27t-62 72l-11 25q-11 26 -19 36.5t-29 10.5h-37q-64 0 -121 -64v-52q0 -57 43.5 -98t100.5 -41h356l-17 -106h-339q-101 0 -170 71.5t-69 173.5q0 89 65.5 155t150.5 66h37q54 0 88 -29.5t57 -79.5l12 -25q17 -37 57 -37h6z
M381 -326h-213v94h213q5 0 8 -2l-3 -94zM278 -331l67 -67l-67 -67l-67 67z" />
    <glyph glyph-name="_449" horiz-adv-x="513" 
d="M513 105l23 -13v-79l-23 -13h-6q-51 0 -93 27t-62 72l-11 25q-11 26 -19 36.5t-29 10.5h-37q-64 0 -121 -64v-52q0 -57 43.5 -98t100.5 -41h356l-17 -106h-339q-101 0 -170 71.5t-69 173.5q0 89 65.5 155t150.5 66h37q54 0 88 -29.5t57 -79.5l12 -25q17 -37 57 -37h6z
M382 396h-213v94h213q5 0 8 -2l-3 -94z" />
    <glyph glyph-name="_450" horiz-adv-x="513" 
d="M513 105l23 -13v-79l-23 -13h-6q-51 0 -93 27t-62 72l-11 25q-11 26 -19 36.5t-29 10.5h-37q-64 0 -121 -64v-52q0 -57 43.5 -98t100.5 -41h356l-17 -106h-339q-101 0 -170 71.5t-69 173.5q0 89 65.5 155t150.5 66h37q54 0 88 -29.5t57 -79.5l12 -25q17 -37 57 -37h6z
M382 396h-213v94h213q5 0 8 -2l-3 -94zM278 629l67 -67l-67 -68l-67 68z" />
    <glyph glyph-name="_451" horiz-adv-x="513" 
d="M513 105l23 -13v-79l-23 -13h-6q-51 0 -93 27t-62 72l-11 25q-11 26 -19 36.5t-29 10.5h-37q-64 0 -121 -64v-52q0 -57 43.5 -98t100.5 -41h356l-17 -106h-339q-101 0 -170 71.5t-69 173.5q0 89 65.5 155t150.5 66h37q54 0 88 -29.5t57 -79.5l12 -25q17 -37 57 -37h6z
M274 511l67 -67l-67 -68l-67 68z" />
    <glyph glyph-name="_452" horiz-adv-x="513" 
d="M513 105l23 -13v-79l-23 -13h-6q-51 0 -93 27t-62 72l-11 25q-11 26 -19 36.5t-29 10.5h-37q-64 0 -121 -64v-52q0 -57 43.5 -98t100.5 -41h356l-17 -106h-339q-101 0 -170 71.5t-69 173.5q0 89 65.5 155t150.5 66h37q54 0 88 -29.5t57 -79.5l12 -25q17 -37 57 -37h6z
M381 -326h-213v94h213q5 0 8 -2l-3 -94z" />
    <glyph glyph-name="_453" horiz-adv-x="1002" 
d="M507 0q-51 0 -93 27t-62 72l-11 25q-11 26 -19 36.5t-29 10.5h-37q-64 0 -121 -64v-52q0 -57 43.5 -98t100.5 -41h356l-17 -106h-339q-101 0 -170 71.5t-69 173.5q0 89 65.5 155t150.5 66h37q54 0 88 -29.5t57 -79.5l12 -25q17 -37 57 -37h24q33 0 63 7v153l105 11v-108
q0 -26 18.5 -44.5t44.5 -18.5h22q33 0 63 7v201l105 18v-163q0 -69 -49 -118.5t-119 -49.5h-22q-67 0 -115 46q-48 -46 -116 -46h-24z" />
    <glyph glyph-name="_454" horiz-adv-x="1028" 
d="M507 0q-51 0 -93 27t-62 72l-11 25q-11 26 -19 36.5t-29 10.5h-37q-64 0 -121 -64v-52q0 -57 43.5 -98t100.5 -41h356l-17 -106h-339q-101 0 -170 71.5t-69 173.5q0 89 65.5 155t150.5 66h37q54 0 88 -29.5t57 -79.5l12 -25q17 -37 57 -37h24q33 0 63 7v153l105 11v-108
q0 -26 18.5 -44.5t44.5 -18.5h22q33 0 63 7v201l105 18v-163q0 -26 18.5 -44.5t44.5 -18.5h13l23 -13v-79l-23 -13h-13q-67 0 -115 46q-48 -46 -116 -46h-22q-67 0 -115 46q-48 -46 -116 -46h-24z" />
    <glyph glyph-name="_455" horiz-adv-x="1002" 
d="M648 635l67 -67l-67 -67l-68 67zM768 401h-249v95h249q3 0 8 -2l-2 -95zM507 0q-51 0 -93 27t-62 72l-11 25q-11 26 -19 36.5t-29 10.5h-37q-64 0 -121 -64v-52q0 -57 43.5 -98t100.5 -41h356l-17 -106h-339q-101 0 -170 71.5t-69 173.5q0 89 65.5 155t150.5 66h37
q54 0 88 -29.5t57 -79.5l12 -25q17 -37 57 -37h24q33 0 63 7v153l105 11v-108q0 -26 18.5 -44.5t44.5 -18.5h22q33 0 63 7v201l105 18v-163q0 -69 -49 -118.5t-119 -49.5h-22q-67 0 -115 46q-48 -46 -116 -46h-24z" />
    <glyph glyph-name="_456" horiz-adv-x="1028" 
d="M768 401h-249v95h249q3 0 8 -2l-2 -95zM648 635l67 -67l-67 -67l-68 67zM507 0q-51 0 -93 27t-62 72l-11 25q-11 26 -19 36.5t-29 10.5h-37q-64 0 -121 -64v-52q0 -57 43.5 -98t100.5 -41h356l-17 -106h-339q-101 0 -170 71.5t-69 173.5q0 89 65.5 155t150.5 66h37
q54 0 88 -29.5t57 -79.5l12 -25q17 -37 57 -37h24q33 0 63 7v153l105 11v-108q0 -26 18.5 -44.5t44.5 -18.5h22q33 0 63 7v201l105 18v-163q0 -26 18.5 -44.5t44.5 -18.5h13l23 -13v-79l-23 -13h-13q-67 0 -115 46q-48 -46 -116 -46h-22q-67 0 -115 46q-48 -46 -116 -46h-24
z" />
    <glyph glyph-name="_457" horiz-adv-x="970" 
d="M500 105h185q57 0 104 24v97q0 26 -18.5 44.5t-44.5 18.5h-77zM507 0q-51 0 -93 27t-62 72l-11 25q-11 26 -19 36.5t-29 10.5h-37q-64 0 -121 -64v-52q0 -57 43.5 -98t100.5 -41h356l-17 -106h-339q-101 0 -170 71.5t-69 173.5q0 89 65.5 155t150.5 66h37q54 0 88 -29
q28 -25 48 -62l91 111q85 98 206 98q70 0 119 -49.5t49 -118.5v-58q0 -26 18.5 -44.5t44.5 -18.5h13l23 -13v-79l-23 -13h-13q-69 0 -119 50l-8 8q-60 -58 -145 -58h-178z" />
    <glyph glyph-name="_458" horiz-adv-x="934" 
d="M500 105h185q57 0 104 24v97q0 26 -18.5 44.5t-44.5 18.5h-77zM507 0q-51 0 -93 27t-62 72l-11 25q-11 26 -19 36.5t-29 10.5h-37q-64 0 -121 -64v-52q0 -57 43.5 -98t100.5 -41h356l-17 -106h-339q-101 0 -170 71.5t-69 173.5q0 89 65.5 155t150.5 66h37q54 0 88 -29
q28 -25 48 -62l91 111q85 98 206 98q70 0 119 -49.5t49 -118.5v-18q0 -86 -61 -147t-148 -61h-178z" />
    <glyph glyph-name="_459" horiz-adv-x="970" 
d="M500 105h185q57 0 104 24v97q0 26 -18.5 44.5t-44.5 18.5h-77zM507 0q-51 0 -93 27t-62 72l-11 25q-11 26 -19 36.5t-29 10.5h-37q-64 0 -121 -64v-52q0 -57 43.5 -98t100.5 -41h356l-17 -106h-339q-101 0 -170 71.5t-69 173.5q0 89 65.5 155t150.5 66h37q54 0 88 -29
q28 -25 48 -62l91 111q85 98 206 98q70 0 119 -49.5t49 -118.5v-58q0 -26 18.5 -44.5t44.5 -18.5h13l23 -13v-79l-23 -13h-13q-69 0 -119 50l-8 8q-60 -58 -145 -58h-178zM726 591l67 -67l-67 -68l-67 68z" />
    <glyph glyph-name="_460" horiz-adv-x="934" 
d="M500 105h185q57 0 104 24v97q0 26 -18.5 44.5t-44.5 18.5h-77zM507 0q-51 0 -93 27t-62 72l-11 25q-11 26 -19 36.5t-29 10.5h-37q-64 0 -121 -64v-52q0 -57 43.5 -98t100.5 -41h356l-17 -106h-339q-101 0 -170 71.5t-69 173.5q0 89 65.5 155t150.5 66h37q54 0 88 -29
q28 -25 48 -62l91 111q85 98 206 98q70 0 119 -49.5t49 -118.5v-18q0 -86 -61 -147t-148 -61h-178zM726 591l67 -67l-67 -68l-67 68z" />
    <glyph glyph-name="_521" horiz-adv-x="623" 
d="M623 105l23 -13v-79l-23 -13h-12q-70 0 -119 49.5t-49 118.5v51h-84q-40 0 -80 -11v-147q0 -55 -26.5 -113t-88 -98t-166.5 -40l-18 105h18q95 0 176 51v172q0 76 53.5 131t131.5 55h189v-156q0 -26 18 -44.5t45 -18.5h12zM372 -80l67 -67l-67 -67l-67 67z" />
    <glyph glyph-name="_522" horiz-adv-x="623" 
d="M623 105l23 -13v-79l-23 -13h-12q-70 0 -119 49.5t-49 118.5v51h-84q-40 0 -80 -11v-147q0 -55 -26.5 -113t-88 -98t-166.5 -40l-18 105h18q95 0 176 51v172q0 76 53.5 131t131.5 55h189v-156q0 -26 18 -44.5t45 -18.5h12zM484 -194h-213v94h213q5 0 8 -2l-3 -94z
M381 -199l67 -67l-67 -67l-67 67z" />
    <glyph glyph-name="_523" horiz-adv-x="623" 
d="M623 105l23 -13v-79l-23 -13h-12q-70 0 -119 49.5t-49 118.5v51h-84q-40 0 -80 -11v-147q0 -55 -26.5 -113t-88 -98t-166.5 -40l-18 105h18q95 0 176 51v172q0 76 53.5 131t131.5 55h189v-156q0 -26 18 -44.5t45 -18.5h12zM527 396h-213v94h213q5 0 8 -2l-3 -94z" />
    <glyph glyph-name="_524" horiz-adv-x="623" 
d="M623 105l23 -13v-79l-23 -13h-12q-70 0 -119 49.5t-49 118.5v51h-84q-40 0 -80 -11v-147q0 -55 -26.5 -113t-88 -98t-166.5 -40l-18 105h18q95 0 176 51v172q0 76 53.5 131t131.5 55h189v-156q0 -26 18 -44.5t45 -18.5h12zM527 396h-213v94h213q5 0 8 -2l-3 -94zM423 629
l67 -67l-67 -68l-67 68z" />
    <glyph glyph-name="_525" horiz-adv-x="623" 
d="M623 105l23 -13v-79l-23 -13h-12q-70 0 -119 49.5t-49 118.5v51h-84q-40 0 -80 -11v-147q0 -55 -26.5 -113t-88 -98t-166.5 -40l-18 105h18q95 0 176 51v172q0 76 53.5 131t131.5 55h189v-156q0 -26 18 -44.5t45 -18.5h12zM456 510l67 -67l-67 -68l-67 68z" />
    <glyph glyph-name="_526" horiz-adv-x="623" 
d="M623 105l23 -13v-79l-23 -13h-12q-70 0 -119 49.5t-49 118.5v51h-84q-40 0 -80 -11v-147q0 -55 -26.5 -113t-88 -98t-166.5 -40l-18 105h18q95 0 176 51v172q0 76 53.5 131t131.5 55h189v-156q0 -26 18 -44.5t45 -18.5h12zM484 -194h-213v94h213q5 0 8 -2l-3 -94z" />
    <glyph glyph-name="_527" horiz-adv-x="623" 
d="M623 105l23 -13v-79l-23 -13h-12q-70 0 -119 49.5t-49 118.5v51h-84q-40 0 -80 -11v-147q0 -55 -26.5 -113t-88 -98t-166.5 -40l-18 105h18q95 0 176 51v172q0 76 53.5 131t131.5 55h189v-156q0 -26 18 -44.5t45 -18.5h12zM362 359l-12 46l59 28q-16 14 -25 33t-10 37
t4 32.5t16.5 26.5t27.5 19l32 15l27 -39l-65 -30q0 -9 2 -19t8 -22q9 -19 23.5 -23t26.5 1l49 23l13 -46z" />
    <glyph glyph-name="_528" horiz-adv-x="623" 
d="M623 105l23 -13v-79l-23 -13h-12q-70 0 -119 49.5t-49 118.5v51h-84q-40 0 -80 -11v-147q0 -55 -26.5 -113t-88 -98t-166.5 -40l-18 105h18q95 0 176 51v172q0 76 53.5 131t131.5 55h189v-156q0 -26 18 -44.5t45 -18.5h12zM362 -80l67 -67l-67 -67l-67 67zM226 510
l67 -67l-67 -68l-67 68z" />
    <glyph glyph-name="_529" horiz-adv-x="623" 
d="M623 105l23 -13v-79l-23 -13h-12q-70 0 -119 49.5t-49 118.5v51h-84q-40 0 -80 -11v-147q0 -55 -26.5 -113t-88 -98t-166.5 -40l-18 105h18q95 0 176 51v172q0 76 53.5 131t131.5 55h189v-156q0 -26 18 -44.5t45 -18.5h12zM484 -194h-213v94h213q5 0 8 -2l-3 -94z
M381 -199l67 -67l-67 -67l-67 67zM226 510l67 -67l-67 -68l-67 68z" />
    <glyph glyph-name="_530" horiz-adv-x="623" 
d="M623 105l23 -13v-79l-23 -13h-12q-70 0 -119 49.5t-49 118.5v51h-84q-40 0 -80 -11v-147q0 -55 -26.5 -113t-88 -98t-166.5 -40l-18 105h18q95 0 176 51v172q0 76 53.5 131t131.5 55h189v-156q0 -26 18 -44.5t45 -18.5h12zM547 396h-213v94h213q5 0 8 -2l-3 -94zM226 510
l67 -67l-67 -68l-67 68z" />
    <glyph glyph-name="_531" horiz-adv-x="623" 
d="M623 105l23 -13v-79l-23 -13h-12q-70 0 -119 49.5t-49 118.5v51h-84q-40 0 -80 -11v-147q0 -55 -26.5 -113t-88 -98t-166.5 -40l-18 105h18q95 0 176 51v172q0 76 53.5 131t131.5 55h189v-156q0 -26 18 -44.5t45 -18.5h12zM547 396h-213v94h213q5 0 8 -2l-3 -94zM443 629
l67 -67l-67 -68l-67 68zM226 510l67 -67l-67 -68l-67 68z" />
    <glyph glyph-name="_532" horiz-adv-x="623" 
d="M623 105l23 -13v-79l-23 -13h-12q-70 0 -119 49.5t-49 118.5v51h-84q-40 0 -80 -11v-147q0 -55 -26.5 -113t-88 -98t-166.5 -40l-18 105h18q95 0 176 51v172q0 76 53.5 131t131.5 55h189v-156q0 -26 18 -44.5t45 -18.5h12zM456 510l67 -67l-67 -68l-67 68zM226 510
l67 -67l-67 -68l-67 68z" />
    </font>
</defs>
</svg>
