<?xml version="1.0" standalone="no"?>
<!DOCTYPE svg PUBLIC "-//W3C//DTD SVG 1.1//EN" "http://www.w3.org/Graphics/SVG/1.1/DTD/svg11.dtd" >
<svg xmlns="http://www.w3.org/2000/svg" xmlns:xlink="http://www.w3.org/1999/xlink" version="1.1">
<metadata>
Created by FontForge 20161003 at Sat Mar 17 11:41:07 2018
 By www-data
</metadata>
<defs>
<font id="icomoon" horiz-adv-x="1024" >
  <font-face 
    font-family="icomoon"
    font-weight="400"
    font-stretch="normal"
    units-per-em="1024"
    panose-1="0 0 0 0 0 0 0 0 0 0"
    ascent="960"
    descent="-64"
    bbox="-0.307692 -64 1581 960.444"
    underline-thickness="0"
    underline-position="0"
    unicode-range="U+0001-FFFD"
  />
<missing-glyph 
 />
    <glyph glyph-name=".notdef" unicode="&#xfffd;" 
 />
    <glyph glyph-name="glyph1" horiz-adv-x="0" 
d="M0 0v0v0v0z" />
    <glyph glyph-name="glyph1" horiz-adv-x="0" 
d="M0 0v0v0v0z" />
    <glyph glyph-name="uni0001" horiz-adv-x="0" 
d="M0 0v0v0v0z" />
    <glyph glyph-name="space" unicode=" " horiz-adv-x="512" 
d="M0 0v0v0v0z" />
    <glyph glyph-name="uniE900" unicode="&#xe900;" 
d="M0 326l11 9q1 0 33 -28.5t84 -31.5h8.5t9.5 1l347 201l23 20l-91 157q-8 15 -3.5 32t19.5 26q15 8 31.5 3.5t25.5 -19.5l82 -142l23 -40l116 -200h-1h1l4.5 -5t12.5 1t16.5 13.5t17.5 16.5q41 42 80 60t76 13q48 -7 72.5 -39.5t25.5 -33.5l-13 -7q-1 0 -23 29.5t-64 35.5
q-33 5 -69 -12t-75 -56q-7 -7 -13.5 -13t-13.5 -12q-29 -24 -57 -36.5t-54 -12.5h-8t-8 1h-2q-6 1 -12 2.5t-11 3.5q-34 13 -52.5 37t-21.5 29q-4 5 -39 31.5t-86 28.5q-34 1 -67.5 -14.5t-64.5 -47.5q-34 -35 -70 -51.5t-73 -14.5h-7q-53 5 -86 34t-34 31v0zM801 411
q33 19 42.5 55t-9.5 69q-18 32 -54.5 42t-68.5 -9q-33 -19 -42.5 -55t8.5 -69q19 -32 55.5 -42t68.5 9v0zM926 336q-36 5 -75 -13.5t-81 -59.5q-38 -39 -74 -56.5t-69 -12.5q-43 7 -65 36t-22 30l-1 1q-2 2 -39.5 33t-96.5 32q-37 1 -73 -15.5t-70 -50.5q-32 -32 -65 -47.5
t-67 -14.5q-51 3 -83.5 31.5l-32.5 28.5l-12 -9q2 -2 36.5 -32.5t91.5 -32.5q37 -2 72.5 14.5t70.5 51.5q31 31 64 47t67 15q52 -2 86.5 -28.5t38.5 -31.5q4 -6 28 -35.5t70 -36.5q4 -1 8.5 -1h8.5q33 0 67.5 18.5t71.5 54.5q38 40 74 57t69 12q42 -6 64.5 -35.5l22.5 -29.5
l13 6q-1 2 -25.5 34t-72.5 40v0z" />
    <glyph glyph-name="uniE901" unicode="&#xe901;" 
d="M933 46q17 0 32 5.5t27 16.5l-290 290q-5 -3 -10 -7t-10 -7q-16 -12 -29 -21.5t-24 -15.5q-10 -7 -23.5 -14t-30.5 -14q-16 -7 -32 -10.5t-30 -3.5h-2q-14 0 -30 3.5t-32 10.5q-17 7 -30.5 14t-23.5 14q-11 6 -24 15.5t-29 21.5q-5 3 -10 7l-10 8l-290 -291
q12 -11 27 -16.5t32 -5.5h842v0zM58 541q-17 11 -31 23.5t-27 26.5v-442l256 256q-39 27 -88.5 61t-109.5 75v0zM967 541q-59 -39 -108.5 -73t-90.5 -63l256 -256v442q-12 -14 -26.5 -26.5t-30.5 -23.5v0zM933 850h-842q-22 0 -38.5 -7.5t-28.5 -21.5q-12 -15 -18 -33.5
t-6 -41.5q0 -18 8 -37.5t23 -40.5q16 -21 33 -37.5t34 -28.5q10 -7 39.5 -27t77.5 -54q27 -18 50 -34t42 -30q17 -12 31.5 -22t26.5 -18q2 -1 4 -2.5t5 -4.5q3 -2 7 -4.5t8 -6.5q10 -7 17.5 -12t13.5 -10q6 -4 13.5 -8.5t16.5 -9.5t17 -9t16 -7q8 -2 15 -3.5t13 -1.5h2
q6 0 13 1.5t15 3.5q8 3 16 7t17 9t16.5 9.5t13.5 8.5q6 5 13.5 10t17.5 12q4 4 8 6.5t7 4.5q3 3 5 4.5t4 2.5q9 6 23.5 16t34.5 24q35 24 87.5 60.5t121.5 84.5q21 15 38.5 32.5t31.5 38.5q14 20 21 41.5t7 44.5q0 19 -7 35t-20 29q-14 14 -30 20.5t-34 6.5v0z" />
    <glyph glyph-name="uniE902" unicode="&#xe902;" 
d="M982 673l-414 271q-26 16 -56 16t-56 -17l-414 -270q-19 -13 -24 -35.5t8 -41.5t35.5 -24t41.5 8l409 267l409 -267q7 -5 15 -7t15 -2q14 0 26.5 6.5t20.5 18.5q13 20 8 42.5t-24 34.5v0zM877 337q-3 15 -14 24.5t-26 9.5h-23l-8 90q-7 72 -60.5 120.5t-125.5 48.5h-216
q-72 0 -125.5 -48.5t-59.5 -120.5l-9 -90h-23q-15 0 -26 -9.5t-14 -24.5l-34 -192q-3 -18 2 -35.5t16 -31.5q11 -13 27 -20.5t33 -8.5v-32q0 -33 24 -57t57 -24h26q34 0 58 24t24 57v32h264v-31q0 -34 24 -58t58 -24h26q33 0 57 24t24 58v31q17 1 33 8.5t27 20.5
q12 14 16.5 31.5t1.5 35.5l-34 192v0zM263 123q-29 0 -49 20t-20 49q0 28 20 48.5t49 20.5q28 0 48.5 -20.5t20.5 -48.5q0 -29 -20.5 -49t-48.5 -20zM280 371l8 83q4 45 37.5 75.5t78.5 30.5h13v-26q0 -17 11.5 -29t28.5 -12h110q17 0 29 12t12 29v26h12q45 0 78.5 -30.5
t37.5 -75.5l8 -83h-464v0zM761 123q-28 0 -48.5 20t-20.5 49q0 28 20.5 48.5t48.5 20.5q29 0 49 -20.5t20 -48.5q0 -29 -20 -49t-49 -20v0z" />
    <glyph glyph-name="uniE903" unicode="&#xe903;" 
d="M760 137q127 5 186 56.5t59 121.5q0 62 -44 109.5t-139 63.5q1 23 1 44.5v42.5h-804q0 -67 2.5 -146.5t17.5 -157t48 -146t93 -115.5q-73 -6 -117 -14.5t-44 -18.5q0 -8 31.5 -15.5t86 -13.5t128 -9t156.5 -3t156 3t128 9t86.5 13.5t31.5 15.5q0 10 -44 18.5t-118 14.5
q33 25 57.5 57.5t41.5 69.5v0zM819 410q53 -13 68 -38t15 -58q-1 -39 -20.5 -64t-92.5 -34q14 47 20.5 96t9.5 98v0zM116 513h126q-22 -63 -18.5 -137.5t16 -139.5t26.5 -108.5l14 -43.5q-77 59 -112 133t-47 140t-8.5 111l3.5 45v0zM487 683q6 55 58 76t107 38.5t92 46.5
t12 100q-8 21 -31 15t-15 -28q22 -62 -37 -79.5t-102 -31.5q-51 -17 -88.5 -48.5t-43.5 -88.5q-3 -22 21 -22t27 22v0zM713 785q-46 -11 -85 -34.5t-53 -72.5q-7 -22 16 -28.5t30 15.5q16 54 73.5 66t103.5 25q49 15 74.5 48.5t18.5 85.5q-3 22 -26.5 22.5t-20.5 -22.5
q8 -63 -37.5 -78.5t-93.5 -26.5v0z" />
    <glyph glyph-name="uniE904" unicode="&#xe904;" 
d="M967 838q-5 14 -15.5 25t-24.5 17l-198 74q-24 9 -49.5 3.5t-44.5 -23.5l-2 -3q-60 15 -121 15t-121 -15l-2 3q-19 18 -44.5 24t-49.5 -4l-198 -74q-14 -6 -24.5 -17t-15.5 -25q-4 -15 -2 -29.5t11 -27.5q37 -55 61.5 -96t32.5 -62q2 -5 5.5 -8t7.5 -4q5 -2 10 -1t8 4
q8 6 16 13.5t15 15.5l2 -357q-12 -37 -13 -78.5t8 -86.5q2 -6 5.5 -10t8.5 -6l55 -17q6 -1 11 -2t11 -2q14 -31 39.5 -54.5t57.5 -35.5l2 -1q12 -4 24 -10t23 -12q11 -7 22 -14.5t21 -15.5q3 -3 6.5 -4t6.5 -1t6.5 1t6.5 4q20 16 42.5 29.5t47.5 22.5l2 1q32 12 57 35.5
t40 54.5q5 0 10 1t9 3l58 17q5 2 8.5 6t5.5 10q9 45 8 86.5t-13 78.5l2 357q7 -8 15 -15.5t16 -13.5q2 -2 5.5 -3t6.5 -1h2.5t3.5 1q4 1 7.5 4t5.5 8q8 21 32.5 62t61.5 96q9 13 11 27.5t-2 29.5v0zM603 32l-2 -1q-24 -9 -46.5 -21.5t-42.5 -27.5q-9 6 -17.5 12t-17.5 11
q-13 8 -26.5 14.5t-27.5 11.5l-2 1q-21 8 -38.5 22.5t-29.5 34.5q8 2 15.5 5.5t14.5 8.5l26 18q20 -19 47 -30t56 -11t56 11t47 30l28 -19q7 -5 13.5 -8.5t14.5 -5.5q-12 -19 -29.5 -33.5t-38.5 -22.5v0zM512 248q-23 0 -39.5 14.5t-16.5 35.5q0 11 8 16t48 5t48 -5t8 -16
q0 -21 -16.5 -35.5t-39.5 -14.5zM512 171q11 -13 26 -20t33 -7q2 0 3.5 -0.5t3.5 -0.5q-14 -11 -31 -16.5t-35 -5.5t-35 5.5t-31 16.5q2 0 3.5 0.5t3.5 0.5q18 0 33 7t26 20zM925 804q-22 -33 -46.5 -71.5t-40.5 -68.5q-27 27 -48.5 65.5t-37 73.5t-24.5 60l-9 25
q-2 8 -9.5 12t-15.5 1q-8 -2 -12 -9.5t-1 -15.5q1 -4 22 -61.5t59 -116.5l-2 -334q-10 14 -21.5 26.5t-25.5 23.5q-6 5 -14.5 4.5t-13.5 -7.5q-6 -6 -5 -14.5t7 -13.5q53 -44 73 -105t7 -138l-46 -14q-14 -4 -28.5 -2t-26.5 11l-51 35q-9 7 -20.5 10.5t-23.5 3.5t-22 7.5
t-14 18.5q32 8 52.5 32t20.5 56q0 20 -9 33.5t-26 20.5q-13 5 -28.5 6.5t-32.5 1.5t-32.5 -1.5t-28.5 -6.5q-17 -7 -26 -20.5t-9 -33.5q0 -32 20.5 -56t52.5 -32q-4 -11 -14 -18.5t-22 -7.5t-23.5 -3.5t-20.5 -10.5l-49 -34q-13 -9 -29 -11.5t-31 2.5l-43 13q-13 77 7 138
t73 105q6 5 7 13.5t-5 14.5q-5 7 -13.5 7.5t-14.5 -4.5q-14 -11 -25.5 -23.5t-21.5 -26.5l-2 334q38 59 59 116.5t22 61.5q3 8 -1 15.5t-12 9.5q-8 3 -15.5 -1t-9.5 -12l-9 -25t-24.5 -60t-37 -73.5t-48.5 -65.5q-16 30 -40.5 68.5t-46.5 71.5q-3 5 -4 10.5t1 11.5
q2 5 6 9.5t9 6.5l198 75q13 5 27 2t24 -13l11 -11q4 -4 9 -5.5t11 -0.5q59 17 121 17t121 -17q6 -1 11 0.5t9 5.5l11 11q10 10 24 13t27 -2l198 -75q5 -2 9 -6.5t6 -9.5q2 -6 1 -11.5t-4 -10.5v0zM364 732l-69 -44q-7 -5 -8.5 -13t2.5 -15q3 -5 7.5 -7.5t9.5 -2.5q3 0 5.5 1
t5.5 3l69 45q2 1 4 0.5t4 -2.5q6 -6 14 -6.5t14 5.5q7 5 7.5 13.5t-5.5 14.5q-11 13 -28.5 15.5t-31.5 -7.5v0zM600 724q-6 -6 -5.5 -14.5t7.5 -13.5q6 -6 14 -5.5t14 6.5q2 2 4 2.5t4 -0.5l69 -45q3 -2 5.5 -3t5.5 -1q5 0 9.5 2.5t7.5 7.5q4 7 2.5 15t-8.5 13l-69 44
q-14 10 -31.5 7.5t-28.5 -15.5v0zM369 677q-14 0 -24.5 -10.5t-10.5 -25.5q0 -14 10.5 -24.5t24.5 -10.5q10 0 18.5 8.5t8.5 26.5q0 19 -8.5 27.5t-18.5 8.5zM369 636q-4 0 -7 2t-5 3q2 2 5 4t7 2q2 0 3.5 -1.5t1.5 -4.5q0 -2 -1.5 -3.5t-3.5 -1.5zM655 677q-6 0 -13 -4
t-11 -14q-2 -5 -2.5 -9.5t-0.5 -8.5q0 -18 8.5 -26.5t18.5 -8.5q14 0 24.5 10.5t10.5 24.5q0 15 -10.5 25.5t-24.5 10.5zM655 636q-2 0 -3.5 1.5t-1.5 3.5q0 3 1.5 4.5t3.5 1.5q4 0 7 -2t5 -4q-2 -1 -5 -3t-7 -2z" />
    <glyph glyph-name="uniE905" unicode="&#xe905;" 
d="M855 604q24 23 37.5 54.5t13.5 66.5q0 7 -0.5 13.5t-1.5 12.5l-103 -29l-15 -17l69 -101v0zM763 893v-121h24l101 29q-18 36 -51 61t-74 31v0zM657 575q18 -9 38 -14.5t42 -5.5q20 0 39.5 5t36.5 13l-65 94zM710 893q-39 -6 -71 -29t-51 -56l106 -36h16v121v0zM903 891
q-34 33 -76.5 51t-89.5 18t-90 -18t-76 -51q-25 -25 -41.5 -55t-22.5 -64h43q15 63 67 104.5t120 41.5q79 0 135.5 -56.5t56.5 -136.5t-56.5 -136.5t-135.5 -56.5q-27 0 -51.5 7t-45.5 20l-31 -31q28 -18 60.5 -28t67.5 -10q47 0 89.5 18t76.5 51q33 34 50.5 76.5t17.5 89.5
t-17.5 90t-50.5 76v0zM442 2v414l307 307v22h-696v-22l306 -307v-414h-112l-25 -66h357l-24 66h-113zM296 772l-149 149l-30 -30l119 -119h60z" />
    <glyph glyph-name="uniE906" unicode="&#xe906;" 
d="M940 229q28 0 50.5 17.5t31.5 43.5q6 28 -4.5 54t-35.5 41l-366 207q-33 19 -51 22t-20 3v22q53 11 88.5 53.5t35.5 98.5q0 65 -47.5 111t-111.5 46q-43 0 -77 -21.5t-56 -58.5q-6 -11 -2 -24t16 -20q11 -7 24 -2.5t20 15.5q10 20 31 32t44 12q36 0 63 -26t27 -64
t-26 -64t-64 -26q-7 0 -13.5 -3t-10.5 -6q-5 -5 -7 -11.5t-2 -13.5v-52l-20.5 -4t-48.5 -21q-34 -20 -95 -54.5t-121.5 -68.5t-105 -59l-44.5 -25q-25 -13 -35.5 -40t-4.5 -55q7 -28 29.5 -45t52.5 -17h152v-211q0 -27 20 -47t46 -20h420q26 0 46 19t20 48v211l152 3v0z
M955 308q-1 -5 -6 -9t-11 -4h-152v22q0 26 -20 45t-47 19h-419q-26 0 -46 -19t-20 -45v-22h-150q-7 0 -11.5 3t-6.5 10q-1 5 1.5 10.5t7.5 9.5l366 205q17 10 35 14t36 4t36 -5t35 -13l366 -207q3 -2 5.5 -7.5t0.5 -10.5v0z" />
    <glyph glyph-name="uniE907" unicode="&#xe907;" 
d="M347 435q1 8 1.5 16.5t1.5 16.5q2 20 6 39.5t8 38.5q3 10 6 19.5t6 18.5q4 9 7.5 18t7.5 18q9 17 18.5 32.5t20.5 29.5q3 3 6 6.5t5 6.5l6 6l6 6l11.5 11.5t11.5 9.5q12 9 23 17.5t22 13.5q11 6 20 10.5t17 7.5q16 7 25 10l9 3l-7.5 -5.5t-20.5 -15.5q-7 -5 -15 -11.5
t-16 -14.5q-10 -7 -18.5 -16.5t-18.5 -18.5q-5 -5 -9 -11t-9 -12q-2 -3 -4.5 -6t-4.5 -6t-4 -6.5t-4 -6.5q-9 -13 -16 -28l-14 -30q-2 -8 -5 -16t-6 -17q-2 -8 -4 -17t-5 -17q-3 -18 -6.5 -36t-4.5 -37q-1 -7 -1.5 -13.5t-1.5 -13.5h141.5h134.5h137.5h150.5q1 7 1 14v14
q0 68 -23 128t-63.5 106.5t-95.5 76.5t-118 37q8 8 13 18.5t5 22.5q0 23 -16.5 39.5t-39.5 16.5t-39.5 -16.5t-16.5 -39.5q0 -12 5 -22.5t13 -18.5q-63 -7 -118 -37t-95.5 -76.5t-63.5 -106.5t-23 -128v-14t1 -14h30.5h29.5v0zM224 414h800v-71h-800v71v0zM696 293
q-16 -7 -46 -19t-60.5 -23.5t-53.5 -20l-23 -8.5l-167 11l52.5 14.5t80.5 20.5t22 28t-22 22q-8 0 -40 -1t-67.5 -2.5t-64 -2.5l-28.5 -1l-119 -43l32 -199l15 20.5t34 20.5q9 0 47.5 -0.5t83.5 -1t84.5 -0.5t50.5 2q10 3 44 23t71.5 44.5t70 46t39.5 27.5q16 10 5 33.5
t-41 8.5v0zM0 247v-259l182 34l-45 249z" />
    <glyph glyph-name="uniE908" unicode="&#xe908;" 
d="M1006 115l-287 291q-9 -5 -16.5 -8.5t-17.5 -7.5q-10 -3 -21.5 -4.5t-23.5 -1.5q-14 0 -27 2.5t-25 6.5l-93 -98q9 -6 20 -10t23 -5q15 0 30 5t27 17l2 2l287 -305q8 -8 19.5 -13t23.5 -5t23 5t20 13l36 36q8 9 13 20.5t5 22.5q0 12 -5 21t-13 16v0zM319 497l86 81
q-4 12 -5.5 24t-1.5 23q0 21 6 40.5t16 36.5l-180 188q-21 20 -51.5 20t-50.5 -20q-36 -36 -37.5 -86.5t30.5 -89.5l188 -217v0zM590 469q10 -10 23 -15t27 -5q13 0 26 5t23 15l229 229q7 7 7 16t-7 15l-5 5q-3 3 -7 5t-9 2t-8.5 -2t-6.5 -5l-152 -151q-5 -6 -11.5 -8
t-13.5 -2t-13.5 3t-11.5 6l-4 5q-10 10 -10 23.5t10 23.5l151 152q7 7 7 16t-7 16l-4 4q-4 4 -7.5 5.5t-8.5 1.5t-8.5 -1.5t-7.5 -5.5l-151 -151q-5 -5 -11.5 -7t-13.5 -2t-13.5 2.5t-11.5 6.5l-5 4q-5 5 -7 11.5t-2 13.5t3 13.5t6 11.5l152 151q3 4 5 7.5t2 8.5t-2 9t-5 7
l-5 5q-3 3 -6.5 4.5t-8.5 1.5q-6 0 -4 -5t-1 -8l-228 -229q-10 -10 -15.5 -23t-5.5 -26q0 -14 5.5 -28t15.5 -22l7 -7l-473 -447q-8 -9 -13 -20t-5 -23t5 -23.5t13 -19.5l34 -39q8 -8 19.5 -15t23.5 -7v0q12 0 23 7t20 15l445 477l7 -7v0z" />
    <glyph glyph-name="uniE909" unicode="&#xe909;" 
d="M891 419h-71l4 78q0 7 -2 13t-7 11t-11 7.5t-12 2.5h-717q-6 0 -12.5 -2.5t-10.5 -7.5q-5 -5 -7 -11t-2 -13l14 -303q3 -56 34.5 -100.5t79.5 -66.5h-138q-14 0 -23.5 -9.5t-9.5 -22.5q0 -14 9.5 -23.5t23.5 -9.5h806q13 0 23 9.5t10 23.5q0 13 -10 22.5t-23 9.5h-143
q39 18 67.5 51t39.5 75h88q55 0 94 39t39 94t-39 94t-94 39v0zM618 76h-369q-51 0 -87.5 35t-39.5 86l-12 269h647l-12 -269q-3 -51 -39.5 -86t-87.5 -35v0zM891 218h-80l6 136h1h1h72q28 0 48 -20t20 -48t-20 -48t-48 -20zM338 585q4 -3 8 -4t8 -1q9 0 16.5 4t11.5 12
q7 12 4 25t-15 20q-14 8 -23 22t-11 32q-3 18 1.5 35.5t15.5 30.5v0v0q3 3 5.5 6t5.5 6q22 26 42.5 55t27.5 68q2 13 -5.5 24t-21.5 13q-13 3 -24 -5t-13 -21q-4 -26 -19.5 -47t-35.5 -44q-3 -3 -5.5 -6t-5.5 -6q-20 -24 -29 -55.5t-4 -63.5t22.5 -58.5t43.5 -41.5v0z
M439 658q8 -21 22 -39t32 -32q4 -4 9 -5.5t11 -1.5q7 0 14 3.5t11 9.5q9 11 7 24t-13 22q-11 8 -19.5 19t-12.5 24q-10 24 -0.5 50t40.5 59q21 23 35 50t18 55q2 13 -5.5 24t-21.5 13q-13 2 -24 -5.5t-13 -21.5q-3 -19 -12.5 -37t-24.5 -34q-16 -17 -47 -65t-6 -112v0z" />
    <glyph glyph-name="uniE90A" unicode="&#xe90a;" 
d="M220 2q34 7 57 34t36 58h-23h-15.5t-15.5 1q-7 -16 -19.5 -28.5t-29.5 -14.5q-6 4 -12.5 7t-14.5 3q-17 0 -29 -12t-12 -29q0 -18 12 -30t29 -12q12 0 22 6.5t15 16.5v0zM863 -21q17 0 29 12t12 30q0 17 -12 29t-29 12q-7 0 -13 -2t-11 -6q-15 5 -26 17t-18 27
q-12 -2 -22 -3t-18 -1h-17q10 -30 31 -55.5t56 -34.5q5 -11 15 -18t23 -7v0zM796 767l-85 84q-11 -3 -38.5 -20.5t-38.5 -28.5l112 -113q11 11 28.5 38.5t21.5 39.5zM635 735q2 0 3.5 0.5t2.5 2.5l12 11l1.5 1.5t0.5 1.5q1 2 0.5 4.5t-2.5 4.5t-4.5 2.5t-4.5 -0.5
q-1 0 -1.5 -0.5l-1.5 -1.5l-11 -12q-3 -2 -3 -5.5t3 -5.5q1 -2 2.5 -2.5t2.5 -0.5v0zM600 699q1 0 3 1t3 2l12 12q2 2 2 5.5t-2 6.5q-3 2 -6.5 2t-5.5 -2l-12 -12q-3 -3 -3 -6.5t3 -5.5q1 -1 2.5 -2t3.5 -1zM564 664q2 0 3.5 0.5t2.5 1.5l12 12q2 3 2 6.5t-2 5.5t-5.5 2
t-6.5 -2l-12 -12q-2 -2 -2 -5.5t2 -6.5q2 -1 3.5 -1.5t2.5 -0.5zM679 728q1 3 0.5 5.5t-2.5 4.5q-2 1 -4.5 1.5t-4.5 -0.5q-1 0 -1.5 -0.5t-1.5 -0.5l-12 -12q-2 -3 -2 -6.5t2 -5.5q1 -1 3 -2t3 -1q2 0 3.5 1t2.5 2l12 12q1 0 1 1t1 1zM641 702q-2 2 -5.5 2t-5.5 -2l-12 -12
q-3 -2 -3 -5.5t3 -6.5q1 -1 2.5 -1.5t3.5 -0.5q1 0 2.5 0.5t3.5 1.5l11 12q3 2 3 5.5t-3 6.5v0zM606 666q-3 3 -6.5 3t-5.5 -3l-12 -12q-2 -2 -2 -5.5t2 -5.5q1 -2 2.5 -2.5t3.5 -0.5t3.5 0.5t2.5 2.5l12 11q2 3 2 6.5t-2 5.5v0zM683 688q2 0 3.5 0.5t2.5 1.5l12 12l0.5 1
l0.5 1q1 3 1 5.5t-2 4.5t-4.5 2t-5.5 -1l-1 -0.5l-1 -0.5l-12 -12q-2 -3 -2 -6.5t2 -5.5q1 -1 2.5 -1.5t3.5 -0.5v0zM647 652q2 0 3.5 0.5t2.5 1.5l12 12q3 3 3 6.5t-3 5.5q-2 3 -5.5 3t-6.5 -3l-12 -12q-2 -2 -2 -5.5t2 -6.5q2 -1 3.5 -1.5t2.5 -0.5v0zM612 616q1 0 2.5 1
t3.5 2l12 12q2 2 2 5.5t-2 6.5q-3 2 -6.5 2t-5.5 -2l-12 -12q-3 -3 -3 -6.5t3 -5.5q1 -1 2.5 -2t3.5 -1v0zM990 514h-50v386q0 7 -5 12t-12 5h-73q-3 0 -6 -1.5t-5 -3.5l-60 -55q-11 2 -21.5 -0.5t-17.5 -4.5l57 -58q3 8 5 18.5t0 20.5l55 50h49v-369h-872q-14 0 -24 -10
t-10 -24v-33q0 -14 10 -24t24 -10h20q2 -10 4.5 -21t5.5 -24l24 -113q25 -91 72 -116.5t106 -27.5h12h12h442v0v0v0v0h23q8 0 16 0.5t17 1.5v0q38 6 82 33.5t68 99.5l38 167h14h1.5h1.5q13 1 22 10.5t9 23.5v33q0 14 -10 24t-24 10v0zM723 163v0v0v0v0v0z" />
    <glyph glyph-name="uniE90B" unicode="&#xe90b;" 
d="M367 927q5 4 22.5 -2.5l17.5 -6.5l-14 11t-10 31q44 -35 65.5 -38.5l21.5 -3.5h27q32 0 37.5 -23t5.5 -55v-19h-6l-19 53h-114l-12 -53h-9l-1 43.5t-12 62.5v0zM718 957q-43 8 -55 -36t31 -52q16 -3 27.5 -13.5t20.5 -23.5q6 -8 15.5 -28t-0.5 -30q-7 -8 -31.5 -6.5
t-33.5 1.5q-18 0 -35.5 1t-34.5 2q-9 4 -18.5 6.5t-20.5 2.5q-13 0 -24.5 -3.5t-20.5 -8.5q-20 5 -42.5 8.5t-45.5 3.5q-24 0 -56.5 -7l-32.5 -7l-8.5 6t-39.5 8q-17 -3 -28 -11.5t-16 -19.5q-36 -17 -56 -47.5t-29.5 -68.5t-10.5 -79.5t2 -82.5q4 -43 49.5 -43.5t41.5 43.5
q-2 29 -4.5 70t7.5 75q5 -25 18.5 -55.5t40.5 -59.5q54 -55 21.5 -82.5t43.5 -27.5h-43v-35h1l18 -380q0 -16 11.5 -28t27.5 -12q17 0 28.5 12t11.5 28l-7 332q-18 7 -40.5 19.5t-38.5 22.5l87 -41h11l22 10l-8 -344q0 -17 11.5 -28.5t28.5 -11.5q16 0 27.5 11.5t11.5 27.5
l19 394q-1 0 -2.5 -1t-2.5 -2v26h-69q101 0 70 18t16 92q47 75 55.5 123l8.5 48v0.5v1.5l-1 5q53 -4 111 0t82 56q15 32 10 68t-23.5 67.5t-47 55t-61.5 30.5v0z" />
    <glyph glyph-name="uniE90C" unicode="&#xe90c;" 
d="M513 726q48 0 82 34.5t34 82.5q0 49 -34 83t-82 34q-49 0 -83 -34t-34 -83q0 -48 34 -82.5t83 -34.5zM909 920q-18 0 -32.5 -11t-19.5 -27h-107q-5 16 -19 27t-32 11q-22 0 -38 -16t-16 -38v-33q0 -22 16 -38t38 -16q18 0 32 11t19 27h12v-107q0 -5 -3 -8t-8 -3h-145h-1
v0h-1h-1h-181h-0.5h-0.5h-1h-1h-145q-5 0 -8 3t-3 8v107h10q5 -16 19 -27t32 -11q22 0 38 16t16 38v33q0 22 -16 38t-38 16q-18 0 -32 -11t-19 -27h-106q-5 16 -19.5 27t-32.5 11q-22 0 -38 -16t-16 -38v-33q0 -22 16 -38t38 -16q18 0 32.5 11t19.5 27h19v-175
q0 -13 9.5 -22.5t23.5 -9.5h171v-269l-59 -137q-5 -12 -8.5 -29t-3.5 -29v-169q0 -16 11 -27.5t28 -11.5h33q17 0 28 11.5t11 27.5v169q0 10 3.5 24.5t7.5 23.5l53 110h37l53 -112q4 -9 7.5 -23.5t3.5 -25.5v-168q0 -16 11.5 -27.5t27.5 -11.5h34q16 0 27.5 11.5t11.5 27.5
v168q0 13 -4 30t-9 28l-59 132q0 1 0.5 2t0.5 2v273h171q13 0 22.5 9.5t9.5 22.5v175h18q5 -16 19.5 -27t32.5 -11q22 0 38 16t16 38v33q0 22 -16 38t-38 16v0z" />
    <glyph glyph-name="uniE90D" unicode="&#xe90d;" 
d="M134 758l-96 -130q-5 -7 -6 -15t3 -15l149 -302q-47 -43 -79.5 -89t-46.5 -93q-2 -6 -0.5 -13t5.5 -12q4 -6 10 -9t13 -3h794q6 0 11 2.5t9 6.5q71 74 95.5 148.5t-1.5 136.5q-20 49 -68 81.5t-117 45.5l67 169h67q12 0 20.5 8t8.5 20t-8.5 20.5t-20.5 8.5h-256
q-12 0 -20.5 -8.5t-8.5 -20.5t8.5 -20t20.5 -8h128l-64 -163q-9 1 -17 1.5t-17 0.5q-71 0 -147.5 -16.5t-152.5 -48.5q-52 -21 -99.5 -48.5t-87.5 -58.5l-136 274l148 199l96 -67q9 -7 21 -5t18 12q7 9 5 20.5t-12 18.5l-118 83q-10 7 -21.5 5t-18.5 -11l-43 -59l-99 84
q-9 8 -21 7t-19 -10q-8 -9 -7 -21t10 -20l101 -86v0zM439 389q71 29 141.5 44.5t136.5 15.5q86 0 145.5 -26.5t79.5 -73.5q18 -44 -1.5 -100t-73.5 -115h-740q18 36 48.5 72t70.5 69t89 62t104 52v0zM1024 30q0 -12 -8.5 -20.5t-20.5 -8.5h-966q-12 0 -20.5 8.5t-8.5 20.5
t8.5 20t20.5 8h966q12 0 20.5 -8t8.5 -20zM449 219q0 11 8.5 19.5t19.5 8.5h49l141 96q10 7 21.5 4.5t18.5 -11.5q6 -10 4 -21.5t-12 -18.5l-72 -49q11 0 19.5 -8.5t8.5 -19.5q0 -12 -8.5 -20.5t-20.5 -8.5h-148q-12 0 -20.5 8.5t-8.5 20.5v0z" />
    <glyph glyph-name="uniE90E" unicode="&#xe90e;" 
d="M1018 909q-5 6 -12.5 8t-14.5 0l-972 -268q-10 -3 -15.5 -12.5t-2.5 -19.5t12.5 -15.5t19.5 -2.5l918 253l-354 -762l-153 152l86 133q6 9 3.5 19.5t-11.5 16.5t-19.5 3.5t-16.5 -11.5l-78 -121l-123 123l357 151q10 4 14 14t0 20t-14 14t-20 0l-379 -160l-60 60
q-8 8 -19 8t-18 -7q-8 -8 -8 -19t8 -18l71 -71l90 -399q2 -9 8.5 -14.5t15.5 -5.5h0.5h0.5q6 0 10.5 2t8.5 6l151 125l84 -84q4 -4 8.5 -6t10.5 -2q1 0 2 0.5t2 0.5q6 1 11 5t8 9l394 847q3 7 2 14.5t-6 13.5v0zM286 328l96 -97l-45 -131l-51 228v0zM386 83l37 107l42 -42
l-79 -65v0z" />
    <glyph glyph-name="uniE90F" unicode="&#xe90f;" 
d="M512 960q-78 0 -146.5 -29.5t-120 -81t-81 -120t-29.5 -146.5q0 -41 8.5 -79.5t24.5 -74.5q35 -77 83.5 -154t96 -143t88 -116t60.5 -73q3 -3 7 -5t9 -2t9 2t7 5q20 23 60.5 73t88 116t96 143t83.5 154q16 36 24.5 74.5t8.5 79.5q0 78 -29.5 146.5t-81 120t-120 81
t-146.5 29.5v0zM512 387q-41 0 -76.5 15.5t-62 42t-42 62.5t-15.5 76q0 41 15.5 76.5t42 62t62 42t76.5 15.5q40 0 76 -15.5t62.5 -42t42 -62t15.5 -76.5q0 -40 -15.5 -76t-42 -62.5t-62.5 -42t-76 -15.5v0z" />
    <glyph glyph-name="uniE910" unicode="&#xe910;" 
d="M1000 861h-976q-10 0 -17 -7t-7 -17v-673q0 -10 7 -17t17 -7h367v-58v-1.5v-1.5h-52q-10 0 -16.5 -6.5t-6.5 -15.5t6.5 -15.5t16.5 -6.5h358q10 0 16.5 6.5t6.5 15.5t-6.5 15.5t-16.5 6.5h-52v1.5v1.5v58h355q10 0 17 7t7 17v673q0 10 -7 17t-17 7zM955 269q0 -10 -7 -17
t-17 -7h-838q-10 0 -17 7t-7 17v511q0 10 7 17t17 7h838q10 0 17 -7t7 -17v-511z" />
    <glyph glyph-name="uniE911" unicode="&#xe911;" 
d="M302 597q-10 0 -18 -7.5t-8 -18.5v-59q0 -3 2 -5t5 -2h39q3 0 4.5 2t1.5 5v59q0 11 -7.5 18.5t-18.5 7.5v0zM315 518h-25v53q0 6 3.5 9.5t8.5 3.5q6 0 9.5 -3.5t3.5 -9.5v-53zM722 597q-11 0 -18.5 -7.5t-7.5 -18.5v-59q0 -3 1.5 -5t4.5 -2h39q3 0 5 2t2 5v59
q0 11 -8 18.5t-18 7.5zM734 518h-25v53q0 6 3.5 9.5t9.5 3.5q5 0 8.5 -3.5t3.5 -9.5v-53zM1017 343h-66v131q17 -5 34 -7.5t32 -2.5q3 0 5 2t2 4q0 3 -2 5t-5 2q-16 0 -34.5 3t-36.5 9h-0.5h-0.5q-20 6 -40.5 15.5t-39.5 21.5q-23 15 -52 45t-29 71v30q0 1 -0.5 1.5
l-0.5 0.5l-12 35q-1 2 -2.5 3.5t-3.5 1.5v0v0q-3 0 -4.5 -1.5t-2.5 -3.5l-9 -30h-6l-16 64q0 2 -2 3.5t-4 1.5v0v0q-2 0 -4 -1.5t-2 -3.5l-15 -64h-6l-10 30q-1 2 -3 3.5t-4 1.5v0v0q-2 0 -3.5 -1.5t-2.5 -3.5l-11 -35v-0.5v-1.5v-65h-296v65v1.5v0.5l-12 35q-1 2 -3 3.5
t-4 1.5t-3.5 -1.5t-2.5 -3.5l-10 -30h-5l-16 64q0 2 -2 3.5t-4 1.5q-3 0 -4.5 -1.5t-2.5 -3.5l-14 -64h-6l-11 30q0 2 -2 3.5t-4 1.5t-3.5 -1.5t-2.5 -3.5l-11 -35l-0.5 -0.5t-0.5 -1.5v-30q0 -41 -29 -71t-52 -45q-19 -12 -39.5 -21.5t-40.5 -15.5h-1v0q-18 -6 -36.5 -9
t-34.5 -3q-3 0 -5 -2t-2 -5q0 -2 2 -4t5 -2q15 0 32 2.5t34 7.5v-131h-66q-3 0 -5 -2t-2 -5v-31q0 -3 2 -5t5 -2h214v-143q0 -3 2 -5t5 -2h149q3 0 5 2t2 5v89l128 53l128 -53v-89q0 -3 2 -5t5 -2h149q3 0 5 2t2 5v143h214q3 0 5 2t2 5v31q0 3 -2 5t-5 2v0zM938 478v-135
h-74v169q17 -11 36 -19.5t38 -14.5v0zM851 520v-177h-67v248q9 -19 26 -37t41 -34zM673 311v324h98v-324h-98zM647 311h-135v0v0v0v0v0h-148v7h296v-7h-13v0zM479 298l-78 -33v33h78zM623 298v-33l-78 33h78zM253 311v324h98v-324h-98v0zM660 331h-296v232h296v-232z
M678 687l6 -17q0 -2 2 -3t4 -1h15q2 0 4 1t2 4l10 42l11 -42q0 -3 2 -4t4 -1h15q2 0 4 1t3 3l5 17l6 -16v-23h-98v23l5 16v0zM660 594v-18h-296v18h296zM258 687l6 -17q1 -2 3 -3t4 -1h15q2 0 4 1t2 4l10 42l11 -42q0 -3 2 -4t4 -1h15q2 0 4 1t2 3l6 17l5 -16v-23h-98v23
l5 16v0zM240 591v-248h-67v177q24 16 41 34t26 37zM86 478q19 6 38 14.5t36 19.5v-169h-74v135zM13 329h227v-18h-227v18v0zM371 161h-137v137h137v-137v0zM384 298h4v-38l-4 -2v40v0zM636 260v38h4v-40l-4 2v0zM790 161h-137v137h137v-137v0v0zM1011 311h-227v18h227v-18v0
z" />
    <glyph glyph-name="uniE912" unicode="&#xe912;" 
d="M986 15h-977q-2 0 -4 1t-3 3q-2 2 -2 4v4l11 34q1 3 3.5 4.5t5.5 1.5h34l6 21q1 3 3.5 4.5t5.5 1.5v0q-5 7 -10.5 16.5t-10.5 19.5q-9 21 -11.5 31l-2.5 10q0 2 0.5 4t1.5 3q1 2 2.5 2.5t3.5 1.5q2 0 36.5 2t64.5 -4q18 -4 32 -9t23 -9l-1 19q-2 25 -10 56l-8 31v4.5
t2 3.5q3 5 20.5 10t67.5 5q43 0 73 -9t43 -15q9 19 22.5 42t33.5 48q44 55 92 78.5t52 24.5h0.5h0.5v0v0q0 1 0.5 1h0.5q2 0 3.5 -0.5t2.5 -1.5h0.5t0.5 -1q1 -1 1.5 -2l1.5 -3v0v0v0v0v0q0 -1 1 -8t2 -21q5 3 12 6.5t18 8.5q25 12 61.5 19t38.5 7q2 1 4.5 0t4.5 -4
q1 -2 1 -4.5t-1 -5.5l-9 -16t-19 -47q-6 -16 -8.5 -29.5t-3.5 -22.5q9 5 23 12t32 12q32 11 63 12.5t32 1.5q3 0 5 -1.5t3 -3.5t1 -4.5t-1 -4.5q0 -1 -3 -6.5t-9 -17.5q-4 -7 -8 -19t-6 -22q8 2 21 5t32 6q38 8 82.5 7t48.5 -1h1h1l0.5 -0.5l0.5 -0.5v0v0v0q2 0 3 -1.5
t2 -2.5q1 -2 1 -3.5v-3.5v0v0v0l-0.5 -0.5l-0.5 -0.5v0v0v0l-0.5 -1l-0.5 -1q-2 -2 -21 -27.5t-36 -55.5q-13 -22 -19.5 -43t-8.5 -32h12q3 0 6 -3t3 -6v-21h10q3 0 5.5 -2t3.5 -5l18 -75q1 -3 0.5 -5t-1.5 -3q-2 -2 -4 -3t-4 -1v0zM22 34h953l-15 57h-11h-3t-2 1h-243v-9
q0 -2 -1 -3.5t-2 -3.5q-1 -1 -3 -1.5t-3 -0.5v0v0h-80v0v0l-536 2l-6 -21q-1 -2 -3.5 -4t-5.5 -2h-34l-5 -15v0zM626 92h56v9q0 4 3 6.5t7 2.5h66q4 12 12.5 38.5t12.5 52.5q4 21 4.5 39t0.5 30q-17 -11 -48.5 -35t-54.5 -52q-23 -27 -37.5 -52t-21.5 -39v0zM542 93l64 -1
q5 12 21 41.5t43 61.5q22 26 49.5 48t47.5 35h-6.5h-6.5q-20 0 -43 -5t-24 -5q-3 -1 -5.5 0t-4.5 3q-1 2 -1 4v4v4v10q-1 6 -3 15l-4 18q-16 -18 -43 -53t-43 -68q-16 -35 -26.5 -66t-14.5 -46v0zM435 93h87q4 12 15 46.5t29 73.5q16 34 43 68.5t43 53.5q-9 0 -19.5 -2
t-19.5 -6q-18 -8 -32.5 -20t-14.5 -13q-3 -2 -6.5 -2t-6.5 2l-37 36q-11 -17 -20.5 -35t-17.5 -34q-21 -49 -31 -99t-12 -69v0zM230 94l167 -1q-4 7 -9 17.5t-9 22.5q-6 16 -9 35.5t-3 32.5q-11 -5 -29.5 -15t-37.5 -26q-20 -16 -39 -35l-31 -31v0zM92 94h109l-1 47
q-7 4 -22.5 10t-37.5 10q-21 5 -46 4.5t-39 -1.5q1 -4 3.5 -11t6.5 -15q7 -15 15 -27t12 -17v0zM384 212q1 -6 3 -29.5t9 -42.5q6 -15 11.5 -27t9.5 -18q2 20 12 71t33 102q18 43 47.5 88t49.5 73q-21 -11 -49.5 -31.5t-53.5 -52.5q-22 -27 -36.5 -52.5t-22.5 -43.5l-13 -37
v0zM218 147l1 -38q12 13 31 31t38 34q25 21 47.5 32t31.5 15q2 4 4.5 11.5t6.5 17.5q-12 6 -40.5 14.5t-68.5 8.5q-33 0 -48.5 -2.5t-21.5 -4.5q3 -12 8.5 -37.5t7.5 -46.5l3 -34v-1v0v0zM778 110h161v10h-158q-1 -2 -1.5 -4.5t-1.5 -5.5v0zM874 139h44q2 10 9 34t22 50
q7 11 13.5 22t13.5 20q-14 -11 -29.5 -26.5t-29.5 -35.5q-19 -26 -29 -41t-14 -23v0zM787 139h67q3 8 13.5 25.5t34.5 49.5q21 29 43 49t39 31q-20 1 -47 0t-49 -6q-37 -7 -52 -11l-15 -4q-3 -1 -5.5 -0.5t-4.5 2.5q-1 2 -2 4.5t0 4.5q0 1 6 24t13 37q2 2 3 5t2 5
q-13 -1 -33.5 -3.5t-39.5 -8.5q-30 -10 -47.5 -21t-18.5 -11l-1 -0.5l-1 -0.5q1 -4 1.5 -8t0.5 -7v-3.5t1 -3.5q11 3 27.5 6t31.5 3q20 0 31 -0.5t12 -0.5h1v0q1 0 1.5 -0.5t1.5 -0.5l1.5 -1.5l1.5 -1.5q1 0 1 -1t1 -1v-1.5v-1.5q0 -2 0.5 -28.5t-5.5 -60.5q-2 -15 -6 -30.5
t-8 -28.5v0zM525 346l34 -32q5 3 11.5 8.5t14.5 10.5v38.5t-2 42.5q0 4 -0.5 7.5t-1.5 6.5q-10 -14 -25 -35.5t-31 -46.5zM602 404q1 -14 1 -31.5v-29.5q1 0 1.5 0.5t1.5 0.5q21 9 43.5 9.5t24.5 0.5q1 0 2.5 -0.5t2.5 -1.5q0 -1 0.5 -1h0.5q1 -1 1.5 -2t0.5 -2v0v0
q1 9 4 21t8 26q5 16 10.5 29t9.5 21q-16 -3 -38.5 -8.5t-37.5 -12.5q-16 -8 -24.5 -12.5t-11.5 -6.5v0zM390 537h-176q-25 0 -42 17.5t-17 41.5t17 41.5t42 17.5q4 0 8 -0.5t8 -2.5q10 21 29.5 33.5t42.5 12.5q32 0 55.5 -22.5t24.5 -54.5h4h4q17 0 29.5 -12t12.5 -30
q0 -17 -12.5 -29.5t-29.5 -12.5v0zM214 636q-17 0 -29 -11.5t-12 -28.5t12 -28.5t29 -11.5h176q9 0 16 7t7 16q0 10 -7 17t-16 7q-4 0 -7 -1t-6 -3q-2 -1 -5 -1t-5 1q-2 2 -3 4.5t-1 4.5q0 3 0.5 5t0.5 4q0 26 -18 44t-44 18q-20 0 -36 -11.5t-22 -29.5q-1 -2 -2.5 -3.5
l-2.5 -2.5q-2 -1 -4 -0.5t-4 0.5q-4 2 -8.5 3t-8.5 1v0zM786 661q-4 0 -6.5 2.5t-2.5 6.5v33q-9 2 -17 5t-15 9l-24 -24q-2 -3 -6 -3t-7 3q-2 3 -2 6.5t2 6.5l24 24q-5 7 -8.5 15t-4.5 17h-34q-4 0 -6.5 2.5t-2.5 6.5t2.5 6.5t6.5 2.5h34q1 9 4.5 17t8.5 15l-24 24
q-2 2 -2 6t2 7q3 2 7 2t6 -2l24 -24q7 5 15 8.5t17 4.5v34q0 3 2.5 6t6.5 3t6.5 -3t2.5 -6v-34q9 -1 17 -4.5t15 -8.5l24 24q3 2 6.5 2t6.5 -2q3 -3 3 -7t-3 -6l-24 -24q5 -7 8.5 -15t4.5 -17h34q4 0 6.5 -2.5t2.5 -6.5t-2.5 -6.5t-6.5 -2.5h-34q-1 -9 -4.5 -17t-8.5 -15
l24 -24q3 -3 3 -6.5t-3 -6.5t-6.5 -3t-6.5 3l-24 24q-7 -6 -15 -9t-17 -5v-33q0 -4 -2.5 -6.5t-6.5 -2.5v0zM786 820q-20 0 -35 -14.5t-15 -34.5q0 -21 15 -35.5t35 -14.5q21 0 35.5 14.5t14.5 35.5q0 20 -14.5 34.5t-35.5 14.5z" />
    <glyph glyph-name="uniE913" unicode="&#xe913;" 
d="M0 832v-137l512 -418l512 418v137h-1024zM939 738l-427 -350l-427 350v9h854v-9v0v0zM939 149h-854v342h-85v-427h1024v427h-85v-342z" />
    <glyph glyph-name="uniE914" unicode="&#xe914;" 
d="M385 610l-47 30l29 107v0v1l7 32l23 -54l97 42v28h-2q-27 0 -45.5 19t-18.5 45v36q0 27 18.5 45.5t45.5 18.5h39q26 0 44.5 -18.5t18.5 -45.5q0 -10 -7 -17.5t-18 -7.5q-10 0 -17 7.5t-7 17.5q0 6 -4.5 10t-9.5 4h-39q-6 0 -10 -4t-4 -10v-36q0 -6 4 -10t10 -4h27
q11 0 18 -7.5t7 -17.5v-54l84 -40l22 53l7 -32v-1v0l29 -107l-47 -30q-5 -3 -8 -7t-4 -10q-1 -5 0.5 -10t5.5 -10l59 -71l-155 -153v161l72 171l-91 43l-102 -44l71 -170v-161l-155 153l59 71q4 5 5.5 10t0.5 10q-1 6 -4 10t-8 7v0zM702 774l3 -15l34 -124q2 -7 -1 -15
t-10 -12l-39 -25l55 -67q7 -7 6.5 -17t-7.5 -17l-214 -210v0v0l-1.5 -1.5l-1.5 -1.5v0h-1l-1.5 -1.5t-1.5 -0.5v0h-1q0 -1 -1 -1h-2l-0.5 -0.5l-0.5 -0.5h-2h-2h-1v0v0v0h-1h-2h-2l-0.5 0.5l-0.5 0.5h-2t-1 1h-1v0q-1 0 -1.5 0.5l-1.5 1.5h-1v0l-1.5 1.5l-1.5 1.5v0v0
l-214 210q-7 7 -7.5 17t6.5 17l55 67l-39 25q-7 4 -10 12t-1 15l34 124l3 15q-40 -9 -73.5 -30.5t-58.5 -52.5t-38.5 -69t-13.5 -80v-445q0 -10 7 -17.5t17 -7.5h78v-111q0 -10 7 -17.5t17 -7.5h494q10 0 17.5 7.5t7.5 17.5v111h79q10 0 17 7.5t7 17.5v445q0 42 -13.5 80
t-38.5 69t-58.5 52.5t-73.5 30.5v0z" />
    <glyph glyph-name="uniE915" unicode="&#xe915;" 
d="M480 868q0 -37 -25.5 -62.5t-61.5 -25.5q-37 0 -62.5 25.5t-25.5 62.5q0 36 25.5 61.5t62.5 25.5q36 0 61.5 -25.5t25.5 -61.5zM1024 282q-1 2 -2.5 3.5t-3.5 2.5l-38 15l9 13q1 2 1.5 4t-0.5 5q-1 2 -2.5 3.5t-3.5 2.5l-42 18q-4 13 -11.5 24t-13.5 17q-1 1 -2 1.5
t-2 -0.5q-1 0 -2 -1t-1 -2l-8 -46v0q-3 -2 -5 -4.5t-4 -5.5q-1 -2 -3 -6.5t-16 -39.5l-12 -21q-90 18 -155.5 47.5t-104.5 55.5q-21 13 -37 25.5t-28 22.5q6 14 1 28t-17 22l-119 68l-10 150l41 -124l22 114q4 25 -9.5 45t-38.5 25l-103 19q-7 1 -13 1.5t-13 -1.5l-172 -55
q-8 -3 -14.5 -9t-9.5 -15q-4 -8 -3 -17t5 -17l81 -139q5 -8 12 -13t15 -6l-14 -77l11 -151l-148 -21q-20 -3 -31.5 -18.5t-9.5 -35.5q3 -19 19 -31t35 -9l192 26q18 3 30 17.5t11 32.5l-10 174l25 -5l59 -174l29 -237q2 -20 17.5 -32t35.5 -10q19 3 31.5 18.5t9.5 34.5
l-30 242q0 2 -0.5 4.5t-1.5 4.5l-51 154l-76 44q-24 13 -32.5 35t-6.5 36l27 160l11 -167q0 -10 5.5 -18t14.5 -13q11 -7 67.5 -39.5t69.5 -39.5q7 -4 15 -5t16 1q12 -10 29.5 -23.5t40.5 -28.5q39 -25 100.5 -54t145.5 -49l-161 -23q-9 -2 -17.5 -5.5t-15.5 -9.5l-39 21
q-4 2 -8 1.5t-7 -3.5q-4 -4 -3.5 -9.5t4.5 -8.5l29 -26q-5 -9 -4.5 -17t0.5 -15q5 -50 5 -71v-23q-3 -3 -6 -5t-6 -6q-12 -13 -13 -28t-2 -54q0 -4 2 -7t5 -4q5 -2 9 0t6 7q14 40 16 45t3 6q2 2 3.5 2.5t1.5 -0.5v0v0l0.5 0.5t1.5 0.5l-1 -1v0q11 4 17.5 7t13.5 18
q6 12 11.5 31t8.5 32l111 -1q4 -5 8 -8.5t9 -6.5l19 -126q0 -4 2.5 -6.5t5.5 -2.5q5 -1 8.5 1.5t3.5 6.5l22 126q16 10 26.5 29.5t10.5 44.5v8.5t-1 8.5l26 85l27 -11q12 -5 24.5 -2t20.5 13l17 21q1 2 1.5 4.5t0.5 4.5v0zM211 590l-33 57l47 15l-14 -72v0z" />
    <glyph glyph-name="uniE916" unicode="&#xe916;" 
d="M720 402l-85 21q27 24 48 55t35 67q21 3 38.5 21.5t20.5 56.5t-7.5 55.5t-25.5 23.5q-1 12 -2 23t-2 21q-7 118 -63.5 170.5t-152.5 41.5q-12 -1 -24.5 -1.5t-24.5 1.5q-50 8 -97.5 -22.5t-72.5 -70.5q-33 -52 -30 -107.5t3 -57.5q-15 -7 -24 -24t-6 -53q3 -37 19.5 -55
t36.5 -23q15 -35 36 -67t48 -55l-84 -21q-43 -11 -79 -35t-62 -57t-40.5 -73.5t-14.5 -84.5v-142q0 -30 22 -52t52 -22h661q30 0 51.5 22t21.5 52v142q0 44 -14.5 84.5t-40.5 74t-62 57t-79 34.5v0zM248 -19h-66q-12 0 -20.5 8.5t-8.5 20.5v142q0 54 26 101t69 76v-348z
M322 676q0 5 1 10t2 9q4 13 9 24t10 20q8 15 21.5 26t30.5 16q0 1 0.5 1h1.5q6 2 11.5 0t9.5 -7q3 -5 2.5 -11t-4.5 -11q-1 -1 -2 -1.5t-1 -1.5q-3 -3 -3.5 -6.5t1.5 -6.5q1 -4 4.5 -5.5t6.5 -0.5q35 6 89.5 23.5t100.5 57.5q12 10 28 9.5t27 -12.5q10 -12 17 -25.5t9 -28.5
q2 -17 3.5 -36.5t1.5 -42.5q0 -44 -14.5 -90t-40.5 -83.5t-60 -61.5t-73 -24t-73.5 24t-60 61.5t-40.5 83.5t-15 90v0zM529 -19h-33l-154 384l96 24q17 -8 35.5 -12.5t37.5 -4.5t38 4.5t36 12.5l98 -25l-154 -383v0zM871 10q0 -12 -8.5 -20.5t-19.5 -8.5h-65v347
q42 -29 67.5 -75.5t25.5 -100.5v-142v0zM537 195q0 -11 -7.5 -18.5t-17.5 -7.5q-11 0 -18.5 7.5t-7.5 18.5t7.5 18.5t18.5 7.5q10 0 17.5 -7.5t7.5 -18.5zM537 104q0 -11 -7.5 -18.5t-17.5 -7.5q-11 0 -18.5 7.5t-7.5 18.5q0 10 7.5 17.5t18.5 7.5q10 0 17.5 -7.5t7.5 -17.5
zM588 351l-46 -14h-1.5h-0.5q-6 5 -13 8t-15 3t-15 -3t-13 -8h-1.5h-0.5l-46 14q-10 3 -18.5 -3.5t-8.5 -17.5v-52q0 -11 8.5 -17.5t18.5 -3.5l48 14q6 -5 13 -8t15 -3t15 3t13 8l48 -14q10 -3 18.5 3.5t8.5 17.5v52q0 11 -8.5 17.5t-18.5 3.5v0z" />
    <glyph glyph-name="uniE917" unicode="&#xe917;" 
d="M512 960q-93 0 -164.5 -37t-116 -98t-59.5 -140.5t4 -164.5q14 -61 58 -160t96.5 -193t103 -162.5t78.5 -68.5q26 0 76 68.5t103 162.5t97.5 193t59.5 160q19 84 4 163.5t-59.5 141t-116 98.5t-164.5 37v0zM512 492q-54 0 -91.5 38t-37.5 92q0 53 37.5 91t91.5 38
t91.5 -38t37.5 -91q0 -54 -37.5 -92t-91.5 -38z" />
    <glyph glyph-name="uniE918" unicode="&#xe918;" 
d="M1022 309l-113 178v329l-46 46h-702l-46 -46v-329l-113 -178h1020zM817 770v-229q-44 11 -120.5 22.5t-184.5 11.5t-184.5 -11.5t-120.5 -22.5v229h610zM0 253v-92h107v-127h92v127h626v-127h92v127h107v92h-1024zM475 623v53q0 24 -30 41t-73 17t-73 -17t-30 -41v-80
l35.5 8t66.5 11q29 3 66.5 5.5l37.5 2.5v0zM755 596v80q0 24 -30 41t-73 17t-73 -17t-30 -41v-53l37.5 -2.5t66.5 -5.5q31 -3 66.5 -11l35.5 -8v0z" />
    <glyph glyph-name="uniE919" unicode="&#xe919;" 
d="M640 704q79 0 135 -55.5t57 -134.5q0 -3 -0.5 -5.5t-0.5 -5.5l-2 -47l45 -16q39 -13 62.5 -46.5t23.5 -73.5q0 -53 -37.5 -90.5t-90.5 -37.5h-640q-53 0 -90.5 37.5t-37.5 90.5q0 52 37 89.5t89 38.5q2 0 4.5 -0.5t4.5 -0.5l49 -3l16 46q13 38 46.5 62t73.5 24
q5 0 10 -0.5t12 -1.5l45 -8l22 39q26 46 71 72.5t96 26.5zM640 768q-72 0 -130.5 -36.5t-91.5 -94.5q-9 1 -17 2t-17 1q-63 0 -112 -36.5t-69 -92.5q-2 0 -5 0.5t-6 0.5q-79 0 -135.5 -56t-56.5 -136q0 -79 56 -135.5t136 -56.5h640q79 0 135.5 56t56.5 136q0 63 -36.5 112
t-92.5 69q0 3 0.5 5.5t0.5 5.5q0 53 -20 99.5t-55 81.5t-81.5 55t-99.5 20v0z" />
    <glyph glyph-name="uniE91A" unicode="&#xe91a;" 
d="M410 695q-16 29 -44 44t-58 11q-24 -3 -42.5 -18.5t-28.5 -40.5q-23 13 -47 13.5t-45 -11.5q-27 -16 -39 -45t-6 -61q4 -26 44.5 -75.5t173.5 -71.5h0.5h1.5v0q3 0 6 1t5 3q90 100 90.5 164t-11.5 87v0zM128 592q-4 23 4.5 44t27.5 32q17 10 37 7t39 -19q1 -1 2.5 -2
t3.5 -1q6 -1 11 2t7 9q5 25 18.5 39.5t33.5 17.5q21 3 41 -8t31 -31q10 -19 8.5 -72t-78.5 -140q-114 20 -148 60.5t-38 61.5v0zM879 693q-21 12 -45 11.5t-47 -13.5q-10 25 -28.5 40.5t-42.5 18.5q-30 4 -58 -11t-44 -44q-12 -23 -11.5 -87t90.5 -164q2 -2 5 -3t6 -1h1h1
q133 22 173.5 71.5t44.5 75.5q6 32 -6 61t-39 45v0zM896 592q-4 -21 -38 -61.5t-148 -60.5q-77 87 -78.5 140t8.5 72q11 20 31 31t41 8q20 -3 33.5 -17.5t18.5 -38.5q0 -2 1 -3.5t2 -3.5q4 -5 10 -5.5t11 3.5q19 16 39 19t37 -7q19 -11 27.5 -32t4.5 -44v0zM782 -42
q-1 0 -25 48t-58 131v45q0 6 -4.5 10.5t-10.5 4.5h-8q-14 38 -27 76.5t-25 76.5v46q0 6 -4 10t-10 4h-3q-15 54 -26 106.5t-19.5 104.5t-14 102.5t-7.5 99.5h1q6 0 10.5 4t4.5 10v37q0 6 -4.5 10.5t-10.5 4.5h-14v56q0 6 -4.5 10.5t-10.5 4.5t-10.5 -4.5t-4.5 -10.5v-56h-14
q-6 0 -10.5 -4.5t-4.5 -10.5v-37q0 -6 4.5 -10t10.5 -4h1q-2 -49 -7.5 -99.5t-14 -102.5t-19.5 -104.5t-26 -106.5h-3q-6 0 -10 -4t-4 -10v-46q-12 -38 -25 -76.5t-27 -76.5h-8q-6 0 -10.5 -4.5t-4.5 -10.5v-45q-34 -83 -58 -131t-25 -48q-1 -4 -1 -7.5t2 -7.5q2 -3 5 -5
t7 -2h54.5h54.5q6 0 10.5 4.5t4.5 10.5q0 40 38 77t95 37t95 -37t38 -77q0 -6 4.5 -10.5t10.5 -4.5h54.5h54.5q4 0 7 2t5 5q2 4 2 7.5t-1 7.5v0zM644 197h-41l-39 136h34q11 -34 22.5 -68t23.5 -68v0zM573 197h-122l40 136h43zM497 860h30v-8h-30v8v0zM512 798
q3 -46 8.5 -94t13.5 -96.5t18.5 -97.5t24.5 -100h-33l-17 96v0q-1 4 -4.5 7.5t-7.5 4.5q-6 1 -11 -2.5t-6 -9.5l-17 -96h-34q14 51 24.5 100t18.5 97.5t13.5 96.5t8.5 94v0zM514 410h-3l1 9zM429 381h166v-18h-166v18zM426 333h34l-39 -136h-41q12 34 23.5 68t22.5 68v0z
M354 168h316v-19h-316v19v0zM673 -35q-3 23 -15 45t-32 40q-23 21 -49.5 32.5t-64.5 11.5t-64.5 -11.5t-49.5 -32.5q-20 -18 -32 -40t-15 -45h-71q10 21 28.5 61t41.5 94h324q23 -54 41.5 -94t28.5 -61h-71v0z" />
    <glyph glyph-name="uniE91B" unicode="&#xe91b;" 
d="M897 375h-771q-52 0 -89 -37.5t-37 -89.5v-102q0 -52 37 -89t89 -37h772q52 0 89 37t37 89v100q0 53 -37.5 91t-89.5 38v0zM379 286h420v-177h-420v177v0zM935 146q0 -15 -10.5 -26t-26.5 -11h-10v177h9q16 0 27 -11.5t11 -28.5v-100v0zM836 461q46 -21 68.5 -30.5
t40.5 -48.5q20 55 -16 91.5t-72.5 76.5t-46.5 96t60 151q15 20 32 40t33 38l-8 0.5t-23 -1.5q-78 -11 -130.5 -63t-66.5 -117.5t15 -131t114 -101.5v0z" />
    <glyph glyph-name="uniE91C" unicode="&#xe91c;" horiz-adv-x="1025" 
d="M812 448l-299 300l-300 -300l300 -300l299 300v0zM228 448l285 284l284 -284l-284 -284l-285 284v0zM380 448l-188 187l-187 -187l187 -187zM14 448l178 178l178 -178l-178 -178l-178 178v0zM1024 448l-188 187l-187 -187l187 -187zM659 448l177 178l178 -178l-178 -178
l-177 178v0z" />
    <glyph glyph-name="uniE91D" unicode="&#xe91d;" 
d="M809 326q-15 16 -34 24.5t-39 8.5t-38.5 -8.5t-35.5 -24.5l-68 -68q-4 2 -8.5 4t-8.5 4q-5 3 -10.5 6t-10.5 6q-48 30 -92 70.5t-86 91.5q-20 26 -34 48t-24 44q13 12 25.5 24.5l24.5 24.5q4 5 9 9.5t9 9.5q34 34 34 74.5t-34 74.5l-59 59q-5 5 -10 10.5t-10 10.5l-20 20
t-21 20q-15 16 -33.5 24t-38.5 8t-38.5 -8t-35.5 -24v0v0l-73 -75q-21 -20 -33 -45.5t-14 -54.5q-4 -47 6.5 -89.5t20.5 -70.5q27 -71 67 -138.5t99 -137.5q35 -43 74 -80.5t81.5 -71t88.5 -62t94 -51.5q38 -18 86.5 -35.5t103.5 -21.5h7.5h6.5q38 0 69 13.5t56 40.5h0.5
t0.5 1q8 10 17.5 19.5l19.5 19.5q7 6 14.5 13t14.5 15q16 16 24 35.5t8 38.5q0 21 -8.5 39.5t-24.5 35.5l-119 119v0zM887 98h-1h1q-7 -7 -13.5 -13t-13.5 -13q-10 -10 -20.5 -21t-20.5 -22q-17 -18 -36.5 -26.5t-45.5 -8.5h-4.5h-5.5q-48 3 -91.5 19t-76.5 32
q-46 22 -89 49t-83 58t-77 67t-70 76q-55 66 -93 129.5t-63 129.5q-15 40 -20.5 73t-3.5 62q2 19 9 35t21 29l74 74q7 8 15.5 11.5t16.5 3.5q11 0 19 -5t13 -10v0h1q9 -10 19 -19.5t19 -19.5l10.5 -10.5l10.5 -10.5l59 -59q17 -17 17 -33.5t-17 -33.5l-9.5 -9.5l-9.5 -9.5
q-13 -14 -26.5 -27t-27.5 -25q0 -1 -0.5 -1h-0.5q-14 -14 -14 -27t3 -22v-1.5v-0.5q12 -28 29 -55.5t41 -58.5l1 -1q44 -55 91.5 -98t99.5 -76q7 -4 14 -7.5t13 -7.5q6 -3 11.5 -5.5t9.5 -5.5q1 0 1.5 -0.5l1.5 -1.5q6 -2 11 -3.5t10 -1.5q14 0 22 6t11 9l74 74
q6 5 14.5 10.5t18.5 5.5t18 -5t13 -11v0v0l119 -119q17 -17 17 -34t-16 -34v0zM553 716q43 -7 81 -26.5t69 -50.5q30 -31 50 -69t27 -80q2 -11 10 -17.5t19 -6.5h2h3q12 2 19 12t5 22q-9 51 -33 97t-61 83t-83 61t-97 33q-12 2 -22 -5t-12 -19t4.5 -22t18.5 -12v0zM1023 508
q-7 43 -20.5 83t-33 77.5t-45 72t-55.5 64.5q-31 31 -65.5 56t-72 44.5t-77.5 33t-82 21.5q-12 2 -22 -5t-12 -19t5 -22t19 -12q76 -13 143.5 -48t122.5 -90q54 -54 89.5 -122t47.5 -143q2 -11 10.5 -17.5t18.5 -6.5h2.5h2.5q12 2 19 11.5t5 21.5v0z" />
    <glyph glyph-name="uniE91E" unicode="&#xe91e;" 
d="M965 289h-906q-24 0 -41.5 17t-17.5 42v267q0 24 17.5 41.5t41.5 17.5h906q24 0 41.5 -17.5t17.5 -41.5v-267q0 -25 -17.5 -42t-41.5 -17v0zM59 648q-14 0 -23.5 -9.5t-9.5 -23.5v-267q0 -14 9.5 -23.5t23.5 -9.5h906q14 0 23.5 9.5t9.5 23.5v267q0 14 -9.5 23.5
t-23.5 9.5h-906v0zM929 222h-834q-6 0 -9.5 4t-3.5 9q0 6 3.5 9.5t9.5 3.5h834q5 0 9 -3.5t4 -9.5q0 -5 -4 -9t-9 -4zM460 560h-368q-6 0 -9.5 3.5t-3.5 9.5q0 5 3.5 9t9.5 4h368q5 0 9 -4t4 -9q0 -6 -4 -9.5t-9 -3.5zM927 560h-368q-5 0 -9 3.5t-4 9.5q0 5 4 9t9 4h368
q6 0 9.5 -4t3.5 -9q0 -6 -3.5 -9.5t-9.5 -3.5v0zM460 469h-368q-6 0 -9.5 4t-3.5 9t3.5 9t9.5 4h368q5 0 9 -4t4 -9t-4 -9t-9 -4zM927 469h-368q-5 0 -9 4t-4 9t4 9t9 4h368q6 0 9.5 -4t3.5 -9t-3.5 -9t-9.5 -4v0zM460 378h-368q-6 0 -9.5 4t-3.5 9q0 6 3.5 9.5t9.5 3.5h368
q5 0 9 -3.5t4 -9.5q0 -5 -4 -9t-9 -4zM927 378h-368q-5 0 -9 4t-4 9q0 6 4 9.5t9 3.5h368q6 0 9.5 -3.5t3.5 -9.5q0 -5 -3.5 -9t-9.5 -4v0z" />
    <glyph glyph-name="uniE91F" unicode="&#xe91f;" 
d="M322 621l-237 237q23 22 46 45l46 46q10 11 25 11t26 -10l184 -185q11 -10 11 -25.5t-11 -25.5l-78 -78q-3 -4 -6.5 -7.5t-5.5 -7.5v0zM516 236q-29 25 -57 51t-55 53q-27 28 -53 55.5t-51 56.5q-21 24 -25 55.5t6 60.5l-242 243q-22 -22 -31 -58t-7.5 -80.5t14.5 -93.5
t36 -97q20 -41 45 -78t52 -73q27 -35 56 -68t60 -64q30 -31 63 -60t68 -56t72.5 -51.5t78.5 -44.5q48 -23 97 -36t93.5 -14.5t80.5 7.5t58 31l-243 242q-29 -10 -60.5 -6t-55.5 25v0zM1013 164l-184 184q-10 11 -25.5 11t-25.5 -11v0l-41 -40l-37 -38q-4 -3 -7.5 -6t-7.5 -6
l236 -237l46 46l46 46q11 10 11 25t-11 26v0z" />
    <glyph glyph-name="uniE920" unicode="&#xe920;" 
d="M442 124q0 -29 20 -49t49 -20q28 0 48.5 20t20.5 49t-20.5 49t-48.5 20t-48.5 -20t-20.5 -49v0zM516 124q0 -2 -1.5 -3.5t-3.5 -1.5t-3.5 1.5t-1.5 3.5t1 3.5t4 1.5q2 -1 3.5 -2t1.5 -3zM814 431q7 0 14 3t13 8q10 12 9.5 27t-12.5 26q-33 31 -71.5 54.5t-80 40t-85.5 25
t-90 8.5q-45 0 -89 -8.5t-85.5 -24.5t-79.5 -39t-71 -54q-11 -10 -11.5 -25.5t9.5 -26.5q10 -12 25.5 -12.5t26.5 9.5q57 52 128 79.5t147 27.5q78 0 149.5 -28t127.5 -80q6 -5 12.5 -7.5t13.5 -2.5v0zM676 265q7 0 14 3t13 8q10 12 9.5 27t-12.5 26q-39 36 -87.5 55
t-101.5 19q-52 0 -100.5 -19t-86.5 -53q-12 -10 -12.5 -25.5t9.5 -27.5q10 -11 25.5 -11.5t27.5 9.5q28 26 63.5 39.5t73.5 13.5q39 0 75 -14t64 -40q6 -6 12.5 -8t13.5 -2v0zM987 581q8 0 15 3t12 9q11 11 10 26.5t-12 25.5q-52 48 -110.5 84.5t-122 61.5t-131.5 37.5
t-138 12.5q-69 0 -136.5 -12.5t-130.5 -37t-121.5 -60.5t-109.5 -82q-11 -10 -12 -25.5t10 -26.5q10 -12 25.5 -12.5t26.5 9.5q46 42 98.5 74.5t109.5 54t117.5 33t122.5 11.5q63 0 124 -11.5t118.5 -34t110.5 -55t99 -75.5q5 -4 12 -7t13 -3v0z" />
    <glyph glyph-name="uniE921" unicode="&#xe921;" 
d="M608 357l-2.5 -2.5l-2.5 -2.5t-13 -11.5t-34 -22.5q-28 -16 -58.5 -23.5t-62.5 -7.5h-2.5h-2.5l-92 91q-15 15 -33.5 22.5t-39.5 7.5t-39.5 -7.5t-33.5 -22.5l-161 -161q-30 -30 -30 -73t30 -73l67 -67q19 -19 44 -31t45 -18q28 -9 60.5 -13.5t66.5 -4.5q26 0 53 2.5
t54 8.5q29 6 59 15.5t59 22.5q67 28 131.5 73t124.5 106q53 53 94.5 109t69.5 114q25 51 40.5 102t20.5 102q5 42 2.5 83.5t-12.5 78.5q-4 16 -9.5 31t-11.5 29q-7 14 -15.5 26.5t-17.5 21.5l-67 67q-15 15 -34 22.5t-39 7.5q-21 0 -40 -7.5t-33 -22.5l-161 -161
q-30 -30 -30 -73t30 -73l91 -92q1 -31 -6 -61.5t-21 -58.5q-13 -25 -25 -38.5t-13 -14.5v0zM635 715l161 161q4 4 9 6t11 2q5 0 10 -2t10 -6l67 -67q18 -19 34.5 -74t8 -135t-53.5 -178.5t-150 -203.5q-60 -60 -119 -100t-113.5 -63.5t-104 -33t-91.5 -9.5q-62 0 -104.5 15
t-58.5 30l-67 67q-8 9 -8 20.5t8 19.5l161 161q4 4 9.5 6t10.5 2t10.5 -2t9.5 -6l104 -104q4 -4 8.5 -6t9.5 -2q7 -1 14 -1.5t14 -0.5q101 0 159 42t64 48l0.5 0.5l0.5 0.5q7 6 52.5 71.5t35.5 179.5q0 5 -2 9.5t-6 8.5l-104 104q-8 8 -8 19.5t8 20.5v0zM314 -64
q-34 0 -66.5 4.5t-60.5 13.5q-20 7 -45 18.5t-44 31.5l-68 67q-30 30 -30 73t30 74l162 161q14 15 33 22.5t40 7.5t40 -7.5t34 -22.5l91 -91q1 -1 2.5 -1h2.5q32 0 62.5 8t57.5 23q23 13 35 23.5t12 11.5l2.5 2.5t3.5 2.5l12 14t25 39q14 27 21 57t6 62l-91 91
q-30 31 -30 74t30 73l161 162q15 14 34 22t40 8t40 -8t33 -22l67 -68q10 -9 18 -21t16 -27q6 -13 11.5 -28.5t9.5 -31.5q10 -37 12.5 -78.5t-2.5 -83.5q-5 -51 -20.5 -102.5t-40.5 -101.5q-29 -58 -70 -114.5t-94 -109.5q-61 -60 -125 -105t-131 -74q-30 -13 -59.5 -22.5
t-59.5 -15.5q-27 -5 -54 -8t-53 -3v0zM265 408q-20 0 -39 -8t-33 -22l-161 -161q-30 -30 -30 -72.5t30 -72.5l67 -67q19 -19 43.5 -31t44.5 -18q29 -9 61 -13.5t66 -4.5q26 0 53 2.5t53 8.5q30 6 60 15.5t59 21.5q67 29 131 74t125 105q52 53 93.5 109t70.5 115
q24 50 39.5 101t20.5 102q5 42 2.5 83.5t-12.5 77.5q-4 17 -9.5 32t-11.5 28q-7 15 -15.5 27t-17.5 21l-67 67q-14 15 -33 22.5t-39 7.5q-21 0 -39.5 -7.5t-33.5 -22.5l-161 -161q-30 -30 -30 -72.5t30 -71.5l92 -92v-1q1 -32 -6 -62t-22 -58q-13 -25 -25 -39l-12 -14l-3 -3
l-3 -3l-12 -11t-35 -23q-28 -16 -58.5 -23.5t-62.5 -7.5h-2.5h-2.5h-1v0l-92 92q-14 14 -32.5 22t-39.5 8v0zM314 11q-61 0 -104 14.5t-59 31.5l-67 67q-9 8 -9 20t9 21l161 161q4 4 9 6t11 2t11 -2t10 -6l104 -105q3 -3 7.5 -5t9.5 -3q7 0 14 -0.5t14 -0.5q104 0 162 43.5
t60 45.5l1 1l1 1t17 18.5t33 49.5t29.5 78t8.5 104q-1 5 -3 9.5t-5 7.5l-105 104q-8 9 -8 21t8 20l161 161q4 4 9.5 6.5t11.5 2.5t11 -2.5t9 -6.5l67 -67q22 -21 36.5 -78.5t6.5 -130.5q-3 -34 -14 -77t-34.5 -92t-61 -103t-93.5 -111q-56 -55 -114.5 -96t-118.5 -67
q-49 -21 -98.5 -32t-97.5 -11v0zM265 332q-5 0 -10 -2t-9 -5l-161 -162q-8 -8 -8 -19t8 -19l67 -67q16 -16 59 -30.5t103 -14.5q48 0 97 10.5t98 32.5q61 25 119 66t113 97q57 56 94.5 110t60.5 103t34 91.5t15 76.5q8 82 -9 136.5t-34 71.5l-67 67q-4 4 -9 6t-10 2
q-6 0 -11 -2t-8 -6l-162 -161q-7 -8 -7 -19t7 -19l105 -105q4 -3 6 -8t2 -10q5 -58 -7.5 -104t-30 -78.5t-33.5 -50t-17 -18.5t-1 -1.5t-1 -0.5q-2 -3 -60.5 -46t-162.5 -43h-14t-14 1q-5 0 -10 2t-8 6l-105 105q-4 3 -8.5 5t-10.5 2v0z" />
    <glyph glyph-name="uniE922" unicode="&#xe922;" 
d="M512 960q-78 0 -146.5 -29.5t-119.5 -81t-81 -120t-30 -146.5q0 -61 37.5 -147t90 -175t109 -170t94.5 -132q8 -11 20 -17t26 -6v0q14 0 26 6t20 17q38 51 94.5 132t109 170t90 175t37.5 147q0 78 -30 146.5t-81 120t-119.5 81t-146.5 29.5v0zM538 48q-5 -7 -11.5 -10.5
t-14.5 -3.5t-14.5 3.5t-11.5 10.5q-65 90 -117.5 172t-89 151.5t-56 123.5t-19.5 88q0 64 24.5 120t66 98t97.5 66t120 24t120 -24t97.5 -66t66 -98t24.5 -120q0 -34 -19.5 -88t-56 -123.5t-88.5 -151.5t-118 -172v0zM512 767q-66 0 -113 -47t-47 -113q0 -67 47 -114
t113 -47t113 47t47 114q0 66 -47 113t-113 47zM512 515q-38 0 -65 27t-27 65t27 64.5t65 26.5t65 -26.5t27 -64.5t-27 -65t-65 -27v0z" />
    <glyph glyph-name="uniE923" unicode="&#xe923;" 
d="M1022 380q-5 32 -18.5 58.5t-41.5 44.5q-27 18 -68.5 21t-76.5 1q0 1 -1 3t-2 3q-41 46 -68 89.5t-79 79.5q-53 35 -116.5 43.5t-123.5 8.5q-49 -1 -99.5 -12t-91.5 -35.5t-66.5 -63.5t-25.5 -96q-71 17 -106.5 -33t-37.5 -114.5t30.5 -115t97.5 -33.5q5 -22 21 -39
t46 -23q41 -9 74 12.5t50 56.5q53 -3 108.5 -7t112 -5.5t112 1.5t107.5 13q8 -22 25 -38t44 -18q38 -3 65.5 21.5t39.5 57.5q60 -33 78 22t11 97v0zM979 418q-3 -2 -6.5 -3.5t-7.5 -1.5q-7 -1 -14 1.5t-13 6.5q-11 6 -17 18.5t-5 25.5q20 -4 36.5 -14t26.5 -33zM286 260
q-10 -33 -46.5 -50.5t-65.5 8.5q-19 17 -12.5 44t17.5 44q3 7 8 12.5t10 9.5h2.5h2.5q18 5 32 10t34 -4q21 -9 22.5 -32t-4.5 -42v0zM897 293q-2 -24 -23 -49.5t-48 -18.5q-20 4 -27 26.5t-7 38.5q-1 20 7 34.5t21 23.5q3 -1 6.5 -2t7.5 0q13 3 25.5 5t23.5 -8q10 -9 12 -23
t2 -27v0zM938 284q1 4 1.5 7.5t0.5 7.5q2 48 -36 78.5t-84 3.5q-38 -1 -55.5 -37.5t-12.5 -76.5q-52 -7 -105 -8.5t-106.5 -0.5t-106.5 2t-106 -1q2 10 3.5 19.5t1.5 18.5q-1 27 -16.5 49t-40.5 31q-8 3 -17 5t-19 2q-44 11 -80.5 -36.5t-34.5 -98.5q-17 3 -34 5.5t-32 13.5
q-21 17 -24.5 50t-3.5 58q1 52 25.5 94t86.5 25q5 -1 9.5 1t6.5 7q1 0 1.5 1t0.5 3q12 63 42.5 101.5t74 59t96 26.5t108.5 4q52 -2 99.5 -18.5t89.5 -45.5q43 -28 65 -69t57 -75q1 -1 2.5 -2t3.5 -1q21 -13 46 -15t50 -5q-2 -5 -3 -11.5t0 -13.5q2 -13 8.5 -24t16.5 -19
q13 -11 35 -16t38 4q3 -14 4.5 -28.5t0.5 -29.5q-1 -31 -13.5 -41.5t-43.5 -3.5v0zM478 654q-45 7 -91.5 6t-91.5 -12q-43 -11 -60 -51.5t-27 -77.5q-3 -4 -2.5 -10t6.5 -7q58 -11 118.5 -13.5t122 -1.5t122.5 4t120 4q4 0 7 2t5 5q4 0 7.5 3t3.5 8q-4 40 -30 65.5t-62 40.5
t-76 22.5t-72 12.5v0zM230 520q14 28 28 57.5t45 42.5q22 9 49.5 11t55.5 0q-11 -23 -0.5 -55t15.5 -59q-49 -1 -97 -0.5t-96 3.5v0zM445 518q1 11 0 22t-3 23q-2 10 -4 19.5t-3 19.5q0 7 0.5 13.5t0.5 12.5q9 -1 17.5 -2t16.5 -3q52 -8 124.5 -25.5t94.5 -73.5
q-60 0 -121.5 -2t-122.5 -4z" />
    <glyph glyph-name="uniE924" unicode="&#xe924;" 
d="M980 584q-3 0 -6.5 -0.5t-7.5 -1.5l-49 -14l-53 129q-12 28 -42.5 48.5t-61.5 20.5h-35v106q0 14 -10 24t-24 10h-358q-14 0 -24 -10t-10 -24v-106h-36q-31 0 -61.5 -20.5t-42.5 -48.5l-52 -128l-49 13q-4 1 -7.5 1.5t-6.5 0.5q-19 0 -31.5 -13t-12.5 -33v-27
q0 -23 16.5 -39.5t39.5 -16.5h4l-7 -19q-11 -26 -19 -65.5t-8 -68.5v-256q0 -23 16.5 -39.5t39.5 -16.5h68q23 0 40 16.5t17 39.5v63h610v-63q0 -23 16.5 -39.5t39.5 -16.5h68q23 0 39.5 16.5t16.5 39.5v256q0 29 -7.5 68.5t-18.5 65.5l-8 19h5q23 0 39.5 16.5t16.5 39.5v27
q0 20 -12.5 33t-31.5 13v0zM648 861q0 1 0.5 1h0.5h26h1.5t0.5 -1v-94l-0.5 -0.5l-0.5 -0.5h-27q-1 0 -1 0.5v0.5v94v0zM461 862h31h1.5t0.5 -1l37 -93l34 42q1 0 1 1v1l-33 49q-1 1 -0.5 1h0.5h29h1.5t0.5 -1l17 -27l1 -1l1 1l17 27q0 1 0.5 1h1.5h29h0.5t-0.5 -1l-33 -49
v-1t1 -1l34 -43l0.5 -0.5l0.5 -0.5h-31q-1 0 -1 0.5v0.5l-19 30l-1 1l-1 -1l-19 -30v-0.5t-1 -0.5h-58v0.5t-1 0.5l-6 20l-0.5 0.5t-1.5 0.5h-35q-1 0 -1.5 -0.5l-0.5 -0.5l-7 -20v-0.5t-1 -0.5h-28v0.5v0.5l38 94q0 1 0.5 1h1.5v0zM369 767v75l-0.5 0.5l-0.5 0.5h-31
q-1 0 -1.5 0.5l-0.5 0.5v17q0 1 0.5 1h1.5h94h0.5t0.5 -1v-17l-0.5 -0.5l-0.5 -0.5h-32l-0.5 -0.5l-0.5 -0.5v-75v-0.5t-1 -0.5h-27l-0.5 0.5l-0.5 0.5v0zM147 486l80 195q7 17 25 29t37 12h445q19 0 37.5 -12t25.5 -29l80 -195q7 -17 -1.5 -29.5t-26.5 -12.5h-674
q-19 0 -27 12.5t-1 29.5v0zM327 235q0 -9 -6.5 -15.5t-15.5 -6.5h-153q-9 0 -15.5 6.5t-6.5 15.5v73q0 9 6.5 15.5t15.5 6.5h153q9 0 15.5 -6.5t6.5 -15.5v-73zM892 235q0 -9 -6.5 -15.5t-15.5 -6.5h-153q-9 0 -15.5 6.5t-6.5 15.5v73q0 9 6.5 15.5t15.5 6.5h153
q9 0 15.5 -6.5t6.5 -15.5v-73zM488 807q1 0 1 0.5v0.5l-11 26l-1 1l-1 -1l-11 -26q-1 0 -0.5 -0.5l0.5 -0.5h23v0z" />
    <glyph glyph-name="uniE925" unicode="&#xe925;" 
d="M819 184l18 18q-27 23 -56.5 52.5t-60 61t-61.5 63.5t-60 60q7 15 3.5 30.5t-17.5 24.5q-63 42 -93.5 74.5t-58.5 66.5q-12 16 -25 32t-30 34l-3.5 3.5t-3.5 2.5q-7 6 -14 11t-14 9l-7 3t-16 5t-17 2h-8v0h-2h-2h-2h-1h-2.5t-2.5 -1h-2.5h-2.5q-31 -5 -63.5 -20
t-66 -39.5t-68 -59.5t-71.5 -81q-11 -13 -9 -31t16 -29q6 -5 13 -7t14 -2q9 0 18 4t15 12q32 39 59 67t51 47l-35 -165q-4 -17 0.5 -33t13.5 -30l-11 -169l-70 -182q-8 -21 1 -41.5t30 -28.5q5 -2 10 -3t10 -1q16 0 30 9.5t21 25.5l73 190q2 4 2.5 8t1.5 8l6 98l65 -102
l54 -196q4 -19 19 -30t33 -11q4 0 7.5 0.5t6.5 1.5q22 6 33.5 25.5t5.5 41.5l-56 204q-1 4 -2.5 8t-3.5 7l-89 140q2 4 4 8.5t3 9.5l36 169q25 -31 59 -64t93 -72q6 -4 12 -6t12 -2t12 2t12 6q26 -26 56 -58t60.5 -64t60 -62.5t57.5 -54.5v0zM480 842q0 -46 -32.5 -78.5
t-78.5 -32.5q-45 0 -77.5 32.5t-32.5 78.5q0 45 32.5 77.5t77.5 32.5q46 0 78.5 -32.5t32.5 -77.5zM706 171l-38 31q-7 5 -15 4t-13 -7q-6 -7 -5 -15t8 -13l38 -31v-85q0 -1 0.5 -1t0.5 -1l-35 -66q-3 -7 -0.5 -15t9.5 -12q2 -1 4.5 -1.5t4.5 -0.5q6 0 10.5 3t7.5 8l34 66
l39 -67q3 -5 7.5 -7.5t9.5 -2.5q3 0 5.5 0.5t4.5 2.5q7 4 9.5 12t-1.5 15l-34 59h125v-69q0 -8 5.5 -14t14.5 -6q8 0 14 6t6 14v75v0.5v1.5v63l-93 53h-123v0zM974 212q-10 9 -15 18.5t-16 16.5q-2 2 -3.5 3t-3.5 2q-1 1 -1.5 2t-0.5 2q0 4 0.5 8.5t0.5 8.5q1 8 -1.5 14.5
t-8.5 11.5q-2 2 -11.5 2.5t-15.5 -19.5q-1 -4 -2.5 -8.5t-3.5 -8.5q-8 -15 -17.5 -29t-18.5 -27q-4 -7 -8.5 -13t-8.5 -13l87 -50l9 9.5t11 8.5t4.5 -2t4.5 -2q8 -4 15.5 -5t15.5 -1q13 1 25 8.5t13 23.5q1 15 -23 25.5t-27 13.5v0z" />
    <glyph glyph-name="uniE926" unicode="&#xe926;" horiz-adv-x="1820" 
d="M910 392l6 41t10 61q4 22 19.5 66.5t15.5 70.5q0 24 -8.5 56t-42.5 32t-44 -32t-10 -56t17 -69.5t21 -67.5q4 -20 10 -61zM961 435q8 14 24 31.5t41 27.5q26 14 54.5 26.5t28.5 43.5q0 16 -11 28t-27 12q-42 0 -77.5 -61.5t-35.5 -91.5q0 -4 0.5 -8t2.5 -8v0zM789 496
q24 -12 40.5 -29.5t24.5 -31.5q2 4 2 8v8q0 30 -35 91.5t-77 61.5q-17 0 -27.5 -12t-10.5 -28q0 -31 28.5 -43t54.5 -25v0zM1490 365q-24 0 -41.5 -17t-17.5 -40q0 -24 12.5 -34.5t25.5 -10.5q12 0 22 6.5t10 22.5t-7 20.5t-9 6.5q2 6 7 10t11 4q11 0 31 -8.5t20 -48.5
q0 -36 -22.5 -55.5t-54.5 -19.5q-53 0 -100.5 41t-144.5 142l3 2q16 -6 32.5 -11t26.5 -5q32 0 64.5 23t32.5 79q0 55 -30.5 78.5t-66.5 23.5t-57 -23.5t-21 -46.5q0 -22 11 -33.5t29 -11.5q17 0 23.5 9.5t6.5 19.5t-6 21t-26 9q4 10 13 19.5t27 9.5q28 0 50.5 -19t22.5 -56
q0 -38 -21 -58t-49 -20q-10 0 -27.5 4t-37.5 13q-22 8 -71 18.5t-87 10.5q-36 0 -89.5 -26t-73.5 -95h-1q-20 69 -74 96.5t-92 27.5q-37 0 -85.5 -12t-70.5 -20q-20 -9 -37.5 -13t-27.5 -4q-28 0 -48.5 20t-20.5 58q0 37 21.5 56t47.5 19q21 0 30 -9.5t13 -19.5
q-20 2 -26 -9t-6 -21t7 -19.5t23 -9.5q18 0 29 11.5t11 33.5q0 23 -21 46.5t-60 23.5q-34 0 -64 -23.5t-30 -78.5q0 -56 31 -79t63 -23q12 0 28.5 5t31.5 11l2 -2q-94 -101 -141.5 -142t-99.5 -41q-33 0 -55.5 19.5t-22.5 55.5q0 40 20.5 48.5t30.5 8.5q6 0 11 -4t7 -10
q-4 -2 -10 -6.5t-6 -20.5q0 -14 10.5 -21.5t22.5 -7.5t24.5 10.5t12.5 34.5q0 23 -17.5 40t-44.5 17q-58 0 -73 -34.5t-15 -54.5q0 -16 17 -57.5t88 -41.5q38 0 71.5 18.5t63 45.5t56 57t50.5 53l3 -2q-6 -16 -8.5 -32.5t-2.5 -34.5q0 -19 18 -60.5t76 -41.5q48 0 68.5 29.5
t20.5 47.5q0 27 -17.5 51.5t-47.5 24.5q-26 0 -37 -14.5t-11 -26.5q0 -14 5.5 -25.5t21.5 -11.5q14 0 20.5 9t6.5 23q0 4 -0.5 8t-2.5 8q8 0 23 -8.5t15 -37.5q0 -24 -19 -40t-43 -16q-26 0 -49.5 18t-23.5 68q0 44 28 85t115 41q30 0 87.5 -28t57.5 -117q0 -44 -18 -58
t-36 -14q-14 0 -23 8t-9 24q0 8 5 15t13 9q0 -8 4.5 -14.5t12.5 -6.5t13 8t5 16t-6.5 18.5t-22.5 10.5q-12 0 -29 -12.5t-17 -38.5q0 -32 18 -44t36 -12q26 0 46.5 14.5t27.5 47.5h2q7 -33 27 -47.5t45 -14.5q20 0 38 12t18 44q0 26 -17 37.5t-29 11.5q-16 0 -22.5 -9.5
t-6.5 -17.5t5.5 -16t13.5 -8q6 0 11 6.5t5 14.5q8 -2 13 -9.5t5 -17.5q0 -14 -10 -21.5t-24 -7.5q-17 0 -34 14t-17 58q0 89 57 117t85 28q88 0 116.5 -41t28.5 -88q0 -48 -23 -65.5t-50 -17.5q-24 0 -42.5 16t-18.5 40q0 29 13 37.5t21 8.5q0 -4 -1 -9t1 -7q0 -14 6.5 -23
t20.5 -9t20.5 11.5t6.5 25.5q0 12 -11 26.5t-37 14.5q-30 0 -47.5 -24.5t-17.5 -51.5q0 -20 20.5 -48.5t68.5 -28.5q58 0 76 41.5t18 60.5q0 18 -2.5 34.5t-10.5 32.5l2 2q24 -23 51 -53t57 -57t63.5 -45.5t70.5 -18.5q70 0 88.5 41.5t18.5 57.5q0 20 -15.5 54.5t-75.5 34.5
v0z" />
  </font>
</defs>
</svg>
