<?xml version="1.0" encoding="iso-8859-1"?>
<!-- Generator: Adobe Illustrator 19.0.0, SVG Export Plug-In . SVG Version: 6.00 Build 0)  -->
<svg xmlns="http://www.w3.org/2000/svg" xmlns:xlink="http://www.w3.org/1999/xlink" version="1.1" id="Layer_1" x="0px" y="0px" viewBox="0 0 511.991 511.991" style="enable-background:new 0 0 511.991 511.991;" xml:space="preserve" width="512px" height="512px">
<g>
	<g>
		<g>
			<path d="M135.962,274.216c4.172-4.18,4.172-10.93,0-15.094c-4.156-4.172-10.922-4.172-15.078,0     c-4.172,4.164-4.172,10.914,0,15.094C125.04,278.372,131.806,278.372,135.962,274.216z" fill="#006DF0"/>
			<path d="M178.632,274.216c4.172-4.18,4.172-10.93,0-15.094c-4.171-4.172-10.921-4.172-15.077,0     c-4.172,4.164-4.172,10.914,0,15.094C167.711,278.372,174.461,278.372,178.632,274.216z" fill="#006DF0"/>
			<path d="M206.21,259.122c-4.156,4.164-4.156,10.914,0,15.094c4.172,4.156,10.922,4.156,15.094,0c4.156-4.18,4.156-10.93,0-15.094     C217.132,254.95,210.382,254.95,206.21,259.122z" fill="#006DF0"/>
			<path d="M248.882,259.122c-4.172,4.164-4.172,10.914,0,15.094c4.172,4.156,10.922,4.156,15.078,0     c4.171-4.18,4.171-10.93,0-15.094C259.804,254.95,253.054,254.95,248.882,259.122z" fill="#006DF0"/>
			<path d="M306.63,274.216c4.172-4.18,4.172-10.93,0-15.094c-4.172-4.172-10.922-4.172-15.077,0     c-4.172,4.164-4.172,10.914,0,15.094C295.708,278.372,302.458,278.372,306.63,274.216z" fill="#006DF0"/>
			<path d="M334.208,259.122c-4.156,4.164-4.156,10.914,0,15.094c4.172,4.156,10.922,4.156,15.094,0     c4.156-4.18,4.156-10.93,0-15.094C345.13,254.95,338.38,254.95,334.208,259.122z" fill="#006DF0"/>
			<path d="M376.88,259.122c-4.172,4.164-4.172,10.914,0,15.094c4.172,4.156,10.921,4.156,15.077,0c4.172-4.18,4.172-10.93,0-15.094     C387.801,254.95,381.052,254.95,376.88,259.122z" fill="#006DF0"/>
			<path d="M142.212,301.776c-4.156,4.172-4.156,10.938,0,15.094c4.172,4.156,10.921,4.156,15.093,0     c4.156-4.156,4.156-10.922,0-15.094C153.133,297.62,146.384,297.62,142.212,301.776z" fill="#006DF0"/>
			<path d="M114.634,301.776c-4.172-4.156-10.922-4.156-15.078,0c-4.172,4.172-4.172,10.938,0,15.094     c4.156,4.156,10.906,4.156,15.078,0C118.806,312.714,118.806,305.948,114.634,301.776z" fill="#006DF0"/>
			<path d="M184.882,301.776c-4.172,4.172-4.172,10.938,0,15.094c4.156,4.156,10.922,4.156,15.078,0     c4.172-4.156,4.172-10.922,0-15.094C195.804,297.62,189.038,297.62,184.882,301.776z" fill="#006DF0"/>
			<path d="M242.632,316.87c4.172-4.156,4.172-10.922,0-15.094c-4.172-4.156-10.922-4.156-15.078,0     c-4.172,4.172-4.172,10.938,0,15.094C231.71,321.026,238.46,321.026,242.632,316.87z" fill="#006DF0"/>
			<path d="M270.209,301.776c-4.156,4.172-4.156,10.938,0,15.094c4.172,4.156,10.922,4.156,15.094,0     c4.156-4.156,4.156-10.922,0-15.094C281.131,297.62,274.381,297.62,270.209,301.776z" fill="#006DF0"/>
			<path d="M312.88,301.776c-4.172,4.172-4.172,10.938,0,15.094s10.922,4.156,15.078,0c4.172-4.156,4.172-10.922,0-15.094     C323.802,297.62,317.052,297.62,312.88,301.776z" fill="#006DF0"/>
			<path d="M370.63,316.87c4.172-4.156,4.172-10.922,0-15.094c-4.172-4.156-10.922-4.156-15.078,0     c-4.172,4.172-4.172,10.938,0,15.094C359.708,321.026,366.458,321.026,370.63,316.87z" fill="#006DF0"/>
			<path d="M413.3,316.87c4.156-4.156,4.156-10.922,0-15.094c-4.171-4.156-10.921-4.156-15.093,0     c-4.156,4.172-4.156,10.938,0,15.094C402.379,321.026,409.129,321.026,413.3,316.87z" fill="#006DF0"/>
			<path d="M135.962,344.448c-4.156-4.172-10.922-4.172-15.078,0c-4.172,4.172-4.172,10.922,0,15.078     c4.156,4.188,10.922,4.188,15.078,0C140.134,355.37,140.134,348.62,135.962,344.448z" fill="#006DF0"/>
			<path d="M178.632,359.526c4.172-4.156,4.172-10.906,0-15.078c-4.171-4.172-10.921-4.172-15.077,0     c-4.172,4.172-4.172,10.922,0,15.078C167.711,363.714,174.461,363.714,178.632,359.526z" fill="#006DF0"/>
			<path d="M206.21,344.448c-4.156,4.172-4.156,10.922,0,15.078c4.172,4.188,10.922,4.188,15.094,0     c4.156-4.156,4.156-10.906,0-15.078C217.132,340.276,210.382,340.276,206.21,344.448z" fill="#006DF0"/>
			<path d="M248.882,344.448c-4.172,4.172-4.172,10.922,0,15.078c4.172,4.188,10.922,4.188,15.078,0     c4.171-4.156,4.171-10.906,0-15.078C259.804,340.276,253.054,340.276,248.882,344.448z" fill="#006DF0"/>
			<path d="M306.63,359.526c4.172-4.156,4.172-10.906,0-15.078s-10.922-4.172-15.077,0c-4.172,4.172-4.172,10.922,0,15.078     C295.708,363.714,302.458,363.714,306.63,359.526z" fill="#006DF0"/>
			<path d="M334.208,344.448c-4.156,4.172-4.156,10.922,0,15.078c4.172,4.188,10.922,4.188,15.094,0     c4.156-4.156,4.156-10.906,0-15.078C345.13,340.276,338.38,340.276,334.208,344.448z" fill="#006DF0"/>
			<path d="M376.88,344.448c-4.172,4.172-4.172,10.922,0,15.078c4.172,4.188,10.921,4.188,15.077,0     c4.172-4.156,4.172-10.906,0-15.078C387.801,340.276,381.052,340.276,376.88,344.448z" fill="#006DF0"/>
			<path d="M149.367,384.011c-2.858-0.109-5.749,0.922-7.921,3.109c-4.172,4.156-4.172,10.906,0,15.094     c2.172,2.172,5.062,3.188,7.921,3.094c2.859,0.094,5.75-0.922,7.938-3.094c4.156-4.188,4.156-10.938,0-15.094     C155.117,384.933,152.226,383.901,149.367,384.011z" fill="#006DF0"/>
			<path d="M184.882,387.12c-4.172,4.156-4.172,10.906,0,15.094c4.156,4.156,10.922,4.156,15.078,0     c4.172-4.188,4.172-10.938,0-15.094C195.804,382.964,189.038,382.964,184.882,387.12z" fill="#006DF0"/>
			<path d="M242.632,387.12c-4.172-4.156-10.922-4.156-15.078,0c-4.172,4.156-4.172,10.906,0,15.094     c4.156,4.156,10.906,4.156,15.078,0C246.804,398.026,246.804,391.276,242.632,387.12z" fill="#006DF0"/>
			<path d="M270.209,387.12c-4.156,4.156-4.156,10.906,0,15.094c4.172,4.156,10.922,4.156,15.094,0     c4.156-4.188,4.156-10.938,0-15.094C281.131,382.964,274.381,382.964,270.209,387.12z" fill="#006DF0"/>
			<path d="M312.88,387.12c-4.172,4.156-4.172,10.906,0,15.094c4.172,4.156,10.922,4.156,15.078,0     c4.172-4.188,4.172-10.938,0-15.094C323.802,382.964,317.052,382.964,312.88,387.12z" fill="#006DF0"/>
			<path d="M355.552,387.12c-4.172,4.156-4.172,10.906,0,15.094c4.156,4.156,10.906,4.156,15.078,0     c4.172-4.188,4.172-10.938,0-15.094S359.708,382.964,355.552,387.12z" fill="#006DF0"/>
			<path d="M163.555,429.774c-4.172,4.172-4.172,10.938,0,15.094c4.156,4.156,10.906,4.156,15.077,0     c4.172-4.156,4.172-10.922,0-15.094C174.461,425.618,167.711,425.618,163.555,429.774z" fill="#006DF0"/>
			<path d="M206.21,429.774c-4.156,4.172-4.156,10.938,0,15.094c4.172,4.156,10.922,4.156,15.094,0     c4.156-4.156,4.156-10.922,0-15.094C217.132,425.618,210.382,425.618,206.21,429.774z" fill="#006DF0"/>
			<path d="M248.882,429.774c-4.172,4.172-4.172,10.938,0,15.094s10.922,4.156,15.078,0c4.171-4.156,4.171-10.922,0-15.094     C259.804,425.618,253.054,425.618,248.882,429.774z" fill="#006DF0"/>
			<path d="M291.553,429.774c-4.172,4.172-4.172,10.938,0,15.094c4.155,4.156,10.905,4.156,15.077,0s4.172-10.922,0-15.094     C302.458,425.618,295.708,425.618,291.553,429.774z" fill="#006DF0"/>
			<path d="M334.208,429.774c-4.156,4.172-4.156,10.938,0,15.094c4.172,4.156,10.922,4.156,15.094,0     c4.156-4.156,4.156-10.922,0-15.094C345.13,425.618,338.38,425.618,334.208,429.774z" fill="#006DF0"/>
			<path d="M393.551,190.592c-0.312-0.273-0.641-0.516-0.984-0.75c-6.688-8.312-20.562-14.968-41.921-20.171     c-7.078-1.727-14.797-3.234-23-4.516l18.797-37.093l85.623,43.406c1.547,0.781,3.188,1.156,4.828,1.156     c2.922,0,5.812-1.211,7.891-3.484c3.219-3.539,3.688-8.805,1.141-12.859L382.942,56.079l6.905-13.641     c2.672-5.258,0.562-11.672-4.688-14.335c-5.249-2.664-11.671-0.57-14.327,4.687l-6.922,13.641l-118.061,8.43     c-4.781,0.336-8.75,3.828-9.688,8.523c-0.953,4.703,1.359,9.461,5.625,11.625l85.639,43.405l-22.266,43.921     c-15.702-1.531-32.577-2.336-49.92-2.336c-15.141,0-29.922,0.609-43.875,1.781L159.867,7.29     c-0.016-0.086-0.062-0.156-0.094-0.242c-0.078-0.219-0.156-0.438-0.25-0.648c-0.062-0.141-0.125-0.273-0.188-0.406     c-0.094-0.172-0.172-0.344-0.266-0.516c-0.094-0.172-0.203-0.336-0.297-0.5c-0.078-0.125-0.156-0.25-0.25-0.375     c-0.125-0.195-0.266-0.375-0.422-0.555c-0.047-0.07-0.094-0.148-0.156-0.211c-0.016-0.031-0.047-0.055-0.062-0.078     c-0.156-0.18-0.312-0.344-0.484-0.516c-0.078-0.094-0.172-0.188-0.266-0.273c-0.141-0.141-0.297-0.266-0.438-0.391     c-0.125-0.109-0.25-0.219-0.375-0.32c-0.109-0.086-0.234-0.172-0.359-0.258c-0.172-0.117-0.328-0.242-0.5-0.352     c-0.094-0.055-0.188-0.109-0.281-0.164c-0.203-0.117-0.406-0.242-0.625-0.344c-0.094-0.047-0.172-0.086-0.266-0.125     c-0.219-0.102-0.438-0.203-0.656-0.289c-0.125-0.047-0.266-0.086-0.391-0.133c-0.188-0.062-0.375-0.133-0.562-0.188     c-0.187-0.055-0.375-0.094-0.562-0.133c-0.141-0.031-0.281-0.07-0.422-0.102c-0.234-0.039-0.453-0.062-0.688-0.094     c-0.109-0.008-0.219-0.031-0.328-0.039c-0.219-0.023-0.453-0.023-0.672-0.031c-0.125,0-0.234-0.007-0.359-0.007     c-0.203,0-0.391,0.015-0.594,0.031c-0.156,0.008-0.312,0.016-0.469,0.031c-0.157,0.015-0.297,0.047-0.453,0.07     c-0.203,0.031-0.406,0.062-0.609,0.102c-0.109,0.023-0.233,0.062-0.358,0.086c-0.234,0.062-0.453,0.125-0.688,0.195     c-0.031,0.016-0.062,0.016-0.094,0.031c-0.078,0.023-0.156,0.062-0.234,0.086c-0.219,0.078-0.438,0.164-0.656,0.258     c-0.141,0.062-0.266,0.125-0.406,0.188c-0.172,0.086-0.344,0.172-0.516,0.273c-0.172,0.094-0.328,0.195-0.5,0.297     c-0.125,0.078-0.25,0.156-0.375,0.242c-0.203,0.133-0.375,0.273-0.562,0.422c-0.062,0.055-0.141,0.102-0.203,0.156l-64,53.335     c-4.531,3.765-5.141,10.492-1.375,15.023c2.109,2.531,5.156,3.836,8.203,3.836c2.406,0,4.828-0.812,6.828-2.477l52-43.327     l45.092,135.294c-10.797,1.469-20.843,3.32-29.858,5.516c-21.155,5.156-34.968,11.742-41.733,19.953     c-0.469,0.289-0.906,0.602-1.328,0.969c-32.281,27.875-52.328,76.069-52.328,125.778c0,49.359,20.297,98.936,55.688,136.061     c17.609,18.469,37.983,33.031,60.529,43.281c23.75,10.812,48.828,16.281,74.5,16.281c25.687,0,50.764-5.469,74.514-16.281     c22.547-10.25,42.922-24.812,60.53-43.281c35.39-37.125,55.687-86.701,55.687-136.061     C445.878,266.661,425.831,218.466,393.551,190.592z M285.787,73.39l79.28-5.656l42.296,67.296L285.787,73.39z M255.241,181.326     c13.562,0,26.874,0.523,39.514,1.516l-4.64,9.156h-68.671l-3.125-9.359C230.179,181.779,242.6,181.326,255.241,181.326z      M170.086,189.193c8.077-1.75,16.968-3.234,26.468-4.422l2.406,7.227h-17.016c-5.89,0-10.671,4.773-10.671,10.664     c0,5.89,4.781,10.664,10.671,10.664h31.734c0.031,0,0.047,0.008,0.078,0.008c0.016,0,0.047-0.008,0.078-0.008h82.748     c0.031,0,0.047,0.008,0.078,0.008c0.016,0,0.047-0.008,0.062-0.008h34.219c5.891,0,10.672-4.773,10.672-10.664     c0-5.891-4.781-10.664-10.672-10.664h-16.906l3.422-6.766c8.172,1.109,15.859,2.43,22.922,3.961     c23.297,5.062,32.562,10.805,35.062,13.469c-2.5,2.664-11.766,8.406-35.062,13.468c-23.359,5.07-53.593,7.867-85.139,7.867     c-31.562,0-61.797-2.797-85.155-7.867c-23.296-5.062-32.562-10.804-35.062-13.468     C137.524,199.998,146.79,194.256,170.086,189.193z M422.472,342.386c-1.047,0.516-2.047,1.188-2.922,2.062     c-3.969,3.969-4.156,10.266-0.578,14.453c-2.375,9-5.484,17.766-9.233,26.219c-4-2-8.969-1.328-12.297,2     c-4.172,4.156-4.172,10.906,0,15.094c0.75,0.75,1.609,1.375,2.5,1.844c-4.719,7.938-10.016,15.498-15.859,22.623     c-2.608,0.078-5.202,1.094-7.202,3.094c-2.312,2.312-3.328,5.438-3.078,8.438c-13.406,13.812-28.906,25.469-45.828,34.25     c0,0-0.016,0-0.016-0.016c-4.156-4.172-10.906-4.172-15.078,0c-2.234,2.234-3.25,5.203-3.094,8.109     c-7.984,3-16.202,5.391-24.608,7.094c0.047-0.047,0.078-0.078,0.125-0.125c4.156-4.156,4.156-10.906,0-15.078     c-4.172-4.172-10.922-4.172-15.094,0c-4.156,4.172-4.156,10.922,0,15.078c0.859,0.875,1.844,1.547,2.875,2.062     c-5.906,0.688-11.89,1.062-17.937,1.062c-5.344,0-10.641-0.281-15.891-0.844c1.219-0.516,2.375-1.281,3.375-2.281     c4.172-4.156,4.172-10.906,0-15.078s-10.922-4.172-15.078,0c-4.172,4.172-4.172,10.922,0,15.078c0.25,0.266,0.5,0.5,0.781,0.719     c-8.656-1.562-17.125-3.828-25.359-6.781c0.438-3.188-0.547-6.562-3.016-9.016c-4.156-4.172-10.922-4.172-15.078,0     c-0.297,0.297-0.547,0.594-0.797,0.891c-16.718-8.422-32.062-19.625-45.436-32.969c1.078-3.625,0.188-7.719-2.688-10.594     c-2.609-2.594-6.219-3.562-9.594-2.906c-5.734-7-10.969-14.404-15.641-22.186c1.422-0.531,2.766-1.344,3.906-2.469     c4.172-4.188,4.172-10.938,0-15.094c-3.734-3.734-9.531-4.109-13.688-1.156c-3.672-8.141-6.719-16.562-9.109-25.219     c0.516-0.344,1-0.75,1.469-1.219c4.156-4.156,4.156-10.906,0-15.078c-1.594-1.578-3.562-2.562-5.609-2.938     c-1.266-8.25-1.938-16.641-1.938-25.141c0-37.654,12.797-74.053,34.094-98.716c7.266,7.305,20.516,13.258,39.968,18     c25.608,6.242,59.499,9.671,95.421,9.671c35.905,0,69.795-3.43,95.404-9.671c19.391-4.719,32.608-10.648,39.89-17.914     c21.234,24.656,34.015,61.007,34.015,98.63C424.55,325.151,423.831,333.854,422.472,342.386z" fill="#006DF0"/>
		</g>
	</g>
</g>
<g>
</g>
<g>
</g>
<g>
</g>
<g>
</g>
<g>
</g>
<g>
</g>
<g>
</g>
<g>
</g>
<g>
</g>
<g>
</g>
<g>
</g>
<g>
</g>
<g>
</g>
<g>
</g>
<g>
</g>
</svg>
