<?xml version="1.0" encoding="iso-8859-1"?>
<!-- Generator: Adobe Illustrator 19.0.0, SVG Export Plug-In . SVG Version: 6.00 Build 0)  -->
<svg xmlns="http://www.w3.org/2000/svg" xmlns:xlink="http://www.w3.org/1999/xlink" version="1.1" id="Layer_1" x="0px" y="0px" viewBox="0 0 511.996 511.996" style="enable-background:new 0 0 511.996 511.996;" xml:space="preserve" width="512px" height="512px">
<g>
	<g>
		<g>
			<path d="M128.002,245.334c0-1.633-0.406-10.164-8.453-18.21c-9.156-9.148-24.25-13.789-44.875-13.789     c-17.015,0-32.921,10.133-42.171,17.414L18.207,216.46c-4.156-4.164-10.922-4.164-15.078,0c-4.172,4.164-4.172,10.914,0,15.086     l13.797,13.789L3.129,259.123c-4.172,4.164-4.172,10.922,0,15.094c2.078,2.078,4.812,3.125,7.547,3.125     c2.719,0,5.453-1.047,7.531-3.125l14.296-14.305c9.25,7.289,25.157,17.43,42.171,17.43     C127.393,277.342,128.002,246.639,128.002,245.334z M74.674,234.663c4.016,0,7.562,0.211,10.688,0.57     c0.141,2.539,1.156,5.039,3.094,6.976c4.172,4.164,10.922,4.164,15.094,0c0.156-0.164,0.312-0.344,0.469-0.516     c1.438,1.281,2.234,2.555,2.547,3.641c-1.156,4-8.938,10.664-31.891,10.664c-8.844,0-18.718-5.43-26.015-10.656     C55.941,240.146,65.862,234.67,74.674,234.663z" fill="#006DF0"/>
			<path d="M503.543,141.789c-9.156-9.148-24.25-13.789-44.875-13.789c-17.016,0-32.922,10.133-42.172,17.414l-14.295-14.289     c-4.156-4.164-10.922-4.164-15.078,0c-4.172,4.164-4.172,10.922,0,15.086L400.92,160l-13.797,13.789     c-4.172,4.164-4.172,10.921,0,15.085c2.078,2.086,4.812,3.125,7.547,3.125c2.719,0,5.453-1.039,7.531-3.125l14.295-14.289     c9.25,7.281,25.156,17.414,42.172,17.414c52.719,0,53.328-30.695,53.328-32C511.996,158.374,511.59,149.843,503.543,141.789z      M458.668,170.664c-8.844,0-18.719-5.43-26.016-10.656c7.281-5.195,17.203-10.672,26.016-10.672     c4.016,0,7.562,0.203,10.688,0.562c0.141,2.539,1.156,5.039,3.094,6.977c4.172,4.164,10.922,4.164,15.094,0     c0.156-0.164,0.312-0.344,0.469-0.516c1.438,1.289,2.234,2.562,2.547,3.641C489.402,163.999,481.621,170.664,458.668,170.664z" fill="#006DF0"/>
			<path d="M420.98,363.902c-3.5-1.844-7.75-1.609-10.998,0.625l-31.203,21.328c-4.859,3.328-6.109,9.969-2.781,14.828     c3.328,4.875,9.969,6.109,14.828,2.781l14.5-9.906v22.404c0,0.188-0.219,19.688-9.844,38.531     c-12.266,24-34.062,36.156-64.812,36.156s-52.561-12.156-64.826-36.156c-9.609-18.812-9.843-38.25-9.843-38.531V211.498     c12.421-4.406,21.328-16.257,21.328-30.164c0-13.906-8.906-25.765-21.328-30.164V10.666c0-5.891-4.781-10.664-10.672-10.664     s-10.656,4.773-10.656,10.664v140.505c-12.422,4.398-21.344,16.258-21.344,30.164s8.922,25.757,21.344,30.164v204.464     c0,0.188-0.219,19.688-9.859,38.531c-12.25,24-34.062,36.156-64.812,36.156s-52.562-12.156-64.827-36.156     c-9.625-18.844-9.844-38.344-9.844-38.5v-22.436l14.5,9.906c4.875,3.328,11.5,2.094,14.828-2.781     c3.328-4.859,2.078-11.5-2.781-14.828L80.69,364.527c-3.266-2.234-7.5-2.469-11-0.625s-5.688,5.469-5.688,9.438v42.654     c0,0.969,0.141,24.125,11.797,47.438c11.078,22.156,34.672,48.562,84.202,48.562c49.53,0,73.124-26.406,84.202-48.562     c0.391-0.781,0.766-1.562,1.125-2.328c0.375,0.766,0.75,1.547,1.125,2.328c11.078,22.156,34.687,48.562,84.216,48.562     c49.531,0,73.125-26.406,84.201-48.562c11.656-23.312,11.797-46.469,11.797-47.438V373.34     C426.668,369.371,424.465,365.746,420.98,363.902z M245.329,191.999c-5.875,0-10.656-4.781-10.656-10.664     c-0.001-5.882,4.781-10.671,10.656-10.671c5.891,0,10.672,4.789,10.672,10.671C256.001,187.218,251.22,191.999,245.329,191.999z" fill="#006DF0"/>
		</g>
	</g>
</g>
<g>
</g>
<g>
</g>
<g>
</g>
<g>
</g>
<g>
</g>
<g>
</g>
<g>
</g>
<g>
</g>
<g>
</g>
<g>
</g>
<g>
</g>
<g>
</g>
<g>
</g>
<g>
</g>
<g>
</g>
</svg>
