<?xml version="1.0" standalone="no"?>
<!DOCTYPE svg PUBLIC "-//W3C//DTD SVG 1.1//EN" "http://www.w3.org/Graphics/SVG/1.1/DTD/svg11.dtd" >
<svg xmlns="http://www.w3.org/2000/svg" xmlns:xlink="http://www.w3.org/1999/xlink" version="1.1">
<metadata>
Created by FontForge 20170731 at Sat Apr 29 11:32:16 2017
 By Aleksey,,,
Copyright (c) 2015 by Reza Bakhtiarifard / Bakh. All rights reserved.
</metadata>
<defs>
<font id="YekanBakh-Fat" horiz-adv-x="0" >
  <font-face 
    font-family="Yekan Bakh Fat"
    font-weight="1000"
    font-stretch="normal"
    units-per-em="1000"
    panose-1="1 0 5 4 0 0 0 2 0 4"
    ascent="800"
    descent="-200"
    bbox="-185 -455 1290 910"
    underline-thickness="25"
    underline-position="-98"
    unicode-range="U+000A-FFFC"
  />
<missing-glyph horiz-adv-x="480" 
d="M430 555v-555h-380v555h380zM265 380h-50v-205h50v205z" />
    <glyph glyph-name="allah" unicode="&#x627;&#xfedf;&#xfee0;&#xfeea;" horiz-adv-x="1160" arabic-form="isolated" 
d="M675 175h60q6 0 10.5 4.5t4.5 10.5v295h165v-310q0 -87 -45 -131t-120 -44h-69q-71 0 -101 30q-36 -30 -85 -30h-95q-83 0 -110 60q-44 -25 -105 -25q-74 0 -117 44.5t-43 135.5q0 76 49 135.5t126 59.5h25v55h165v-275q0 -6 4.5 -10.5t10.5 -4.5h75q6 0 10.5 4.5
t4.5 10.5v205h165v-205q0 -6 4.5 -10.5t10.5 -4.5zM180 220q0 -25 25 -25q30 0 30 25v30h-25q-30 0 -30 -30zM515 700v210h100v-210h-100zM610 660v-120h15q6 0 10.5 4.5t4.5 10.5v105h95v-85q0 -130 -116 -130h-19q-16 0 -35 15q-19 -15 -35 -15h-20q-115 0 -115 130v85h95
v-105q0 -6 4.5 -10.5t10.5 -4.5h15v120h90zM965 0v555h165v-555h-165z" />
    <glyph glyph-name="la.aa" unicode="&#xfedf;&#xfe82;" horiz-adv-x="440" arabic-form="isolated" 
d="M245 555h165v-380q0 -87 -45 -131t-120 -44h-215v435h165v-260h35q6 0 10.5 4.5t4.5 10.5v365zM210 505h-155q-24 0 -33 -17l-32 -63l-105 55l35 75q24 52 50 68.5t85 16.5h155v-135z" />
    <glyph glyph-name="la.aa.fina" unicode="&#xfee0;&#xfe82;" horiz-adv-x="440" arabic-form="final" 
d="M245 0h-215v435h165v-260h35q6 0 10.5 4.5t4.5 10.5v365h165v-365q0 -6 4.5 -10.5t10.5 -4.5h15q8 0 12 -4.5t6 -22.5t2 -58q0 -42 -2 -61.5t-6 -24t-12 -4.5h-9q-71 0 -101 30q-36 -30 -85 -30zM210 505h-155q-24 0 -33 -17l-32 -63l-105 55l35 75q24 52 50 68.5
t85 16.5h155v-135z" />
    <glyph glyph-name="la.thmz" unicode="&#xfedf;&#xfe84;" horiz-adv-x="440" arabic-form="isolated" 
d="M245 555h165v-380q0 -87 -45 -131t-120 -44h-215v435h165v-260h35q6 0 10.5 4.5t4.5 10.5v365zM30 455l-45 90l46 25q-36 29 -36 80q0 41 27 73t73 32h80l-15 -100h-45q-25 0 -25 -20q0 -8 5.5 -14t12.5 -6q18 0 87 37l40 -92z" />
    <glyph glyph-name="la.thmz.fina" unicode="&#xfee0;&#xfe84;" horiz-adv-x="440" arabic-form="final" 
d="M245 0h-215v435h165v-260h35q6 0 10.5 4.5t4.5 10.5v365h165v-365q0 -6 4.5 -10.5t10.5 -4.5h15q8 0 12 -4.5t6 -22.5t2 -58q0 -42 -2 -61.5t-6 -24t-12 -4.5h-9q-71 0 -101 30q-36 -30 -85 -30zM30 455l-45 90l46 25q-36 29 -36 80q0 41 27 73t73 32h80l-15 -100h-45
q-25 0 -25 -20q0 -8 5.5 -14t12.5 -6q18 0 87 37l40 -92z" />
    <glyph glyph-name="la.bhmz" unicode="&#xfedf;&#xfe88;" horiz-adv-x="440" arabic-form="isolated" 
d="M245 555h165v-380q0 -87 -45 -131t-120 -44h-215v555h165v-380h35q6 0 10.5 4.5t4.5 10.5v365zM60 -350l-45 90l46 25q-36 29 -36 80q0 41 27 73t73 32h80l-15 -100h-45q-25 0 -25 -20q0 -8 5.5 -14t12.5 -6q18 0 87 37l40 -92z" />
    <glyph glyph-name="la.bhmz.fina" unicode="&#xfee0;&#xfe88;" horiz-adv-x="460" arabic-form="final" 
d="M245 0h-215v555h165v-380h35q6 0 10.5 4.5t4.5 10.5v365h165v-365q0 -6 4.5 -10.5t10.5 -4.5h35q8 0 12 -4.5t6 -22.5t2 -58q0 -42 -2 -61.5t-6 -24t-12 -4.5h-29q-71 0 -101 30q-36 -30 -85 -30zM60 -350l-45 90l46 25q-36 29 -36 80q0 41 27 73t73 32h80l-15 -100h-45
q-25 0 -25 -20q0 -8 5.5 -14t12.5 -6q18 0 87 37l40 -92z" />
    <glyph glyph-name="la" unicode="&#xfedf;&#xfe8e;" horiz-adv-x="440" arabic-form="isolated" 
d="M245 555h165v-380q0 -87 -45 -131t-120 -44h-215v555h165v-380h35q6 0 10.5 4.5t4.5 10.5v365z" />
    <glyph glyph-name="la.fina" unicode="&#xfee0;&#xfe8e;" horiz-adv-x="460" arabic-form="final" 
d="M245 0h-215v555h165v-380h35q6 0 10.5 4.5t4.5 10.5v365h165v-365q0 -6 4.5 -10.5t10.5 -4.5h35q8 0 12 -4.5t6 -22.5t2 -58q0 -42 -2 -61.5t-6 -24t-12 -4.5h-29q-71 0 -101 30q-36 -30 -85 -30z" />
    <glyph glyph-name="la.tvasla" unicode="&#xfedf;&#xfb51;" horiz-adv-x="440" 
d="M245 555h165v-380q0 -87 -45 -131t-120 -44h-215v435h165v-260h35q6 0 10.5 4.5t4.5 10.5v365zM16 480l-41 40v93l70 8v-60q29 55 56 81.5t61 26.5q32 0 55 -25.5t23 -65.5q0 -37 -25 -67.5t-76 -30.5h-123zM146 556q15 0 15 15q0 11 -11 11t-25 -26h21z" />
    <glyph glyph-name="la.tvasla.fina" unicode="&#xfee0;&#xfb51;" horiz-adv-x="440" 
d="M245 0h-215v435h165v-260h35q6 0 10.5 4.5t4.5 10.5v365h165v-365q0 -6 4.5 -10.5t10.5 -4.5h15q8 0 12 -4.5t6 -22.5t2 -58q0 -42 -2 -61.5t-6 -24t-12 -4.5h-9q-71 0 -101 30q-36 -30 -85 -30zM16 480l-41 40v93l70 8v-60q29 55 56 81.5t61 26.5q32 0 55 -25.5
t23 -65.5q0 -37 -25 -67.5t-76 -30.5h-123zM146 556q15 0 15 15q0 11 -11 11t-25 -26h21z" />
    <glyph glyph-name="lellah" unicode="&#xfedf;&#x650;&#xfee0;&#x654;&#xfeea;" horiz-adv-x="940" 
d="M675 175h60q6 0 10.5 4.5t4.5 10.5v295h165v-310q0 -87 -45 -131t-120 -44h-69q-71 0 -101 30q-36 -30 -85 -30h-95q-83 0 -110 60q-44 -25 -105 -25q-74 0 -117 44.5t-43 135.5q0 76 49 135.5t126 59.5h25v55h165v-275q0 -6 4.5 -10.5t10.5 -4.5h75q6 0 10.5 4.5
t4.5 10.5v205h165v-205q0 -6 4.5 -10.5t10.5 -4.5zM180 220q0 -25 25 -25q30 0 30 25v30h-25q-30 0 -30 -30zM515 700v210h100v-210h-100zM610 660v-120h15q6 0 10.5 4.5t4.5 10.5v105h95v-85q0 -130 -116 -130h-19q-16 0 -35 15q-19 -15 -35 -15h-20q-115 0 -115 130v85h95
v-105q0 -6 4.5 -10.5t10.5 -4.5h15v120h90z" />
    <glyph glyph-name="hmz" unicode="&#x621;" horiz-adv-x="425" arabic-form="isolated" 
d="M95 -20l-70 140l57 29q-42 42 -42 106q0 73 45 124t115 51q53 0 120 -30l-35 -130q-44 10 -65 10q-35 0 -35 -30q0 -25 25 -25q7 0 14.5 1.5t19.5 6.5t22 9t33 14.5t41 18.5l60 -140z" />
    <glyph glyph-name="alef.aa" unicode="&#x622;" horiz-adv-x="225" arabic-form="isolated" 
d="M30 0v455h165v-455h-165zM245 505h-190q-24 0 -33 -17l-32 -63l-105 55l35 75q24 52 50 68.5t85 16.5h190v-135z" />
    <glyph glyph-name="alef.thmz" unicode="&#x623;" horiz-adv-x="225" arabic-form="isolated" 
d="M30 0v455h165v-455h-165zM30 455l-45 90l46 25q-36 29 -36 80q0 41 27 73t73 32h80l-15 -100h-45q-25 0 -25 -20q0 -8 5.5 -14t12.5 -6q18 0 87 37l40 -92z" />
    <glyph glyph-name="vav.thmz" unicode="&#x624;" horiz-adv-x="430" arabic-form="isolated" 
d="M405 175v-155q0 -117 -63 -181t-167 -64h-135l-10 175h155q30 0 42.5 11.5t12.5 38.5h-15q-106 0 -145.5 45t-39.5 135q0 82 48.5 138.5t131.5 56.5q82 0 133.5 -49t51.5 -151zM195 191q0 -16 6 -23.5t24 -7.5h25v25q0 35 -28 35q-27 0 -27 -29zM130 380l-45 90l46 25
q-36 29 -36 80q0 41 27 73t73 32h80l-15 -100h-45q-25 0 -25 -20q0 -8 5.5 -14t12.5 -6q18 0 87 37l40 -92z" />
    <glyph glyph-name="alef.bhmz" unicode="&#x625;" horiz-adv-x="225" arabic-form="isolated" 
d="M30 0v555h165v-555h-165zM35 -350l-45 90l46 25q-36 29 -36 80q0 41 27 73t73 32h80l-15 -100h-45q-25 0 -25 -20q0 -8 5.5 -14t12.5 -6q18 0 87 37l40 -92z" />
    <glyph glyph-name="ye.thmz" unicode="&#x626;" horiz-adv-x="610" arabic-form="isolated" 
d="M420 10q0 6 -4.5 10.5t-10.5 4.5h-175v185q0 83 49 134t131 51h145l10 -170h-155q-6 0 -10.5 -4.5t-4.5 -10.5v-15h30q160 0 160 -155q0 -99 -72.5 -169.5t-182.5 -70.5h-65q-112 0 -176 67t-64 183v190h165v-195q0 -70 85 -70h65q80 0 80 35zM70 271l-45 90l46 25
q-36 29 -36 80q0 41 27 73t73 32h80l-15 -100h-45q-25 0 -25 -20q0 -8 5.5 -14t12.5 -6q18 0 87 37l40 -92z" />
    <glyph glyph-name="alef" unicode="&#x627;" horiz-adv-x="225" arabic-form="isolated" 
d="M30 0v555h165v-555h-165z" />
    <glyph glyph-name="be" unicode="&#x628;" horiz-adv-x="640" arabic-form="isolated" 
d="M450 0h-255q-88 0 -129 48.5t-41 126.5v150h165v-135q0 -6 4.5 -10.5t10.5 -4.5h230q6 0 10.5 4.5t4.5 10.5v135h165v-150q0 -84 -45.5 -129.5t-119.5 -45.5zM400 -50v-125h-165v125h165z" />
    <glyph glyph-name="te.marbuta" unicode="&#x629;" horiz-adv-x="420" arabic-form="isolated" 
d="M25 175q0 80 75 170l-38 40l116 115q132 -120 174.5 -188t42.5 -137q0 -75 -54 -125t-136 -50t-131 48t-49 127zM240 192q0 24 -30 53q-30 -30 -30 -53q0 -27 30 -27t30 27zM330 645v-125h-260v125h260z" />
    <glyph glyph-name="te" unicode="&#x62a;" horiz-adv-x="640" arabic-form="isolated" 
d="M450 0h-255q-88 0 -129 48.5t-41 126.5v150h165v-135q0 -6 4.5 -10.5t10.5 -4.5h230q6 0 10.5 4.5t4.5 10.5v135h165v-150q0 -84 -45.5 -129.5t-119.5 -45.5zM450 500v-125h-260v125h260z" />
    <glyph glyph-name="the" unicode="&#x62b;" horiz-adv-x="640" arabic-form="isolated" 
d="M450 0h-255q-88 0 -129 48.5t-41 126.5v150h165v-135q0 -6 4.5 -10.5t10.5 -4.5h230q6 0 10.5 4.5t4.5 10.5v135h165v-150q0 -84 -45.5 -129.5t-119.5 -45.5zM385 650v-125h-130v125h130zM450 500v-125h-260v125h260z" />
    <glyph glyph-name="jim" unicode="&#x62c;" horiz-adv-x="505" arabic-form="isolated" 
d="M190 -55q0 -65 85 -65h200l-13 -175h-192q-130 0 -187.5 60.5t-57.5 159.5q0 85 54.5 149t200.5 141q-7 20 -30 20h-195l15 165h225q30 0 52 -7.5t47 -30.5t46.5 -72t39.5 -125l-185 -105q-105 -60 -105 -115zM470 60v-125h-165v125h165z" />
    <glyph glyph-name="him" unicode="&#x62d;" horiz-adv-x="505" arabic-form="isolated" 
d="M190 -55q0 -65 85 -65h200l-13 -175h-192q-130 0 -187.5 60.5t-57.5 159.5q0 85 54.5 149t200.5 141q-7 20 -30 20h-195l15 165h225q30 0 52 -7.5t47 -30.5t46.5 -72t39.5 -125l-185 -105q-105 -60 -105 -115z" />
    <glyph glyph-name="khe" unicode="&#x62e;" horiz-adv-x="505" arabic-form="isolated" 
d="M190 -55q0 -65 85 -65h200l-13 -175h-192q-130 0 -187.5 60.5t-57.5 159.5q0 85 54.5 149t200.5 141q-7 20 -30 20h-195l15 165h225q30 0 52 -7.5t47 -30.5t46.5 -72t39.5 -125l-185 -105q-105 -60 -105 -115zM315 580v-125h-165v125h165z" />
    <glyph glyph-name="dal" unicode="&#x62f;" horiz-adv-x="470" arabic-form="isolated" 
d="M235 208l-130 152l125 120l160 -195q55 -67 55 -135q0 -65 -43.5 -107.5t-126.5 -42.5h-240l-15 175h210q15 0 15 12q0 8 -10 21z" />
    <glyph glyph-name="zal" unicode="&#x630;" horiz-adv-x="470" arabic-form="isolated" 
d="M235 208l-130 152l125 120l160 -195q55 -67 55 -135q0 -65 -43.5 -107.5t-126.5 -42.5h-240l-15 175h210q15 0 15 12q0 8 -10 21zM310 645v-125h-165v125h165z" />
    <glyph glyph-name="re" unicode="&#x631;" horiz-adv-x="230" arabic-form="isolated" 
d="M205 325v-285q0 -104 -66 -177t-169 -73h-100l-15 175h95q90 0 90 70v290h165z" />
    <glyph glyph-name="ze" unicode="&#x632;" horiz-adv-x="230" arabic-form="isolated" 
d="M205 325v-285q0 -104 -66 -177t-169 -73h-100l-15 175h95q90 0 90 70v290h165zM205 500v-125h-165v125h165z" />
    <glyph glyph-name="sin" unicode="&#x633;" horiz-adv-x="960" arabic-form="isolated" 
d="M745 325v-135q0 -6 4.5 -10.5t10.5 -4.5t10.5 4.5t4.5 10.5v135h160v-150q0 -85 -51 -130t-124 -45q-60 0 -90 30q-36 -30 -75 -30q-43 0 -65 15l25 40q0 -109 -66 -182t-179 -73h-45q-112 0 -176 67t-64 183v190h165v-195q0 -70 85 -70h30q90 0 90 70v280h160v-135
q0 -6 4.5 -10.5t10.5 -4.5t10.5 4.5t4.5 10.5v135h160z" />
    <glyph glyph-name="shin" unicode="&#x634;" horiz-adv-x="960" arabic-form="isolated" 
d="M745 325v-135q0 -6 4.5 -10.5t10.5 -4.5t10.5 4.5t4.5 10.5v135h160v-150q0 -85 -51 -130t-124 -45q-60 0 -90 30q-36 -30 -75 -30q-43 0 -65 15l25 40q0 -109 -66 -182t-179 -73h-45q-112 0 -176 67t-64 183v190h165v-195q0 -70 85 -70h30q90 0 90 70v280h160v-135
q0 -6 4.5 -10.5t10.5 -4.5t10.5 4.5t4.5 10.5v135h160zM725 650v-125h-130v125h130zM790 500v-125h-260v125h260z" />
    <glyph glyph-name="sad" unicode="&#x635;" horiz-adv-x="995" arabic-form="isolated" 
d="M560 325v-105q114 170 240 170q75 0 122.5 -53.5t47.5 -136.5t-51 -141.5t-149 -58.5h-175q-22 0 -44 5q-15 -90 -78.5 -147.5t-162.5 -57.5h-45q-112 0 -176 67t-64 183v190h165v-195q0 -70 85 -70h30q90 0 90 70v280h165zM700 170h80q14 0 22 8.5t8 19.5q0 10 -8 18.5
t-20 8.5q-19 0 -82 -55z" />
    <glyph glyph-name="zad" unicode="&#x636;" horiz-adv-x="995" arabic-form="isolated" 
d="M560 325v-105q114 170 240 170q75 0 122.5 -53.5t47.5 -136.5t-51 -141.5t-149 -58.5h-175q-22 0 -44 5q-15 -90 -78.5 -147.5t-162.5 -57.5h-45q-112 0 -176 67t-64 183v190h165v-195q0 -70 85 -70h30q90 0 90 70v280h165zM700 170h80q14 0 22 8.5t8 19.5q0 10 -8 18.5
t-20 8.5q-19 0 -82 -55zM860 565v-125h-165v125h165z" />
    <glyph glyph-name="ta" unicode="&#x637;" horiz-adv-x="525" arabic-form="isolated" 
d="M235 555v-199q41 34 95 34q75 0 122.5 -53.5t47.5 -136.5t-51 -141.5t-149 -58.5h-265l-15 175h50v380h165zM230 170h80q14 0 22 8.5t8 19.5q0 10 -8 18.5t-20 8.5q-19 0 -82 -55z" />
    <glyph glyph-name="za" unicode="&#x638;" horiz-adv-x="525" arabic-form="isolated" 
d="M235 555v-199q41 34 95 34q75 0 122.5 -53.5t47.5 -136.5t-51 -141.5t-149 -58.5h-265l-15 175h50v380h165zM230 170h80q14 0 22 8.5t8 19.5q0 10 -8 18.5t-20 8.5q-19 0 -82 -55zM455 565v-125h-165v125h165z" />
    <glyph glyph-name="ein" unicode="&#x639;" horiz-adv-x="450" arabic-form="isolated" 
d="M110 115q-25 44 -25 85q0 81 47.5 135.5t128.5 54.5q67 0 144 -45l-50 -140q-60 20 -85 20q-12 0 -21 -7.5t-9 -19.5q0 -23 25 -23h160l-15 -175h-150q-70 0 -70 -60t85 -60h160l-13 -175h-152q-245 0 -245 230q0 110 85 180z" />
    <glyph glyph-name="qein" unicode="&#x63a;" horiz-adv-x="450" arabic-form="isolated" 
d="M110 115q-25 44 -25 85q0 81 47.5 135.5t128.5 54.5q67 0 144 -45l-50 -140q-60 20 -85 20q-12 0 -21 -7.5t-9 -19.5q0 -23 25 -23h160l-15 -175h-150q-70 0 -70 -60t85 -60h160l-13 -175h-152q-245 0 -245 230q0 110 85 180zM345 565v-125h-165v125h165z" />
    <glyph glyph-name="fe" unicode="&#x641;" horiz-adv-x="730" arabic-form="isolated" 
d="M500 0h-305q-88 0 -129 48.5t-41 126.5v150h165v-135q0 -6 4.5 -10.5t10.5 -4.5h145q-10 29 -10 60q0 67 49 121t136 54q84 0 132 -48t48 -152v-35q0 -79 -52 -127t-153 -48zM545 170q5 10 5 40q0 40 -30 40q-25 0 -25 -25q0 -33 50 -55zM605 585v-125h-165v125h165z" />
    <glyph glyph-name="qaf" unicode="&#x642;" horiz-adv-x="620" arabic-form="isolated" 
d="M275 -25h120q35 0 35 25h-15q-106 0 -145.5 45t-39.5 135q0 82 48.5 138.5t131.5 56.5q82 0 133.5 -49t51.5 -151v-130q0 -117 -63 -181t-167 -64h-100q-112 0 -176 67t-64 183v190h165v-195q0 -70 85 -70zM385 191q0 -16 6 -23.5t24 -7.5h25v25q0 35 -28 35
q-27 0 -27 -29zM545 550v-125h-260v125h260z" />
    <glyph glyph-name="kaf.arab" unicode="&#x643;" horiz-adv-x="650" arabic-form="isolated" 
d="M455 0h-260q-88 0 -129 48.5t-41 126.5v150h165v-135q0 -6 4.5 -10.5t10.5 -4.5h235q6 0 10.5 4.5t4.5 10.5v365h165v-380q0 -84 -45.5 -129.5t-119.5 -45.5zM395 265h-145v120h-115v140h195q65 0 65 -70v-190z" />
    <glyph glyph-name="lam" unicode="&#x644;" horiz-adv-x="590" arabic-form="isolated" 
d="M310 -200h-45q-112 0 -176 67t-64 183v190h165v-195q0 -70 85 -70h30q90 0 90 70v510h165v-500q0 -108 -68.5 -181.5t-181.5 -73.5z" />
    <glyph glyph-name="mim" unicode="&#x645;" horiz-adv-x="600" arabic-form="isolated" 
d="M220 190q0 21 3 30h-18q-6 0 -10.5 -4.5t-4.5 -10.5v-395h-165v385q0 82 47.5 136t142.5 54h190q170 0 170 -170v-45q0 -84 -53.5 -127t-131.5 -43t-124 42.5t-46 122.5v25zM395 160q25 0 25 20v25q0 20 -25 20t-25 -20v-25q0 -20 25 -20z" />
    <glyph glyph-name="nun" unicode="&#x646;" horiz-adv-x="585" arabic-form="isolated" 
d="M310 -200h-45q-112 0 -176 67t-64 183v190h165v-195q0 -70 85 -70h30q90 0 90 70v280h165v-270q0 -108 -68.5 -181.5t-181.5 -73.5zM345 420v-125h-165v125h165z" />
    <glyph glyph-name="he" unicode="&#x647;" horiz-adv-x="420" arabic-form="isolated" 
d="M25 175q0 80 75 170l-38 40l116 115q132 -120 174.5 -188t42.5 -137q0 -75 -54 -125t-136 -50t-131 48t-49 127zM240 192q0 24 -30 53q-30 -30 -30 -53q0 -27 30 -27t30 27z" />
    <glyph glyph-name="vav" unicode="&#x648;" horiz-adv-x="430" arabic-form="isolated" 
d="M405 175v-155q0 -117 -63 -181t-167 -64h-135l-10 175h155q30 0 42.5 11.5t12.5 38.5h-15q-106 0 -145.5 45t-39.5 135q0 82 48.5 138.5t131.5 56.5q82 0 133.5 -49t51.5 -151zM195 191q0 -16 6 -23.5t24 -7.5h25v25q0 35 -28 35q-27 0 -27 -29z" />
    <glyph glyph-name="alef.maksura" unicode="&#x649;" horiz-adv-x="610" arabic-form="isolated" 
d="M420 10q0 6 -4.5 10.5t-10.5 4.5h-175v185q0 83 49 134t131 51h145l10 -170h-155q-6 0 -10.5 -4.5t-4.5 -10.5v-15h30q160 0 160 -155q0 -99 -72.5 -169.5t-182.5 -70.5h-65q-112 0 -176 67t-64 183v190h165v-195q0 -70 85 -70h65q80 0 80 35z" />
    <glyph glyph-name="ye.arab" unicode="&#x64a;" horiz-adv-x="610" arabic-form="isolated" 
d="M420 10q0 6 -4.5 10.5t-10.5 4.5h-175v185q0 83 49 134t131 51h145l10 -170h-155q-6 0 -10.5 -4.5t-4.5 -10.5v-15h30q160 0 160 -155q0 -99 -72.5 -169.5t-182.5 -70.5h-65q-112 0 -176 67t-64 183v190h165v-195q0 -70 85 -70h65q80 0 80 35zM430 -250v-125h-260v125
h260z" />
    <glyph glyph-name="alef.vasla" unicode="&#x671;" horiz-adv-x="225" arabic-form="isolated" 
d="M30 0v455h165v-455h-165zM26 480l-46 45v103l78 9v-67q32 61 62.5 90.5t67.5 29.5q36 0 61.5 -28.5t25.5 -72.5q0 -41 -28 -75t-85 -34h-136zM170 565q17 0 17 16q0 12 -12 12t-28 -28h23z" />
    <glyph glyph-name="pe" unicode="&#x67e;" horiz-adv-x="640" arabic-form="isolated" 
d="M450 0h-255q-88 0 -129 48.5t-41 126.5v150h165v-135q0 -6 4.5 -10.5t10.5 -4.5h230q6 0 10.5 4.5t4.5 10.5v135h165v-150q0 -84 -45.5 -129.5t-119.5 -45.5zM380 -200v-125h-130v125h130zM445 -50v-125h-260v125h260z" />
    <glyph glyph-name="che" unicode="&#x686;" horiz-adv-x="505" arabic-form="isolated" 
d="M472 55v-80h-42v-66h-84v66h-41v80h167zM190 -55q0 -65 85 -65h200l-13 -175h-192q-130 0 -187.5 60.5t-57.5 159.5q0 85 54.5 149t200.5 141q-7 20 -30 20h-195l15 165h225q30 0 52 -7.5t47 -30.5t46.5 -72t39.5 -125l-185 -105q-105 -60 -105 -115z" />
    <glyph glyph-name="re.bv.fina" unicode="&#x695;" horiz-adv-x="255" 
d="M205 325v-137q0 -13 15 -13h35q8 0 12 -4.5t6 -22.5t2 -58q0 -42 -2 -61.5t-6 -24t-12 -4.5h-15q-22 0 -38 3q-12 -91 -75.5 -152t-156.5 -61h-100l-15 175h95q90 0 90 70v290h165zM50 -345l38 110l92 -40l-82 -180h-96l-82 180l92 40z" />
    <glyph glyph-name="je" unicode="&#x698;" horiz-adv-x="230" arabic-form="isolated" 
d="M205 325v-285q0 -104 -66 -177t-169 -73h-100l-15 175h95q90 0 90 70v290h165zM185 650v-125h-130v125h130zM250 500v-125h-260v125h260z" />
    <glyph glyph-name="veh" unicode="&#x6a4;" horiz-adv-x="730" arabic-form="isolated" 
d="M500 0h-305q-88 0 -129 48.5t-41 126.5v150h165v-135q0 -6 4.5 -10.5t10.5 -4.5h145q-10 29 -10 60q0 67 49 121t136 54q84 0 132 -48t48 -152v-35q0 -79 -52 -127t-153 -48zM545 170q5 10 5 40q0 40 -30 40q-25 0 -25 -25q0 -33 50 -55zM585 735v-125h-130v125h130z
M650 585v-125h-260v125h260z" />
    <glyph glyph-name="kaf" unicode="&#x6a9;" horiz-adv-x="705" arabic-form="isolated" 
d="M205 175h245q15 0 15 12q0 8 -10 18l-165 165v120l355 130l40 -165l-175 -65l70 -70q47 -47 63.5 -82t16.5 -78q0 -82 -46.5 -121t-123.5 -39h-295q-88 0 -129 48.5t-41 126.5v150h165v-135q0 -6 4.5 -10.5t10.5 -4.5z" />
    <glyph glyph-name="gaf" unicode="&#x6af;" horiz-adv-x="705" arabic-form="isolated" 
d="M291 519v107l329 119l21 -98zM205 175h245q15 0 15 12q0 8 -10 18l-165 165v120l355 130l40 -165l-175 -65l70 -70q47 -47 63.5 -82t16.5 -78q0 -82 -46.5 -121t-123.5 -39h-295q-88 0 -129 48.5t-41 126.5v150h165v-135q0 -6 4.5 -10.5t10.5 -4.5z" />
    <glyph glyph-name="lam.tv.init" unicode="&#x6b5;" horiz-adv-x="245" 
d="M0 175h35q6 0 10.5 4.5t4.5 10.5v265h165v-280q0 -87 -45 -131t-120 -44h-50q-8 0 -12 4.5t-6 22.5t-2 58q0 42 2 61.5t6 24t12 4.5zM130 615l38 110l92 -40l-82 -180h-96l-82 180l92 40z" />
    <glyph glyph-name="lam.tvmedi" unicode="&#x6b5;" horiz-adv-x="265" 
d="M0 175h35q6 0 10.5 4.5t4.5 10.5v265h165v-265q0 -6 4.5 -10.5t10.5 -4.5h35q8 0 12 -4.5t6 -22.5t2 -58q0 -42 -2 -61.5t-6 -24t-12 -4.5h-29q-71 0 -101 30q-36 -30 -85 -30h-50q-8 0 -12 4.5t-6 22.5t-2 58q0 42 2 61.5t6 24t12 4.5zM130 615l38 110l92 -40l-82 -180
h-96l-82 180l92 40z" />
    <glyph glyph-name="lam.tv.fina" unicode="&#x6b5;" horiz-adv-x="610" 
d="M310 -200h-45q-112 0 -176 67t-64 183v190h165v-195q0 -70 85 -70h30q90 0 90 70v510h165v-367q2 -13 15 -13h35q8 0 12 -4.5t6 -22.5t2 -58q0 -42 -2 -61.5t-6 -24t-12 -4.5q-25 0 -55 2q-16 -89 -81.5 -145.5t-163.5 -56.5zM230 460l38 110l92 -40l-82 -180h-96
l-82 180l92 40z" />
    <glyph glyph-name="he.thmz" unicode="&#x6c0;" horiz-adv-x="420" arabic-form="isolated" 
d="M250 655h-97q-8 -13 -8 -20q0 -10 13 -10h192l-10 -105h-190q-50 0 -77.5 25t-27.5 65q0 49 55 135h160zM25 175q0 80 75 170l-38 40l116 115q132 -120 174.5 -188t42.5 -137q0 -75 -54 -125t-136 -50t-131 48t-49 127zM240 192q0 24 -30 53q-30 -30 -30 -53
q0 -27 30 -27t30 27z" />
    <glyph glyph-name="he.thmz.goal.fina" unicode="&#x6c2;" horiz-adv-x="440" 
d="M390 465v-275q0 -6 4.5 -10.5t10.5 -4.5h35q8 0 12 -4.5t6 -22.5t2 -58q0 -42 -2 -61.5t-6 -24t-12 -4.5h-40q-84 0 -110 65q-36 -30 -105 -30q-74 0 -117 44.5t-43 135.5q0 76 49 135.5t126 59.5h25v55h165zM180 220q0 -25 25 -25q30 0 30 25v30h-25q-30 0 -30 -30z
M140 460l-45 90l46 25q-36 29 -36 80q0 41 27 73t73 32h80l-15 -100h-45q-25 0 -25 -20q0 -8 5.5 -14t12.5 -6q18 0 87 37l40 -92z" />
    <glyph glyph-name="vav.tv" unicode="&#x6c6;" horiz-adv-x="430" arabic-form="isolated" 
d="M405 175v-155q0 -117 -63 -181t-167 -64h-135l-10 175h155q30 0 42.5 11.5t12.5 38.5h-15q-106 0 -145.5 45t-39.5 135q0 82 48.5 138.5t131.5 56.5q82 0 133.5 -49t51.5 -151zM195 191q0 -16 6 -23.5t24 -7.5h25v25q0 35 -28 35q-27 0 -27 -29zM220 530l38 110l92 -40
l-82 -180h-96l-82 180l92 40z" />
    <glyph glyph-name="vav.t2p.fina" unicode="&#x6ca;" horiz-adv-x="455" 
d="M405 175h50q8 0 12 -4.5t6 -22.5t2 -58q0 -42 -2 -61.5t-6 -24t-12 -4.5h-51q-5 -108 -67.5 -166.5t-161.5 -58.5h-135l-10 175h155q30 0 42.5 11.5t12.5 38.5h-15q-106 0 -145.5 45t-39.5 135q0 82 48.5 138.5t131.5 56.5q82 0 133.5 -49t51.5 -151zM195 191
q0 -16 6 -23.5t24 -7.5h25v25q0 35 -28 35q-27 0 -27 -29zM355 550v-125h-260v125h260z" />
    <glyph glyph-name="ye" unicode="&#x6cc;" horiz-adv-x="610" arabic-form="isolated" 
d="M420 10q0 6 -4.5 10.5t-10.5 4.5h-175v185q0 83 49 134t131 51h145l10 -170h-155q-6 0 -10.5 -4.5t-4.5 -10.5v-15h30q160 0 160 -155q0 -99 -72.5 -169.5t-182.5 -70.5h-65q-112 0 -176 67t-64 183v190h165v-195q0 -70 85 -70h65q80 0 80 35z" />
    <glyph glyph-name="ye.tv.init" unicode="&#x6ce;" horiz-adv-x="260" 
d="M0 175h55q6 0 10.5 4.5t4.5 10.5v135h165v-150q0 -84 -45.5 -129.5t-119.5 -45.5h-70q-8 0 -12 4.5t-6 22.5t-2 58q0 42 2 61.5t6 24t12 4.5zM260 -50v-125h-260v125h260zM140 485l38 110l92 -40l-82 -180h-96l-82 180l92 40z" />
    <glyph glyph-name="ye.tv.medi" unicode="&#x6ce;" horiz-adv-x="265" 
d="M0 175h35q6 0 10.5 4.5t4.5 10.5v135h165v-135q0 -6 4.5 -10.5t10.5 -4.5h35q8 0 12 -4.5t6 -22.5t2 -58q0 -42 -2 -61.5t-6 -24t-12 -4.5h-29q-71 0 -101 30q-36 -30 -85 -30h-50q-8 0 -12 4.5t-6 22.5t-2 58q0 42 2 61.5t6 24t12 4.5zM260 -50v-125h-260v125h260z
M135 485l38 110l92 -40l-82 -180h-96l-82 180l92 40z" />
    <glyph glyph-name="ye.tv.fina" unicode="&#x6ce;" horiz-adv-x="620" 
d="M405 15h-150l15 160h350q8 0 12 -4.5t6 -22.5t2 -58q0 -42 -2 -61.5t-6 -24t-12 -4.5h-41q-7 -90 -73.5 -145t-175.5 -55h-65q-112 0 -176 67t-64 183v190h165v-195q0 -70 85 -70h80q65 0 65 25q0 15 -15 15zM305 345l38 110l92 -40l-82 -180h-96l-82 180l92 40z" />
    <glyph glyph-name="ae.fina" unicode="&#x6d5;" horiz-adv-x="440" 
d="M390 465v-275q0 -6 4.5 -10.5t10.5 -4.5h35q8 0 12 -4.5t6 -22.5t2 -58q0 -42 -2 -61.5t-6 -24t-12 -4.5h-40q-84 0 -110 65q-36 -30 -105 -30q-74 0 -117 44.5t-43 135.5q0 76 49 135.5t126 59.5h25v55h165zM180 220q0 -25 25 -25q30 0 30 25v30h-25q-30 0 -30 -30z" />
    <glyph glyph-name="alef.vasla.fina" unicode="&#x671;" horiz-adv-x="245" arabic-form="final" 
d="M210 175h35q8 0 12 -4.5t6 -22.5t2 -58q0 -42 -2 -61.5t-6 -24t-12 -4.5h-45q-88 0 -129 48.5t-41 126.5v280h165v-265q0 -6 4.5 -10.5t10.5 -4.5zM26 480l-46 45v103l78 9v-67q32 61 62.5 90.5t67.5 29.5q36 0 61.5 -28.5t25.5 -72.5q0 -41 -28 -75t-85 -34h-136z
M170 565q17 0 17 16q0 12 -12 12t-28 -28h23z" />
    <glyph glyph-name="pe.fina" unicode="&#x67e;" horiz-adv-x="665" arabic-form="final" 
d="M450 0h-255q-88 0 -129 48.5t-41 126.5v150h165v-135q0 -6 4.5 -10.5t10.5 -4.5h230q6 0 10.5 4.5t4.5 10.5v135h165v-135q0 -6 4.5 -10.5t10.5 -4.5h35q8 0 12 -4.5t6 -22.5t2 -58q0 -42 -2 -61.5t-6 -24t-12 -4.5h-29q-71 0 -101 30q-36 -30 -85 -30zM380 -200v-125
h-130v125h130zM445 -50v-125h-260v125h260z" />
    <glyph glyph-name="pe.init" unicode="&#x67e;" horiz-adv-x="260" arabic-form="initial" 
d="M0 175h55q6 0 10.5 4.5t4.5 10.5v135h165v-150q0 -84 -45.5 -129.5t-119.5 -45.5h-70q-8 0 -12 4.5t-6 22.5t-2 58q0 42 2 61.5t6 24t12 4.5zM195 -200v-125h-130v125h130zM260 -50v-125h-260v125h260z" />
    <glyph glyph-name="pe.medi" unicode="&#x67e;" horiz-adv-x="265" arabic-form="medial" 
d="M0 175h35q6 0 10.5 4.5t4.5 10.5v135h165v-135q0 -6 4.5 -10.5t10.5 -4.5h35q8 0 12 -4.5t6 -22.5t2 -58q0 -42 -2 -61.5t-6 -24t-12 -4.5h-29q-71 0 -101 30q-36 -30 -85 -30h-50q-8 0 -12 4.5t-6 22.5t-2 58q0 42 2 61.5t6 24t12 4.5zM195 -200v-125h-130v125h130z
M260 -50v-125h-260v125h260z" />
    <glyph glyph-name="veh.fina" unicode="&#x6a4;" horiz-adv-x="755" arabic-form="final" 
d="M205 175h140q-5 19 -5 55q0 72 50 126t135 54q88 0 134 -52t46 -123q0 -36 -8 -60h58q8 0 12 -4.5t6 -22.5t2 -58q0 -42 -2 -61.5t-6 -24t-12 -4.5h-120q-75 0 -110 20q-35 -20 -110 -20h-220q-88 0 -129 48.5t-41 126.5v150h165v-135q0 -6 4.5 -10.5t10.5 -4.5zM523 175
q27 18 27 45q0 12 -7.5 21t-19.5 9q-13 0 -20.5 -9t-7.5 -21q0 -28 28 -45zM585 735v-125h-130v125h130zM650 585v-125h-260v125h260z" />
    <glyph glyph-name="veh.init" unicode="&#x6a4;" horiz-adv-x="440" arabic-form="initial" 
d="M0 175h60q-10 29 -10 60q0 67 49 121t136 54q84 0 132 -48t48 -152v-35q0 -79 -52 -127t-153 -48h-210q-8 0 -12 4.5t-6 22.5t-2 58q0 42 2 61.5t6 24t12 4.5zM255 170q5 10 5 40q0 40 -30 40q-25 0 -25 -25q0 -33 50 -55zM295 735v-125h-130v125h130zM360 585v-125h-260
v125h260z" />
    <glyph glyph-name="veh.medi" unicode="&#x6a4;" horiz-adv-x="465" arabic-form="medial" 
d="M0 175h55q-5 19 -5 55q0 72 50 126t135 54q88 0 134 -52t46 -123q0 -36 -8 -60h58q8 0 12 -4.5t6 -22.5t2 -58q0 -42 -2 -61.5t-6 -24t-12 -4.5h-120q-75 0 -110 20q-35 -20 -110 -20h-125q-8 0 -12 4.5t-6 22.5t-2 58q0 42 2 61.5t6 24t12 4.5zM233 175q27 18 27 45
q0 12 -7.5 21t-19.5 9q-13 0 -20.5 -9t-7.5 -21q0 -28 28 -45zM295 735v-125h-130v125h130zM360 585v-125h-260v125h260z" />
    <glyph glyph-name="che.fina" unicode="&#x686;" horiz-adv-x="520" arabic-form="final" 
d="M485 0q-92 0 -146 85l-44 -25q-105 -60 -105 -115q0 -65 85 -65h200l-13 -175h-192q-130 0 -187.5 60.5t-57.5 159.5q0 85 54.5 149t200.5 141q-7 20 -30 20h-195l15 165h225q60 0 100 -37.5t75 -152.5l-47 -35h97q8 0 12 -4.5t6 -22.5t2 -58q0 -42 -2 -61.5t-6 -24
t-12 -4.5h-35zM390 21v-67h-35v-55h-70v55h-35v67h140z" />
    <glyph glyph-name="che.init" unicode="&#x686;" horiz-adv-x="495" arabic-form="initial" 
d="M0 175h70q39 0 61.5 1.5t62 10.5t81.5 28q-7 20 -30 20h-195l15 165h225q30 0 52 -7.5t47 -30.5t46.5 -72t39.5 -125l-185 -105q-61 -34 -108 -47t-117 -13h-65q-8 0 -12 4.5t-6 22.5t-2 58q0 42 2 61.5t6 24t12 4.5zM280 -200v-125h-130v125h130zM345 -50v-125h-260v125
h260z" />
    <glyph glyph-name="che.medi" unicode="&#x686;" horiz-adv-x="515" arabic-form="medial" 
d="M245 235h-195l15 165h225q60 0 100 -38t73 -152l-45 -35h97q8 0 12 -4.5t6 -22.5t2 -58q0 -42 -2 -61.5t-6 -24t-12 -4.5h-75q-85 0 -133 69l-17 -9q-61 -34 -108 -47t-117 -13h-65q-8 0 -12 4.5t-6 22.5t-2 58q0 42 2 61.5t6 24t12 4.5h70q39 0 61.5 1.5t62 10.5
t81.5 28q-7 20 -30 20zM280 -200v-125h-130v125h130zM345 -50v-125h-260v125h260z" />
    <glyph glyph-name="je.fina" unicode="&#x698;" horiz-adv-x="255" arabic-form="final" 
d="M205 325v-137q0 -13 15 -13h35q8 0 12 -4.5t6 -22.5t2 -58q0 -42 -2 -61.5t-6 -24t-12 -4.5h-15q-22 0 -38 3q-12 -91 -75.5 -152t-156.5 -61h-100l-15 175h95q90 0 90 70v290h165zM185 650v-125h-130v125h130zM250 500v-125h-260v125h260z" />
    <glyph glyph-name="kaf.fina" unicode="&#x6a9;" horiz-adv-x="800" arabic-form="final" 
d="M490 0h-295q-88 0 -129 48.5t-41 126.5v150h165v-135q0 -6 4.5 -10.5t10.5 -4.5h245q15 0 15 12q0 8 -10 18l-165 165v120l355 130l40 -165l-175 -65l70 -70q91 -91 131.5 -118t73.5 -27h15q8 0 12 -4.5t6 -22.5t2 -58q0 -42 -2 -61.5t-6 -24t-12 -4.5h-15
q-68 0 -100.5 9t-64.5 41q-44 -50 -130 -50z" />
    <glyph glyph-name="kaf.init" unicode="&#x6a9;" horiz-adv-x="435" arabic-form="initial" 
d="M0 175h180q15 0 15 12q0 8 -10 18l-165 165v120l355 130l40 -165l-175 -65l70 -70q47 -47 63.5 -82t16.5 -78q0 -82 -46.5 -121t-123.5 -39h-220q-8 0 -12 4.5t-6 22.5t-2 58q0 42 2 61.5t6 24t12 4.5z" />
    <glyph glyph-name="kaf.medi" unicode="&#x6a9;" horiz-adv-x="530" arabic-form="medial" 
d="M0 175h180q15 0 15 12q0 8 -10 18l-165 165v120l355 130l40 -165l-175 -65l70 -70q91 -91 131.5 -118t73.5 -27h15q8 0 12 -4.5t6 -22.5t2 -58q0 -42 -2 -61.5t-6 -24t-12 -4.5h-15q-68 0 -100.5 9t-64.5 41q-44 -50 -130 -50h-220q-8 0 -12 4.5t-6 22.5t-2 58
q0 42 2 61.5t6 24t12 4.5z" />
    <glyph glyph-name="gaf.fina" unicode="&#x6af;" horiz-adv-x="800" arabic-form="final" 
d="M291 519v107l329 119l21 -98zM490 0h-295q-88 0 -129 48.5t-41 126.5v150h165v-135q0 -6 4.5 -10.5t10.5 -4.5h245q15 0 15 12q0 8 -10 18l-165 165v120l355 130l40 -165l-175 -65l70 -70q91 -91 131.5 -118t73.5 -27h15q8 0 12 -4.5t6 -22.5t2 -58q0 -42 -2 -61.5
t-6 -24t-12 -4.5h-15q-68 0 -100.5 9t-64.5 41q-44 -50 -130 -50z" />
    <glyph glyph-name="gaf.init" unicode="&#x6af;" horiz-adv-x="420" arabic-form="initial" 
d="M20 519v107l329 119l21 -98zM0 175h180q15 0 15 12q0 8 -10 18l-165 165v120l355 130l40 -165l-175 -65l70 -70q47 -47 63.5 -82t16.5 -78q0 -82 -46.5 -121t-123.5 -39h-220q-8 0 -12 4.5t-6 22.5t-2 58q0 42 2 61.5t6 24t12 4.5z" />
    <glyph glyph-name="gaf.medi" unicode="&#x6af;" horiz-adv-x="515" arabic-form="medial" 
d="M20 519v107l329 119l21 -98zM0 175h180q15 0 15 12q0 8 -10 18l-165 165v120l355 130l40 -165l-175 -65l70 -70q91 -91 131.5 -118t73.5 -27h15q8 0 12 -4.5t6 -22.5t2 -58q0 -42 -2 -61.5t-6 -24t-12 -4.5h-15q-68 0 -100.5 9t-64.5 41q-44 -50 -130 -50h-220
q-8 0 -12 4.5t-6 22.5t-2 58q0 42 2 61.5t6 24t12 4.5z" />
    <glyph glyph-name="he.thmz.fina" unicode="&#x6c0;" horiz-adv-x="440" arabic-form="final" 
d="M295 595h-97q-8 -13 -8 -20q0 -10 13 -10h192l-10 -105h-190q-50 0 -77.5 25t-27.5 65q0 49 55 135h160zM390 410v-220q0 -6 4.5 -10.5t10.5 -4.5h35q8 0 12 -4.5t6 -22.5t2 -58q0 -42 -2 -61.5t-6 -24t-12 -4.5h-40q-84 0 -110 65q-36 -30 -105 -30q-74 0 -117 44.5
t-43 135.5q0 76 49 135.5t126 59.5h190zM180 220q0 -25 25 -25q30 0 30 25v30h-25q-30 0 -30 -30z" />
    <glyph glyph-name="he.dochashmi.fina" unicode="&#x6be;" horiz-adv-x="570" arabic-form="final" 
d="M300 -195q-61 0 -103 33t-54 96l-53 -24l-70 140q66 27 120 56v89q0 35 8 67.5t27 64t56 50t89 18.5q80 0 125 -49t45 -126q0 -29 -10 -60q31 15 90 15q8 0 12 -4.5t6 -22.5t2 -58q0 -42 -2 -61.5t-6 -24t-12 -4.5q-14 0 -22.5 -2.5t-28 -20t-44.5 -52.5l-85 -120h-90z
M340 205q0 30 -25 30t-25 -34v-31h10q18 0 29 10t11 25zM315 -40l43 65q-26 -15 -68 -25q0 -40 25 -40z" />
    <glyph glyph-name="he.dochashmi.init" unicode="&#x6be;" horiz-adv-x="635" arabic-form="initial" 
d="M0 175h55q-5 17 -5 45q0 67 53.5 118.5t136.5 51.5q23 0 44 -6l91 91l182 -193q53 -57 53 -122q0 -69 -47.5 -114.5t-127.5 -45.5h-110q-75 0 -105 10q-40 -10 -120 -10h-100q-8 0 -12 4.5t-6 22.5t-2 58q0 42 2 61.5t6 24t12 4.5zM223 170q27 18 27 45q0 12 -7.5 21
t-19.5 9q-13 0 -20.5 -9t-7.5 -21q0 -27 28 -45zM440 188q0 7 -7.5 15.5t-37.5 36.5v-5q0 -30 -10 -60h35q20 0 20 13z" />
    <glyph glyph-name="he.dochashmi.medi" unicode="&#x6be;" horiz-adv-x="480" arabic-form="medial" 
d="M0 175h50v20q0 35 8 67.5t27 64t56 50t89 18.5q80 0 125 -49t45 -126q0 -29 -10 -60q31 15 90 15q8 0 12 -4.5t6 -22.5t2 -58q0 -42 -2 -61.5t-6 -24t-12 -4.5q-14 0 -22.5 -2.5t-28 -20t-44.5 -52.5l-85 -120h-90q-71 0 -115.5 44t-44.5 128v23h-50q-8 0 -12 4.5
t-6 22.5t-2 58q0 42 2 61.5t6 24t12 4.5zM250 205q0 30 -25 30t-25 -34v-31h10q18 0 29 10t11 25zM200 5q0 -45 25 -45l37 56q-30 -11 -62 -11z" />
    <glyph glyph-name="vav.tv.fina" unicode="&#x6c6;" horiz-adv-x="455" arabic-form="final" 
d="M405 175h50q8 0 12 -4.5t6 -22.5t2 -58q0 -42 -2 -61.5t-6 -24t-12 -4.5h-51q-5 -108 -67.5 -166.5t-161.5 -58.5h-135l-10 175h155q30 0 42.5 11.5t12.5 38.5h-15q-106 0 -145.5 45t-39.5 135q0 82 48.5 138.5t131.5 56.5q82 0 133.5 -49t51.5 -151zM195 191
q0 -16 6 -23.5t24 -7.5h25v25q0 35 -28 35q-27 0 -27 -29zM220 530l38 110l92 -40l-82 -180h-96l-82 180l92 40z" />
    <glyph glyph-name="alef.maksura.init" unicode="&#x649;" horiz-adv-x="260" arabic-form="initial" 
d="M0 175h55q6 0 10.5 4.5t4.5 10.5v135h165v-150q0 -84 -45.5 -129.5t-119.5 -45.5h-70q-8 0 -12 4.5t-6 22.5t-2 58q0 42 2 61.5t6 24t12 4.5z" />
    <glyph glyph-name="alef.maksura.medi" unicode="&#x649;" horiz-adv-x="265" arabic-form="medial" 
d="M0 175h35q6 0 10.5 4.5t4.5 10.5v135h165v-135q0 -6 4.5 -10.5t10.5 -4.5h35q8 0 12 -4.5t6 -22.5t2 -58q0 -42 -2 -61.5t-6 -24t-12 -4.5h-29q-71 0 -101 30q-36 -30 -85 -30h-50q-8 0 -12 4.5t-6 22.5t-2 58q0 42 2 61.5t6 24t12 4.5z" />
    <glyph glyph-name="ye.fina" unicode="&#x6cc;" horiz-adv-x="620" arabic-form="final" 
d="M405 15h-150l15 160h350q8 0 12 -4.5t6 -22.5t2 -58q0 -42 -2 -61.5t-6 -24t-12 -4.5h-41q-7 -90 -73.5 -145t-175.5 -55h-65q-112 0 -176 67t-64 183v190h165v-195q0 -70 85 -70h80q65 0 65 25q0 15 -15 15z" />
    <glyph glyph-name="ye.init" unicode="&#x6cc;" horiz-adv-x="260" arabic-form="initial" 
d="M0 175h55q6 0 10.5 4.5t4.5 10.5v135h165v-150q0 -84 -45.5 -129.5t-119.5 -45.5h-70q-8 0 -12 4.5t-6 22.5t-2 58q0 42 2 61.5t6 24t12 4.5zM260 -50v-125h-260v125h260z" />
    <glyph glyph-name="ye.medi" unicode="&#x6cc;" horiz-adv-x="265" arabic-form="medial" 
d="M0 175h35q6 0 10.5 4.5t4.5 10.5v135h165v-135q0 -6 4.5 -10.5t10.5 -4.5h35q8 0 12 -4.5t6 -22.5t2 -58q0 -42 -2 -61.5t-6 -24t-12 -4.5h-29q-71 0 -101 30q-36 -30 -85 -30h-50q-8 0 -12 4.5t-6 22.5t-2 58q0 42 2 61.5t6 24t12 4.5zM260 -50v-125h-260v125h260z" />
    <glyph glyph-name=".shdd.on" unicode="&#xfc5e;" arabic-form="isolated" 
d="M-85 215l-55 100v50q0 6 -4.5 10.5t-10.5 4.5h-30v90h75q40 0 40 -40v-85l35 15q-15 22 -15 50q0 42 32.5 73.5t77.5 31.5q47 0 78.5 -33t31.5 -82q0 -78 -90 -115zM46 399q0 -12 14 -18q14 6 14 18q0 14 -14 14q-6 0 -10 -4.5t-4 -9.5zM45 215v-120h15q6 0 10.5 4.5
t4.5 10.5v105h95v-85q0 -130 -116 -130h-19q-16 0 -35 15q-19 -15 -35 -15h-20q-115 0 -115 130v85h95v-105q0 -6 4.5 -10.5t10.5 -4.5h15v120h90z" />
    <glyph glyph-name=".shdd.en" unicode="&#xfc5f;" arabic-form="isolated" 
d="M50 555v-120h15q6 0 10.5 4.5t4.5 10.5v105h95v-85q0 -130 -116 -130h-19q-16 0 -35 15q-19 -15 -35 -15h-20q-115 0 -115 130v85h95v-105q0 -6 4.5 -10.5t10.5 -4.5h15v120h90zM-120 105l255 110l45 -106l-255 -109zM-175 235l255 110l45 -106l-255 -109z" />
    <glyph glyph-name=".shdd.a" unicode="&#xfc60;" arabic-form="isolated" 
d="M-145 320l255 110l45 -106l-255 -109zM45 215v-120h15q6 0 10.5 4.5t4.5 10.5v105h95v-85q0 -130 -116 -130h-19q-16 0 -35 15q-19 -15 -35 -15h-20q-115 0 -115 130v85h95v-105q0 -6 4.5 -10.5t10.5 -4.5h15v120h90z" />
    <glyph glyph-name=".shdd.o" unicode="&#xfc61;" arabic-form="isolated" 
d="M-105 215l-45 105l95 40q-15 22 -15 50q0 42 32.5 73.5t77.5 31.5q47 0 78.5 -33t31.5 -82q0 -78 -90 -115zM26 399q0 -12 14 -18q14 6 14 18q0 14 -14 14q-6 0 -10 -4.5t-4 -9.5zM45 215v-120h15q6 0 10.5 4.5t4.5 10.5v105h95v-85q0 -130 -116 -130h-19q-16 0 -35 15
q-19 -15 -35 -15h-20q-115 0 -115 130v85h95v-105q0 -6 4.5 -10.5t10.5 -4.5h15v120h90z" />
    <glyph glyph-name=".shdd.e" unicode="&#xfc62;" arabic-form="isolated" 
d="M45 425v-120h15q6 0 10.5 4.5t4.5 10.5v105h95v-85q0 -130 -116 -130h-19q-16 0 -35 15q-19 -15 -35 -15h-20q-115 0 -115 130v85h95v-105q0 -6 4.5 -10.5t10.5 -4.5h15v120h90zM-145 105l255 110l45 -106l-255 -109z" />
    <glyph glyph-name=".shdd.aa" unicode="&#xfc63;" arabic-form="isolated" 
d="M45 215v-120h15q6 0 10.5 4.5t4.5 10.5v105h95v-85q0 -130 -116 -130h-19q-16 0 -35 15q-19 -15 -35 -15h-20q-115 0 -115 130v85h95v-105q0 -6 4.5 -10.5t10.5 -4.5h15v120h90zM-50 245v210h100v-210h-100z" />
    <glyph glyph-name="rial" unicode="&#xfdfc;" horiz-adv-x="1315" arabic-form="isolated" 
d="M1290 325v-285q0 -104 -66 -177t-169 -73h-100l-15 175h95q90 0 90 70v290h165zM825 175h55q6 0 10.5 4.5t4.5 10.5v135h165v-150q0 -84 -45.5 -129.5t-119.5 -45.5h-70q-8 0 -12 4.5t-6 22.5t-2 58q0 42 2 61.5t6 24t12 4.5zM869 -60v-125h-260v125h260zM790 175h35
q8 0 12 -4.5t6 -22.5t2 -58q0 -42 -2 -61.5t-6 -24t-12 -4.5h-45q-88 0 -129 48.5t-41 126.5v380h165v-365q0 -6 4.5 -10.5t10.5 -4.5zM310 -200h-45q-112 0 -176 67t-64 183v190h165v-195q0 -70 85 -70h30q90 0 90 70v510h165v-500q0 -108 -68.5 -181.5t-181.5 -73.5z" />
    <glyph glyph-name="alef.aa.fina" unicode="&#x622;" horiz-adv-x="245" arabic-form="final" 
d="M210 175h35q8 0 12 -4.5t6 -22.5t2 -58q0 -42 -2 -61.5t-6 -24t-12 -4.5h-45q-88 0 -129 48.5t-41 126.5v280h165v-265q0 -6 4.5 -10.5t10.5 -4.5zM245 505h-190q-24 0 -33 -17l-32 -63l-105 55l35 75q24 52 50 68.5t85 16.5h190v-135z" />
    <glyph glyph-name="alef.thmz.fina" unicode="&#x623;" horiz-adv-x="245" arabic-form="final" 
d="M210 175h35q8 0 12 -4.5t6 -22.5t2 -58q0 -42 -2 -61.5t-6 -24t-12 -4.5h-45q-88 0 -129 48.5t-41 126.5v280h165v-265q0 -6 4.5 -10.5t10.5 -4.5zM30 455l-45 90l46 25q-36 29 -36 80q0 41 27 73t73 32h80l-15 -100h-45q-25 0 -25 -20q0 -8 5.5 -14t12.5 -6q18 0 87 37
l40 -92z" />
    <glyph glyph-name="vav.thmz.fina" unicode="&#x624;" horiz-adv-x="455" arabic-form="final" 
d="M405 175h50q8 0 12 -4.5t6 -22.5t2 -58q0 -42 -2 -61.5t-6 -24t-12 -4.5h-51q-5 -108 -67.5 -166.5t-161.5 -58.5h-135l-10 175h155q30 0 42.5 11.5t12.5 38.5h-15q-106 0 -145.5 45t-39.5 135q0 82 48.5 138.5t131.5 56.5q82 0 133.5 -49t51.5 -151zM195 191
q0 -16 6 -23.5t24 -7.5h25v25q0 35 -28 35q-27 0 -27 -29zM130 380l-45 90l46 25q-36 29 -36 80q0 41 27 73t73 32h80l-15 -100h-45q-25 0 -25 -20q0 -8 5.5 -14t12.5 -6q18 0 87 37l40 -92z" />
    <glyph glyph-name="alef.bhmz.fina" unicode="&#x625;" horiz-adv-x="245" arabic-form="final" 
d="M210 175h35q8 0 12 -4.5t6 -22.5t2 -58q0 -42 -2 -61.5t-6 -24t-12 -4.5h-45q-88 0 -129 48.5t-41 126.5v380h165v-365q0 -6 4.5 -10.5t10.5 -4.5zM60 -350l-45 90l46 25q-36 29 -36 80q0 41 27 73t73 32h80l-15 -100h-45q-25 0 -25 -20q0 -8 5.5 -14t12.5 -6q18 0 87 37
l40 -92z" />
    <glyph glyph-name="ye.thmz.fina" unicode="&#x626;" horiz-adv-x="620" arabic-form="final" 
d="M405 15h-150l15 160h350q8 0 12 -4.5t6 -22.5t2 -58q0 -42 -2 -61.5t-6 -24t-12 -4.5h-41q-7 -90 -73.5 -145t-175.5 -55h-65q-112 0 -176 67t-64 183v190h165v-195q0 -70 85 -70h80q65 0 65 25q0 15 -15 15zM243 191l-45 90l46 25q-36 29 -36 80q0 41 27 73t73 32h80
l-15 -100h-45q-25 0 -25 -20q0 -8 5.5 -14t12.5 -6q18 0 87 37l40 -92z" />
    <glyph glyph-name="ye.thmz.init" unicode="&#x626;" horiz-adv-x="260" arabic-form="initial" 
d="M0 175h55q6 0 10.5 4.5t4.5 10.5v135h165v-150q0 -84 -45.5 -129.5t-119.5 -45.5h-70q-8 0 -12 4.5t-6 22.5t-2 58q0 42 2 61.5t6 24t12 4.5zM50 325l-45 90l46 25q-36 29 -36 80q0 41 27 73t73 32h80l-15 -100h-45q-25 0 -25 -20q0 -8 5.5 -14t12.5 -6q18 0 87 37
l40 -92z" />
    <glyph glyph-name="ye.thmz.medi" unicode="&#x626;" horiz-adv-x="265" arabic-form="medial" 
d="M0 175h35q6 0 10.5 4.5t4.5 10.5v135h165v-135q0 -6 4.5 -10.5t10.5 -4.5h35q8 0 12 -4.5t6 -22.5t2 -58q0 -42 -2 -61.5t-6 -24t-12 -4.5h-29q-71 0 -101 30q-36 -30 -85 -30h-50q-8 0 -12 4.5t-6 22.5t-2 58q0 42 2 61.5t6 24t12 4.5zM50 325l-45 90l46 25
q-36 29 -36 80q0 41 27 73t73 32h80l-15 -100h-45q-25 0 -25 -20q0 -8 5.5 -14t12.5 -6q18 0 87 37l40 -92z" />
    <glyph glyph-name="alef.fina" unicode="&#x627;" horiz-adv-x="245" arabic-form="final" 
d="M210 175h35q8 0 12 -4.5t6 -22.5t2 -58q0 -42 -2 -61.5t-6 -24t-12 -4.5h-45q-88 0 -129 48.5t-41 126.5v380h165v-365q0 -6 4.5 -10.5t10.5 -4.5z" />
    <glyph glyph-name="be.fina" unicode="&#x628;" horiz-adv-x="665" arabic-form="final" 
d="M450 0h-255q-88 0 -129 48.5t-41 126.5v150h165v-135q0 -6 4.5 -10.5t10.5 -4.5h230q6 0 10.5 4.5t4.5 10.5v135h165v-135q0 -6 4.5 -10.5t10.5 -4.5h35q8 0 12 -4.5t6 -22.5t2 -58q0 -42 -2 -61.5t-6 -24t-12 -4.5h-29q-71 0 -101 30q-36 -30 -85 -30zM400 -50v-125
h-165v125h165z" />
    <glyph glyph-name="be.init" unicode="&#x628;" horiz-adv-x="260" arabic-form="initial" 
d="M0 175h55q6 0 10.5 4.5t4.5 10.5v135h165v-150q0 -84 -45.5 -129.5t-119.5 -45.5h-70q-8 0 -12 4.5t-6 22.5t-2 58q0 42 2 61.5t6 24t12 4.5zM205 -50v-125h-165v125h165z" />
    <glyph glyph-name="be.medi" unicode="&#x628;" horiz-adv-x="265" arabic-form="medial" 
d="M0 175h35q6 0 10.5 4.5t4.5 10.5v135h165v-135q0 -6 4.5 -10.5t10.5 -4.5h35q8 0 12 -4.5t6 -22.5t2 -58q0 -42 -2 -61.5t-6 -24t-12 -4.5h-29q-71 0 -101 30q-36 -30 -85 -30h-50q-8 0 -12 4.5t-6 22.5t-2 58q0 42 2 61.5t6 24t12 4.5zM220 -50v-125h-165v125h165z" />
    <glyph glyph-name="te.marbuta.fina" unicode="&#x629;" horiz-adv-x="440" arabic-form="final" 
d="M390 465v-275q0 -6 4.5 -10.5t10.5 -4.5h35q8 0 12 -4.5t6 -22.5t2 -58q0 -42 -2 -61.5t-6 -24t-12 -4.5h-40q-84 0 -110 65q-36 -30 -105 -30q-74 0 -117 44.5t-43 135.5q0 76 49 135.5t126 59.5h25v55h165zM180 220q0 -25 25 -25q30 0 30 25v30h-25q-30 0 -30 -30z
M380 640v-125h-260v125h260z" />
    <glyph glyph-name="te.fina" unicode="&#x62a;" horiz-adv-x="665" arabic-form="final" 
d="M450 0h-255q-88 0 -129 48.5t-41 126.5v150h165v-135q0 -6 4.5 -10.5t10.5 -4.5h230q6 0 10.5 4.5t4.5 10.5v135h165v-135q0 -6 4.5 -10.5t10.5 -4.5h35q8 0 12 -4.5t6 -22.5t2 -58q0 -42 -2 -61.5t-6 -24t-12 -4.5h-29q-71 0 -101 30q-36 -30 -85 -30zM450 500v-125
h-260v125h260z" />
    <glyph glyph-name="te.init" unicode="&#x62a;" horiz-adv-x="260" arabic-form="initial" 
d="M0 175h55q6 0 10.5 4.5t4.5 10.5v135h165v-150q0 -84 -45.5 -129.5t-119.5 -45.5h-70q-8 0 -12 4.5t-6 22.5t-2 58q0 42 2 61.5t6 24t12 4.5zM260 500v-125h-260v125h260z" />
    <glyph glyph-name="te.medi" unicode="&#x62a;" horiz-adv-x="265" arabic-form="medial" 
d="M0 175h35q6 0 10.5 4.5t4.5 10.5v135h165v-135q0 -6 4.5 -10.5t10.5 -4.5h35q8 0 12 -4.5t6 -22.5t2 -58q0 -42 -2 -61.5t-6 -24t-12 -4.5h-29q-71 0 -101 30q-36 -30 -85 -30h-50q-8 0 -12 4.5t-6 22.5t-2 58q0 42 2 61.5t6 24t12 4.5zM260 500v-125h-260v125h260z" />
    <glyph glyph-name="the.fina" unicode="&#x62b;" horiz-adv-x="665" arabic-form="final" 
d="M450 0h-255q-88 0 -129 48.5t-41 126.5v150h165v-135q0 -6 4.5 -10.5t10.5 -4.5h230q6 0 10.5 4.5t4.5 10.5v135h165v-135q0 -6 4.5 -10.5t10.5 -4.5h35q8 0 12 -4.5t6 -22.5t2 -58q0 -42 -2 -61.5t-6 -24t-12 -4.5h-29q-71 0 -101 30q-36 -30 -85 -30zM385 650v-125
h-130v125h130zM450 500v-125h-260v125h260z" />
    <glyph glyph-name="the.init" unicode="&#x62b;" horiz-adv-x="260" arabic-form="initial" 
d="M0 175h55q6 0 10.5 4.5t4.5 10.5v135h165v-150q0 -84 -45.5 -129.5t-119.5 -45.5h-70q-8 0 -12 4.5t-6 22.5t-2 58q0 42 2 61.5t6 24t12 4.5zM195 650v-125h-130v125h130zM260 500v-125h-260v125h260z" />
    <glyph glyph-name="the.medi" unicode="&#x62b;" horiz-adv-x="265" arabic-form="medial" 
d="M0 175h35q6 0 10.5 4.5t4.5 10.5v135h165v-135q0 -6 4.5 -10.5t10.5 -4.5h35q8 0 12 -4.5t6 -22.5t2 -58q0 -42 -2 -61.5t-6 -24t-12 -4.5h-29q-71 0 -101 30q-36 -30 -85 -30h-50q-8 0 -12 4.5t-6 22.5t-2 58q0 42 2 61.5t6 24t12 4.5zM195 650v-125h-130v125h130z
M260 500v-125h-260v125h260z" />
    <glyph glyph-name="jim.fina" unicode="&#x62c;" horiz-adv-x="520" arabic-form="final" 
d="M470 210l-47 -35h97q8 0 12 -4.5t6 -22.5t2 -58q0 -42 -2 -61.5t-6 -24t-12 -4.5h-75q-85 0 -133 69l-17 -9q-105 -60 -105 -115q0 -65 85 -65h200l-13 -175h-192q-130 0 -187.5 60.5t-57.5 159.5q0 85 54.5 149t200.5 141q-7 20 -30 20h-195l15 165h225q60 0 100 -37.5
t75 -152.5zM359 0v-88h-115v88h115z" />
    <glyph glyph-name="jim.init" unicode="&#x62c;" horiz-adv-x="495" arabic-form="initial" 
d="M0 175h70q39 0 61.5 1.5t62 10.5t81.5 28q-7 20 -30 20h-195l15 165h225q30 0 52 -7.5t47 -30.5t46.5 -72t39.5 -125l-185 -105q-61 -34 -108 -47t-117 -13h-65q-8 0 -12 4.5t-6 22.5t-2 58q0 42 2 61.5t6 24t12 4.5zM300 -50v-125h-165v125h165z" />
    <glyph glyph-name="jim.medi" unicode="&#x62c;" horiz-adv-x="515" arabic-form="medial" 
d="M245 235h-195l15 165h225q60 0 100 -38t73 -152l-45 -35h97q8 0 12 -4.5t6 -22.5t2 -58q0 -42 -2 -61.5t-6 -24t-12 -4.5h-75q-85 0 -133 69l-17 -9q-61 -34 -108 -47t-117 -13h-65q-8 0 -12 4.5t-6 22.5t-2 58q0 42 2 61.5t6 24t12 4.5h70q39 0 61.5 1.5t62 10.5
t81.5 28q-7 20 -30 20zM300 -50v-125h-165v125h165z" />
    <glyph glyph-name="him.fina" unicode="&#x62d;" horiz-adv-x="520" arabic-form="final" 
d="M470 210l-47 -35h97q8 0 12 -4.5t6 -22.5t2 -58q0 -42 -2 -61.5t-6 -24t-12 -4.5h-75q-85 0 -133 69l-17 -9q-105 -60 -105 -115q0 -65 85 -65h200l-13 -175h-192q-130 0 -187.5 60.5t-57.5 159.5q0 85 54.5 149t200.5 141q-7 20 -30 20h-195l15 165h225q60 0 100 -37.5
t75 -152.5z" />
    <glyph glyph-name="him.init" unicode="&#x62d;" horiz-adv-x="495" arabic-form="initial" 
d="M0 175h70q39 0 61.5 1.5t62 10.5t81.5 28q-7 20 -30 20h-195l15 165h225q30 0 52 -7.5t47 -30.5t46.5 -72t39.5 -125l-185 -105q-61 -34 -108 -47t-117 -13h-65q-8 0 -12 4.5t-6 22.5t-2 58q0 42 2 61.5t6 24t12 4.5z" />
    <glyph glyph-name="him.medi" unicode="&#x62d;" horiz-adv-x="515" arabic-form="medial" 
d="M245 235h-195l15 165h225q60 0 100 -38t73 -152l-45 -35h97q8 0 12 -4.5t6 -22.5t2 -58q0 -42 -2 -61.5t-6 -24t-12 -4.5h-75q-85 0 -133 69l-17 -9q-61 -34 -108 -47t-117 -13h-65q-8 0 -12 4.5t-6 22.5t-2 58q0 42 2 61.5t6 24t12 4.5h70q39 0 61.5 1.5t62 10.5
t81.5 28q-7 20 -30 20z" />
    <glyph glyph-name="khe.fina" unicode="&#x62e;" horiz-adv-x="520" arabic-form="final" 
d="M470 210l-47 -35h97q8 0 12 -4.5t6 -22.5t2 -58q0 -42 -2 -61.5t-6 -24t-12 -4.5h-75q-85 0 -133 69l-17 -9q-105 -60 -105 -115q0 -65 85 -65h200l-13 -175h-192q-130 0 -187.5 60.5t-57.5 159.5q0 85 54.5 149t200.5 141q-7 20 -30 20h-195l15 165h225q60 0 100 -37.5
t75 -152.5zM315 580v-125h-165v125h165z" />
    <glyph glyph-name="khe.init" unicode="&#x62e;" horiz-adv-x="495" arabic-form="initial" 
d="M0 175h70q39 0 61.5 1.5t62 10.5t81.5 28q-7 20 -30 20h-195l15 165h225q30 0 52 -7.5t47 -30.5t46.5 -72t39.5 -125l-185 -105q-61 -34 -108 -47t-117 -13h-65q-8 0 -12 4.5t-6 22.5t-2 58q0 42 2 61.5t6 24t12 4.5zM315 580v-125h-165v125h165z" />
    <glyph glyph-name="khe.medi" unicode="&#x62e;" horiz-adv-x="515" arabic-form="medial" 
d="M245 235h-195l15 165h225q60 0 100 -38t73 -152l-45 -35h97q8 0 12 -4.5t6 -22.5t2 -58q0 -42 -2 -61.5t-6 -24t-12 -4.5h-75q-85 0 -133 69l-17 -9q-61 -34 -108 -47t-117 -13h-65q-8 0 -12 4.5t-6 22.5t-2 58q0 42 2 61.5t6 24t12 4.5h70q39 0 61.5 1.5t62 10.5
t81.5 28q-7 20 -30 20zM315 580v-125h-165v125h165z" />
    <glyph glyph-name="dal.fina" unicode="&#x62f;" horiz-adv-x="475" arabic-form="final" 
d="M245 185q0 5 -10 30l-75 195l155 70l110 -290q6 -15 20 -15h30q8 0 12 -4.5t6 -22.5t2 -58q0 -42 -2 -61.5t-6 -24t-12 -4.5h-45q-60 0 -90 30q-36 -30 -75 -30h-230l-15 175h213q12 0 12 10z" />
    <glyph glyph-name="zal.fina" unicode="&#x630;" horiz-adv-x="475" arabic-form="final" 
d="M245 185q0 5 -10 30l-75 195l155 70l110 -290q6 -15 20 -15h30q8 0 12 -4.5t6 -22.5t2 -58q0 -42 -2 -61.5t-6 -24t-12 -4.5h-45q-60 0 -90 30q-36 -30 -75 -30h-230l-15 175h213q12 0 12 10zM350 645v-125h-165v125h165z" />
    <glyph glyph-name="re.fina" unicode="&#x631;" horiz-adv-x="255" arabic-form="final" 
d="M205 325v-137q0 -13 15 -13h35q8 0 12 -4.5t6 -22.5t2 -58q0 -42 -2 -61.5t-6 -24t-12 -4.5h-15q-22 0 -38 3q-12 -91 -75.5 -152t-156.5 -61h-100l-15 175h95q90 0 90 70v290h165z" />
    <glyph glyph-name="ze.fina" unicode="&#x632;" horiz-adv-x="255" arabic-form="final" 
d="M205 325v-137q0 -13 15 -13h35q8 0 12 -4.5t6 -22.5t2 -58q0 -42 -2 -61.5t-6 -24t-12 -4.5h-15q-22 0 -38 3q-12 -91 -75.5 -152t-156.5 -61h-100l-15 175h95q90 0 90 70v290h165zM205 500v-125h-165v125h165z" />
    <glyph glyph-name="sin.fina" unicode="&#x633;" horiz-adv-x="985" arabic-form="final" 
d="M395 325h160v-135q0 -6 4.5 -10.5t10.5 -4.5t10.5 4.5t4.5 10.5v135h160v-135q0 -6 4.5 -10.5t10.5 -4.5t10.5 4.5t4.5 10.5v135h160v-135q0 -6 4.5 -10.5t10.5 -4.5h35q8 0 12 -4.5t6 -22.5t2 -58q0 -42 -2 -61.5t-6 -24t-12 -4.5h-29q-66 0 -96 30q-36 -30 -100 -30
q-60 0 -90 30q-36 -30 -75 -30q-43 0 -65 15l25 40q0 -109 -66 -182t-179 -73h-45q-112 0 -176 67t-64 183v190h165v-195q0 -70 85 -70h30q90 0 90 70v280z" />
    <glyph glyph-name="sin.init" unicode="&#x633;" horiz-adv-x="615" arabic-form="initial" 
d="M0 175h35q6 0 10.5 4.5t4.5 10.5v135h160v-135q0 -6 4.5 -10.5t10.5 -4.5t10.5 4.5t4.5 10.5v135h160v-135q0 -6 4.5 -10.5t10.5 -4.5t10.5 4.5t4.5 10.5v135h160v-150q0 -85 -51 -130t-124 -45q-60 0 -90 30q-36 -30 -75 -30h-25q-60 0 -90 30q-36 -30 -75 -30h-60
q-8 0 -12 4.5t-6 22.5t-2 58q0 42 2 61.5t6 24t12 4.5z" />
    <glyph glyph-name="sin.medi" unicode="&#x633;" horiz-adv-x="640" arabic-form="medial" 
d="M0 175h35q6 0 10.5 4.5t4.5 10.5v135h160v-135q0 -6 4.5 -10.5t10.5 -4.5t10.5 4.5t4.5 10.5v135h160v-135q0 -6 4.5 -10.5t10.5 -4.5t10.5 4.5t4.5 10.5v135h160v-135q0 -6 4.5 -10.5t10.5 -4.5h35q8 0 12 -4.5t6 -22.5t2 -58q0 -42 -2 -61.5t-6 -24t-12 -4.5h-29
q-66 0 -96 30q-36 -30 -100 -30q-60 0 -90 30q-36 -30 -75 -30h-25q-60 0 -90 30q-36 -30 -75 -30h-60q-8 0 -12 4.5t-6 22.5t-2 58q0 42 2 61.5t6 24t12 4.5z" />
    <glyph glyph-name="shin.fina" unicode="&#x634;" horiz-adv-x="985" arabic-form="final" 
d="M395 325h160v-135q0 -6 4.5 -10.5t10.5 -4.5t10.5 4.5t4.5 10.5v135h160v-135q0 -6 4.5 -10.5t10.5 -4.5t10.5 4.5t4.5 10.5v135h160v-135q0 -6 4.5 -10.5t10.5 -4.5h35q8 0 12 -4.5t6 -22.5t2 -58q0 -42 -2 -61.5t-6 -24t-12 -4.5h-29q-66 0 -96 30q-36 -30 -100 -30
q-60 0 -90 30q-36 -30 -75 -30q-43 0 -65 15l25 40q0 -109 -66 -182t-179 -73h-45q-112 0 -176 67t-64 183v190h165v-195q0 -70 85 -70h30q90 0 90 70v280zM725 650v-125h-130v125h130zM790 500v-125h-260v125h260z" />
    <glyph glyph-name="shin.init" unicode="&#x634;" horiz-adv-x="615" arabic-form="initial" 
d="M0 175h35q6 0 10.5 4.5t4.5 10.5v135h160v-135q0 -6 4.5 -10.5t10.5 -4.5t10.5 4.5t4.5 10.5v135h160v-135q0 -6 4.5 -10.5t10.5 -4.5t10.5 4.5t4.5 10.5v135h160v-150q0 -85 -51 -130t-124 -45q-60 0 -90 30q-36 -30 -75 -30h-25q-60 0 -90 30q-36 -30 -75 -30h-60
q-8 0 -12 4.5t-6 22.5t-2 58q0 42 2 61.5t6 24t12 4.5zM375 650v-125h-130v125h130zM440 500v-125h-260v125h260z" />
    <glyph glyph-name="shin.medi" unicode="&#x634;" horiz-adv-x="640" arabic-form="medial" 
d="M0 175h35q6 0 10.5 4.5t4.5 10.5v135h160v-135q0 -6 4.5 -10.5t10.5 -4.5t10.5 4.5t4.5 10.5v135h160v-135q0 -6 4.5 -10.5t10.5 -4.5t10.5 4.5t4.5 10.5v135h160v-135q0 -6 4.5 -10.5t10.5 -4.5h35q8 0 12 -4.5t6 -22.5t2 -58q0 -42 -2 -61.5t-6 -24t-12 -4.5h-29
q-66 0 -96 30q-36 -30 -100 -30q-60 0 -90 30q-36 -30 -75 -30h-25q-60 0 -90 30q-36 -30 -75 -30h-60q-8 0 -12 4.5t-6 22.5t-2 58q0 42 2 61.5t6 24t12 4.5zM375 650v-125h-130v125h130zM440 500v-125h-260v125h260z" />
    <glyph glyph-name="sad.fina" unicode="&#x635;" horiz-adv-x="1020" arabic-form="final" 
d="M560 325v-105q114 170 240 170q75 0 122.5 -53.5t47.5 -136.5q0 -15 -1 -22q6 -3 31 -3h20q8 0 12 -4.5t6 -22.5t2 -58q0 -42 -2 -61.5t-6 -24t-12 -4.5h-20q-68 0 -112 32q-48 -32 -118 -32h-175q-22 0 -44 5q-15 -90 -78.5 -147.5t-162.5 -57.5h-45q-112 0 -176 67
t-64 183v190h165v-195q0 -70 85 -70h30q90 0 90 70v280h165zM700 170h80q14 0 22 8.5t8 19.5q0 10 -8 18.5t-20 8.5q-19 0 -82 -55z" />
    <glyph glyph-name="sad.init" unicode="&#x635;" horiz-adv-x="650" arabic-form="initial" 
d="M0 175h35q6 0 10.5 4.5t4.5 10.5v135h165v-105q114 170 240 170q75 0 122.5 -53.5t47.5 -136.5t-51 -141.5t-149 -58.5h-200q-70 0 -100 30q-36 -30 -85 -30h-40q-8 0 -12 4.5t-6 22.5t-2 58q0 42 2 61.5t6 24t12 4.5zM355 170h80q14 0 22 8.5t8 19.5q0 10 -8 18.5
t-20 8.5q-19 0 -82 -55z" />
    <glyph glyph-name="sad.medi" unicode="&#x635;" horiz-adv-x="675" arabic-form="medial" 
d="M0 175h35q6 0 10.5 4.5t4.5 10.5v135h165v-105q114 170 240 170q75 0 122.5 -53.5t47.5 -136.5q0 -15 -1 -22q6 -3 31 -3h20q8 0 12 -4.5t6 -22.5t2 -58q0 -42 -2 -61.5t-6 -24t-12 -4.5h-20q-68 0 -112 32q-48 -32 -118 -32h-200q-70 0 -100 30q-36 -30 -85 -30h-40
q-8 0 -12 4.5t-6 22.5t-2 58q0 42 2 61.5t6 24t12 4.5zM355 170h80q14 0 22 8.5t8 19.5q0 10 -8 18.5t-20 8.5q-19 0 -82 -55z" />
    <glyph glyph-name="zad.fina" unicode="&#x636;" horiz-adv-x="1020" arabic-form="final" 
d="M560 325v-105q114 170 240 170q75 0 122.5 -53.5t47.5 -136.5q0 -15 -1 -22q6 -3 31 -3h20q8 0 12 -4.5t6 -22.5t2 -58q0 -42 -2 -61.5t-6 -24t-12 -4.5h-20q-68 0 -112 32q-48 -32 -118 -32h-175q-22 0 -44 5q-15 -90 -78.5 -147.5t-162.5 -57.5h-45q-112 0 -176 67
t-64 183v190h165v-195q0 -70 85 -70h30q90 0 90 70v280h165zM700 170h80q14 0 22 8.5t8 19.5q0 10 -8 18.5t-20 8.5q-19 0 -82 -55zM860 565v-125h-165v125h165z" />
    <glyph glyph-name="zad.init" unicode="&#x636;" horiz-adv-x="650" arabic-form="initial" 
d="M0 175h35q6 0 10.5 4.5t4.5 10.5v135h165v-105q114 170 240 170q75 0 122.5 -53.5t47.5 -136.5t-51 -141.5t-149 -58.5h-200q-70 0 -100 30q-36 -30 -85 -30h-40q-8 0 -12 4.5t-6 22.5t-2 58q0 42 2 61.5t6 24t12 4.5zM355 170h80q14 0 22 8.5t8 19.5q0 10 -8 18.5
t-20 8.5q-19 0 -82 -55zM515 565v-125h-165v125h165z" />
    <glyph glyph-name="zad.medi" unicode="&#x636;" horiz-adv-x="675" arabic-form="medial" 
d="M0 175h35q6 0 10.5 4.5t4.5 10.5v135h165v-105q114 170 240 170q75 0 122.5 -53.5t47.5 -136.5q0 -15 -1 -22q6 -3 31 -3h20q8 0 12 -4.5t6 -22.5t2 -58q0 -42 -2 -61.5t-6 -24t-12 -4.5h-20q-68 0 -112 32q-48 -32 -118 -32h-200q-70 0 -100 30q-36 -30 -85 -30h-40
q-8 0 -12 4.5t-6 22.5t-2 58q0 42 2 61.5t6 24t12 4.5zM355 170h80q14 0 22 8.5t8 19.5q0 10 -8 18.5t-20 8.5q-19 0 -82 -55zM515 565v-125h-165v125h165z" />
    <glyph glyph-name="ta.fina" unicode="&#x637;" horiz-adv-x="550" arabic-form="final" 
d="M235 555v-199q41 34 95 34q75 0 122.5 -53.5t47.5 -136.5q0 -15 -1 -22q6 -3 31 -3h20q8 0 12 -4.5t6 -22.5t2 -58q0 -42 -2 -61.5t-6 -24t-12 -4.5h-20q-68 0 -112 32q-48 -32 -118 -32h-265l-15 175h50v380h165zM230 170h80q14 0 22 8.5t8 19.5q0 10 -8 18.5t-20 8.5
q-19 0 -82 -55z" />
    <glyph glyph-name="ta.init" unicode="&#x637;" horiz-adv-x="505" arabic-form="initial" 
d="M0 175h50v380h165v-199q41 34 95 34q75 0 122.5 -53.5t47.5 -136.5t-51 -141.5t-149 -58.5h-280q-8 0 -12 4.5t-6 22.5t-2 58q0 42 2 61.5t6 24t12 4.5zM210 170h80q14 0 22 8.5t8 19.5q0 10 -8 18.5t-20 8.5q-19 0 -82 -55z" />
    <glyph glyph-name="ta.medi" unicode="&#x637;" horiz-adv-x="530" arabic-form="medial" 
d="M0 175h50v380h165v-199q41 34 95 34q75 0 122.5 -53.5t47.5 -136.5q0 -15 -1 -22q6 -3 31 -3h20q8 0 12 -4.5t6 -22.5t2 -58q0 -42 -2 -61.5t-6 -24t-12 -4.5h-20q-68 0 -112 32q-48 -32 -118 -32h-280q-8 0 -12 4.5t-6 22.5t-2 58q0 42 2 61.5t6 24t12 4.5zM210 170h80
q14 0 22 8.5t8 19.5q0 10 -8 18.5t-20 8.5q-19 0 -82 -55z" />
    <glyph glyph-name="za.fina" unicode="&#x638;" horiz-adv-x="550" arabic-form="final" 
d="M235 555v-199q41 34 95 34q75 0 122.5 -53.5t47.5 -136.5q0 -15 -1 -22q6 -3 31 -3h20q8 0 12 -4.5t6 -22.5t2 -58q0 -42 -2 -61.5t-6 -24t-12 -4.5h-20q-68 0 -112 32q-48 -32 -118 -32h-265l-15 175h50v380h165zM230 170h80q14 0 22 8.5t8 19.5q0 10 -8 18.5t-20 8.5
q-19 0 -82 -55zM455 565v-125h-165v125h165z" />
    <glyph glyph-name="za.init" unicode="&#x638;" horiz-adv-x="505" arabic-form="initial" 
d="M0 175h50v380h165v-199q41 34 95 34q75 0 122.5 -53.5t47.5 -136.5t-51 -141.5t-149 -58.5h-280q-8 0 -12 4.5t-6 22.5t-2 58q0 42 2 61.5t6 24t12 4.5zM210 170h80q14 0 22 8.5t8 19.5q0 10 -8 18.5t-20 8.5q-19 0 -82 -55zM435 565v-125h-165v125h165z" />
    <glyph glyph-name="za.medi" unicode="&#x638;" horiz-adv-x="530" arabic-form="medial" 
d="M0 175h50v380h165v-199q41 34 95 34q75 0 122.5 -53.5t47.5 -136.5q0 -15 -1 -22q6 -3 31 -3h20q8 0 12 -4.5t6 -22.5t2 -58q0 -42 -2 -61.5t-6 -24t-12 -4.5h-20q-68 0 -112 32q-48 -32 -118 -32h-280q-8 0 -12 4.5t-6 22.5t-2 58q0 42 2 61.5t6 24t12 4.5zM210 170h80
q14 0 22 8.5t8 19.5q0 10 -8 18.5t-20 8.5q-19 0 -82 -55zM435 565v-125h-165v125h165z" />
    <glyph glyph-name="ein.fina" unicode="&#x639;" horiz-adv-x="510" arabic-form="final" 
d="M125 140l-85 125l70 130h205q69 0 107 -32t38 -83q0 -31 -9.5 -53t-30.5 -52h90q8 0 12 -4.5t6 -22.5t2 -58q0 -42 -2 -61.5t-6 -24t-12 -4.5h-100q-39 0 -59.5 1t-48.5 8t-47 21q-65 -41 -65 -90q0 -60 85 -60h175l-13 -175h-167q-245 0 -245 230q0 112 100 205z
M310 221q0 14 -20 14h-75l50 -60q5 4 12 9.5t10.5 8.5t8 7t6.5 6.5l4 5t3 5t1 4.5z" />
    <glyph glyph-name="ein.init" unicode="&#x639;" horiz-adv-x="415" arabic-form="initial" 
d="M0 175h52q-2 8 -2 25q0 81 47.5 135.5t128.5 54.5q67 0 144 -45l-50 -140q-60 20 -85 20q-12 0 -21 -7.5t-9 -19.5q0 -23 25 -23h160l-15 -175h-375q-8 0 -12 4.5t-6 22.5t-2 58q0 42 2 61.5t6 24t12 4.5z" />
    <glyph glyph-name="ein.medi" unicode="&#x639;" horiz-adv-x="510" arabic-form="medial" 
d="M0 175h100l-60 90l70 130h205q69 0 107 -32t38 -83q0 -31 -9.5 -53t-30.5 -52h90q8 0 12 -4.5t6 -22.5t2 -58q0 -42 -2 -61.5t-6 -24t-12 -4.5h-100q-39 0 -59.5 1t-48.5 8t-47 21q-50 -30 -165 -30h-90q-8 0 -12 4.5t-6 22.5t-2 58q0 42 2 61.5t6 24t12 4.5zM310 221
q0 14 -20 14h-75l50 -60q5 4 12 9.5t10.5 8.5t8 7t6.5 6.5l4 5t3 5t1 4.5z" />
    <glyph glyph-name="qein.fina" unicode="&#x63a;" horiz-adv-x="510" arabic-form="final" 
d="M125 140l-85 125l70 130h205q69 0 107 -32t38 -83q0 -31 -9.5 -53t-30.5 -52h90q8 0 12 -4.5t6 -22.5t2 -58q0 -42 -2 -61.5t-6 -24t-12 -4.5h-100q-39 0 -59.5 1t-48.5 8t-47 21q-65 -41 -65 -90q0 -60 85 -60h175l-13 -175h-167q-245 0 -245 230q0 112 100 205z
M310 221q0 14 -20 14h-75l50 -60q5 4 12 9.5t10.5 8.5t8 7t6.5 6.5l4 5t3 5t1 4.5zM350 570v-125h-165v125h165z" />
    <glyph glyph-name="qein.init" unicode="&#x63a;" horiz-adv-x="415" arabic-form="initial" 
d="M0 175h52q-2 8 -2 25q0 81 47.5 135.5t128.5 54.5q67 0 144 -45l-50 -140q-60 20 -85 20q-12 0 -21 -7.5t-9 -19.5q0 -23 25 -23h160l-15 -175h-375q-8 0 -12 4.5t-6 22.5t-2 58q0 42 2 61.5t6 24t12 4.5zM305 565v-125h-165v125h165z" />
    <glyph glyph-name="qein.medi" unicode="&#x63a;" horiz-adv-x="510" arabic-form="medial" 
d="M0 175h100l-60 90l70 130h205q69 0 107 -32t38 -83q0 -31 -9.5 -53t-30.5 -52h90q8 0 12 -4.5t6 -22.5t2 -58q0 -42 -2 -61.5t-6 -24t-12 -4.5h-100q-39 0 -59.5 1t-48.5 8t-47 21q-50 -30 -165 -30h-90q-8 0 -12 4.5t-6 22.5t-2 58q0 42 2 61.5t6 24t12 4.5zM310 221
q0 14 -20 14h-75l50 -60q5 4 12 9.5t10.5 8.5t8 7t6.5 6.5l4 5t3 5t1 4.5zM350 570v-125h-165v125h165z" />
    <glyph glyph-name="fe.fina" unicode="&#x641;" horiz-adv-x="755" arabic-form="final" 
d="M205 175h140q-5 19 -5 55q0 72 50 126t135 54q88 0 134 -52t46 -123q0 -36 -8 -60h58q8 0 12 -4.5t6 -22.5t2 -58q0 -42 -2 -61.5t-6 -24t-12 -4.5h-120q-75 0 -110 20q-35 -20 -110 -20h-220q-88 0 -129 48.5t-41 126.5v150h165v-135q0 -6 4.5 -10.5t10.5 -4.5zM523 175
q27 18 27 45q0 12 -7.5 21t-19.5 9q-13 0 -20.5 -9t-7.5 -21q0 -28 28 -45zM605 585v-125h-165v125h165z" />
    <glyph glyph-name="fe.init" unicode="&#x641;" horiz-adv-x="440" arabic-form="initial" 
d="M0 175h60q-10 29 -10 60q0 67 49 121t136 54q84 0 132 -48t48 -152v-35q0 -79 -52 -127t-153 -48h-210q-8 0 -12 4.5t-6 22.5t-2 58q0 42 2 61.5t6 24t12 4.5zM255 170q5 10 5 40q0 40 -30 40q-25 0 -25 -25q0 -33 50 -55zM315 585v-125h-165v125h165z" />
    <glyph glyph-name="fe.medi" unicode="&#x641;" horiz-adv-x="465" arabic-form="medial" 
d="M0 175h55q-5 19 -5 55q0 72 50 126t135 54q88 0 134 -52t46 -123q0 -36 -8 -60h58q8 0 12 -4.5t6 -22.5t2 -58q0 -42 -2 -61.5t-6 -24t-12 -4.5h-120q-75 0 -110 20q-35 -20 -110 -20h-125q-8 0 -12 4.5t-6 22.5t-2 58q0 42 2 61.5t6 24t12 4.5zM233 175q27 18 27 45
q0 12 -7.5 21t-19.5 9q-13 0 -20.5 -9t-7.5 -21q0 -28 28 -45zM315 585v-125h-165v125h165z" />
    <glyph glyph-name="qaf.fina" unicode="&#x642;" horiz-adv-x="645" arabic-form="final" 
d="M275 -25h120q35 0 35 25h-15q-106 0 -145.5 45t-39.5 135q0 82 48.5 138.5t131.5 56.5q82 0 133.5 -49t51.5 -151h50q8 0 12 -4.5t6 -22.5t2 -58q0 -42 -2 -61.5t-6 -24t-12 -4.5h-53q-13 -96 -73.5 -148t-153.5 -52h-100q-112 0 -176 67t-64 183v190h165v-195
q0 -70 85 -70zM385 191q0 -16 6 -23.5t24 -7.5h25v25q0 35 -28 35q-27 0 -27 -29zM545 550v-125h-260v125h260z" />
    <glyph glyph-name="qaf.init" unicode="&#x642;" horiz-adv-x="440" arabic-form="initial" 
d="M0 175h60q-10 29 -10 60q0 67 49 121t136 54q84 0 132 -48t48 -152v-35q0 -79 -52 -127t-153 -48h-210q-8 0 -12 4.5t-6 22.5t-2 58q0 42 2 61.5t6 24t12 4.5zM255 170q5 10 5 40q0 40 -30 40q-25 0 -25 -25q0 -33 50 -55zM360 585v-125h-260v125h260z" />
    <glyph glyph-name="qaf.medi" unicode="&#x642;" horiz-adv-x="465" arabic-form="medial" 
d="M0 175h55q-5 19 -5 55q0 72 50 126t135 54q88 0 134 -52t46 -123q0 -36 -8 -60h58q8 0 12 -4.5t6 -22.5t2 -58q0 -42 -2 -61.5t-6 -24t-12 -4.5h-120q-75 0 -110 20q-35 -20 -110 -20h-125q-8 0 -12 4.5t-6 22.5t-2 58q0 42 2 61.5t6 24t12 4.5zM233 175q27 18 27 45
q0 12 -7.5 21t-19.5 9q-13 0 -20.5 -9t-7.5 -21q0 -28 28 -45zM360 585v-125h-260v125h260z" />
    <glyph glyph-name="kaf.arab.fina" unicode="&#x643;" horiz-adv-x="670" arabic-form="final" 
d="M455 0h-260q-88 0 -129 48.5t-41 126.5v150h165v-135q0 -6 4.5 -10.5t10.5 -4.5h235q6 0 10.5 4.5t4.5 10.5v365h165v-365q0 -6 4.5 -10.5t10.5 -4.5h35q8 0 12 -4.5t6 -22.5t2 -58q0 -42 -2 -61.5t-6 -24t-12 -4.5h-29q-71 0 -101 30q-36 -30 -85 -30zM395 265h-145v120
h-115v140h195q65 0 65 -70v-190z" />
    <glyph glyph-name="lam.fina" unicode="&#x644;" horiz-adv-x="610" arabic-form="final" 
d="M310 -200h-45q-112 0 -176 67t-64 183v190h165v-195q0 -70 85 -70h30q90 0 90 70v510h165v-367q2 -13 15 -13h35q8 0 12 -4.5t6 -22.5t2 -58q0 -42 -2 -61.5t-6 -24t-12 -4.5q-25 0 -55 2q-16 -89 -81.5 -145.5t-163.5 -56.5z" />
    <glyph glyph-name="lam.init" unicode="&#x644;" horiz-adv-x="245" arabic-form="initial" 
d="M0 175h35q6 0 10.5 4.5t4.5 10.5v365h165v-380q0 -87 -45 -131t-120 -44h-50q-8 0 -12 4.5t-6 22.5t-2 58q0 42 2 61.5t6 24t12 4.5z" />
    <glyph glyph-name="lam.medi" unicode="&#x644;" horiz-adv-x="265" arabic-form="medial" 
d="M0 175h35q6 0 10.5 4.5t4.5 10.5v365h165v-365q0 -6 4.5 -10.5t10.5 -4.5h35q8 0 12 -4.5t6 -22.5t2 -58q0 -42 -2 -61.5t-6 -24t-12 -4.5h-29q-71 0 -101 30q-36 -30 -85 -30h-50q-8 0 -12 4.5t-6 22.5t-2 58q0 42 2 61.5t6 24t12 4.5z" />
    <glyph glyph-name="mim.fina" unicode="&#x645;" horiz-adv-x="625" arabic-form="final" 
d="M625 0q-86 0 -126 27q-45 -27 -109 -27q-78 0 -124 42.5t-46 122.5v25q0 21 3 30h-18q-6 0 -10.5 -4.5t-4.5 -10.5v-395h-165v385q0 82 47.5 136t142.5 54h190q170 0 170 -170v-25q0 -6 4.5 -10.5t10.5 -4.5h35q8 0 12 -4.5t6 -22.5t2 -58q0 -42 -2 -61.5t-6 -24
t-12 -4.5zM395 160q25 0 25 20v25q0 20 -25 20t-25 -20v-25q0 -20 25 -20z" />
    <glyph glyph-name="mim.init" unicode="&#x645;" horiz-adv-x="435" arabic-form="initial" 
d="M0 175h35q6 0 10.5 4.5t4.5 10.5q0 90 49 142.5t133 52.5q87 0 132.5 -51t45.5 -139q0 -90 -49.5 -142.5t-135.5 -52.5q-57 0 -95 30q-22 -18 -49 -24t-81 -6q-8 0 -12 4.5t-6 22.5t-2 58q0 42 2 61.5t6 24t12 4.5zM200 195q0 -30 28 -30q27 0 27 30t-27 30
q-28 0 -28 -30z" />
    <glyph glyph-name="mim.medi" unicode="&#x645;" horiz-adv-x="460" arabic-form="medial" 
d="M50 190q0 90 49 142.5t133 52.5q87 0 132.5 -51t45.5 -139v-5q0 -6 4.5 -10.5t10.5 -4.5h35q8 0 12 -4.5t6 -22.5t2 -58q0 -42 -2 -61.5t-6 -24t-12 -4.5q-88 0 -128 28q-45 -28 -107 -28q-57 0 -95 30q-22 -18 -49 -24t-81 -6q-8 0 -12 4.5t-6 22.5t-2 58q0 42 2 61.5
t6 24t12 4.5h35q6 0 10.5 4.5t4.5 10.5zM200 195q0 -30 28 -30q27 0 27 30t-27 30q-28 0 -28 -30z" />
    <glyph glyph-name="nun.fina" unicode="&#x646;" horiz-adv-x="610" arabic-form="final" 
d="M560 325v-137q0 -13 15 -13h35q8 0 12 -4.5t6 -22.5t2 -58q0 -42 -2 -61.5t-6 -24t-12 -4.5h-15q-25 0 -40 3q-16 -89 -81.5 -146t-163.5 -57h-45q-112 0 -176 67t-64 183v190h165v-195q0 -70 85 -70h30q90 0 90 70v280h165zM345 420v-125h-165v125h165z" />
    <glyph glyph-name="nun.init" unicode="&#x646;" horiz-adv-x="260" arabic-form="initial" 
d="M0 175h55q6 0 10.5 4.5t4.5 10.5v135h165v-150q0 -84 -45.5 -129.5t-119.5 -45.5h-70q-8 0 -12 4.5t-6 22.5t-2 58q0 42 2 61.5t6 24t12 4.5zM235 500v-125h-165v125h165z" />
    <glyph glyph-name="nun.medi" unicode="&#x646;" horiz-adv-x="265" arabic-form="medial" 
d="M0 175h35q6 0 10.5 4.5t4.5 10.5v135h165v-135q0 -6 4.5 -10.5t10.5 -4.5h35q8 0 12 -4.5t6 -22.5t2 -58q0 -42 -2 -61.5t-6 -24t-12 -4.5h-29q-71 0 -101 30q-36 -30 -85 -30h-50q-8 0 -12 4.5t-6 22.5t-2 58q0 42 2 61.5t6 24t12 4.5zM215 500v-125h-165v125h165z" />
    <glyph glyph-name="he.fina" unicode="&#x647;" horiz-adv-x="440" arabic-form="final" 
d="M390 465v-275q0 -6 4.5 -10.5t10.5 -4.5h35q8 0 12 -4.5t6 -22.5t2 -58q0 -42 -2 -61.5t-6 -24t-12 -4.5h-40q-84 0 -110 65q-36 -30 -105 -30q-74 0 -117 44.5t-43 135.5q0 76 49 135.5t126 59.5h25v55h165zM180 220q0 -25 25 -25q30 0 30 25v30h-25q-30 0 -30 -30z" />
    <glyph glyph-name="he.init" unicode="&#x647;" horiz-adv-x="635" arabic-form="initial" 
d="M0 175h55q-5 17 -5 45q0 67 53.5 118.5t136.5 51.5q23 0 44 -6l91 91l182 -193q53 -57 53 -122q0 -69 -47.5 -114.5t-127.5 -45.5h-110q-75 0 -105 10q-40 -10 -120 -10h-100q-8 0 -12 4.5t-6 22.5t-2 58q0 42 2 61.5t6 24t12 4.5zM223 170q27 18 27 45q0 12 -7.5 21
t-19.5 9q-13 0 -20.5 -9t-7.5 -21q0 -27 28 -45zM440 188q0 7 -7.5 15.5t-37.5 36.5v-5q0 -30 -10 -60h35q20 0 20 13z" />
    <glyph glyph-name="he.medi" unicode="&#x647;" horiz-adv-x="480" arabic-form="medial" 
d="M0 175h50v20q0 35 8 67.5t27 64t56 50t89 18.5q80 0 125 -49t45 -126q0 -29 -10 -60q31 15 90 15q8 0 12 -4.5t6 -22.5t2 -58q0 -42 -2 -61.5t-6 -24t-12 -4.5q-14 0 -22.5 -2.5t-28 -20t-44.5 -52.5l-85 -120h-90q-71 0 -115.5 44t-44.5 128v23h-50q-8 0 -12 4.5
t-6 22.5t-2 58q0 42 2 61.5t6 24t12 4.5zM250 205q0 30 -25 30t-25 -34v-31h10q18 0 29 10t11 25zM200 5q0 -45 25 -45l37 56q-30 -11 -62 -11z" />
    <glyph glyph-name="vav.fina" unicode="&#x648;" horiz-adv-x="455" arabic-form="final" 
d="M405 175h50q8 0 12 -4.5t6 -22.5t2 -58q0 -42 -2 -61.5t-6 -24t-12 -4.5h-51q-5 -108 -67.5 -166.5t-161.5 -58.5h-135l-10 175h155q30 0 42.5 11.5t12.5 38.5h-15q-106 0 -145.5 45t-39.5 135q0 82 48.5 138.5t131.5 56.5q82 0 133.5 -49t51.5 -151zM195 191
q0 -16 6 -23.5t24 -7.5h25v25q0 35 -28 35q-27 0 -27 -29z" />
    <glyph glyph-name="alef.maksura.fina" unicode="&#x649;" horiz-adv-x="620" arabic-form="final" 
d="M405 15h-150l15 160h350q8 0 12 -4.5t6 -22.5t2 -58q0 -42 -2 -61.5t-6 -24t-12 -4.5h-41q-7 -90 -73.5 -145t-175.5 -55h-65q-112 0 -176 67t-64 183v190h165v-195q0 -70 85 -70h80q65 0 65 25q0 15 -15 15z" />
    <glyph glyph-name="ye.arab.fina" unicode="&#x64a;" horiz-adv-x="620" arabic-form="final" 
d="M405 15h-150l15 160h350q8 0 12 -4.5t6 -22.5t2 -58q0 -42 -2 -61.5t-6 -24t-12 -4.5h-41q-7 -90 -73.5 -145t-175.5 -55h-65q-112 0 -176 67t-64 183v190h165v-195q0 -70 85 -70h80q65 0 65 25q0 15 -15 15zM430 -250v-125h-260v125h260z" />
    <glyph glyph-name=".notdef" horiz-adv-x="480" 
d="M430 555v-555h-380v555h380zM265 380h-50v-205h50v205z" />
    <glyph glyph-name=".null" horiz-adv-x="870" 
 />
    <glyph glyph-name="nonmarkingreturn" horiz-adv-x="333" 
 />
    <glyph glyph-name="line_feed" unicode="&#xa;" 
 />
    <glyph glyph-name="carriage_return" unicode="&#xd;" 
 />
    <glyph glyph-name="space" unicode=" " horiz-adv-x="100" 
 />
    <glyph glyph-name="exclam" unicode="!" horiz-adv-x="221" 
d="M172 165h-125q-20 147 -20 285v105h165v-105q0 -138 -20 -285zM196 56q0 -81 -86 -81q-85 0 -85 81q0 76 85 76q86 0 86 -76z" />
    <glyph glyph-name="quotedbl" unicode="&#x22;" horiz-adv-x="400" 
d="M25 315v240h150v-240h-150zM225 315v240h150v-240h-150z" />
    <glyph glyph-name="numbersign" unicode="#" horiz-adv-x="608" 
d="M138 257l8 41h-105v140h126l21 122l140 -16l-18 -106h36l22 122l140 -15l-19 -107h94v-140h-117l-8 -41h110v-140h-131l-21 -122l-140 15l18 107h-37l-21 -122l-140 15l19 107h-90v140h113zM272 252h50l10 51h-49z" />
    <glyph glyph-name="quotesingle" unicode="'" horiz-adv-x="200" 
d="M25 315v240h150v-240h-150z" />
    <glyph glyph-name="parenleft" unicode="(" horiz-adv-x="300" 
d="M190 190q0 -91 16.5 -142t68.5 -118l-110 -95q-70 70 -105 151t-35 204t35 204t105 151l110 -95q-52 -67 -68.5 -118t-16.5 -142z" />
    <glyph glyph-name="parenright" unicode=")" horiz-adv-x="300" 
d="M110 190q0 91 -16.5 142t-68.5 118l110 95q70 -70 105 -151t35 -204t-35 -204t-105 -151l-110 95q52 67 68.5 118t16.5 142z" />
    <glyph glyph-name="asterisk" unicode="*" horiz-adv-x="469" 
d="M167 555h130v-110l110 35l37 -125l-102 -35l65 -90l-110 -80l-62 95l-63 -95l-110 80l65 90l-102 35l37 125l105 -35v110z" />
    <glyph glyph-name="plus" unicode="+" horiz-adv-x="455" 
d="M148 0v120h-123v165h123v120h159v-120h123v-165h-123v-120h-159z" />
    <glyph glyph-name="hyphen_minus" unicode="-" horiz-adv-x="455" 
d="M25 285h405v-165h-405v165z" />
    <glyph glyph-name="period" unicode="." horiz-adv-x="230" 
d="M205 90q0 -90 -90 -90t-90 90q0 46 23 65.5t67 19.5t67 -19.5t23 -65.5z" />
    <glyph glyph-name="slash" unicode="/" horiz-adv-x="535" 
d="M25 10l350 550l135 -85l-350 -550z" />
    <glyph glyph-name="zero" unicode="0" horiz-adv-x="447" 
d="M422 239q0 -152 -48 -224.5t-150 -72.5t-150.5 72.5t-48.5 223.5q0 155 48.5 227t150.5 72t150 -73.5t48 -224.5zM224 80q16 0 26.5 14.5t14.5 42.5t5 48.5t1 53.5q0 86 -10 122.5t-37 36.5q-28 0 -38 -37.5t-10 -122.5q0 -79 9 -118.5t39 -39.5z" />
    <glyph glyph-name="one" unicode="1" horiz-adv-x="373" 
d="M348 86v-134h-323v134h89v246h-89v129q54 0 77.5 14.5t25.5 52.5h133v-442h87z" />
    <glyph glyph-name="two" unicode="2" horiz-adv-x="437" 
d="M412 92v-140h-387v129q79 74 129 129q48 53 67 85t19 62q0 19 -11.5 29.5t-29.5 10.5q-45 0 -103 -43h-61v138q35 16 85.5 30.5t83.5 14.5q87 0 137 -48t50 -130q0 -63 -29 -119q-34 -57 -129 -148h179z" />
    <glyph glyph-name="three" unicode="3" horiz-adv-x="432" 
d="M204 397q-43 0 -107 -44h-58v137q35 18 85.5 32.5t84.5 14.5q88 0 139 -42t51 -118q0 -61 -48 -109q56 -46 56 -128q0 -86 -55.5 -142t-149.5 -56q-79 0 -177 47v136h61q57 -42 111 -42q26 0 42.5 15.5t16.5 46.5q0 46 -61 46h-70v140h65q57 0 57 39q0 27 -43 27z" />
    <glyph glyph-name="four" unicode="4" horiz-adv-x="472" 
d="M447 257v-136h-58v-169h-148v169h-216v127l242 279h122v-270h58zM195 252h51v57z" />
    <glyph glyph-name="five" unicode="5" horiz-adv-x="426" 
d="M401 150q0 -91 -56 -149.5t-150 -58.5q-82 0 -170 44v137h58q67 -40 113 -40q24 0 39 17t15 51q0 50 -66 50q-45 0 -140 -20v346h354v-141h-205v-45q208 0 208 -191z" />
    <glyph glyph-name="six" unicode="6" horiz-adv-x="452" 
d="M427 153q0 -94 -57.5 -152.5t-140.5 -58.5q-94 0 -149 67t-55 201q0 150 66.5 238.5t195.5 88.5q44 0 97 -21v-133h-56q-26 13 -50 13q-57 0 -83 -50q20 4 42 4q88 0 139 -52t51 -145zM276 151q0 61 -54 61q-19 0 -47 -12v-4q0 -116 55 -116q21 0 33.5 18.5t12.5 52.5z
" />
    <glyph glyph-name="seven" unicode="7" horiz-adv-x="445" 
d="M420 527v-124l-229 -451h-163l225 434h-228v141h395z" />
    <glyph glyph-name="eight" unicode="8" horiz-adv-x="455" 
d="M268 371q0 15 -11 25.5t-30 10.5q-17 0 -28.5 -9t-11.5 -24q0 -19 26 -34q11 -7 39 -21q16 17 16 52zM278 124q0 16 -8 26t-30 22q-25 12 -43 20q-22 -24 -22 -58q0 -25 15 -42t38 -17t36.5 13t13.5 36zM227 -59q-91 0 -146.5 54t-55.5 135q0 76 55 128q-42 41 -42 109
q0 74 54 123t135 49q72 0 131.5 -48t59.5 -120q0 -60 -47 -113q59 -49 59 -126q0 -81 -58 -136t-145 -55z" />
    <glyph glyph-name="nine" unicode="9" horiz-adv-x="452" 
d="M277 284q0 115 -55 115q-21 0 -33.5 -18.5t-12.5 -51.5q0 -63 54 -63q21 0 47 12v6zM25 326q0 93 57.5 152t140.5 59q96 0 150 -66t54 -202q0 -151 -66 -238.5t-195 -87.5q-38 0 -98 18v135h57q22 -12 49 -12q63 0 85 50q-19 -4 -44 -4q-87 0 -138.5 53t-51.5 143z" />
    <glyph glyph-name="colon" unicode=":" horiz-adv-x="230" 
d="M205 315q0 -90 -90 -90t-90 90q0 46 23 65.5t67 19.5t67 -19.5t23 -65.5zM205 90q0 -90 -90 -90t-90 90q0 46 23 65.5t67 19.5t67 -19.5t23 -65.5z" />
    <glyph glyph-name="less" unicode="&#x3c;" horiz-adv-x="420" 
d="M395 270l-237 -70l237 -70l-45 -150l-325 120v200l325 120z" />
    <glyph glyph-name="equal" unicode="=" horiz-adv-x="455" 
d="M25 175h405v-165h-405v165zM25 390h405v-165h-405v165z" />
    <glyph glyph-name="greater" unicode="&#x3e;" horiz-adv-x="420" 
d="M262 200l-237 70l45 150l325 -120v-200l-325 -120l-45 150z" />
    <glyph glyph-name="bracketleft" unicode="[" horiz-adv-x="315" 
d="M25 540h265v-170h-105v-360h105v-170h-265v700z" />
    <glyph glyph-name="backslash" unicode="\" horiz-adv-x="535" 
d="M160 560l350 -550l-135 -85l-350 550z" />
    <glyph glyph-name="bracketright" unicode="]" horiz-adv-x="315" 
d="M25 540h265v-700h-265v170h105v360h-105v170z" />
    <glyph glyph-name="underscore" unicode="_" horiz-adv-x="450" 
d="M25 105h400v-130h-400v130z" />
    <glyph glyph-name="braceleft" unicode="{" horiz-adv-x="360" 
d="M25 110v160q47 0 63.5 24t16.5 85q0 43 2.5 67t13 48.5t33.5 35t61 10.5h120v-155h-10q-37 0 -48.5 -14t-11.5 -56t-8 -65.5t-20.5 -34.5t-41.5 -25q29 -14 41.5 -25t20.5 -34.5t8 -65.5t11.5 -56t48.5 -14h10v-155h-120q-38 0 -61 10.5t-33.5 35t-13 48.5t-2.5 67
q0 61 -16.5 85t-63.5 24z" />
    <glyph glyph-name="bar" unicode="|" horiz-adv-x="215" 
d="M190 540v-700h-165v700h165z" />
    <glyph glyph-name="braceright" unicode="}" horiz-adv-x="360" 
d="M335 270v-160q-47 0 -63.5 -24t-16.5 -85q0 -43 -2.5 -67t-13 -48.5t-33.5 -35t-61 -10.5h-120v155h10q37 0 48.5 14t11.5 56t8 65.5t20.5 34.5t41.5 25q-29 14 -41.5 25t-20.5 34.5t-8 65.5t-11.5 56t-48.5 14h-10v155h120q38 0 61 -10.5t33.5 -35t13 -48.5t2.5 -67
q0 -61 16.5 -85t63.5 -24z" />
    <glyph glyph-name="nbspace" unicode="&#xa0;" horiz-adv-x="150" 
 />
    <glyph glyph-name="brokenbar" unicode="&#xa6;" horiz-adv-x="215" 
d="M190 540v-285h-165v285h165zM190 125v-285h-165v285h165z" />
    <glyph glyph-name="guillemotleft" unicode="&#xab;" horiz-adv-x="470" 
d="M25 190q0 74 20.5 136.5t79.5 128.5l110 -80q-34 -51 -42 -87t-8 -98q0 -43 2 -64t13 -53t35 -68l-110 -80q-59 66 -79.5 128.5t-20.5 136.5zM235 190q0 74 20.5 136.5t79.5 128.5l110 -80q-34 -51 -42 -87t-8 -98q0 -43 2 -64t13 -53t35 -68l-110 -80
q-59 66 -79.5 128.5t-20.5 136.5z" />
    <glyph glyph-name="logicalnot" unicode="&#xac;" horiz-adv-x="455" 
d="M270 35v165h-245v165h405v-330h-160z" />
    <glyph glyph-name="softHyphen" unicode="&#xad;" horiz-adv-x="350" 
d="M25 285h300v-165h-300v165z" />
    <glyph glyph-name="degree" unicode="&#xb0;" horiz-adv-x="340" 
d="M25 410q0 60 42.5 102.5t102.5 42.5t102.5 -42.5t42.5 -102.5t-42.5 -102.5t-102.5 -42.5t-102.5 42.5t-42.5 102.5zM145 410q0 -10 7.5 -17.5t17.5 -7.5t17.5 7.5t7.5 17.5t-7.5 17.5t-17.5 7.5t-17.5 -7.5t-7.5 -17.5z" />
    <glyph glyph-name="plusminus" unicode="&#xb1;" horiz-adv-x="455" 
d="M25 165h123v105h-123v165h123v120h159v-120h123v-165h-123v-105h123v-165h-405v165z" />
    <glyph glyph-name="paragraph" unicode="&#xb6;" horiz-adv-x="510" 
d="M485 555v-555h-140v390h-30v-390h-140v205q-83 1 -116.5 36t-33.5 139t35.5 139.5t119.5 35.5h305z" />
    <glyph glyph-name="periodcentered" unicode="&#xb7;" horiz-adv-x="260" 
d="M220 270q0 -90 -90 -90t-90 90q0 46 23 65.5t67 19.5t67 -19.5t23 -65.5z" />
    <glyph glyph-name="guillemotright" unicode="&#xbb;" horiz-adv-x="470" 
d="M445 190q0 -74 -20.5 -136.5t-79.5 -128.5l-110 80q34 51 42 87t8 98q0 43 -2 64t-13 53t-35 68l110 80q59 -66 79.5 -128.5t20.5 -136.5zM235 190q0 -74 -20.5 -136.5t-79.5 -128.5l-110 80q34 51 42 87t8 98q0 43 -2 64t-13 53t-35 68l110 80q59 -66 79.5 -128.5
t20.5 -136.5z" />
    <glyph glyph-name="multiply" unicode="&#xd7;" horiz-adv-x="465" 
d="M25 115l92 92l-92 93l115 115l92 -93l93 93l115 -115l-93 -93l93 -92l-115 -115l-93 92l-92 -92z" />
    <glyph glyph-name="divide" unicode="&#xf7;" horiz-adv-x="455" 
d="M150 0v130h150v-130h-150zM150 345v130h150v-130h-150zM25 320h405v-165h-405v165z" />
    <glyph glyph-name="darhezar" unicode="&#x609;" horiz-adv-x="1015" 
d="M850 228q53 0 96.5 -42t43.5 -95q0 -52 -43.5 -94t-96.5 -42t-96.5 42t-43.5 94q0 53 43 95t97 42zM850 70q8 0 14 6t6 14t-6 14t-14 6t-14 -6t-6 -14t6 -14t14 -6zM550 228q53 0 96.5 -42t43.5 -95q0 -52 -43.5 -94t-96.5 -42t-96.5 42t-43.5 94q0 53 43 95t97 42z
M550 70q8 0 14 6t6 14t-6 14t-14 6t-14 -6t-6 -14t6 -14t14 -6zM115 10l350 550l135 -85l-350 -550zM165 257q-53 0 -96.5 42t-43.5 95q0 52 43.5 94t96.5 42t96.5 -42t43.5 -94q0 -53 -43 -95t-97 -42zM165 415q-8 0 -14 -6t-6 -14t6 -14t14 -6t14 6t6 14t-6 14t-14 6z" />
    <glyph glyph-name="darDahezar" unicode="&#x60a;" horiz-adv-x="1315" 
d="M1150 228q53 0 96.5 -42t43.5 -95q0 -52 -43.5 -94t-96.5 -42t-96.5 42t-43.5 94q0 53 43 95t97 42zM1150 70q8 0 14 6t6 14t-6 14t-14 6t-14 -6t-6 -14t6 -14t14 -6zM850 228q53 0 96.5 -42t43.5 -95q0 -52 -43.5 -94t-96.5 -42t-96.5 42t-43.5 94q0 53 43 95t97 42z
M850 70q8 0 14 6t6 14t-6 14t-14 6t-14 -6t-6 -14t6 -14t14 -6zM550 228q53 0 96.5 -42t43.5 -95q0 -52 -43.5 -94t-96.5 -42t-96.5 42t-43.5 94q0 53 43 95t97 42zM550 70q8 0 14 6t6 14t-6 14t-14 6t-14 -6t-6 -14t6 -14t14 -6zM115 10l350 550l135 -85l-350 -550z
M165 257q-53 0 -96.5 42t-43.5 95q0 52 43.5 94t96.5 42t96.5 -42t43.5 -94q0 -53 -43 -95t-97 -42zM165 415q-8 0 -14 -6t-6 -14t6 -14t14 -6t14 6t6 14t-6 14t-14 6z" />
    <glyph glyph-name="virgul" unicode="&#x60c;" horiz-adv-x="230" 
d="M115 0q-45 0 -67.5 22.5t-22.5 82.5q0 68 6 105.5t27.5 61.5t51.5 33t88 15v-95q-60 -11 -71.5 -18.5t-11.5 -31.5h5q85 0 85 -85q0 -90 -90 -90z" />
    <glyph glyph-name="tarikh.sep" unicode="&#x60d;" horiz-adv-x="385" 
d="M25 -35l200 315l135 -85l-200 -315z" />
    <glyph glyph-name="noqte_virgul" unicode="&#x61b;" horiz-adv-x="230" 
d="M115 225q-45 0 -67.5 22.5t-22.5 82.5q0 68 6 105.5t27.5 61.5t51.5 33t88 15v-95q-60 -11 -71.5 -18.5t-11.5 -31.5h5q85 0 85 -85q0 -90 -90 -90zM205 90q0 -90 -90 -90t-90 90q0 46 23 65.5t67 19.5t67 -19.5t23 -65.5z" />
    <glyph glyph-name="soal" unicode="&#x61f;" horiz-adv-x="400" 
d="M375 360h-150q0 23 -4.5 31.5t-16.5 8.5q-19 0 -19 -20q0 -15 30 -45q36 -36 45.5 -63t9.5 -107h-145q0 50 -7 67t-33 43q-60 60 -60 125q0 69 45 112t135 43q86 0 128 -44.5t42 -150.5zM284 56q0 -81 -86 -81q-85 0 -85 81q0 76 85 76q86 0 86 -76z" />
    <glyph glyph-name="kashidas" unicode="&#x640;" horiz-adv-x="150" 
d="M0 175h150q8 0 12 -4.5t6 -22.5t2 -58q0 -42 -2 -61.5t-6 -24t-12 -4.5h-150q-8 0 -12 4.5t-6 22.5t-2 58q0 42 2 61.5t6 24t12 4.5z" />
    <glyph glyph-name=".an" unicode="&#x64b;" 
d="M-120 105l255 110l45 -106l-255 -109zM-175 235l255 110l45 -106l-255 -109z" />
    <glyph glyph-name=".on" unicode="&#x64c;" 
d="M-85 0l-55 100v50q0 6 -4.5 10.5t-10.5 4.5h-30v90h75q40 0 40 -40v-85l35 15q-15 23 -15 50q0 42 32.5 73.5t77.5 31.5q47 0 78.5 -33t31.5 -82q0 -77 -90 -115zM46 184q0 -12 14 -18q14 6 14 18q0 14 -14 14q-6 0 -10 -4.5t-4 -9.5z" />
    <glyph glyph-name=".en" unicode="&#x64d;" 
d="M-120 -240l255 110l45 -106l-255 -109zM-175 -110l255 110l45 -106l-255 -109z" />
    <glyph glyph-name=".a" unicode="&#x64e;" 
d="M-145 105l255 110l45 -106l-255 -109z" />
    <glyph glyph-name=".o" unicode="&#x64f;" 
d="M-105 0l-45 105l95 40q-15 23 -15 50q0 42 32.5 73.5t77.5 31.5q47 0 78.5 -33t31.5 -82q0 -77 -90 -115zM26 184q0 -12 14 -18q14 6 14 18q0 14 -14 14q-6 0 -10 -4.5t-4 -9.5z" />
    <glyph glyph-name=".e" unicode="&#x650;" 
d="M-145 -110l255 110l45 -106l-255 -109z" />
    <glyph glyph-name=".shdd" unicode="&#x651;" 
d="M45 215v-120h15q6 0 10.5 4.5t4.5 10.5v105h95v-85q0 -130 -116 -130h-19q-16 0 -35 15q-19 -15 -35 -15h-20q-115 0 -115 130v85h95v-105q0 -6 4.5 -10.5t10.5 -4.5h15v120h90z" />
    <glyph glyph-name=".skn" unicode="&#x652;" 
d="M-120 120q0 50 35 85t85 35t85 -35t35 -85t-35 -85t-85 -35t-85 35t-35 85zM-20 120q0 -8 6 -14t14 -6t14 6t6 14t-6 14t-14 6t-14 -6t-6 -14z" />
    <glyph glyph-name=".mad" unicode="&#x653;" 
d="M155 60h-160q-21 0 -33 -9.5t-37 -50.5l-90 60q23 38 36 56.5t25 33t27.5 18.5t28 5.5t43.5 1.5h170z" />
    <glyph glyph-name=".thmz" unicode="&#x654;" 
d="M-70 0l-45 90l46 25q-36 29 -36 80q0 41 27 73t73 32h80l-15 -100h-45q-25 0 -25 -20q0 -8 5.5 -14t12.5 -6q18 0 87 37l40 -92z" />
    <glyph glyph-name=".bhmz" unicode="&#x655;" 
d="M-70 -300l-45 90l46 25q-36 29 -36 80q0 41 27 73t73 32h80l-15 -100h-45q-25 0 -25 -20q0 -8 5.5 -14t12.5 -6q18 0 87 37l40 -92z" />
    <glyph glyph-name=".i" unicode="&#x656;" 
d="M-50 -210v210h100v-210h-100z" />
    <glyph glyph-name="sefr.arab" unicode="&#x660;" horiz-adv-x="430" 
d="M215 390q71 0 130.5 -57t59.5 -128t-59.5 -128t-130.5 -57q-72 0 -131 56.5t-59 128.5t59 128.5t131 56.5zM215 175q12 0 21 9.5t9 20.5q0 12 -9 21t-21 9t-21 -9t-9 -21q0 -11 9 -20.5t21 -9.5z" />
    <glyph glyph-name="yek.arab" unicode="&#x661;" horiz-adv-x="245" 
d="M220 -50h-165v220q0 82 -10.5 143t-34.5 142l160 55q29 -88 39.5 -159.5t10.5 -175.5v-225z" />
    <glyph glyph-name="do.arab" unicode="&#x662;" horiz-adv-x="420" 
d="M240 170q-15 0 -20 2v-222h-165v220q0 82 -10.5 143t-34.5 142l160 55l35 -150q4 -17 16 -17q14 0 14 17q0 20 -20 120l165 30q20 -107 20 -170q0 -73 -43.5 -121.5t-116.5 -48.5z" />
    <glyph glyph-name="se.arab" unicode="&#x663;" horiz-adv-x="615" 
d="M380 510q18 -100 20 -162q5 -5 14 -5q16 0 16 17q0 30 -15 120l165 30q15 -85 15 -170q0 -73 -43.5 -121.5t-116.5 -48.5q-53 0 -92 40q-39 -40 -103 -40q-15 0 -20 2v-222h-165v220q0 82 -10.5 143t-34.5 142l160 55l35 -150q4 -17 16 -17q14 0 14 17q0 20 -20 120z" />
    <glyph glyph-name="char.arab" unicode="&#x664;" horiz-adv-x="380" 
d="M195 155q-15 -6 -15 -17q0 -13 15 -13h165l-10 -170h-165q-79 0 -119.5 37.5t-40.5 97.5q0 65 55 120q-55 48 -55 120q0 73 53 129t127 56q63 0 140 -35l-45 -150q-67 20 -95 20q-25 0 -25 -23q0 -22 30 -22h105v-105q-99 -36 -120 -45z" />
    <glyph glyph-name="panj.arab" unicode="&#x665;" horiz-adv-x="475" 
d="M285 143q0 40 -50 97q-45 -52 -45 -95q0 -30 35 -30h24q36 0 36 28zM25 120q0 99 100 235l-40 35l115 125q140 -122 195 -213t55 -167q0 -91 -57.5 -140.5t-147.5 -49.5h-25q-96 0 -145.5 45.5t-49.5 129.5z" />
    <glyph glyph-name="shish.arab" unicode="&#x666;" horiz-adv-x="425" 
d="M190 335q-3 0 -26.5 -2t-38.5 -2q-39 0 -65.5 7.5t-54.5 31.5l45 150q30 -15 105 -15q18 0 59.5 2.5t55.5 2.5q56 0 75.5 -25t19.5 -75v-130q0 -79 12 -141t38 -144l-160 -55q-31 92 -43 164t-12 171v50q0 10 -10 10z" />
    <glyph glyph-name="haft.arab" unicode="&#x667;" horiz-adv-x="500" 
d="M330 -50h-160q-25 144 -57.5 237.5t-102.5 237.5l150 90q40 -77 59 -139.5t31 -150.5q12 88 31 150.5t59 139.5l150 -90q-70 -144 -102.5 -237.5t-57.5 -237.5z" />
    <glyph glyph-name="hasht.arab" unicode="&#x668;" horiz-adv-x="581" 
d="M261 505h160q25 -144 57.5 -237.5t102.5 -237.5l-150 -90q-40 77 -59 139.5t-31 150.5q-12 -88 -31 -150.5t-59 -139.5l-150 90q70 144 102.5 237.5t57.5 237.5z" />
    <glyph glyph-name="noh.arab" unicode="&#x669;" horiz-adv-x="415" 
d="M385 -50h-165v198q-15 -3 -35 -3q-82 0 -123.5 46.5t-41.5 118.5q0 80 51.5 142.5t133.5 62.5q91 0 135.5 -68.5t44.5 -171.5v-325zM230 311q0 17 -8 30.5t-22 13.5q-11 0 -18 -9t-7 -21q0 -20 25 -20q15 0 30 6z" />
    <glyph glyph-name="darsad" unicode="&#x66a;" horiz-adv-x="715" 
d="M550 228q53 0 96.5 -42t43.5 -95q0 -52 -43.5 -94t-96.5 -42t-96.5 42t-43.5 94q0 53 43 95t97 42zM550 70q8 0 14 6t6 14t-6 14t-14 6t-14 -6t-6 -14t6 -14t14 -6zM115 10l350 550l135 -85l-350 -550zM165 257q-53 0 -96.5 42t-43.5 95q0 52 43.5 94t96.5 42t96.5 -42
t43.5 -94q0 -53 -43 -95t-97 -42zM165 415q-8 0 -14 -6t-6 -14t6 -14t14 -6t14 6t6 14t-6 14t-14 6z" />
    <glyph glyph-name="sad.sep" unicode="&#x66b;" horiz-adv-x="385" 
d="M25 -35l200 315l135 -85l-200 -315z" />
    <glyph glyph-name="hezar.sep" unicode="&#x66c;" horiz-adv-x="230" 
d="M115 175q45 0 67.5 -22.5t22.5 -82.5q0 -68 -6 -105.5t-27.5 -61.5t-51.5 -33t-88 -15v95q60 11 71.5 18.5t11.5 31.5h-5q-85 0 -85 85q0 90 90 90z" />
    <glyph glyph-name="setare" unicode="&#x66d;" horiz-adv-x="469" 
d="M167 405h130v-110l110 35l37 -125l-102 -35l65 -90l-110 -80l-62 95l-63 -95l-110 80l65 90l-102 35l37 125l105 -35v110z" />
    <glyph glyph-name=".aa" unicode="&#x670;" 
d="M-50 0v210h100v-210h-100z" />
    <glyph glyph-name="re.bv" unicode="&#x695;" horiz-adv-x="230" 
d="M205 325v-285q0 -104 -66 -177t-169 -73h-100l-15 175h95q90 0 90 70v290h165zM50 -345l38 110l92 -40l-82 -180h-96l-82 180l92 40z" />
    <glyph glyph-name="lam.tv" unicode="&#x6b5;" horiz-adv-x="590" 
d="M310 -200h-45q-112 0 -176 67t-64 183v190h165v-195q0 -70 85 -70h30q90 0 90 70v510h165v-500q0 -108 -68.5 -181.5t-181.5 -73.5zM230 460l38 110l92 -40l-82 -180h-96l-82 180l92 40z" />
    <glyph glyph-name="he.dochashmi" unicode="&#x6be;" horiz-adv-x="615" 
d="M415 0h-160q-91 -78 -135 -110l-100 125q45 27 80 55q-70 56 -70 140q0 74 53 127t137 53q23 0 44 -6l91 91l182 -193q53 -57 53 -122q0 -69 -47.5 -114.5t-127.5 -45.5zM203 170q27 18 27 45q0 12 -7.5 21t-19.5 9q-13 0 -20.5 -9t-7.5 -21q0 -27 28 -45zM420 188
q0 7 -7.5 15.5t-37.5 36.5v-5q0 -30 -10 -60h35q20 0 20 13z" />
    <glyph glyph-name="he.thmz.goal" unicode="&#x6c2;" horiz-adv-x="420" 
d="M25 175q0 80 75 170l-38 40l116 115q132 -120 174.5 -188t42.5 -137q0 -75 -54 -125t-136 -50t-131 48t-49 127zM240 192q0 24 -30 53q-30 -30 -30 -53q0 -27 30 -27t30 27zM110 510l-45 90l46 25q-36 29 -36 80q0 41 27 73t73 32h80l-15 -100h-45q-25 0 -25 -20
q0 -8 5.5 -14t12.5 -6q18 0 87 37l40 -92z" />
    <glyph glyph-name="vav.t2p" unicode="&#x6ca;" horiz-adv-x="430" 
d="M405 175v-155q0 -117 -63 -181t-167 -64h-135l-10 175h155q30 0 42.5 11.5t12.5 38.5h-15q-106 0 -145.5 45t-39.5 135q0 82 48.5 138.5t131.5 56.5q82 0 133.5 -49t51.5 -151zM195 191q0 -16 6 -23.5t24 -7.5h25v25q0 35 -28 35q-27 0 -27 -29zM355 550v-125h-260v125
h260z" />
    <glyph glyph-name="ye.tv" unicode="&#x6ce;" horiz-adv-x="610" 
d="M420 10q0 6 -4.5 10.5t-10.5 4.5h-175v185q0 83 49 134t131 51h145l10 -170h-155q-6 0 -10.5 -4.5t-4.5 -10.5v-15h30q160 0 160 -155q0 -99 -72.5 -169.5t-182.5 -70.5h-65q-112 0 -176 67t-64 183v190h165v-195q0 -70 85 -70h65q80 0 80 35zM140 410l38 110l92 -40
l-82 -180h-96l-82 180l92 40z" />
    <glyph glyph-name="ae" unicode="&#x6d5;" horiz-adv-x="420" 
d="M25 175q0 80 75 170l-38 40l116 115q132 -120 174.5 -188t42.5 -137q0 -75 -54 -125t-136 -50t-131 48t-49 127zM240 192q0 24 -30 53q-30 -30 -30 -53q0 -27 30 -27t30 27z" />
    <glyph glyph-name="sefr" unicode="&#x6f0;" horiz-adv-x="430" 
d="M215 390q71 0 130.5 -57t59.5 -128t-59.5 -128t-130.5 -57q-72 0 -131 56.5t-59 128.5t59 128.5t131 56.5zM215 175q12 0 21 9.5t9 20.5q0 12 -9 21t-21 9t-21 -9t-9 -21q0 -11 9 -20.5t21 -9.5z" />
    <glyph glyph-name="yek" unicode="&#x6f1;" horiz-adv-x="245" 
d="M220 -50h-165v220q0 82 -10.5 143t-34.5 142l160 55q29 -88 39.5 -159.5t10.5 -175.5v-225z" />
    <glyph glyph-name="do" unicode="&#x6f2;" horiz-adv-x="420" 
d="M240 170q-15 0 -20 2v-222h-165v220q0 82 -10.5 143t-34.5 142l160 55l35 -150q4 -17 16 -17q14 0 14 17q0 20 -20 120l165 30q20 -107 20 -170q0 -73 -43.5 -121.5t-116.5 -48.5z" />
    <glyph glyph-name="se" unicode="&#x6f3;" horiz-adv-x="615" 
d="M380 510q18 -100 20 -162q5 -5 14 -5q16 0 16 17q0 30 -15 120l165 30q15 -85 15 -170q0 -73 -43.5 -121.5t-116.5 -48.5q-53 0 -92 40q-39 -40 -103 -40q-15 0 -20 2v-222h-165v220q0 82 -10.5 143t-34.5 142l160 55l35 -150q4 -17 16 -17q14 0 14 17q0 20 -20 120z" />
    <glyph glyph-name="char" unicode="&#x6f4;" horiz-adv-x="550" 
d="M235 315q-5 25 -5 40q0 69 46 114.5t114 45.5q51 0 120 -25l-35 -145q-50 10 -75 10q-30 0 -30 -22q0 -23 25 -23q20 0 100 20l35 -145q-105 -35 -190 -35q-73 0 -120 16v-216h-165v220q0 82 -10.5 143t-34.5 142l160 55l40 -175q3 -12 8 -16t17 -4z" />
    <glyph glyph-name="panj" unicode="&#x6f5;" horiz-adv-x="565" 
d="M385 140q0 68 -110 155q-95 -88 -95 -160q0 -25 17 -25q18 0 18 25v55h135v-75q7 -5 15 -5q20 0 20 30zM25 115q0 117 135 265l-30 26l105 124q123 -94 192 -169t91 -125.5t22 -105.5q0 -87 -51 -136t-114 -49q-61 0 -95 30q-33 -30 -90 -30q-78 0 -121.5 45.5
t-43.5 124.5z" />
    <glyph glyph-name="shish" unicode="&#x6f6;" horiz-adv-x="400" 
d="M310 340l80 -115q-50 -44 -90 -92.5t-62 -82t-68 -110.5l-140 80q64 104 115 155q-63 14 -91.5 56t-28.5 99q0 77 48 131t122 54q60 0 135 -30l-45 -135q-50 10 -75 10q-30 0 -30 -24q0 -21 25 -21q30 0 105 25z" />
    <glyph glyph-name="haft" unicode="&#x6f7;" horiz-adv-x="500" 
d="M330 -50h-160q-25 144 -57.5 237.5t-102.5 237.5l150 90q40 -77 59 -139.5t31 -150.5q12 88 31 150.5t59 139.5l150 -90q-70 -144 -102.5 -237.5t-57.5 -237.5z" />
    <glyph glyph-name="hasht" unicode="&#x6f8;" horiz-adv-x="500" 
d="M170 505h160q25 -144 57.5 -237.5t102.5 -237.5l-150 -90q-40 77 -59 139.5t-31 150.5q-12 -88 -31 -150.5t-59 -139.5l-150 90q70 144 102.5 237.5t57.5 237.5z" />
    <glyph glyph-name="noh" unicode="&#x6f9;" horiz-adv-x="415" 
d="M385 -50h-165v198q-15 -3 -35 -3q-82 0 -123.5 46.5t-41.5 118.5q0 80 51.5 142.5t133.5 62.5q91 0 135.5 -68.5t44.5 -171.5v-325zM230 311q0 17 -8 30.5t-22 13.5q-11 0 -18 -9t-7 -21q0 -20 25 -20q15 0 30 6z" />
    <glyph glyph-name="enQuad_Space" unicode="&#x2000;" horiz-adv-x="500" 
 />
    <glyph glyph-name="enQuad_Space" unicode="&#x2002;" horiz-adv-x="500" 
 />
    <glyph glyph-name="emQuad_Space" unicode="&#x2001;" horiz-adv-x="1000" 
 />
    <glyph glyph-name="emQuad_Space" unicode="&#x2003;" horiz-adv-x="1000" 
 />
    <glyph glyph-name="3_Mspace" unicode="&#x2004;" horiz-adv-x="300" 
 />
    <glyph glyph-name="4_Mspace" unicode="&#x2005;" horiz-adv-x="250" 
 />
    <glyph glyph-name="6_Mspace" unicode="&#x2006;" horiz-adv-x="150" 
 />
    <glyph glyph-name="figureSpace" unicode="&#x2007;" horiz-adv-x="250" 
 />
    <glyph glyph-name="punctuationSpace" unicode="&#x2008;" horiz-adv-x="150" 
 />
    <glyph glyph-name="thin_hairSpace" unicode="&#x2009;" horiz-adv-x="150" 
 />
    <glyph glyph-name="thin_hairSpace" unicode="&#x200a;" horiz-adv-x="150" 
 />
    <glyph glyph-name="zwspace" unicode="&#x200b;" 
 />
    <glyph glyph-name="zwNONjoiner" unicode="&#x200c;" 
d="M-20 445h40v-545h-40v545z" />
    <glyph glyph-name="zwjoiner" unicode="&#x200d;" 
d="M20 308v-407h-40v407l-54 -54l-26 26l72 72l-72 70l28 28l72 -73l72 73l28 -28l-72 -70l72 -72l-26 -26z" />
    <glyph glyph-name="LTR_mark" unicode="&#x200e;" horiz-adv-x="350" 
d="M181 545l99 -98l-99 -99l-25 26l54 53h-104v-527h-36v567h140l-54 52z" />
    <glyph glyph-name="RTL_mark" unicode="&#x200f;" horiz-adv-x="350" 
d="M70 447l99 98l25 -26l-54 -52h140v-567h-36v527h-104l54 -53l-25 -26z" />
    <glyph glyph-name="hyphen" unicode="&#x2010;" horiz-adv-x="350" 
d="M25 285h300v-165h-300v165z" />
    <glyph glyph-name="nb_hyphen" unicode="&#x2011;" horiz-adv-x="350" 
d="M25 285h300v-165h-300v165z" />
    <glyph glyph-name="figuredash" unicode="&#x2012;" horiz-adv-x="450" 
d="M25 285h400v-165h-400v165z" />
    <glyph glyph-name="endash" unicode="&#x2013;" horiz-adv-x="450" 
d="M25 285h400v-165h-400v165z" />
    <glyph glyph-name="emdash" unicode="&#x2014;" horiz-adv-x="900" 
d="M25 285h850v-165h-850v165z" />
    <glyph glyph-name="horizontal_bar" unicode="&#x2015;" horiz-adv-x="900" 
d="M25 285h850v-165h-850v165z" />
    <glyph glyph-name="quoteleft" unicode="&#x2018;" horiz-adv-x="230" 
d="M115 240q-45 0 -67.5 22.5t-22.5 82.5q0 68 6 105.5t27.5 61.5t51.5 33t88 15v-95q-60 -11 -71.5 -18.5t-11.5 -31.5h5q85 0 85 -85q0 -90 -90 -90z" />
    <glyph glyph-name="quoteright" unicode="&#x2019;" horiz-adv-x="230" 
d="M115 555q45 0 67.5 -22.5t22.5 -82.5q0 -68 -6 -105.5t-27.5 -61.5t-51.5 -33t-88 -15v95q60 11 71.5 18.5t11.5 31.5h-5q-85 0 -85 85q0 90 90 90z" />
    <glyph glyph-name="quotedblleft" unicode="&#x201c;" horiz-adv-x="420" 
d="M115 240q-45 0 -67.5 22.5t-22.5 82.5q0 68 6 105.5t27.5 61.5t51.5 33t88 15v-95q-60 -11 -71.5 -18.5t-11.5 -31.5h5q85 0 85 -85q0 -90 -90 -90zM305 240q-45 0 -67.5 22.5t-22.5 82.5q0 68 6 105.5t27.5 61.5t51.5 33t88 15v-95q-60 -11 -71.5 -18.5t-11.5 -31.5h5
q85 0 85 -85q0 -90 -90 -90z" />
    <glyph glyph-name="quotedblright" unicode="&#x201d;" horiz-adv-x="420" 
d="M115 555q45 0 67.5 -22.5t22.5 -82.5q0 -68 -6 -105.5t-27.5 -61.5t-51.5 -33t-88 -15v95q60 11 71.5 18.5t11.5 31.5h-5q-85 0 -85 85q0 90 90 90zM305 555q45 0 67.5 -22.5t22.5 -82.5q0 -68 -6 -105.5t-27.5 -61.5t-51.5 -33t-88 -15v95q60 11 71.5 18.5t11.5 31.5h-5
q-85 0 -85 85q0 90 90 90z" />
    <glyph glyph-name="bullet" unicode="&#x2022;" horiz-adv-x="317" 
d="M152 0q-63 0 -106.5 43.5t-43.5 106.5q0 62 43.5 106t106.5 44q62 0 106.5 -44.5t44.5 -105.5q0 -63 -44.5 -106.5t-106.5 -43.5z" />
    <glyph glyph-name="ellipsis" unicode="&#x2026;" horiz-adv-x="690" 
d="M435 90q0 -90 -90 -90t-90 90q0 46 23 65.5t67 19.5t67 -19.5t23 -65.5zM665 90q0 -90 -90 -90t-90 90q0 46 23 65.5t67 19.5t67 -19.5t23 -65.5zM205 90q0 -90 -90 -90t-90 90q0 46 23 65.5t67 19.5t67 -19.5t23 -65.5z" />
    <glyph glyph-name="line_seperator" unicode="&#x2028;" 
 />
    <glyph glyph-name="paragraph_seperator" unicode="&#x2029;" 
 />
    <glyph glyph-name="LTRembedding" unicode="&#x202a;" 
d="M-29 494v-25h-56v25h56zM-5 469v25h41l-33 33l17 18l65 -65l-65 -64l-17 19l33 34h-41z" />
    <glyph glyph-name="RTLembedding" unicode="&#x202b;" 
d="M29 469v25h56v-25h-56zM5 494v-25h-41l33 -34l-17 -19l-65 64l65 65l17 -18l-33 -33h41z" />
    <glyph glyph-name="pop.directional.formatting_PDF" unicode="&#x202c;" 
d="M-13 495l-33 -32l-19 17l65 65l65 -65l-19 -17l-33 33v-86h-26v85z" />
    <glyph glyph-name="LTRoverride" unicode="&#x202d;" 
d="M-13 494l-34 33l18 18l64 -65l-64 -64l-18 19l34 34h-92v25h92zM69 480l-46 47l17 18l65 -65l-65 -64l-17 19z" />
    <glyph glyph-name="RTLoverride" unicode="&#x202e;" 
d="M47 527l-34 -33h92v-25h-92l34 -34l-18 -19l-64 64l64 65zM-23 527l-46 -47l46 -45l-17 -19l-65 64l65 65z" />
    <glyph glyph-name="narrow_nbspace" unicode="&#x202f;" horiz-adv-x="100" 
 />
    <glyph glyph-name="guilsinglleft" unicode="&#x2039;" horiz-adv-x="260" 
d="M25 190q0 74 20.5 136.5t79.5 128.5l110 -80q-34 -51 -42 -87t-8 -98q0 -43 2 -64t13 -53t35 -68l-110 -80q-59 66 -79.5 128.5t-20.5 136.5z" />
    <glyph glyph-name="guilsinglright" unicode="&#x203a;" horiz-adv-x="260" 
d="M235 190q0 -74 -20.5 -136.5t-79.5 -128.5l-110 80q34 51 42 87t8 98q0 43 -2 64t-13 53t-35 68l110 80q59 -66 79.5 -128.5t20.5 -136.5z" />
    <glyph glyph-name="fraction" unicode="&#x2044;" horiz-adv-x="535" 
d="M25 10l350 550l135 -85l-350 -550z" />
    <glyph glyph-name="reversed_pilcrow_paragraph" unicode="&#x204b;" horiz-adv-x="510" 
d="M25 0v555h305q84 0 119.5 -35.5t35.5 -139.5t-33.5 -139t-116.5 -36v-205h-140v390h-30v-390h-140z" />
    <glyph glyph-name="word_joiner" unicode="&#x2060;" horiz-adv-x="800" 
 />
    <glyph glyph-name="infinity" unicode="&#x221e;" horiz-adv-x="740" 
d="M460 200q40 -40 68 -40q32 0 32 40t-32 40q-28 0 -68 -40zM370 85q-44 -44 -81.5 -64.5t-83.5 -20.5q-78 0 -129 53t-51 147t51 147t129 53q46 0 83.5 -20.5t81.5 -64.5q44 44 81.5 64.5t83.5 20.5q78 0 129 -53t51 -147t-51 -147t-129 -53q-46 0 -83.5 20.5t-81.5 64.5z
M280 200q-40 40 -68 40q-32 0 -32 -40t32 -40q28 0 68 40z" />
    <glyph glyph-name="approxequal" unicode="&#x2248;" horiz-adv-x="455" 
d="M31 20l-6 162q72 28 102 28q45 0 98.5 -32.5t102.5 -32.5q34 0 96 22l6 -161q-67 -26 -102 -26q-49 0 -102.5 32.5t-98.5 32.5q-31 0 -96 -25zM31 235l-6 162q72 28 102 28q45 0 98.5 -32.5t102.5 -32.5q34 0 96 22l6 -161q-67 -26 -102 -26q-49 0 -102.5 32.5
t-98.5 32.5q-31 0 -96 -25z" />
    <glyph glyph-name="notequal" unicode="&#x2260;" horiz-adv-x="455" 
d="M25 390h186l39 105l135 -50l-14 -55h59v-165h-119l-18 -50h137v-165h-197l-38 -105l-135 50l13 55h-48v165h108l18 50h-126v165z" />
    <glyph glyph-name="lessequal" unicode="&#x2264;" horiz-adv-x="455" 
d="M410 415l-237 -70l237 -70l-45 -150l-325 120v200l325 120zM25 125h405v-165h-405v165z" />
    <glyph glyph-name="greaterequal" unicode="&#x2265;" horiz-adv-x="455" 
d="M282 345l-237 70l45 150l325 -120v-200l-325 -120l-45 150zM25 125h405v-165h-405v165z" />
    <glyph glyph-name="black_small_square" unicode="&#x25aa;" horiz-adv-x="286" 
d="M1 273h273v-273h-273v273z" />
    <glyph glyph-name="white_small_square" unicode="&#x25ab;" horiz-adv-x="286" 
d="M1 273h273v-273h-273v273zM118 156v-40h39v40h-39z" />
    <glyph glyph-name="black_upsmall_triangle" unicode="&#x25b4;" horiz-adv-x="358" 
d="M172 329l190 -329h-380z" />
    <glyph glyph-name="white_upsmall_triangle" unicode="&#x25b5;" horiz-adv-x="358" 
d="M-18 0l190 329l190 -329h-380zM195 99l-23 40l-23 -40h46z" />
    <glyph glyph-name="black_rightsmall_triangle" unicode="&#x25b8;" horiz-adv-x="318" 
d="M332 164l-330 -190v380z" />
    <glyph glyph-name="white_rightsmall_triangle" unicode="&#x25b9;" horiz-adv-x="317" 
d="M3 354l329 -190l-329 -190v380zM102 141l40 23l-40 23v-46z" />
    <glyph glyph-name="black_downsmall_triangle" unicode="&#x25be;" horiz-adv-x="358" 
d="M172 -33l-190 329h380z" />
    <glyph glyph-name="white_downsmall_triangle" unicode="&#x25bf;" horiz-adv-x="358" 
d="M172 -33l-190 329h380zM172 157l23 40h-46z" />
    <glyph glyph-name="black_leftsmall_triangle" unicode="&#x25c2;" horiz-adv-x="317" 
d="M-27 164l329 190v-380z" />
    <glyph glyph-name="white_leftsmall_triangle" unicode="&#x25c3;" horiz-adv-x="317" 
d="M-27 164l329 190v-380zM163 164l40 -23v46z" />
    <glyph glyph-name="dotted.ring" unicode="&#x25cc;" horiz-adv-x="560" 
d="M300 0v130h140v-130h-140zM120 0v130h140v-130h-140zM395 155v130h140v-130h-140zM25 155v130h140v-130h-140zM300 310v130h140v-130h-140zM120 310v130h140v-130h-140z" />
    <glyph glyph-name="white_bullet" unicode="&#x25e6;" horiz-adv-x="317" 
d="M152 0q-62 0 -106 43.5t-44 106.5q0 62 44 106t106 44t106.5 -44.5t44.5 -105.5q0 -63 -44.5 -106.5t-106.5 -43.5zM122 150q0 -12 9 -21t22 -9q12 0 20.5 9t8.5 21q0 13 -8.5 22t-20.5 9q-13 0 -22 -9t-9 -22z" />
    <glyph glyph-name="t1p" unicode="&#xfbb2;" 
d="M85 125v-125h-165v125h165z" />
    <glyph glyph-name="b1p" unicode="&#xfbb3;" 
d="M85 0v-125h-165v125h165z" />
    <glyph glyph-name="t2p" unicode="&#xfbb4;" 
d="M130 125v-125h-260v125h260z" />
    <glyph glyph-name="b2p" unicode="&#xfbb5;" 
d="M130 0v-125h-260v125h260z" />
    <glyph glyph-name="t3p" unicode="&#xfbb6;" 
d="M65 275v-125h-130v125h130zM130 125v-125h-260v125h260z" />
    <glyph glyph-name="b3p" unicode="&#xfbb9;" 
d="M65 -150v-125h-130v125h130zM130 0v-125h-260v125h260z" />
    <glyph glyph-name="parantez_left" unicode="&#xfd3e;" horiz-adv-x="300" 
d="M190 190q0 -91 16.5 -142t68.5 -118l-110 -95q-70 70 -105 151t-35 204t35 204t105 151l110 -95q-52 -67 -68.5 -118t-16.5 -142z" />
    <glyph glyph-name="parantez_right" unicode="&#xfd3f;" horiz-adv-x="300" 
d="M110 190q0 91 -16.5 142t-68.5 118l110 95q70 -70 105 -151t35 -204t-35 -204t-105 -151l-110 95q52 67 68.5 118t16.5 142z" />
    <glyph glyph-name="zwnbspace" unicode="&#xfeff;" 
 />
    <glyph glyph-name="obj" unicode="&#xfffc;" horiz-adv-x="790" 
d="M770 540v-117h-37v81h-83v36h120zM560 540v-36h-117v36h117zM770 329v-118h-37v118h37zM674 400v-176q0 -88 -78 -88q-31 0 -50 17l26 28q9 -9 24 -9q35 0 35 50v178h43zM349 540v-36h-118v36h118zM770 119v-119h-120v37h83v82h37zM542 217q0 -76 -101 -76h-87v259h86
q90 0 90 -69q0 -33 -31 -52q43 -17 43 -62zM139 540v-36h-82v-81h-37v117h119zM560 37v-37h-117v37h117zM334 270q0 -64 -30.5 -99t-86.5 -35t-85.5 34.5t-29.5 99.5q0 64 29.5 99t85.5 35t86.5 -35t30.5 -99zM57 329v-118h-37v118h37zM349 37v-37h-118v37h118zM139 37v-37
h-119v119h37v-82h82zM489 327q0 37 -60 37h-33v-72h37q56 0 56 35zM500 217q0 40 -63 40h-41v-82h45q59 0 59 42zM290 270q0 98 -73 98q-72 0 -72 -98t72 -98q73 0 73 98z" />
    <glyph glyph-name="CR" horiz-adv-x="870" 
 />
    <glyph glyph-name="kashidas.Narrow" horiz-adv-x="75" 
d="M0 175h75q8 0 12 -4.5t6 -22.5t2 -58q0 -42 -2 -61.5t-6 -24t-12 -4.5h-75q-8 0 -12 4.5t-6 22.5t-2 58q0 42 2 61.5t6 24t12 4.5z" />
    <glyph glyph-name="kashidas.Wide" horiz-adv-x="225" 
d="M0 175h225q8 0 12 -4.5t6 -22.5t2 -58q0 -42 -2 -61.5t-6 -24t-12 -4.5h-225q-8 0 -12 4.5t-6 22.5t-2 58q0 42 2 61.5t6 24t12 4.5z" />
    <glyph glyph-name="he.arab.isol" horiz-adv-x="615" 
d="M415 0h-160q-91 -78 -135 -110l-100 125q45 27 80 55q-70 56 -70 140q0 74 53 127t137 53q23 0 44 -6l91 91l182 -193q53 -57 53 -122q0 -69 -47.5 -114.5t-127.5 -45.5zM203 170q27 18 27 45q0 12 -7.5 21t-19.5 9q-13 0 -20.5 -9t-7.5 -21q0 -27 28 -45zM420 188
q0 7 -7.5 15.5t-37.5 36.5v-5q0 -30 -10 -60h35q20 0 20 13z" />
    <glyph glyph-name=".seperator" horiz-adv-x="480" 
d="M430 555v-555h-380v555h380zM275 175v80l-65 -80h65zM205 300l65 80h-65v-80z" />
    <glyph glyph-name="sefr.tnum" horiz-adv-x="615" 
d="M307 390q71 0 130.5 -57t59.5 -128t-59.5 -128t-130.5 -57q-72 0 -131 56.5t-59 128.5t59 128.5t131 56.5zM307 175q12 0 21 9.5t9 20.5q0 12 -9 21t-21 9t-21 -9t-9 -21q0 -11 9 -20.5t21 -9.5z" />
    <glyph glyph-name="yek.tnum" horiz-adv-x="615" 
d="M412 -50h-165v220q0 82 -10.5 143t-34.5 142l160 55q29 -88 39.5 -159.5t10.5 -175.5v-225z" />
    <glyph glyph-name="do.tnum" horiz-adv-x="615" 
d="M342 170q-15 0 -20 2v-222h-165v220q0 82 -10.5 143t-34.5 142l160 55l35 -150q4 -17 16 -17q14 0 14 17q0 20 -20 120l165 30q20 -107 20 -170q0 -73 -43.5 -121.5t-116.5 -48.5z" />
    <glyph glyph-name="se.tnum" horiz-adv-x="615" 
d="M385 510q18 -100 20 -162q5 -5 14 -5q16 0 16 17q0 30 -15 120l165 30q15 -85 15 -170q0 -73 -43.5 -121.5t-116.5 -48.5q-53 0 -92 40q-39 -40 -103 -40q-15 0 -20 2v-222h-165v220q0 82 -10.5 143t-34.5 142l160 55l35 -150q4 -17 16 -17q14 0 14 17q0 20 -20 120z" />
    <glyph glyph-name="char.tnum" horiz-adv-x="615" 
d="M272 315q-5 25 -5 40q0 69 46 114.5t114 45.5q51 0 120 -25l-35 -145q-50 10 -75 10q-30 0 -30 -22q0 -23 25 -23q20 0 100 20l35 -145q-105 -35 -190 -35q-73 0 -120 16v-216h-165v220q0 82 -10.5 143t-34.5 142l160 55l40 -175q3 -12 8 -16t17 -4z" />
    <glyph glyph-name="panj.tnum" horiz-adv-x="615" 
d="M410 140q0 68 -110 155q-95 -88 -95 -160q0 -25 17 -25q18 0 18 25v55h135v-75q7 -5 15 -5q20 0 20 30zM50 115q0 117 135 265l-30 26l105 124q123 -94 192 -169t91 -125.5t22 -105.5q0 -87 -51 -136t-114 -49q-61 0 -95 30q-33 -30 -90 -30q-78 0 -121.5 45.5
t-43.5 124.5z" />
    <glyph glyph-name="shish.tnum" horiz-adv-x="615" 
d="M410 340l80 -115q-50 -44 -90 -92.5t-62 -82t-68 -110.5l-140 80q64 104 115 155q-63 14 -91.5 56t-28.5 99q0 77 48 131t122 54q60 0 135 -30l-45 -135q-50 10 -75 10q-30 0 -30 -24q0 -21 25 -21q30 0 105 25z" />
    <glyph glyph-name="haft.tnum" horiz-adv-x="615" 
d="M387 -50h-160q-25 144 -57.5 237.5t-102.5 237.5l150 90q40 -77 59 -139.5t31 -150.5q12 88 31 150.5t59 139.5l150 -90q-70 -144 -102.5 -237.5t-57.5 -237.5z" />
    <glyph glyph-name="hasht.tnum" horiz-adv-x="615" 
d="M227 505h160q25 -144 57.5 -237.5t102.5 -237.5l-150 -90q-40 77 -59 139.5t-31 150.5q-12 -88 -31 -150.5t-59 -139.5l-150 90q70 144 102.5 237.5t57.5 237.5z" />
    <glyph glyph-name="noh.tnum" horiz-adv-x="615" 
d="M490 -50h-165v198q-15 -3 -35 -3q-82 0 -123.5 46.5t-41.5 118.5q0 80 51.5 142.5t133.5 62.5q91 0 135.5 -68.5t44.5 -171.5v-325zM335 311q0 17 -8 30.5t-22 13.5q-11 0 -18 -9t-7 -21q0 -20 25 -20q15 0 30 6z" />
    </font>
</defs>
</svg>
